<svg width="380.000000" height="264.000000" viewBox="0 0 380 264" fill="none" xmlns="http://www.w3.org/2000/svg" xmlns:xlink="http://www.w3.org/1999/xlink">
	<desc>
			Created with Pixso.
	</desc>
	<defs>
		<filter id="filter_6370_825_dd" x="-112.500000" y="59.500000" width="480.000000" height="99.000000" filterUnits="userSpaceOnUse" color-interpolation-filters="sRGB">
			<feFlood flood-opacity="0" result="BackgroundImageFix"/>
			<feBlend mode="normal" in="SourceGraphic" in2="BackgroundImageFix" result="shape"/>
			<feGaussianBlur stdDeviation="2.16667" result="effect_layerBlur_1"/>
		</filter>
		<clipPath id="clip6370_833">
			<rect id="kia-4 1" rx="-0.500000" width="51.000000" height="11.000000" transform="translate(292.500000 103.500000)" fill="white" fill-opacity="0"/>
		</clipPath>
		<clipPath id="clip6370_583">
			<rect id="kia-4 1" rx="-0.500000" width="51.000000" height="11.000000" transform="translate(354.500000 149.500000)" fill="white" fill-opacity="0"/>
		</clipPath>
		<filter id="filter_6370_772_dd" x="-20837.000000" y="-3017.000000" width="0.000000" height="0.000000" filterUnits="userSpaceOnUse" color-interpolation-filters="sRGB">
			<feFlood flood-opacity="0" result="BackgroundImageFix"/>
			<feBlend mode="normal" in="SourceGraphic" in2="BackgroundImageFix" result="shape"/>
			<feGaussianBlur stdDeviation="2.1" result="effect_layerBlur_1"/>
		</filter>
		<linearGradient x1="379.999969" y1="107.250031" x2="-0.000031" y2="107.250031" id="paint_linear_6370_557_0" gradientUnits="userSpaceOnUse">
			<stop stop-color="#FFFFFF" stop-opacity="0.000000"/>
			<stop offset="0.495000" stop-color="#CDCDCD"/>
			<stop offset="1.000000" stop-color="#999999" stop-opacity="0.000000"/>
		</linearGradient>
	</defs>
	<rect id="Rectangle 3611" rx="15.000000" width="380.000000" height="264.000000" fill="#F2F2F2" fill-opacity="1.000000"/>
	<mask id="mask6370_557" mask-type="alpha" maskUnits="userSpaceOnUse" x="0.000000" y="0.000000" width="380.000000" height="264.000000">
		<rect id="Rectangle 3611" rx="15.000000" width="380.000000" height="264.000000" fill="url(#paint_linear_6370_557_0)" fill-opacity="1.000000"/>
	</mask>
	<g mask="url(#mask6370_557)">
		<g opacity="0.500000" filter="url(#filter_6370_825_dd)">
			<rect id="Rectangle 3611" x="21.000000" y="66.000000" rx="15.000000" width="86.000000" height="86.000000" fill="#FAFAFC" fill-opacity="1.000000"/>
			<path id="Vector" d="M82.37 125.8L82.37 118.49L79.35 118.49L79.35 125.8L82.37 125.8ZM66.41 122.77L66.41 118.6L63.48 118.6L63.48 121.78C63.48 122.71 63.45 122.97 63.39 123.21C63.19 123.88 62.48 124.17 61.76 124.17C60.76 124.17 60.3 123.78 60.12 123.17C60.06 122.97 60.04 122.75 60.02 122.52C60 122.28 60.02 122.03 60.02 121.75L60.02 118.6L57.06 118.6L57.06 122.78C57.06 123.73 57.38 124.43 57.9 124.91C58.78 125.78 60.28 126.04 61.67 126.04C63.35 126.04 64.65 125.8 65.57 124.89C66.05 124.43 66.41 123.82 66.41 122.77ZM52.05 122.25C51.91 122.22 51.76 122.21 51.61 122.21L48.28 122.21C48.11 122.21 47.93 122.23 47.83 122.25C47.89 122.19 48 122.08 48.11 121.93L49.61 119.45C49.81 119.12 49.91 118.9 49.94 118.81C49.98 118.9 50.07 119.12 50.27 119.47L51.81 121.97C51.89 122.08 52 122.19 52.05 122.25ZM57.64 125.8L50.98 115.81L47.24 115.81L48.22 116.98C48.24 116.99 48.28 117.01 48.32 117.03C48.28 117.05 48.24 117.07 48.22 117.09L42.41 125.8L45.78 125.8L46.69 124.3C46.72 124.23 46.74 124.15 46.74 124.12C46.78 124.12 46.87 124.15 46.96 124.15L52.98 124.15C53.07 124.15 53.14 124.13 53.18 124.12C53.18 124.17 53.19 124.22 53.22 124.26L54.16 125.8L57.64 125.8ZM78.54 122.04C78.54 121.23 78.21 120.29 77.17 118.97L74.67 115.81L71.2 115.81L73.18 118.03C73.51 118.4 73.93 118.73 73.93 118.73C73.45 118.45 72.84 118.34 72.36 118.34C71.22 118.34 70.05 118.58 69.01 119.16C67.9 119.77 67.16 120.79 67.16 122.14C67.16 123.17 67.63 123.97 68.22 124.58C69.55 125.91 71.97 126.04 72.86 126.04C74.17 126.04 76.23 125.74 77.39 124.69C78.08 124.06 78.54 123.19 78.54 122.04ZM75.66 122.14C75.66 122.89 75.16 123.47 74.53 123.78C74.01 124.06 73.4 124.13 72.86 124.13C72.33 124.13 71.7 124.02 71.18 123.76C70.55 123.45 70.07 122.84 70.07 122.17C70.07 121.38 70.68 120.75 71.4 120.43C71.84 120.23 72.38 120.16 72.81 120.16C73.21 120.16 73.81 120.21 74.27 120.4C75.1 120.75 75.66 121.41 75.66 122.14ZM81.41 92C79.25 91.99 77.14 92.72 75.45 94.07C73.75 92.72 71.65 91.99 69.48 92C67.31 91.99 65.21 92.72 63.51 94.07C61.82 92.72 59.71 91.99 57.55 92C55.38 91.99 53.28 92.72 51.58 94.07C49.89 92.72 47.78 91.99 45.62 92C40.3 92 36 96.3 36 101.62C36 106.93 40.3 111.24 45.62 111.24C47.78 111.24 49.89 110.51 51.58 109.17C53.28 110.51 55.38 111.24 57.55 111.24C59.71 111.24 61.82 110.51 63.51 109.17C65.21 110.51 67.31 111.24 69.48 111.24C71.65 111.24 73.75 110.51 75.45 109.17C77.14 110.51 79.25 111.24 81.41 111.24C86.73 111.24 91.03 106.93 91.03 101.62C91.03 96.3 86.73 92 81.41 92ZM50.01 107.59C48.78 108.49 47.25 109.03 45.62 109.03C41.52 109.03 38.2 105.72 38.2 101.62C38.2 97.52 41.52 94.2 45.62 94.2C47.25 94.2 48.78 94.75 50.01 95.64C48.66 97.34 47.92 99.45 47.93 101.62C47.93 103.79 48.66 105.89 50.01 107.59ZM51.58 106.02C50.64 104.75 50.13 103.2 50.13 101.62C50.13 100.03 50.64 98.48 51.58 97.21C52.53 98.48 53.04 100.03 53.03 101.62C53.04 103.2 52.53 104.75 51.58 106.02ZM61.94 107.59C60.67 108.53 59.12 109.04 57.54 109.03C55.96 109.04 54.43 108.53 53.16 107.59C54.5 105.89 55.24 103.79 55.24 101.62C55.24 99.45 54.51 97.34 53.16 95.64C54.43 94.7 55.96 94.2 57.54 94.2C59.19 94.2 60.71 94.73 61.94 95.64C60.59 97.34 59.85 99.45 59.86 101.62C59.86 103.79 60.59 105.89 61.94 107.59ZM63.51 106.02C62.57 104.75 62.06 103.2 62.06 101.62C62.06 100.03 62.57 98.48 63.51 97.21C64.46 98.48 64.97 100.03 64.97 101.62C64.97 103.2 64.46 104.75 63.51 106.02ZM73.87 107.59C72.64 108.5 71.12 109.03 69.48 109.03C67.83 109.03 66.32 108.5 65.09 107.59C66.43 105.89 67.17 103.79 67.17 101.62C67.17 99.45 66.44 97.34 65.09 95.64C66.32 94.73 67.83 94.2 69.48 94.2C71.12 94.2 72.64 94.73 73.87 95.64C72.52 97.34 71.79 99.45 71.79 101.62C71.79 103.79 72.52 105.89 73.87 107.59ZM75.45 106.02C74.5 104.75 73.99 103.2 74 101.62C73.99 100.03 74.5 98.48 75.45 97.21C76.39 98.48 76.9 100.03 76.9 101.62C76.9 103.2 76.39 104.75 75.45 106.02ZM81.41 109.03C79.78 109.03 78.25 108.49 77.02 107.59C78.37 105.89 79.1 103.79 79.1 101.62C79.11 99.45 78.37 97.34 77.02 95.64C78.25 94.75 79.78 94.2 81.41 94.2C85.51 94.2 88.83 97.52 88.83 101.62C88.83 105.72 85.51 109.03 81.41 109.03Z" fill="#242424" fill-opacity="1.000000" fill-rule="evenodd"/>
			<rect id="Rectangle 3611" x="275.000000" y="66.000000" rx="15.000000" width="86.000000" height="86.000000" fill="#FAFAFC" fill-opacity="1.000000"/>
			<rect id="kia-4 1" rx="-0.500000" width="51.000000" height="11.000000" transform="translate(292.500000 103.500000)" fill="#FFFFFF" fill-opacity="0"/>
			<g clip-path="url(#clip6370_833)">
				<path id="Vector" d="M322.16 113.61C322.16 113.71 322.19 113.77 322.25 113.77C322.3 113.76 322.34 113.74 322.38 113.71L338.58 103.41C338.86 103.22 339.18 103.13 339.52 103.14L343.08 103.14C343.63 103.14 344 103.49 344 104.03L344 110.69C344 111.49 343.81 111.96 343.09 112.39L338.77 114.94C338.72 114.97 338.67 114.98 338.62 114.99C338.57 114.99 338.52 114.95 338.52 114.8L338.52 107.03C338.52 106.94 338.49 106.87 338.43 106.87C338.38 106.88 338.34 106.9 338.3 106.93L326.46 114.46C326.19 114.64 325.87 114.74 325.55 114.73L317.7 114.73C317.15 114.73 316.78 114.38 316.78 113.84L316.78 104.24C316.78 104.16 316.75 104.1 316.69 104.1C316.64 104.1 316.6 104.12 316.56 104.15L308.75 108.74C308.67 108.79 308.65 108.83 308.65 108.87C308.65 108.9 308.67 108.93 308.72 108.98L314.3 114.45C314.37 114.52 314.43 114.57 314.43 114.64C314.43 114.69 314.34 114.73 314.24 114.73L309.2 114.73C308.81 114.73 308.5 114.67 308.28 114.46L304.9 111.15C304.89 111.14 304.87 111.13 304.85 111.12C304.84 111.11 304.82 111.1 304.8 111.1C304.76 111.1 304.72 111.11 304.69 111.13L299.04 114.46C298.69 114.67 298.46 114.72 298.12 114.72L292.92 114.72C292.36 114.73 292 114.37 292 113.83L292 107.3C292 106.49 292.18 106.02 292.91 105.6L297.26 103.04C297.29 103.02 297.33 103.01 297.37 103C297.44 103 297.48 103.07 297.48 103.22L297.48 111.97C297.48 112.06 297.5 112.1 297.56 112.1C297.61 112.09 297.65 112.07 297.69 112.05L312.38 103.4C312.66 103.21 313 103.12 313.35 103.13L321.25 103.13C321.79 103.13 322.16 103.49 322.16 104.02L322.16 113.61L322.16 113.61Z" fill="#131E29" fill-opacity="1.000000" fill-rule="nonzero"/>
			</g>
			<rect id="Rectangle 3611" x="-106.000000" y="66.000000" rx="15.000000" width="86.000000" height="86.000000" fill="#FAFAFC" fill-opacity="1.000000"/>
			<path id="Vector" d="M-62.84 88C-51.18 88 -41.67 97.5 -41.67 109.16C-41.67 120.82 -51.18 130.33 -62.84 130.33C-74.5 130.33 -84 120.82 -84 109.16C-84 97.5 -74.5 88 -62.84 88Z" fill="#000000" fill-opacity="1.000000" fill-rule="evenodd"/>
			<path id="Vector" d="M-75.14 102.81L-80.13 98.52L-78.26 96.34C-77.88 95.9 -77.52 95.59 -77.19 95.41C-76.86 95.23 -76.52 95.15 -76.18 95.18C-75.85 95.21 -75.56 95.32 -75.33 95.52C-75.12 95.7 -74.97 95.94 -74.9 96.24C-74.83 96.54 -74.85 96.87 -74.97 97.24C-74.58 96.97 -74.19 96.83 -73.82 96.82C-73.44 96.82 -73.11 96.94 -72.82 97.19C-72.59 97.39 -72.42 97.64 -72.32 97.93C-72.21 98.21 -72.18 98.49 -72.22 98.75C-72.25 99.01 -72.35 99.3 -72.51 99.6C-72.68 99.9 -72.92 100.23 -73.24 100.6L-75.14 102.81ZM-77.37 99.56L-76.29 98.3C-76 97.96 -75.81 97.7 -75.72 97.52C-75.6 97.28 -75.56 97.07 -75.59 96.87C-75.62 96.67 -75.73 96.49 -75.9 96.34C-76.07 96.2 -76.25 96.12 -76.46 96.11C-76.66 96.09 -76.86 96.15 -77.06 96.28C-77.25 96.41 -77.53 96.68 -77.89 97.1L-78.88 98.26L-77.37 99.56ZM-75.07 101.54L-73.83 100.1C-73.61 99.85 -73.47 99.67 -73.4 99.55C-73.27 99.35 -73.19 99.17 -73.16 98.99C-73.12 98.82 -73.13 98.64 -73.18 98.46C-73.24 98.28 -73.34 98.12 -73.5 97.99C-73.69 97.83 -73.9 97.74 -74.13 97.73C-74.36 97.73 -74.59 97.8 -74.82 97.95C-75.04 98.1 -75.31 98.35 -75.63 98.72L-76.78 100.06L-75.07 101.54ZM-66.83 95.43L-66.83 89.78L-65.34 89.78L-63.57 93.78C-63.41 94.16 -63.29 94.44 -63.22 94.62C-63.13 94.42 -63 94.11 -62.82 93.71L-61.03 89.78L-59.7 89.78L-59.7 95.43L-60.65 95.43L-60.65 90.7L-62.82 95.43L-63.72 95.43L-65.88 90.62L-65.88 95.43L-66.83 95.43ZM-53.32 98.73L-49.86 94.05L-49.39 94.63L-51.73 97.61C-51.97 97.92 -52.22 98.22 -52.48 98.51C-51.92 98.24 -51.6 98.09 -51.51 98.05L-47.9 96.47L-47.34 97.16L-49.06 99.57C-49.49 100.17 -49.91 100.7 -50.34 101.16C-50.02 100.99 -49.65 100.8 -49.22 100.6L-45.86 98.99L-45.39 99.56L-50.73 101.93L-51.17 101.39L-48.57 97.78C-48.35 97.48 -48.21 97.29 -48.16 97.23C-48.4 97.35 -48.6 97.44 -48.78 97.52L-52.85 99.31L-53.32 98.73Z" fill="#FFFFFF" fill-opacity="1.000000" fill-rule="nonzero"/>
			<path id="Vector" d="M-50.34 109.37C-50.34 116.14 -55.86 121.67 -62.63 121.67L-62.63 109.37L-50.34 109.37Z" fill="#00ACEC" fill-opacity="1.000000" fill-rule="evenodd"/>
			<path id="Vector" d="M-50.34 108.95C-50.34 102.18 -55.86 96.66 -62.63 96.66L-62.63 108.95L-50.34 108.95Z" fill="#FFFFFF" fill-opacity="1.000000" fill-rule="evenodd"/>
			<path id="Vector" d="M-75.34 108.95C-75.34 102.18 -69.82 96.66 -63.05 96.66L-63.05 108.95L-75.34 108.95Z" fill="#00ACEC" fill-opacity="1.000000" fill-rule="evenodd"/>
			<path id="Vector" d="M-75.34 109.37C-75.34 116.14 -69.82 121.67 -63.05 121.67L-63.05 109.37L-75.34 109.37Z" fill="#FFFFFF" fill-opacity="1.000000" fill-rule="evenodd"/>
			<rect id="Rectangle 3611" x="148.000000" y="66.000000" rx="15.000000" width="86.000000" height="86.000000" fill="#FAFAFC" fill-opacity="1.000000"/>
			<path id="Vector" d="M200.9 124.16C198.32 126.52 196.1 127.79 191.42 130.24C187.06 128.26 184.21 126.31 181.74 124.38C178.34 121.73 175.89 117.42 175.67 114.77L173.97 89.61C185.5 86.62 197.75 86.68 208.35 89.81L206.63 114.72C206.41 116.97 204.39 121.36 200.9 124.16Z" fill="#EDC95E" fill-opacity="1.000000" fill-rule="evenodd"/>
			<path id="Vector" d="M191.42 130.24C187.06 128.26 184.21 126.31 181.74 124.38C178.34 121.73 175.89 117.42 175.67 114.77L173.97 89.61C185.5 86.62 197.75 86.68 208.35 89.81L206.63 114.72C206.41 116.97 204.39 121.36 200.9 124.16C198.32 126.52 196.1 127.79 191.42 130.24Z" stroke="#000000" stroke-opacity="1.000000" stroke-width="0.300000"/>
			<path id="Vector" d="M204.65 113.89L206.21 91.65C197.09 88.75 186.16 88.7 176.09 91.35L177.68 113.88C177.84 116.22 179.53 119.8 182.76 122.55C184.71 124.2 188.52 126.97 191.34 128.03C194.58 126.39 197.53 124.35 199.87 122.34C202.77 119.7 204.48 116.41 204.65 113.89Z" fill="#EDC95E" fill-opacity="1.000000" fill-rule="evenodd"/>
			<path id="Vector" d="M206.21 91.65C197.09 88.75 186.16 88.7 176.09 91.35L177.68 113.88C177.84 116.22 179.53 119.8 182.76 122.55C184.71 124.2 188.52 126.97 191.34 128.03C194.58 126.39 197.53 124.35 199.87 122.34C202.77 119.7 204.48 116.41 204.65 113.89L206.21 91.65Z" stroke="#000000" stroke-opacity="1.000000" stroke-width="0.300000"/>
			<path id="Vector" d="M199.49 121.75C197.25 123.68 194.24 125.85 191.34 127.23C188.75 126.43 184.92 123.48 183.08 121.89C179.87 119.12 178.56 116.22 178.36 113.47L176.8 91.96C186.39 89.45 196.86 89.45 205.55 92.22L204.01 113.44C203.79 116.26 202.47 118.96 199.49 121.75Z" fill="#EDC95E" fill-opacity="1.000000" fill-rule="evenodd"/>
			<path id="Vector" d="M191.34 127.23C188.75 126.43 184.92 123.48 183.08 121.89C179.87 119.12 178.56 116.22 178.36 113.47L176.8 91.96C186.39 89.45 196.86 89.45 205.55 92.22L204.01 113.44C203.79 116.26 202.47 118.96 199.49 121.75C197.25 123.68 194.24 125.85 191.34 127.23Z" stroke="#000000" stroke-opacity="1.000000" stroke-width="0.300000"/>
			<path id="Vector" d="M177.83 96.09C186.98 93.8 196.57 94.03 204.53 96.44L204.87 92.67C196.62 90.14 186.61 90 177.52 92.38L177.83 96.09Z" stroke="#000000" stroke-opacity="1.000000" stroke-width="0.300000"/>
			<path id="Vector" d="M200.28 93.76L198.22 93.42L198.14 94.39L197.46 94.29L197.62 91.71L198.31 91.81L198.24 92.8L200.33 93.14L200.4 92.15L201.1 92.29L200.89 94.86L200.2 94.74L200.28 93.76ZM190.32 92.89C190.07 92.89 189.86 92.82 189.73 92.59C189.61 92.41 189.61 91.81 189.73 91.62C189.86 91.39 190.08 91.32 190.27 91.32L193.2 91.33L193.2 91.96L190.43 91.96C190.3 91.96 190.29 92.26 190.45 92.26L192.63 92.26C192.88 92.26 193.11 92.41 193.18 92.62C193.26 92.83 193.25 93.32 193.18 93.52C193.12 93.72 192.89 93.83 192.6 93.83L189.72 93.83L189.71 93.19L192.28 93.19C192.32 93.18 192.36 93.17 192.38 93.14C192.41 93.11 192.42 93.07 192.42 93.04C192.42 93 192.41 92.96 192.38 92.93C192.36 92.91 192.32 92.89 192.28 92.88L190.32 92.89ZM188.62 93.14C188.62 93.11 188.61 93.08 188.6 93.05C188.59 93.02 188.57 92.99 188.55 92.97C188.52 92.95 188.5 92.93 188.47 92.92C188.43 92.91 188.4 92.9 188.37 92.9L186.43 93.05L186.47 94.01L185.84 94.07L185.71 91.53L188.6 91.32C188.97 91.29 189.19 91.57 189.21 91.8C189.23 92.08 189.24 92.43 189.03 92.58C189.21 92.71 189.25 92.91 189.26 93.19L189.26 93.84L188.63 93.86L188.62 93.14Z" fill="#000000" fill-opacity="1.000000" fill-rule="evenodd"/>
			<path id="Vector" d="M188.21 92.32C188.46 92.3 188.44 91.92 188.21 91.94L186.36 92.08L186.38 92.43L188.21 92.32Z" fill="#EDC95E" fill-opacity="1.000000" fill-rule="evenodd"/>
			<path id="Vector" d="M182.16 91.98C182.75 91.84 183.96 91.65 184.6 91.6C184.89 91.58 185.12 91.73 185.16 91.96C185.25 92.48 185.31 93.01 185.24 93.74C185.23 93.95 185.05 94.11 184.81 94.16C183.99 94.34 183.08 94.44 182.4 94.5C182.22 94.52 181.95 94.38 181.9 94.17C181.78 93.64 181.74 92.91 181.78 92.41C181.79 92.22 181.96 92.02 182.16 91.98Z" fill="#000000" fill-opacity="1.000000" fill-rule="evenodd"/>
			<path id="Vector" d="M184.46 93.53C184.55 93.51 184.58 93.42 184.59 93.36C184.62 93.16 184.59 92.64 184.55 92.47C184.53 92.4 184.47 92.36 184.35 92.37C183.99 92.39 183.06 92.52 182.6 92.62C182.48 92.65 182.43 92.72 182.43 92.79C182.4 92.96 182.45 93.42 182.5 93.68C182.51 93.74 182.59 93.78 182.65 93.78C183.27 93.73 184 93.63 184.46 93.53Z" fill="#EDC95E" fill-opacity="1.000000" fill-rule="evenodd"/>
			<path id="Vector" d="M194.66 92.09C194.53 92.08 194.43 92.17 194.42 92.24C194.39 92.45 194.38 92.72 194.38 93.08C194.38 93.13 194.46 93.26 194.53 93.27C195.15 93.35 196.35 93.46 197 93.5L196.96 94.17C196.1 94.13 195.2 93.99 194.27 93.93C193.97 93.9 193.74 93.74 193.73 93.45C193.71 92.96 193.74 92.23 193.83 91.8C193.89 91.54 194.14 91.4 194.42 91.41C195.28 91.44 195.96 91.52 197.09 91.67L197.05 92.33C196.5 92.28 195.47 92.12 194.66 92.09ZM180.59 92.28C181.46 92.08 181.59 93.62 180.87 93.8L178.84 94.31L178.93 95.3L178.3 95.47L178.07 92.87L180.59 92.28Z" fill="#000000" fill-opacity="1.000000" fill-rule="evenodd"/>
			<path id="Vector" d="M180.58 93.29C180.79 93.25 180.76 92.87 180.54 92.92L178.71 93.36L178.75 93.74L180.58 93.29Z" fill="#EDC95E" fill-opacity="1.000000" fill-rule="evenodd"/>
			<path id="Vector" d="M202.1 94.14L202.06 94.56L204.07 95.07L204.02 95.65L201.32 95.01L201.55 92.39L204.27 93.05L204.21 93.66L202.19 93.17L202.15 93.62L204.15 94.1L204.1 94.62L202.1 94.14Z" fill="#000000" fill-opacity="1.000000" fill-rule="evenodd"/>
			<path id="Vector" d="M185.78 103.37L185.78 102.45L185.78 102.01L190.95 102.01L190.95 94.94C186.93 94.94 182.52 95.32 177.85 96.63L178.81 109.89L185.78 109.89L185.78 105.55L185.78 103.37Z" stroke="#000000" stroke-opacity="1.000000" stroke-width="0.300000"/>
			<path id="Vector" d="M185.77 103.16C185.77 103.11 185.2 103.07 184.91 103.11C184.16 103.2 182.27 103.79 181.47 104.34C181.45 104.39 181.46 104.65 181.4 104.77C181.35 104.88 181.24 105 181.12 105.05C180.92 105.14 180.68 104.86 180.58 104.9C180.47 104.94 180.24 105.04 179.99 104.86C179.88 104.78 179.82 104.56 179.86 104.39C179.9 104.27 180 104.18 180.08 104.11C180.15 104.03 180.1 103.76 180.35 103.59C180.54 103.48 180.78 103.57 180.97 103.67C181.02 103.66 181.05 103.64 181.08 103.61C181.1 103.53 181.14 103.3 181.18 103.13C181.22 102.93 181.24 102.81 181.29 102.63C181.44 102.19 181.78 101.57 182.14 101.24C182.43 100.99 182.87 100.79 183.2 100.81C183.17 100.86 182.76 101.22 182.64 101.38C182.36 101.76 182.1 102.33 181.98 102.82C181.93 102.99 181.93 103.05 181.96 103.15C182.23 103.04 182.58 102.92 182.78 102.86C182.85 102.68 182.9 102.48 182.97 102.32C183.08 102.07 183.14 101.96 183.26 101.78C183.58 101.29 184.25 100.8 184.75 100.81C184.59 100.95 184.24 101.31 184.1 101.53C183.99 101.71 183.89 101.9 183.81 102.1C183.74 102.28 183.72 102.41 183.7 102.56C183.96 102.49 184.21 102.43 184.38 102.42C184.49 102.36 184.53 102.24 184.59 102.13C184.78 101.77 185.15 101.38 185.39 101.25C185.58 101.14 185.86 101.04 186.06 101.11C185.85 101.27 185.62 101.53 185.52 101.68C185.42 101.85 185.25 102.17 185.25 102.32C185.43 102.33 185.66 102.32 185.76 102.3L185.77 103.16Z" fill="#000000" fill-opacity="1.000000" fill-rule="evenodd"/>
			<path id="Vector" d="M183.48 97.34C183.75 96.96 184.47 96.39 185.02 96.42C184.72 96.68 184.46 96.97 184.27 97.28C184.02 97.68 183.83 98.18 183.78 98.56C183.97 98.5 184.4 98.37 184.65 98.32C184.87 97.84 185.15 97.31 185.51 97.03C185.77 96.83 186.13 96.65 186.47 96.69C186.4 96.8 186.27 96.89 186.17 96.98C185.99 97.13 185.87 97.34 185.77 97.55C185.7 97.71 185.58 98.18 185.58 98.21C185.82 98.2 186.26 98.23 186.35 98.26C186.65 97.88 187.28 97.33 188.05 97.45C187.71 97.63 187.11 98.16 187.15 98.44C187.64 98.76 188.38 99.43 188.42 100.06C188.08 99.7 187.52 99.35 187.24 99.26C186.57 99.02 185.77 98.99 185.1 99.11C183.7 99.37 182.47 99.98 181.28 100.68C181.26 100.87 181.15 101.16 181.07 101.26C180.98 101.36 180.85 101.45 180.71 101.47C180.53 101.5 180.35 101.43 180.2 101.35C180.1 101.29 179.85 101.36 179.69 101.28C179.58 101.22 179.4 101.06 179.45 100.8C179.49 100.58 179.72 100.44 179.75 100.22C179.8 99.91 180.02 99.77 180.14 99.75C180.27 99.73 180.41 99.77 180.53 99.82C180.58 99.85 180.63 99.89 180.68 99.9C180.72 99.89 180.79 99.83 180.83 99.81C180.84 99.78 180.96 99.12 181.02 98.83C181.09 98.55 181.2 98.3 181.3 98.03C181.58 97.24 182.44 96.43 183.14 96.47C183.1 96.53 182.88 96.69 182.57 97.05C182.07 97.63 181.94 98.25 181.76 99.32C182.14 99.14 182.48 99.01 182.82 98.88C182.91 98.55 183.02 98.23 183.16 97.92C183.25 97.72 183.35 97.52 183.48 97.34Z" fill="#000000" fill-opacity="1.000000" fill-rule="evenodd"/>
			<path id="Vector" d="M204.44 98.23L191.59 98.24L191.6 102.02L204.15 102.01L204.44 98.23Z" fill="#CA3132" fill-opacity="1.000000" fill-rule="evenodd"/>
			<path id="Vector" d="M194.54 115.13C194.45 115.49 194.41 116.1 194.41 116.12C194.63 116.03 194.84 115.95 195.02 115.89C195.03 115.87 195.29 115.32 195.4 115.16C195.67 114.75 196.04 114.39 196.48 114.16C196.76 114.02 197.09 113.89 197.39 114C197 114.18 196.69 114.52 196.51 114.72C196.34 114.9 196.14 115.16 196.05 115.43C196.04 115.48 196.02 115.58 196.02 115.58C196.21 115.52 196.79 115.43 197.04 115.4C197.07 115.4 197.14 115.24 197.2 115.16C197.27 115.06 197.32 115 197.43 114.87C197.73 114.55 198.23 114.21 198.71 114.28C198.44 114.45 198.15 114.72 197.92 115.15C197.89 115.21 197.85 115.3 197.86 115.34C197.93 115.36 198.29 115.35 198.51 115.37C198.76 115.22 199.02 115.08 199.3 115.02C199.62 114.95 200.04 115.01 200.2 115.16C200.01 115.15 199.83 115.18 199.65 115.25C199.55 115.29 199.35 115.38 199.27 115.51C199.46 115.57 199.78 115.77 199.97 115.94C200.11 116.05 200.27 116.22 200.38 116.37C200.64 116.72 200.7 117.36 200.56 117.55C200.52 117.44 200.47 117.33 200.41 117.23C200.29 117.01 200.09 116.78 199.92 116.66C199.1 116.04 197.93 116.01 196.97 116.2C196.14 116.37 194.66 116.68 193.69 117.37C193.71 117.49 193.64 117.69 193.52 117.77C193.38 117.88 193.17 117.73 193.06 117.79C192.91 117.87 192.73 117.82 192.65 117.79C192.52 117.73 192.44 117.6 192.43 117.45C192.42 117.32 192.54 117.18 192.56 117.04C192.57 116.99 192.52 116.72 192.74 116.59C192.78 116.56 192.91 116.52 193 116.53C193.09 116.55 193.17 116.6 193.26 116.62C193.38 116.58 193.49 116.52 193.6 116.45C193.68 116.17 193.73 115.85 193.77 115.57L194.54 115.13Z" fill="#000000" fill-opacity="1.000000" fill-rule="evenodd"/>
			<path id="Vector" d="M196.69 110.47C196.69 112.13 196.14 113.86 194.54 115.12L193.77 115.57C193.12 115.89 192.28 116.11 191.57 116.13L191.57 126.47C194.57 124.94 197.87 122.45 199.27 121.08C201.54 118.87 203.07 116.64 203.3 113.41M203.3 113.41L203.51 110.47L196.69 110.47" stroke="#000000" stroke-opacity="1.000000" stroke-width="0.300000"/>
			<path id="Vector" d="M194.66 118.95C194.77 118.79 194.9 118.55 194.96 118.44C195.19 118.08 195.52 117.81 195.74 117.71C196.05 117.56 196.54 117.47 196.76 117.58C196.52 117.64 196.34 117.75 196.17 117.87C195.99 117.99 195.66 118.29 195.57 118.42C195.47 118.57 195.41 118.7 195.38 118.76C195.66 118.7 195.98 118.65 196.15 118.65C196.27 118.5 196.6 118.13 196.84 117.96C197.03 117.82 197.45 117.68 197.7 117.8C197.46 117.87 197.02 118.22 196.86 118.47C196.82 118.52 196.79 118.59 196.78 118.62C196.91 118.63 197.17 118.65 197.3 118.67C197.32 118.67 197.69 118.44 197.86 118.39C198.08 118.33 198.44 118.26 198.67 118.5C198.5 118.5 198.35 118.51 198.22 118.57C198.05 118.65 197.97 118.7 197.89 118.82C198.24 119 198.6 119.19 198.81 119.53C198.88 119.65 199 119.93 198.93 120.11C198.83 119.97 198.68 119.84 198.56 119.77C198.39 119.67 198.27 119.58 198.06 119.5C197.42 119.26 196.58 119.2 195.91 119.29C195.04 119.4 193.97 119.83 193.42 120.2C193.46 120.37 193.37 120.57 193.28 120.61C193.07 120.72 192.88 120.54 192.84 120.55C192.78 120.57 192.62 120.63 192.5 120.58C192.38 120.53 192.31 120.32 192.35 120.19C192.39 120.09 192.53 119.95 192.53 119.95C192.51 119.73 192.66 119.59 192.85 119.57C192.97 119.56 193.04 119.64 193.13 119.66C193.22 119.62 193.27 119.59 193.32 119.57C193.37 119.39 193.44 119.21 193.49 119.06C193.58 118.8 193.7 118.58 193.85 118.34C194.08 118 194.47 117.68 194.94 117.67C194.8 117.78 194.72 117.84 194.63 117.95C194.47 118.15 194.35 118.32 194.25 118.53C194.15 118.71 194.06 118.99 194.04 119.23C194.22 119.15 194.48 119.02 194.66 118.95ZM194.59 120.89C194.72 120.84 194.85 120.81 194.97 120.82C194.67 121.02 194.4 121.3 194.32 121.64C194.31 121.67 194.31 121.75 194.35 121.77C194.43 121.75 194.65 121.7 194.71 121.67C194.74 121.59 194.83 121.48 194.9 121.4C195.11 121.11 195.42 120.82 195.85 120.93C195.57 121.06 195.41 121.23 195.28 121.45C195.26 121.49 195.25 121.57 195.27 121.57C195.35 121.57 195.62 121.56 195.66 121.56C195.79 121.45 196.15 121.24 196.41 121.31C196.28 121.37 196.17 121.45 196.06 121.55C196.04 121.58 196.01 121.61 196 121.66C196.22 121.77 196.42 121.89 196.6 122.05C196.7 122.13 196.84 122.29 196.93 122.55C196.71 122.37 196.01 122.03 195.62 122.01C195.37 122 195.06 122.05 194.9 122.09C194.29 122.22 193.67 122.5 193.13 122.8C193.13 122.91 193.11 123.03 193 123.13C192.92 123.19 192.75 123.23 192.68 123.13C192.64 123.08 192.41 123.14 192.36 123.07C192.36 123.07 192.3 122.98 192.29 122.87C192.28 122.75 192.36 122.68 192.43 122.61C192.45 122.59 192.44 122.39 192.59 122.32C192.69 122.28 192.78 122.3 192.86 122.35C192.89 122.33 192.92 122.31 192.94 122.3C192.96 122.06 193 121.85 193.09 121.61C193.2 121.28 193.59 120.88 193.93 120.89C193.7 121.14 193.52 121.48 193.46 121.76C193.44 121.85 193.43 122.02 193.43 122.1C193.51 122.06 193.6 122.01 193.68 121.98C193.72 121.89 193.82 121.68 193.88 121.58C194.02 121.33 194.32 121.01 194.59 120.89Z" fill="#000000" fill-opacity="1.000000" fill-rule="evenodd"/>
			<path id="Vector" d="M179.15 113.79C179.2 115.04 179.71 116.55 180.41 117.6L190.87 117.6L190.85 116.14C189.51 116.14 187.45 115.25 186.64 113.8L179.15 113.79Z" fill="#CA3132" fill-opacity="1.000000" fill-rule="evenodd"/>
			<path id="Vector" d="M186.35 110.53C186.35 117.18 196.08 117.18 196.08 110.6L196.08 102.61L186.35 102.6L186.35 110.53" stroke="#000000" stroke-opacity="1.000000" stroke-width="0.300000"/>
			<path id="Vector" d="M189.48 107.35C189.6 107.22 189.7 107.06 189.72 106.92C189.74 106.8 189.41 106.81 189.29 106.88C189.23 106.92 189.17 107 189.12 107.07C189.08 107.12 188.95 107.17 188.89 107.11C188.82 107.04 188.94 106.93 188.94 106.86C188.94 106.75 188.72 106.92 188.62 106.87C188.55 106.84 188.55 106.74 188.59 106.68C188.62 106.64 188.69 106.66 188.72 106.62C188.76 106.59 188.76 106.53 188.77 106.49C188.78 106.43 188.84 106.41 188.87 106.37C189.01 106.23 189.27 106.01 189.32 106.01C189.44 106.02 189.61 106.08 189.71 106.03C189.73 106.02 189.77 105.98 189.74 105.96L189.46 105.78C189.45 105.75 189.46 105.72 189.47 105.69C189.48 105.67 189.5 105.64 189.52 105.62C189.65 105.51 189.85 105.59 190.02 105.56C190.14 105.54 190.25 105.5 190.34 105.42C190.36 105.5 190.3 105.59 190.3 105.68C190.41 105.78 190.52 105.86 190.63 105.96C190.94 106.27 191.07 106.72 191.09 107.11C191.11 107.3 191.11 107.48 191.11 107.79C191.16 107.66 191.19 107.47 191.2 107.3C191.25 106.82 191.18 106.38 190.9 106.01C190.78 105.86 190.66 105.71 190.52 105.58C190.53 105.44 190.65 105.19 190.77 105.28C190.84 105.34 190.73 105.43 190.81 105.48C190.9 105.53 191.02 105.52 191.08 105.51C191.2 105.48 191.33 105.45 191.44 105.44C191.5 105.43 191.58 105.41 191.6 105.46C191.62 105.5 191.58 105.52 191.54 105.54C191.49 105.55 191.42 105.54 191.38 105.58C191.35 105.61 191.32 105.65 191.33 105.7C191.34 105.75 191.4 105.78 191.45 105.76C191.67 105.7 191.9 105.67 192.12 105.66C192.24 105.66 192.21 105.75 192.16 105.78C192.12 105.8 192.06 105.82 192.02 105.82C191.8 105.85 191.65 105.86 191.67 105.98C191.69 106.07 191.82 105.99 191.85 106.05C191.88 106.11 191.79 106.15 191.8 106.19C191.82 106.33 192.09 106.3 192.21 106.27C192.3 106.25 192.44 106.18 192.48 106.23C192.52 106.28 192.49 106.36 192.44 106.38C192.31 106.41 192.09 106.48 192.03 106.55C191.97 106.62 192.04 106.76 192.11 106.77C192.26 106.78 192.43 106.78 192.55 106.82C192.6 106.83 192.64 106.87 192.64 106.92C192.64 106.97 192.58 106.99 192.54 107C192.46 107.03 192.32 107.03 192.24 107.06C192.22 107.07 192.17 107.09 192.18 107.12C192.2 107.17 192.3 107.16 192.39 107.17C192.44 107.17 192.54 107.21 192.54 107.27C192.54 107.32 192.49 107.34 192.4 107.33C192.26 107.32 192.13 107.34 192.07 107.37C192.05 107.37 191.94 107.39 191.95 107.44C191.95 107.5 192.07 107.46 192.1 107.52C192.12 107.58 192.04 107.61 192.04 107.68C192.04 107.71 192.05 107.72 192.08 107.74C192.18 107.78 192.28 107.77 192.38 107.75C192.47 107.74 192.51 107.87 192.48 107.88C192.36 107.95 192.08 107.88 192.01 107.92C191.92 107.97 192.16 108.1 192.16 108.13C192.15 108.16 192.12 108.2 192.1 108.2C191.98 108.25 191.82 108.16 191.73 108.21C191.65 108.26 191.68 108.38 191.64 108.44C191.58 108.51 191.45 108.48 191.39 108.52C191.32 108.58 191.31 108.71 191.4 108.79C191.46 108.85 191.52 108.89 191.61 108.93C191.98 109.12 192.37 109.3 192.73 109.28C192.92 109.27 193.22 109.26 193.39 109.3C193.61 109.35 193.84 109.52 193.95 109.59C194.04 109.65 194.2 109.67 194.31 109.62C194.4 109.59 194.46 109.49 194.44 109.41C194.39 109.12 193.91 109.03 193.9 108.74C193.9 108.41 193.87 108.23 193.76 108.02C193.72 107.94 193.71 107.76 193.81 107.74C193.88 107.72 193.91 107.82 193.97 107.8C194.25 107.69 194.26 107.25 194.54 107.17C194.71 107.12 195.28 107.11 195.24 107.04C195.12 106.87 195.17 106.68 195.24 106.59C195.28 106.53 195.4 106.48 195.44 106.53C195.51 106.61 195.35 106.7 195.36 106.81C195.37 106.91 195.52 107.11 195.4 107.22C195.34 107.29 194.82 107.31 194.67 107.54C194.58 107.68 194.57 107.79 194.68 107.78C194.77 107.77 194.84 107.66 194.93 107.6C195.07 107.49 195.19 107.45 195.27 107.53C195.32 107.57 195.26 107.64 195.18 107.66C195.12 107.69 194.96 107.85 195 107.9C195.07 107.97 195.43 107.65 195.52 107.72C195.56 107.75 195.34 107.98 195.38 108.04C195.43 108.12 195.58 108 195.62 108.06C195.69 108.15 195.51 108.31 195.4 108.39C195.31 108.44 195.35 108.64 195.23 108.71C195.1 108.77 195.03 108.88 195.05 108.9C195.06 108.93 195.1 108.95 195.15 108.92C195.29 108.83 195.48 108.72 195.55 108.75C195.6 108.76 195.53 108.97 195.48 109.06C195.43 109.16 195.7 109.11 195.66 109.19C195.62 109.27 195.61 109.35 195.63 109.43C195.65 109.54 195.34 109.57 195.31 109.64C195.27 109.73 195.34 109.75 195.37 109.75C195.56 109.78 195.54 109.96 195.46 110.03C195.36 110.14 195.19 110.17 195.04 110.15C194.91 110.13 194.62 110.07 194.44 109.94C194.39 109.91 194.31 109.93 194.3 109.99C194.29 110.05 194.35 110.16 194.38 110.25C194.42 110.39 194.4 110.57 194.35 110.71C194.25 110.99 193.98 111.23 193.91 111.57C193.89 111.66 193.92 111.77 193.95 111.86C194.03 112.04 194.15 112.22 194.27 112.38C194.29 112.43 194.32 112.48 194.3 112.53C194.27 112.6 194.04 112.76 193.98 112.82C193.77 113.01 193.6 113.26 193.56 113.53C193.54 113.62 193.34 113.72 193.2 113.76C193.09 113.79 192.98 113.82 192.9 113.88C192.89 113.96 192.93 114.03 192.94 114.11C192.96 114.25 192.79 114.32 192.66 114.36C192.59 114.38 192.53 114.4 192.46 114.4C192.43 114.4 192.43 114.36 192.43 114.33C192.47 114.15 192.51 114 192.58 113.84C192.61 113.78 192.65 113.74 192.7 113.7L193.21 113.27L193.62 112.69C193.65 112.64 193.67 112.59 193.67 112.55C193.67 112.44 193.62 112.33 193.54 112.26C193.44 112.17 193.29 112.16 193.18 112.1C193.04 112.03 192.83 111.83 192.8 111.81C192.72 111.77 192.68 111.92 192.66 112C192.65 112.13 192.68 112.24 192.68 112.37C192.68 112.43 192.68 112.46 192.65 112.5C192.31 112.69 191.89 112.76 191.64 113.07C191.6 113.12 191.56 113.18 191.5 113.22C191.36 113.32 191.12 113.21 191.02 113.36C190.97 113.43 191.03 113.52 191.01 113.59C191 113.63 190.92 113.69 190.85 113.72C190.77 113.76 190.67 113.79 190.58 113.79C190.47 113.74 190.54 113.59 190.57 113.49C190.61 113.38 190.66 113.28 190.74 113.2C190.87 113.1 191.02 112.96 191.12 112.91C191.2 112.87 191.33 112.87 191.43 112.83C191.53 112.8 191.63 112.75 191.73 112.69C191.87 112.6 192.01 112.48 192.09 112.32C192.18 112.14 192.18 111.9 192.06 111.75C191.95 111.61 191.82 111.47 191.75 111.31C191.71 111.23 191.74 111.11 191.8 111.03C191.8 111.03 191.76 111 191.73 111.01C191.21 111.03 190.69 110.97 190.21 110.78C190.09 110.73 189.96 110.57 189.87 110.56C189.79 110.55 189.74 110.65 189.65 110.67C189.52 110.71 189.35 110.69 189.19 110.67C189.01 110.65 188.64 110.57 188.37 110.49C188.33 110.5 188.28 110.5 188.24 110.53C188.18 110.57 188.17 110.65 188.17 110.73C188.16 110.82 188.19 110.91 188.18 111.01C188.18 111.06 188.15 111.12 188.16 111.16C188.18 111.22 188.23 111.25 188.27 111.28C188.34 111.34 188.35 111.47 188.35 111.57C188.35 111.68 188.31 111.83 188.4 111.9C188.46 111.95 188.54 111.89 188.61 111.9C188.69 111.92 188.71 112.01 188.72 112.09C188.72 112.18 188.65 112.36 188.6 112.41C188.57 112.44 188.52 112.41 188.48 112.4C188.37 112.35 188.28 112.27 188.22 112.17C188.19 112.13 188.19 112.08 188.17 112.03C188.13 111.95 188.06 111.9 187.99 111.85C187.9 111.78 187.88 111.67 187.87 111.56C187.86 111.47 187.87 111.37 187.88 111.27C187.9 111.08 187.89 110.89 187.85 110.7C187.81 110.56 187.73 110.41 187.77 110.27C187.79 110.2 187.83 110.14 187.9 110.11C188.25 110.09 188.59 110.03 188.92 109.93L188.71 109.72C188.65 109.72 188.61 109.77 188.56 109.77C188.5 109.77 188.42 109.69 188.4 109.66C188.29 109.49 188.22 109.3 188.17 109.11C188.12 109.03 188.06 108.96 187.97 108.92C187.92 108.9 187.85 108.88 187.78 108.89C187.6 108.96 187.44 109.12 187.43 109.32C187.42 109.37 187.45 109.41 187.44 109.46C187.43 109.55 187.37 109.6 187.31 109.67C187.24 109.73 187.19 109.79 187.16 109.87C187.14 109.95 187.17 110.02 187.2 110.09C187.22 110.14 187.24 110.18 187.23 110.23C187.18 110.35 186.9 110.47 186.82 110.47C186.79 110.47 186.76 110.43 186.75 110.4C186.72 110.29 186.73 110.18 186.75 110.07C186.82 109.99 186.88 109.89 186.91 109.78C186.96 109.64 186.93 109.49 187 109.35C187.18 109.05 187.64 108.44 187.73 108.35C187.77 108.31 187.87 108.29 187.91 108.31C188.1 108.44 188.22 108.59 188.41 108.69C188.51 108.74 188.63 108.81 188.72 108.74C188.81 108.67 188.83 108.19 188.88 108.07C188.99 107.85 189.28 107.57 189.48 107.35ZM193.06 104.36L192.98 104.66L192.69 104.66L193.07 103.24L193.4 103.24L193.76 104.65L193.47 104.65L193.4 104.36L193.06 104.36ZM192.31 103.65C192.31 103.56 192.28 103.43 192.2 103.4C192.12 103.38 192.04 103.4 192.01 103.45C191.94 103.56 191.94 103.69 191.95 103.9C191.95 104.03 191.95 104.2 191.98 104.28C192.04 104.47 192.2 104.49 192.28 104.37C192.32 104.31 192.32 104.2 192.32 104.1L192.15 104.1L192.15 103.89L192.58 103.89L192.58 104.65L192.37 104.65L192.37 104.55C192.37 104.55 192.28 104.62 192.24 104.64C192.17 104.68 192.03 104.68 191.92 104.63C191.82 104.59 191.73 104.46 191.69 104.3C191.65 104.13 191.67 103.91 191.67 103.73C191.68 103.53 191.78 103.31 191.92 103.23C192.02 103.17 192.21 103.17 192.33 103.21C192.47 103.26 192.59 103.47 192.56 103.65L192.31 103.65ZM187.49 103.26C187.6 103.34 187.66 103.47 187.64 103.62L187.42 103.62C187.42 103.48 187.35 103.41 187.23 103.41C187.16 103.4 187.06 103.49 187.06 103.55C187.06 103.75 187.23 103.78 187.34 103.82C187.43 103.85 187.53 103.9 187.59 103.97C187.68 104.11 187.69 104.26 187.61 104.44C187.58 104.53 187.44 104.64 187.33 104.66C187.2 104.69 187.04 104.68 186.91 104.58C186.8 104.5 186.76 104.35 186.78 104.21L187.03 104.21C187.03 104.28 187.04 104.33 187.07 104.37C187.1 104.4 187.13 104.45 187.2 104.45C187.23 104.45 187.26 104.45 187.28 104.44C187.31 104.43 187.33 104.41 187.35 104.39C187.37 104.37 187.38 104.35 187.39 104.32C187.4 104.3 187.4 104.27 187.4 104.24C187.39 104.03 187.02 104.01 186.89 103.87C186.74 103.7 186.79 103.42 186.91 103.31C187.08 103.15 187.31 103.15 187.49 103.26ZM194.75 104.2C194.75 104.25 194.76 104.44 194.76 104.57C194.77 104.6 194.8 104.65 194.8 104.65L194.53 104.65C194.5 104.65 194.49 104.59 194.49 104.53C194.48 104.39 194.5 104.05 194.36 104.05L194.18 104.05L194.18 104.65L193.92 104.65L193.92 103.25L194.4 103.25C194.64 103.25 194.77 103.39 194.77 103.58C194.77 103.7 194.76 103.85 194.62 103.91C194.69 103.99 194.74 104.09 194.75 104.2Z" fill="#000000" fill-opacity="1.000000" fill-rule="evenodd"/>
			<path id="Vector" d="M194.38 103.45L194.18 103.45L194.18 103.83L194.33 103.83C194.57 103.83 194.57 103.45 194.38 103.45Z" fill="#EDC95E" fill-opacity="1.000000" fill-rule="evenodd"/>
			<path id="Vector" d="M188.31 104.66L188.04 104.66L188.04 103.47L187.73 103.47L187.73 103.24L188.62 103.24L188.62 103.47L188.31 103.47L188.31 104.66ZM190.04 104.66L190.04 103.47L189.73 103.47L189.73 103.24L190.63 103.24L190.63 103.47L190.31 103.47L190.31 104.66L190.04 104.66ZM190.75 103.24L191.65 103.24L191.65 103.48L191.33 103.48L191.33 104.66L191.06 104.66L191.06 103.48L190.75 103.48L190.75 103.24ZM195.43 103.48L195.43 104.66L195.16 104.66L195.16 103.48L194.85 103.48L194.85 103.24L195.74 103.24L195.74 103.48L195.43 103.48ZM189.33 104.25L189.33 103.24L189.59 103.24L189.59 104.22C189.59 104.81 188.73 104.81 188.73 104.24L188.73 103.24L188.99 103.24L188.99 104.25C188.99 104.47 189.33 104.47 189.33 104.25Z" fill="#000000" fill-opacity="1.000000" fill-rule="evenodd"/>
			<path id="Vector" d="M190.25 105.06C190.37 104.99 190.24 105.16 190.23 105.23C190.21 105.43 190.06 105.45 189.9 105.41C189.87 105.41 189.88 105.35 189.93 105.31C190.01 105.24 190.12 105.15 190.25 105.06Z" stroke="#000000" stroke-opacity="1.000000" stroke-width="0.300000"/>
			<path id="Vector" d="M196.69 109.84L203.56 109.83L203.87 106.04L196.69 106.04L196.69 109.84ZM190.9 121.65L183.82 121.63C185.28 122.94 188.66 125.4 190.88 126.39L190.9 121.65Z" fill="#CA3132" fill-opacity="1.000000" fill-rule="evenodd"/>
			<path id="Vector" d="M185.78 106.69L185.78 107.3C185.5 107.09 184.19 106.94 183.39 107.25C183.2 107.33 182.56 107.6 182.28 107.83L181.47 108.47C181.39 108.53 181.38 108.67 181.38 108.78C181.38 109.02 181.1 109.2 180.95 109.15C180.82 109.1 180.65 109.08 180.49 109.11C180.32 109.15 180.17 108.94 180.16 108.81C180.14 108.66 180.26 108.47 180.26 108.4C180.27 108.34 180.23 108.1 180.45 107.95C180.55 107.89 180.69 107.89 180.79 107.95C180.82 107.96 180.86 107.97 180.89 107.96C180.93 107.95 181.02 107.86 181.05 107.84C181.06 107.69 181.04 107.47 181.05 107.34C181.09 107.1 181.1 106.96 181.18 106.72C181.24 106.52 181.38 106.22 181.49 106.05C181.67 105.74 182.04 105.45 182.32 105.47C182.21 105.62 182.18 105.69 182.1 105.84C181.95 106.11 181.81 106.56 181.75 106.86C181.7 107.05 181.68 107.2 181.69 107.41C181.91 107.25 182.13 107.12 182.28 107.04C182.35 106.68 182.47 106.34 182.64 106.01C182.82 105.67 183.3 105.3 183.62 105.33C183.32 105.65 183.11 106.1 183.03 106.39C183 106.51 182.96 106.64 182.97 106.71C183.09 106.65 183.34 106.58 183.46 106.57C183.53 106.37 183.64 106.14 183.73 106C184.01 105.56 184.46 105.3 184.71 105.31C184.51 105.58 184.34 105.82 184.22 106.17C184.18 106.28 184.17 106.39 184.17 106.44C184.32 106.42 184.56 106.42 184.66 106.42C184.92 106.18 184.89 106.12 185.18 105.9C185.36 105.76 185.7 105.57 185.77 105.55L185.77 105.98C185.64 106.1 185.36 106.36 185.31 106.5C185.43 106.54 185.66 106.62 185.78 106.69Z" fill="#000000" fill-opacity="1.000000" fill-rule="evenodd"/>
			<path id="Vector" d="M193.36 104.1L193.23 103.53L193.1 104.1L193.36 104.1Z" fill="#EDC95E" fill-opacity="1.000000" fill-rule="evenodd"/>
			<path id="Vector" d="M204.11 102.39L196.72 102.39L196.72 105.66L203.89 105.67L204.11 102.52L204.11 102.39ZM204.45 97.87L204.52 96.8C199.88 95.37 195.59 94.94 191.57 94.94L191.57 97.85L204.45 97.87ZM186.46 113.41C185.96 112.48 185.76 111.46 185.76 110.46L178.94 110.47L179.15 113.41L186.46 113.41ZM190.88 121.15L190.88 118.09L180.67 118.08C181.33 119.14 182.18 120.11 183.18 121.08C183.2 121.1 183.23 121.13 183.26 121.16L190.88 121.15Z" fill="#000000" fill-opacity="1.000000" fill-rule="evenodd"/>
		</g>
	</g>
	<g mask="url(#mask6370_557)">
		<rect id="Rectangle 3611" x="83.000000" y="112.000000" rx="15.000000" width="86.000000" height="86.000000" fill="#FAFAFC" fill-opacity="1.000000"/>
		<path id="Vector" d="M144.37 171.8L144.37 164.49L141.35 164.49L141.35 171.8L144.37 171.8ZM128.41 168.77L128.41 164.6L125.48 164.6L125.48 167.78C125.48 168.71 125.45 168.97 125.39 169.21C125.19 169.88 124.48 170.17 123.76 170.17C122.77 170.17 122.3 169.78 122.12 169.17C122.06 168.97 122.04 168.75 122.02 168.52C122.01 168.28 122.02 168.03 122.02 167.75L122.02 164.6L119.06 164.6L119.06 168.78C119.06 169.73 119.38 170.43 119.9 170.91C120.78 171.78 122.28 172.04 123.67 172.04C125.35 172.04 126.65 171.8 127.57 170.89C128.05 170.43 128.41 169.82 128.41 168.77ZM114.05 168.25C113.91 168.22 113.76 168.21 113.61 168.21L110.28 168.21C110.11 168.21 109.93 168.23 109.83 168.25C109.89 168.19 110 168.08 110.11 167.93L111.61 165.45C111.81 165.12 111.91 164.9 111.94 164.81C111.98 164.9 112.07 165.12 112.27 165.47L113.81 167.97C113.89 168.08 114 168.19 114.05 168.25ZM119.64 171.8L112.98 161.81L109.24 161.81L110.22 162.98C110.24 162.99 110.28 163.01 110.32 163.03C110.28 163.05 110.24 163.07 110.22 163.09L104.41 171.8L107.78 171.8L108.69 170.3C108.72 170.23 108.74 170.15 108.74 170.12C108.78 170.12 108.87 170.15 108.96 170.15L114.98 170.15C115.07 170.15 115.14 170.13 115.18 170.12C115.18 170.17 115.19 170.22 115.22 170.26L116.16 171.8L119.64 171.8ZM140.54 168.04C140.54 167.23 140.21 166.29 139.17 164.97L136.67 161.81L133.2 161.81L135.18 164.03C135.51 164.4 135.93 164.73 135.93 164.73C135.45 164.45 134.84 164.34 134.36 164.34C133.22 164.34 132.05 164.58 131.02 165.16C129.9 165.77 129.17 166.79 129.17 168.14C129.17 169.17 129.63 169.97 130.22 170.58C131.55 171.91 133.97 172.04 134.86 172.04C136.17 172.04 138.23 171.74 139.39 170.69C140.08 170.06 140.54 169.19 140.54 168.04ZM137.66 168.14C137.66 168.89 137.16 169.47 136.53 169.78C136.01 170.06 135.4 170.13 134.86 170.13C134.33 170.13 133.7 170.02 133.18 169.76C132.55 169.45 132.07 168.84 132.07 168.17C132.07 167.38 132.68 166.75 133.4 166.43C133.85 166.23 134.38 166.16 134.81 166.16C135.21 166.16 135.81 166.21 136.27 166.4C137.1 166.75 137.66 167.41 137.66 168.14ZM143.41 138C141.25 137.99 139.14 138.72 137.45 140.07C135.75 138.72 133.64 137.99 131.48 138C129.31 137.99 127.21 138.72 125.52 140.07C123.82 138.72 121.71 137.99 119.55 138C117.38 137.99 115.28 138.72 113.58 140.07C111.89 138.72 109.78 137.99 107.62 138C102.3 138 98 142.3 98 147.62C98 152.93 102.3 157.24 107.62 157.24C109.78 157.24 111.89 156.51 113.58 155.17C115.28 156.51 117.38 157.24 119.55 157.24C121.71 157.24 123.82 156.51 125.52 155.17C127.21 156.51 129.31 157.24 131.48 157.24C133.64 157.24 135.75 156.51 137.45 155.17C139.14 156.51 141.25 157.24 143.41 157.24C148.73 157.24 153.03 152.93 153.03 147.62C153.03 142.3 148.73 138 143.41 138ZM112.01 153.59C110.78 154.49 109.25 155.03 107.62 155.03C103.52 155.03 100.2 151.72 100.2 147.62C100.2 143.52 103.52 140.2 107.62 140.2C109.25 140.2 110.78 140.75 112.01 141.64C110.66 143.34 109.92 145.45 109.93 147.62C109.93 149.79 110.66 151.89 112.01 153.59ZM113.58 152.02C112.64 150.75 112.13 149.2 112.13 147.62C112.13 146.03 112.64 144.48 113.58 143.21C114.53 144.48 115.04 146.03 115.03 147.62C115.04 149.2 114.53 150.75 113.58 152.02ZM123.94 153.59C122.67 154.53 121.12 155.04 119.54 155.03C117.96 155.03 116.43 154.53 115.16 153.59C116.5 151.89 117.24 149.79 117.24 147.62C117.24 145.45 116.51 143.34 115.16 141.64C116.43 140.7 117.96 140.2 119.54 140.2C121.19 140.2 122.71 140.73 123.94 141.64C122.59 143.34 121.85 145.45 121.86 147.62C121.86 149.79 122.59 151.89 123.94 153.59ZM125.52 152.02C124.57 150.75 124.06 149.2 124.06 147.62C124.06 146.03 124.57 144.48 125.52 143.21C126.46 144.48 126.97 146.03 126.97 147.62C126.97 149.2 126.46 150.75 125.52 152.02ZM135.87 153.59C134.64 154.5 133.12 155.03 131.48 155.03C129.83 155.03 128.32 154.5 127.09 153.59C128.43 151.89 129.17 149.79 129.17 147.62C129.17 145.45 128.44 143.34 127.09 141.64C128.32 140.74 129.83 140.2 131.48 140.2C133.12 140.2 134.64 140.73 135.87 141.64C134.52 143.34 133.79 145.45 133.79 147.62C133.79 149.79 134.52 151.89 135.87 153.59ZM137.45 152.02C136.5 150.75 135.99 149.2 136 147.62C135.99 146.03 136.5 144.48 137.45 143.21C138.39 144.48 138.9 146.03 138.9 147.62C138.9 149.2 138.39 150.75 137.45 152.02ZM143.41 155.03C141.78 155.03 140.25 154.49 139.02 153.59C140.37 151.89 141.1 149.79 141.1 147.62C141.11 145.45 140.37 143.34 139.02 141.64C140.25 140.75 141.78 140.2 143.41 140.2C147.51 140.2 150.83 143.52 150.83 147.62C150.83 151.72 147.51 155.03 143.41 155.03Z" fill="#242424" fill-opacity="1.000000" fill-rule="evenodd"/>
		<rect id="Rectangle 3611" x="337.000000" y="112.000000" rx="15.000000" width="86.000000" height="86.000000" fill="#FAFAFC" fill-opacity="1.000000"/>
		<rect id="kia-4 1" rx="-0.500000" width="51.000000" height="11.000000" transform="translate(354.500000 149.500000)" fill="#FFFFFF" fill-opacity="0"/>
		<g clip-path="url(#clip6370_583)">
			<path id="Vector" d="M384.16 159.61C384.16 159.71 384.19 159.77 384.25 159.77C384.3 159.76 384.34 159.74 384.38 159.71L400.58 149.41C400.86 149.22 401.18 149.13 401.52 149.14L405.08 149.14C405.63 149.14 406 149.49 406 150.03L406 156.69C406 157.49 405.81 157.96 405.09 158.39L400.77 160.94C400.72 160.97 400.67 160.98 400.62 160.99C400.57 160.99 400.52 160.95 400.52 160.8L400.52 153.03C400.52 152.94 400.49 152.87 400.43 152.87C400.38 152.88 400.34 152.9 400.3 152.92L388.46 160.46C388.19 160.64 387.87 160.74 387.55 160.73L379.7 160.73C379.15 160.73 378.78 160.38 378.78 159.84L378.78 150.24C378.78 150.16 378.75 150.1 378.69 150.1C378.64 150.1 378.6 150.12 378.56 150.15L370.75 154.74C370.67 154.79 370.65 154.83 370.65 154.87C370.65 154.9 370.67 154.93 370.72 154.98L376.3 160.45C376.37 160.52 376.43 160.57 376.43 160.64C376.43 160.69 376.34 160.73 376.24 160.73L371.2 160.73C370.81 160.73 370.5 160.67 370.28 160.46L366.9 157.15C366.89 157.14 366.87 157.13 366.85 157.12C366.84 157.11 366.82 157.1 366.8 157.1C366.76 157.1 366.72 157.11 366.69 157.13L361.04 160.46C360.69 160.67 360.46 160.72 360.12 160.72L354.92 160.72C354.36 160.73 354 160.37 354 159.83L354 153.3C354 152.49 354.18 152.02 354.91 151.6L359.26 149.04C359.29 149.02 359.33 149 359.37 149C359.44 149 359.48 149.07 359.48 149.22L359.48 157.97C359.48 158.06 359.5 158.1 359.56 158.1C359.61 158.09 359.65 158.07 359.69 158.05L374.38 149.39C374.66 149.21 375 149.12 375.35 149.13L383.25 149.13C383.79 149.13 384.16 149.49 384.16 150.02L384.16 159.61L384.16 159.61Z" fill="#131E29" fill-opacity="1.000000" fill-rule="nonzero"/>
		</g>
		<rect id="Rectangle 3611" x="-44.000000" y="112.000000" rx="15.000000" width="86.000000" height="86.000000" fill="#FAFAFC" fill-opacity="1.000000"/>
		<path id="Vector" d="M-0.84 134C10.82 134 20.33 143.5 20.33 155.16C20.33 166.82 10.82 176.33 -0.84 176.33C-12.5 176.33 -22 166.82 -22 155.16C-22 143.5 -12.5 134 -0.84 134Z" fill="#000000" fill-opacity="1.000000" fill-rule="evenodd"/>
		<path id="Vector" d="M-13.14 148.81L-18.13 144.52L-16.26 142.34C-15.88 141.9 -15.52 141.59 -15.19 141.41C-14.86 141.23 -14.52 141.15 -14.18 141.18C-13.85 141.21 -13.56 141.32 -13.33 141.52C-13.12 141.7 -12.97 141.95 -12.9 142.24C-12.83 142.54 -12.85 142.87 -12.97 143.24C-12.58 142.97 -12.19 142.83 -11.82 142.82C-11.44 142.82 -11.11 142.94 -10.82 143.19C-10.59 143.39 -10.42 143.64 -10.32 143.93C-10.21 144.21 -10.18 144.49 -10.22 144.75C-10.25 145.01 -10.35 145.3 -10.51 145.6C-10.68 145.9 -10.92 146.23 -11.24 146.6L-13.14 148.81ZM-15.37 145.56L-14.29 144.3C-14 143.96 -13.81 143.7 -13.72 143.52C-13.6 143.28 -13.56 143.07 -13.59 142.87C-13.62 142.67 -13.73 142.49 -13.9 142.34C-14.07 142.2 -14.25 142.12 -14.46 142.11C-14.66 142.09 -14.86 142.15 -15.06 142.28C-15.25 142.41 -15.53 142.68 -15.89 143.1L-16.88 144.26L-15.37 145.56ZM-13.07 147.54L-11.83 146.1C-11.61 145.85 -11.47 145.67 -11.4 145.56C-11.27 145.35 -11.19 145.17 -11.16 144.99C-11.12 144.82 -11.13 144.64 -11.18 144.46C-11.24 144.28 -11.34 144.12 -11.5 143.99C-11.69 143.83 -11.9 143.74 -12.13 143.74C-12.36 143.73 -12.59 143.8 -12.82 143.95C-13.04 144.1 -13.31 144.36 -13.63 144.72L-14.78 146.06L-13.07 147.54ZM-4.83 141.43L-4.83 135.78L-3.34 135.78L-1.57 139.78C-1.41 140.16 -1.29 140.44 -1.22 140.62C-1.13 140.42 -1 140.11 -0.82 139.71L0.97 135.78L2.3 135.78L2.3 141.43L1.35 141.43L1.35 136.71L-0.82 141.43L-1.72 141.43L-3.88 136.62L-3.88 141.43L-4.83 141.43ZM8.68 144.73L12.14 140.05L12.61 140.63L10.27 143.61C10.03 143.92 9.78 144.22 9.52 144.51C10.08 144.24 10.4 144.09 10.49 144.05L14.1 142.47L14.66 143.16L12.94 145.57C12.51 146.17 12.09 146.7 11.66 147.16C11.98 146.99 12.35 146.8 12.78 146.6L16.14 144.99L16.61 145.56L11.27 147.93L10.83 147.39L13.43 143.78C13.65 143.48 13.79 143.29 13.84 143.23C13.6 143.35 13.4 143.44 13.22 143.52L9.15 145.31L8.68 144.73Z" fill="#FFFFFF" fill-opacity="1.000000" fill-rule="nonzero"/>
		<path id="Vector" d="M11.66 155.37C11.66 162.14 6.14 167.67 -0.63 167.67L-0.63 155.37L11.66 155.37Z" fill="#00ACEC" fill-opacity="1.000000" fill-rule="evenodd"/>
		<path id="Vector" d="M11.66 154.95C11.66 148.18 6.14 142.66 -0.63 142.66L-0.63 154.95L11.66 154.95Z" fill="#FFFFFF" fill-opacity="1.000000" fill-rule="evenodd"/>
		<path id="Vector" d="M-13.34 154.95C-13.34 148.18 -7.82 142.66 -1.05 142.66L-1.05 154.95L-13.34 154.95Z" fill="#00ACEC" fill-opacity="1.000000" fill-rule="evenodd"/>
		<path id="Vector" d="M-13.34 155.37C-13.34 162.14 -7.82 167.67 -1.05 167.67L-1.05 155.37L-13.34 155.37Z" fill="#FFFFFF" fill-opacity="1.000000" fill-rule="evenodd"/>
		<rect id="Rectangle 3611" x="210.000000" y="112.000000" rx="15.000000" width="86.000000" height="86.000000" fill="#FAFAFC" fill-opacity="1.000000"/>
		<path id="Vector" d="M262.9 170.16C260.32 172.52 258.1 173.79 253.42 176.24C249.06 174.26 246.21 172.31 243.74 170.38C240.34 167.73 237.89 163.42 237.67 160.77L235.97 135.61C247.5 132.62 259.75 132.68 270.35 135.81L268.63 160.72C268.41 162.97 266.39 167.36 262.9 170.16Z" fill="#EDC95E" fill-opacity="1.000000" fill-rule="evenodd"/>
		<path id="Vector" d="M253.42 176.24C249.06 174.26 246.21 172.31 243.74 170.38C240.34 167.73 237.89 163.42 237.67 160.77L235.97 135.61C247.5 132.62 259.75 132.68 270.35 135.81L268.63 160.72C268.41 162.97 266.39 167.36 262.9 170.16C260.32 172.52 258.1 173.79 253.42 176.24Z" stroke="#000000" stroke-opacity="1.000000" stroke-width="0.300000"/>
		<path id="Vector" d="M266.65 159.89L268.21 137.65C259.09 134.75 248.16 134.7 238.09 137.35L239.68 159.88C239.84 162.22 241.53 165.8 244.76 168.55C246.71 170.2 250.52 172.97 253.34 174.03C256.58 172.39 259.53 170.35 261.87 168.34C264.76 165.7 266.48 162.41 266.65 159.89Z" fill="#EDC95E" fill-opacity="1.000000" fill-rule="evenodd"/>
		<path id="Vector" d="M268.21 137.65C259.09 134.75 248.16 134.7 238.09 137.35L239.68 159.88C239.84 162.22 241.53 165.8 244.76 168.55C246.71 170.2 250.52 172.97 253.34 174.03C256.58 172.39 259.53 170.35 261.87 168.34C264.76 165.7 266.48 162.41 266.65 159.89L268.21 137.65Z" stroke="#000000" stroke-opacity="1.000000" stroke-width="0.300000"/>
		<path id="Vector" d="M261.49 167.75C259.25 169.68 256.24 171.85 253.34 173.23C250.75 172.43 246.92 169.48 245.08 167.89C241.87 165.12 240.56 162.22 240.36 159.47L238.8 137.96C248.39 135.45 258.86 135.45 267.55 138.22L266.01 159.44C265.79 162.26 264.47 164.96 261.49 167.75Z" fill="#EDC95E" fill-opacity="1.000000" fill-rule="evenodd"/>
		<path id="Vector" d="M253.34 173.23C250.75 172.43 246.92 169.48 245.08 167.89C241.87 165.12 240.56 162.22 240.36 159.47L238.8 137.96C248.39 135.45 258.86 135.45 267.55 138.22L266.01 159.44C265.79 162.26 264.47 164.96 261.49 167.75C259.25 169.68 256.24 171.85 253.34 173.23Z" stroke="#000000" stroke-opacity="1.000000" stroke-width="0.300000"/>
		<path id="Vector" d="M239.83 142.09C248.98 139.8 258.57 140.03 266.53 142.44L266.87 138.67C258.62 136.14 248.61 136 239.52 138.38L239.83 142.09Z" stroke="#000000" stroke-opacity="1.000000" stroke-width="0.300000"/>
		<path id="Vector" d="M262.28 139.76L260.22 139.42L260.14 140.39L259.46 140.29L259.62 137.71L260.31 137.81L260.24 138.8L262.33 139.14L262.4 138.15L263.1 138.28L262.89 140.86L262.2 140.74L262.28 139.76ZM252.32 138.89C252.07 138.89 251.86 138.82 251.73 138.59C251.61 138.41 251.61 137.82 251.73 137.62C251.86 137.39 252.08 137.32 252.27 137.32L255.2 137.33L255.2 137.96L252.43 137.96C252.3 137.96 252.29 138.26 252.45 138.26L254.63 138.26C254.88 138.26 255.11 138.42 255.18 138.62C255.26 138.83 255.25 139.32 255.18 139.52C255.12 139.72 254.89 139.83 254.6 139.83L251.72 139.83L251.71 139.19L254.28 139.19C254.32 139.18 254.36 139.17 254.38 139.14C254.41 139.11 254.42 139.07 254.42 139.04C254.42 139 254.41 138.96 254.38 138.93C254.36 138.91 254.32 138.89 254.28 138.89L252.32 138.89ZM250.62 139.14C250.62 139.11 250.61 139.08 250.6 139.05C250.59 139.02 250.57 138.99 250.55 138.97C250.52 138.95 250.5 138.93 250.47 138.92C250.43 138.91 250.4 138.9 250.37 138.91L248.43 139.05L248.47 140.01L247.84 140.07L247.71 137.53L250.6 137.32C250.97 137.29 251.19 137.57 251.21 137.8C251.23 138.08 251.24 138.43 251.03 138.58C251.21 138.72 251.25 138.91 251.26 139.19L251.26 139.84L250.63 139.86L250.62 139.14Z" fill="#000000" fill-opacity="1.000000" fill-rule="evenodd"/>
		<path id="Vector" d="M250.21 138.32C250.46 138.3 250.44 137.92 250.21 137.94L248.36 138.08L248.38 138.43L250.21 138.32Z" fill="#EDC95E" fill-opacity="1.000000" fill-rule="evenodd"/>
		<path id="Vector" d="M244.16 137.98C244.75 137.84 245.96 137.65 246.6 137.6C246.89 137.58 247.12 137.73 247.16 137.96C247.25 138.48 247.31 139.02 247.24 139.74C247.23 139.95 247.05 140.11 246.81 140.16C245.99 140.34 245.08 140.44 244.4 140.5C244.22 140.52 243.95 140.38 243.9 140.17C243.78 139.64 243.74 138.91 243.78 138.41C243.79 138.22 243.96 138.02 244.16 137.98Z" fill="#000000" fill-opacity="1.000000" fill-rule="evenodd"/>
		<path id="Vector" d="M246.46 139.53C246.55 139.51 246.58 139.42 246.59 139.36C246.62 139.16 246.59 138.64 246.55 138.47C246.53 138.4 246.47 138.36 246.35 138.37C245.99 138.39 245.06 138.52 244.6 138.62C244.48 138.65 244.43 138.72 244.43 138.79C244.4 138.96 244.45 139.42 244.5 139.68C244.51 139.74 244.59 139.78 244.65 139.78C245.27 139.73 246 139.63 246.46 139.53Z" fill="#EDC95E" fill-opacity="1.000000" fill-rule="evenodd"/>
		<path id="Vector" d="M256.66 138.09C256.53 138.08 256.43 138.17 256.42 138.24C256.39 138.45 256.38 138.72 256.38 139.08C256.38 139.13 256.46 139.25 256.53 139.27C257.15 139.35 258.35 139.46 259 139.5L258.96 140.17C258.1 140.13 257.2 139.99 256.27 139.93C255.97 139.91 255.74 139.74 255.73 139.45C255.71 138.96 255.74 138.23 255.83 137.8C255.89 137.54 256.14 137.4 256.42 137.41C257.28 137.44 257.96 137.52 259.09 137.67L259.05 138.33C258.5 138.28 257.47 138.12 256.66 138.09ZM242.59 138.28C243.46 138.08 243.59 139.62 242.87 139.8L240.84 140.31L240.93 141.31L240.3 141.47L240.07 138.87L242.59 138.28Z" fill="#000000" fill-opacity="1.000000" fill-rule="evenodd"/>
		<path id="Vector" d="M242.58 139.29C242.79 139.25 242.76 138.87 242.54 138.92L240.71 139.36L240.75 139.75L242.58 139.29Z" fill="#EDC95E" fill-opacity="1.000000" fill-rule="evenodd"/>
		<path id="Vector" d="M264.1 140.14L264.06 140.56L266.07 141.07L266.02 141.65L263.32 141.01L263.55 138.39L266.27 139.05L266.21 139.66L264.19 139.17L264.15 139.62L266.15 140.1L266.1 140.62L264.1 140.14Z" fill="#000000" fill-opacity="1.000000" fill-rule="evenodd"/>
		<path id="Vector" d="M247.78 149.37L247.78 148.45L247.78 148.01L252.95 148L252.95 140.94C248.93 140.94 244.52 141.32 239.85 142.63L240.81 155.89L247.78 155.89L247.78 151.55L247.78 149.37Z" stroke="#000000" stroke-opacity="1.000000" stroke-width="0.300000"/>
		<path id="Vector" d="M247.77 149.16C247.77 149.11 247.2 149.07 246.91 149.11C246.16 149.2 244.27 149.79 243.47 150.34C243.45 150.39 243.46 150.65 243.4 150.77C243.35 150.88 243.24 151 243.12 151.05C242.92 151.14 242.68 150.86 242.58 150.9C242.47 150.94 242.24 151.04 241.99 150.86C241.88 150.78 241.82 150.56 241.86 150.39C241.9 150.27 242 150.18 242.08 150.11C242.15 150.03 242.1 149.76 242.35 149.59C242.54 149.48 242.78 149.57 242.97 149.67C243.02 149.66 243.05 149.64 243.08 149.61C243.1 149.53 243.14 149.3 243.18 149.13C243.22 148.93 243.24 148.81 243.29 148.63C243.44 148.19 243.78 147.57 244.14 147.24C244.43 146.99 244.87 146.79 245.2 146.81C245.17 146.86 244.76 147.22 244.64 147.38C244.36 147.76 244.1 148.33 243.98 148.82C243.93 148.99 243.93 149.05 243.96 149.15C244.23 149.03 244.58 148.92 244.78 148.86C244.85 148.68 244.9 148.48 244.97 148.32C245.08 148.07 245.14 147.96 245.26 147.78C245.58 147.29 246.25 146.8 246.75 146.81C246.59 146.95 246.24 147.31 246.1 147.53C245.99 147.71 245.89 147.9 245.81 148.1C245.74 148.28 245.72 148.41 245.7 148.56C245.96 148.49 246.21 148.43 246.38 148.42C246.49 148.36 246.53 148.24 246.59 148.13C246.78 147.77 247.15 147.38 247.39 147.25C247.58 147.14 247.86 147.04 248.06 147.11C247.85 147.27 247.62 147.53 247.52 147.68C247.42 147.85 247.25 148.17 247.25 148.32C247.43 148.33 247.66 148.32 247.76 148.3L247.77 149.16Z" fill="#000000" fill-opacity="1.000000" fill-rule="evenodd"/>
		<path id="Vector" d="M245.48 143.34C245.75 142.96 246.47 142.39 247.02 142.42C246.72 142.68 246.46 142.97 246.27 143.28C246.02 143.68 245.83 144.18 245.78 144.57C245.97 144.5 246.4 144.37 246.65 144.32C246.87 143.84 247.15 143.32 247.51 143.03C247.77 142.83 248.13 142.65 248.47 142.69C248.4 142.8 248.27 142.89 248.17 142.98C247.99 143.13 247.87 143.34 247.77 143.55C247.7 143.71 247.58 144.18 247.58 144.21C247.82 144.2 248.26 144.23 248.35 144.26C248.65 143.88 249.28 143.33 250.05 143.45C249.71 143.63 249.11 144.16 249.15 144.44C249.64 144.76 250.38 145.43 250.42 146.06C250.08 145.7 249.52 145.36 249.24 145.26C248.57 145.02 247.77 144.99 247.1 145.11C245.7 145.37 244.47 145.98 243.28 146.68C243.26 146.87 243.15 147.16 243.07 147.26C242.98 147.36 242.85 147.45 242.71 147.47C242.53 147.5 242.35 147.43 242.2 147.35C242.1 147.29 241.85 147.36 241.69 147.28C241.58 147.22 241.4 147.06 241.45 146.8C241.49 146.58 241.72 146.44 241.75 146.22C241.8 145.91 242.02 145.77 242.14 145.75C242.27 145.73 242.41 145.77 242.53 145.82C242.58 145.85 242.63 145.89 242.68 145.91C242.72 145.89 242.79 145.83 242.83 145.82C242.84 145.78 242.96 145.12 243.02 144.83C243.09 144.55 243.2 144.3 243.3 144.03C243.58 143.24 244.44 142.43 245.14 142.48C245.1 142.53 244.88 142.69 244.57 143.05C244.07 143.63 243.94 144.25 243.76 145.32C244.14 145.14 244.48 145.01 244.82 144.89C244.91 144.55 245.02 144.23 245.16 143.92C245.25 143.72 245.35 143.52 245.48 143.34Z" fill="#000000" fill-opacity="1.000000" fill-rule="evenodd"/>
		<path id="Vector" d="M266.44 144.23L253.59 144.24L253.6 148.02L266.15 148.01L266.44 144.23Z" fill="#CA3132" fill-opacity="1.000000" fill-rule="evenodd"/>
		<path id="Vector" d="M256.54 161.13C256.45 161.49 256.41 162.1 256.41 162.12C256.63 162.03 256.84 161.95 257.02 161.89C257.03 161.87 257.29 161.32 257.4 161.16C257.67 160.75 258.04 160.39 258.48 160.16C258.76 160.02 259.09 159.89 259.39 160C259 160.18 258.69 160.52 258.51 160.72C258.34 160.89 258.14 161.16 258.05 161.43C258.04 161.48 258.02 161.58 258.02 161.58C258.21 161.52 258.79 161.43 259.04 161.4C259.07 161.4 259.14 161.24 259.2 161.16C259.27 161.06 259.32 161 259.43 160.87C259.73 160.55 260.23 160.21 260.71 160.28C260.44 160.45 260.15 160.72 259.92 161.15C259.89 161.21 259.85 161.3 259.86 161.34C259.93 161.36 260.29 161.35 260.51 161.37C260.76 161.22 261.02 161.08 261.3 161.02C261.62 160.95 262.04 161.01 262.2 161.16C262.01 161.15 261.82 161.18 261.65 161.25C261.55 161.29 261.35 161.38 261.27 161.51C261.46 161.57 261.78 161.77 261.97 161.94C262.11 162.05 262.27 162.22 262.38 162.37C262.64 162.72 262.7 163.36 262.56 163.55C262.52 163.44 262.47 163.33 262.41 163.23C262.29 163.01 262.09 162.78 261.92 162.66C261.1 162.04 259.93 162 258.97 162.2C258.14 162.37 256.66 162.68 255.69 163.37C255.71 163.49 255.64 163.69 255.52 163.77C255.38 163.88 255.17 163.73 255.06 163.79C254.91 163.87 254.73 163.82 254.65 163.79C254.52 163.73 254.44 163.6 254.43 163.45C254.42 163.32 254.54 163.17 254.56 163.04C254.57 162.99 254.52 162.72 254.74 162.59C254.78 162.56 254.91 162.52 255 162.53C255.09 162.55 255.17 162.6 255.26 162.62C255.38 162.58 255.49 162.52 255.6 162.45C255.68 162.17 255.73 161.85 255.77 161.57L256.54 161.13Z" fill="#000000" fill-opacity="1.000000" fill-rule="evenodd"/>
		<path id="Vector" d="M258.69 156.47C258.69 158.13 258.14 159.86 256.54 161.12L255.77 161.57C255.12 161.89 254.28 162.11 253.57 162.13L253.57 172.47C256.57 170.94 259.87 168.45 261.27 167.08C263.54 164.87 265.07 162.64 265.3 159.41M265.3 159.41L265.51 156.47L258.69 156.47" stroke="#000000" stroke-opacity="1.000000" stroke-width="0.300000"/>
		<path id="Vector" d="M256.66 164.95C256.77 164.79 256.9 164.55 256.96 164.44C257.19 164.08 257.52 163.81 257.74 163.71C258.05 163.56 258.54 163.47 258.76 163.58C258.52 163.64 258.34 163.75 258.17 163.87C257.99 163.99 257.66 164.29 257.57 164.42C257.47 164.57 257.41 164.7 257.38 164.76C257.66 164.7 257.98 164.65 258.15 164.65C258.27 164.5 258.6 164.13 258.84 163.96C259.03 163.82 259.45 163.68 259.7 163.8C259.46 163.87 259.02 164.22 258.86 164.47C258.82 164.52 258.79 164.59 258.78 164.62C258.91 164.63 259.17 164.65 259.3 164.67C259.32 164.67 259.69 164.44 259.86 164.39C260.08 164.33 260.44 164.26 260.67 164.5C260.5 164.5 260.35 164.51 260.22 164.57C260.05 164.65 259.97 164.7 259.89 164.82C260.24 165 260.6 165.19 260.81 165.53C260.88 165.65 261 165.93 260.93 166.11C260.83 165.97 260.68 165.84 260.56 165.77C260.39 165.67 260.27 165.58 260.06 165.5C259.42 165.26 258.58 165.2 257.91 165.29C257.04 165.4 255.97 165.83 255.42 166.2C255.46 166.37 255.37 166.57 255.28 166.61C255.07 166.72 254.88 166.54 254.84 166.55C254.78 166.57 254.62 166.63 254.5 166.58C254.38 166.53 254.31 166.32 254.35 166.19C254.39 166.09 254.53 165.95 254.53 165.95C254.51 165.73 254.66 165.59 254.85 165.57C254.97 165.56 255.04 165.64 255.13 165.66C255.22 165.62 255.27 165.59 255.32 165.57C255.37 165.39 255.44 165.21 255.49 165.06C255.58 164.8 255.7 164.58 255.85 164.34C256.07 164 256.47 163.68 256.94 163.67C256.8 163.78 256.72 163.84 256.63 163.95C256.47 164.15 256.35 164.32 256.25 164.53C256.15 164.71 256.06 164.99 256.04 165.23C256.22 165.15 256.48 165.02 256.66 164.95ZM256.59 166.89C256.72 166.84 256.85 166.81 256.97 166.82C256.67 167.02 256.4 167.3 256.32 167.64C256.31 167.67 256.31 167.75 256.35 167.77C256.43 167.75 256.65 167.7 256.71 167.67C256.74 167.59 256.83 167.48 256.9 167.4C257.11 167.11 257.42 166.82 257.85 166.93C257.57 167.06 257.41 167.23 257.28 167.45C257.26 167.49 257.25 167.57 257.27 167.57C257.35 167.57 257.62 167.56 257.66 167.56C257.79 167.45 258.15 167.24 258.41 167.31C258.28 167.37 258.17 167.45 258.06 167.55C258.04 167.58 258.01 167.61 258 167.66C258.22 167.77 258.42 167.89 258.6 168.05C258.7 168.13 258.84 168.29 258.93 168.55C258.71 168.37 258.01 168.03 257.62 168.01C257.37 168 257.06 168.05 256.9 168.09C256.29 168.22 255.67 168.5 255.13 168.8C255.13 168.91 255.11 169.03 255 169.13C254.92 169.19 254.75 169.23 254.68 169.13C254.64 169.08 254.41 169.14 254.36 169.07C254.36 169.07 254.3 168.98 254.29 168.87C254.28 168.75 254.36 168.68 254.43 168.61C254.45 168.59 254.44 168.39 254.59 168.32C254.69 168.28 254.78 168.3 254.86 168.35C254.89 168.33 254.92 168.31 254.94 168.3C254.96 168.06 255 167.85 255.09 167.61C255.2 167.28 255.59 166.88 255.93 166.89C255.7 167.14 255.52 167.48 255.46 167.76C255.44 167.85 255.43 168.02 255.43 168.1C255.51 168.06 255.6 168.01 255.68 167.98C255.72 167.89 255.82 167.68 255.88 167.58C256.01 167.33 256.32 167.01 256.59 166.89Z" fill="#000000" fill-opacity="1.000000" fill-rule="evenodd"/>
		<path id="Vector" d="M241.15 159.79C241.2 161.04 241.71 162.55 242.41 163.6L252.87 163.6L252.85 162.14C251.51 162.14 249.45 161.25 248.64 159.8L241.15 159.79Z" fill="#CA3132" fill-opacity="1.000000" fill-rule="evenodd"/>
		<path id="Vector" d="M248.35 156.53C248.35 163.18 258.08 163.18 258.08 156.6L258.08 148.61L248.35 148.6L248.35 156.53" stroke="#000000" stroke-opacity="1.000000" stroke-width="0.300000"/>
		<path id="Vector" d="M251.48 153.35C251.6 153.22 251.7 153.06 251.72 152.92C251.74 152.8 251.41 152.81 251.29 152.88C251.23 152.92 251.17 153 251.12 153.07C251.08 153.12 250.95 153.17 250.89 153.11C250.82 153.04 250.94 152.93 250.94 152.86C250.94 152.75 250.72 152.92 250.62 152.87C250.55 152.84 250.55 152.74 250.59 152.68C250.62 152.64 250.69 152.66 250.72 152.62C250.76 152.59 250.76 152.53 250.77 152.49C250.78 152.43 250.84 152.41 250.87 152.37C251.01 152.23 251.27 152.01 251.32 152.01C251.44 152.02 251.61 152.08 251.71 152.03C251.73 152.02 251.77 151.98 251.74 151.96L251.46 151.78C251.45 151.75 251.46 151.72 251.47 151.69C251.48 151.67 251.5 151.64 251.52 151.62C251.65 151.51 251.85 151.59 252.02 151.56C252.14 151.54 252.25 151.5 252.34 151.42C252.36 151.5 252.3 151.59 252.3 151.68C252.41 151.78 252.52 151.86 252.63 151.96C252.94 152.27 253.07 152.72 253.09 153.11C253.11 153.3 253.11 153.48 253.11 153.79C253.16 153.66 253.19 153.47 253.2 153.3C253.25 152.82 253.18 152.38 252.9 152.01C252.78 151.86 252.66 151.71 252.52 151.58C252.53 151.44 252.65 151.19 252.77 151.28C252.84 151.34 252.73 151.43 252.81 151.48C252.9 151.53 253.02 151.52 253.08 151.51C253.2 151.48 253.33 151.45 253.44 151.44C253.5 151.43 253.58 151.41 253.6 151.46C253.62 151.5 253.58 151.52 253.54 151.54C253.49 151.55 253.42 151.54 253.38 151.58C253.35 151.61 253.32 151.65 253.33 151.7C253.34 151.75 253.4 151.78 253.45 151.76C253.67 151.7 253.9 151.67 254.12 151.66C254.24 151.66 254.21 151.75 254.16 151.78C254.12 151.8 254.06 151.82 254.02 151.82C253.8 151.85 253.65 151.86 253.67 151.98C253.69 152.07 253.82 151.99 253.85 152.05C253.88 152.11 253.79 152.15 253.8 152.19C253.82 152.33 254.09 152.3 254.21 152.27C254.3 152.25 254.44 152.18 254.48 152.23C254.52 152.28 254.49 152.36 254.44 152.38C254.31 152.41 254.09 152.48 254.03 152.55C253.97 152.62 254.04 152.76 254.11 152.77C254.26 152.78 254.43 152.78 254.55 152.82C254.6 152.83 254.64 152.87 254.64 152.92C254.64 152.97 254.58 152.99 254.54 153C254.46 153.03 254.32 153.03 254.24 153.06C254.22 153.07 254.17 153.09 254.18 153.12C254.2 153.17 254.3 153.16 254.39 153.17C254.44 153.17 254.54 153.21 254.54 153.27C254.54 153.32 254.49 153.34 254.4 153.33C254.26 153.32 254.13 153.34 254.07 153.37C254.05 153.37 253.94 153.39 253.95 153.44C253.95 153.5 254.07 153.46 254.1 153.52C254.12 153.58 254.04 153.61 254.04 153.68C254.04 153.71 254.05 153.72 254.08 153.74C254.18 153.78 254.28 153.77 254.38 153.75C254.47 153.74 254.51 153.87 254.48 153.88C254.36 153.95 254.08 153.88 254.01 153.92C253.92 153.97 254.16 154.1 254.16 154.13C254.15 154.16 254.12 154.2 254.1 154.2C253.98 154.25 253.82 154.16 253.73 154.21C253.65 154.26 253.68 154.38 253.64 154.44C253.58 154.51 253.45 154.48 253.39 154.52C253.32 154.58 253.31 154.71 253.4 154.78C253.46 154.85 253.52 154.89 253.61 154.93C253.98 155.12 254.37 155.3 254.73 155.28C254.92 155.27 255.22 155.25 255.39 155.3C255.61 155.35 255.84 155.52 255.95 155.59C256.04 155.65 256.2 155.67 256.31 155.62C256.4 155.59 256.46 155.49 256.44 155.41C256.39 155.12 255.91 155.03 255.9 154.74C255.9 154.41 255.87 154.23 255.76 154.02C255.72 153.94 255.71 153.76 255.81 153.74C255.88 153.72 255.91 153.82 255.97 153.8C256.25 153.69 256.26 153.25 256.54 153.17C256.71 153.12 257.28 153.11 257.24 153.04C257.12 152.87 257.17 152.68 257.24 152.59C257.28 152.53 257.4 152.48 257.44 152.53C257.51 152.61 257.35 152.7 257.36 152.81C257.37 152.91 257.52 153.11 257.4 153.22C257.34 153.29 256.82 153.31 256.67 153.54C256.58 153.68 256.57 153.79 256.68 153.78C256.77 153.77 256.84 153.66 256.93 153.6C257.07 153.49 257.19 153.45 257.27 153.53C257.32 153.57 257.26 153.64 257.18 153.66C257.12 153.69 256.96 153.85 257 153.9C257.07 153.97 257.43 153.65 257.51 153.72C257.56 153.75 257.34 153.98 257.38 154.04C257.43 154.12 257.58 154 257.62 154.06C257.69 154.14 257.51 154.31 257.4 154.39C257.31 154.44 257.35 154.64 257.23 154.71C257.1 154.77 257.03 154.88 257.05 154.9C257.06 154.93 257.1 154.95 257.15 154.92C257.29 154.83 257.48 154.72 257.55 154.75C257.6 154.76 257.53 154.97 257.48 155.06C257.43 155.16 257.7 155.11 257.66 155.19C257.62 155.27 257.61 155.35 257.63 155.43C257.65 155.54 257.34 155.57 257.31 155.64C257.27 155.73 257.34 155.75 257.37 155.75C257.56 155.78 257.54 155.96 257.46 156.03C257.36 156.14 257.19 156.17 257.04 156.15C256.91 156.13 256.62 156.07 256.44 155.94C256.39 155.91 256.31 155.93 256.3 155.99C256.29 156.05 256.35 156.16 256.38 156.25C256.42 156.39 256.4 156.57 256.35 156.71C256.25 156.99 255.98 157.23 255.91 157.57C255.89 157.66 255.92 157.77 255.95 157.86C256.03 158.04 256.15 158.22 256.27 158.38C256.29 158.43 256.32 158.48 256.3 158.53C256.27 158.6 256.04 158.76 255.98 158.82C255.77 159.01 255.6 159.26 255.56 159.53C255.54 159.62 255.34 159.72 255.2 159.76C255.09 159.79 254.98 159.82 254.9 159.88C254.89 159.96 254.93 160.03 254.94 160.11C254.96 160.25 254.79 160.32 254.66 160.36C254.59 160.38 254.53 160.4 254.46 160.4C254.43 160.4 254.43 160.36 254.43 160.33C254.47 160.15 254.51 160 254.58 159.84C254.61 159.78 254.65 159.74 254.7 159.7L255.21 159.27L255.62 158.69C255.65 158.64 255.67 158.59 255.67 158.55C255.67 158.44 255.62 158.33 255.54 158.26C255.44 158.17 255.29 158.16 255.18 158.1C255.04 158.03 254.83 157.83 254.8 157.81C254.72 157.77 254.68 157.92 254.66 158C254.65 158.13 254.68 158.24 254.68 158.37C254.68 158.43 254.68 158.46 254.65 158.5C254.31 158.69 253.89 158.76 253.64 159.07C253.6 159.12 253.56 159.18 253.5 159.22C253.36 159.32 253.12 159.21 253.02 159.36C252.97 159.42 253.03 159.52 253.01 159.59C253 159.63 252.92 159.69 252.85 159.72C252.77 159.76 252.67 159.78 252.58 159.79C252.47 159.74 252.54 159.59 252.57 159.49C252.61 159.38 252.66 159.28 252.74 159.2C252.87 159.1 253.02 158.96 253.12 158.91C253.2 158.87 253.33 158.87 253.43 158.83C253.53 158.8 253.63 158.75 253.73 158.69C253.87 158.6 254.01 158.48 254.09 158.32C254.18 158.14 254.18 157.9 254.06 157.75C253.95 157.61 253.82 157.47 253.75 157.31C253.71 157.23 253.74 157.11 253.8 157.03C253.8 157.03 253.76 157 253.73 157C253.21 157.03 252.69 156.97 252.21 156.78C252.09 156.73 251.96 156.57 251.87 156.56C251.79 156.55 251.74 156.65 251.65 156.67C251.52 156.71 251.35 156.69 251.19 156.67C251.01 156.65 250.64 156.57 250.37 156.49C250.33 156.5 250.28 156.5 250.24 156.53C250.18 156.57 250.17 156.65 250.17 156.73C250.16 156.82 250.19 156.91 250.18 157.01C250.18 157.06 250.15 157.12 250.16 157.16C250.18 157.22 250.23 157.25 250.27 157.28C250.34 157.34 250.35 157.47 250.35 157.57C250.35 157.68 250.31 157.83 250.4 157.9C250.46 157.95 250.54 157.89 250.61 157.9C250.69 157.92 250.71 158.01 250.72 158.09C250.72 158.17 250.65 158.36 250.6 158.41C250.57 158.44 250.52 158.41 250.48 158.39C250.37 158.35 250.28 158.27 250.22 158.17C250.19 158.13 250.19 158.08 250.17 158.03C250.13 157.95 250.06 157.9 249.99 157.85C249.9 157.78 249.88 157.67 249.87 157.56C249.86 157.47 249.87 157.37 249.88 157.27C249.9 157.08 249.89 156.89 249.85 156.7C249.81 156.56 249.73 156.41 249.77 156.27C249.79 156.2 249.83 156.14 249.9 156.11C250.25 156.09 250.59 156.03 250.92 155.93L250.71 155.72C250.65 155.72 250.61 155.77 250.56 155.77C250.5 155.77 250.42 155.69 250.4 155.66C250.29 155.49 250.22 155.3 250.17 155.11C250.12 155.03 250.06 154.96 249.97 154.92C249.92 154.89 249.85 154.88 249.78 154.89C249.6 154.96 249.44 155.12 249.43 155.32C249.42 155.37 249.45 155.41 249.44 155.46C249.43 155.55 249.37 155.6 249.31 155.67C249.24 155.73 249.19 155.79 249.16 155.87C249.14 155.95 249.17 156.02 249.2 156.09C249.22 156.14 249.24 156.18 249.23 156.23C249.18 156.35 248.9 156.47 248.82 156.47C248.79 156.47 248.76 156.43 248.75 156.4C248.72 156.29 248.73 156.18 248.75 156.07C248.82 155.99 248.88 155.89 248.91 155.78C248.96 155.64 248.93 155.49 249 155.35C249.18 155.05 249.64 154.44 249.73 154.35C249.77 154.31 249.87 154.29 249.91 154.31C250.1 154.44 250.22 154.59 250.41 154.69C250.51 154.74 250.63 154.81 250.72 154.74C250.81 154.67 250.83 154.19 250.88 154.07C250.99 153.85 251.28 153.57 251.48 153.35ZM255.06 150.36L254.98 150.66L254.69 150.66L255.07 149.24L255.4 149.24L255.76 150.65L255.47 150.65L255.4 150.36L255.06 150.36ZM254.31 149.65C254.31 149.56 254.28 149.43 254.2 149.4C254.12 149.38 254.04 149.4 254.01 149.45C253.94 149.56 253.94 149.69 253.95 149.9C253.95 150.03 253.95 150.2 253.98 150.28C254.04 150.47 254.2 150.49 254.28 150.37C254.32 150.31 254.32 150.2 254.32 150.1L254.15 150.1L254.15 149.89L254.58 149.89L254.58 150.65L254.37 150.65L254.37 150.55C254.37 150.55 254.28 150.62 254.24 150.64C254.17 150.68 254.03 150.68 253.92 150.63C253.82 150.59 253.73 150.46 253.69 150.3C253.65 150.13 253.67 149.91 253.67 149.73C253.68 149.53 253.78 149.31 253.92 149.23C254.02 149.17 254.21 149.17 254.33 149.21C254.47 149.26 254.59 149.47 254.56 149.65L254.31 149.65ZM249.49 149.26C249.6 149.34 249.66 149.47 249.64 149.62L249.42 149.62C249.42 149.48 249.35 149.41 249.23 149.41C249.16 149.4 249.06 149.49 249.06 149.55C249.06 149.75 249.23 149.78 249.34 149.82C249.43 149.85 249.53 149.9 249.59 149.97C249.68 150.11 249.69 150.25 249.61 150.44C249.58 150.53 249.44 150.64 249.33 150.66C249.2 150.69 249.04 150.68 248.91 150.58C248.8 150.5 248.76 150.35 248.78 150.21L249.03 150.21C249.03 150.28 249.04 150.33 249.07 150.37C249.1 150.4 249.13 150.45 249.2 150.45C249.23 150.45 249.26 150.45 249.28 150.44C249.31 150.43 249.33 150.41 249.35 150.39C249.37 150.37 249.38 150.35 249.39 150.32C249.4 150.3 249.4 150.27 249.4 150.24C249.39 150.03 249.02 150.01 248.89 149.87C248.74 149.7 248.79 149.42 248.91 149.31C249.08 149.15 249.31 149.15 249.49 149.26ZM256.75 150.2C256.75 150.25 256.76 150.44 256.76 150.57C256.77 150.6 256.8 150.65 256.8 150.65L256.53 150.65C256.5 150.65 256.49 150.59 256.49 150.53C256.48 150.39 256.5 150.05 256.36 150.05L256.18 150.05L256.18 150.65L255.92 150.65L255.92 149.25L256.4 149.25C256.64 149.25 256.77 149.39 256.77 149.58C256.77 149.7 256.76 149.85 256.62 149.91C256.69 149.99 256.74 150.09 256.75 150.2Z" fill="#000000" fill-opacity="1.000000" fill-rule="evenodd"/>
		<path id="Vector" d="M256.38 149.45L256.18 149.45L256.18 149.83L256.32 149.83C256.57 149.83 256.57 149.45 256.38 149.45Z" fill="#EDC95E" fill-opacity="1.000000" fill-rule="evenodd"/>
		<path id="Vector" d="M250.31 150.66L250.04 150.66L250.04 149.47L249.73 149.47L249.73 149.24L250.62 149.24L250.62 149.47L250.31 149.47L250.31 150.66ZM252.04 150.66L252.04 149.47L251.73 149.47L251.73 149.24L252.63 149.24L252.63 149.47L252.31 149.47L252.31 150.66L252.04 150.66ZM252.75 149.24L253.65 149.24L253.65 149.48L253.33 149.48L253.33 150.66L253.06 150.66L253.06 149.48L252.75 149.48L252.75 149.24ZM257.43 149.48L257.43 150.66L257.16 150.66L257.16 149.48L256.85 149.48L256.85 149.24L257.74 149.24L257.74 149.48L257.43 149.48ZM251.33 150.25L251.33 149.24L251.59 149.24L251.59 150.22C251.59 150.81 250.73 150.81 250.73 150.24L250.73 149.24L250.99 149.24L250.99 150.25C250.99 150.47 251.33 150.47 251.33 150.25Z" fill="#000000" fill-opacity="1.000000" fill-rule="evenodd"/>
		<path id="Vector" d="M252.25 151.06C252.37 150.99 252.24 151.16 252.23 151.23C252.21 151.43 252.06 151.45 251.9 151.41C251.87 151.41 251.88 151.35 251.93 151.31C252.01 151.24 252.12 151.15 252.25 151.06Z" stroke="#000000" stroke-opacity="1.000000" stroke-width="0.300000"/>
		<path id="Vector" d="M258.69 155.84L265.56 155.83L265.87 152.04L258.69 152.04L258.69 155.84ZM252.9 167.65L245.82 167.63C247.28 168.94 250.66 171.4 252.88 172.39L252.9 167.65Z" fill="#CA3132" fill-opacity="1.000000" fill-rule="evenodd"/>
		<path id="Vector" d="M247.78 152.69L247.78 153.3C247.5 153.09 246.19 152.94 245.39 153.25C245.2 153.33 244.56 153.6 244.28 153.83L243.47 154.47C243.39 154.53 243.38 154.67 243.38 154.78C243.38 155.02 243.1 155.2 242.95 155.14C242.82 155.1 242.65 155.08 242.49 155.11C242.32 155.15 242.17 154.94 242.16 154.81C242.14 154.66 242.26 154.47 242.26 154.4C242.27 154.34 242.23 154.1 242.45 153.95C242.55 153.89 242.69 153.89 242.79 153.95C242.82 153.96 242.86 153.97 242.89 153.96C242.93 153.95 243.02 153.86 243.05 153.84C243.06 153.69 243.04 153.47 243.05 153.34C243.09 153.1 243.1 152.96 243.18 152.72C243.24 152.52 243.38 152.22 243.49 152.05C243.67 151.74 244.04 151.45 244.32 151.47C244.21 151.62 244.18 151.69 244.1 151.84C243.95 152.11 243.81 152.56 243.75 152.86C243.7 153.05 243.68 153.2 243.69 153.41C243.91 153.25 244.13 153.12 244.28 153.04C244.35 152.68 244.47 152.34 244.64 152.01C244.82 151.67 245.3 151.3 245.62 151.33C245.32 151.65 245.11 152.1 245.03 152.39C245 152.5 244.96 152.64 244.97 152.71C245.09 152.64 245.34 152.58 245.46 152.57C245.53 152.37 245.64 152.14 245.73 152C246.01 151.56 246.46 151.3 246.71 151.31C246.51 151.58 246.34 151.82 246.22 152.17C246.18 152.28 246.17 152.39 246.17 152.44C246.32 152.42 246.56 152.42 246.66 152.42C246.92 152.18 246.89 152.12 247.18 151.9C247.36 151.76 247.7 151.57 247.77 151.55L247.77 151.98C247.64 152.1 247.36 152.36 247.31 152.5C247.43 152.54 247.66 152.62 247.78 152.69Z" fill="#000000" fill-opacity="1.000000" fill-rule="evenodd"/>
		<path id="Vector" d="M255.36 150.1L255.23 149.53L255.1 150.1L255.36 150.1Z" fill="#EDC95E" fill-opacity="1.000000" fill-rule="evenodd"/>
		<path id="Vector" d="M266.11 148.39L258.72 148.39L258.72 151.66L265.89 151.67L266.11 148.52L266.11 148.39ZM266.45 143.87L266.52 142.8C261.88 141.37 257.59 140.94 253.57 140.94L253.57 143.85L266.45 143.87ZM248.46 159.41C247.96 158.48 247.76 157.46 247.76 156.46L240.94 156.47L241.15 159.41L248.46 159.41ZM252.88 167.15L252.88 164.09L242.67 164.08C243.33 165.14 244.18 166.11 245.18 167.08C245.2 167.1 245.23 167.13 245.26 167.16L252.88 167.15Z" fill="#000000" fill-opacity="1.000000" fill-rule="evenodd"/>
	</g>
</svg>
