<svg width="380.000000" height="264.000000" viewBox="0 0 380 264" fill="none" xmlns="http://www.w3.org/2000/svg" xmlns:xlink="http://www.w3.org/1999/xlink">
	<desc>
			Created with Pixso.
	</desc>
	<defs>
		<filter id="filter_6370_884_dd" x="-21305.000000" y="-3017.000000" width="0.000000" height="0.000000" filterUnits="userSpaceOnUse" color-interpolation-filters="sRGB">
			<feFlood flood-opacity="0" result="BackgroundImageFix"/>
			<feBlend mode="normal" in="SourceGraphic" in2="BackgroundImageFix" result="shape"/>
			<feGaussianBlur stdDeviation="2.16667" result="effect_layerBlur_1"/>
		</filter>
		<clipPath id="clip6370_892">
			<rect id="kia-4 1" rx="-0.500000" width="51.000000" height="11.000000" transform="translate(292.500000 103.500000)" fill="white" fill-opacity="0"/>
		</clipPath>
		<filter id="filter_6370_1354_dd" x="12.500000" y="59.500000" width="480.000000" height="99.000000" filterUnits="userSpaceOnUse" color-interpolation-filters="sRGB">
			<feFlood flood-opacity="0" result="BackgroundImageFix"/>
			<feBlend mode="normal" in="SourceGraphic" in2="BackgroundImageFix" result="shape"/>
			<feGaussianBlur stdDeviation="2.16667" result="effect_layerBlur_1"/>
		</filter>
		<clipPath id="clip6370_1357">
			<rect id="okuma-corporation-company-logo 1" rx="-0.500000" width="59.000000" height="13.000000" transform="translate(159.500000 102.500000)" fill="white" fill-opacity="0"/>
		</clipPath>
		<clipPath id="clip6370_1364">
			<rect id="mazak-logo 1" rx="-0.500000" width="65.000000" height="16.000000" transform="translate(410.500000 101.500000)" fill="white" fill-opacity="0"/>
		</clipPath>
		<clipPath id="clip6370_1371">
			<rect id="logo-trumpf 1" rx="-0.500000" width="55.000000" height="54.000000" transform="translate(34.500000 82.500000)" fill="white" fill-opacity="0"/>
		</clipPath>
		<clipPath id="clip6370_1335">
			<rect id="okuma-corporation-company-logo 1" rx="-0.500000" width="59.000000" height="13.000000" transform="translate(96.500000 148.500000)" fill="white" fill-opacity="0"/>
		</clipPath>
		<clipPath id="clip6370_1345">
			<rect id="mazak-logo 1" rx="-0.500000" width="65.000000" height="16.000000" transform="translate(347.500000 147.500000)" fill="white" fill-opacity="0"/>
		</clipPath>
		<clipPath id="clip6370_1350">
			<rect id="logo-trumpf 1" rx="-0.500000" width="55.000000" height="54.000000" transform="translate(-28.500000 128.500000)" fill="white" fill-opacity="0"/>
		</clipPath>
		<filter id="filter_6370_986_dd" x="-21305.000000" y="-3017.000000" width="0.000000" height="0.000000" filterUnits="userSpaceOnUse" color-interpolation-filters="sRGB">
			<feFlood flood-opacity="0" result="BackgroundImageFix"/>
			<feBlend mode="normal" in="SourceGraphic" in2="BackgroundImageFix" result="shape"/>
			<feGaussianBlur stdDeviation="2.1" result="effect_layerBlur_1"/>
		</filter>
		<linearGradient x1="379.999969" y1="107.250031" x2="-0.000031" y2="107.250031" id="paint_linear_6370_883_0" gradientUnits="userSpaceOnUse">
			<stop stop-color="#FFFFFF" stop-opacity="0.000000"/>
			<stop offset="0.495000" stop-color="#CDCDCD"/>
			<stop offset="1.000000" stop-color="#999999" stop-opacity="0.000000"/>
		</linearGradient>
	</defs>
	<rect id="Rectangle 3611" rx="15.000000" width="380.000000" height="264.000000" fill="#F2F2F2" fill-opacity="1.000000"/>
	<mask id="mask6370_883" mask-type="alpha" maskUnits="userSpaceOnUse" x="0.000000" y="0.000000" width="380.000000" height="264.000000">
		<rect id="Rectangle 3611" rx="15.000000" width="380.000000" height="264.000000" fill="url(#paint_linear_6370_883_0)" fill-opacity="1.000000"/>
	</mask>
	<g mask="url(#mask6370_883)">
		<g opacity="0.500000" filter="url(#filter_6370_1354_dd)">
			<rect id="Rectangle 3611" x="146.000000" y="66.000000" rx="15.000000" width="86.000000" height="86.000000" fill="#FAFAFC" fill-opacity="1.000000"/>
			<rect id="okuma-corporation-company-logo 1" rx="-0.500000" width="59.000000" height="13.000000" transform="translate(159.500000 102.500000)" fill="#FFFFFF" fill-opacity="0"/>
			<g clip-path="url(#clip6370_1357)">
				<path id="Vector" d="M163 107.09C163.01 111.85 163.01 111.92 163.11 112.35C163.52 114.2 164.37 115.24 165.76 115.59C166.1 115.68 166.28 115.69 167.66 115.7L169.18 115.72L169.18 115.62C169.18 115.56 169.1 114.96 168.99 114.27L168.8 113.01L167.35 112.99C165.8 112.96 165.7 112.95 165.29 112.71C164.85 112.46 164.4 111.82 164.22 111.19C164.02 110.52 164.01 110.26 164.01 106.17L164.01 102.27L162.98 102.27L163 107.09Z" fill="#005EB8" fill-opacity="1.000000" fill-rule="nonzero"/>
				<path id="Vector" d="M164.24 106.39L164.26 110.51L164.38 110.94C164.44 111.18 164.55 111.48 164.61 111.62C164.73 111.88 165.05 112.33 165.12 112.33C165.14 112.33 165.18 112.16 165.22 111.95C165.27 111.65 165.28 110.58 165.29 106.91L165.31 102.27L164.23 102.27L164.24 106.39Z" fill="#005EB8" fill-opacity="1.000000" fill-rule="nonzero"/>
				<path id="Vector" d="M173.85 105.74C172.21 105.9 170.91 106.62 170.23 107.75C169.85 108.4 169.7 109.06 169.73 109.93C169.77 110.96 170.06 111.66 170.72 112.36C171.81 113.52 173.77 114.02 175.66 113.65C177.19 113.34 178.4 112.42 178.9 111.18C179.27 110.27 179.25 109.02 178.86 108.14C178.22 106.7 176.68 105.81 174.69 105.72C174.42 105.72 174.04 105.72 173.85 105.74ZM175.03 107.5C176.17 107.76 176.95 108.92 176.77 110.08C176.64 110.97 175.99 111.7 175.11 111.95C174.79 112.05 174.1 112.05 173.78 111.95C172.75 111.66 172.08 110.78 172.08 109.73C172.08 108.72 172.81 107.78 173.78 107.53C174.06 107.45 174.74 107.44 175.03 107.5ZM180.07 109.63L180.07 113.47L181.28 113.47L182.5 113.45L182.51 109.62L182.52 105.79L180.07 105.79L180.07 109.63ZM183.99 107.64C183.29 108.65 182.72 109.5 182.73 109.52C182.74 109.55 183.34 110.44 184.07 111.52L185.38 113.47L186.85 113.47C187.66 113.47 188.32 113.47 188.32 113.45C188.32 113.44 187.66 112.59 186.85 111.55C186.04 110.52 185.36 109.63 185.33 109.58C185.27 109.49 185.36 109.36 186.6 107.7C187.33 106.71 187.95 105.88 187.97 105.84C188 105.79 187.77 105.79 186.63 105.79L185.25 105.79L183.99 107.64ZM188.99 108.5C189.01 111.11 189.02 111.23 189.1 111.55C189.45 112.75 190.26 113.39 191.75 113.63C192.33 113.73 193.34 113.76 193.97 113.7C195.77 113.52 196.75 112.88 197.13 111.6C197.2 111.37 197.21 111.06 197.22 108.56L197.24 105.79L194.65 105.79L194.65 111.01L194.5 111.28C194.24 111.79 193.76 112.05 193.11 112.04C192.47 112.03 191.93 111.72 191.7 111.23L191.59 110.99L191.58 108.4L191.57 105.81L190.28 105.79L188.98 105.79L188.99 108.5ZM198.57 109.63L198.57 113.47L200.53 113.47L200.54 110.76C200.54 108.91 200.56 108.08 200.59 108.16C200.61 108.22 201 109.43 201.44 110.86L202.25 113.45L203.31 113.47L204.36 113.47L204.41 113.33C204.48 113.11 205.06 111.25 205.57 109.63C205.83 108.83 206.04 108.15 206.07 108.11C206.09 108.08 206.11 109.27 206.11 110.76L206.11 113.47L208.07 113.47L208.07 105.79L206.34 105.79L204.61 105.81L203.97 108.04C203.62 109.27 203.32 110.26 203.31 110.25C203.3 110.24 202.01 105.83 202.01 105.8C202.01 105.79 201.23 105.79 200.29 105.79L198.57 105.79L198.57 109.63ZM212.32 105.84C212.27 105.91 208.69 113.4 208.69 113.44C208.69 113.46 209.28 113.47 210.01 113.47L211.32 113.47L211.74 112.41C211.98 111.82 212.19 111.29 212.21 111.22L212.26 111.1L213.85 111.11L215.44 111.12L215.66 111.67C215.78 111.98 215.99 112.5 216.13 112.85L216.38 113.47L217.68 113.47C218.41 113.47 219 113.46 219 113.45C219 113.43 218.78 112.98 218.53 112.45C218.27 111.92 217.45 110.2 216.7 108.64L215.35 105.81L213.85 105.79C212.69 105.79 212.35 105.8 212.32 105.84ZM214.35 108.36C214.6 108.99 214.8 109.52 214.8 109.53C214.8 109.55 214.37 109.56 213.84 109.56C213.31 109.56 212.89 109.55 212.89 109.52C213.34 108.39 213.85 107.16 213.87 107.18C213.88 107.2 214.1 107.73 214.35 108.36L214.35 108.36Z" fill="#000000" fill-opacity="1.000000" fill-rule="nonzero"/>
				<path id="Vector" d="M162.65 112.78C162.25 112.97 162.01 112.99 160.65 112.99L159.39 112.99L159.19 114.32C159.08 115.05 159 115.66 159 115.68C159.03 115.72 161.65 115.71 162.05 115.67C162.71 115.6 163.52 115.24 163.87 114.87L163.97 114.76L163.79 114.53C163.55 114.21 163.2 113.5 163.07 113.06C163.02 112.86 162.96 112.69 162.95 112.68C162.93 112.66 162.8 112.71 162.65 112.78Z" fill="#005EB8" fill-opacity="1.000000" fill-rule="nonzero"/>
			</g>
			<rect id="Rectangle 3611" x="400.000000" y="66.000000" rx="15.000000" width="86.000000" height="86.000000" fill="#FAFAFC" fill-opacity="1.000000"/>
			<rect id="mazak-logo 1" rx="-0.500000" width="65.000000" height="16.000000" transform="translate(410.500000 101.500000)" fill="#FFFFFF" fill-opacity="0"/>
			<g clip-path="url(#clip6370_1364)">
				<path id="Vector" d="M418.19 107.09L414.15 101.01L410.02 101.01L410.01 117.99L413.29 117.99L413.3 105.68L415.46 108.73C416.81 110.55 419.3 108.76 418.19 107.09ZM427.72 101L423.59 101L419.55 107.07C418.44 108.74 420.93 110.53 422.27 108.71L424.44 105.67L424.44 117.99L427.72 117.99L427.72 101Z" fill="#FF5901" fill-opacity="1.000000" fill-rule="nonzero"/>
				<path id="Vector" d="M417.24 111.21L417.23 117.99L420.44 117.99L420.44 111.21L420.45 111.21C420.29 108.98 417.2 109.22 417.24 111.21ZM431.46 117.93L435.38 117.93L435.37 115.12L432.1 115.12L432.1 111.8L436.46 111.8L436.46 117.93L439.82 117.93L439.82 107.39C439.82 105.89 439.02 104.52 437.22 104.52L429.25 104.52L429.24 107.4L436.46 107.4L436.46 109.05L431.38 109.06C430.02 109.06 428.82 110.44 428.82 111.2L428.82 115.73C428.83 116.91 430.42 117.93 431.46 117.93ZM454.27 117.93L458.18 117.93L458.17 115.12L454.9 115.12L454.9 111.81L459.26 111.81L459.26 117.93L462.62 117.93L462.62 107.4C462.62 105.9 461.82 104.52 460.02 104.52L452.05 104.52L452.05 107.4L459.26 107.4L459.26 109.06L454.18 109.06C452.83 109.06 451.62 110.44 451.62 111.21L451.62 115.73C451.63 116.92 453.22 117.93 454.27 117.93ZM444.42 115.17L450.76 107.8C451.86 106.61 451.62 104.52 449.11 104.52L440.61 104.52L440.61 107.4L447.05 107.4L441.07 114.3L441.07 114.29C439.57 116 440.83 117.92 442.53 117.92L450.97 117.92L450.97 115.16L444.42 115.17ZM463.77 101.08L463.77 117.99L467.19 117.99L467.2 101.08L463.77 101.08Z" fill="#FF5901" fill-opacity="1.000000" fill-rule="nonzero"/>
				<path id="Vector" d="M466.27 110.75L471.91 118L475.98 117.99L470.34 110.74L475.13 104.51L471.24 104.52L467.15 109.83L466.27 110.75Z" fill="#FF5901" fill-opacity="1.000000" fill-rule="nonzero"/>
			</g>
			<rect id="Rectangle 3611" x="19.000000" y="66.000000" rx="15.000000" width="86.000000" height="86.000000" fill="#FAFAFC" fill-opacity="1.000000"/>
			<rect id="logo-trumpf 1" rx="-0.500000" width="55.000000" height="54.000000" transform="translate(34.500000 82.500000)" fill="#FFFFFF" fill-opacity="0"/>
			<g clip-path="url(#clip6370_1371)">
				<path id="Vector" d="M34 94.06L89.99 94.06L89.99 137L34 137L34 94.06Z" fill="#0033BA" fill-opacity="1.000000" fill-rule="nonzero"/>
				<path id="Vector" d="M86.47 92.82L83.74 92.82L83.74 82.02L89.99 82.02L89.99 84.44L86.47 84.44L86.47 86.34L89.99 86.34L89.99 88.63L86.47 88.63L86.47 92.82ZM34 82.02L40.91 82.02L40.91 84.44L38.92 84.44L38.92 92.82L36.13 92.82L36.13 84.44L34 84.44L34 82.02ZM79.75 86.19C79.69 86.38 79.64 86.49 79.5 86.63C79.37 86.78 79.26 86.83 79.08 86.91C78.91 86.99 78.81 87.03 78.62 87.06L77.56 87.06L77.56 84.44L78.62 84.44C79.02 84.54 79.01 84.54 79.22 84.69C79.45 84.85 79.53 84.92 79.65 85.13C79.74 85.28 79.77 85.37 79.8 85.54C79.85 85.79 79.83 85.95 79.75 86.19ZM82.4 84.67C82.25 84.09 82.1 83.75 81.71 83.29C81.41 82.95 81.2 82.79 80.8 82.56C80.45 82.36 80.23 82.27 79.83 82.17C79.37 82.04 79.1 82.05 78.62 82.02C78.27 82 77.91 82 77.56 82.02L74.7 82.02L74.7 92.82L77.56 92.82L77.56 89.28C77.97 89.28 78.21 89.29 78.62 89.28C79.14 89.27 79.43 89.28 79.95 89.24C80.35 89.2 80.54 89.06 80.86 88.86C81.24 88.63 81.42 88.43 81.7 88.09C81.97 87.75 82.1 87.54 82.26 87.14C82.47 86.62 82.5 86.29 82.51 85.73C82.51 85.32 82.5 85.08 82.4 84.67ZM61.36 82.02L61.36 92.82L63.89 92.82L63.89 86.11L66.22 92.82L68.05 92.82L70.37 86.11L70.37 92.82L73.03 92.82L73.03 82.02L69.34 82.02L67.18 88.63L65.02 82.02L61.36 82.02ZM56.94 82.02L56.94 89.09C56.95 89.34 56.92 89.49 56.81 89.71C56.71 89.9 56.62 90 56.46 90.13C56.33 90.25 56.19 90.33 56.03 90.38C55.84 90.45 55.64 90.47 55.44 90.45C55.29 90.43 55.15 90.39 55.01 90.33C54.81 90.24 54.68 90.19 54.53 90.02C54.39 89.87 54.35 89.75 54.28 89.56C54.22 89.39 54.2 89.28 54.18 89.09L54.18 82.02L51.42 82.02L51.42 88.63L51.41 88.63L51.42 89.09C51.44 89.31 51.45 89.43 51.49 89.64C51.54 89.99 51.56 90.18 51.67 90.51C51.79 90.87 51.87 91.08 52.08 91.4C52.35 91.78 52.57 91.96 52.95 92.23C53.39 92.54 53.67 92.69 54.2 92.84C54.71 92.98 55.03 92.98 55.56 92.97C55.97 92.96 56.2 92.95 56.59 92.85C57.02 92.75 57.25 92.64 57.64 92.43C58.03 92.21 58.24 92.07 58.55 91.76C58.9 91.41 59.05 91.16 59.25 90.71C59.43 90.3 59.48 90.04 59.55 89.6C59.58 89.43 59.59 89.26 59.6 89.09L59.6 82.02L56.94 82.02ZM44.67 84.47L46.3 84.47C46.58 84.54 46.73 84.63 46.93 84.83C47.08 84.97 47.16 85.07 47.25 85.25C47.36 85.48 47.36 85.64 47.38 85.89C47.39 86.08 47.41 86.2 47.36 86.38C47.34 86.5 47.3 86.61 47.25 86.71C47.18 86.86 47.08 86.99 46.95 87.1C46.77 87.27 46.54 87.37 46.3 87.4L46.3 87.41L44.67 87.41L44.67 84.47ZM47.6 89.11L47.6 89.06C47.76 89.03 47.93 88.98 48.13 88.9C48.48 88.75 48.67 88.62 48.96 88.38C49.28 88.11 49.45 87.92 49.66 87.56C49.9 87.13 49.95 86.84 50.02 86.35C50.09 85.92 50.09 85.49 50.01 85.07C49.95 84.7 49.83 84.33 49.66 83.99C49.44 83.54 49.27 83.29 48.91 82.95C48.49 82.54 48.18 82.33 47.61 82.16C47.12 82.01 46.8 82 46.3 82.04L41.94 82.04L41.94 92.84L44.67 92.84L44.67 89.31L46.93 92.84L50.26 92.84L47.6 89.11Z" fill="#000000" fill-opacity="1.000000" fill-rule="nonzero"/>
			</g>
			<rect id="Rectangle 3611" x="273.000000" y="66.000000" rx="15.000000" width="86.000000" height="86.000000" fill="#FAFAFC" fill-opacity="1.000000"/>
			<path id="Vector" d="M286.47 109.01C286.47 111.56 288.53 113.62 291.09 113.62C293.64 113.62 295.7 111.56 295.7 109.01C295.7 106.45 293.64 104.39 291.09 104.39C288.53 104.39 286.47 106.45 286.47 109.01ZM298.28 105.43C299.07 107.13 299.19 109.11 299.17 111.15C299.15 113.1 299.17 116.98 299.17 116.98L295.19 116.98L295.19 116.01C292.86 117.52 289.24 117.52 286.93 116.01C286.93 116.45 286.95 116.65 286.93 116.98L283 116.98L283 107.97C283.28 105.25 285.38 102.52 287.98 101.55C290.73 100.47 294.19 100.98 296.35 102.99C297.1 103.7 297.89 104.5 298.28 105.43ZM304.34 108.84C305.01 109.97 305.6 111.1 306.29 112.23C306.98 111.18 307.55 110 308.22 108.89L312.53 108.89L312.53 117.03L309.14 117.03L309.14 114.34L307.34 117.03L305.37 117.03C304.72 116.19 303.47 114.34 303.47 114.34L303.47 116.98L300.1 116.98L300.1 108.84L304.34 108.84ZM321.39 108.84C322.68 111.54 323.83 114.34 325.09 117.03L321.31 117.03L320.8 116.01L317.44 116.01L316.92 117.03L313.17 117.03L316.82 108.84L321.39 108.84ZM333.75 108.84C335.26 109 336.73 110.31 337.16 111.77C337.5 113.16 337.29 114.67 336.34 115.7C335.6 116.62 334.57 116.93 333.46 117.03L325.71 117.03L325.71 108.84L333.75 108.84ZM348.64 117.09L344.89 117.09L344.33 116.06L340.96 116.06L340.5 117.09L336.75 117.09L336.75 116.93L340.35 108.89L344.97 108.89L348.64 117.09ZM333.05 111.95C333.39 112.56 333.44 113.49 333 114.08C332.26 115.21 330.74 114.75 329.53 114.85L329.53 111.08C330.79 111.18 332.36 110.69 333.05 111.95ZM320.05 114.31L318.26 114.31L319.13 112.18C319.44 112.87 320.05 114.31 320.05 114.31ZM343.63 114.31L341.78 114.31L342.66 112.26C343.02 112.9 343.33 113.62 343.63 114.31Z" fill="#000000" fill-opacity="1.000000" fill-rule="evenodd"/>
			<path id="Vector" d="M287.1 109.01C287.1 106.8 288.88 105.02 291.09 105.02C293.29 105.02 295.07 106.8 295.07 109.01C295.07 111.21 293.29 112.99 291.09 112.99C288.88 112.99 287.1 111.21 287.1 109.01Z" fill="#CC2131" fill-opacity="1.000000" fill-rule="evenodd"/>
		</g>
	</g>
	<g mask="url(#mask6370_883)">
		<rect id="Rectangle 3611" x="83.000000" y="112.000000" rx="15.000000" width="86.000000" height="86.000000" fill="#FAFAFC" fill-opacity="1.000000"/>
		<rect id="okuma-corporation-company-logo 1" rx="-0.500000" width="59.000000" height="13.000000" transform="translate(96.500000 148.500000)" fill="#FFFFFF" fill-opacity="0"/>
		<g clip-path="url(#clip6370_1335)">
			<path id="Vector" d="M100 153.09C100.01 157.85 100.01 157.92 100.11 158.35C100.52 160.2 101.37 161.24 102.76 161.59C103.1 161.68 103.28 161.69 104.66 161.7L106.18 161.72L106.18 161.62C106.18 161.56 106.1 160.96 105.99 160.27L105.8 159.01L104.35 158.99C102.8 158.96 102.7 158.95 102.29 158.71C101.85 158.46 101.4 157.82 101.22 157.19C101.02 156.52 101.01 156.26 101.01 152.17L101.01 148.27L99.98 148.27L100 153.09Z" fill="#005EB8" fill-opacity="1.000000" fill-rule="nonzero"/>
			<path id="Vector" d="M101.24 152.39L101.26 156.51L101.38 156.94C101.44 157.18 101.55 157.48 101.61 157.62C101.73 157.88 102.05 158.33 102.12 158.33C102.14 158.33 102.18 158.16 102.22 157.95C102.27 157.65 102.28 156.58 102.29 152.91L102.31 148.27L101.23 148.27L101.24 152.39Z" fill="#005EB8" fill-opacity="1.000000" fill-rule="nonzero"/>
			<path id="Vector" d="M110.85 151.74C109.21 151.89 107.91 152.62 107.23 153.75C106.85 154.39 106.7 155.06 106.73 155.93C106.77 156.96 107.06 157.66 107.72 158.36C108.81 159.52 110.77 160.02 112.66 159.65C114.19 159.34 115.4 158.42 115.9 157.18C116.27 156.27 116.25 155.02 115.86 154.14C115.22 152.7 113.68 151.81 111.69 151.72C111.42 151.72 111.04 151.72 110.85 151.74ZM112.03 153.5C113.17 153.76 113.95 154.92 113.77 156.08C113.64 156.97 112.99 157.7 112.11 157.95C111.79 158.05 111.1 158.05 110.78 157.95C109.75 157.66 109.08 156.78 109.08 155.73C109.08 154.72 109.81 153.78 110.78 153.53C111.06 153.45 111.74 153.44 112.03 153.5ZM117.07 155.63L117.07 159.47L118.28 159.47L119.5 159.45L119.51 155.62L119.52 151.78L117.07 151.78L117.07 155.63ZM120.99 153.64C120.29 154.65 119.72 155.5 119.73 155.52C119.74 155.55 120.34 156.44 121.07 157.52L122.38 159.47L123.85 159.47C124.66 159.47 125.32 159.47 125.32 159.45C125.32 159.44 124.66 158.59 123.85 157.55C123.04 156.52 122.36 155.63 122.33 155.58C122.27 155.49 122.36 155.36 123.6 153.7C124.33 152.71 124.95 151.88 124.97 151.84C125 151.79 124.77 151.78 123.63 151.78L122.25 151.78L120.99 153.64ZM125.99 154.5C126.01 157.11 126.02 157.23 126.1 157.55C126.45 158.75 127.26 159.39 128.75 159.63C129.33 159.73 130.34 159.76 130.97 159.7C132.77 159.52 133.75 158.88 134.13 157.6C134.2 157.37 134.21 157.06 134.22 154.56L134.24 151.78L131.65 151.78L131.65 157L131.5 157.28C131.24 157.79 130.76 158.05 130.11 158.04C129.47 158.03 128.93 157.72 128.7 157.23L128.59 156.99L128.58 154.4L128.57 151.81L127.28 151.79L125.98 151.78L125.99 154.5ZM135.57 155.63L135.57 159.47L137.53 159.47L137.54 156.76C137.54 154.91 137.56 154.08 137.59 154.16C137.61 154.22 138 155.43 138.44 156.86L139.25 159.45L140.31 159.47L141.36 159.47L141.41 159.33C141.48 159.11 142.06 157.25 142.57 155.63C142.83 154.83 143.04 154.15 143.07 154.11C143.09 154.08 143.11 155.27 143.11 156.76L143.11 159.47L145.07 159.47L145.07 151.78L143.34 151.79L141.61 151.81L140.97 154.04C140.62 155.27 140.32 156.26 140.31 156.25C140.3 156.24 139 151.83 139 151.8C139 151.79 138.23 151.78 137.29 151.78L135.57 151.78L135.57 155.63ZM149.32 151.84C149.27 151.91 145.69 159.4 145.69 159.44C145.69 159.46 146.28 159.47 147 159.47L148.32 159.47L148.74 158.41C148.98 157.82 149.19 157.29 149.21 157.22L149.26 157.1L150.85 157.11L152.44 157.12L152.66 157.67C152.78 157.98 152.99 158.5 153.13 158.85L153.38 159.47L154.68 159.47C155.41 159.47 156 159.46 156 159.45C156 159.43 155.78 158.98 155.53 158.45C155.27 157.92 154.45 156.2 153.7 154.64L152.35 151.81L150.85 151.79C149.69 151.78 149.35 151.8 149.32 151.84ZM151.35 154.36C151.6 154.99 151.8 155.52 151.8 155.53C151.8 155.55 151.37 155.56 150.84 155.56C150.31 155.56 149.89 155.55 149.89 155.52C150.34 154.39 150.85 153.16 150.87 153.18C150.88 153.2 151.1 153.73 151.35 154.36L151.35 154.36Z" fill="#000000" fill-opacity="1.000000" fill-rule="nonzero"/>
			<path id="Vector" d="M99.65 158.78C99.25 158.97 99.01 158.99 97.65 158.99L96.39 158.99L96.19 160.32C96.08 161.05 96 161.66 96 161.68C96.03 161.72 98.65 161.71 99.05 161.67C99.71 161.6 100.52 161.24 100.87 160.87L100.97 160.76L100.79 160.53C100.55 160.21 100.2 159.5 100.07 159.06C100.02 158.86 99.96 158.69 99.95 158.68C99.93 158.66 99.8 158.71 99.65 158.78Z" fill="#005EB8" fill-opacity="1.000000" fill-rule="nonzero"/>
		</g>
		<rect id="Rectangle 3611" x="337.000000" y="112.000000" rx="15.000000" width="86.000000" height="86.000000" fill="#FAFAFC" fill-opacity="1.000000"/>
		<rect id="mazak-logo 1" rx="-0.500000" width="65.000000" height="16.000000" transform="translate(347.500000 147.500000)" fill="#FFFFFF" fill-opacity="0"/>
		<g clip-path="url(#clip6370_1345)">
			<path id="Vector" d="M355.19 153.09L351.15 147.01L347.02 147.01L347.01 163.99L350.29 163.99L350.3 151.68L352.46 154.73C353.81 156.55 356.3 154.76 355.19 153.09ZM364.72 147L360.59 147L356.55 153.07C355.44 154.74 357.93 156.53 359.27 154.71L361.44 151.67L361.44 163.99L364.72 163.99L364.72 147Z" fill="#FF5901" fill-opacity="1.000000" fill-rule="nonzero"/>
			<path id="Vector" d="M354.24 157.21L354.23 163.99L357.44 163.99L357.44 157.21L357.45 157.21C357.29 154.98 354.2 155.22 354.24 157.21ZM368.46 163.93L372.38 163.93L372.37 161.12L369.1 161.12L369.1 157.8L373.46 157.8L373.46 163.93L376.82 163.93L376.82 153.39C376.82 151.89 376.02 150.52 374.22 150.52L366.25 150.52L366.24 153.4L373.46 153.4L373.46 155.05L368.38 155.06C367.02 155.06 365.82 156.44 365.82 157.2L365.82 161.73C365.83 162.91 367.42 163.93 368.46 163.93ZM391.27 163.93L395.18 163.93L395.17 161.12L391.9 161.12L391.9 157.81L396.26 157.81L396.26 163.93L399.62 163.93L399.62 153.39C399.62 151.9 398.82 150.52 397.02 150.52L389.05 150.52L389.05 153.4L396.26 153.4L396.26 155.06L391.18 155.06C389.83 155.06 388.62 156.44 388.62 157.21L388.62 161.73C388.63 162.92 390.22 163.93 391.27 163.93ZM381.42 161.17L387.76 153.8C388.86 152.61 388.62 150.52 386.11 150.52L377.61 150.52L377.61 153.4L384.05 153.4L378.07 160.3L378.07 160.29C376.57 162 377.83 163.92 379.53 163.92L387.97 163.92L387.97 161.16L381.42 161.17ZM400.77 147.08L400.77 163.99L404.19 163.99L404.2 147.08L400.77 147.08Z" fill="#FF5901" fill-opacity="1.000000" fill-rule="nonzero"/>
			<path id="Vector" d="M403.27 156.75L408.91 164L412.98 163.99L407.34 156.74L412.13 150.51L408.24 150.52L404.15 155.83L403.27 156.75Z" fill="#FF5901" fill-opacity="1.000000" fill-rule="nonzero"/>
		</g>
		<rect id="Rectangle 3611" x="-44.000000" y="112.000000" rx="15.000000" width="86.000000" height="86.000000" fill="#FAFAFC" fill-opacity="1.000000"/>
		<rect id="logo-trumpf 1" rx="-0.500000" width="55.000000" height="54.000000" transform="translate(-28.500000 128.500000)" fill="#FFFFFF" fill-opacity="0"/>
		<g clip-path="url(#clip6370_1350)">
			<path id="Vector" d="M-29 140.06L26.99 140.06L26.99 183L-29 183L-29 140.06Z" fill="#0033BA" fill-opacity="1.000000" fill-rule="nonzero"/>
			<path id="Vector" d="M23.47 138.82L20.74 138.82L20.74 128.02L26.99 128.02L26.99 130.44L23.47 130.44L23.47 132.34L26.99 132.34L26.99 134.63L23.47 134.63L23.47 138.82ZM-29 128.02L-22.09 128.02L-22.09 130.44L-24.08 130.44L-24.08 138.82L-26.87 138.82L-26.87 130.44L-29 130.44L-29 128.02ZM16.75 132.19C16.69 132.38 16.64 132.49 16.5 132.63C16.37 132.78 16.26 132.83 16.08 132.91C15.91 132.99 15.81 133.03 15.62 133.06L14.56 133.06L14.56 130.44L15.62 130.44C16.02 130.54 16.01 130.54 16.22 130.69C16.45 130.85 16.53 130.92 16.65 131.13C16.74 131.28 16.77 131.37 16.8 131.54C16.85 131.79 16.83 131.95 16.75 132.19ZM19.4 130.67C19.25 130.09 19.1 129.75 18.71 129.3C18.41 128.95 18.2 128.79 17.8 128.56C17.45 128.36 17.23 128.27 16.83 128.17C16.37 128.04 16.1 128.05 15.62 128.02C15.27 128 14.91 128 14.56 128.02L11.7 128.02L11.7 138.82L14.56 138.82L14.56 135.28C14.97 135.28 15.21 135.29 15.62 135.28C16.14 135.27 16.43 135.28 16.95 135.24C17.35 135.2 17.54 135.06 17.86 134.86C18.24 134.63 18.42 134.43 18.7 134.09C18.97 133.75 19.1 133.54 19.26 133.14C19.47 132.62 19.5 132.29 19.51 131.74C19.51 131.32 19.5 131.08 19.4 130.67ZM-1.64 128.02L-1.64 138.82L0.89 138.82L0.89 132.11L3.22 138.82L5.05 138.82L7.37 132.11L7.37 138.82L10.03 138.82L10.03 128.02L6.34 128.02L4.18 134.63L2.02 128.02L-1.64 128.02ZM-6.06 128.02L-6.06 135.09C-6.05 135.34 -6.08 135.49 -6.19 135.71C-6.29 135.9 -6.38 136 -6.54 136.13C-6.67 136.25 -6.81 136.33 -6.97 136.38C-7.16 136.45 -7.36 136.47 -7.56 136.45C-7.71 136.43 -7.85 136.39 -7.99 136.33C-8.19 136.24 -8.32 136.19 -8.47 136.02C-8.61 135.87 -8.65 135.75 -8.72 135.56C-8.78 135.39 -8.8 135.28 -8.82 135.09L-8.82 128.02L-11.58 128.02L-11.58 134.63L-11.59 134.63L-11.58 135.09C-11.56 135.31 -11.55 135.43 -11.51 135.64C-11.46 135.99 -11.44 136.18 -11.33 136.51C-11.21 136.87 -11.13 137.08 -10.92 137.4C-10.65 137.78 -10.43 137.96 -10.05 138.23C-9.61 138.54 -9.33 138.69 -8.8 138.84C-8.29 138.98 -7.97 138.98 -7.44 138.97C-7.03 138.96 -6.8 138.95 -6.41 138.85C-5.98 138.75 -5.75 138.64 -5.36 138.43C-4.97 138.21 -4.76 138.07 -4.45 137.75C-4.1 137.41 -3.95 137.16 -3.75 136.71C-3.57 136.3 -3.52 136.04 -3.45 135.6C-3.42 135.43 -3.41 135.26 -3.4 135.09L-3.4 128.02L-6.06 128.02ZM-18.33 130.47L-16.7 130.47C-16.42 130.54 -16.27 130.63 -16.07 130.83C-15.92 130.97 -15.84 131.07 -15.75 131.25C-15.64 131.48 -15.64 131.64 -15.62 131.89C-15.61 132.08 -15.59 132.2 -15.64 132.38C-15.66 132.5 -15.7 132.61 -15.75 132.71C-15.82 132.86 -15.92 132.99 -16.05 133.1C-16.23 133.27 -16.46 133.37 -16.7 133.39L-16.7 133.41L-18.33 133.41L-18.33 130.47ZM-15.4 135.11L-15.4 135.06C-15.24 135.03 -15.07 134.98 -14.87 134.9C-14.52 134.75 -14.33 134.63 -14.04 134.38C-13.72 134.11 -13.55 133.92 -13.34 133.56C-13.1 133.13 -13.05 132.84 -12.98 132.35C-12.91 131.92 -12.91 131.49 -12.99 131.07C-13.05 130.7 -13.17 130.33 -13.34 129.99C-13.56 129.54 -13.73 129.29 -14.09 128.95C-14.51 128.54 -14.82 128.33 -15.39 128.16C-15.88 128.01 -16.2 128 -16.7 128.04L-21.06 128.04L-21.06 138.84L-18.33 138.84L-18.33 135.31L-16.07 138.84L-12.74 138.84L-15.4 135.11Z" fill="#000000" fill-opacity="1.000000" fill-rule="nonzero"/>
		</g>
		<rect id="Rectangle 3611" x="210.000000" y="112.000000" rx="15.000000" width="86.000000" height="86.000000" fill="#FAFAFC" fill-opacity="1.000000"/>
		<path id="Vector" d="M223.47 155C223.47 157.56 225.53 159.62 228.09 159.62C230.64 159.62 232.7 157.56 232.7 155C232.7 152.45 230.64 150.39 228.09 150.39C225.53 150.39 223.47 152.45 223.47 155ZM235.28 151.42C236.07 153.13 236.19 155.11 236.17 157.15C236.15 159.1 236.17 162.98 236.17 162.98L232.19 162.98L232.19 162.01C229.86 163.52 226.24 163.52 223.93 162.01C223.93 162.45 223.95 162.65 223.93 162.98L220 162.98L220 153.97C220.28 151.25 222.38 148.52 224.98 147.55C227.73 146.47 231.19 146.98 233.35 148.99C234.1 149.7 234.89 150.5 235.28 151.42ZM241.34 154.84C242.01 155.97 242.6 157.1 243.29 158.23C243.98 157.18 244.55 156 245.22 154.89L249.53 154.89L249.53 163.03L246.14 163.03L246.14 160.34L244.34 163.03L242.37 163.03C241.72 162.19 240.47 160.34 240.47 160.34L240.47 162.98L237.1 162.98L237.1 154.84L241.34 154.84ZM258.39 154.84C259.68 157.54 260.83 160.34 262.09 163.03L258.31 163.03L257.8 162.01L254.44 162.01L253.92 163.03L250.17 163.03L253.82 154.84L258.39 154.84ZM270.75 154.84C272.26 155 273.73 156.31 274.16 157.77C274.5 159.16 274.29 160.67 273.34 161.7C272.6 162.62 271.57 162.93 270.46 163.03L262.71 163.03L262.71 154.84L270.75 154.84ZM285.64 163.09L281.89 163.09L281.33 162.06L277.96 162.06L277.5 163.09L273.75 163.09L273.75 162.93L277.35 154.89L281.97 154.89L285.64 163.09ZM270.05 157.95C270.39 158.56 270.44 159.49 270 160.08C269.26 161.21 267.74 160.75 266.53 160.85L266.53 157.08C267.79 157.18 269.36 156.69 270.05 157.95ZM257.05 160.31L255.26 160.31L256.13 158.18C256.44 158.87 257.05 160.31 257.05 160.31ZM280.63 160.31L278.78 160.31L279.66 158.26C280.02 158.9 280.32 159.62 280.63 160.31Z" fill="#000000" fill-opacity="1.000000" fill-rule="evenodd"/>
		<path id="Vector" d="M224.1 155C224.1 152.8 225.88 151.02 228.09 151.02C230.29 151.02 232.07 152.8 232.07 155C232.07 157.21 230.29 158.99 228.09 158.99C225.88 158.99 224.1 157.21 224.1 155Z" fill="#CC2131" fill-opacity="1.000000" fill-rule="evenodd"/>
	</g>
</svg>
