<svg width="380.000000" height="264.000000" viewBox="0 0 380 264" fill="none" xmlns="http://www.w3.org/2000/svg" xmlns:xlink="http://www.w3.org/1999/xlink">
	<desc>
			Created with Pixso.
	</desc>
	<defs>
		<filter id="filter_6370_1399_dd" x="-117.500000" y="62.500000" width="480.000000" height="99.000000" filterUnits="userSpaceOnUse" color-interpolation-filters="sRGB">
			<feFlood flood-opacity="0" result="BackgroundImageFix"/>
			<feBlend mode="normal" in="SourceGraphic" in2="BackgroundImageFix" result="shape"/>
			<feGaussianBlur stdDeviation="2.16667" result="effect_layerBlur_1"/>
		</filter>
		<filter id="filter_6370_1145_dd" x="-20837.000000" y="-3640.000000" width="0.000000" height="0.000000" filterUnits="userSpaceOnUse" color-interpolation-filters="sRGB">
			<feFlood flood-opacity="0" result="BackgroundImageFix"/>
			<feBlend mode="normal" in="SourceGraphic" in2="BackgroundImageFix" result="shape"/>
			<feGaussianBlur stdDeviation="2.1" result="effect_layerBlur_1"/>
		</filter>
		<linearGradient x1="379.999969" y1="107.250031" x2="-0.000031" y2="107.250031" id="paint_linear_6370_1042_0" gradientUnits="userSpaceOnUse">
			<stop stop-color="#FFFFFF" stop-opacity="0.000000"/>
			<stop offset="0.495000" stop-color="#CDCDCD"/>
			<stop offset="1.000000" stop-color="#999999" stop-opacity="0.000000"/>
		</linearGradient>
	</defs>
	<rect id="Rectangle 3611" rx="15.000000" width="380.000000" height="264.000000" fill="#F2F2F2" fill-opacity="1.000000"/>
	<mask id="mask6370_1042" mask-type="alpha" maskUnits="userSpaceOnUse" x="0.000000" y="0.000000" width="380.000000" height="264.000000">
		<rect id="Rectangle 3611" rx="15.000000" width="380.000000" height="264.000000" fill="url(#paint_linear_6370_1042_0)" fill-opacity="1.000000"/>
	</mask>
	<g mask="url(#mask6370_1042)">
		<g opacity="0.500000" filter="url(#filter_6370_1399_dd)">
			<rect id="Rectangle 3611" x="16.000000" y="69.000000" rx="15.000000" width="86.000000" height="86.000000" fill="#FAFAFC" fill-opacity="1.000000"/>
			<path id="Vector" d="M45.09 125.19C52.33 125.19 58.19 119.33 58.19 112.09C58.19 104.86 52.33 99 45.09 99C37.86 99 32 104.86 32 112.09C32 119.33 37.86 125.19 45.09 125.19Z" fill="#A70B52" fill-opacity="1.000000" fill-rule="nonzero"/>
			<path id="Vector" d="M48.28 116.7L45.57 116.7L45.57 106.45L44.56 106.45L44.56 117.71L45.57 117.71L45.57 117.71L48.28 117.71L48.28 116.7Z" fill="#FFFFFF" fill-opacity="1.000000" fill-rule="nonzero"/>
			<path id="Vector" d="M55.05 112.51L48.3 112.51L48.3 111.51L56.04 111.51C56.05 111.7 56.06 111.9 56.06 112.09C56.06 118.15 51.15 123.06 45.09 123.06C39.04 123.06 34.13 118.15 34.13 112.09C34.13 106.04 39.04 101.13 45.09 101.13C45.25 101.13 45.41 101.13 45.57 101.14L45.57 102.14C45.41 102.13 45.25 102.13 45.09 102.13C39.59 102.13 35.13 106.59 35.13 112.09C35.13 117.6 39.59 122.06 45.09 122.06C50.45 122.06 54.82 117.84 55.05 112.54L55.05 112.51Z" fill="#FFFFFF" fill-opacity="1.000000" fill-rule="nonzero"/>
			<path id="Vector" d="M41 109.49C41.41 109.49 41.8 109.32 42.09 109.03C42.38 108.75 42.54 108.35 42.54 107.94C42.54 107.54 42.38 107.14 42.09 106.86C41.8 106.57 41.41 106.4 41 106.4C40.59 106.4 40.2 106.57 39.91 106.86C39.62 107.14 39.46 107.54 39.46 107.94C39.46 108.35 39.62 108.75 39.91 109.03C40.2 109.32 40.59 109.49 41 109.49Z" fill="#FFFFFF" fill-opacity="1.000000" fill-rule="nonzero"/>
			<path id="Vector" d="M64.69 118.52L74.05 118.52L74.05 115.69L68.13 115.69L68.13 105.57L64.69 105.57L64.69 118.52ZM85.36 106.49C84.29 105.65 82.91 105.23 81.26 105.23C79.3 105.23 77.66 105.83 76.53 106.97C75.34 108.16 74.71 109.91 74.71 112.03C74.71 114.3 75.38 116.21 76.58 117.42C77.53 118.36 78.79 118.86 80.24 118.86C83.41 118.86 84.13 116.96 84.13 116.96L84.13 118.52L87 118.52L87 111.21L81.3 111.21L81.3 113.5L83.92 113.5C83.92 113.5 83.95 116.38 81.24 116.38C80.55 116.38 79.94 116.13 79.47 115.66C78.73 114.92 78.34 113.69 78.34 112.08C78.34 109.43 79.4 107.84 81.17 107.84C82.27 107.84 83.1 108.52 83.31 109.55L86.96 109.55C86.77 108.06 86.36 107.28 85.36 106.49Z" fill="#808183" fill-opacity="1.000000" fill-rule="nonzero"/>
			<rect id="Rectangle 3611" x="270.000000" y="69.000000" rx="15.000000" width="86.000000" height="86.000000" fill="#FAFAFC" fill-opacity="1.000000"/>
			<path id="Vector" d="M330.63 104.52L335.54 104.52L334.96 107.37C336.46 105.03 338.17 104.35 340.28 104.21C341 104.18 341.9 104.28 342.69 104.4L341.75 108.15C340.98 107.95 340.16 107.81 339.43 107.81C336.53 107.76 334.38 109.72 333.63 112.52L331.94 118.95L326.86 118.95C328.12 114.14 329.79 108.9 330.63 104.52Z" fill="#376355" fill-opacity="1.000000" fill-rule="evenodd"/>
			<path id="Vector" d="M316.68 110.93C317.53 110.52 320.48 110.57 322.38 110.32C324.59 110.06 327.65 108.85 327.58 107.01C327.46 105.05 325.72 104.61 324.1 104.83C320.28 105.38 317.79 107.89 316.68 110.93ZM316.21 112.18C316.11 113.03 316 113.93 316.07 114.6C316.39 117 318.49 118.11 320.74 118.19C322.61 118.23 324.89 117.11 326.13 115.72C326.37 115.45 326.64 115.54 326.79 115.75C326.92 115.91 326.87 116.27 326.76 116.38C324.81 118.32 322.8 119.41 320.02 119.44C316.85 119.46 312.88 118.25 312.4 114.97C312.33 114.58 312.33 114.14 312.38 113.68C313.01 107.59 318.57 104.3 324.03 104.01C326.64 103.87 330.41 104.55 330.19 107.37C329.98 110.35 325.48 111.39 322.55 111.46C320.09 111.53 317.05 111.52 316.21 112.18Z" fill="#376355" fill-opacity="1.000000" fill-rule="evenodd"/>
			<path id="Vector" d="M313.48 115.62L312.66 118.76C311.28 119.05 309.49 119.32 307.85 119.27C302.96 119.17 299.38 116.92 299.6 112.28C299.87 106.94 305.16 104.21 310.26 104.14C311.96 104.14 313.5 104.3 315.22 104.72L313.7 107.74C312.59 107.42 311.09 107.13 309.59 107.28C307.24 107.45 305.09 108.7 304.46 111.17C303.64 114.26 305.43 116.44 308.6 116.44C310.26 116.44 311.88 116.1 313.48 115.62Z" fill="#376355" fill-opacity="1.000000" fill-rule="evenodd"/>
			<path id="Vector" d="M292.84 104.18C296.92 104.18 300 105.12 300.29 108.51C300.4 109.82 299.93 110.98 299.57 112.36L297.86 118.98C294.6 118.98 291.94 119.05 288.99 119.29C286.26 119.29 283 118.71 283 115.23C283.05 109.54 291.87 110.06 295.61 110.06C296.41 107.79 294.55 106.87 291.94 106.87C289.57 106.87 287.62 107.54 285.71 108.17L286.38 105.1C288.24 104.5 290.63 104.18 292.84 104.18ZM295.06 112.33C293 112.33 287.18 111.84 287.18 114.99C287.18 116.56 288.83 116.79 290.2 116.79C293.82 116.79 294.39 115.53 295.06 112.33ZM340.99 116.03C340.73 116.03 340.47 116.08 340.23 116.18C339.99 116.28 339.77 116.42 339.59 116.61C339.2 117.02 338.98 117.53 338.98 118.06C338.98 118.59 339.2 119.07 339.56 119.46C339.95 119.85 340.46 120.07 340.99 120.07C341.52 120.07 342.03 119.85 342.42 119.46C342.8 119.07 343 118.59 343 118.06C343 117.5 342.8 117 342.42 116.63C342.03 116.25 341.52 116.03 340.99 116.03ZM342.8 118.06C342.8 118.54 342.61 118.98 342.27 119.32C341.93 119.65 341.47 119.84 340.99 119.85C340.75 119.85 340.52 119.8 340.3 119.71C340.08 119.62 339.88 119.48 339.71 119.32C339.37 118.98 339.18 118.52 339.18 118.06C339.18 117.58 339.37 117.12 339.71 116.75C340.05 116.41 340.51 116.22 340.99 116.22C341.47 116.22 341.93 116.42 342.27 116.78C342.61 117.12 342.8 117.55 342.8 118.06ZM341.04 116.85L340.22 116.85L340.22 119.17L340.53 119.17L340.53 118.13L341.11 118.13L341.62 119.17L341.98 119.17L341.45 118.11C341.79 118.06 342.01 117.82 342.01 117.5C342.01 117.04 341.69 116.85 341.04 116.85ZM340.99 117.07C341.45 117.07 341.69 117.19 341.69 117.48C341.69 117.84 341.47 117.94 340.99 117.94L340.53 117.94L340.53 117.07L340.99 117.07Z" fill="#376355" fill-opacity="1.000000" fill-rule="evenodd"/>
			<rect id="Rectangle 3611" x="-111.000000" y="69.000000" rx="15.000000" width="86.000000" height="86.000000" fill="#FAFAFC" fill-opacity="1.000000"/>
			<path id="Vector" d="M-92.71 110.2C-92.71 111.61 -93.39 112.57 -95.13 112.57L-95.67 112.57L-95.67 108.06C-95.48 108.05 -95.3 108.05 -95.13 108.05C-93.49 108.05 -92.71 108.83 -92.71 110.2ZM-94.49 114.53C-91.39 114.53 -89.42 112.93 -89.42 110.15C-89.42 107.09 -91.52 106 -94.94 106C-96.27 106 -97.86 106.09 -99 106.22L-99 117.14L-95.67 117.14L-95.67 114.53L-94.49 114.53ZM-49.87 110.2C-49.87 111.61 -50.56 112.57 -52.29 112.57L-52.84 112.57L-52.84 108.06C-52.65 108.05 -52.46 108.05 -52.29 108.05C-50.65 108.05 -49.87 108.83 -49.87 110.2ZM-51.65 114.53C-48.55 114.53 -46.59 112.93 -46.59 110.15C-46.59 107.09 -48.69 106 -52.11 106C-53.43 106 -55.03 106.09 -56.17 106.22L-56.17 117.14L-52.84 117.14L-52.84 114.53L-51.65 114.53ZM-42.26 109.01C-42.26 108.41 -41.66 108.14 -40.71 108.14C-39.66 108.14 -38.51 108.37 -37.74 108.69L-38.01 106.32C-38.88 106.13 -39.66 106 -41.07 106C-43.76 106 -45.59 107.06 -45.59 109.28C-45.59 113.12 -40.38 112.34 -40.38 114.12C-40.38 114.81 -40.89 115.17 -42.12 115.17C-43.21 115.17 -44.9 114.81 -45.91 114.3L-45.54 116.82C-44.54 117.18 -43.17 117.36 -42.07 117.36C-39.29 117.36 -37.01 116.45 -37.01 113.71C-37.01 110.06 -42.26 110.74 -42.26 109.01ZM-58.68 106.22L-62.01 106.22L-62.01 117.14L-58.68 117.14L-58.68 106.22ZM-72.18 106.22L-75.51 106.22L-75.51 117.14L-72.18 117.14L-72.18 106.22ZM-66.39 114.94L-66.39 106.22L-69.72 106.22L-69.72 117.14L-63.7 117.14L-63.19 114.94L-66.39 114.94ZM-77.98 106.22L-81.31 106.22L-81.31 110.56L-84.77 110.56L-84.77 106.22L-88.1 106.22L-88.1 117.14L-84.77 117.14L-84.77 112.84L-81.31 112.84L-81.31 117.14L-77.98 117.14L-77.98 106.22Z" fill="#1978BE" fill-opacity="1.000000" fill-rule="nonzero"/>
			<rect id="Rectangle 3611" x="143.000000" y="69.000000" rx="15.000000" width="86.000000" height="86.000000" fill="#FAFAFC" fill-opacity="1.000000"/>
			<path id="Vector" d="M213.19 107.28C212.45 103.05 199.73 101.73 184.77 104.33C178.49 105.42 172.82 107.04 168.4 108.85C169.08 108.87 169.59 109.02 169.89 109.33C170.13 109.57 170.25 109.9 170.25 110.31L170.25 110.73L168.78 110.73L168.78 110.36C168.78 110.05 168.6 109.85 168.27 109.85C168 109.85 167.83 109.98 167.77 110.22C167.75 110.32 167.76 110.42 167.78 110.52C167.93 111.16 170.11 111.56 170.35 112.74C170.38 112.89 170.42 113.22 170.35 113.69C170.22 114.64 169.38 115.01 168.31 115.01C166.82 115.01 166.22 114.3 166.22 113.33L166.22 112.87L167.79 112.87L167.79 113.44C167.79 113.77 168.02 113.94 168.35 113.94C168.65 113.94 168.82 113.82 168.88 113.57C168.91 113.46 168.93 113.29 168.87 113.16C168.58 112.43 166.55 112.09 166.3 110.91C166.24 110.64 166.24 110.42 166.28 110.13C166.31 109.99 166.35 109.85 166.42 109.72C161.52 112.02 158.65 114.54 159.03 116.71C159.77 120.95 172.49 122.27 187.44 119.66C194.02 118.52 199.93 116.81 204.43 114.89C204.36 114.89 204.3 114.9 204.23 114.9C203.21 114.9 202.29 114.51 202.2 113.47C202.18 113.28 202.18 113.2 202.18 113.09L202.18 110.68C202.18 110.58 202.19 110.4 202.2 110.3C202.32 109.29 203.12 108.88 204.23 108.88C205.09 108.88 206.14 109.12 206.26 110.3C206.27 110.45 206.27 110.61 206.27 110.66L206.27 110.89L204.79 110.89L204.79 110.55C204.79 110.54 204.79 110.42 204.77 110.34C204.75 110.22 204.64 109.94 204.22 109.94C203.8 109.94 203.7 110.22 203.67 110.34C203.65 110.4 203.65 110.5 203.65 110.61L203.65 113.22C203.65 113.31 203.65 113.38 203.66 113.43C203.67 113.47 203.74 113.83 204.23 113.83C204.71 113.83 204.78 113.47 204.79 113.43C204.8 113.36 204.8 113.28 204.8 113.22L204.8 112.41L204.22 112.41L204.22 111.54L206.28 111.54L206.28 113.09C206.28 113.19 206.28 113.27 206.26 113.47C206.24 113.74 206.15 113.97 206.02 114.17C210.78 111.91 213.56 109.43 213.19 107.28ZM174.41 114.79L173.66 109.69L173.63 109.69L172.86 114.79L171.28 114.79L172.34 109.03L174.92 109.03L175.98 114.79L174.41 114.79ZM182.01 114.79L181.98 109.79L181.95 109.79L181.02 114.79L179.54 114.79L178.61 109.79L178.59 109.79L178.55 114.79L177.08 114.79L177.21 109.03L179.58 109.03L180.26 113.3L180.3 113.3L180.99 109.03L183.35 109.03L183.48 114.79L182.01 114.79ZM188.94 113.67C188.78 114.79 187.69 114.98 186.92 114.98C185.63 114.98 184.84 114.43 184.84 113.32L184.84 112.86L186.4 112.86L186.4 113.43C186.4 113.74 186.61 113.92 186.95 113.92C187.25 113.92 187.42 113.8 187.48 113.56C187.51 113.44 187.52 113.28 187.47 113.15C187.19 112.43 185.17 112.08 184.92 110.92C184.87 110.66 184.86 110.43 184.91 110.15C185.08 109.1 186.09 108.88 186.9 108.88C187.63 108.88 188.16 109.04 188.48 109.36C188.72 109.59 188.84 109.92 188.84 110.32L188.84 110.74L187.38 110.74L187.38 110.37C187.38 110.06 187.19 109.88 186.88 109.88C186.6 109.88 186.43 110 186.37 110.24C186.36 110.34 186.36 110.44 186.38 110.53C186.54 111.17 188.7 111.56 188.93 112.73C188.96 112.88 189.01 113.21 188.94 113.67ZM194.32 113.15C194.32 113.25 194.31 113.47 194.3 113.53C194.22 114.47 193.54 114.96 192.29 114.96C191.04 114.96 190.36 114.47 190.28 113.53C190.27 113.4 190.26 113.27 190.26 113.15L190.26 109.03L191.75 109.03L191.75 113.28C191.75 113.37 191.75 113.44 191.76 113.49C191.78 113.59 191.87 113.89 192.29 113.89C192.71 113.89 192.81 113.59 192.83 113.49C192.83 113.44 192.84 113.37 192.84 113.28L192.84 109.03L194.32 109.03L194.32 113.15ZM200.72 114.73L198.65 114.73L197.27 110.17L197.24 110.17L197.32 114.73L195.88 114.73L195.88 109.03L198.03 109.03L199.32 113.41L199.35 113.41L199.27 109.03L200.72 109.03L200.72 114.73Z" fill="#2D4F9E" fill-opacity="1.000000" fill-rule="nonzero"/>
		</g>
	</g>
	<g mask="url(#mask6370_1042)">
		<rect id="Rectangle 3611" x="83.000000" y="112.000000" rx="15.000000" width="86.000000" height="86.000000" fill="#FAFAFC" fill-opacity="1.000000"/>
		<path id="Vector" d="M112.09 168.19C119.33 168.19 125.19 162.33 125.19 155.09C125.19 147.86 119.33 142 112.09 142C104.86 142 99 147.86 99 155.09C99 162.33 104.86 168.19 112.09 168.19Z" fill="#A70B52" fill-opacity="1.000000" fill-rule="nonzero"/>
		<path id="Vector" d="" fill="#EAEAEA" fill-opacity="0" fill-rule="evenodd"/>
		<path id="Vector" d="M115.28 159.7L112.57 159.7L112.57 149.45L111.56 149.45L111.56 160.71L112.57 160.71L112.57 160.71L115.28 160.71L115.28 159.7Z" fill="#FFFFFF" fill-opacity="1.000000" fill-rule="nonzero"/>
		<path id="Vector" d="" fill="#EAEAEA" fill-opacity="0" fill-rule="evenodd"/>
		<path id="Vector" d="M122.05 155.51L115.3 155.51L115.3 154.51L123.04 154.51C123.05 154.7 123.06 154.89 123.06 155.09C123.06 161.15 118.15 166.06 112.09 166.06C106.04 166.06 101.13 161.15 101.13 155.09C101.13 149.04 106.04 144.13 112.09 144.13C112.25 144.13 112.41 144.13 112.57 144.14L112.57 145.14C112.41 145.13 112.25 145.13 112.09 145.13C106.59 145.13 102.13 149.59 102.13 155.09C102.13 160.6 106.59 165.06 112.09 165.06C117.45 165.06 121.82 160.84 122.05 155.54L122.05 155.51Z" fill="#FFFFFF" fill-opacity="1.000000" fill-rule="nonzero"/>
		<path id="Vector" d="" fill="#EAEAEA" fill-opacity="0" fill-rule="evenodd"/>
		<path id="Vector" d="M108 152.49C108.41 152.49 108.8 152.32 109.09 152.03C109.38 151.75 109.54 151.35 109.54 150.94C109.54 150.54 109.38 150.14 109.09 149.86C108.8 149.57 108.41 149.4 108 149.4C107.6 149.4 107.2 149.57 106.91 149.86C106.62 150.14 106.46 150.54 106.46 150.94C106.46 151.35 106.62 151.75 106.91 152.03C107.2 152.32 107.6 152.49 108 152.49Z" fill="#FFFFFF" fill-opacity="1.000000" fill-rule="nonzero"/>
		<path id="Vector" d="" fill="#EAEAEA" fill-opacity="0" fill-rule="evenodd"/>
		<path id="Vector" d="M131.69 161.52L141.05 161.52L141.05 158.7L135.13 158.7L135.13 148.57L131.69 148.57L131.69 161.52ZM152.36 149.49C151.29 148.65 149.91 148.23 148.26 148.23C146.3 148.23 144.67 148.83 143.53 149.97C142.34 151.16 141.71 152.91 141.71 155.03C141.71 157.3 142.38 159.21 143.58 160.42C144.53 161.36 145.79 161.86 147.24 161.86C150.41 161.86 151.13 159.96 151.13 159.96L151.13 161.52L154 161.52L154 154.21L148.3 154.21L148.3 156.5L150.92 156.5C150.92 156.5 150.95 159.38 148.24 159.38C147.55 159.38 146.94 159.13 146.47 158.66C145.73 157.92 145.35 156.69 145.35 155.08C145.35 152.43 146.4 150.84 148.17 150.84C149.27 150.84 150.1 151.52 150.31 152.55L153.96 152.55C153.77 151.06 153.36 150.28 152.36 149.49Z" fill="#808183" fill-opacity="1.000000" fill-rule="nonzero"/>
		<path id="Vector" d="" fill="#EAEAEA" fill-opacity="0" fill-rule="evenodd"/>
		<rect id="Rectangle 3611" x="337.000000" y="112.000000" rx="15.000000" width="86.000000" height="86.000000" fill="#FAFAFC" fill-opacity="1.000000"/>
		<path id="Vector" d="M397.63 147.52L402.54 147.52L401.96 150.37C403.46 148.03 405.17 147.35 407.28 147.21C408 147.18 408.9 147.28 409.69 147.4L408.75 151.15C407.98 150.95 407.16 150.81 406.43 150.81C403.53 150.76 401.38 152.72 400.63 155.52L398.94 161.95L393.86 161.95C395.12 157.14 396.79 151.9 397.63 147.52Z" fill="#376355" fill-opacity="1.000000" fill-rule="evenodd"/>
		<path id="Vector" d="M383.68 153.93C384.53 153.52 387.48 153.57 389.38 153.32C391.59 153.06 394.65 151.85 394.58 150.01C394.46 148.05 392.72 147.61 391.1 147.83C387.28 148.38 384.79 150.89 383.68 153.93ZM383.21 155.18C383.11 156.03 383 156.92 383.08 157.6C383.39 160 385.49 161.11 387.74 161.19C389.61 161.23 391.89 160.11 393.13 158.72C393.37 158.45 393.64 158.54 393.79 158.75C393.92 158.91 393.87 159.27 393.76 159.38C391.81 161.32 389.8 162.41 387.02 162.44C383.85 162.46 379.88 161.25 379.4 157.97C379.33 157.58 379.33 157.14 379.38 156.68C380.01 150.59 385.57 147.3 391.03 147.01C393.64 146.87 397.41 147.55 397.19 150.37C396.98 153.35 392.48 154.39 389.55 154.46C387.09 154.53 384.05 154.52 383.21 155.18Z" fill="#376355" fill-opacity="1.000000" fill-rule="evenodd"/>
		<path id="Vector" d="M380.48 158.62L379.66 161.76C378.28 162.05 376.49 162.32 374.85 162.27C369.96 162.17 366.38 159.92 366.6 155.28C366.87 149.94 372.16 147.21 377.26 147.14C378.96 147.14 380.5 147.3 382.22 147.72L380.7 150.74C379.59 150.42 378.09 150.13 376.59 150.28C374.24 150.45 372.09 151.7 371.46 154.17C370.64 157.26 372.43 159.44 375.6 159.44C377.26 159.44 378.88 159.1 380.48 158.62Z" fill="#376355" fill-opacity="1.000000" fill-rule="evenodd"/>
		<path id="Vector" d="M359.84 147.18C363.92 147.18 367 148.12 367.29 151.51C367.4 152.82 366.93 153.98 366.57 155.36L364.86 161.98C361.6 161.98 358.94 162.05 355.99 162.29C353.26 162.29 350 161.71 350 158.23C350.05 152.54 358.87 153.06 362.61 153.06C363.41 150.78 361.55 149.87 358.94 149.87C356.57 149.87 354.62 150.54 352.71 151.17L353.38 148.1C355.24 147.5 357.63 147.18 359.84 147.18ZM362.06 155.33C360 155.33 354.18 154.84 354.18 157.99C354.18 159.56 355.83 159.79 357.2 159.79C360.83 159.79 361.39 158.53 362.06 155.33ZM407.99 159.03C407.73 159.03 407.47 159.08 407.23 159.18C406.99 159.28 406.77 159.42 406.59 159.61C406.2 160.02 405.98 160.53 405.98 161.06C405.98 161.59 406.2 162.07 406.56 162.46C406.95 162.85 407.46 163.07 407.99 163.07C408.52 163.07 409.03 162.85 409.42 162.46C409.8 162.07 410 161.59 410 161.06C410 160.5 409.8 160 409.42 159.63C409.03 159.25 408.52 159.03 407.99 159.03ZM409.8 161.06C409.8 161.54 409.61 161.98 409.27 162.32C408.93 162.65 408.47 162.84 407.99 162.85C407.75 162.85 407.52 162.8 407.3 162.71C407.08 162.62 406.88 162.48 406.71 162.32C406.37 161.98 406.18 161.52 406.18 161.06C406.18 160.58 406.37 160.12 406.71 159.75C407.05 159.41 407.51 159.22 407.99 159.22C408.47 159.22 408.93 159.42 409.27 159.78C409.61 160.12 409.8 160.55 409.8 161.06ZM408.04 159.85L407.22 159.85L407.22 162.17L407.53 162.17L407.53 161.13L408.11 161.13L408.62 162.17L408.98 162.17L408.45 161.11C408.79 161.06 409.01 160.82 409.01 160.5C409.01 160.04 408.69 159.85 408.04 159.85ZM407.99 160.07C408.45 160.07 408.69 160.19 408.69 160.48C408.69 160.84 408.47 160.94 407.99 160.94L407.53 160.94L407.53 160.07L407.99 160.07Z" fill="#376355" fill-opacity="1.000000" fill-rule="evenodd"/>
		<rect id="Rectangle 3611" x="-44.000000" y="112.000000" rx="15.000000" width="86.000000" height="86.000000" fill="#FAFAFC" fill-opacity="1.000000"/>
		<path id="Vector" d="M-25.71 153.2C-25.71 154.61 -26.39 155.57 -28.13 155.57L-28.67 155.57L-28.67 151.06C-28.48 151.05 -28.3 151.05 -28.13 151.05C-26.49 151.05 -25.71 151.83 -25.71 153.2ZM-27.49 157.53C-24.39 157.53 -22.42 155.93 -22.42 153.15C-22.42 150.09 -24.52 149 -27.94 149C-29.27 149 -30.86 149.09 -32 149.22L-32 160.14L-28.67 160.14L-28.67 157.53L-27.49 157.53ZM17.13 153.2C17.13 154.61 16.44 155.57 14.71 155.57L14.16 155.57L14.16 151.06C14.35 151.05 14.54 151.05 14.71 151.05C16.35 151.05 17.13 151.83 17.13 153.2ZM15.35 157.53C18.45 157.53 20.41 155.93 20.41 153.15C20.41 150.09 18.31 149 14.89 149C13.57 149 11.97 149.09 10.83 149.22L10.83 160.14L14.16 160.14L14.16 157.53L15.35 157.53ZM24.74 152.01C24.74 151.42 25.34 151.14 26.29 151.14C27.34 151.14 28.49 151.37 29.26 151.69L28.99 149.32C28.12 149.13 27.34 149 25.93 149C23.24 149 21.41 150.06 21.41 152.28C21.41 156.12 26.62 155.34 26.62 157.12C26.62 157.81 26.11 158.17 24.88 158.17C23.79 158.17 22.1 157.81 21.09 157.3L21.46 159.82C22.46 160.18 23.83 160.36 24.93 160.36C27.71 160.36 29.99 159.45 29.99 156.71C29.99 153.06 24.74 153.74 24.74 152.01ZM8.32 149.22L4.99 149.22L4.99 160.14L8.32 160.14L8.32 149.22ZM-5.18 149.22L-8.51 149.22L-8.51 160.14L-5.18 160.14L-5.18 149.22ZM0.61 157.94L0.61 149.22L-2.72 149.22L-2.72 160.14L3.3 160.14L3.81 157.94L0.61 157.94ZM-10.98 149.22L-14.31 149.22L-14.31 153.56L-17.77 153.56L-17.77 149.22L-21.1 149.22L-21.1 160.14L-17.77 160.14L-17.77 155.84L-14.31 155.84L-14.31 160.14L-10.98 160.14L-10.98 149.22Z" fill="#1978BE" fill-opacity="1.000000" fill-rule="nonzero"/>
		<rect id="Rectangle 3611" x="210.000000" y="112.000000" rx="15.000000" width="86.000000" height="86.000000" fill="#FAFAFC" fill-opacity="1.000000"/>
		<path id="Vector" d="M280.19 150.28C279.45 146.05 266.73 144.73 251.77 147.33C245.49 148.42 239.82 150.04 235.4 151.85C236.08 151.87 236.59 152.02 236.89 152.33C237.13 152.57 237.25 152.9 237.25 153.31L237.25 153.73L235.78 153.73L235.78 153.36C235.78 153.05 235.6 152.85 235.27 152.85C235 152.85 234.83 152.98 234.77 153.22C234.75 153.32 234.76 153.42 234.78 153.52C234.93 154.16 237.11 154.56 237.35 155.74C237.38 155.89 237.42 156.22 237.35 156.69C237.22 157.64 236.38 158.01 235.31 158.01C233.82 158.01 233.22 157.3 233.22 156.33L233.22 155.87L234.79 155.87L234.79 156.44C234.79 156.77 235.02 156.94 235.35 156.94C235.65 156.94 235.82 156.82 235.88 156.57C235.91 156.46 235.93 156.29 235.87 156.16C235.58 155.43 233.55 155.09 233.3 153.91C233.24 153.64 233.24 153.42 233.28 153.13C233.31 152.99 233.35 152.85 233.42 152.72C228.52 155.02 225.65 157.54 226.03 159.71C226.77 163.95 239.49 165.27 254.44 162.66C261.02 161.52 266.93 159.81 271.43 157.89C271.36 157.89 271.3 157.9 271.23 157.9C270.21 157.9 269.29 157.51 269.2 156.47C269.18 156.28 269.18 156.2 269.18 156.09L269.18 153.68C269.18 153.58 269.19 153.4 269.2 153.3C269.32 152.29 270.12 151.88 271.23 151.88C272.09 151.88 273.14 152.12 273.26 153.3C273.27 153.45 273.27 153.61 273.27 153.66L273.27 153.89L271.79 153.89L271.79 153.55C271.79 153.54 271.79 153.42 271.77 153.34C271.75 153.22 271.64 152.94 271.22 152.94C270.8 152.94 270.7 153.22 270.67 153.34C270.65 153.4 270.65 153.5 270.65 153.61L270.65 156.22C270.65 156.31 270.65 156.38 270.66 156.43C270.67 156.47 270.74 156.83 271.23 156.83C271.71 156.83 271.78 156.47 271.79 156.43C271.8 156.36 271.8 156.28 271.8 156.22L271.8 155.41L271.22 155.41L271.22 154.54L273.28 154.54L273.28 156.09C273.28 156.19 273.28 156.27 273.26 156.47C273.24 156.74 273.15 156.97 273.01 157.17C277.78 154.91 280.56 152.43 280.19 150.28ZM241.41 157.78L240.66 152.69L240.63 152.69L239.86 157.78L238.28 157.78L239.34 152.03L241.92 152.03L242.98 157.78L241.41 157.78ZM249.01 157.78L248.98 152.79L248.95 152.79L248.02 157.78L246.54 157.78L245.61 152.79L245.59 152.79L245.55 157.78L244.08 157.78L244.21 152.03L246.58 152.03L247.26 156.3L247.3 156.3L247.99 152.03L250.35 152.03L250.48 157.78L249.01 157.78ZM255.94 156.67C255.78 157.78 254.69 157.98 253.92 157.98C252.63 157.98 251.84 157.43 251.84 156.32L251.84 155.86L253.4 155.86L253.4 156.43C253.4 156.74 253.61 156.92 253.95 156.92C254.25 156.92 254.42 156.8 254.48 156.56C254.51 156.44 254.52 156.28 254.47 156.15C254.19 155.43 252.17 155.08 251.92 153.92C251.87 153.66 251.86 153.43 251.91 153.15C252.08 152.1 253.09 151.88 253.9 151.88C254.63 151.88 255.16 152.04 255.48 152.36C255.72 152.59 255.84 152.92 255.84 153.32L255.84 153.74L254.38 153.74L254.38 153.37C254.38 153.06 254.19 152.88 253.88 152.88C253.6 152.88 253.43 153 253.37 153.24C253.36 153.34 253.36 153.44 253.38 153.53C253.54 154.17 255.7 154.56 255.93 155.73C255.96 155.88 256.01 156.21 255.94 156.67ZM261.32 156.15C261.32 156.25 261.31 156.47 261.3 156.53C261.22 157.47 260.54 157.96 259.29 157.96C258.04 157.96 257.36 157.47 257.28 156.53C257.27 156.4 257.26 156.27 257.26 156.15L257.26 152.03L258.75 152.03L258.75 156.28C258.75 156.37 258.75 156.44 258.76 156.49C258.78 156.59 258.87 156.89 259.29 156.89C259.71 156.89 259.81 156.59 259.82 156.49C259.83 156.44 259.84 156.37 259.84 156.28L259.84 152.03L261.32 152.03L261.32 156.15ZM267.72 157.73L265.65 157.73L264.26 153.17L264.24 153.17L264.32 157.73L262.88 157.73L262.88 152.03L265.03 152.03L266.32 156.41L266.35 156.41L266.27 152.03L267.72 152.03L267.72 157.73Z" fill="#2D4F9E" fill-opacity="1.000000" fill-rule="nonzero"/>
	</g>
</svg>
