<svg width="17.187012" height="14.243286" viewBox="0 0 17.187 14.2433" fill="none" xmlns="http://www.w3.org/2000/svg" xmlns:xlink="http://www.w3.org/1999/xlink">
	<desc>
			Created with Pixso.
	</desc>
	<defs/>
	<path id="shape" d="M1.18 6.13C5.79 4.12 8.87 2.79 10.41 2.15C14.8 0.32 15.71 0.01 16.31 0C16.44 -0.01 16.73 0.03 16.92 0.18C17.08 0.31 17.13 0.48 17.15 0.61C17.17 0.73 17.2 1.01 17.17 1.23C16.94 3.73 15.91 9.81 15.38 12.61C15.16 13.79 14.72 14.19 14.3 14.23C13.38 14.32 12.68 13.62 11.79 13.04C10.4 12.13 9.61 11.56 8.26 10.67C6.7 9.64 7.71 9.07 8.6 8.15C8.83 7.91 12.88 4.22 12.96 3.89C12.97 3.85 12.98 3.69 12.89 3.61C12.8 3.53 12.66 3.55 12.56 3.58C12.42 3.61 10.2 5.08 5.89 7.99C5.25 8.42 4.68 8.63 4.17 8.62C3.6 8.61 2.52 8.3 1.71 8.04C0.72 7.72 -0.07 7.55 0 7C0.03 6.72 0.43 6.42 1.18 6.13L1.18 6.13Z" fill="#242424" fill-opacity="1.000000" fill-rule="evenodd"/>
</svg>
