<svg width="19.250732" height="15.641846" viewBox="0 0 19.2507 15.6418" fill="none" xmlns="http://www.w3.org/2000/svg" xmlns:xlink="http://www.w3.org/1999/xlink">
	<desc>
			Created with Pixso.
	</desc>
	<defs/>
	<path id="shape" d="M17.27 3.89C17.29 4.06 17.29 4.23 17.29 4.4C17.29 9.62 13.31 15.64 6.05 15.64L6.05 15.63C3.9 15.64 1.8 15.02 0 13.86C0.31 13.9 0.62 13.92 0.93 13.92C2.71 13.92 4.44 13.32 5.84 12.23C4.15 12.19 2.67 11.09 2.15 9.48C2.74 9.6 3.35 9.57 3.93 9.42C2.09 9.04 0.77 7.42 0.77 5.54L0.77 5.49C1.32 5.8 1.93 5.97 2.56 5.99C0.82 4.83 0.29 2.52 1.34 0.72C3.34 3.18 6.3 4.68 9.47 4.84C9.16 3.47 9.59 2.03 10.62 1.07C12.21 -0.43 14.71 -0.35 16.21 1.24C17.09 1.06 17.94 0.74 18.71 0.28C18.42 1.19 17.8 1.97 16.98 2.46C17.76 2.37 18.53 2.16 19.25 1.84C18.72 2.64 18.05 3.33 17.27 3.89Z" fill="#242424" fill-opacity="1.000000" fill-rule="nonzero"/>
</svg>
