<svg width="36.833008" height="36.152100" viewBox="0 0 36.833 36.1521" fill="none" xmlns="http://www.w3.org/2000/svg" xmlns:xlink="http://www.w3.org/1999/xlink">
	<desc>
			Created with Pixso.
	</desc>
	<defs/>
	<path id="Vector" d="M15.66 12.3C15.66 12.68 15.47 13.03 15.14 13.23L1.51 21.76C1.19 21.96 1 22.31 1 22.69L1 24.34C1 25.05 1.67 25.58 2.36 25.4L14.29 22.42C14.99 22.25 15.66 22.77 15.66 23.49L15.66 28.91C15.66 29.23 15.52 29.53 15.29 29.74L11.33 33.21C10.49 33.94 11.15 35.32 12.25 35.12L18.21 34.03C18.34 34.01 18.48 34.01 18.61 34.03L24.58 35.12C25.67 35.32 26.34 33.94 25.5 33.21L21.54 29.74C21.3 29.53 21.16 29.23 21.16 28.91L21.16 23.49C21.16 22.77 21.83 22.25 22.53 22.42L34.46 25.4C35.16 25.58 35.83 25.05 35.83 24.34L35.83 22.69C35.83 22.31 35.63 21.96 35.31 21.76L21.68 13.23C21.36 13.03 21.16 12.68 21.16 12.3L21.16 3.75C21.16 2.23 19.93 1 18.41 1C16.89 1 15.66 2.23 15.66 3.75L15.66 12.3Z" stroke="#242424" stroke-opacity="1.000000" stroke-width="2.000000" stroke-linejoin="round"/>
</svg>
