<svg width="39.005859" height="37.322510" viewBox="0 0 39.0059 37.3225" fill="none" xmlns="http://www.w3.org/2000/svg" xmlns:xlink="http://www.w3.org/1999/xlink">
	<desc>
			Created with Pixso.
	</desc>
	<defs/>
	<path id="Vector" d="M33.89 27.72L36.85 21.79C37.43 20.62 36.77 19.22 35.5 18.94L29.78 17.67L19.5 15.38L9.22 17.67L3.5 18.94C2.23 19.22 1.56 20.62 2.14 21.79L5.11 27.72M19.5 15.38L19.5 25.66M9.22 17.67L7.63 9.55C7.39 8.31 8.33 7.16 9.59 7.16L15.39 7.16L23.61 7.16L29.4 7.16C30.66 7.16 31.61 8.31 31.37 9.55L29.78 17.67M23.61 7.16L23.61 3C23.61 1.89 22.71 1 21.61 1L17.39 1C16.28 1 15.39 1.89 15.39 3L15.39 7.16M1 35.94L3.56 34.92C5.17 34.27 7 34.46 8.45 35.43C10.65 36.9 13.61 36.5 15.35 34.51L15.43 34.42C17.58 31.96 21.41 31.96 23.57 34.42L23.64 34.51C25.39 36.5 28.34 36.9 30.55 35.43C31.99 34.46 33.82 34.27 35.44 34.92L38 35.94" stroke="#000000" stroke-opacity="1.000000" stroke-width="2.000000" stroke-linejoin="round" stroke-linecap="round"/>
</svg>
