<svg width="29.772461" height="37.587402" viewBox="0 0 29.7725 37.5874" fill="none" xmlns="http://www.w3.org/2000/svg" xmlns:xlink="http://www.w3.org/1999/xlink">
	<desc>
			Created with Pixso.
	</desc>
	<defs/>
	<path id="Vector" d="M20.09 25.31L20.11 25.29" stroke="#242424" stroke-opacity="1.000000" stroke-width="2.000000" stroke-linejoin="round" stroke-linecap="round"/>
	<path id="Vector" d="M9.67 25.31L9.69 25.29" stroke="#242424" stroke-opacity="1.000000" stroke-width="2.000000" stroke-linejoin="round" stroke-linecap="round"/>
	<path id="Vector" d="M20.09 7.94C24.88 7.94 28.77 11.82 28.77 16.62L28.77 28.77C28.77 30.68 27.21 32.24 25.3 32.24L4.47 32.24C2.55 32.24 1 30.68 1 28.77L1 16.62C1 11.82 4.88 7.94 9.67 7.94L16.62 7.94L20.09 7.94ZM16.62 7.94L18.35 1M6.2 1L18.35 1L23.56 1" stroke="#242424" stroke-opacity="1.000000" stroke-width="2.000000" stroke-linejoin="round" stroke-linecap="round"/>
	<path id="Vector" d="M12.28 32.24L8.81 36.58" stroke="#242424" stroke-opacity="1.000000" stroke-width="2.000000" stroke-linecap="round"/>
	<path id="Vector" d="M17.49 32.24L20.96 36.58" stroke="#242424" stroke-opacity="1.000000" stroke-width="2.000000" stroke-linecap="round"/>
	<path id="Vector" d="M22.69 32.24L26.16 36.58" stroke="#242424" stroke-opacity="1.000000" stroke-width="2.000000" stroke-linecap="round"/>
	<path id="Vector" d="M7.07 32.24L3.6 36.58" stroke="#242424" stroke-opacity="1.000000" stroke-width="2.000000" stroke-linecap="round"/>
	<path id="Vector" d="M19.03 13.15C21.53 13.15 23.56 15.17 23.56 17.67C23.56 18.05 23.26 18.35 22.88 18.35L6.88 18.35C6.51 18.35 6.2 18.05 6.2 17.67C6.2 15.17 8.23 13.15 10.73 13.15L19.03 13.15Z" stroke="#242424" stroke-opacity="1.000000" stroke-width="2.000000" stroke-linejoin="round"/>
</svg>
