<svg width="38.666992" height="25.833252" viewBox="0 0 38.667 25.8333" fill="none" xmlns="http://www.w3.org/2000/svg" xmlns:xlink="http://www.w3.org/1999/xlink">
	<desc>
			Created with Pixso.
	</desc>
	<defs/>
	<path id="Vector" d="M13.83 21.16C13.83 19.14 12.19 17.5 10.16 17.5C8.14 17.5 6.5 19.14 6.5 21.16C6.5 23.19 8.14 24.83 10.16 24.83C12.19 24.83 13.83 23.19 13.83 21.16Z" stroke="#000000" stroke-opacity="1.000000" stroke-width="2.000000" stroke-linejoin="round"/>
	<path id="Vector" d="M32.16 21.16C32.16 19.14 30.52 17.5 28.5 17.5C26.47 17.5 24.83 19.14 24.83 21.16C24.83 23.19 26.47 24.83 28.5 24.83C30.52 24.83 32.16 23.19 32.16 21.16Z" stroke="#000000" stroke-opacity="1.000000" stroke-width="2.000000" stroke-linejoin="round"/>
	<path id="Vector" d="M23 21.16L23 2.1C23 1.49 22.5 1 21.9 1L2.09 1C1.49 1 1 1.49 1 2.1L1 20.06C1 20.67 1.49 21.16 2.09 21.16L5.85 21.16" stroke="#000000" stroke-opacity="1.000000" stroke-width="2.000000" stroke-linecap="round"/>
	<path id="Vector" d="M23 21.16L13.92 21.16" stroke="#000000" stroke-opacity="1.000000" stroke-width="2.000000" stroke-linecap="round"/>
	<path id="Vector" d="M23 6.5L33.28 6.5C33.71 6.5 34.11 6.75 34.29 7.15L37.57 14.53C37.63 14.67 37.66 14.82 37.66 14.98L37.66 20.06C37.66 20.67 37.17 21.16 36.56 21.16L33.08 21.16" stroke="#000000" stroke-opacity="1.000000" stroke-width="2.000000" stroke-linecap="round"/>
	<path id="Vector" d="M23 21.16L24.83 21.16" stroke="#000000" stroke-opacity="1.000000" stroke-width="2.000000" stroke-linecap="round"/>
</svg>
