<svg width="13.500000" height="13.500244" viewBox="0 0 13.5 13.5002" fill="none" xmlns="http://www.w3.org/2000/svg" xmlns:xlink="http://www.w3.org/1999/xlink">
	<desc>
			Created with Pixso.
	</desc>
	<defs/>
	<path id="Vector" d="M4.95 12.75C4.7 12.75 4.5 12.54 4.5 12.3L4.5 4.94C4.5 4.7 4.7 4.5 4.95 4.5L12.29 4.5C12.54 4.5 12.75 4.7 12.75 4.94L12.75 12.3C12.75 12.54 12.54 12.75 12.29 12.75L4.95 12.75Z" stroke="#000" stroke-opacity="1.000000" stroke-width="1.500000" stroke-linejoin="round"/>
	<path id="Vector" d="M9 4.5L9 1.19C9 0.95 8.79 0.75 8.54 0.75L1.2 0.75C0.95 0.75 0.75 0.95 0.75 1.19L0.75 8.55C0.75 8.79 0.95 9 1.2 9L4.5 9" stroke="#000" stroke-opacity="1.000000" stroke-width="1.500000" stroke-linejoin="round" stroke-linecap="round"/>
</svg>
