<svg width="17" height="17" viewBox="0 0 17 17" fill="none" xmlns="http://www.w3.org/2000/svg">
<path d="M8.36958 1.41589C4.61394 1.41589 1.56958 4.58709 1.56958 8.49922C1.56958 12.4113 4.61394 15.5826 8.36958 15.5826C9.45078 15.5826 10.5068 15.3283 11.4507 14.8303C11.7859 14.6532 11.9178 14.2268 11.7485 13.8783C11.5785 13.5291 11.1698 13.369 10.8346 13.5461C10.0798 13.9449 9.2359 14.1659 8.36958 14.1659C5.36534 14.1659 2.92958 11.6286 2.92958 8.49922C2.92958 5.3698 5.36534 2.83255 8.36958 2.83255C11.3738 2.83255 13.8096 5.3698 13.8096 8.49922V9.76077C13.8096 10.2191 13.3696 10.6242 12.7896 10.6242C12.2095 10.6242 11.7696 10.2191 11.7696 9.76077V8.49922V8.41068C11.7696 8.01968 11.4649 7.70234 11.0896 7.70234C10.7142 7.70234 10.4096 8.01968 10.4096 8.41068V8.49922C10.4096 9.67293 9.49634 10.6242 8.36958 10.6242C7.24282 10.6242 6.32958 9.67293 6.32958 8.49922C6.32958 7.32551 7.24282 6.37422 8.36958 6.37422C8.73814 6.37422 9.10058 6.47268 9.41066 6.66181C9.73434 6.86014 10.1342 6.75602 10.3246 6.41814C10.515 6.08098 10.4143 5.6425 10.0907 5.44488C9.57318 5.12825 8.98158 4.95755 8.36958 4.95755C6.4921 4.95755 4.96958 6.54351 4.96958 8.49922C4.96958 10.4549 6.4921 12.0409 8.36958 12.0409C9.33586 12.0409 10.1627 11.6294 10.787 10.9947C11.2072 11.6201 11.9464 12.0409 12.7896 12.0409C14.087 12.0409 15.1696 11.0414 15.1696 9.76077V8.49922C15.1696 4.58709 12.1252 1.41589 8.36958 1.41589Z" fill="#242424"/>
</svg>
