<svg width="17" height="17" viewBox="0 0 17 17" fill="none" xmlns="http://www.w3.org/2000/svg">
<path d="M5.07012 2.07527C3.68122 2.07527 2.02429 3.80927 2.02429 5.26277C2.02429 6.80835 3.40439 9.49647 4.92189 11.0846C5.06132 11.2298 5.45999 11.647 5.59874 11.7929C7.11624 13.381 9.68488 14.8253 11.1618 14.8253C12.5507 14.8253 14.2076 13.0913 14.2076 11.6378C14.2076 10.1843 12.5507 8.45027 11.1618 8.45027C10.8843 8.45027 10.5986 8.56573 10.0619 8.8264C10.0125 8.85048 9.5996 9.06226 9.49063 9.11468C8.73527 8.89722 7.71187 7.81134 7.48107 6.98968C7.53318 6.86926 7.7369 6.45773 7.75653 6.41381C8.01577 5.83864 8.11594 5.55673 8.11594 5.26277C8.11594 3.80927 6.45901 2.07527 5.07012 2.07527ZM5.07012 3.49193C5.71177 3.49193 6.76224 4.59127 6.76224 5.26277C6.76224 5.24506 6.67155 5.50148 6.52941 5.81598C6.51046 5.85848 6.28574 6.31394 6.23362 6.43577C6.07388 6.80977 6.05426 6.92735 6.10638 7.18872C6.39066 8.6061 8.00089 10.2997 9.3424 10.5533C9.58404 10.5986 9.6436 10.576 10.0193 10.3982C10.1248 10.3486 10.5858 10.1333 10.6331 10.1106C10.931 9.96539 11.176 9.86693 11.1618 9.86693C11.8034 9.86693 12.8539 10.9663 12.8539 11.6378C12.8539 12.3093 11.8034 13.4086 11.1618 13.4086C10.1045 13.4086 7.85941 12.1223 6.57204 10.7743C6.43261 10.6291 6.03395 10.2119 5.89519 10.066C4.60715 8.71873 3.37799 6.36918 3.37799 5.26277C3.37799 4.59127 4.42846 3.49193 5.07012 3.49193Z" fill="black"/>
</svg>
