<svg width="55" height="55" viewBox="0 0 55 55" fill="none" xmlns="http://www.w3.org/2000/svg">
<g filter="url(#filter0_d_6560_785)">
<rect x="6" width="42.7935" height="42.7935" rx="7.92471" fill="#EFEFF0"/>
<rect x="6.39624" y="0.396236" width="42.001" height="42.001" rx="7.52848" stroke="#E4E2E1" stroke-width="0.792471"/>
</g>
<path d="M17.9528 10.0383C17.1646 10.0383 16.4087 10.3514 15.8514 10.9087C15.2941 11.4661 14.981 12.2219 14.981 13.0101V16.3121C14.981 17.1002 15.2941 17.8561 15.8514 18.4134C16.4087 18.9707 17.1646 19.2838 17.9528 19.2838H21.2547C22.0429 19.2838 22.7988 18.9707 23.3561 18.4134C23.9134 17.8561 24.2265 17.1002 24.2265 16.3121V13.0101C24.2265 12.2219 23.9134 11.4661 23.3561 10.9087C22.7988 10.3514 22.0429 10.0383 21.2547 10.0383H17.9528ZM16.9622 13.0101C16.9622 12.7474 17.0666 12.4954 17.2523 12.3096C17.4381 12.1239 17.6901 12.0195 17.9528 12.0195H21.2547C21.5175 12.0195 21.7694 12.1239 21.9552 12.3096C22.141 12.4954 22.2453 12.7474 22.2453 13.0101V16.3121C22.2453 16.5748 22.141 16.8267 21.9552 17.0125C21.7694 17.1983 21.5175 17.3027 21.2547 17.3027H17.9528C17.6901 17.3027 17.4381 17.1983 17.2523 17.0125C17.0666 16.8267 16.9622 16.5748 16.9622 16.3121V13.0101ZM27.1983 11.3591C26.9356 11.3591 26.6836 11.4635 26.4978 11.6493C26.3121 11.835 26.2077 12.087 26.2077 12.3497C26.2077 12.6124 26.3121 12.8644 26.4978 13.0502C26.6836 13.2359 26.9356 13.3403 27.1983 13.3403H40.4061C40.6689 13.3403 40.9208 13.2359 41.1066 13.0502C41.2924 12.8644 41.3967 12.6124 41.3967 12.3497C41.3967 12.087 41.2924 11.835 41.1066 11.6493C40.9208 11.4635 40.6689 11.3591 40.4061 11.3591H27.1983ZM27.1983 15.3215C26.9356 15.3215 26.6836 15.4258 26.4978 15.6116C26.3121 15.7974 26.2077 16.0493 26.2077 16.3121C26.2077 16.5748 26.3121 16.8267 26.4978 17.0125C26.6836 17.1983 26.9356 17.3027 27.1983 17.3027H36.4438C36.7065 17.3027 36.9585 17.1983 37.1442 17.0125C37.33 16.8267 37.4344 16.5748 37.4344 16.3121C37.4344 16.0493 37.33 15.7974 37.1442 15.6116C36.9585 15.4258 36.7065 15.3215 36.4438 15.3215H27.1983ZM17.9528 21.9254C17.1646 21.9254 16.4087 22.2385 15.8514 22.7958C15.2941 23.3531 14.981 24.109 14.981 24.8972V28.1991C14.981 28.5894 15.0579 28.9758 15.2072 29.3364C15.3566 29.6969 15.5755 30.0245 15.8514 30.3005C16.1274 30.5764 16.455 30.7953 16.8155 30.9447C17.1761 31.094 17.5625 31.1709 17.9528 31.1709H21.2547C21.645 31.1709 22.0314 31.094 22.392 30.9447C22.7525 30.7953 23.0802 30.5764 23.3561 30.3005C23.6321 30.0245 23.851 29.6969 24.0003 29.3364C24.1497 28.9758 24.2265 28.5894 24.2265 28.1991V24.8972C24.2265 24.109 23.9134 23.3531 23.3561 22.7958C22.7988 22.2385 22.0429 21.9254 21.2547 21.9254H17.9528ZM16.9622 24.8972C16.9622 24.6344 17.0666 24.3825 17.2523 24.1967C17.4381 24.0109 17.6901 23.9066 17.9528 23.9066H21.2547C21.5175 23.9066 21.7694 24.0109 21.9552 24.1967C22.141 24.3825 22.2453 24.6344 22.2453 24.8972V28.1991C22.2453 28.4619 22.141 28.7138 21.9552 28.8996C21.7694 29.0854 21.5175 29.1897 21.2547 29.1897H17.9528C17.6901 29.1897 17.4381 29.0854 17.2523 28.8996C17.0666 28.7138 16.9622 28.4619 16.9622 28.1991V24.8972ZM27.1983 23.2462C26.9356 23.2462 26.6836 23.3506 26.4978 23.5363C26.3121 23.7221 26.2077 23.9741 26.2077 24.2368C26.2077 24.4995 26.3121 24.7515 26.4978 24.9372C26.6836 25.123 26.9356 25.2274 27.1983 25.2274H40.4061C40.6689 25.2274 40.9208 25.123 41.1066 24.9372C41.2924 24.7515 41.3967 24.4995 41.3967 24.2368C41.3967 23.9741 41.2924 23.7221 41.1066 23.5363C40.9208 23.3506 40.6689 23.2462 40.4061 23.2462H27.1983ZM27.1983 27.2085C26.9356 27.2085 26.6836 27.3129 26.4978 27.4987C26.3121 27.6845 26.2077 27.9364 26.2077 28.1991C26.2077 28.4619 26.3121 28.7138 26.4978 28.8996C26.6836 29.0854 26.9356 29.1897 27.1983 29.1897H36.4438C36.7065 29.1897 36.9585 29.0854 37.1442 28.8996C37.33 28.7138 37.4344 28.4619 37.4344 28.1991C37.4344 27.9364 37.33 27.6845 37.1442 27.4987C36.9585 27.3129 36.7065 27.2085 36.4438 27.2085H27.1983Z" fill="#DD2B11"/>
<defs>
<filter id="filter0_d_6560_785" x="0.135711" y="0" width="54.522" height="54.9975" filterUnits="userSpaceOnUse" color-interpolation-filters="sRGB">
<feFlood flood-opacity="0" result="BackgroundImageFix"/>
<feColorMatrix in="SourceAlpha" type="matrix" values="0 0 0 0 0 0 0 0 0 0 0 0 0 0 0 0 0 0 127 0" result="hardAlpha"/>
<feOffset dy="6.33977"/>
<feGaussianBlur stdDeviation="2.93214"/>
<feComposite in2="hardAlpha" operator="out"/>
<feColorMatrix type="matrix" values="0 0 0 0 0.934722 0 0 0 0 0.934722 0 0 0 0 0.934722 0 0 0 0.25 0"/>
<feBlend mode="normal" in2="BackgroundImageFix" result="effect1_dropShadow_6560_785"/>
<feBlend mode="normal" in="SourceGraphic" in2="effect1_dropShadow_6560_785" result="shape"/>
</filter>
</defs>
</svg>
