<svg width="17" height="17" viewBox="0 0 17 17" fill="none" xmlns="http://www.w3.org/2000/svg">
<path d="M6.53898 11.73C4.94032 11.73 3.58532 11.1747 2.47398 10.064C1.36332 8.95402 0.807983 7.59935 0.807983 6.00002C0.807983 4.40069 1.36332 3.04569 2.47398 1.93502C3.58465 0.824353 4.93965 0.269353 6.53898 0.27002C8.13832 0.270687 9.49298 0.82602 10.603 1.93602C11.713 3.04602 12.2683 4.40069 12.269 6.00002C12.269 6.69469 12.146 7.36702 11.9 8.01702C11.654 8.66702 11.3306 9.22302 10.93 9.68502L16.839 15.592C16.9323 15.6854 16.9823 15.8004 16.989 15.937C16.995 16.0724 16.945 16.1934 16.839 16.3C16.7323 16.4067 16.6143 16.46 16.485 16.46C16.3556 16.46 16.2376 16.4067 16.131 16.3L10.223 10.392C9.72298 10.818 9.14798 11.1477 8.49798 11.381C7.84798 11.6144 7.19465 11.731 6.53798 11.731M6.53798 10.731C7.86465 10.731 8.98498 10.2744 9.89898 9.36102C10.8123 8.44769 11.269 7.32735 11.269 6.00002C11.269 4.67269 10.8126 3.55269 9.89998 2.64002C8.98732 1.72735 7.86732 1.27069 6.53998 1.27002C5.21265 1.27002 4.09232 1.72669 3.17898 2.64002C2.26565 3.55335 1.80865 4.67335 1.80798 6.00002C1.80732 7.32669 2.26398 8.44669 3.17798 9.36002C4.09198 10.2734 5.21198 10.73 6.53798 10.73" fill="#636363"/>
</svg>
