<svg width="20" height="20" viewBox="0 0 20 20" fill="none" xmlns="http://www.w3.org/2000/svg">
<path d="M10 3.51159C13.6683 3.51159 16.6418 6.48512 16.6418 10.1534C16.6418 13.8216 13.6683 16.7952 10 16.7952C6.33175 16.7952 3.35822 13.8216 3.35822 10.1534C3.35822 6.48512 6.33175 3.51159 10 3.51159ZM10 4.83994C8.5908 4.83994 7.23931 5.39975 6.24284 6.39621C5.24638 7.39268 4.68657 8.74417 4.68657 10.1534C4.68657 11.5626 5.24638 12.9141 6.24284 13.9105C7.23931 14.907 8.5908 15.4668 10 15.4668C11.4092 15.4668 12.7607 14.907 13.7572 13.9105C14.7536 12.9141 15.3134 11.5626 15.3134 10.1534C15.3134 8.74417 14.7536 7.39268 13.7572 6.39621C12.7607 5.39975 11.4092 4.83994 10 4.83994ZM10 6.1683C10.1627 6.16833 10.3197 6.22805 10.4413 6.33615C10.5628 6.44425 10.6405 6.59321 10.6595 6.75477L10.6642 6.83248V9.87841L12.4621 11.6763C12.5812 11.7959 12.6504 11.9563 12.6556 12.1249C12.6607 12.2936 12.6015 12.4579 12.4899 12.5845C12.3783 12.711 12.2227 12.7904 12.0547 12.8064C11.8867 12.8224 11.7189 12.7738 11.5854 12.6706L11.523 12.6155L9.53044 10.623C9.42721 10.5196 9.36091 10.3852 9.34181 10.2404L9.33583 10.1534V6.83248C9.33583 6.65633 9.40581 6.4874 9.53037 6.36284C9.65492 6.23828 9.82386 6.1683 10 6.1683Z" fill="black"/>
</svg>
