<svg width="28" height="28" viewBox="0 0 28 28" fill="none" xmlns="http://www.w3.org/2000/svg">
<path d="M3.5 14H14V15.75H3.5V14ZM1.75 9.625H10.5V11.375H1.75V9.625Z" fill="#636363"/>
<path d="M26.1792 14.5303L23.5542 8.40525C23.4867 8.24789 23.3746 8.11377 23.2316 8.01952C23.0887 7.92527 22.9213 7.87502 22.75 7.875H20.125V6.125C20.125 5.89294 20.0329 5.67038 19.8688 5.50628C19.7047 5.34219 19.4821 5.25 19.25 5.25H5.25005V7H18.375V17.9865C17.9766 18.2183 17.6278 18.5266 17.3488 18.8936C17.0698 19.2606 16.8661 19.679 16.7493 20.125H11.2508C11.0378 19.3002 10.5313 18.5813 9.82629 18.1032C9.12124 17.6251 8.26601 17.4206 7.42092 17.5279C6.57584 17.6352 5.79891 18.0471 5.23577 18.6863C4.67263 19.3255 4.36194 20.1481 4.36194 21C4.36194 21.8519 4.67263 22.6745 5.23577 23.3137C5.79891 23.9529 6.57584 24.3648 7.42092 24.4721C8.26601 24.5794 9.12124 24.3749 9.82629 23.8968C10.5313 23.4187 11.0378 22.6998 11.2508 21.875H16.7493C16.9396 22.626 17.375 23.292 17.9864 23.7678C18.5978 24.2435 19.3503 24.5019 20.125 24.5019C20.8998 24.5019 21.6523 24.2435 22.2637 23.7678C22.8751 23.292 23.3105 22.626 23.5008 21.875H25.375C25.6071 21.875 25.8297 21.7828 25.9938 21.6187C26.1579 21.4546 26.25 21.2321 26.25 21V14.875C26.25 14.7565 26.2259 14.6392 26.1792 14.5303ZM7.87505 22.75C7.52893 22.75 7.19059 22.6474 6.9028 22.4551C6.61502 22.2628 6.39071 21.9895 6.25826 21.6697C6.12581 21.3499 6.09115 20.9981 6.15867 20.6586C6.2262 20.3191 6.39287 20.0073 6.63761 19.7626C6.88235 19.5178 7.19417 19.3512 7.53364 19.2836C7.87311 19.2161 8.22497 19.2508 8.54474 19.3832C8.86452 19.5157 9.13783 19.74 9.33012 20.0278C9.52241 20.3155 9.62505 20.6539 9.62505 21C9.62505 21.4641 9.44067 21.9092 9.11249 22.2374C8.7843 22.5656 8.33918 22.75 7.87505 22.75ZM20.125 9.625H22.1726L24.0485 14H20.125V9.625ZM20.125 22.75C19.7789 22.75 19.4406 22.6474 19.1528 22.4551C18.865 22.2628 18.6407 21.9895 18.5083 21.6697C18.3758 21.3499 18.3412 20.9981 18.4087 20.6586C18.4762 20.3191 18.6429 20.0073 18.8876 19.7626C19.1324 19.5178 19.4442 19.3512 19.7836 19.2836C20.1231 19.2161 20.475 19.2508 20.7947 19.3832C21.1145 19.5157 21.3878 19.74 21.5801 20.0278C21.7724 20.3155 21.875 20.6539 21.875 21C21.875 21.4641 21.6907 21.9092 21.3625 22.2374C21.0343 22.5656 20.5892 22.75 20.125 22.75ZM24.5 20.125H23.5008C23.3081 19.3755 22.8721 18.7112 22.2611 18.2361C21.6502 17.7611 20.8989 17.5022 20.125 17.5V15.75H24.5V20.125Z" fill="#636363"/>
</svg>
