<svg width="30.006836" height="30.007568" viewBox="0 0 30.0068 30.0076" fill="none" xmlns="http://www.w3.org/2000/svg" xmlns:xlink="http://www.w3.org/1999/xlink">
	<desc>
			Created with Pixso.
	</desc>
	<defs/>
	<path id="Vector" d="M12.26 20.96L8.64 17.35L12.74 9.52C13.91 7.29 16.1 5.77 18.6 5.47L23.94 4.81C24.44 4.75 24.86 5.17 24.8 5.66L24.14 11C23.83 13.5 22.32 15.69 20.09 16.86L12.26 20.96Z" stroke="#242424" stroke-opacity="1.000000" stroke-width="2.000000" stroke-linejoin="round"/>
	<path id="Vector" d="M5.93 20.06C4.12 21.87 5.03 24.58 5.03 24.58C5.03 24.58 7.74 25.48 9.55 23.67" stroke="#242424" stroke-opacity="1.000000" stroke-width="2.000000" stroke-linejoin="round" stroke-linecap="round"/>
	<path id="Vector" d="M11.36 11.92C5.93 11.02 4.12 16.44 4.12 16.44L8.64 17.35" stroke="#242424" stroke-opacity="1.000000" stroke-width="2.000000" stroke-linejoin="round" stroke-linecap="round"/>
	<path id="Vector" d="M18.08 18.64C18.98 24.06 13.55 25.87 13.55 25.87L12.65 21.35" stroke="#242424" stroke-opacity="1.000000" stroke-width="2.000000" stroke-linejoin="round" stroke-linecap="round"/>
	<path id="Vector" d="M15.88 10.11C16.87 9.12 18.49 9.12 19.49 10.11C20.49 11.11 20.49 12.73 19.49 13.73C18.49 14.73 16.87 14.73 15.88 13.73C14.88 12.73 14.88 11.11 15.88 10.11Z" stroke="#242424" stroke-opacity="1.000000" stroke-width="2.000000" stroke-linejoin="round"/>
</svg>
