<svg width="23.000000" height="18.333496" viewBox="0 0 23 18.3335" fill="none" xmlns="http://www.w3.org/2000/svg" xmlns:xlink="http://www.w3.org/1999/xlink">
	<desc>
			Created with Pixso.
	</desc>
	<defs/>
	<path id="Vector" d="M8 17.33L8 9.75L8 5.19C8 4.81 8.31 4.5 8.7 4.5L14.29 4.5C14.68 4.5 15 4.81 15 5.19L15 12.08L15 17.33L8 17.33Z" stroke="#000000" stroke-opacity="1.000000" stroke-width="2.000000" stroke-linejoin="round"/>
	<path id="Vector" d="M15 1L8 1" stroke="#000000" stroke-opacity="1.000000" stroke-width="2.000000" stroke-linejoin="round" stroke-linecap="round"/>
	<path id="Vector" d="M15 17.33L15 12.78C15 12.39 15.31 12.08 15.7 12.08L21.29 12.08C21.68 12.08 22 12.39 22 12.78L22 16.63C22 17.02 21.68 17.33 21.29 17.33L15 17.33Z" stroke="#000000" stroke-opacity="1.000000" stroke-width="2.000000" stroke-linejoin="round"/>
	<path id="Vector" d="M8 10.45C8 10.06 7.68 9.75 7.29 9.75L1.7 9.75C1.31 9.75 1 10.06 1 10.45L1 16.63C1 17.02 1.31 17.33 1.7 17.33L8 17.33L8 10.45Z" stroke="#000000" stroke-opacity="1.000000" stroke-width="2.000000" stroke-linejoin="round"/>
</svg>
