<svg width="22.000000" height="22.000000" viewBox="0 0 22 22" fill="none" xmlns="http://www.w3.org/2000/svg" xmlns:xlink="http://www.w3.org/1999/xlink">
	<desc>
			Created with Pixso.
	</desc>
	<defs/>
	<path id="Vector" d="M7.33 1.84C5.3 1.84 3.66 3.48 3.66 5.51L3.66 16.51C3.66 18.53 5.3 20.17 7.33 20.17L14.66 20.17C16.69 20.17 18.33 18.53 18.33 16.51L18.33 5.51C18.33 3.48 16.69 1.84 14.66 1.84L7.33 1.84ZM7.33 3.67L14.66 3.67C15.67 3.67 16.49 4.5 16.49 5.51L16.49 16.51C16.49 17.52 15.67 18.34 14.66 18.34L7.33 18.34C6.31 18.34 5.49 17.52 5.49 16.51L5.49 5.51C5.49 4.5 6.31 3.67 7.33 3.67ZM8.24 5.51C7.74 5.51 7.33 5.92 7.33 6.42L7.33 7.34C7.33 7.85 7.74 8.26 8.24 8.26L13.74 8.26C14.25 8.26 14.66 7.85 14.66 7.34L14.66 6.42C14.66 5.92 14.25 5.51 13.74 5.51L8.24 5.51ZM8.24 9.17C7.74 9.17 7.33 9.59 7.33 10.09C7.33 10.6 7.74 11.01 8.24 11.01C8.75 11.01 9.16 10.6 9.16 10.09C9.16 9.59 8.75 9.17 8.24 9.17ZM10.99 9.17C10.49 9.17 10.08 9.59 10.08 10.09C10.08 10.6 10.49 11.01 10.99 11.01C11.5 11.01 11.91 10.6 11.91 10.09C11.91 9.59 11.5 9.17 10.99 9.17ZM13.74 9.17C13.24 9.17 12.83 9.59 12.83 10.09C12.83 10.6 13.24 11.01 13.74 11.01C14.25 11.01 14.66 10.6 14.66 10.09C14.66 9.59 14.25 9.17 13.74 9.17ZM8.24 11.92C7.74 11.92 7.33 12.34 7.33 12.84C7.33 13.35 7.74 13.76 8.24 13.76C8.75 13.76 9.16 13.35 9.16 12.84C9.16 12.34 8.75 11.92 8.24 11.92ZM10.99 11.92C10.49 11.92 10.08 12.34 10.08 12.84C10.08 13.35 10.49 13.76 10.99 13.76C11.5 13.76 11.91 13.35 11.91 12.84C11.91 12.34 11.5 11.92 10.99 11.92ZM13.74 11.92C13.24 11.92 12.83 12.34 12.83 12.84L12.83 15.59C12.83 16.1 13.24 16.51 13.74 16.51C14.25 16.51 14.66 16.1 14.66 15.59L14.66 12.84C14.66 12.34 14.25 11.92 13.74 11.92ZM8.24 14.67C7.74 14.67 7.33 15.09 7.33 15.59C7.33 16.1 7.74 16.51 8.24 16.51C8.75 16.51 9.16 16.1 9.16 15.59C9.16 15.09 8.75 14.67 8.24 14.67ZM10.99 14.67C10.49 14.67 10.08 15.09 10.08 15.59C10.08 16.1 10.49 16.51 10.99 16.51C11.5 16.51 11.91 16.1 11.91 15.59C11.91 15.09 11.5 14.67 10.99 14.67Z" fill="#FFFFFF" fill-opacity="1.000000" fill-rule="nonzero"/>
</svg>
