<svg width="412.000000" height="268.000000" viewBox="0 0 412 268" fill="none" xmlns="http://www.w3.org/2000/svg" xmlns:xlink="http://www.w3.org/1999/xlink">
	<desc>
			Created with Pixso.
	</desc>
	<defs/>
	<mask id="mask6308_3076" mask-type="alpha" maskUnits="userSpaceOnUse" x="0.000000" y="0.000000" width="412.000000" height="268.000000">
		<rect id="Rectangle 3767" rx="9.000000" width="412.000000" height="268.000000" fill="#E7E7E7" fill-opacity="1.000000"/>
		<rect id="Rectangle 3767" x="0.500000" y="0.500000" rx="9.000000" width="411.000000" height="267.000000" stroke="#D9D9D9" stroke-opacity="1.000000" stroke-width="1.000000"/>
	</mask>
	<g mask="url(#mask6308_3076)">
		<path id="Vector" d="M-296 462L169.23 157.66C171.18 156.38 173.47 155.7 175.8 155.7L235.19 155.7C237.52 155.7 239.81 156.38 241.76 157.66L707 462M-296 462L-296 -194L707 -194L707 462L-296 462ZM620.7 413.76C627.33 413.76 632.7 408.39 632.7 401.76L632.7 -131.36C632.7 -137.98 627.33 -143.36 620.7 -143.36L-209.71 -143.36C-216.34 -143.36 -221.71 -137.98 -221.71 -131.36L-221.71 401.76C-221.71 408.39 -216.34 413.76 -209.71 413.76L620.7 413.76ZM566.21 377.58C572.84 377.58 578.21 372.21 578.21 365.58L578.21 -97.59C578.21 -104.22 572.84 -109.59 566.21 -109.59L-155.22 -109.59C-161.85 -109.59 -167.22 -104.22 -167.22 -97.59L-167.22 365.58C-167.22 372.21 -161.85 377.58 -155.22 377.58L566.21 377.58ZM521.64 351.05C528.27 351.05 533.64 345.68 533.64 339.05L533.64 -68.65C533.64 -75.28 528.27 -80.65 521.64 -80.65L-110.65 -80.65C-117.27 -80.65 -122.65 -75.28 -122.65 -68.65L-122.65 339.05C-122.65 345.68 -117.27 351.05 -110.65 351.05L521.64 351.05ZM489.44 326.94C496.07 326.94 501.44 321.56 501.44 314.94L501.44 -46.95C501.44 -53.57 496.07 -58.95 489.44 -58.95L-78.45 -58.95C-85.08 -58.95 -90.45 -53.57 -90.45 -46.95L-90.45 314.94C-90.45 321.56 -85.08 326.94 -78.45 326.94L489.44 326.94ZM462.2 310.05C468.83 310.05 474.2 304.68 474.2 298.05L474.2 -27.65C474.2 -34.28 468.83 -39.65 462.2 -39.65L-51.21 -39.65C-57.84 -39.65 -63.21 -34.28 -63.21 -27.65L-63.21 298.05C-63.21 304.68 -57.84 310.05 -51.21 310.05L462.2 310.05ZM437.43 295.58C444.06 295.58 449.43 290.21 449.43 283.58L449.43 -13.18C449.43 -19.81 444.06 -25.18 437.43 -25.18L-26.44 -25.18C-33.07 -25.18 -38.44 -19.81 -38.44 -13.18L-38.44 283.58C-38.44 290.21 -33.07 295.58 -26.44 295.58L437.43 295.58ZM420.1 283.52C426.73 283.52 432.1 278.15 432.1 271.52L432.1 -1.12C432.1 -7.75 426.73 -13.12 420.1 -13.12L-9.11 -13.12C-15.74 -13.12 -21.11 -7.75 -21.11 -1.12L-21.11 271.52C-21.11 278.15 -15.74 283.52 -9.11 283.52L420.1 283.52ZM402.76 271.47C409.39 271.47 414.76 266.09 414.76 259.47L414.76 8.52C414.76 1.9 409.39 -3.48 402.76 -3.48L8.23 -3.48C1.6 -3.48 -3.77 1.9 -3.77 8.52L-3.77 259.47C-3.77 266.09 1.6 271.47 8.23 271.47L402.76 271.47ZM390.38 261.82C397.01 261.82 402.38 256.45 402.38 249.82L402.38 18.17C402.38 11.54 397.01 6.17 390.38 6.17L20.61 6.17C13.98 6.17 8.61 11.54 8.61 18.17L8.61 249.82C8.61 256.45 13.98 261.82 20.61 261.82L390.38 261.82ZM378 254.58C384.63 254.58 390 249.21 390 242.58L390 27.82C390 21.19 384.63 15.82 378 15.82L32.99 15.82C26.37 15.82 20.99 21.19 20.99 27.82L20.99 242.58C20.99 249.21 26.37 254.58 32.99 254.58L378 254.58ZM365.62 247.35C372.24 247.35 377.62 241.98 377.62 235.35L377.62 35.05C377.62 28.43 372.24 23.05 365.62 23.05L45.38 23.05C38.75 23.05 33.38 28.43 33.38 35.05L33.38 235.35C33.38 241.98 38.75 247.35 45.38 247.35L365.62 247.35ZM355.71 240.11C362.34 240.11 367.71 234.74 367.71 228.11L367.71 39.88C367.71 33.25 362.34 27.88 355.71 27.88L55.28 27.88C48.65 27.88 43.28 33.25 43.28 39.88L43.28 228.11C43.28 234.74 48.65 240.11 55.28 240.11L355.71 240.11ZM348.28 235.29C354.91 235.29 360.28 229.92 360.28 223.29L360.28 47.11C360.28 40.49 354.91 35.11 348.28 35.11L62.71 35.11C56.08 35.11 50.71 40.49 50.71 47.11L50.71 223.29C50.71 229.92 56.08 235.29 62.71 235.29L348.28 235.29ZM338.37 230.47C345 230.47 350.37 225.09 350.37 218.47L350.37 51.94C350.37 45.31 345 39.94 338.37 39.94L72.62 39.94C65.99 39.94 60.62 45.31 60.62 51.94L60.62 218.47C60.62 225.09 65.99 230.47 72.62 230.47L338.37 230.47ZM330.94 225.64C337.57 225.64 342.94 220.27 342.94 213.64L342.94 56.76C342.94 50.13 337.57 44.76 330.94 44.76L80.05 44.76C73.42 44.76 68.05 50.13 68.05 56.76L68.05 213.64C68.05 220.27 73.42 225.64 80.05 225.64L330.94 225.64ZM325.99 220.82C332.62 220.82 337.99 215.45 337.99 208.82L337.99 59.17C337.99 52.54 332.62 47.17 325.99 47.17L85 47.17C78.37 47.17 73 52.54 73 59.17L73 208.82C73 215.45 78.37 220.82 85 220.82L325.99 220.82ZM321.04 218.41C327.67 218.41 333.04 213.03 333.04 206.41L333.04 64C333.04 57.37 327.67 52 321.04 52L89.95 52C83.33 52 77.95 57.37 77.95 64L77.95 206.41C77.95 213.03 83.33 218.41 89.95 218.41L321.04 218.41ZM313.61 213.58C320.24 213.58 325.61 208.21 325.61 201.58L325.61 66.41C325.61 59.78 320.24 54.41 313.61 54.41L97.38 54.41C90.76 54.41 85.38 59.78 85.38 66.41L85.38 201.58C85.38 208.21 90.76 213.58 97.38 213.58L313.61 213.58ZM308.65 211.17C315.28 211.17 320.65 205.8 320.65 199.17L320.65 71.23C320.65 64.6 315.28 59.23 308.65 59.23L102.34 59.23C95.71 59.23 90.34 64.6 90.34 71.23L90.34 199.17C90.34 205.8 95.71 211.17 102.34 211.17L308.65 211.17ZM306.18 208.76C312.81 208.76 318.18 203.39 318.18 196.76L318.18 73.64C318.18 67.01 312.81 61.64 306.18 61.64L104.81 61.64C98.18 61.64 92.81 67.01 92.81 73.64L92.81 196.76C92.81 203.39 98.18 208.76 104.81 208.76L306.18 208.76ZM301.22 203.94C307.85 203.94 313.22 198.56 313.22 191.94L313.22 76.05C313.22 69.43 307.85 64.05 301.22 64.05L109.77 64.05C103.14 64.05 97.77 69.43 97.77 76.05L97.77 191.94C97.77 198.56 103.14 203.94 109.77 203.94L301.22 203.94ZM296.27 201.52C302.9 201.52 308.27 196.15 308.27 189.52L308.27 78.47C308.27 71.84 302.9 66.47 296.27 66.47L114.72 66.47C108.09 66.47 102.72 71.84 102.72 78.47L102.72 189.52C102.72 196.15 108.09 201.52 114.72 201.52L296.27 201.52ZM293.79 199.11C300.42 199.11 305.79 193.74 305.79 187.11L305.79 80.88C305.79 74.25 300.42 68.88 293.79 68.88L117.2 68.88C110.57 68.88 105.2 74.25 105.2 80.88L105.2 187.11C105.2 193.74 110.57 199.11 117.2 199.11L293.79 199.11ZM291.32 196.7C297.95 196.7 303.32 191.33 303.32 184.7L303.32 83.29C303.32 76.66 297.95 71.29 291.32 71.29L119.67 71.29C113.04 71.29 107.67 76.66 107.67 83.29L107.67 184.7C107.67 191.33 113.04 196.7 119.67 196.7L291.32 196.7ZM286.37 196.7C292.99 196.7 298.37 191.33 298.37 184.7L298.37 85.7C298.37 79.07 292.99 73.7 286.37 73.7L124.63 73.7C118 73.7 112.63 79.07 112.63 85.7L112.63 184.7C112.63 191.33 118 196.7 124.63 196.7L286.37 196.7ZM283.89 194.29C290.52 194.29 295.89 188.92 295.89 182.29L295.89 88.11C295.89 81.49 290.52 76.11 283.89 76.11L127.1 76.11C120.47 76.11 115.1 81.49 115.1 88.11L115.1 182.29C115.1 188.92 120.47 194.29 127.1 194.29L283.89 194.29ZM281.41 191.88C288.04 191.88 293.41 186.51 293.41 179.88L293.41 88.11C293.41 81.49 288.04 76.11 281.41 76.11L129.58 76.11C122.95 76.11 117.58 81.49 117.58 88.11L117.58 179.88C117.58 186.51 122.95 191.88 129.58 191.88L281.41 191.88ZM278.94 189.47C285.56 189.47 290.94 184.09 290.94 177.47L290.94 90.52C290.94 83.9 285.56 78.52 278.94 78.52L132.05 78.52C125.43 78.52 120.05 83.9 120.05 90.52L120.05 177.47C120.05 184.09 125.43 189.47 132.05 189.47L278.94 189.47ZM276.46 189.47C283.09 189.47 288.46 184.09 288.46 177.47L288.46 92.94C288.46 86.31 283.09 80.94 276.46 80.94L134.53 80.94C127.9 80.94 122.53 86.31 122.53 92.94L122.53 177.47C122.53 184.09 127.9 189.47 134.53 189.47L276.46 189.47ZM273.98 187.05C280.61 187.05 285.98 181.68 285.98 175.05L285.98 92.94C285.98 86.31 280.61 80.94 273.98 80.94L137.01 80.94C130.38 80.94 125.01 86.31 125.01 92.94L125.01 175.05C125.01 181.68 130.38 187.05 137.01 187.05L273.98 187.05ZM273.98 184.64C280.61 184.64 285.98 179.27 285.98 172.64L285.98 95.35C285.98 88.72 280.61 83.35 273.98 83.35L137.01 83.35C130.38 83.35 125.01 88.72 125.01 95.35L125.01 172.64C125.01 179.27 130.38 184.64 137.01 184.64L273.98 184.64ZM269.03 184.64C275.66 184.64 281.03 179.27 281.03 172.64L281.03 97.76C281.03 91.13 275.66 85.76 269.03 85.76L141.96 85.76C135.33 85.76 129.96 91.13 129.96 97.76L129.96 172.64C129.96 179.27 135.33 184.64 141.96 184.64L269.03 184.64ZM278.55 182.23L278.55 97.76C278.55 91.13 273.18 85.76 266.55 85.76L144.44 85.76C137.81 85.76 132.44 91.13 132.44 97.76L132.44 182.23L278.55 182.23ZM264.08 179.82C270.7 179.82 276.08 174.45 276.08 167.82L276.08 100.17C276.08 93.54 270.7 88.17 264.08 88.17L146.91 88.17C140.29 88.17 134.91 93.54 134.91 100.17L134.91 167.82C134.91 174.45 140.29 179.82 146.91 179.82L264.08 179.82ZM261.6 179.82C268.23 179.82 273.6 174.45 273.6 167.82L273.6 102.58C273.6 95.96 268.23 90.58 261.6 90.58L149.39 90.58C142.76 90.58 137.39 95.96 137.39 102.58L137.39 167.82C137.39 174.45 142.76 179.82 149.39 179.82L261.6 179.82ZM259.12 177.41C265.75 177.41 271.12 172.03 271.12 165.41L271.12 102.58C271.12 95.96 265.75 90.58 259.12 90.58L151.87 90.58C145.24 90.58 139.87 95.96 139.87 102.58L139.87 165.41C139.87 172.03 145.24 177.41 151.87 177.41L259.12 177.41ZM256.65 177.41C263.27 177.41 268.65 172.03 268.65 165.41L268.65 93L142.34 93L142.34 165.41C142.34 172.03 147.72 177.41 154.34 177.41L256.65 177.41ZM142.34 93L142.34 175L268.65 175L268.65 93M254.17 175C260.8 175 266.17 169.62 266.17 163L266.17 107.41C266.17 100.78 260.8 95.41 254.17 95.41L156.82 95.41C150.19 95.41 144.82 100.78 144.82 107.41L144.82 163C144.82 169.62 150.19 175 156.82 175L254.17 175ZM263.69 172.58L263.69 107.41C263.69 100.78 258.32 95.41 251.69 95.41L159.3 95.41C152.67 95.41 147.3 100.78 147.3 107.41L147.3 172.58L263.69 172.58ZM249.22 172.58C255.85 172.58 261.22 167.21 261.22 160.58L261.22 97.82L149.77 97.82L149.77 160.58C149.77 167.21 155.14 172.58 161.77 172.58L249.22 172.58ZM149.77 97.82L149.77 158.17C149.77 164.8 155.14 170.17 161.77 170.17L249.22 170.17C255.85 170.17 261.22 164.8 261.22 158.17L261.22 97.82M246.74 170.17C253.37 170.17 258.74 164.8 258.74 158.17L258.74 100.23L152.25 100.23L152.25 158.17C152.25 164.8 157.62 170.17 164.25 170.17L246.74 170.17ZM152.25 100.23L152.25 155.76C152.25 162.39 157.62 167.76 164.25 167.76L246.74 167.76C253.37 167.76 258.74 162.39 258.74 155.76L258.74 100.23M256.26 167.76L256.26 112.23C256.26 105.6 250.89 100.23 244.26 100.23L166.73 100.23C160.1 100.23 154.73 105.6 154.73 112.23L154.73 167.76L256.26 167.76ZM241.79 165.35C248.42 165.35 253.79 159.98 253.79 153.35L253.79 114.64C253.79 108.02 248.42 102.64 241.79 102.64L169.2 102.64C162.58 102.64 157.2 108.02 157.2 114.64L157.2 153.35C157.2 159.98 162.58 165.35 169.2 165.35L241.79 165.35ZM239.31 165.35C245.94 165.35 251.31 159.98 251.31 153.35L251.31 117.05C251.31 110.43 245.94 105.05 239.31 105.05L171.68 105.05C165.05 105.05 159.68 110.43 159.68 117.05L159.68 153.35C159.68 159.98 165.05 165.35 171.68 165.35L239.31 165.35ZM248.83 162.94L248.83 117.05C248.83 110.43 243.46 105.05 236.83 105.05L174.16 105.05C167.53 105.05 162.16 110.43 162.16 117.05L162.16 162.94L248.83 162.94ZM234.36 160.52C240.99 160.52 246.36 155.15 246.36 148.52L246.36 119.47C246.36 112.84 240.99 107.47 234.36 107.47L176.63 107.47C170.01 107.47 164.63 112.84 164.63 119.47L164.63 148.52C164.63 155.15 170.01 160.52 176.63 160.52L234.36 160.52ZM243.88 160.52L243.88 119.47C243.88 112.84 238.51 107.47 231.88 107.47L179.11 107.47C172.48 107.47 167.11 112.84 167.11 119.47L167.11 160.52L243.88 160.52ZM167.11 109.88L167.11 146.11C167.11 152.74 172.48 158.11 179.11 158.11L243.88 158.11L243.88 109.88M243.88 109.88L169.59 109.88L169.59 158.11L243.88 158.11M169.59 158.11L241.41 158.11L241.41 121.88C241.41 115.25 236.03 109.88 229.41 109.88L169.59 109.88M241.41 112.29L172.06 112.29L172.06 158.11L241.41 158.11M172.06 158.11L226.93 158.11C233.56 158.11 238.93 152.74 238.93 146.11L238.93 112.29L172.06 112.29M172.06 112.29L172.06 143.7C172.06 150.33 177.43 155.7 184.06 155.7L226.93 155.7C233.56 155.7 238.93 150.33 238.93 143.7L238.93 112.29M236.45 155.7L659.94 462M231.5 155.7L610.41 462M229.02 155.7L563.36 462M226.55 155.7L516.3 462M221.59 155.7L469.25 462M219.12 155.7L419.72 462M216.64 155.7L372.66 462M214.16 155.7L325.61 462M209.21 155.7L278.55 462M206.73 155.7L229.02 462M204.26 155.7L181.97 462M201.78 155.7L132.44 462M196.83 155.7L85.38 462M194.35 155.7L38.33 462M191.87 155.7L-8.73 462M189.4 155.7L-58.26 462M184.44 155.7L-105.31 462M181.97 155.7L-152.36 462M179.49 155.7L-199.42 462M174.54 155.7L-248.95 462M-296 -194L166.63 108.68C170.02 110.9 172.06 114.67 172.06 118.72L172.06 149.27C172.06 153.32 170.02 157.1 166.63 159.31L-296 462M278.55 182.23L278.55 100.17C278.55 93.54 273.18 88.17 266.55 88.17L144.44 88.17C137.81 88.17 132.44 93.54 132.44 100.17L132.44 182.23M268.65 175L268.65 107.41C268.65 100.78 263.27 95.41 256.65 95.41L154.34 95.41C147.72 95.41 142.34 100.78 142.34 107.41L142.34 175M263.69 172.58L263.69 109.82C263.69 103.19 258.32 97.82 251.69 97.82L159.3 97.82C152.67 97.82 147.3 103.19 147.3 109.82L147.3 172.58M256.26 167.76L256.26 114.64C256.26 108.02 250.89 102.64 244.26 102.64L166.73 102.64C160.1 102.64 154.73 108.02 154.73 114.64L154.73 167.76M248.83 162.94L248.83 119.47C248.83 112.84 243.46 107.47 236.83 107.47L174.16 107.47C167.53 107.47 162.16 112.84 162.16 119.47L162.16 162.94M243.88 160.52L243.88 109.88L167.11 109.88L167.11 160.52M241.41 158.11L241.41 112.29L181.59 112.29C174.96 112.29 169.59 117.66 169.59 124.29L169.59 158.11M-296 399.29L172.06 153.29L-296 430.64M172.06 150.88L-296 367.94M172.06 148.47L-296 336.58M172.06 146.05L-296 305.23M172.06 143.64L-296 273.88M172.06 141.23L-296 244.94M-296 182.23L172.06 138.82L-296 213.58M172.06 136.41L-296 150.88M172.06 134L-296 119.52M172.06 131.58L-296 88.17M172.06 129.17L-296 56.82M172.06 126.76L-296 25.47M-296 -37.24L172.06 124.35L-296 -5.89M172.06 121.94L-296 -68.59M172.06 119.52L-296 -99.95M172.06 117.11L-296 -131.3M172.06 114.7L-296 -162.65M707 -194L241.76 110.33C239.81 111.61 237.52 112.29 235.19 112.29L175.8 112.29C173.47 112.29 171.18 111.61 169.23 110.33L-296 -194M174.54 112.29L-248.95 -194M179.49 112.29L-199.42 -194M181.97 112.29L-152.36 -194M184.44 112.29L-105.31 -194M189.4 112.29L-58.26 -194M191.87 112.29L-8.73 -194M194.35 112.29L38.33 -194M196.83 112.29L85.38 -194M201.78 112.29L132.44 -194M204.26 112.29L181.97 -194M206.73 112.29L229.02 -194M209.21 112.29L278.55 -194M214.16 112.29L325.61 -194M216.64 112.29L372.66 -194M219.12 112.29L419.72 -194M221.59 112.29L469.25 -194M226.55 112.29L516.3 -194M229.02 112.29L563.36 -194M231.5 112.29L610.41 -194M236.45 112.29L659.94 -194M707 462L244.36 159.31C240.97 157.1 238.93 153.32 238.93 149.27L238.93 118.72C238.93 114.67 240.97 110.9 244.36 108.68L707 -194M238.93 114.7L707 -162.65M238.93 117.11L707 -131.3M238.93 119.52L707 -99.95M238.93 121.94L707 -68.59M707 -5.89L238.93 124.35L707 -37.24M238.93 126.76L707 25.47M238.93 129.17L707 56.82M238.93 131.58L707 88.17M238.93 134L707 119.52M238.93 136.41L707 150.88M707 213.58L238.93 138.82L707 182.23M238.93 141.23L707 244.94M238.93 143.64L707 273.88M238.93 146.05L707 305.23M238.93 148.47L707 336.58M238.93 150.88L707 367.94M707 430.64L238.93 153.29L707 399.29" stroke="#D9D9D9" stroke-opacity="1.000000" stroke-width="0.250000" stroke-linejoin="round" stroke-linecap="round"/>
	</g>
</svg>
