<svg width="44.444336" height="44.444336" viewBox="0 0 44.4443 44.4443" fill="none" xmlns="http://www.w3.org/2000/svg" xmlns:xlink="http://www.w3.org/1999/xlink">
	<desc>
			Created with Pixso.
	</desc>
	<defs>
		<clipPath id="clip6382_2714">
			<rect id="Bitcoin Symbol" rx="8.934545" width="44.313530" height="44.313530" transform="translate(0.065456 0.065456)" fill="white" fill-opacity="0"/>
		</clipPath>
	</defs>
	<rect id="Bitcoin Symbol" rx="8.934545" width="44.313530" height="44.313530" transform="translate(0.065456 0.065456)" fill="#F7931A" fill-opacity="1.000000"/>
	<g clip-path="url(#clip6382_2714)">
		<path id="Bitcoin Symbol" d="M31.96 19.6C32.36 16.64 30.1 15.09 27.01 14.04L27.97 10.03L25.53 9.44L24.6 13.36C23.95 13.21 23.29 13.06 22.65 12.93L23.58 9L21.1 8.41L20.14 12.43C19.62 12.3 19.09 12.21 18.57 12.08L15.2 11.28L14.58 13.87C14.58 13.87 16.41 14.27 16.34 14.31C17.33 14.56 17.52 15.2 17.48 15.7L16.4 20.27C16.46 20.3 16.55 20.3 16.65 20.37C16.55 20.34 16.49 20.34 16.4 20.31L14.91 26.71C14.79 27.02 14.48 27.45 13.8 27.3C13.83 27.33 12.01 26.86 12.01 26.86L10.85 29.68L14.04 30.42C14.62 30.57 15.21 30.7 15.77 30.86L14.81 34.91L17.25 35.5L18.21 31.48C18.89 31.66 19.54 31.82 20.16 31.98L19.2 35.96L21.64 36.55L22.6 32.5C26.78 33.24 29.9 32.9 31.16 29.1C32.18 26.06 31.07 24.33 28.84 23.19C30.47 22.82 31.65 21.76 31.96 19.6ZM26.46 27.48C25.74 30.51 20.62 28.93 18.97 28.54L20.24 23.15C21.91 23.56 27.2 24.3 26.46 27.48ZM27.13 19.6C26.49 22.35 22.22 21.03 20.83 20.69L22.01 15.81C23.37 16.14 27.82 16.73 27.13 19.6Z" fill="#FFFFFF" fill-opacity="1.000000" fill-rule="nonzero"/>
	</g>
</svg>
