<svg width="44.000000" height="44.000000" viewBox="0 0 44 44" fill="none" xmlns="http://www.w3.org/2000/svg" xmlns:xlink="http://www.w3.org/1999/xlink">
	<desc>
			Created with Pixso.
	</desc>
	<defs>
		<clipPath id="clip6382_2739">
			<rect id="Bitcoin Cash Symbol" rx="8.934545" width="43.869087" height="43.869087" transform="translate(0.065456 0.065456)" fill="white" fill-opacity="0"/>
		</clipPath>
	</defs>
	<rect id="Bitcoin Cash Symbol" rx="8.934545" width="43.869087" height="43.869087" transform="translate(0.065456 0.065456)" fill="#0AC18E" fill-opacity="1.000000"/>
	<g clip-path="url(#clip6382_2739)">
		<path id="Bitcoin Cash" d="M28.53 15.56C27.46 12.98 25 12.44 21.99 12.97L21.02 9L18.74 9.62L19.69 13.58C19.1 13.74 18.48 13.88 17.87 14.06L16.91 10.12L14.63 10.75L15.6 14.72C15.11 14.87 11 15.99 11 15.99L11.62 18.58C11.62 18.58 13.3 18.08 13.28 18.12C14.21 17.86 14.65 18.35 14.86 18.82L17.51 29.71C17.54 30.03 17.49 30.57 16.85 30.75C16.89 30.77 15.19 31.2 15.19 31.2L15.44 34.22C15.44 34.22 19.52 33.11 20.05 32.97L21.03 37L23.31 36.37L22.33 32.32C22.96 32.16 23.57 32 24.16 31.84L25.14 35.87L27.42 35.24L26.44 31.23C29.96 30.33 32.44 27.97 31.93 24.38C31.6 22.22 29.37 20.44 27.52 20.24C28.66 19.17 29.24 17.61 28.53 15.56ZM27.43 25.04C27.88 28.59 23.22 29.03 21.68 29.46L20.34 24.13C21.89 23.71 26.67 21.9 27.43 25.04ZM24.62 17.79C25.11 20.95 21.11 21.32 19.83 21.67L18.61 16.84C19.9 16.5 23.64 14.86 24.62 17.79Z" fill="#FFFFFF" fill-opacity="1.000000" fill-rule="evenodd"/>
	</g>
</svg>
