<svg width="44.444336" height="44.444336" viewBox="0 0 44.4443 44.4443" fill="none" xmlns="http://www.w3.org/2000/svg" xmlns:xlink="http://www.w3.org/1999/xlink">
	<desc>
			Created with Pixso.
	</desc>
	<defs>
		<clipPath id="clip6382_2768">
			<rect id="BNB Symbol" rx="8.934545" width="44.313530" height="44.313530" transform="translate(0.065456 0.065456)" fill="white" fill-opacity="0"/>
		</clipPath>
	</defs>
	<rect id="BNB Symbol" rx="8.934545" width="44.313530" height="44.313530" transform="translate(0.065456 0.065456)" fill="#F0B90B" fill-opacity="1.000000"/>
	<g clip-path="url(#clip6382_2768)">
		<path id="BNB" d="M22.27 7.77L14.76 12.2L17.52 13.84L22.27 11.03L27.03 13.84L29.8 12.2L22.27 7.77ZM12.76 19.89L12.76 16.63L15.54 14.99L12.76 13.36L10 14.99L10 18.25L12.76 19.89ZM22.27 13.36L19.51 14.99L22.27 16.63L25.05 14.99L22.27 13.36ZM31.78 13.36L29.02 14.99L31.78 16.63L31.78 19.89L34.56 18.25L34.56 14.99L31.78 13.36ZM29.81 21.06L29.8 17.79L29.81 17.79L27.03 16.15L22.27 18.96L17.54 16.15L14.76 17.79L14.76 21.06L19.52 23.85L19.52 29.45L22.29 31.07L25.05 29.45L25.05 23.85L29.81 21.06ZM34.56 20.58L31.8 22.22L31.78 27.8L27.03 30.6L27.03 33.87L34.56 29.45L34.56 20.58ZM12.78 27.8L12.76 22.22L10 20.58L10 29.46L17.52 33.87L17.52 30.6L12.78 27.8ZM29.8 26.65L29.8 23.38L27.03 25.01L27.03 28.27L29.8 26.65ZM17.52 25.01L14.76 23.38L14.76 26.65L17.52 28.27L17.52 25.01ZM22.27 33.41L19.51 31.77L19.51 35.03L22.27 36.66L25.05 35.03L25.05 31.77L22.27 33.41Z" fill="#FFFFFF" fill-opacity="1.000000" fill-rule="evenodd"/>
	</g>
</svg>
