<svg width="44.000000" height="44.000000" viewBox="0 0 44 44" fill="none" xmlns="http://www.w3.org/2000/svg" xmlns:xlink="http://www.w3.org/1999/xlink">
	<desc>
			Created with Pixso.
	</desc>
	<defs>
		<clipPath id="clip6382_2734">
			<rect id="Dash Symbol" rx="8.934545" width="43.869087" height="43.869087" transform="translate(0.065456 0.065456)" fill="white" fill-opacity="0"/>
		</clipPath>
	</defs>
	<rect id="Dash Symbol" rx="8.934545" width="43.869087" height="43.869087" transform="translate(0.065456 0.065456)" fill="#008DE4" fill-opacity="1.000000"/>
	<g clip-path="url(#clip6382_2734)">
		<path id="Dash" d="M25.68 11L15.85 11L15.03 15.57L23.91 15.58C28.28 15.58 29.57 17.17 29.53 19.81C29.51 21.17 28.93 23.45 28.68 24.2C28 26.17 26.62 28.43 21.43 28.42L12.81 28.42L11.99 33L21.8 33C25.26 33 26.73 32.59 28.29 31.87C31.75 30.27 33.8 26.84 34.62 22.38C35.85 15.73 34.32 11 25.68 11ZM11.61 19.7C9.06 19.7 8.67 21.35 8.43 22.37C8.42 22.38 8.42 22.39 8.42 22.4C8.1 23.74 8 24.28 8 24.28L18.06 24.28C20.61 24.28 21 22.63 21.24 21.61C21.24 21.6 21.25 21.59 21.25 21.57C21.57 20.24 21.67 19.7 21.67 19.7L11.61 19.7Z" fill="#FFFFFF" fill-opacity="1.000000" fill-rule="evenodd"/>
	</g>
</svg>
