<svg width="44.444336" height="44.444336" viewBox="0 0 44.4443 44.4443" fill="none" xmlns="http://www.w3.org/2000/svg" xmlns:xlink="http://www.w3.org/1999/xlink">
	<desc>
			Created with Pixso.
	</desc>
	<defs>
		<clipPath id="clip6382_2756">
			<rect id="Dogecoin Symbol" rx="8.934545" width="44.313530" height="44.313530" transform="translate(0.065456 0.065456)" fill="white" fill-opacity="0"/>
		</clipPath>
	</defs>
	<rect id="Dogecoin Symbol" rx="8.934545" width="44.313530" height="44.313530" transform="translate(0.065456 0.065456)" fill="#BA9F33" fill-opacity="1.000000"/>
	<g clip-path="url(#clip6382_2756)">
		<path id="Dog" d="M18.27 12.87C18.3 12.18 18.47 12.17 18.47 12.17C18.47 12.17 18.53 12.14 18.44 12.22C18.36 12.3 18.35 12.6 18.34 13.01L18.34 13.06C18.33 13.23 18.36 13.41 18.39 13.6C18.43 13.91 18.49 14.27 18.44 14.72C18.39 15.17 18.2 15.5 18.02 15.78C18 15.81 17.99 15.84 17.97 15.87C17.84 16.09 17.74 16.28 17.74 16.28L17.17 16.66C17.17 16.66 16.65 16.73 16.17 17.06C15.88 17.26 15.59 17.63 15.35 18.06C15.21 18.3 15.09 18.59 15 18.82C14.99 18.84 14.98 18.86 14.97 18.88C14.84 19.2 14.79 19.45 14.75 19.67C14.71 19.87 14.68 20.04 14.59 20.2C14.43 20.48 14.4 20.65 14.39 20.71C14.46 20.6 14.85 19.94 14.81 20.07C14.78 20.23 14.68 20.47 14.51 20.73C14.41 20.9 14.4 21.06 14.38 21.23C14.36 21.33 14.35 21.45 14.32 21.57C14.25 21.79 14.17 22.04 14.1 22.27C14.02 22.53 13.94 22.75 13.92 22.86C13.88 23.08 13.91 23.35 13.96 23.76L13.96 23.76C13.97 23.88 13.97 24.02 13.96 24.17C13.96 24.3 13.96 24.44 13.97 24.56C13.99 24.74 14.04 24.92 14.09 24.99C14.17 25.11 14.2 25.26 14.22 25.38C14.23 25.43 14.23 25.48 14.24 25.52C14.27 25.61 14.3 25.68 14.34 25.75C14.36 25.8 14.39 25.84 14.41 25.89C14.43 25.95 14.46 26.07 14.48 26.2C14.49 26.29 14.51 26.4 14.54 26.5C14.58 26.64 14.64 26.79 14.71 26.93L14.69 26.96C14.69 26.96 14.26 26.14 14.1 25.55C14 25.2 13.88 24.71 13.82 23.9C13.75 23.1 13.84 22.48 13.94 21.89C14.01 21.47 14.21 21.05 14.31 20.85L14.3 20.86C14.3 20.86 14.68 18.77 15.05 18.04C15.3 17.54 15.64 17.13 15.89 16.9C16 16.8 16.09 16.76 16.16 16.72C16.18 16.72 16.19 16.71 16.2 16.7C16.35 16.62 16.66 16.58 16.84 16.55C16.89 16.54 16.94 16.53 16.96 16.53C17.01 16.52 17.36 16.38 17.59 16.18C17.77 16.02 17.86 15.83 17.91 15.72C17.92 15.7 17.93 15.68 17.93 15.67C18.01 15.53 18.03 15.33 18.06 15.15C18.06 15.11 18.07 15.06 18.07 15.02C18.08 14.96 18.1 14.89 18.11 14.82C18.14 14.67 18.17 14.5 18.19 14.27C18.21 13.98 18.22 13.67 18.25 13.16L18.25 13.15C18.26 13.06 18.26 12.97 18.27 12.87Z" fill="#806638" fill-opacity="1.000000" fill-rule="nonzero"/>
		<path id="Dog" d="M25.05 15.07C25.33 15.07 25.49 15.01 25.49 15.01L25.61 15.01L25.42 15.4L24.9 15.44L22.34 15.41C22.34 15.41 21.33 15.3 21.56 15.31C21.72 15.31 22.22 15.24 22.77 15.17C23.44 15.08 24.19 14.98 24.51 14.98C24.72 14.98 24.79 15.01 24.85 15.03C24.9 15.05 24.95 15.07 25.05 15.07Z" fill="#806638" fill-opacity="1.000000" fill-rule="nonzero"/>
		<path id="Dog" d="M31.6 27.08L31.6 27.08L31.6 27.08L31.6 27.08Z" fill="#806638" fill-opacity="1.000000" fill-rule="nonzero"/>
		<path id="Dog" d="M31.6 27.08C31.59 27.06 31.51 26.84 31.49 26.64C31.48 26.56 31.48 26.5 31.49 26.45C31.49 26.37 31.5 26.3 31.45 26.15C31.42 26.04 31.36 26.03 31.33 26.02C31.32 26.02 31.31 26.01 31.3 26.01C31.28 25.99 31.27 25.77 31.27 25.65C31.27 25.53 31.27 25.37 31.25 25.31C31.21 25.28 31.19 25.26 31.15 25.1C31.14 25.09 31.14 25.09 31.14 25.08L31.13 25.06C31.09 24.93 31.07 24.87 31.04 24.82C31.03 24.8 31.01 24.79 31 24.77C30.97 24.74 30.94 24.72 30.94 24.69C30.94 24.63 30.98 24.59 31 24.56C31.02 24.54 31.03 24.53 31.03 24.52C31.03 24.49 31 24.49 30.98 24.5C30.96 24.5 30.95 24.5 30.94 24.5C30.93 24.48 30.95 24.44 30.96 24.4C30.97 24.36 30.98 24.31 30.97 24.3C30.96 24.29 30.95 24.31 30.93 24.32C30.91 24.34 30.88 24.37 30.87 24.35C30.85 24.34 30.84 24.26 30.83 24.16C30.81 24.08 30.8 23.98 30.78 23.91C30.76 23.83 30.75 23.77 30.73 23.71C30.72 23.65 30.71 23.61 30.7 23.58C30.7 23.53 30.41 22.72 30.34 22.52L30.34 22.52C30.29 22.35 30.24 22.18 30.2 22.01C30.19 21.97 30.18 21.9 30.18 21.84C30.17 21.78 30.16 21.72 30.16 21.73C30.15 21.74 30.15 21.76 30.15 21.79C30.15 21.82 30.14 21.85 30.13 21.85C30.13 21.85 30.1 21.72 30.08 21.61C30.07 21.53 30.06 21.45 30.05 21.43C30.05 21.41 30.03 21.38 30.02 21.34C29.99 21.25 29.94 21.13 29.93 21.04C29.91 20.91 29.87 20.59 29.83 20.34L29.83 20.28C29.82 20.24 29.82 20.2 29.81 20.17C29.79 20 29.78 19.92 29.78 19.86C29.79 19.71 29.78 19.56 29.76 19.4C29.71 19.14 29.63 18.82 29.56 18.63C29.52 18.54 29.48 18.43 29.42 18.29C29.25 17.88 29.03 17.32 28.97 17.14C28.97 17.09 29.05 17.12 29.05 17.12C29.05 17.12 29.23 17.58 29.37 17.93C29.5 18.29 29.62 18.6 29.65 18.63C29.68 18.66 29.88 19.01 29.96 19.58C30.01 19.9 30.05 20.21 30.08 20.48C30.1 20.69 30.11 20.87 30.14 21.02C30.14 21.04 30.14 21.07 30.15 21.1C30.17 21.24 30.19 21.39 30.24 21.54C30.27 21.67 30.33 21.8 30.39 21.96C30.42 22.04 30.46 22.13 30.5 22.23C30.6 22.49 30.67 22.7 30.71 22.88C30.74 23.01 30.75 23.12 30.76 23.21C30.76 23.29 30.77 23.36 30.78 23.41C30.79 23.43 30.8 23.47 30.81 23.5C30.83 23.61 30.87 23.78 30.93 23.99C31.02 24.28 31.15 24.65 31.24 24.88C31.41 25.34 31.49 25.72 31.52 25.92C31.54 26.13 31.62 26.86 31.6 27.08Z" fill="#806638" fill-opacity="1.000000" fill-rule="nonzero"/>
		<path id="Dog" d="M16.05 20.94C16.07 20.9 16.09 20.87 16.11 20.85C16.15 20.86 16.19 20.88 16.23 20.89C16.21 20.89 16.19 20.9 16.16 20.9C16.2 20.9 16.25 20.94 16.25 20.94C16.25 20.94 16.26 20.91 16.31 20.92C16.33 20.92 16.34 20.92 16.35 20.94C16.36 20.95 16.37 20.96 16.36 20.98C16.36 20.99 16.35 21 16.33 21.02C16.32 21.03 16.3 21.04 16.3 21.05C16.29 21.07 16.32 21.09 16.35 21.11C16.36 21.11 16.37 21.12 16.39 21.12C16.39 21.12 16.21 21.12 16.17 21.14C16.15 21.16 16.25 21.19 16.34 21.22C16.37 21.23 16.4 21.24 16.42 21.24C16.49 21.27 16.63 21.38 16.67 21.48C16.71 21.57 17.99 22.08 17.99 22.08L18.17 22.07L17.94 23.05L17.74 24.02L18.14 24.98L18.94 25.3L19.82 25.3L20.04 24.26L20.51 23.65L20.36 24.31L20.77 25.16L20.26 25.89L17.54 25.82L16.01 25.31C16.01 25.31 15.9 25.3 15.87 25.35C15.97 25.47 16.02 25.59 16.09 25.74C16.13 25.84 16.18 25.96 16.26 26.11C16.32 26.21 16.39 26.33 16.45 26.43C16.49 26.5 16.53 26.56 16.56 26.62C16.62 26.71 16.67 26.81 16.71 26.91C16.71 26.91 17.15 27.18 17.23 27.22C17.16 27.26 17.12 27.28 17.07 27.33C17.06 27.33 17.05 27.34 17.04 27.34C17.13 27.39 17.2 27.38 17.26 27.36C17.33 27.35 17.39 27.34 17.48 27.37C17.52 27.38 17.56 27.45 17.6 27.54C17.7 27.73 17.84 28.01 18.18 28.1C18.38 28.16 18.98 27.88 19.08 27.83C19.13 27.8 19.2 27.74 19.26 27.68L19.54 28.22L21.2 28.74L22.78 29.4L22.91 29.49L22.78 29.52L21.11 30.11L19.73 31.37L18.53 32.47C18.53 32.47 18.43 32.78 18.02 32.93L18.15 32.76L18.08 30.83L17.42 30.11L16.36 29.4L15.64 28.7L15.08 27.66L14.93 27.48L14.72 26.88C14.71 26.87 14.71 26.87 14.7 26.87C14.7 28.06 14.27 28.36 14.27 28.36C14.27 28.36 14.32 28.43 14.38 28.52C14.38 28.53 14.39 28.53 14.39 28.53L14.39 28.54C14.45 28.62 14.52 28.71 14.52 28.85C14.53 28.95 14.47 29.07 14.41 29.19C14.35 29.3 14.29 29.42 14.28 29.52C14.26 29.67 14.27 29.81 14.28 29.98C14.29 30.01 14.29 30.04 14.29 30.07C14.3 30.16 14.28 30.26 14.24 30.42C14.23 30.5 14.21 30.59 14.19 30.71C14.16 30.84 14.15 31.02 14.13 31.25C14.11 31.44 14.1 31.66 14.07 31.91C14.06 31.93 14.06 31.95 14.06 31.96C14.86 32.74 15.77 33.41 16.75 33.95L16.75 33.95C17.96 34.61 19.28 35.07 20.65 35.29L26.75 34.35L31.16 32.05C31.16 32.05 31.17 32.04 31.18 32.04C31.18 32.03 31.18 32.03 31.19 32.02L31.27 29.31L31.12 28.27L30.15 28.2C30.15 28.2 29.34 28.45 28.55 28.71L28.61 28.66C28.98 28.27 29.69 27.69 29.84 27.58C29.83 27.67 29.77 27.82 29.7 28.01C29.68 28.09 29.65 28.17 29.62 28.25C29.66 28.18 29.83 28.02 29.93 27.94C30.03 27.85 30.36 27.65 30.53 27.55L30.55 27.54C30.54 27.61 30.53 27.68 30.53 27.75C30.53 27.75 30.66 27.43 30.78 27.2C30.9 26.98 30.96 26.61 30.96 26.61L30.96 26.61C30.96 26.61 30.88 26.72 30.8 26.77C30.75 26.53 30.75 26.36 30.82 26.07C30.71 26.36 30.55 26.37 30.39 26.39L30.38 26.39C30.3 26.02 30.32 25.29 30.34 25.12C30.32 25.18 30.27 25.26 30.22 25.32C30.2 25.35 30.18 25.37 30.17 25.4C30.16 25.35 30.08 25.29 30.03 25.26C30 25.24 29.99 25.2 29.98 25.15C29.97 25.12 29.97 25.09 29.96 25.06C29.77 25.17 29.65 25.19 29.65 25.19C29.65 25.19 29.9 25.07 30.09 24.54C30.26 24.07 30.21 23.79 30.15 23.54C30.14 23.48 30.13 23.42 30.12 23.36C29.89 24.1 29.41 24.68 29.41 24.68C29.41 24.68 29.41 24.64 29.4 24.52C29.36 24.6 29.33 24.68 29.3 24.76C29.24 24.92 29.17 25.12 28.95 25.5C28.68 25.97 28.41 26.03 28.26 26.02L28.34 25.72C28.78 24.95 29.16 23.76 29.15 22.86C29.13 21.98 28.77 21.52 28.59 21.31L28.33 19.9L25.01 19.65L23.48 21.12L21.39 21.44L21.15 21.93C21.15 21.92 21.15 21.92 21.15 21.91L21.15 21.91L21.08 21.17L20.71 20.94L20.4 20.65L20.11 21.19L20.05 21.25C20.08 21.16 20.09 21.06 20.09 20.97L19.98 20.16L19.5 19.56L18.94 19.87L18.48 19.95L17.15 20.74L17.02 20.78L17.6 20.29L17.52 20.13L17.59 20.09L16.95 19.29L16.64 17.78L16.58 16.97L16.04 16.93L15.52 17.51L14.99 18.47L14.69 19.41L14.56 19.98L14.35 20.66L14.38 20.71C14.34 20.88 14.34 20.92 14.33 21.03C14.33 21.06 14.33 21.09 14.32 21.13C14.36 20.84 14.59 20.52 14.78 20.26C14.81 20.21 14.85 20.16 14.88 20.12C14.98 19.98 15.03 19.87 15.03 19.85C15.04 19.82 15.04 19.79 15.03 19.76C15.03 19.71 15.02 19.65 15.05 19.58C15.07 19.55 15.11 19.54 15.17 19.52C15.23 19.5 15.31 19.47 15.38 19.4C15.45 19.33 15.51 19.23 15.57 19.13C15.66 18.99 15.75 18.85 15.84 18.82C16.08 18.76 16.28 18.85 16.32 19.06C16.35 19.22 16.21 19.32 16.1 19.42C16.04 19.46 15.99 19.5 15.96 19.54C15.89 19.64 15.89 19.72 15.9 19.94C15.9 19.99 15.9 20.05 15.9 20.12C15.91 20.48 16.01 20.88 16.05 20.94ZM19.21 21.6L19.02 21.44C19.14 21.42 19.25 21.4 19.32 21.42C19.33 21.42 19.34 21.42 19.34 21.42C19.5 21.46 19.59 21.48 19.7 21.68C19.8 21.84 19.89 21.89 19.92 21.91L19.92 21.91C19.95 21.92 19.97 21.92 19.99 21.92C19.97 21.94 19.91 21.99 19.93 22.11C19.94 22.14 19.95 22.17 19.96 22.21C19.98 22.3 20.01 22.4 19.97 22.47C19.9 22.4 19.82 22.36 19.73 22.33C19.65 22.3 19.57 22.26 19.51 22.2C19.42 22.1 19.38 21.99 19.34 21.9C19.3 21.79 19.26 21.7 19.17 21.66L19.21 21.6Z" fill="#D8C47C" fill-opacity="1.000000" fill-rule="evenodd"/>
		<path id="Dog" d="M14.51 20.51L14.13 21.65L13.87 22.96L13.88 24.04L13.95 24.32C13.94 24.36 13.94 24.38 13.94 24.38L13.97 24.84L14.14 25.48L14.31 25.89L14.47 26.4L14.61 26.74L14.73 27L14.83 27.59L15.3 28.1L15.56 28.21L15.71 28.14L17.18 29.48L20.13 30.23L21.88 29.71L24.07 28.78L24.62 28.19C24.61 28.2 24.28 28.35 23.71 28.34C23.74 28.31 23.78 28.26 23.83 28.2C23.91 28.1 24 27.98 24.09 27.94C24.13 27.92 24.16 27.9 24.2 27.89C24.29 27.85 24.38 27.81 24.47 27.71C24.5 27.68 24.52 27.66 24.53 27.63C24.62 27.52 24.69 27.44 24.93 27.34C25.33 27.17 25.05 26.95 25.05 26.95C25.1 26.9 25.14 26.86 25.19 26.83C25.3 26.75 25.42 26.65 25.41 26.49C25.39 26.21 25.34 25.8 25.11 25.56C25.2 25.54 25.33 25.53 25.47 25.51C25.66 25.48 25.87 25.46 26.02 25.42C26.33 25.34 26.47 25.23 26.47 25.23C26.47 25.23 26.3 24.93 26.58 24.63C26.65 24.55 26.72 24.49 26.78 24.43C26.98 24.23 27.14 24.06 27.28 23.8C27.25 23.8 27.23 23.8 27.2 23.79C27 23.76 26.69 23.71 26.01 23.97C26.05 23.99 26.09 24.01 26.13 24.03C26.13 24.03 25.65 24.16 25.48 24.31C25.36 24.41 25.28 24.51 25.21 24.6C25.1 24.72 25.01 24.84 24.81 24.93C24.64 25.01 24.47 25.04 24.3 25.06C24.16 25.09 24.02 25.11 23.89 25.17C23.72 25.25 23.64 25.32 23.58 25.37C23.54 25.4 23.51 25.43 23.48 25.45C23.49 25.46 23.49 25.47 23.49 25.49C23.49 25.51 23.49 25.53 23.51 25.55C23.51 25.55 23.51 25.56 23.5 25.56C23.46 25.63 23.33 25.83 23.19 25.83C23.21 25.88 23.33 25.93 23.33 25.93C23.33 25.93 23.24 25.99 23 26.01C23.02 26.02 23.03 26.04 23.04 26.05C23.15 26.16 23.27 26.29 23.55 26.47C23.54 26.48 23.53 26.5 23.52 26.52C23.48 26.57 23.43 26.63 23.46 26.7C23.51 26.8 23.63 26.93 24.11 27.04C24.04 27.05 23.98 27.05 23.9 27.06C23.71 27.08 23.48 27.1 23.19 27.06C23.12 27.05 23.07 27.04 23.02 27.03C22.78 27 22.7 26.99 22.51 27.04C22.52 27.05 22.53 27.06 22.55 27.06C22.58 27.08 22.62 27.09 22.66 27.13C22.65 27.14 22.63 27.13 22.6 27.13C22.47 27.13 22.18 27.12 22.06 27.27C21.93 27.44 21.87 27.73 21.87 27.94C21.79 27.93 21.66 27.94 21.48 28.02C21.29 28.1 21.1 28.12 20.93 28.14C20.82 28.16 20.71 28.17 20.61 28.2C20.43 28.24 20.26 28.11 20.1 27.99C20.01 27.92 19.93 27.86 19.86 27.84C19.65 27.76 19.37 27.57 19.37 27.57L18.79 27.51L17.62 27.02L16.21 25.61L16.1 24.92L15.71 23.91L15.02 22.98L15 22.62L15.96 20.92L16.39 19.66L14.95 19.78L14.51 20.51ZM15.44 27.64L15.52 27.8L15.47 27.73C15.47 27.73 15.45 27.7 15.44 27.64ZM16 25.4L15.95 25.36C15.97 25.37 15.98 25.38 16 25.4Z" fill="#E6DB9D" fill-opacity="1.000000" fill-rule="evenodd"/>
		<path id="Dog" d="M17.18 18.07C17.16 18.08 17.13 18.09 17.11 18.1C17.07 18.17 17.02 18.26 16.99 18.35C16.9 18.6 16.89 18.87 16.89 18.87L16.88 18.94C16.88 18.94 16.72 19.19 16.66 19.26C16.33 18.89 16.38 18.35 16.39 18.26C16.39 18.25 16.39 18.25 16.39 18.25C16.28 18.39 16.18 18.43 16.14 18.43C16.13 18.43 16.12 18.41 16.11 18.39C16.1 18.38 16.09 18.36 16.08 18.36C16.07 18.36 16.03 18.37 15.97 18.4C15.94 18.41 15.91 18.42 15.88 18.43C15.77 17.53 16.13 17.23 16.2 17.16C16.21 17.16 16.21 17.16 16.21 17.15C16.16 17.1 16.16 16.99 16.16 16.99C16.16 16.99 16.14 16.98 16.12 16.96C16.39 16.89 16.72 16.76 17.04 16.61C17.16 16.56 17.28 16.5 17.41 16.44C17.8 16.23 18.01 16.18 18.02 16.18L18.04 16.25C18.09 16.19 18.15 16.13 18.22 16.07C18.72 15.61 18.92 15.46 18.92 15.46L19.74 15.05L20.74 15.44L20.24 17.4L19.86 18.31L19.82 18.31C19.79 18.4 19.76 18.47 19.74 18.52L19.78 18.51L19.78 19.07L19.56 19.68C19.56 19.68 19.55 19.72 19.52 19.76L19.58 19.68L20.44 18.33L20.75 17.9C20.75 17.89 20.76 17.89 20.76 17.89L21.16 16.93L22.29 15.82L24.06 15.7L24.24 16.61L25.1 16.91L25.41 17.39L25.62 17.24L27.48 18.86L27.76 19.67L27.77 19.69L28 20.36C27.91 20.32 27.8 20.29 27.7 20.29C27.63 20.29 27.48 20.3 27.33 20.31C27.13 20.32 26.91 20.34 26.82 20.33C26.78 20.33 26.75 20.33 26.71 20.32C26.56 20.31 26.37 20.29 26.12 20.29C25.8 20.29 25.66 20.19 25.66 20.19C25.66 20.19 25.58 20.22 25.45 20.22C25.39 20.22 25.33 20.22 25.27 20.21C25.19 20.2 25.09 20.19 24.95 20.19C24.82 20.19 24.72 20.26 24.65 20.33L24.64 20.33C24.59 20.38 24.54 20.41 24.53 20.43C24.59 20.43 24.66 20.43 24.72 20.41C24.7 20.42 24.69 20.42 24.67 20.43C24.69 20.43 24.71 20.43 24.72 20.42C24.65 20.44 24.58 20.49 24.5 20.58C24.51 20.58 24.51 20.58 24.51 20.58C24.46 20.64 24.41 20.71 24.36 20.79C24.35 20.8 24.34 20.81 24.33 20.82L24.33 20.82C24.31 20.85 24.29 20.88 24.27 20.91C24.16 21.1 24.04 21.23 23.98 21.29C23.85 21.4 23.68 21.46 23.48 21.52C23.46 21.53 23.43 21.54 23.41 21.55C23.31 21.58 23.19 21.64 23.07 21.71C22.82 21.84 22.52 22 22.21 22C22.11 22 22.03 21.97 21.95 21.94C21.88 21.91 21.81 21.89 21.74 21.89C21.68 21.89 21.63 21.91 21.59 21.93L21.59 21.92C21.54 21.94 21.49 21.97 21.45 22C21.3 22.09 21.18 22.21 21.09 22.35C21.1 22.22 21.06 21.99 21.05 21.97C21.05 21.95 21.03 21.95 21.01 21.96C21.01 21.96 21.01 21.96 21.01 21.96C21 21.84 20.94 21.55 20.94 21.55C20.94 21.58 20.94 21.61 20.93 21.64C20.9 21.49 20.83 21.3 20.83 21.3L20.84 21.3L20.84 20.71L21.18 20.32L22.83 19.72L23.74 18.8L23.53 18.05L23.24 18.45L22.9 18.37L22.98 18.62L22.7 19.15L22.17 19.43L21.62 19.73C21.62 19.73 21.47 19.81 21.32 19.77C21.23 19.74 21.23 19.66 21.23 19.58C21.23 19.53 21.23 19.49 21.21 19.46C21.19 19.45 21.16 19.46 21.12 19.47C21.11 19.47 21.1 19.48 21.08 19.48L20.84 19.87L20.72 20.19L20.6 20.71L20.58 20.94C20.58 20.94 20.48 20.97 20.47 20.91C20.47 20.87 20.45 20.83 20.43 20.79C20.41 20.89 20.38 20.99 20.35 21.09C20.28 21.26 20.18 21.34 20.12 21.37C20.07 21.39 20.03 21.41 19.99 21.44C19.99 21.44 19.98 21.34 20 21.26C20.01 21.21 20.01 21.13 20.01 21.11C20.01 21.1 20.01 21.1 20.01 21.1C20.01 21.1 20.01 21.1 20.01 21.1C20 21.11 20 21.12 19.99 21.13C19.93 20.96 19.92 20.63 19.92 20.63C19.93 20.63 19.93 20.64 19.94 20.64C19.93 20.62 19.92 20.6 19.91 20.57C19.91 20.58 19.91 20.6 19.91 20.61C19.83 20.54 19.79 20.46 19.77 20.42C19.76 20.41 19.76 20.4 19.76 20.4C19.76 20.41 19.75 20.42 19.75 20.42C19.73 20.39 19.72 20.36 19.72 20.33C19.71 20.3 19.71 20.27 19.72 20.24C19.72 20.21 19.72 20.18 19.72 20.16C19.7 20.17 19.68 20.19 19.66 20.2C19.66 20.2 19.65 20.15 19.65 20.11C19.64 20.08 19.64 20.07 19.66 20.02C19.47 20.01 19.42 19.9 19.42 19.9L19.43 19.9C19.42 19.88 19.41 19.85 19.4 19.82C19.39 19.8 19.39 19.78 19.38 19.78C19.37 19.77 19.36 19.79 19.36 19.79C19.35 19.8 19.33 19.81 19.33 19.81C19.33 19.81 19.34 19.82 19.35 19.82C19.07 19.86 18.85 20.02 18.85 20.02C18.84 20.01 18.84 20 18.83 20C18.82 19.99 18.81 19.99 18.8 19.98C18.76 19.98 18.76 20.04 18.76 20.04C18.76 20.04 18.69 20.06 18.57 20.14C18.51 20.18 18.47 20.23 18.41 20.28C18.34 20.35 18.25 20.43 18.12 20.52C18.07 20.55 18.06 20.59 18.04 20.63C18.02 20.71 17.98 20.79 17.81 20.9C17.54 21.06 17.34 21.04 17.25 21.03C17.25 21.03 17.24 21.03 17.24 21.03C17.16 21.02 17.12 20.95 17.13 20.89C17.06 20.89 16.96 20.94 16.84 20.99C16.71 21.04 16.57 21.1 16.47 21.1C16.56 21.08 16.8 20.92 16.83 20.86C16.86 20.8 16.94 20.66 17.03 20.56C17.08 20.5 17.17 20.43 17.22 20.38C17.26 20.35 17.28 20.33 17.29 20.32C17.31 20.29 17.26 20.26 17.23 20.26C17.28 20.2 17.52 20.05 17.52 20.05L17.51 20.05L17.6 19.86L18.13 19.32C18.13 19.31 18.13 19.31 18.14 19.3C18.15 19.28 18.17 19.26 18.18 19.24C18.45 18.91 18.38 18.76 18.38 18.76C18.26 18.78 18.17 18.69 18.13 18.61C18.11 18.58 18.1 18.54 18.1 18.5C18.12 18.51 18.14 18.51 18.16 18.5C18.19 18.5 18.19 18.45 18.18 18.43C18.18 18.43 18.18 18.43 18.18 18.43C18.18 18.41 18.16 18.41 18.14 18.41C18.15 18.4 18.16 18.39 18.16 18.38C18.17 18.37 18.17 18.36 18.17 18.35C18.16 18.36 18.14 18.36 18.13 18.36C18.11 18.36 18.09 18.35 18.07 18.35C18.06 18.35 18.04 18.35 18.03 18.35C18.03 18.35 18.03 18.34 18.04 18.33C18.04 18.32 18.03 18.32 18.03 18.32C18.02 18.32 18.02 18.31 18.01 18.3C17.87 18.44 17.41 18.37 17.41 18.37L17.41 18.37C17.55 18.31 17.59 18.28 17.7 18.2C17.74 18.17 17.79 18.13 17.85 18.09C17.87 18.07 17.89 18.05 17.91 18.04L17.18 18.07ZM18.73 18.1C18.73 18.34 18.7 18.59 18.63 18.84C18.68 18.76 18.78 18.61 18.97 18.44C19.06 18.35 19.14 18.27 19.21 18.19L18.73 18.1Z" fill="#CAAE5B" fill-opacity="1.000000" fill-rule="evenodd"/>
		<path id="Dog" d="M19.78 34.67C19.78 34.68 19.77 34.68 19.77 34.69C19.77 34.7 19.78 34.73 19.78 34.76C19.84 34.73 19.89 34.72 19.93 34.71C19.97 34.7 20 34.69 20.03 34.68C20.03 34.69 20.04 34.71 20.05 34.74C20.08 34.83 20.12 34.97 20.23 35C20.37 35.03 20.53 34.93 20.69 34.81C20.72 34.79 20.75 34.76 20.78 34.74C20.91 34.63 21.05 34.52 21.16 34.47C21.21 34.56 21.25 34.65 21.29 34.75C21.33 34.71 21.39 34.64 21.46 34.56C21.64 34.34 21.89 34.04 22.21 34.05C22.33 33.75 22.55 33.49 22.82 33.31C23.22 33.03 23.48 33.01 23.8 33.04C23.92 32.87 24.08 32.74 24.25 32.63C24.26 32.63 24.27 32.63 24.28 32.64C24.34 32.67 24.47 32.73 24.63 32.65C24.71 32.62 24.78 32.55 24.86 32.48C24.99 32.36 25.13 32.23 25.29 32.2C25.44 32.18 25.59 32.21 25.72 32.29C25.72 32.29 26.51 31.5 27.05 31.24C27.03 31.18 26.99 30.94 27.63 30.42C27.65 30.43 27.65 30.47 27.65 30.49C27.65 30.52 27.65 30.54 27.66 30.54C27.68 30.54 27.83 30.47 28.03 30.32C28.27 30.14 28.57 29.95 28.74 29.89C29.08 29.8 29.43 30 29.43 30C29.46 29.98 29.49 29.96 29.53 29.95L29.53 29.95C29.61 29.94 29.67 29.93 29.72 29.91C29.72 29.94 29.72 29.99 29.73 30.04C29.74 30.14 29.76 30.26 29.72 30.37C29.79 30.41 29.86 30.43 29.93 30.46C29.92 30.46 29.92 30.47 29.92 30.48C29.88 30.57 29.8 30.74 29.68 30.83C29.73 30.85 29.76 30.87 29.79 30.89C29.83 30.93 29.87 30.96 29.96 30.99C29.9 31.08 29.8 31.23 29.75 31.33C29.73 31.37 29.69 31.47 29.64 31.58L29.64 31.58C29.58 31.73 29.51 31.9 29.46 31.99C29.43 32.05 29.4 32.14 29.36 32.22C29.31 32.34 29.26 32.46 29.23 32.49C29.22 32.51 29.2 32.53 29.18 32.56C29.1 32.66 28.96 32.82 28.86 32.91C28.98 32.87 29.49 32.71 29.71 32.65C29.64 32.75 29.32 33.23 29 33.7C27.5 34.6 25.82 35.17 24.07 35.37C22.33 35.58 20.56 35.4 18.89 34.87L18.89 34.87C18.1 34.62 17.35 34.29 16.62 33.88L16.62 33.86C16.64 33.84 16.66 33.83 16.67 33.81C16.68 33.81 16.68 33.8 16.69 33.79C16.69 33.78 16.7 33.77 16.71 33.76C16.73 33.75 16.83 33.72 16.88 33.73C16.9 33.73 16.92 33.74 16.95 33.75C17.02 33.77 17.1 33.8 17.15 33.79C17.2 33.79 17.25 33.78 17.32 33.76C17.43 33.73 17.57 33.69 17.75 33.73C18.03 33.78 18.17 33.92 18.3 34.06C18.37 34.13 18.44 34.2 18.52 34.25C18.66 34.35 18.81 34.33 18.86 34.32C18.87 34.32 18.88 34.32 18.88 34.32L18.94 34.32C18.94 34.32 18.95 34.31 18.97 34.29C19 34.27 19.04 34.23 19.07 34.23C19.12 34.23 19.14 34.26 19.16 34.28C19.18 34.29 19.19 34.31 19.21 34.31C19.27 34.32 19.35 34.3 19.43 34.29C19.53 34.28 19.63 34.26 19.7 34.28C19.73 34.29 19.77 34.31 19.79 34.33C19.82 34.36 19.84 34.39 19.85 34.43C19.88 34.51 19.85 34.61 19.79 34.66L19.78 34.67Z" fill="#CAAE5B" fill-opacity="1.000000" fill-rule="nonzero"/>
		<path id="Dog" d="M17.81 31C17.81 31 17.76 30.84 17.38 30.44C17.33 30.39 17.29 30.34 17.25 30.3C17.2 30.24 17.17 30.2 17.13 30.16C17 30.05 16.92 29.99 16.83 29.93C16.79 29.91 16.75 29.88 16.71 29.85C16.58 29.75 16.45 29.7 16.33 29.65C16.16 29.59 16 29.52 15.87 29.37C15.63 29.11 15.35 28.61 15.16 28.1C14.96 27.59 14.91 27.43 14.91 27.42C14.91 27.4 14.96 27.3 15.03 27.32C15.08 27.33 15.09 27.4 15.1 27.45C15.11 27.47 15.11 27.49 15.12 27.5C15.15 27.55 15.19 27.6 15.23 27.64C15.24 27.66 15.26 27.67 15.27 27.69C15.37 27.8 15.48 27.92 15.54 28.09C15.53 27.92 15.47 27.73 15.47 27.73C15.47 27.73 15.84 27.96 16.15 28.21C16.2 28.24 16.24 28.28 16.28 28.31L16.28 28.31C16.51 28.48 16.62 28.56 16.69 28.69C16.72 28.73 16.75 28.79 16.79 28.86C16.9 29.04 17.03 29.29 17.11 29.38C17.22 29.5 18.65 29.95 18.65 29.95L19.33 30.46L19.67 31.2L19.41 31.62L18.9 31.73L18.07 31.36L17.81 31Z" fill="#CAAE5B" fill-opacity="1.000000" fill-rule="nonzero"/>
		<path id="Dog" d="M28.42 20.39C28.5 20.66 28.54 20.95 28.52 21.23L28.85 21.98L28.87 22.84L27.92 25.96C27.92 25.96 28.39 28.79 28.28 29.02C28.16 29.23 27.84 29.67 27.84 29.67L27.84 29.67C28.02 29.59 28.2 29.5 28.36 29.39C28.58 29.25 28.78 29.12 28.96 29.08C29.01 29.07 29.08 29.06 29.15 29.05C29.33 29.02 29.54 28.99 29.69 28.91C29.82 28.83 29.95 28.7 30.04 28.61C30.07 28.58 30.09 28.55 30.11 28.54C30.18 28.48 30.36 28.44 30.49 28.42C30.51 28.41 30.53 28.41 30.55 28.4C30.67 28.37 30.88 28.41 30.99 28.61C31.1 28.8 31.05 29.01 31.05 29.01L31.29 29.17C31.29 29.17 31.37 28.45 31.5 28.34C31.62 28.23 31.63 28.11 31.65 27.97C31.65 27.96 31.65 27.96 31.65 27.95C31.65 27.94 31.65 27.93 31.65 27.92C31.66 27.79 31.64 27.62 31.63 27.55C31.63 27.53 31.63 27.52 31.63 27.51C31.63 27.51 31.63 27.5 31.63 27.49C31.64 27.46 31.65 27.4 31.65 27.32C31.64 27.24 31.62 27.16 31.6 27.09L31.5 26.09L31.37 25.54L31.16 24.86L31.09 24.58L31.01 24.31L30.92 24.16L30.76 23.53L30.48 22.62L30.24 21.76L30.05 20.94C30.05 20.94 29.97 20.4 29.89 20L29.84 19.62L29.74 18.99L29.42 18.16L29.05 17.25L28.82 17.43C28.82 17.43 28.42 17.44 28.3 17.9C28.17 18.36 27.95 18.49 27.88 18.53L27.88 18.53C27.82 18.56 27.78 18.59 27.84 18.91C27.98 19.19 28.28 19.96 28.42 20.39Z" fill="#CAAE5B" fill-opacity="1.000000" fill-rule="nonzero"/>
		<path id="Dog" d="M16.01 20.49C16.01 20.49 15.83 20.54 15.75 20.63C15.66 20.72 15.63 20.79 15.52 20.94C15.4 21.09 15.4 21.21 15.3 21.4C15.21 21.59 15.01 21.86 14.98 21.96C14.96 22.06 14.91 22.52 14.86 22.74C14.81 22.96 14.91 23.23 14.91 23.23L15.03 23.2C15.03 23.2 15.03 23.36 15.15 23.47C15.27 23.57 15.29 23.12 15.29 23.12L15.74 21.6L16.42 21.14L16.49 20.77L16.01 20.49Z" fill="#E6DB9D" fill-opacity="1.000000" fill-rule="evenodd"/>
		<path id="Dog" d="M16.34 21.17C16.34 21.17 16.02 21.19 15.86 21.31C15.8 21.35 15.78 21.39 15.71 21.45C15.58 21.55 15.46 21.65 15.4 21.78C15.33 21.92 15.26 22.12 15.21 22.51C15.18 22.67 15.18 22.82 15.17 22.95C15.15 23.12 15.12 23.27 15.13 23.36C15.16 23.57 15.36 23.67 15.38 23.9L15.82 23.68L16.22 22.08L17.08 21.54L16.6 20.99L16.34 21.17L16.34 21.17Z" fill="#E6DB9D" fill-opacity="1.000000" fill-rule="evenodd"/>
		<path id="Dog" d="M18.38 21.52C18.39 21.54 18.41 21.56 18.43 21.57C18.45 21.58 18.48 21.59 18.5 21.59C18.69 21.59 18.86 21.64 18.94 21.73C19.05 21.88 19.39 22.37 19.39 22.37L20.18 22.65L20.24 21.72L19.37 21.11L18.38 21.48L18.38 21.52L18.38 21.52L18.38 21.52Z" fill="#D8C47C" fill-opacity="1.000000" fill-rule="evenodd"/>
		<path id="Dog" d="M15.97 28.44C15.97 28.44 16.14 28.71 16.56 28.98C16.94 29.21 17.54 29.41 18.08 29.54C18.38 29.61 18.69 29.67 18.97 29.67C19.71 29.68 20.22 29.47 20.85 29.4C21.2 29.36 21.62 29.34 22.06 29.23C22.62 29.1 22.95 28.95 23.4 28.73C23.73 28.58 24.03 28.47 24.28 28.32C24.62 28.12 24.87 27.9 25.16 27.83C25.13 27.93 25.09 28.11 24.8 28.29C24.95 28.28 25.16 28.27 25.16 28.27C25.16 28.27 24.96 28.39 24.6 28.66C24.38 28.83 24.09 29.11 23.8 29.3C23.61 29.42 23.4 29.51 23.26 29.58C22.93 29.76 22.79 29.85 22.57 30.08C22.65 30.07 22.66 30.08 22.66 30.08C22.66 30.08 22.38 30.11 22.18 30.22C22.14 30.22 22.07 30.21 21.95 30.24C21.85 30.27 21.72 30.34 21.58 30.38C21.39 30.44 21.33 30.41 21.33 30.41L21.36 30.48C21.36 30.48 21.11 30.47 21.02 30.48C21.04 30.48 21.04 30.49 21.04 30.49C21.02 30.49 21.01 30.5 20.99 30.51C20.95 30.53 20.91 30.55 20.86 30.56C20.84 30.57 20.82 30.57 20.79 30.57C20.8 30.6 20.88 30.74 20.91 30.82C20.88 30.84 20.41 31.2 20.41 31.2C20.42 31.23 20.44 31.25 20.45 31.28C20.46 31.32 20.47 31.39 20.48 31.42C20.52 31.48 20.54 31.49 20.54 31.49C20.54 31.49 20.48 31.51 20.38 31.53C20.3 31.55 20.2 31.59 20.05 31.61C20 31.61 19.96 31.62 19.91 31.62C19.94 31.67 20.03 31.84 19.86 32.05C19.69 32.25 19.63 32.28 19.58 32.41C19.56 32.39 19.53 32.37 19.5 32.36C19.44 32.33 19.36 32.29 19.34 32.24C19.32 32.31 19.3 32.38 19.27 32.44C19.22 32.58 19.14 32.72 19.13 32.83C19.07 32.76 18.96 32.64 18.82 32.67C18.67 32.69 18.56 32.89 18.53 32.95C18.53 32.91 18.51 32.88 18.5 32.92C18.5 32.97 18.42 33.45 17.97 33.85C17.97 33.75 17.97 33.53 17.96 33.46C17.91 33.5 17.86 33.56 17.56 33.69C17.26 33.82 17.31 33.95 17.31 33.95C17.31 33.95 17.29 33.74 17.45 33.52C17.61 33.31 17.71 33.2 17.71 33.19C17.7 33.17 17.7 33.15 17.69 33.14C17.66 33.12 17.62 33.09 17.62 33.08C17.65 33.07 17.9 32.95 17.88 32.7C17.87 32.47 17.77 32.36 17.71 32.28C17.7 32.27 17.81 32.19 17.79 32.16C17.78 32.15 17.65 32.05 17.63 32C17.63 31.96 17.64 31.93 17.65 31.9C17.66 31.86 17.68 31.83 17.67 31.79C17.66 31.74 17.6 31.6 17.59 31.58C17.6 31.59 17.71 31.58 17.71 31.58C17.71 31.58 17.62 31.45 17.61 31.38C17.59 31.32 17.56 31.15 17.54 31.12C17.58 31.13 17.67 31.13 17.67 31.12C17.67 31.09 17.59 31.04 17.63 31C17.65 31 17.7 31.02 17.75 31.08C17.72 31.01 17.68 30.88 17.59 30.83C17.63 30.82 17.77 30.78 17.9 30.85C18.02 30.93 18.07 31.03 18.07 31.03C18.07 31.03 18.14 31.09 18.25 31.17C18.38 31.27 18.55 31.42 18.82 31.52C18.87 31.56 19.02 31.56 19.12 31.53C19.17 31.52 19.21 31.51 19.25 31.48C19.27 31.47 19.28 31.47 19.3 31.46C19.28 31.41 19.25 31.37 19.22 31.33C19.26 31.33 19.3 31.33 19.3 31.33C19.3 31.33 19.32 31.28 19.21 31.17C19.24 31.14 19.27 31.13 19.27 31.08C19.23 31.08 19.17 31.03 19.15 31.01C19.17 30.99 19.21 30.94 19.24 30.93C19.21 30.9 19.13 30.8 19.1 30.79C19.13 30.77 19.16 30.76 19.2 30.74C19.2 30.74 19.02 30.69 18.96 30.66C18.91 30.61 18.82 30.54 18.77 30.52C18.72 30.5 18.63 30.49 18.59 30.45C18.62 30.46 18.68 30.45 18.72 30.45C18.75 30.45 18.77 30.45 18.78 30.45C18.78 30.44 18.78 30.41 18.86 30.39C18.9 30.39 18.94 30.38 18.97 30.36C18.97 30.36 18.89 30.35 18.8 30.27C18.72 30.19 18.64 30.12 18.59 30.11C18.54 30.1 18.44 30.14 18.38 30.14C18.29 30.13 18.26 30.09 18.26 30.09C18.26 30.09 17.98 30.11 17.36 29.73C16.82 29.4 16.59 29.11 16.59 29.11C16.54 29.1 16.49 29.07 16.44 29.05C16.24 28.94 15.96 28.72 15.97 28.44L15.97 28.44Z" fill="#B79947" fill-opacity="1.000000" fill-rule="evenodd"/>
		<path id="Dog" d="M23.71 15.8C23.76 15.82 23.81 15.85 23.84 15.89C23.94 16 24 16.21 23.78 16.44C23.86 16.48 23.9 16.49 23.98 16.48C23.9 16.57 23.72 16.77 23.71 16.94C23.7 17.08 23.79 17.12 23.79 17.12C23.79 17.12 23.66 17.28 23.65 17.54C23.71 17.47 23.78 17.4 23.86 17.34C24.01 17.22 24.23 17.07 24.37 16.99C24.37 17.02 24.38 17.06 24.39 17.1C24.39 17.1 24.66 16.87 24.89 16.97C24.99 17.02 24.94 17.16 24.94 17.16C24.94 17.16 25.09 17.11 25.18 17.21C25.28 17.31 25.42 17.56 25.5 17.66C25.53 17.71 25.61 17.8 25.69 17.93C25.81 18.13 25.9 18.33 25.98 18.54C25.98 18.43 26.01 18.26 26.32 18.37C26.63 18.48 26.99 18.7 27.29 19.16C27.58 19.61 27.66 20.12 27.8 20.31C27.96 20.5 28.11 20.81 28.12 20.94C28.13 21.07 28.08 21.49 28.39 22.63C28.48 22.28 28.61 21.49 28.61 21.49L28.68 20.8L28.77 18.66L26.53 16.8L24.78 15.53L23.64 15.64L23.71 15.8Z" fill="#B79947" fill-opacity="1.000000" fill-rule="evenodd"/>
		<path id="Dog" d="M27.87 18.99C27.87 18.99 27.84 18.78 27.31 18.43C26.79 18.08 26.38 18.08 26 17.78C25.71 17.55 25.4 17.01 25.21 16.83C25.02 16.66 24.98 16.15 24.98 16.15L25.63 15.61L26.59 14.22L27.4 13.33L27.79 13.87L28.33 14.51L28.64 15.78L28.75 17.65L27.87 18.99L27.87 18.99Z" fill="#B79947" fill-opacity="1.000000" fill-rule="evenodd"/>
		<path id="Dog" d="M27.84 34.27C27.84 34.27 27.85 34.28 27.88 34.3C29.37 33.6 30.71 32.6 31.82 31.37C31.81 30.95 31.79 30.51 31.77 30.35C31.74 30.01 31.76 29.66 31.75 29.46C31.74 29.25 31.63 28.43 31.58 28.22C31.52 28 31.41 27.9 31.39 27.9C31.38 27.9 31.29 28.3 31.29 28.4C31.29 28.5 31.27 28.74 31.27 28.8C31.25 28.79 31.25 28.76 31.25 28.74C31.23 28.79 31.2 28.89 31.19 28.9C31.18 28.91 31.21 28.81 31.19 28.79C31.18 28.77 31.15 28.78 31.15 28.73C31.16 28.69 31.16 28.66 31.17 28.63C31.17 28.63 31.11 28.73 31.06 28.96C31.01 29.2 31.01 29.2 31 29.22C30.98 29.25 30.9 29.33 30.89 29.36C30.89 29.42 30.97 29.48 30.98 29.51C30.98 29.56 30.9 29.81 30.88 29.92C30.85 30.04 30.86 30.28 30.84 30.4C30.82 30.51 30.8 30.57 30.72 30.62C30.78 30.63 30.83 30.64 30.83 30.64C30.83 30.64 30.9 30.95 30.71 31.22C30.65 31.31 30.63 31.35 30.56 31.44C30.42 31.59 30.31 31.77 30.3 31.89C30.29 31.85 30.28 31.82 30.28 31.78C30.28 31.78 30.06 32.04 29.97 32.18C29.85 32.37 29.68 32.36 29.64 32.41C29.59 32.45 29.58 32.54 29.59 32.61C29.55 32.62 29.47 32.63 29.42 32.79C29.4 32.88 29.33 32.96 29.24 33.02C29.14 33.07 29.02 33.09 28.96 33.1C29.01 33.12 29.03 33.12 29.05 33.14C29.02 33.19 28.88 33.27 28.71 33.38C28.55 33.47 28.47 33.62 28.43 33.71C28.39 33.8 28.33 33.86 28.23 33.87C28.27 33.9 28.34 33.95 28.37 33.97C28.32 33.98 28.24 33.98 28.1 34.1C27.96 34.23 27.9 34.26 27.84 34.27L27.84 34.27Z" fill="#B79947" fill-opacity="1.000000" fill-rule="evenodd"/>
		<path id="Dog" d="M24.91 35.25C24.99 35.19 25.08 35.15 25.17 35.11C25.5 34.98 25.84 34.96 25.98 34.91C26.11 34.87 26.21 34.81 26.37 34.78C26.37 34.82 26.37 34.85 26.36 34.89C25.89 35.04 25.4 35.16 24.91 35.25L24.91 35.25Z" fill="#E6DB9D" fill-opacity="1.000000" fill-rule="evenodd"/>
		<path id="Dog" d="M25.92 17.94L25.18 16.87L24.66 16.47C24.66 16.47 24.29 15.79 24.27 15.77C24.24 15.76 23.89 15.72 23.67 15.7L23.71 15.81C23.76 15.82 23.8 15.85 23.84 15.89C23.94 16 24 16.22 23.77 16.45C23.86 16.48 23.9 16.49 23.98 16.48C23.9 16.57 23.72 16.77 23.71 16.94C23.7 17.08 23.79 17.13 23.79 17.13C23.79 17.13 23.66 17.28 23.65 17.54C23.71 17.47 23.78 17.4 23.86 17.34C24.01 17.22 24.23 17.08 24.37 16.99C24.37 17.03 24.38 17.06 24.39 17.1C24.39 17.1 24.66 16.88 24.89 16.98C24.99 17.02 24.94 17.17 24.94 17.17C24.94 17.17 25.08 17.11 25.18 17.21C25.28 17.31 25.42 17.57 25.5 17.67C25.53 17.71 25.61 17.8 25.69 17.94C25.81 18.13 25.9 18.33 25.98 18.54C25.98 18.46 26 18.34 26.15 18.34L25.92 17.94L25.92 17.94Z" fill="#B79947" fill-opacity="1.000000" fill-rule="evenodd"/>
		<path id="Dog" d="M14.78 20.99C14.78 20.99 14.73 20.86 14.78 20.6C14.83 20.35 14.92 20.23 14.94 19.85C14.97 19.48 15.22 19.01 15.22 19.01L15.89 18.7L16.37 18.84L16.51 19.48L15.91 19.81C15.91 19.81 15.87 19.95 15.7 20.06C15.53 20.18 15.3 20.27 15.24 20.38C15.21 20.45 15.18 20.53 15.17 20.6C15.17 20.6 14.99 20.57 14.89 20.68C14.78 20.8 14.79 20.9 14.78 20.99L14.78 20.99Z" fill="#E6DB9D" fill-opacity="1.000000" fill-rule="evenodd"/>
		<path id="Dog" d="M21.11 17.32C21.18 17.31 21.24 17.28 21.3 17.24C21.28 17.31 21.28 17.38 21.17 17.54C21.06 17.7 21.05 17.73 20.97 17.89C20.88 18.07 20.87 18.32 20.78 18.42C20.82 18.41 20.86 18.39 20.9 18.39C20.9 18.39 20.82 18.46 20.78 18.54C20.75 18.62 20.68 18.78 20.53 18.88C20.37 18.98 20.17 19.04 19.96 19.28C19.75 19.5 19.53 19.8 19.42 19.9C19.48 19.8 19.55 19.6 19.58 19.47C19.6 19.34 19.57 19.19 19.61 19.01C19.64 18.84 19.64 18.72 19.82 18.42C19.99 18.11 20.28 17.07 20.28 17.07L20.92 16.87L21.11 17.32L21.11 17.32Z" fill="#B79947" fill-opacity="1.000000" fill-rule="evenodd"/>
		<path id="Dog" d="M20.65 16.94C20.65 16.94 20.46 17.21 20.41 17.46C20.36 17.7 20.4 17.68 20.37 17.8C20.35 17.87 20.35 17.95 20.37 18.02C20.44 17.92 20.53 17.83 20.64 17.76C20.82 17.65 20.97 17.57 21.05 17.48C21.14 17.38 21.22 17.22 21.41 17.1C21.33 17.09 21.22 17.05 21.2 17.05C21.28 16.97 21.51 16.83 21.75 16.67C21.98 16.5 21.97 16.44 22.34 16.27C22.22 16.29 22.16 16.26 22.06 16.27C22.1 16.18 22.25 16.14 22.39 15.99C22.54 15.85 22.3 15.63 22.3 15.63L21.19 16.31L20.65 16.94L20.65 16.94Z" fill="#B79947" fill-opacity="1.000000" fill-rule="evenodd"/>
		<path id="Dog" d="M17.64 16.43L17.66 16.23L17.98 15.72L18.32 14.83L18.32 13.61L18.29 12.9L18.34 12.43L18.38 12.29L18.42 12.23L18.7 12.37L19.07 12.88L19.11 13.86L18.74 15.42L17.7 16.55L17.64 16.43Z" fill="#CAAE5B" fill-opacity="1.000000" fill-rule="evenodd"/>
		<path id="Dog" d="M18.47 15.48C18.47 15.48 18.72 14.86 18.83 14.32C18.85 14.21 18.89 14.1 18.91 14.01C18.96 13.5 18.97 13.28 18.91 13C18.85 12.79 18.65 12.6 18.54 12.46C18.44 12.31 18.39 12.25 18.41 12.22C18.44 12.19 18.52 12.14 18.6 12.14C18.68 12.14 18.77 12.16 18.84 12.2C18.92 12.24 18.99 12.29 19.05 12.35C19.21 12.54 19.34 13.17 19.34 13.17L19.47 14.01L19.81 15.07L18.47 15.48L18.47 15.48Z" fill="#B79947" fill-opacity="1.000000" fill-rule="evenodd"/>
		<path id="Dog" d="M20.81 14.84C20.81 14.84 20.77 14.86 20.68 14.84C20.69 14.87 20.68 14.91 20.67 14.94C20.65 14.97 20.63 15 20.6 15.02C20.51 14.98 19.68 15.05 19.68 15.05C19.68 15.05 19.3 14.98 19.18 14.47C19.09 14.14 19.24 13.67 19.19 13.36C19.12 12.91 19.02 12.82 19.01 12.68C19 12.54 18.98 12.5 18.98 12.41C18.94 12.4 18.91 12.39 18.87 12.39C18.85 12.35 18.87 12.31 18.83 12.24C18.85 12.25 19.03 12.27 19.23 12.46C19.4 12.62 19.4 12.67 19.42 12.7C19.45 12.74 19.71 12.95 19.82 13.17C19.93 13.39 20.14 14.08 20.19 14.2C20.2 14.24 20.23 14.29 20.31 14.39C20.43 14.55 20.61 14.8 20.82 14.84L20.81 14.84Z" fill="#987938" fill-opacity="1.000000" fill-rule="evenodd"/>
		<path id="Dog" d="M19.45 12.71C19.58 12.92 19.69 13.13 19.79 13.35C19.92 13.63 19.99 13.86 20.15 14.05C20.06 13.81 19.91 13.33 19.82 13.16C19.73 12.98 19.52 12.78 19.45 12.71Z" fill="#A88F33" fill-opacity="1.000000" fill-rule="evenodd"/>
		<path id="Dog" d="M17.77 17.53L17.96 17.29L17.96 17.12C17.96 17.12 18.17 17.07 18.4 16.83C18.63 16.6 18.95 16.15 19.23 16.18C19.51 16.21 19.53 16.79 19.54 16.95C19.55 17.11 19.59 17.48 19.65 17.68C19.71 17.88 18.97 18.62 18.97 18.62L18.46 19.01L17.77 17.53Z" fill="#D8C47C" fill-opacity="1.000000" fill-rule="evenodd"/>
		<path id="Dog" d="M25.36 15.44C25.11 15.35 24.85 15.3 24.58 15.29C24.14 15.27 23.49 15.3 22.86 15.3C22.18 15.3 21.56 15.07 20.7 15.02C20.56 14.94 20.2 14.57 19.08 15.35C19.15 15.35 19.89 15.18 20.15 15.5C20.41 15.83 20.34 16.37 20.3 16.5C20.24 16.79 20.02 17.22 19.93 17.52C19.84 17.81 19.86 17.97 19.8 18.18C19.74 18.38 19.6 18.49 19.68 18.73C19.79 18.66 19.85 18.66 20.03 18.25C20.21 17.84 20.17 17.55 20.48 17.2C20.77 16.85 21.27 16.37 21.46 16.25C21.64 16.13 23.14 15.36 24.7 16.1C25.08 16.06 25.36 15.44 25.36 15.44Z" fill="#B79947" fill-opacity="1.000000" fill-rule="evenodd"/>
		<path id="Dog" d="M19.71 15.15C19.71 15.13 19.71 15.12 19.7 15.1C19.69 15.07 19.67 15.04 19.64 15.02C19.64 15.02 19.27 14.95 19.09 14.97C18.76 15.01 18.46 15.42 18.32 15.62C18.18 15.83 18.01 16.15 17.82 16.32C17.82 16.3 17.82 16.29 17.81 16.27C17.81 16.27 17.82 16.29 17.8 16.31C17.78 16.33 17.78 16.34 17.79 16.35L17.82 16.38C17.83 16.38 18.12 16.25 18.52 15.88C18.94 15.5 19.26 15.3 19.43 15.23C19.52 15.2 19.61 15.17 19.71 15.15Z" fill="#B79947" fill-opacity="1.000000" fill-rule="evenodd"/>
		<path id="Dog" d="M26.9 13.57C26.9 13.57 26.83 13.65 26.75 13.74C26.56 13.94 26.32 14.16 26.11 14.39C25.91 14.61 25.69 14.78 25.44 15.07C25.18 15.36 24.89 15.67 24.82 15.77C24.75 15.86 24.7 16.01 24.7 16.09C24.66 16.06 24.62 16.04 24.62 16.04C24.64 16.07 24.66 16.1 24.69 16.13C24.74 16.2 24.82 16.3 24.86 16.35C24.91 16.42 24.95 16.51 24.97 16.59C25 16.6 25.16 16.63 25.36 16.3C25.56 15.96 25.83 15.6 25.83 15.6L26.25 14.97L26.52 14.44L26.85 13.85L26.9 13.57Z" fill="#987938" fill-opacity="1.000000" fill-rule="evenodd"/>
		<path id="Dog" d="M27.33 13.14C27.33 13.14 27.08 13.35 26.98 13.48C26.88 13.6 26.64 13.93 26.64 13.93L26.73 13.92L27.16 13.54L27.32 13.24L27.33 13.14L27.33 13.14Z" fill="#A88F33" fill-opacity="1.000000" fill-rule="evenodd"/>
		<path id="Dog" d="M27.25 29.87C27.25 29.87 27.25 29.7 27.35 29.6C27.45 29.5 27.7 29.34 27.94 28.78C28.18 28.21 28.21 28.08 28.21 28.08C28.21 28.08 27.77 28.45 27.5 28.54C27.57 28.41 27.6 28.32 27.63 28.25C27.6 28.22 27.45 28.18 27.43 28.17C27.52 28.08 27.56 27.88 27.73 27.74C27.95 27.57 28.35 27.29 28.66 27.03C28.97 26.78 29.58 26.18 29.66 26.01C29.71 26.08 29.72 26.12 29.72 26.12C29.72 26.12 29.41 26.52 29.25 26.77C29.11 26.99 29.12 27.12 29.12 27.12L29.41 26.99C29.41 26.99 29.5 27.3 29.12 27.78C29.28 27.72 29.35 27.75 29.44 27.7C29.29 27.8 29.07 27.93 28.87 28.3C28.67 28.68 28.4 29.11 27.95 29.38C27.51 29.66 27.25 29.87 27.25 29.87L27.25 29.87Z" fill="#A67A2E" fill-opacity="1.000000" fill-rule="evenodd"/>
		<path id="Dog" d="M26.11 15.66C26.11 15.66 25.94 16.02 25.91 16.3C25.91 16.36 25.89 16.42 25.89 16.49C25.89 16.74 25.91 17.02 25.85 17.15C25.83 17.1 25.82 17.07 25.8 17.05C25.77 17.13 25.71 17.41 25.66 17.51C25.64 17.45 25.6 17.21 25.6 16.94C25.6 16.66 25.61 16.61 25.61 16.55C25.6 16.63 25.54 16.75 25.52 16.82C25.49 16.76 25.46 16.69 25.41 16.62C25.39 16.67 25.36 16.73 25.33 16.76C25.33 16.73 25.31 16.67 25.31 16.57C25.3 16.46 25.3 16.32 25.3 16.29C25.31 16.24 25.4 16.01 25.59 15.81C25.81 15.56 26.04 15.09 26.11 14.95C26.18 14.8 26.46 14.2 26.46 14.2L26.68 14.2L26.37 14.92C26.37 14.92 26.17 15.32 26.07 15.46C25.98 15.61 25.77 16.03 25.67 16.19C25.74 16.1 25.8 16.05 25.87 15.97C25.93 15.91 26.11 15.66 26.11 15.66Z" fill="#806638" fill-opacity="1.000000" fill-rule="evenodd"/>
		<path id="Dog" d="M27.33 13.11C27.3 13.22 27.24 13.33 27.17 13.42C27.04 13.57 26.76 13.78 26.62 13.95C26.5 14.11 26.25 14.55 26.36 15.07C26.4 14.96 26.48 14.74 26.69 14.48C26.9 14.23 27.12 13.93 27.23 13.71C27.34 13.48 27.35 13.3 27.35 13.3L27.4 13.24L27.37 13.12L27.33 13.11L27.33 13.11Z" fill="#B79947" fill-opacity="1.000000" fill-rule="evenodd"/>
		<path id="Dog" d="M27.35 13.09L27.33 13.11C27.33 13.11 27.37 13.12 27.36 13.17C27.36 13.23 27.36 13.28 27.35 13.34C27.34 13.41 27.32 13.47 27.31 13.52C27.31 13.62 27.33 13.73 27.19 14.01C27.15 14.09 27.12 14.16 27.1 14.2C27.05 14.32 27.04 14.33 26.99 14.39C27.07 14.34 27.33 14.18 27.46 14.2C27.37 14.26 27.23 14.36 27.14 14.49C27.16 14.5 27.25 14.51 27.39 14.49C27.63 14.46 27.89 14.37 28.12 14.39C28.37 14.41 28.27 14.09 28.27 14.09L27.98 13.45L27.43 13.07L27.35 13.09Z" fill="#B79947" fill-opacity="1.000000" fill-rule="evenodd"/>
		<path id="Dog" d="M28.77 17.85C28.77 17.85 28.53 17.61 28.43 16.77C28.33 15.93 28.35 14.69 28.35 14.69L28.15 14.2C28.15 14.2 28.11 13.88 28.01 13.76C27.91 13.64 27.7 13.44 27.61 13.34C27.52 13.24 27.41 13.11 27.35 13.09C27.38 13.03 27.52 12.74 28.06 12.73C28.6 12.73 28.77 13.03 28.83 13.14C28.88 13.25 29.14 13.72 29.23 14.62C29.32 15.52 29.33 15.59 29.31 15.9C29.3 16.08 29.24 16.48 29.14 16.9C29.05 17.27 28.95 17.67 28.77 17.85L28.77 17.85Z" fill="#987938" fill-opacity="1.000000" fill-rule="evenodd"/>
		<path id="Dog" d="M28.01 18.57C28.09 18.58 28.17 18.56 28.24 18.52C28.32 18.51 28.6 18.55 28.82 18.27C28.83 18.34 28.87 18.51 28.77 18.66C28.82 18.61 28.9 18.58 28.91 18.57C28.92 18.65 28.99 18.89 28.68 19.47C28.76 19.38 28.86 19.38 28.95 19.37C28.95 19.48 29.01 19.85 28.86 20.05C28.75 20.18 28.59 20.14 28.59 20.14C28.59 20.11 28.59 20.08 28.59 20.05C28.58 20 28.56 19.94 28.58 19.9C28.49 19.86 28.42 19.81 28.36 19.75C28.17 19.58 27.94 19.28 27.92 19.06C27.9 18.82 28.12 18.77 28.12 18.77C28.1 18.75 28.08 18.73 28.07 18.71C28.06 18.67 28.05 18.62 28.01 18.57Z" fill="#806638" fill-opacity="1.000000" fill-rule="evenodd"/>
		<path id="Dog" d="M26.38 15.92C26.38 15.92 26.37 15.91 26.32 15.97C26.33 15.91 26.34 15.84 26.34 15.78C26.37 15.73 26.4 15.67 26.45 15.63C26.41 15.69 26.39 15.75 26.39 15.75C26.39 15.75 26.47 15.6 26.58 15.51C26.66 15.45 26.76 15.42 26.8 15.36C26.85 15.3 26.84 15.29 26.85 15.28C26.85 15.28 26.95 15.21 27.11 15.01C27.13 14.99 27.16 14.96 27.18 14.93C27.22 14.92 27.3 14.88 27.4 14.83C27.51 14.77 27.62 14.7 27.69 14.66C27.83 14.6 27.98 14.61 28.05 14.51C28.11 14.49 28.16 14.34 28.15 14.2C28.23 14.23 28.63 14.48 28.77 15.02C28.87 15.41 28.69 16 28.62 16.29C28.54 16.58 28.53 16.79 28.43 16.92C28.3 17.09 27.88 17.34 27.77 17.46C27.69 17.55 27.42 17.81 27.43 17.99C27.44 18.12 27.61 18.19 27.64 18.22C27.68 18.25 27.68 18.28 27.75 18.26C27.81 18.25 27.84 18.22 27.87 18.22C27.9 18.22 27.9 18.23 27.91 18.23C27.92 18.23 27.93 18.22 27.94 18.22C27.94 18.22 27.93 18.41 27.49 18.47C27.45 18.48 27.42 18.49 27.38 18.49C27.43 18.47 27.47 18.47 27.52 18.39C27.46 18.38 27.28 18.37 27.23 18.35C27.25 18.33 27.3 18.26 27.34 18.23C27.37 18.2 27.33 18.19 27.3 18.2C27.25 18.24 27.19 18.28 27.14 18.32C27.09 18.37 27.04 18.43 26.96 18.49C26.94 18.41 26.94 18.25 27.04 18.13C27.01 18.13 26.96 18.21 26.92 18.19C26.91 18.12 26.91 18.04 26.93 17.96C26.96 17.87 27.1 17.7 27.1 17.7L27.76 16.52L27.9 15.63L26.38 15.92Z" fill="#806638" fill-opacity="1.000000" fill-rule="evenodd"/>
		<path id="Dog" d="M26.35 15.97C26.35 15.97 26.31 16 26.38 16.05C26.37 16.06 26.35 16.11 26.32 16.15C26.28 16.19 26.24 16.22 26.23 16.25C26.2 16.33 26.17 16.38 26.17 16.41C26.17 16.44 26.16 16.64 26.07 16.77C26.04 16.82 26 16.9 25.98 16.95C25.93 17.04 25.88 17.12 25.87 17.16C25.85 17.23 25.83 17.43 25.83 17.43C25.83 17.43 25.88 17.38 25.9 17.35C25.87 17.41 25.84 17.46 25.8 17.51C25.83 17.49 25.9 17.43 26.03 17.32C26.2 17.18 26.47 16.93 26.8 16.74C26.7 16.78 26.61 16.78 26.55 16.79C26.6 16.73 27.07 16.18 27.32 16.13C27.34 16.11 27.34 16.08 27.34 16.06L27.13 16.04L26.7 16.13L26.64 15.8L26.35 15.97Z" fill="#987938" fill-opacity="1.000000" fill-rule="evenodd"/>
		<path id="Dog" d="M27.03 17.87C27.03 17.87 26.98 17.92 26.92 18.06C26.88 18.02 26.85 17.98 26.82 17.92C26.74 17.79 26.62 17.63 26.34 17.72C26.34 17.63 26.33 17.59 26.34 17.52C26.39 17.51 26.53 17.4 26.67 17.23C26.77 17.12 26.86 16.99 26.93 16.82C26.97 16.79 27.04 16.74 27.13 16.68C27.27 16.58 27.43 16.46 27.46 16.32C27.39 16.34 27.26 16.41 27.06 16.4C27.13 16.36 27.25 16.32 27.24 16.17C27.27 16.14 27.3 16.13 27.3 16.13C27.27 16.12 27.25 16.12 27.22 16.12C27.22 16.1 27.21 16.08 27.18 16.09C27.14 16.1 27.13 16.1 27.13 16.12C27.12 16.12 27.07 16.12 27.03 16.14C27 16.17 26.9 16.25 26.86 16.27C26.87 16.24 26.89 16.21 26.89 16.21C26.89 16.21 26.79 16.22 26.72 16.25C26.58 16.29 26.43 16.38 26.27 16.46C26.28 16.43 26.29 16.42 26.3 16.41C26.31 16.41 26.34 16.4 26.34 16.4C26.34 16.39 26.33 16.36 26.33 16.34C26.38 16.24 26.44 16.15 26.5 16.06C26.57 15.96 26.59 15.82 26.59 15.82L26.91 15.65L27.81 15.45L28.4 15.48L28.33 15.89L27.98 16.6L27.68 17.24L27.35 17.64L27.03 17.87Z" fill="#483925" fill-opacity="1.000000" fill-rule="evenodd"/>
		<path id="Dog" d="M28.5 16.11C28.5 16.11 28.15 16.55 28.05 16.61C28.11 16.48 28.5 15.68 28.64 15.45C28.61 15.43 28.57 15.43 28.67 15.04C28.58 15.23 28.55 15.34 28.49 15.39C28.42 15.44 28.41 15.43 28.36 15.43C28.37 15.41 28.37 15.39 28.37 15.37C28.37 15.37 28.07 15.34 27.87 15.34C27.67 15.34 27.27 15.45 27.04 15.54C26.87 15.61 26.77 15.61 26.71 15.66C26.64 15.71 26.61 15.77 26.57 15.78C26.55 15.79 26.43 15.83 26.4 15.87C26.38 15.91 26.33 15.96 26.33 15.97C26.33 15.98 26.32 16 26.36 15.99C26.37 15.98 26.44 15.94 26.53 15.89C26.65 15.82 26.8 15.74 26.9 15.7C27.2 15.58 27.3 15.6 27.43 15.57C27.57 15.55 27.78 15.49 27.91 15.49C28.05 15.48 28.3 15.49 28.36 15.5C28.33 15.52 28.31 15.54 28.32 15.63C28.32 15.66 28.3 15.69 28.28 15.75C28.22 15.92 28.1 16.21 28.03 16.35C27.94 16.55 27.83 16.71 27.78 16.82C27.73 16.92 27.62 17.19 27.5 17.34C27.39 17.48 27.33 17.57 27.29 17.6C27.26 17.63 27 17.82 27.02 17.89C27.07 17.87 27.36 17.76 27.57 17.53C27.79 17.29 27.83 17.14 28 17.01C28.16 16.88 28.29 16.66 28.37 16.48C28.44 16.31 28.42 16.26 28.5 16.11L28.5 16.11Z" fill="#62593C" fill-opacity="1.000000" fill-rule="evenodd"/>
		<path id="Dog" d="M20.88 19.38C20.88 19.38 20.83 19.57 20.73 19.66C20.62 19.76 20.44 19.84 20.42 19.99C20.39 20.15 20.6 20.23 20.6 20.23C20.6 20.23 20.49 20.41 20.49 20.55C20.49 20.7 20.48 20.73 20.5 20.86C20.48 20.88 20.47 20.89 20.46 20.91C20.46 20.91 20.47 21.04 20.57 21.13C20.67 21.21 20.76 21.26 20.82 21.24C20.82 21.26 20.83 21.27 20.84 21.29C20.84 21.29 20.91 21.09 20.97 20.92C21.02 20.74 21.07 20.77 21.09 20.53C21.11 20.29 21.34 19.89 21.34 19.89L21.49 19.54L21.24 19.34L20.88 19.38Z" fill="#806638" fill-opacity="1.000000" fill-rule="evenodd"/>
		<path id="Dog" d="M21.35 19.72C21.3 19.77 21.25 19.83 21.21 19.89C21.14 19.99 21.09 20.07 20.99 20.1C20.89 20.14 20.83 20.14 20.83 20.24C20.84 20.34 20.93 20.38 20.98 20.43C21.04 20.48 21.09 20.57 21.06 20.67C21.09 20.66 21.15 20.64 21.2 20.53C21.25 20.41 21.62 19.72 21.62 19.72L21.35 19.72Z" fill="#483925" fill-opacity="1.000000" fill-rule="evenodd"/>
		<path id="Dog" d="M22.28 19.4C22.28 19.4 22.19 19.26 22.3 19.14C22.42 19.01 22.58 18.96 22.64 18.88C22.63 18.87 22.61 18.86 22.6 18.85C22.64 18.78 22.7 18.72 22.78 18.68C22.75 18.65 22.71 18.62 22.66 18.62C22.56 18.62 22.49 18.69 22.4 18.69C22.3 18.69 22.29 18.64 22.29 18.64C22.29 18.64 22.45 18.62 22.44 18.56C22.42 18.48 22.39 18.48 22.39 18.48C22.39 18.48 22.69 18.36 22.75 18.29C22.8 18.22 22.79 18.14 22.8 18.11C22.84 18.11 23.05 18 23.13 18.05C23.22 18.1 23.16 18.22 23.16 18.22C23.16 18.22 23.41 18.03 23.54 17.84C23.66 17.85 23.71 17.77 23.79 17.77C23.9 17.77 24.06 17.91 24.09 18.21C24.11 18.38 24.14 18.48 24.11 18.78C24.1 18.96 24.1 19.33 24.15 19.51C24.19 19.65 24.27 19.64 24.27 19.64C24.26 19.68 24.23 19.72 24.2 19.75C24.14 19.81 24.14 19.94 24.14 20C24.15 20.04 24.16 20.07 24.17 20.11C24.17 20.11 24.11 20.19 24.09 20.24C24.07 20.29 24 20.33 23.95 20.33C23.9 20.33 23.93 20.33 23.86 20.33C23.79 20.33 23.77 20.34 23.73 20.33C23.69 20.31 23.66 20.3 23.67 20.16C23.69 20.03 23.15 19.71 23.15 19.71L22.28 19.4L22.28 19.4Z" fill="#B79947" fill-opacity="1.000000" fill-rule="evenodd"/>
		<path id="Dog" d="M21.28 20.73C21.28 20.73 21.47 20.99 22.26 20.99C22.63 20.99 22.76 20.95 22.84 20.93C22.92 20.91 23.24 20.79 23.56 20.41C23.84 20.07 23.78 19.93 23.78 19.93L23.61 19.91L23.07 19.98L21.47 20.66L21.28 20.73L21.28 20.73Z" fill="#62593C" fill-opacity="1.000000" fill-rule="evenodd"/>
		<path id="Dog" d="M21.87 20.8C21.87 20.8 21.18 20.95 21.18 20.52C21.18 20.1 21.6 19.65 21.71 19.58C21.82 19.5 22.08 19.41 22.08 19.41L22.71 19.41L22.83 19.73L22.78 20.41L21.87 20.8Z" fill="#222014" fill-opacity="1.000000" fill-rule="evenodd"/>
		<path id="Dog" d="M22.5 19.54C22.5 19.54 22.36 19.42 22.07 19.58C21.77 19.74 21.53 20.08 21.52 20.39C21.5 20.66 21.74 20.86 22.11 20.87C22.39 20.88 22.55 20.85 22.64 20.83C22.62 20.8 22.51 20.67 22.51 20.67L22.5 19.54Z" fill="#D8C47C" fill-opacity="1.000000" fill-rule="evenodd"/>
		<path id="Dog" d="M22.37 19.61C22.37 19.61 22.33 19.58 22.24 19.63C22.16 19.67 22.05 19.78 21.96 19.86C21.9 19.91 21.87 19.93 21.84 19.96C21.71 20.12 21.6 20.37 21.66 20.5C21.72 20.63 21.93 20.77 22.46 20.67L22.37 19.61L22.37 19.61Z" fill="#E6DB9D" fill-opacity="1.000000" fill-rule="evenodd"/>
		<path id="Dog" d="M22.19 19.87C22.19 19.87 22.11 20 22.11 20.21C22.11 20.42 22.23 20.76 22.67 20.78C23.01 20.8 23.24 20.29 23.48 20.1C23.67 19.94 23.79 19.94 23.79 19.94C23.79 19.94 23.59 19.73 23.08 19.46C22.58 19.19 22.01 19.16 21.7 19.57C21.85 19.56 22.32 19.44 22.32 19.44L22.55 19.52L22.19 19.87Z" fill="#222014" fill-opacity="1.000000" fill-rule="evenodd"/>
		<path id="Dog" d="M22.85 20.14C22.84 20.11 22.83 20.07 22.89 20.06C22.95 20.05 22.98 20.05 23 20.1C23.02 20.15 23.04 20.18 23.01 20.2C22.98 20.22 22.9 20.2 22.85 20.14ZM22.76 19.85C22.76 19.85 22.73 19.86 22.75 19.83C22.75 19.8 22.78 19.73 22.84 19.75C22.91 19.76 22.9 19.84 22.89 19.86C22.87 19.88 22.82 19.91 22.78 19.9C22.77 19.9 22.77 19.89 22.76 19.89C22.76 19.89 22.75 19.88 22.75 19.88C22.75 19.87 22.75 19.87 22.75 19.86C22.75 19.86 22.75 19.85 22.75 19.85L22.76 19.85Z" fill="#62593C" fill-opacity="1.000000" fill-rule="evenodd"/>
		<path id="Dog" d="M17.06 19.98C17.06 19.98 17.22 20.11 17.42 20.1C17.61 20.1 17.85 19.9 17.97 19.77C18.04 19.7 18.09 19.62 18.16 19.56C18.21 19.51 18.24 19.48 18.27 19.45C18.3 19.4 18.34 19.33 18.36 19.3C18.32 19.34 18.25 19.4 18.18 19.44C18.11 19.48 17.97 19.56 17.91 19.58C17.85 19.6 17.26 19.92 17.26 19.92L17.06 19.98Z" fill="#9F8E57" fill-opacity="1.000000" fill-rule="evenodd"/>
		<path id="Dog" d="M17.31 18.42C17.31 18.42 17.4 18.36 17.58 18.32C17.76 18.28 18.1 18.25 18.1 18.25L18.39 18.37L18.5 18.8L18.29 19.25L18.03 19.42L17.73 18.94L17.31 18.43L17.31 18.42Z" fill="#9F8E57" fill-opacity="1.000000" fill-rule="evenodd"/>
		<path id="Dog" d="M16.94 18.81L16.84 18.88C16.84 18.88 16.86 18.84 16.88 18.7C16.9 18.56 17.01 18.21 17.17 18.01C17.33 17.82 17.33 17.83 17.33 17.83C17.31 17.82 17.3 17.82 17.29 17.83C17.27 17.83 17.26 17.84 17.25 17.85C17.27 17.8 17.4 17.63 17.54 17.55C17.67 17.47 17.72 17.44 17.86 17.51C18 17.58 18.04 17.61 18.14 17.61C18.25 17.6 18.34 17.5 18.34 17.5C18.34 17.5 18.36 17.56 18.28 17.72C18.2 17.87 17.89 18.19 17.89 18.19L17.25 18.63L16.94 18.81Z" fill="#D8C47C" fill-opacity="1.000000" fill-rule="evenodd"/>
		<path id="Dog" d="M16.85 18.94C16.85 18.94 16.77 18.99 16.72 19.19C16.67 19.39 16.76 19.64 16.81 19.72C16.86 19.79 16.98 20.01 17.22 20.02C17.28 20.02 17.34 20.01 17.39 19.98C17.47 19.94 17.55 19.89 17.62 19.84C17.73 19.76 17.81 19.69 17.8 19.69C17.78 19.67 17.16 19.17 17.16 19.17L16.94 18.91L16.85 18.94Z" fill="#62593C" fill-opacity="1.000000" fill-rule="evenodd"/>
		<path id="Dog" d="M17.43 19.78C17.43 19.78 17.56 19.77 17.63 19.72C17.7 19.68 17.2 19.17 17.2 19.17L17.23 19.72L17.43 19.78Z" fill="#483925" fill-opacity="1.000000" fill-rule="evenodd"/>
		<path id="Dog" d="M16.89 18.9C16.89 18.9 16.83 19.02 16.83 19.05C16.82 19.16 16.85 19.48 16.88 19.58C16.9 19.69 17.04 19.86 17.22 19.86C17.33 19.86 17.48 19.79 17.48 19.78C17.48 19.76 17.32 19.73 17.28 19.66C17.25 19.61 17.24 19.51 17.24 19.41C17.23 19.34 17.23 19.27 17.26 19.24C17.32 19.18 17.33 19 17.33 19L17.53 18.62L17.26 18.62L16.94 18.82L16.89 18.9Z" fill="#987938" fill-opacity="1.000000" fill-rule="evenodd"/>
		<path id="Dog" d="M16.82 19.02C16.82 19.02 17.02 18.74 17.21 18.68C17.4 18.62 17.48 18.65 17.48 18.65L17.37 18.93L17.22 19.11L17.23 19.2C17.23 19.2 17.2 19.43 17.36 19.59C17.52 19.75 17.63 19.75 17.7 19.75C17.77 19.75 17.96 19.69 18.06 19.46C18.15 19.24 18.22 18.96 18.04 18.68C17.87 18.4 17.57 18.38 17.51 18.38C17.45 18.38 16.98 18.41 16.82 19.02Z" fill="#222014" fill-opacity="1.000000" fill-rule="evenodd"/>
		<path id="Dog" d="M22.16 19.96C22.08 19.92 22.16 19.7 22.24 19.63C22.31 19.57 22.41 19.49 22.58 19.48C22.65 19.47 22.71 19.51 22.7 19.56C22.68 19.63 22.58 19.74 22.48 19.82C22.34 19.93 22.25 20 22.16 19.96Z" fill="#FFFFFF" fill-opacity="1.000000" fill-rule="evenodd"/>
		<path id="Dog" d="M17.95 18.76C18.01 18.76 18.08 18.8 18.1 18.86C18.11 18.93 18.06 19.07 17.95 19.07C17.86 19.07 17.82 18.96 17.82 18.93C17.82 18.9 17.82 18.87 17.84 18.85C17.84 18.85 17.85 18.77 17.95 18.76Z" fill="#FFFFFF" fill-opacity="1.000000" fill-rule="evenodd"/>
		<path id="Dog" d="M17.13 18.81C17.13 18.81 16.98 18.88 16.92 19.02C16.87 19.12 16.85 19.24 16.87 19.35C16.89 19.4 16.94 19.53 16.97 19.58C17.01 19.63 17.06 19.66 17.09 19.65C17.13 19.65 17.2 19.56 17.2 19.5C17.2 19.44 17.21 19.2 17.28 19.07C17.34 18.94 17.13 18.81 17.13 18.81L17.13 18.81Z" fill="#D8C47C" fill-opacity="1.000000" fill-rule="evenodd"/>
		<path id="Dog" d="M17.15 18.8C17.12 18.81 17.08 18.84 17.09 18.86C17.1 18.89 17.19 18.9 17.22 18.97C17.26 19.03 17.26 19.1 17.25 19.13C17.28 19.11 17.3 19.1 17.32 19.08C17.37 19.02 17.43 18.95 17.47 18.95C17.51 18.95 17.54 18.97 17.57 18.97C17.61 18.97 17.66 18.95 17.67 18.9C17.68 18.84 17.58 18.78 17.52 18.79C17.53 18.75 17.55 18.69 17.5 18.65C17.45 18.61 17.31 18.68 17.28 18.7C17.25 18.72 17.15 18.8 17.15 18.8Z" fill="#E6DB9D" fill-opacity="1.000000" fill-rule="evenodd"/>
		<path id="Dog" d="M20.5 23.22L20.81 23.13L20.9 23.19C20.9 23.19 20.96 23.33 21.06 23.35C21.03 23.41 20.95 23.47 20.95 23.52C20.95 23.57 21 23.6 21 23.6C21 23.6 20.72 24.07 21.27 24.53C21.14 24.59 20.97 24.66 20.88 24.7C20.95 24.71 21.08 24.74 21.14 24.79C21.19 24.84 21.19 24.86 21.25 24.89C21.3 24.92 21.33 24.96 21.32 24.98C21.28 24.96 21.16 24.9 21.14 24.96C21.12 25.02 20.62 24.99 20.62 24.99L19.78 25.16C19.78 25.16 19.81 25.07 19.72 24.99C19.62 24.9 19.5 25 19.36 24.89C19.18 24.76 19.18 24.6 19.12 24.55C19.18 24.51 19.29 24.46 19.57 24.42C19.56 24.4 19.52 24.34 19.54 24.28C19.57 24.21 19.67 24.16 19.64 24.07C19.69 24.06 19.71 24.06 19.83 23.92C19.93 23.77 20 23.74 20.09 23.73C20.17 23.72 20.22 23.73 20.38 23.58C20.49 23.48 20.45 23.39 20.45 23.39C20.45 23.39 20.52 23.37 20.5 23.22Z" fill="#CAAE5B" fill-opacity="1.000000" fill-rule="evenodd"/>
		<path id="Dog" d="M17.24 26.46C17.26 26.48 17.28 26.5 17.3 26.51C17.35 26.54 17.43 26.59 17.48 26.65C17.5 26.62 17.55 26.56 17.65 26.65C17.74 26.74 17.85 26.67 17.93 26.7C18 26.72 18 26.73 18 26.73C18 26.73 18.05 26.7 18.14 26.66C18.2 26.64 18.26 26.62 18.34 26.6C18.4 26.59 18.48 26.56 18.53 26.56C18.58 26.6 18.74 26.77 19.41 26.51C20.04 26.27 20.18 26.24 20.29 26.28C20.3 26.25 20.31 26.2 20.47 26.21C20.47 26.14 20.34 25.91 20.34 25.91L19.59 25.66L19.19 25.66L17.97 25.88L17.29 26.27L17.24 26.46L17.24 26.46Z" fill="#CAAE5B" fill-opacity="1.000000" fill-rule="evenodd"/>
		<path id="Dog" d="M16.83 26.03C16.83 26.03 16.85 26.15 17.02 26.27C17.18 26.39 17.24 26.46 17.24 26.46C17.24 26.46 17.27 26.42 17.29 26.38C17.32 26.33 17.34 26.28 17.38 26.26C17.46 26.23 17.66 26.29 17.7 26.28C17.73 26.27 17.72 26.2 17.76 26.2C17.85 26.19 17.91 26.26 17.94 26.26C17.97 26.26 18.05 26.25 18.06 26.23C18.07 26.22 18.07 26.04 18.19 25.96C18.32 25.87 18.48 25.91 18.53 25.93C18.53 25.96 18.53 26.04 18.62 26.04C18.7 26.04 18.71 26.03 18.78 26.06C18.86 26.08 18.94 26.05 18.98 26.17C19.02 26.16 19.1 26.15 19.08 26.03C19.12 26 19.16 25.98 19.25 25.86C19.27 25.83 19.31 25.79 19.33 25.74C19.41 25.74 19.5 25.73 19.61 25.83C19.58 25.86 19.56 25.87 19.55 25.9C19.58 25.93 19.6 25.96 19.63 26C19.66 26.04 19.68 26.09 19.72 26.1C19.81 26.13 19.96 26.09 20.12 26.1C20.27 26.11 20.41 26.17 20.46 26.2C20.48 26.19 20.48 26.19 20.54 26.2C20.59 26.21 20.63 26.22 20.57 26.15C20.6 26.16 20.64 26.19 20.67 26.16C20.7 26.13 20.73 26.08 20.82 26.07C20.9 26.06 20.94 26.08 20.97 25.99C21.02 25.87 20.86 25.87 20.86 25.87C20.86 25.87 20.93 25.8 21.01 25.72C21.11 25.62 21.23 25.5 21.25 25.36C21.3 25.08 21.04 25.05 21.04 25.05L19.75 25.44L18.18 25.37L16.83 26.03L16.83 26.03Z" fill="#987938" fill-opacity="1.000000" fill-rule="evenodd"/>
		<path id="Dog" d="M15.68 22.32C15.68 22.32 15.64 22.37 15.61 22.49C15.58 22.62 15.6 22.6 15.57 22.69C15.55 22.78 15.29 23.66 15.39 23.96C15.49 24.25 15.66 24.36 15.76 24.6C15.78 24.66 15.8 24.69 15.81 24.73C15.85 24.89 15.82 25.01 15.86 25.17C15.88 25.22 15.91 25.28 15.97 25.34C16.1 25.47 16.3 25.6 16.39 25.69C16.51 25.82 16.69 26.08 16.91 26.11C17.03 26.12 17.2 26.07 17.34 25.99C17.47 25.91 17.55 25.8 17.68 25.74C17.77 25.69 17.87 25.67 17.96 25.65C18.14 25.62 18.31 25.61 18.41 25.63C18.56 25.66 18.92 25.77 19.11 25.77C19.27 25.77 19.42 25.75 19.57 25.71C19.87 25.62 20.24 25.47 20.48 25.4C20.62 25.36 20.73 25.35 20.85 25.33C21.05 25.28 21.21 25.22 21.31 25.1C21.25 25.02 21.17 24.91 20.75 24.91C20.27 24.92 19.72 25.19 19.44 25.23C19.17 25.27 19.05 25.31 18.75 25.2C18.45 25.09 18.44 25.01 18.44 25.01C18.44 25.01 18.13 24.8 18 24.24C17.87 23.68 18 23.28 18.34 22.89C18.43 22.79 18.41 22.71 18.41 22.71C18.41 22.71 18.63 22.4 18.57 22.12C18.5 21.84 18.07 21.9 18.07 21.9L15.68 22.32Z" fill="#62593C" fill-opacity="1.000000" fill-rule="evenodd"/>
		<path id="Dog" d="M15.78 21.85C15.77 21.87 15.75 21.88 15.73 21.9C15.8 21.69 15.91 21.56 16.17 21.44C16.43 21.32 16.93 21.3 17.49 21.47C18.05 21.64 18.42 21.8 18.42 22.17C18.42 22.3 18.36 22.37 18.25 22.46C18.21 22.5 18.17 22.54 18.12 22.59C18.03 22.68 17.94 22.8 17.85 22.91C17.82 22.95 17.79 22.99 17.76 23.03C17.66 23.15 17.57 23.26 17.47 23.34C17.6 23.31 17.66 23.32 17.68 23.36C17.69 23.37 17.62 23.4 17.53 23.43C17.38 23.49 17.17 23.57 17.18 23.67C17.18 23.7 17.32 23.75 17.45 23.8C17.57 23.85 17.7 23.89 17.72 23.92C17.74 23.96 17.76 24 17.78 24.03C17.79 24.08 17.79 24.17 17.72 24.22C17.65 24.27 17.57 24.22 17.45 24.16C17.44 24.15 17.43 24.14 17.42 24.14C17.26 24.05 17.07 23.86 17.07 23.86C17.03 23.89 16.99 23.9 16.94 23.9C16.89 23.91 16.84 23.93 16.8 23.95C16.8 23.95 16.67 23.59 16.52 23.67C16.38 23.73 16.35 23.74 16.34 23.74C16.34 23.74 16.34 23.74 16.34 23.74C16.34 23.74 16.34 23.74 16.34 23.74C16.34 23.75 16.33 23.8 16.2 23.67C16.03 23.5 16.02 23.43 16.01 23.37C16.01 23.34 16.02 23.31 16.03 23.28C15.88 23.13 15.77 22.95 15.7 22.74C15.55 22.27 15.72 21.96 15.77 21.87C15.78 21.86 15.78 21.86 15.78 21.85Z" fill="#222014" fill-opacity="1.000000" fill-rule="nonzero"/>
		<path id="Dog" d="M18.43 24.44C18.43 24.44 18.39 24.46 18.39 24.47C18.39 24.48 18.39 24.49 18.39 24.5C18.39 24.51 18.44 24.5 18.44 24.49C18.44 24.49 18.43 24.45 18.43 24.44Z" fill="#62593C" fill-opacity="1.000000" fill-rule="evenodd"/>
		<path id="Dog" d="M18.12 24.34C18.14 24.35 18.17 24.34 18.2 24.35C18.22 24.36 18.24 24.38 18.22 24.41C18.2 24.43 18.17 24.47 18.13 24.47C18.08 24.46 18.02 24.43 18.02 24.41C18.02 24.4 18.03 24.39 18.03 24.37C18.03 24.36 18.04 24.35 18.05 24.34C18.07 24.32 18.08 24.33 18.12 24.34Z" fill="#62593C" fill-opacity="1.000000" fill-rule="evenodd"/>
		<path id="Dog" d="M15.69 24.53C15.71 24.53 15.72 24.53 15.74 24.53C15.77 24.52 16.1 24.4 16.44 24.43C16.7 24.44 16.95 24.48 17.2 24.55C17.63 24.66 18.17 24.89 18.52 25.02C18.61 25.05 18.7 25.12 18.77 25.14C19.03 25.25 19.04 25.25 19.2 25.27C19.38 25.3 19.57 25.24 19.76 25.19C20 25.14 20.42 25.12 20.78 25.06C20.89 25.05 21.01 25.02 21.12 24.99C21.12 24.99 20.83 25.27 20.15 25.38C19.87 25.42 19.59 25.42 19.31 25.39C19.09 25.36 18.94 25.33 18.83 25.3C18.71 25.27 18.45 25.17 18.14 25.09C17.92 25.04 17.68 24.99 17.4 24.94C16.71 24.82 15.96 24.67 15.69 24.53L15.69 24.53Z" fill="#222014" fill-opacity="1.000000" fill-rule="evenodd"/>
		<path id="Dog" d="M15.25 21.65C15.27 21.68 15.3 21.71 15.33 21.73C15.26 21.67 15.19 21.6 15.12 21.53C15.04 21.45 14.97 21.39 14.9 21.32L14.68 21.12C14.66 21.1 14.64 21.08 14.62 21.06C14.6 21.05 14.58 21.03 14.57 21.01L14.46 20.91C14.17 20.63 13.88 20.36 13.58 20.09C13.8 20.31 14.03 20.52 14.26 20.74L14.26 20.74L14.26 20.74C14.32 20.8 14.39 20.86 14.45 20.92C14.47 20.94 14.49 20.95 14.51 20.97C14.53 20.99 14.55 21 14.56 21.02C14.58 21.04 14.6 21.05 14.62 21.07C14.64 21.09 14.66 21.1 14.67 21.12L14.89 21.33C14.97 21.4 15.04 21.47 15.11 21.53C15.15 21.57 15.2 21.61 15.25 21.65Z" fill="#B79947" fill-opacity="1.000000" fill-rule="nonzero"/>
		<path id="Dog" d="M14.8 22.14C14.79 22.14 14.77 22.13 14.75 22.13C14.69 22.12 14.64 22.11 14.58 22.1L14.14 22.03L13.25 21.88C13.22 21.88 13.19 21.88 13.16 21.87C13.12 21.87 13.08 21.86 13.03 21.85L12.81 21.83C12.75 21.82 12.68 21.81 12.62 21.81C12.54 21.8 12.45 21.79 12.37 21.78C12.07 21.75 11.78 21.72 11.48 21.69L11.48 21.69L11.48 21.69L11.5 21.7C11.76 21.74 12.03 21.77 12.3 21.8L13.79 22.01L14.14 22.06L14.58 22.12C14.72 22.14 14.87 22.16 15.02 22.18C14.98 22.17 14.94 22.16 14.89 22.16L15.02 22.17C15.02 22.17 14.94 22.16 14.8 22.14ZM11.48 21.69L11.48 21.69L11.48 21.69L11.48 21.69ZM14.8 22.14C14.37 22.07 13.41 21.93 13.05 21.88C12.56 21.81 11.58 21.7 11.48 21.69C11.49 21.69 11.49 21.7 11.5 21.7L12.3 21.8C12.32 21.81 12.34 21.81 12.37 21.81C12.42 21.82 12.48 21.83 12.53 21.83C12.63 21.84 12.72 21.86 12.81 21.87L13.03 21.89C13.07 21.9 13.11 21.9 13.14 21.91C13.18 21.92 13.21 21.92 13.25 21.93L13.79 22.01L14.89 22.16C14.86 22.15 14.83 22.14 14.8 22.14Z" fill="#B79947" fill-opacity="1.000000" fill-rule="evenodd"/>
		<path id="Dog" d="M14.92 22.45L14.9 22.45C14.66 22.53 14.41 22.59 14.16 22.66L14.01 22.7L12.84 23.03C12.78 23.05 12.72 23.06 12.66 23.08L12.29 23.19C12.23 23.2 12.17 23.22 12.11 23.23L11.9 23.29C11.9 23.29 11.92 23.29 11.97 23.27C11.95 23.28 11.93 23.28 11.91 23.29L11.92 23.28C12.04 23.24 12.16 23.2 12.28 23.17L12.66 23.05C12.78 23.01 12.9 22.97 13.03 22.93C13.15 22.9 13.28 22.86 13.41 22.82C13.51 22.79 13.62 22.77 13.72 22.74C13.87 22.7 14.02 22.66 14.16 22.63C14.41 22.57 14.66 22.51 14.91 22.45L14.91 22.45L14.92 22.45L14.91 22.45L14.92 22.45Z" fill="#B79947" fill-opacity="1.000000" fill-rule="nonzero"/>
		<path id="Dog" d="M12.06 23.99C12.06 23.99 12.06 23.99 12.06 23.99C12.11 23.97 12.16 23.95 12.21 23.92C12.25 23.91 12.28 23.89 12.32 23.88C12.44 23.82 12.57 23.77 12.69 23.72L13.33 23.44C13.38 23.42 13.44 23.39 13.49 23.37C13.65 23.3 13.81 23.24 13.96 23.16C14.06 23.11 14.16 23.07 14.26 23.03C14.37 22.98 14.49 22.93 14.6 22.88C14.57 22.89 14.54 22.89 14.52 22.9L14.59 22.87C14.59 22.87 14.53 22.89 14.44 22.92C14.44 22.92 14.43 22.93 14.43 22.93L14.26 22.98C14.15 23.01 14.04 23.05 13.94 23.1C13.8 23.16 13.67 23.22 13.54 23.29C13.46 23.33 13.39 23.36 13.31 23.4L12.68 23.7L12.41 23.83C12.36 23.85 12.32 23.87 12.29 23.89L12.06 23.99ZM12.29 23.89L12.33 23.86C12.32 23.87 12.31 23.87 12.31 23.88L12.3 23.88C12.27 23.89 12.24 23.91 12.21 23.92C12.18 23.94 12.14 23.95 12.11 23.96C12.15 23.95 12.21 23.92 12.29 23.89Z" fill="#B79947" fill-opacity="1.000000" fill-rule="evenodd"/>
		<path id="Dog" d="M12.19 24.57L12.89 24.2L13.23 24.01C13.35 23.95 13.46 23.88 13.57 23.82C13.64 23.78 13.71 23.74 13.77 23.7C13.82 23.68 13.86 23.65 13.91 23.63C13.97 23.59 14.02 23.56 14.08 23.53C14.14 23.5 14.2 23.47 14.25 23.44C14.29 23.42 14.32 23.41 14.35 23.39C14.55 23.28 14.74 23.18 14.93 23.06C14.71 23.15 14.5 23.25 14.28 23.36C14.26 23.37 14.24 23.38 14.22 23.39L14.04 23.47C13.98 23.5 13.93 23.53 13.87 23.56C13.78 23.61 13.7 23.66 13.61 23.71C13.58 23.73 13.56 23.74 13.53 23.76C13.51 23.77 13.48 23.79 13.46 23.8L13.46 23.8C13.37 23.85 13.28 23.9 13.19 23.96L12.86 24.16C12.68 24.27 12.51 24.38 12.34 24.48C12.29 24.51 12.25 24.54 12.21 24.56C12.2 24.57 12.19 24.57 12.19 24.57Z" fill="#B79947" fill-opacity="1.000000" fill-rule="nonzero"/>
		<path id="Dog" d="M14.91 23.23L14.92 23.23L14.91 23.23C14.8 23.31 14.69 23.39 14.58 23.47C14.52 23.52 14.45 23.57 14.38 23.62L14.04 23.88L13.62 24.2C13.58 24.22 13.55 24.25 13.52 24.27L13.52 24.27C13.46 24.31 13.39 24.36 13.33 24.4C13.16 24.53 12.99 24.66 12.82 24.79L12.82 24.8L12.82 24.8C12.82 24.8 12.82 24.8 12.81 24.8C13 24.68 13.18 24.56 13.35 24.43C13.44 24.36 13.53 24.3 13.62 24.23C13.71 24.17 13.79 24.1 13.88 24.03L14.4 23.63C14.57 23.5 14.75 23.37 14.91 23.23C14.91 23.23 14.91 23.23 14.91 23.23Z" fill="#B79947" fill-opacity="1.000000" fill-rule="nonzero"/>
		<path id="Dog" d="M19.58 23.27C19.58 23.25 19.6 23.24 19.71 23.25C19.78 23.26 20.09 23.23 20.36 23.2C20.52 23.19 20.67 23.17 20.74 23.17C20.94 23.16 21.64 23.17 21.97 23.24C22.31 23.31 22.66 23.39 22.82 23.44C22.99 23.48 23.04 23.5 23.04 23.52C23.03 23.54 22.99 23.56 22.97 23.56C22.97 23.55 22.92 23.54 22.86 23.52C22.68 23.47 22.35 23.37 22.23 23.35C22.06 23.31 21.47 23.22 21.15 23.22C21.07 23.22 21.01 23.22 20.96 23.22C20.78 23.23 20.66 23.23 20.47 23.25C20.22 23.28 19.79 23.32 19.67 23.31C19.56 23.29 19.57 23.29 19.57 23.28C19.57 23.28 19.58 23.27 19.58 23.27L19.58 23.27Z" fill="#B79947" fill-opacity="1.000000" fill-rule="nonzero"/>
		<path id="Dog" d="M14 24.7C14.06 24.65 14.12 24.6 14.18 24.55C14.22 24.51 14.26 24.47 14.31 24.44C14.36 24.39 14.4 24.35 14.45 24.3C14.5 24.26 14.55 24.21 14.6 24.17C14.66 24.11 14.72 24.06 14.79 24C14.83 23.97 14.86 23.94 14.9 23.91C14.91 23.9 14.93 23.88 14.95 23.87C14.98 23.84 15.01 23.81 15.04 23.78C15.05 23.77 15.06 23.77 15.06 23.76C15.08 23.74 15.09 23.73 15.11 23.71C15.12 23.7 15.13 23.69 15.14 23.68C15.15 23.67 15.16 23.66 15.17 23.65L15.18 23.64C15.18 23.64 15.18 23.65 15.18 23.65C15.17 23.65 15.17 23.65 15.17 23.65C15.17 23.64 15.18 23.64 15.18 23.64C15.15 23.64 15.13 23.66 15.11 23.67C15.1 23.68 15.1 23.68 15.09 23.69C15.06 23.7 15.03 23.72 15.01 23.74C14.96 23.79 14.91 23.83 14.86 23.88C14.82 23.92 14.78 23.96 14.74 24C14.69 24.06 14.64 24.11 14.58 24.16C14.54 24.21 14.5 24.25 14.45 24.29C14.45 24.29 14.44 24.29 14.44 24.3L14.29 24.43C14.19 24.52 14.09 24.61 14 24.7L14 24.7Z" fill="#B79947" fill-opacity="1.000000" fill-rule="nonzero"/>
		<path id="Dog" d="M15.25 23.86L15.26 23.86C15.18 23.92 15.11 23.99 15.04 24.06L15.01 24.09L14.74 24.35C14.7 24.38 14.66 24.41 14.63 24.45L14.54 24.54L14.43 24.64C14.44 24.63 14.44 24.63 14.45 24.62L14.43 24.64C14.49 24.6 14.54 24.55 14.59 24.51C14.61 24.49 14.63 24.48 14.65 24.46C14.7 24.42 14.74 24.37 14.78 24.33C14.8 24.3 14.83 24.28 14.85 24.26L15.06 24.06C15.13 24 15.19 23.93 15.25 23.86Z" fill="#B79947" fill-opacity="1.000000" fill-rule="nonzero"/>
		<path id="Dog" d="M14.51 25.76L14.51 25.75C14.56 25.63 14.62 25.52 14.68 25.42C14.68 25.4 14.69 25.39 14.7 25.37C14.71 25.36 14.71 25.35 14.72 25.33L15 24.78C15.01 24.77 15.02 24.75 15.02 24.74C15.05 24.69 15.07 24.65 15.08 24.6C15.1 24.58 15.11 24.55 15.12 24.53C15.14 24.49 15.15 24.45 15.17 24.41C15.18 24.4 15.19 24.39 15.19 24.37C15.22 24.32 15.25 24.27 15.29 24.22C15.29 24.3 15.27 24.37 15.24 24.44C15.22 24.5 15.19 24.57 15.16 24.63C15.12 24.7 15.09 24.76 15.05 24.83C15.04 24.85 15.03 24.87 15.02 24.89C14.99 24.93 14.97 24.97 14.94 25.01L14.73 25.39C14.72 25.41 14.7 25.44 14.69 25.47C14.63 25.56 14.57 25.66 14.51 25.76C14.51 25.76 14.51 25.75 14.51 25.75C14.51 25.75 14.51 25.76 14.51 25.76Z" fill="#B79947" fill-opacity="1.000000" fill-rule="nonzero"/>
		<path id="Dog" d="M15.85 26.58C15.83 26.23 16.04 25.95 16.04 25.95C16 26.05 15.96 26.2 15.92 26.34C15.89 26.42 15.87 26.51 15.85 26.58Z" fill="#B79947" fill-opacity="1.000000" fill-rule="nonzero"/>
		<path id="Dog" d="M16.1 27.34C16.16 26.98 16.24 26.23 16.24 26.23C16.21 26.83 16.19 26.91 16.14 27.17C16.13 27.22 16.11 27.27 16.1 27.34Z" fill="#B79947" fill-opacity="1.000000" fill-rule="nonzero"/>
		<path id="Dog" d="M17.61 27.4C17.61 27.39 17.61 27.39 17.61 27.39L17.61 27.39C17.61 27.39 17.61 27.4 17.61 27.4Z" fill="#B79947" fill-opacity="1.000000" fill-rule="nonzero"/>
		<path id="Dog" d="M17.61 27.4C17.57 27.51 17.3 28.32 17.3 28.56C17.31 28.51 17.32 28.46 17.34 28.4C17.41 28.12 17.51 27.71 17.61 27.4Z" fill="#B79947" fill-opacity="1.000000" fill-rule="nonzero"/>
		<path id="Dog" d="M18.34 25.89C18.34 25.89 18.85 26.73 19.23 27.44C19.12 27.08 18.89 26.42 18.34 25.89Z" fill="#B79947" fill-opacity="1.000000" fill-rule="nonzero"/>
		<path id="Dog" d="M19.7 27.12C19.98 27.61 20.23 28.12 20.45 28.63C20.41 28.28 20.29 27.66 19.7 27.12Z" fill="#B79947" fill-opacity="1.000000" fill-rule="nonzero"/>
		<path id="Dog" d="M18.04 23.15C18.01 23.14 17.97 23.17 17.98 23.18L17.98 23.18C18.01 23.22 18.19 23.32 18.22 23.32C18.24 23.33 18.29 23.3 18.29 23.29C18.29 23.29 18.28 23.28 18.27 23.27C18.26 23.25 18.23 23.22 18.22 23.2C18.24 23.22 18.3 23.2 18.3 23.19C18.31 23.18 18.29 23.15 18.29 23.13C18.28 23.12 18.28 23.12 18.28 23.11C18.27 23.11 18.26 23.11 18.25 23.11C18.24 23.11 18.23 23.12 18.22 23.12C18.22 23.13 18.21 23.13 18.21 23.14C18.21 23.15 18.2 23.16 18.2 23.16C18.2 23.16 18.2 23.15 18.19 23.15C18.19 23.15 18.15 23.14 18.14 23.15C18.14 23.15 18.14 23.15 18.13 23.16C18.13 23.16 18.12 23.17 18.1 23.17C18.08 23.17 18.08 23.16 18.07 23.16C18.06 23.15 18.05 23.15 18.04 23.15Z" fill="#62593C" fill-opacity="1.000000" fill-rule="nonzero"/>
		<path id="Dog" d="M18.37 22.57C18.35 22.59 18.26 22.79 18.25 22.83C18.25 22.82 18.24 22.81 18.23 22.8C18.22 22.8 18.17 22.8 18.17 22.83C18.17 22.85 18.21 22.99 18.26 23.07C18.27 23.08 18.28 23.1 18.29 23.11C18.33 23.16 18.35 23.21 18.38 23.22C18.39 23.22 18.41 23.22 18.42 23.22C18.43 23.22 18.44 23.21 18.45 23.2C18.45 23.19 18.46 23.11 18.46 22.93C18.45 22.74 18.45 22.57 18.44 22.56C18.42 22.55 18.38 22.55 18.37 22.57Z" fill="#62593C" fill-opacity="1.000000" fill-rule="evenodd"/>
		<path id="Dog" d="M18.45 23.59C18.45 23.58 18.45 23.58 18.44 23.57C18.44 23.57 18.44 23.56 18.45 23.56C18.46 23.55 18.51 23.52 18.52 23.53C18.53 23.54 18.53 23.54 18.53 23.56C18.52 23.56 18.52 23.57 18.52 23.58C18.52 23.6 18.52 23.62 18.51 23.63C18.5 23.65 18.46 23.66 18.44 23.66C18.41 23.65 18.41 23.62 18.41 23.62C18.42 23.61 18.45 23.6 18.45 23.59Z" fill="#62593C" fill-opacity="1.000000" fill-rule="nonzero"/>
		<path id="Dog" d="M18.81 23.36C18.81 23.35 18.84 23.33 18.86 23.33C18.89 23.33 18.89 23.35 18.9 23.36C18.9 23.36 18.9 23.36 18.9 23.36C18.9 23.37 18.9 23.37 18.91 23.37C18.91 23.37 18.91 23.37 18.92 23.38C18.93 23.4 18.94 23.43 18.93 23.45C18.92 23.47 18.88 23.49 18.87 23.48C18.86 23.47 18.81 23.38 18.81 23.36Z" fill="#62593C" fill-opacity="1.000000" fill-rule="nonzero"/>
		<path id="Dog" d="M17.99 23.57C18.08 23.54 18.13 23.49 18.13 23.49C18.12 23.47 18.11 23.45 18.09 23.43C18.07 23.41 18.05 23.4 18.03 23.4C17.98 23.38 17.92 23.4 17.88 23.47C17.83 23.53 17.86 23.57 17.88 23.6L17.88 23.6C17.89 23.6 17.9 23.59 17.92 23.59C17.92 23.6 17.92 23.61 17.94 23.62C17.95 23.63 17.96 23.64 17.97 23.65C18 23.66 18.03 23.68 18.04 23.71C18.05 23.73 18.05 23.75 18.05 23.76C18.06 23.77 18.06 23.77 18.06 23.78C18.07 23.78 18.14 23.78 18.18 23.76C18.18 23.75 18.19 23.75 18.2 23.74C18.24 23.72 18.28 23.7 18.28 23.69L18.28 23.69C18.28 23.68 18.16 23.6 18.04 23.57C18.03 23.57 18.02 23.57 18.02 23.58C18.01 23.58 18.01 23.58 18 23.58C18 23.58 17.99 23.58 17.99 23.57Z" fill="#62593C" fill-opacity="1.000000" fill-rule="nonzero"/>
		<path id="Dog" d="M16.51 23.53C16.47 24.08 16.59 24.2 16.59 24.2C16.73 23.97 16.66 23.55 16.66 23.55C16.61 23.53 16.56 23.53 16.51 23.53Z" fill="#62593C" fill-opacity="1.000000" fill-rule="nonzero"/>
		<path id="Dog" d="M17.57 24.34L17.53 24.36C17.53 24.36 17.56 24.39 17.65 24.39C17.72 24.39 17.73 24.34 17.74 24.31C17.74 24.28 17.71 24.19 17.65 24.18C17.58 24.17 17.57 24.34 17.57 24.34Z" fill="#62593C" fill-opacity="1.000000" fill-rule="nonzero"/>
		<path id="Dog" d="M17.34 23.65C17.34 23.65 17.38 23.64 17.43 23.69C17.44 23.69 17.45 23.69 17.47 23.69C17.54 23.68 17.67 23.68 17.71 23.71C17.77 23.74 17.79 23.77 17.79 23.77C17.79 23.77 17.57 23.82 17.46 23.77C17.34 23.73 17.34 23.65 17.34 23.65Z" fill="#62593C" fill-opacity="1.000000" fill-rule="nonzero"/>
		<path id="Dog" d="M17.21 24.11C17.21 24.11 17.23 23.97 17.37 23.96C17.52 23.95 17.55 24.09 17.55 24.09L17.46 24.18C17.46 24.17 17.4 24.09 17.21 24.11L17.21 24.11Z" fill="#62593C" fill-opacity="1.000000" fill-rule="nonzero"/>
		<path id="Dog" d="M18.07 23.91C18.07 23.91 17.99 23.86 17.92 23.89C17.85 23.92 17.86 24.05 17.86 24.05C17.87 24.05 17.89 24.05 17.91 24.05C17.92 24.05 17.94 24.05 17.95 24.04C18 24 18.06 23.95 18.07 23.91Z" fill="#62593C" fill-opacity="1.000000" fill-rule="nonzero"/>
		<path id="Dog" d="M18.18 24.03C18.19 24.04 18.2 24.05 18.21 24.07L18.21 24.07C18.21 24.08 18.21 24.1 18.21 24.12C18.21 24.16 18.22 24.21 18.25 24.21C18.3 24.21 18.35 24.12 18.35 24.09C18.34 24.06 18.3 24.03 18.28 24.01C18.27 24.01 18.26 24 18.25 24C18.24 23.98 18.22 23.97 18.21 23.97C18.2 23.97 18.19 23.98 18.18 23.98C18.17 23.99 18.17 24 18.16 24.01C18.16 24.02 18.17 24.02 18.18 24.03Z" fill="#62593C" fill-opacity="1.000000" fill-rule="nonzero"/>
		<path id="Dog" d="M18.53 24.01C18.53 24.04 18.61 24.01 18.61 24.01C18.62 24.02 18.62 24.02 18.62 24.03C18.62 24.06 18.63 24.09 18.67 24.1C18.72 24.11 18.79 24.07 18.79 24.05C18.78 24.03 18.77 24.01 18.76 23.99C18.75 23.98 18.75 23.98 18.75 23.97C18.75 23.97 18.75 23.97 18.75 23.96C18.73 23.94 18.67 23.97 18.67 23.97C18.66 23.96 18.65 23.96 18.64 23.96C18.62 23.96 18.6 23.97 18.59 23.98C18.56 23.98 18.54 23.99 18.53 24.01Z" fill="#62593C" fill-opacity="1.000000" fill-rule="nonzero"/>
		<path id="Dog" d="M19.11 23.95C19.13 23.93 19.1 23.92 19.1 23.92C19.1 23.92 19.15 23.92 19.16 23.91C19.17 23.88 19.15 23.87 19.12 23.87C19.1 23.88 19 23.89 18.97 23.89C18.96 23.89 18.95 23.89 18.94 23.9C18.93 23.9 18.93 23.91 18.92 23.91C18.89 23.92 18.84 23.97 18.84 23.99C18.84 24 18.87 24 18.91 24C18.92 24 18.94 24 18.96 24C19.02 23.99 19.09 23.97 19.11 23.95Z" fill="#62593C" fill-opacity="1.000000" fill-rule="nonzero"/>
		<path id="Dog" d="M19.18 23.34C19.22 23.34 19.25 23.27 19.25 23.27C19.27 23.29 19.29 23.28 19.31 23.26C19.32 23.25 19.36 23.2 19.36 23.18C19.36 23.16 19.33 23.15 19.3 23.15C19.27 23.15 19.24 23.16 19.21 23.18C19.18 23.18 19.15 23.2 19.15 23.22C19.14 23.25 19.17 23.25 19.18 23.25C19.18 23.25 19.17 23.27 19.16 23.28C19.15 23.29 19.15 23.3 19.15 23.31C19.15 23.32 19.15 23.33 19.18 23.34Z" fill="#62593C" fill-opacity="1.000000" fill-rule="nonzero"/>
		<path id="Dog" d="M18.73 24.54C18.73 24.52 18.77 24.51 18.77 24.51L18.77 24.52C18.77 24.52 18.77 24.5 18.76 24.49C18.75 24.49 18.75 24.49 18.75 24.49C18.75 24.48 18.74 24.48 18.78 24.46C18.81 24.43 18.82 24.46 18.82 24.46C18.84 24.45 18.85 24.44 18.87 24.45C18.9 24.45 18.92 24.46 18.93 24.5C18.93 24.52 18.91 24.53 18.89 24.54C18.86 24.55 18.84 24.56 18.81 24.56C18.79 24.56 18.78 24.55 18.78 24.54C18.78 24.54 18.78 24.54 18.78 24.54C18.77 24.54 18.76 24.54 18.75 24.54C18.74 24.55 18.73 24.55 18.73 24.54Z" fill="#62593C" fill-opacity="1.000000" fill-rule="nonzero"/>
		<path id="Dog" d="M18.6 24.71C18.58 24.7 18.53 24.72 18.53 24.73C18.53 24.74 18.54 24.75 18.54 24.75C18.55 24.76 18.55 24.77 18.55 24.78C18.55 24.78 18.54 24.78 18.54 24.79C18.53 24.79 18.52 24.79 18.52 24.79C18.52 24.8 18.56 24.84 18.58 24.84C18.6 24.84 18.65 24.81 18.65 24.8C18.65 24.79 18.61 24.71 18.6 24.71Z" fill="#62593C" fill-opacity="1.000000" fill-rule="nonzero"/>
		<path id="Dog" d="M18.37 24.42C18.37 24.42 18.37 24.42 18.36 24.43C18.35 24.44 18.32 24.46 18.31 24.48C18.3 24.5 18.31 24.54 18.32 24.55C18.33 24.55 18.4 24.55 18.45 24.54C18.5 24.52 18.52 24.48 18.52 24.46C18.52 24.45 18.51 24.44 18.51 24.42C18.5 24.41 18.5 24.4 18.5 24.38C18.5 24.37 18.48 24.37 18.46 24.37C18.45 24.37 18.44 24.38 18.44 24.38C18.43 24.38 18.42 24.39 18.42 24.4C18.41 24.39 18.41 24.39 18.4 24.39C18.4 24.4 18.39 24.4 18.39 24.4C18.38 24.41 18.38 24.41 18.37 24.42Z" fill="#62593C" fill-opacity="1.000000" fill-rule="nonzero"/>
		<path id="Dog" d="M18.09 24.36C18.09 24.36 18.03 24.41 18.01 24.44C18 24.45 18 24.46 17.99 24.47C17.95 24.52 17.88 24.6 17.85 24.62C17.86 24.6 17.87 24.59 17.89 24.57C17.85 24.6 17.82 24.64 17.8 24.68C17.78 24.76 17.92 24.8 18.03 24.83C18.04 24.83 18.04 24.83 18.05 24.84C18.16 24.87 18.2 24.88 18.2 24.88C18.16 24.82 18.13 24.75 18.1 24.69C18.09 24.66 18.08 24.64 18.07 24.63C18.05 24.58 18.04 24.57 18.06 24.53C18.07 24.51 18.08 24.5 18.09 24.48C18.1 24.46 18.12 24.44 18.12 24.42C18.1 24.38 18.09 24.36 18.09 24.36Z" fill="#62593C" fill-opacity="1.000000" fill-rule="nonzero"/>
		<g opacity="0.800000">
			<path id="Element" d="M36.03 16.43C33.68 10.35 27.85 9.22 27.85 9.22L11.22 9.22L11.28 15.42L14.59 15.42L14.59 29.27L11.22 29.27L11.22 35.46L27.39 35.46C31.28 35.46 34.41 31.54 34.41 31.54C39.41 24.44 36.03 16.43 36.03 16.43L36.03 16.43ZM27.47 27.37C27.47 27.37 26.21 29.2 24.83 29.2L22.07 29.2L22 15.43L25.54 15.43C25.54 15.43 27.18 15.78 28.33 19.03C28.33 19.03 29.85 23.68 27.47 27.37Z" fill="#FFFFFF" fill-opacity="1.000000" fill-rule="evenodd"/>
		</g>
	</g>
</svg>
