<svg width="44.444336" height="44.444336" viewBox="0 0 44.4443 44.4443" fill="none" xmlns="http://www.w3.org/2000/svg" xmlns:xlink="http://www.w3.org/1999/xlink">
	<desc>
			Created with Pixso.
	</desc>
	<defs>
		<clipPath id="clip6382_2724">
			<rect id="Ethereum Symbol" rx="8.934545" width="44.313530" height="44.313530" transform="translate(0.065456 0.065456)" fill="white" fill-opacity="0"/>
		</clipPath>
	</defs>
	<rect id="Ethereum Symbol" rx="8.934545" width="44.313530" height="44.313530" transform="translate(0.065456 0.065456)" fill="#ECEFF0" fill-opacity="1.000000"/>
	<g clip-path="url(#clip6382_2724)">
		<path id="Ethereum" d="M21.75 27.55C21.66 27.58 21.62 27.5 21.56 27.47C18.8 25.82 16.05 24.18 13.3 22.53C13.27 22.51 13.25 22.5 13.22 22.49L13.22 22.46L13.27 22.43C13.34 22.41 13.4 22.39 13.47 22.36L19.97 19.37C20.54 19.1 21.12 18.84 21.7 18.58L21.74 18.58C21.74 18.66 21.74 18.73 21.74 18.81C21.75 21.73 21.75 24.64 21.75 27.55Z" fill="#343535" fill-opacity="1.000000" fill-rule="nonzero"/>
		<path id="Ethereum" d="M21.75 18.58L21.71 18.58C21.71 18.49 21.72 18.41 21.72 18.32C21.72 15.05 21.72 11.78 21.72 8.51C21.71 8.43 21.71 8.34 21.73 8.26L21.75 8.26C22.09 8.77 22.39 9.3 22.7 9.83C25.17 13.99 27.65 18.14 30.12 22.3C30.15 22.34 30.17 22.38 30.19 22.43C30.12 22.41 30.05 22.39 29.98 22.36C29.53 22.16 29.07 21.95 28.62 21.73C27.92 21.41 27.21 21.08 26.51 20.76L23.11 19.2C22.66 18.99 22.21 18.78 21.75 18.58Z" fill="#2F3030" fill-opacity="1.000000" fill-rule="nonzero"/>
		<path id="Ethereum" d="M21.74 8.26C21.72 8.34 21.71 8.42 21.72 8.51C21.72 11.78 21.72 15.05 21.72 18.32C21.72 18.4 21.71 18.49 21.71 18.57C21.13 18.84 20.55 19.1 19.97 19.37L13.48 22.36C13.41 22.38 13.34 22.41 13.28 22.43C13.46 22.03 13.71 21.67 13.93 21.29C16.51 16.96 19.09 12.62 21.67 8.29C21.68 8.27 21.7 8.24 21.72 8.22L21.74 8.26Z" fill="#828384" fill-opacity="1.000000" fill-rule="nonzero"/>
		<path id="Ethereum" d="M21.75 18.58C22.21 18.78 22.66 18.99 23.11 19.2L26.51 20.75C27.22 21.08 27.92 21.4 28.62 21.73C29.08 21.94 29.53 22.15 29.98 22.36C30.05 22.39 30.12 22.41 30.19 22.42C30.27 22.53 30.15 22.53 30.11 22.55C29.41 22.98 28.7 23.4 27.99 23.83C25.96 25.04 23.93 26.26 21.91 27.47C21.86 27.5 21.8 27.52 21.75 27.55C21.75 24.64 21.75 21.73 21.75 18.82C21.75 18.74 21.75 18.66 21.75 18.58Z" fill="#131313" fill-opacity="1.000000" fill-rule="nonzero"/>
		<path id="Ethereum" d="M21.72 29.2L27.03 26.03C28.04 25.43 29.06 24.82 30.07 24.21L30.16 24.16C30.17 24.25 30.11 24.29 30.08 24.34C27.76 27.64 25.45 30.94 23.13 34.24C22.7 34.87 22.26 35.5 21.82 36.12C21.79 36.15 21.76 36.31 21.69 36.14C21.74 36.1 21.72 36.03 21.72 35.98C21.72 33.72 21.72 31.46 21.72 29.2Z" fill="#2F3030" fill-opacity="1.000000" fill-rule="nonzero"/>
		<path id="Ethereum" d="M21.72 29.2C21.72 31.46 21.72 33.72 21.72 35.97C21.72 36.03 21.74 36.1 21.68 36.14C21.57 36.07 21.52 35.94 21.44 35.83C18.75 32.01 16.07 28.18 13.39 24.35C13.35 24.3 13.32 24.25 13.29 24.2C13.36 24.16 13.39 24.21 13.43 24.24C16.15 25.86 18.86 27.48 21.58 29.11C21.63 29.14 21.67 29.17 21.72 29.2Z" fill="#828384" fill-opacity="1.000000" fill-rule="nonzero"/>
		<path id="Ethereum" d="M21.74 8.26L21.72 8.22C21.75 8.2 21.75 8.24 21.75 8.25L21.74 8.26Z" fill="#393939" fill-opacity="1.000000" fill-rule="nonzero"/>
	</g>
</svg>
