<svg width="44.444336" height="44.444336" viewBox="0 0 44.4443 44.4443" fill="none" xmlns="http://www.w3.org/2000/svg" xmlns:xlink="http://www.w3.org/1999/xlink">
	<desc>
			Created with Pixso.
	</desc>
	<defs>
		<clipPath id="clip6388_424">
			<rect id="XRP Symbol" rx="8.934545" width="44.313530" height="44.313530" transform="translate(0.065456 0.065456)" fill="white" fill-opacity="0"/>
		</clipPath>
	</defs>
	<rect id="XRP Symbol" rx="8.934545" width="44.313530" height="44.313530" transform="translate(0.065456 0.065456)" fill="#262C32" fill-opacity="1.000000"/>
	<g clip-path="url(#clip6388_424)">
		<path id="Path" d="M25.8 29.15L18.07 29.15L18.07 15.34L25.8 15.34L25.8 29.15Z" fill="#FF5F00" fill-opacity="1.000000" fill-rule="nonzero"/>
		<path id="Path" d="M18.56 22.24C18.56 19.44 19.88 16.95 21.94 15.34C20.43 14.17 18.54 13.47 16.48 13.47C11.6 13.47 7.65 17.4 7.65 22.24C7.65 27.09 11.6 31.02 16.48 31.02C18.54 31.02 20.43 30.32 21.94 29.15C19.88 27.54 18.56 25.04 18.56 22.24Z" fill="#EB001B" fill-opacity="1.000000" fill-rule="nonzero"/>
		<path id="Path" d="M36.22 22.24C36.22 27.09 32.26 31.02 27.39 31.02C25.33 31.02 23.43 30.32 21.93 29.15C23.98 27.54 25.3 25.04 25.3 22.24C25.3 19.44 23.98 16.95 21.93 15.34C23.43 14.17 25.33 13.47 27.39 13.47C32.26 13.47 36.22 17.4 36.22 22.24Z" fill="#F79E1B" fill-opacity="1.000000" fill-rule="nonzero"/>
	</g>
</svg>
