<svg width="44.444336" height="44.444336" viewBox="0 0 44.4443 44.4443" fill="none" xmlns="http://www.w3.org/2000/svg" xmlns:xlink="http://www.w3.org/1999/xlink">
	<desc>
			Created with Pixso.
	</desc>
	<defs>
		<clipPath id="clip6388_427">
			<rect id="Solana Symbol" rx="8.934545" width="44.313530" height="44.313530" transform="translate(0.065456 0.065456)" fill="white" fill-opacity="0"/>
		</clipPath>
	</defs>
	<rect id="Solana Symbol" rx="8.934545" width="44.313530" height="44.313530" transform="translate(0.065456 0.065456)" fill="#244C39" fill-opacity="1.000000"/>
	<g clip-path="url(#clip6388_427)">
		<path id="Combined-Shape" d="M8.98535 18.0378C8.96875 18.0381 8.95312 18.0383 8.93848 18.0383L5.85254 18.0383L5.85254 27.1501L8.83398 27.1501L8.83398 21.7764L9.03418 21.7764L10.6963 27.1501L12.9404 27.1501L14.6025 21.7805L14.8027 21.7805L14.8027 27.1501L17.7842 27.1501L17.7842 18.0383L14.8584 18.0383C14.8359 18.0383 14.8115 18.0381 14.7842 18.0378C14.3682 18.032 13.5088 18.0203 13.1523 19.2249Q12.8193 20.3479 11.9307 23.4226L11.7061 23.4226Q10.877 20.5061 10.498 19.2249C10.1406 18.0181 9.32129 18.032 8.98535 18.0378ZM22.0664 18.0386L22.0664 23.4121L22.3047 23.4121L24.3262 18.9934C24.7188 18.114 25.5557 18.0386 25.5557 18.0386L28.4404 18.0386L28.4404 27.1501L25.3965 27.1501L25.3965 21.7764L25.1592 21.7764L23.1768 26.1953C22.7842 27.0706 21.9082 27.1501 21.9082 27.1501L19.0225 27.1501L19.0225 18.0386L22.0664 18.0386ZM35.7285 24.436C37.2041 24.436 38.5381 23.5732 38.9629 22.3684L29.6406 22.3684L29.6406 27.1501L32.5361 27.1501L32.5361 24.436L35.7285 24.436Z" clip-rule="evenodd" fill="#40A548" fill-opacity="1.000000" fill-rule="evenodd"/>
		<path id="path24" d="M35.86 18.03L29.49 18.03C29.64 20.06 31.38 21.8 33.19 21.8L39.16 21.8C39.5 20.11 38.32 18.03 35.86 18.03Z" fill="#1291D0" fill-opacity="1.000000" fill-rule="nonzero"/>
	</g>
</svg>
