<svg width="44.000000" height="44.000000" viewBox="0 0 44 44" fill="none" xmlns="http://www.w3.org/2000/svg" xmlns:xlink="http://www.w3.org/1999/xlink">
	<desc>
			Created with Pixso.
	</desc>
	<defs>
		<clipPath id="clip6388_418">
			<rect id="Toncoin Symbol" rx="8.934545" width="43.869087" height="43.869087" transform="matrix(1 0 0 -1 0.0654557 44.0655)" fill="white" fill-opacity="0"/>
		</clipPath>
	</defs>
	<rect id="Toncoin Symbol" rx="8.934545" width="43.869087" height="43.869087" transform="matrix(1 0 0 -1 0.0654557 44.0655)" fill="#010101" fill-opacity="1.000000"/>
	<g clip-path="url(#clip6388_418)">
		<path id="Toncoin" d="M13.97 34L31.02 34C31.59 34 32.15 34 32.91 33.61C33.67 33.22 34.04 32.64 34.42 32.27C34.42 32.27 34.42 32.27 34.42 32.07C34.8 31.49 35 30.92 35 30.15C35 29.57 34.8 28.81 34.42 28.23L23.63 9.57C23.44 9.19 22.87 9 22.5 9C22.12 9 21.55 9.19 21.36 9.57L10.75 28.23C10.57 28.61 10.19 29.19 10 30.15C10 30.92 10.19 31.69 10.37 32.27C10.75 32.84 11.32 33.42 11.89 33.8C12.84 34 13.59 34 13.97 34ZM21.17 31.3L13.97 31.3C13.59 31.3 13.4 31.3 13.21 31.3C13.02 31.3 12.83 31.11 12.83 30.91C12.64 30.72 12.64 30.53 12.64 30.34C12.64 30.14 12.64 30.14 13.02 29.56L21.17 15.14L21.17 31.3ZM23.82 31.3L23.82 15.15L32.16 29.57C32.16 29.76 32.35 29.96 32.35 30.34C32.35 30.54 32.35 30.73 32.16 30.92C31.97 31.11 31.97 31.11 31.97 31.11C31.97 31.11 31.97 31.11 31.78 31.11C31.59 31.11 31.4 31.31 31.02 31.31L23.82 31.31L23.82 31.3Z" fill="#FFFFFF" fill-opacity="1.000000" fill-rule="evenodd"/>
	</g>
</svg>
