<svg width="44.444336" height="44.444336" viewBox="0 0 44.4443 44.4443" fill="none" xmlns="http://www.w3.org/2000/svg" xmlns:xlink="http://www.w3.org/1999/xlink">
	<desc>
			Created with Pixso.
	</desc>
	<defs>
		<clipPath id="clip6382_2789">
			<rect id="Solana Symbol" rx="8.934545" width="44.313530" height="44.313530" transform="translate(0.065456 0.065456)" fill="white" fill-opacity="0"/>
		</clipPath>
		<linearGradient x1="10.678753" y1="34.779240" x2="32.809589" y2="9.170467" id="paint_linear_6382_2790_0" gradientUnits="userSpaceOnUse">
			<stop offset="0.080000" stop-color="#9945FF"/>
			<stop offset="0.300000" stop-color="#8752F3"/>
			<stop offset="0.500000" stop-color="#5497D5"/>
			<stop offset="0.600000" stop-color="#43B4CA"/>
			<stop offset="0.720000" stop-color="#28E0B9"/>
			<stop offset="0.970000" stop-color="#19FB9B"/>
		</linearGradient>
	</defs>
	<rect id="Solana Symbol" rx="8.934545" width="44.313530" height="44.313530" transform="translate(0.065456 0.065456)" fill="#000008" fill-opacity="1.000000"/>
	<g clip-path="url(#clip6382_2789)">
		<path id="Element" d="M35.96 29.08L31.38 33.87C31.28 33.97 31.16 34.05 31.02 34.11C30.89 34.17 30.75 34.2 30.6 34.2L8.86 34.2C8.76 34.2 8.66 34.17 8.57 34.11C8.48 34.06 8.41 33.98 8.37 33.89C8.33 33.79 8.32 33.69 8.34 33.59C8.35 33.49 8.4 33.4 8.47 33.33L13.06 28.53C13.16 28.43 13.28 28.35 13.41 28.29C13.55 28.23 13.69 28.2 13.84 28.2L35.57 28.2C35.68 28.2 35.78 28.23 35.87 28.29C35.95 28.34 36.02 28.42 36.06 28.52C36.1 28.61 36.12 28.71 36.1 28.81C36.08 28.91 36.03 29 35.96 29.08ZM31.38 19.43C31.28 19.33 31.16 19.24 31.02 19.19C30.89 19.13 30.75 19.1 30.6 19.1L8.86 19.1C8.76 19.1 8.66 19.13 8.57 19.18C8.48 19.24 8.41 19.32 8.37 19.41C8.33 19.5 8.32 19.61 8.34 19.71C8.35 19.81 8.4 19.9 8.47 19.97L13.06 24.76C13.16 24.87 13.28 24.95 13.41 25.01C13.55 25.06 13.69 25.09 13.84 25.09L35.57 25.09C35.68 25.09 35.78 25.06 35.87 25.01C35.95 24.95 36.02 24.87 36.06 24.78C36.1 24.69 36.12 24.59 36.1 24.49C36.08 24.39 36.03 24.29 35.96 24.22L31.38 19.43ZM8.86 15.99L30.6 15.99C30.75 15.99 30.89 15.96 31.02 15.9C31.16 15.85 31.28 15.76 31.38 15.66L35.96 10.87C36.03 10.79 36.08 10.7 36.1 10.6C36.12 10.5 36.1 10.4 36.06 10.31C36.02 10.21 35.95 10.14 35.87 10.08C35.78 10.02 35.68 10 35.57 10L13.84 10C13.69 10 13.55 10.02 13.41 10.08C13.28 10.14 13.16 10.22 13.06 10.32L8.47 15.12C8.4 15.19 8.36 15.28 8.34 15.38C8.32 15.48 8.33 15.58 8.37 15.68C8.41 15.77 8.48 15.85 8.57 15.9C8.66 15.96 8.76 15.99 8.86 15.99Z" fill="url(#paint_linear_6382_2790_0)" fill-opacity="1.000000" fill-rule="nonzero"/>
	</g>
</svg>
