<svg width="44.444336" height="44.444336" viewBox="0 0 44.4443 44.4443" fill="none" xmlns="http://www.w3.org/2000/svg" xmlns:xlink="http://www.w3.org/1999/xlink">
	<desc>
			Created with Pixso.
	</desc>
	<defs>
		<clipPath id="clip6382_2793">
			<rect id="Tether Symbol" rx="8.934545" width="44.313534" height="44.313534" transform="translate(0.065456 0.065456)" fill="white" fill-opacity="0"/>
		</clipPath>
	</defs>
	<rect id="Tether Symbol" rx="8.934545" width="44.313534" height="44.313534" transform="translate(0.065456 0.065456)" fill="#009393" fill-opacity="1.000000"/>
	<g clip-path="url(#clip6382_2793)">
		<path id="Tether" d="M33.21 14.47L33.21 10.22L10.23 10.22L10.23 14.47L18.85 14.47L18.85 17.42C12.8 17.74 8.25 19.03 8.22 20.58L8.22 23.82C8.25 25.37 12.8 26.66 18.85 26.98L18.85 34.22L24.58 34.22L24.58 26.98C30.64 26.66 35.18 25.37 35.22 23.82L35.22 20.58C35.18 19.03 30.64 17.74 24.58 17.42L24.58 14.47L33.21 14.47ZM34.91 22.2C33.59 23.66 28.18 24.76 21.72 24.76C15.25 24.76 9.85 23.66 8.53 22.2C9.65 20.96 13.71 19.98 18.85 19.72L18.85 22.8C19.78 22.85 20.74 22.88 21.72 22.88C22.7 22.88 23.66 22.85 24.58 22.8L24.58 19.72C29.73 19.98 33.79 20.96 34.91 22.2Z" fill="#FFFFFF" fill-opacity="1.000000" fill-rule="evenodd"/>
	</g>
</svg>
