<svg width="44.000000" height="44.000000" viewBox="0 0 44 44" fill="none" xmlns="http://www.w3.org/2000/svg" xmlns:xlink="http://www.w3.org/1999/xlink">
	<desc>
			Created with Pixso.
	</desc>
	<defs>
		<clipPath id="clip6382_2773">
			<rect id="Toncoin Symbol" rx="8.934545" width="43.869087" height="43.869087" transform="translate(0.065456 0.065456)" fill="white" fill-opacity="0"/>
		</clipPath>
	</defs>
	<rect id="Toncoin Symbol" rx="8.934545" width="43.869087" height="43.869087" transform="translate(0.065456 0.065456)" fill="#0088CC" fill-opacity="1.000000"/>
	<g clip-path="url(#clip6382_2773)">
		<path id="Toncoin" d="M13.97 10L31.02 10C31.59 10 32.15 10 32.91 10.38C33.67 10.77 34.04 11.35 34.42 11.72C34.42 11.72 34.42 11.72 34.42 11.92C34.8 12.5 35 13.07 35 13.84C35 14.42 34.8 15.18 34.42 15.76L23.63 34.42C23.44 34.8 22.87 35 22.5 35C22.12 35 21.55 34.8 21.36 34.42L10.75 15.76C10.57 15.38 10.19 14.8 10 13.84C10 13.07 10.19 12.3 10.37 11.72C10.75 11.15 11.32 10.57 11.89 10.19C12.84 10 13.59 10 13.97 10ZM21.17 12.69L13.97 12.69C13.59 12.69 13.4 12.69 13.21 12.69C13.02 12.69 12.83 12.88 12.83 13.08C12.64 13.27 12.64 13.46 12.64 13.65C12.64 13.85 12.64 13.85 13.02 14.43L21.17 28.85L21.17 12.69ZM23.82 12.69L23.82 28.84L32.16 14.42C32.16 14.23 32.35 14.03 32.35 13.65C32.35 13.45 32.35 13.26 32.16 13.07C31.97 12.88 31.97 12.88 31.97 12.88C31.97 12.88 31.97 12.88 31.78 12.88C31.59 12.88 31.4 12.68 31.02 12.68L23.82 12.68L23.82 12.69Z" fill="#FFFFFF" fill-opacity="1.000000" fill-rule="evenodd"/>
	</g>
</svg>
