<svg width="44.444336" height="44.444336" viewBox="0 0 44.4443 44.4443" fill="none" xmlns="http://www.w3.org/2000/svg" xmlns:xlink="http://www.w3.org/1999/xlink">
	<desc>
			Created with Pixso.
	</desc>
	<defs>
		<clipPath id="clip6382_2763">
			<rect id="TRON Symbol" rx="8.934545" width="44.313530" height="44.313530" transform="translate(0.065456 0.065456)" fill="white" fill-opacity="0"/>
		</clipPath>
	</defs>
	<rect id="TRON Symbol" rx="8.934545" width="44.313530" height="44.313530" transform="translate(0.065456 0.065456)" fill="#FF060A" fill-opacity="1.000000"/>
	<g clip-path="url(#clip6382_2763)">
		<path id="TRON" d="M33.88 19.05C32.64 17.92 30.94 16.21 29.55 14.99L29.47 14.93C29.33 14.82 29.18 14.74 29.01 14.68C25.66 14.06 10.07 11.18 9.77 11.22C9.68 11.23 9.6 11.26 9.53 11.31L9.45 11.37C9.36 11.46 9.28 11.58 9.24 11.71L9.22 11.76L9.22 12.05L9.22 12.1C10.97 16.93 17.9 32.75 19.27 36.46C19.35 36.71 19.5 37.19 19.8 37.22L19.86 37.22C20.02 37.22 20.68 36.35 20.68 36.35C20.68 36.35 32.59 22.08 33.79 20.56C33.95 20.37 34.08 20.17 34.2 19.96C34.23 19.79 34.22 19.62 34.16 19.46C34.1 19.3 34.01 19.16 33.88 19.05ZM23.74 20.71L28.82 16.55L31.8 19.26L23.74 20.71ZM21.77 20.44L13.02 13.35L27.17 15.93L21.77 20.44ZM22.55 22.3L31.51 20.87L21.27 33.06L22.55 22.3ZM11.83 14.06L21.03 21.78L19.7 33.07L11.83 14.06Z" fill="#FFFFFF" fill-opacity="1.000000" fill-rule="evenodd"/>
	</g>
</svg>
