<svg width="44.444336" height="44.444336" viewBox="0 0 44.4443 44.4443" fill="none" xmlns="http://www.w3.org/2000/svg" xmlns:xlink="http://www.w3.org/1999/xlink">
	<desc>
			Created with Pixso.
	</desc>
	<defs>
		<clipPath id="clip6382_2802">
			<rect id="USD Coin Symbol" rx="8.934545" width="44.313530" height="44.313530" transform="translate(0.065456 0.065456)" fill="white" fill-opacity="0"/>
		</clipPath>
	</defs>
	<rect id="USD Coin Symbol" rx="8.934545" width="44.313530" height="44.313530" transform="translate(0.065456 0.065456)" fill="#2775CA" fill-opacity="1.000000"/>
	<g clip-path="url(#clip6382_2802)">
		<path id="USD Coin" d="M10.47 18.01C8.14 24.24 11.35 31.28 17.62 33.55C17.86 33.71 18.1 34.03 18.1 34.28L18.1 35.41C18.1 35.57 18.1 35.65 18.02 35.73C17.94 36.06 17.62 36.22 17.3 36.06C12.8 34.6 9.35 31.12 7.9 26.59C5.49 18.9 9.67 10.73 17.3 8.3C17.38 8.22 17.54 8.22 17.62 8.22C17.94 8.3 18.1 8.54 18.1 8.86L18.1 10C18.1 10.4 17.94 10.64 17.62 10.81C14.33 12.02 11.68 14.61 10.47 18.01ZM25.41 8.62C25.49 8.3 25.82 8.14 26.14 8.3C30.55 9.75 34.09 13.23 35.54 17.85C37.95 25.54 33.77 33.71 26.14 36.14C26.06 36.22 25.9 36.22 25.82 36.22C25.49 36.14 25.33 35.89 25.33 35.57L25.33 34.44C25.33 34.03 25.49 33.79 25.82 33.63C29.11 32.41 31.76 29.82 32.96 26.43C35.29 20.19 32.08 13.15 25.82 10.89C25.57 10.73 25.33 10.4 25.33 10.08L25.33 8.95C25.33 8.78 25.33 8.7 25.41 8.62ZM27.02 25.05C27.02 22.22 25.33 21.25 21.96 20.84C19.55 20.52 19.07 19.87 19.07 18.74C19.07 17.6 19.87 16.88 21.48 16.88C22.92 16.88 23.73 17.36 24.13 18.58C24.21 18.82 24.45 18.98 24.69 18.98L25.98 18.98C26.3 18.98 26.54 18.74 26.54 18.41L26.54 18.33C26.22 16.55 24.77 15.18 22.92 15.02L22.92 13.07C22.92 12.75 22.68 12.51 22.28 12.43L21.08 12.43C20.75 12.43 20.51 12.67 20.43 13.07L20.43 14.93C18.02 15.26 16.5 16.88 16.5 18.9C16.5 21.57 18.1 22.62 21.48 23.03C23.73 23.43 24.45 23.92 24.45 25.21C24.45 26.51 23.32 27.4 21.8 27.4C19.71 27.4 18.99 26.51 18.75 25.29C18.66 24.97 18.42 24.81 18.18 24.81L16.82 24.81C16.5 24.81 16.25 25.05 16.25 25.37L16.25 25.45C16.58 27.48 17.86 28.93 20.51 29.34L20.51 31.28C20.51 31.6 20.75 31.85 21.16 31.93L22.36 31.93C22.68 31.93 22.92 31.69 23 31.28L23 29.34C25.41 28.93 27.02 27.23 27.02 25.05Z" fill="#FFFFFF" fill-opacity="1.000000" fill-rule="evenodd"/>
	</g>
</svg>
