<svg width="44.000000" height="44.000000" viewBox="0 0 44 44" fill="none" xmlns="http://www.w3.org/2000/svg" xmlns:xlink="http://www.w3.org/1999/xlink">
	<desc>
			Created with Pixso.
	</desc>
	<defs>
		<clipPath id="clip6388_421">
			<rect id="Toncoin Symbol" rx="8.934545" width="43.869087" height="43.869087" transform="translate(0.065456 0.065456)" fill="white" fill-opacity="0"/>
		</clipPath>
	</defs>
	<rect id="Toncoin Symbol" rx="8.934545" width="43.869087" height="43.869087" transform="translate(0.065456 0.065456)" fill="#D7E2E8" fill-opacity="1.000000"/>
	<g clip-path="url(#clip6388_421)">
		<path id="polygon9" d="M19.32 27.34L16.65 27.34L18.32 17.65L20.99 17.65L19.32 27.34Z" fill="#15195A" fill-opacity="1.000000" fill-rule="nonzero"/>
		<path id="path11" d="M29 17.89C28.47 17.69 27.63 17.47 26.6 17.47C23.96 17.47 22.11 18.79 22.1 20.68C22.07 22.07 23.43 22.85 24.44 23.31C25.47 23.79 25.82 24.09 25.82 24.52C25.81 25.17 24.99 25.47 24.22 25.47C23.15 25.47 22.58 25.31 21.71 24.95L21.36 24.8L20.99 26.97C21.61 27.24 22.77 27.48 23.96 27.49C26.77 27.49 28.59 26.19 28.61 24.18C28.62 23.07 27.91 22.23 26.37 21.54C25.44 21.09 24.86 20.79 24.86 20.34C24.88 19.93 25.35 19.51 26.4 19.51C27.27 19.49 27.91 19.68 28.39 19.88L28.63 19.98L29 17.89Z" fill="#15195A" fill-opacity="1.000000" fill-rule="nonzero"/>
		<path id="path13" d="M33.7812 17.655L35.8467 17.655L38.001 27.3479L35.5283 27.3479C35.5283 27.3479 35.2861 26.2344 35.21 25.894L31.7812 25.894C31.6816 26.1516 31.2207 27.3479 31.2207 27.3479L28.4189 27.3479L32.3848 18.4592C32.6602 17.8301 33.1436 17.655 33.7812 17.655ZM32.5498 23.9141C32.7705 23.3572 33.6162 21.2019 33.6162 21.2019L33.6162 21.2024C33.6152 21.2021 33.6494 21.1133 33.6982 20.9841C33.7754 20.7847 33.8887 20.489 33.9678 20.2739L34.1543 21.1091C34.1543 21.1091 34.6602 23.4294 34.7695 23.9141L32.5498 23.9141Z" clip-rule="evenodd" fill="#15195A" fill-opacity="1.000000" fill-rule="evenodd"/>
		<path id="Combined Shape" d="M5.08105 17.6548L9.37695 17.6548C9.95996 17.6753 10.4316 17.8506 10.5859 18.4695L11.5195 22.9243L11.5186 22.9221L11.5195 22.9241L11.8057 24.2646L14.4199 17.6548L17.2441 17.6548L13.0469 27.3376L10.2227 27.3376L7.84277 18.915C7.02148 18.4644 6.08496 18.1021 5.03711 17.8506L5.08105 17.6548Z" clip-rule="evenodd" fill="#15195A" fill-opacity="1.000000" fill-rule="evenodd"/>
	</g>
</svg>
