<svg width="69.655273" height="18.000000" viewBox="0 0 69.6553 18" fill="none" xmlns="http://www.w3.org/2000/svg" xmlns:xlink="http://www.w3.org/1999/xlink">
	<desc>
			Created with Pixso.
	</desc>
	<defs/>
	<rect id="Frame 47865" rx="8.500000" width="68.655334" height="17.000000" transform="translate(0.500000 0.500000)" fill="#FFFFFF" fill-opacity="1.000000"/>
	<path id="Vector" d="M8 9.35L10.31 11.67C10.45 11.8 10.66 11.8 10.79 11.67L12.26 10.2" stroke="#22C55E" stroke-opacity="1.000000" stroke-width="1.000000" stroke-linecap="round"/>
	<path id="Vector" d="M16.24 6.22L13.96 8.5" stroke="#22C55E" stroke-opacity="1.000000" stroke-width="1.000000" stroke-linecap="round"/>
	<path id="Vector" d="M11.12 9.07L13.72 11.67C13.86 11.8 14.07 11.8 14.21 11.67L19.65 6.22" stroke="#22C55E" stroke-opacity="1.000000" stroke-width="1.000000" stroke-linecap="round"/>
	<path id="Active" d="M44.85 6.05Q44.91 6.18 45.02 6.29C45.18 6.45 45.37 6.53 45.61 6.53C45.84 6.53 46.03 6.45 46.19 6.29Q46.3 6.18 46.36 6.05Q46.43 5.89 46.43 5.7Q46.43 5.51 46.36 5.36Q46.3 5.22 46.19 5.12C46.03 4.96 45.84 4.88 45.61 4.88C45.37 4.88 45.18 4.96 45.02 5.12Q44.91 5.22 44.85 5.36Q44.78 5.51 44.78 5.7Q44.78 5.89 44.85 6.05ZM24.01 13.4L25.52 13.4L26.35 11.33L30.3 11.33L31.11 13.4L32.63 13.4L29.17 5L27.44 5L24.01 13.4ZM29.8 10.08L28.33 6.36L26.84 10.08L29.8 10.08ZM43.97 12.16L43.15 12.16Q42.7 12.16 42.46 11.93L42.46 11.93C42.3 11.78 42.22 11.57 42.22 11.3L42.22 8.62L43.97 8.62L43.97 7.4L42.22 7.4L42.22 5.42L40.9 5.69L40.9 7.4L39.82 7.4L39.82 8.62L40.9 8.62L40.9 11.6Q40.9 12.2 41.18 12.62Q41.29 12.78 41.44 12.92C41.81 13.24 42.31 13.4 42.95 13.4L43.97 13.4L43.97 12.16ZM34.64 9.36Q34.76 9.15 34.94 8.97C35.31 8.6 35.76 8.42 36.3 8.42Q36.71 8.42 37.07 8.56Q37.23 8.62 37.38 8.72C37.7 8.92 37.93 9.2 38.09 9.56L39.3 8.99C39.03 8.42 38.63 7.98 38.1 7.65C37.56 7.32 36.96 7.16 36.3 7.16Q35.57 7.16 34.97 7.42Q34.44 7.65 34.01 8.07Q33.65 8.42 33.43 8.84Q33.07 9.52 33.07 10.38Q33.07 11.25 33.43 11.93Q33.65 12.35 34.01 12.7Q34.44 13.12 34.97 13.35Q35.57 13.61 36.3 13.61C36.95 13.61 37.53 13.45 38.06 13.13C38.6 12.81 39 12.38 39.27 11.84L38.06 11.28C37.9 11.61 37.66 11.87 37.34 12.06C37.03 12.26 36.68 12.35 36.3 12.35C35.76 12.35 35.31 12.17 34.94 11.8Q34.76 11.62 34.64 11.4Q34.39 10.96 34.39 10.38Q34.39 9.8 34.64 9.36ZM56.04 12.02C55.71 11.76 55.51 11.41 55.43 10.97L60.25 10.97Q60.34 10.61 60.34 10.35C60.34 9.43 60.03 8.68 59.41 8.07C58.8 7.46 58.04 7.16 57.16 7.16Q56.44 7.16 55.86 7.42Q55.35 7.65 54.94 8.08C54.34 8.69 54.04 9.45 54.04 10.37Q54.04 11.24 54.39 11.93Q54.61 12.35 54.96 12.7C55.58 13.31 56.34 13.61 57.24 13.61Q57.83 13.61 58.35 13.43Q58.64 13.33 58.91 13.17C59.42 12.86 59.8 12.46 60.06 11.96L58.85 11.49C58.7 11.77 58.48 11.99 58.19 12.15Q58.08 12.2 57.97 12.25Q57.63 12.39 57.23 12.39Q56.68 12.39 56.26 12.16Q56.14 12.09 56.04 12.02ZM44.95 7.4L44.95 13.4L46.27 13.4L46.27 7.4L44.95 7.4ZM53.5 7.4L52.11 7.4L50.36 12.17L48.65 7.4L47.26 7.4L49.52 13.4L51.24 13.4L53.5 7.4ZM58.39 8.76C58.73 9.01 58.93 9.35 58.99 9.78L55.43 9.78C55.51 9.34 55.71 9 56.03 8.75Q56.14 8.67 56.25 8.6Q56.66 8.38 57.19 8.38C57.66 8.38 58.06 8.51 58.39 8.76Z" fill="#22C55E" fill-opacity="1.000000" fill-rule="evenodd"/>
	<rect id="Frame 47865" rx="8.500000" width="68.655334" height="17.000000" transform="translate(0.500000 0.500000)" stroke="#22C55E" stroke-opacity="1.000000" stroke-width="1.000000"/>
</svg>
