<svg width="13.500000" height="13.500000" viewBox="0 0 13.5 13.5" fill="none" xmlns="http://www.w3.org/2000/svg" xmlns:xlink="http://www.w3.org/1999/xlink">
	<desc>
			Created with Pixso.
	</desc>
	<defs/>
	<path id="Vector" d="M2.08 12.75C1.34 12.75 0.75 12.15 0.75 11.41L0.75 2.08C0.75 1.34 1.34 0.75 2.08 0.75L11.41 0.75C12.15 0.75 12.75 1.34 12.75 2.08L12.75 11.41C12.75 12.15 12.15 12.75 11.41 12.75L2.08 12.75Z" stroke="#858585" stroke-opacity="1.000000" stroke-width="1.500000"/>
	<path id="Vector" d="M0.75 8.75L5.01 8.75C5.23 8.75 5.42 8.93 5.51 9.13C5.65 9.41 5.97 9.75 6.75 9.75C7.52 9.75 7.84 9.41 7.98 9.13C8.07 8.93 8.26 8.75 8.48 8.75L12.75 8.75" stroke="#858585" stroke-opacity="1.000000" stroke-width="1.500000"/>
	<path id="Vector" d="M0.75 3.41L12.75 3.41" stroke="#858585" stroke-opacity="1.000000" stroke-width="1.500000"/>
	<path id="Vector" d="M0.75 6.08L12.75 6.08" stroke="#858585" stroke-opacity="1.000000" stroke-width="1.500000"/>
</svg>
