<svg width="15.229248" height="15.229004" viewBox="0 0 15.2292 15.229" fill="none" xmlns="http://www.w3.org/2000/svg" xmlns:xlink="http://www.w3.org/1999/xlink">
	<desc>
			Created with Pixso.
	</desc>
	<defs/>
	<path id="Vector" d="M7.61 0C3.4 0 0 3.4 0 7.61C0 11.81 3.4 15.22 7.61 15.22C11.82 15.22 15.22 11.81 15.22 7.61C15.22 3.4 11.82 0 7.61 0ZM4.44 7.59C4.24 7.38 3.9 7.38 3.69 7.59C3.48 7.8 3.48 8.13 3.69 8.34L5.82 10.46C6.02 10.67 6.36 10.67 6.57 10.46L11.53 5.51C11.73 5.3 11.73 4.96 11.53 4.75C11.32 4.55 10.98 4.55 10.78 4.75L6.19 9.34L4.44 7.59Z" fill="#FFA51D" fill-opacity="1.000000" fill-rule="evenodd"/>
</svg>
