<svg width="16.750000" height="19.413818" viewBox="0 0 16.75 19.4138" fill="none" xmlns="http://www.w3.org/2000/svg" xmlns:xlink="http://www.w3.org/1999/xlink">
	<desc>
			Created with Pixso.
	</desc>
	<defs/>
	<path id="Vector" d="M11.78 3.56C10.84 2.56 9.57 2 8.25 2C6.92 2 5.65 2.56 4.71 3.56C3.77 4.56 3.25 5.91 3.25 7.33C3.25 13.55 0.75 15.33 0.75 15.33L15.75 15.33C15.75 15.33 13.25 13.55 13.25 7.33C13.25 5.91 12.72 4.56 11.78 3.56Z" stroke="#858585" stroke-opacity="1.000000" stroke-width="1.500000" stroke-linejoin="round"/>
	<path id="Vector" d="M9.69 17.83C9.54 18.08 9.33 18.29 9.08 18.44C8.82 18.58 8.54 18.66 8.25 18.66C7.95 18.66 7.67 18.58 7.41 18.44C7.16 18.29 6.95 18.08 6.8 17.83" stroke="#858585" stroke-opacity="1.000000" stroke-width="1.500000" stroke-linejoin="round" stroke-linecap="round"/>
	<circle id="Ellipse 199" cx="12.750000" cy="4.000000" r="3.000000" fill="#22C55E" fill-opacity="1.000000"/>
	<circle id="Ellipse 199" cx="12.750000" cy="4.000000" r="3.500000" stroke="#FAFAFC" stroke-opacity="1.000000" stroke-width="1.000000"/>
</svg>
