<svg width="12.000000" height="12.583008" viewBox="0 0 12 12.583" fill="none" xmlns="http://www.w3.org/2000/svg" xmlns:xlink="http://www.w3.org/1999/xlink">
	<desc>
			Created with Pixso.
	</desc>
	<defs/>
	<path id="Vector" d="M7.75 3.08L7.75 1.91L7.75 0.75M7.75 1.91L5.12 1.91M0.75 10.66C0.75 11.31 1.27 11.83 1.91 11.83L10.08 11.83C10.72 11.83 11.25 11.31 11.25 10.66L11.25 5.41L0.75 5.41L0.75 10.66Z" stroke="#828282" stroke-opacity="1.000000" stroke-width="1.500000" stroke-linejoin="round" stroke-linecap="round"/>
	<path id="Vector" d="M0.75 5.41L0.75 3.08C0.75 2.43 1.27 1.91 1.91 1.91L3.08 1.91" stroke="#828282" stroke-opacity="1.000000" stroke-width="1.500000" stroke-linejoin="round" stroke-linecap="round"/>
	<path id="Vector" d="M3.08 0.75L3.08 3.08" stroke="#828282" stroke-opacity="1.000000" stroke-width="1.500000" stroke-linejoin="round" stroke-linecap="round"/>
	<path id="Vector" d="M11.25 5.41L11.25 3.08C11.25 2.43 10.72 1.91 10.08 1.91L9.79 1.91" stroke="#828282" stroke-opacity="1.000000" stroke-width="1.500000" stroke-linejoin="round" stroke-linecap="round"/>
</svg>
