<svg width="15.384766" height="15.385010" viewBox="0 0 15.3848 15.385" fill="none" xmlns="http://www.w3.org/2000/svg" xmlns:xlink="http://www.w3.org/1999/xlink">
	<desc>
			Created with Pixso.
	</desc>
	<defs/>
	<path id="Vector" d="M3.83 5.38L3.84 5.37" stroke="#A3A3A3" stroke-opacity="1.000000" stroke-width="1.500000" stroke-linejoin="round" stroke-linecap="round"/>
	<path id="Vector" d="M6.92 5.38L6.92 5.37" stroke="#A3A3A3" stroke-opacity="1.000000" stroke-width="1.500000" stroke-linejoin="round" stroke-linecap="round"/>
	<path id="Vector" d="M3.83 8.47L3.84 8.46" stroke="#A3A3A3" stroke-opacity="1.000000" stroke-width="1.500000" stroke-linejoin="round" stroke-linecap="round"/>
	<path id="Vector" d="M6.92 8.47L6.92 8.46" stroke="#A3A3A3" stroke-opacity="1.000000" stroke-width="1.500000" stroke-linejoin="round" stroke-linecap="round"/>
	<path id="Vector" d="M3.83 11.55L3.84 11.54" stroke="#A3A3A3" stroke-opacity="1.000000" stroke-width="1.500000" stroke-linejoin="round" stroke-linecap="round"/>
	<path id="Vector" d="M6.92 11.55L6.92 11.54" stroke="#A3A3A3" stroke-opacity="1.000000" stroke-width="1.500000" stroke-linejoin="round" stroke-linecap="round"/>
	<path id="Vector" d="M10 5.37L14.17 5.37C14.42 5.37 14.63 5.58 14.63 5.84L14.63 14.17C14.63 14.42 14.42 14.63 14.17 14.63L10 14.63L1.21 14.63C0.95 14.63 0.75 14.42 0.75 14.17L0.75 2.75C0.75 2.5 0.95 2.29 1.21 2.29L5.37 2.29L5.37 1.21C5.37 0.95 5.58 0.75 5.84 0.75L9.54 0.75C9.79 0.75 10 0.95 10 1.21L10 5.37L10 8.46L10 11.54L10 14.63M10 8.46L11.54 8.46M10 11.54L11.54 11.54" stroke="#A3A3A3" stroke-opacity="1.000000" stroke-width="1.500000" stroke-linejoin="round" stroke-linecap="round"/>
</svg>
