<svg width="15.091797" height="17.647217" viewBox="0 0 15.0918 17.6472" fill="none" xmlns="http://www.w3.org/2000/svg" xmlns:xlink="http://www.w3.org/1999/xlink">
	<desc>
			Created with Pixso.
	</desc>
	<defs/>
	<path id="Vector" d="M13.64 8.8L13.64 3.77C13.64 3.64 13.59 3.51 13.5 3.42L10.96 0.89C10.87 0.8 10.75 0.75 10.62 0.75L1.23 0.75C0.96 0.75 0.75 0.96 0.75 1.23L0.75 16.38C0.75 16.64 0.96 16.86 1.23 16.86L6.39 16.86" stroke="#000000" stroke-opacity="1.000000" stroke-width="1.500000" stroke-linejoin="round" stroke-linecap="round"/>
	<path id="Vector" d="M3.97 7.19L10.41 7.19M3.97 3.97L7.19 3.97M3.97 10.41L6.39 10.41" stroke="#000000" stroke-opacity="1.000000" stroke-width="1.500000" stroke-linejoin="round" stroke-linecap="round"/>
	<path id="Vector" d="M12.79 11.98C13.15 11.62 13.72 11.62 14.07 11.98C14.42 12.33 14.42 12.9 14.07 13.25L13.27 14.06L10.86 16.47C10.74 16.59 10.58 16.67 10.41 16.7L9.16 16.89L9.35 15.64C9.38 15.47 9.46 15.31 9.58 15.19L11.99 12.78L12.79 11.98ZM11.99 12.78L13.27 14.06" stroke="#000000" stroke-opacity="1.000000" stroke-width="1.500000" stroke-linejoin="round"/>
	<path id="Vector" d="M10.41 0.75L10.41 3.48C10.41 3.75 10.63 3.97 10.9 3.97L13.64 3.97" stroke="#000000" stroke-opacity="1.000000" stroke-width="1.500000" stroke-linejoin="round" stroke-linecap="round"/>
</svg>
