<svg width="161.000000" height="105.154297" viewBox="0 0 161 105.154" fill="none" xmlns="http://www.w3.org/2000/svg" xmlns:xlink="http://www.w3.org/1999/xlink">
	<desc>
			Created with Pixso.
	</desc>
	<defs/>
	<g opacity="0.700000">
		<path id="Vector" d="M161 97.48C161 101.71 124.95 105.15 80.5 105.15C36.04 105.15 0 101.71 0 97.48C0 93.24 36.04 89.81 80.5 89.81C124.95 89.81 161 93.24 161 97.48Z" fill="#FAFAFC" fill-opacity="1.000000" fill-rule="evenodd"/>
	</g>
	<g opacity="0.400000">
		<path id="Vector" d="M135.39 41.29L25.65 41.29L27.42 93.83C27.51 96.09 29.34 97.86 31.54 97.86L129.45 97.86C131.7 97.86 133.52 96.09 133.57 93.83L135.39 41.29Z" fill="#E4E2E1" fill-opacity="1.000000" fill-rule="nonzero"/>
	</g>
	<path id="Vector" d="M135.39 39.37L134.63 61.42L133.57 91.96C133.48 94.22 131.65 95.94 129.45 95.94L31.54 95.94C29.29 95.94 27.47 94.17 27.42 91.96L26.37 61.42L25.6 39.37L135.39 39.37Z" fill="#FFFFFF" fill-opacity="1.000000" fill-rule="nonzero"/>
	<path id="Vector" d="M134.63 61.42L133.57 91.96C133.48 94.22 131.65 95.94 129.45 95.94L31.54 95.94C29.29 95.94 27.47 94.17 27.42 91.96L26.37 61.42L25.6 39.37L135.39 39.37L134.63 61.42Z" stroke="#E4E2E1" stroke-opacity="1.000000" stroke-width="0.500000" stroke-linejoin="round"/>
	<g opacity="0.500000">
		<path id="Vector" d="M135.39 39.37L134.62 61.42L26.36 61.42L25.65 39.37L135.39 39.37Z" fill="#E4E2E1" fill-opacity="1.000000" fill-rule="nonzero"/>
	</g>
	<path id="Vector" d="M96.03 26.33L64.96 26.33C60.5 26.33 56.91 22.73 56.91 18.27L56.91 8.3C56.91 3.84 60.5 0.25 64.96 0.25L96.03 0.25C100.49 0.25 104.08 3.84 104.08 8.3L104.08 18.27C104.08 22.73 100.49 26.33 96.03 26.33ZM64.96 6C63.71 6 62.66 7.05 62.66 8.3L62.66 18.27C62.66 19.52 63.71 20.57 64.96 20.57L96.03 20.57C97.27 20.57 98.33 19.52 98.33 18.27L98.33 8.3C98.33 7.05 97.27 6 96.03 6L64.96 6Z" fill="#E4E2E1" fill-opacity="1.000000" fill-rule="nonzero"/>
	<path id="Vector" d="M64.96 26.33C60.5 26.33 56.91 22.73 56.91 18.27L56.91 8.3C56.91 3.84 60.5 0.25 64.96 0.25L96.03 0.25C100.49 0.25 104.08 3.84 104.08 8.3L104.08 18.27C104.08 22.73 100.49 26.33 96.03 26.33L64.96 26.33ZM62.66 8.3L62.66 18.27C62.66 19.52 63.71 20.57 64.96 20.57L96.03 20.57C97.27 20.57 98.33 19.52 98.33 18.27L98.33 8.3C98.33 7.05 97.27 6 96.03 6L64.96 6C63.71 6 62.66 7.05 62.66 8.3Z" stroke="#E4E2E1" stroke-opacity="1.000000" stroke-width="0.500000" stroke-linejoin="round"/>
	<path id="Vector" d="M135.15 56.92L25.84 56.92C22.86 56.92 20.61 54.33 20.95 51.4L24.69 19.57C24.92 17.55 26.6 16.07 28.62 16.07L132.32 16.07C134.34 16.07 136.06 17.6 136.25 19.57L140 51.4C140.38 54.33 138.12 56.92 135.15 56.92Z" fill="#FFFFFF" fill-opacity="1.000000" fill-rule="nonzero"/>
	<path id="Vector" d="M25.84 56.92C22.86 56.92 20.61 54.33 20.95 51.4L24.69 19.57C24.92 17.55 26.6 16.07 28.62 16.07L132.32 16.07C134.34 16.07 136.06 17.6 136.25 19.57L140 51.4C140.38 54.33 138.12 56.92 135.15 56.92L25.84 56.92Z" stroke="#E4E2E1" stroke-opacity="1.000000" stroke-width="0.500000" stroke-linejoin="round"/>
	<path id="Vector" d="M55.04 65.69L44.49 65.69C43.53 65.69 42.76 64.92 42.76 63.96L42.76 53.42C42.76 52.46 43.53 51.69 44.49 51.69L55.04 51.69C56 51.69 56.76 52.46 56.76 53.42L56.76 63.96C56.76 64.92 56 65.69 55.04 65.69ZM46.21 62.19L53.31 62.19L53.31 55.09L46.21 55.09L46.21 62.19Z" fill="#E4E2E1" fill-opacity="1.000000" fill-rule="nonzero"/>
	<path id="Vector" d="M44.49 65.69C43.53 65.69 42.76 64.92 42.76 63.96L42.76 53.42C42.76 52.46 43.53 51.69 44.49 51.69L55.04 51.69C56 51.69 56.76 52.46 56.76 53.42L56.76 63.96C56.76 64.92 56 65.69 55.04 65.69L44.49 65.69ZM53.31 62.19L53.31 55.09L46.21 55.09L46.21 62.19L53.31 62.19Z" stroke="#E4E2E1" stroke-opacity="1.000000" stroke-width="0.500000" stroke-linejoin="round"/>
	<path id="Vector" d="M116.5 65.69L105.95 65.69C105 65.69 104.23 64.92 104.23 63.96L104.23 53.42C104.23 52.46 105 51.69 105.95 51.69L116.5 51.69C117.46 51.69 118.23 52.46 118.23 53.42L118.23 63.96C118.23 64.92 117.46 65.69 116.5 65.69ZM107.73 62.19L114.82 62.19L114.82 55.09L107.73 55.09L107.73 62.19Z" fill="#E4E2E1" fill-opacity="1.000000" fill-rule="nonzero"/>
	<path id="Vector" d="M105.95 65.69C105 65.69 104.23 64.92 104.23 63.96L104.23 53.42C104.23 52.46 105 51.69 105.95 51.69L116.5 51.69C117.46 51.69 118.23 52.46 118.23 53.42L118.23 63.96C118.23 64.92 117.46 65.69 116.5 65.69L105.95 65.69ZM114.82 62.19L114.82 55.09L107.73 55.09L107.73 62.19L114.82 62.19Z" stroke="#E4E2E1" stroke-opacity="1.000000" stroke-width="0.500000" stroke-linejoin="round"/>
</svg>
