<svg width="117.853516" height="107.770020" viewBox="0 0 117.854 107.77" fill="none" xmlns="http://www.w3.org/2000/svg" xmlns:xlink="http://www.w3.org/1999/xlink">
	<desc>
			Created with Pixso.
	</desc>
	<defs>
		<linearGradient x1="59.064163" y1="58.757328" x2="59.064163" y2="55.867496" id="paint_linear_6520_1626_0" gradientUnits="userSpaceOnUse">
			<stop stop-color="#FFFFFF"/>
			<stop offset="0.991300" stop-color="#D6DEEA"/>
		</linearGradient>
	</defs>
	<path id="Vector" d="M79.67 49.23C79.67 54.9 77.39 60.03 73.85 63.81C73.61 64.21 73.22 64.44 72.82 64.68C69.04 68.22 63.92 70.35 58.41 70.35C54 70.35 49.83 68.93 46.36 66.57C45.34 65.94 44.47 65.07 43.6 64.28C39.66 60.5 37.3 55.14 37.3 49.15C37.3 37.49 46.83 27.95 58.49 27.95C70.22 28.03 79.67 37.57 79.67 49.23Z" fill="#FFFFFF" fill-opacity="1.000000" fill-rule="nonzero"/>
	<path id="Vector" d="M79.67 49.23C79.67 55.46 77 60.89 72.82 64.84C69.04 68.38 63.92 70.51 58.41 70.51C54 70.51 49.83 69.09 46.36 66.73C40.77 62.94 37.22 56.56 37.22 49.31C37.22 37.64 46.75 28.11 58.41 28.11C70.07 28.11 79.67 37.57 79.67 49.23Z" fill="#FAFAFC" fill-opacity="1.000000" fill-rule="nonzero"/>
	<path id="Vector" d="M72.82 64.84C69.04 68.38 63.92 70.51 58.41 70.51C54 70.51 49.83 69.09 46.36 66.73C40.77 62.94 37.22 56.56 37.22 49.31C37.22 37.64 46.75 28.11 58.41 28.11C70.07 28.11 79.67 37.57 79.67 49.23C79.67 55.46 77 60.89 72.82 64.84Z" stroke="#FAFAFC" stroke-opacity="1.000000" stroke-width="2.000000"/>
	<path id="Vector" d="M73.85 63.81C73.61 64.21 73.22 64.44 72.82 64.68C69.04 68.22 63.92 70.35 58.41 70.35C54 70.35 49.83 68.93 46.36 66.57C45.34 65.94 44.47 65.07 43.6 64.28C44.08 63.65 44.86 63.26 46.52 62.63L47.15 62.39C48.41 61.92 50.22 61.29 52.5 60.26C52.9 60.11 53.13 59.87 53.37 59.63C53.53 59.48 53.61 59.4 53.61 59.16C53.76 58.92 53.84 58.53 53.84 58.29L53.84 53.96C53.69 53.8 53.69 53.8 53.61 53.72C53.21 53.25 52.98 52.62 52.98 51.83L52.74 51.67C51.64 51.91 51.72 50.81 51.48 48.52C51.32 47.65 51.48 47.42 51.95 47.26L52.35 46.79C51.56 44.97 51.24 43.4 51.24 42.06C51.24 39.93 52.11 38.51 53.37 37.88C52.58 36.38 52.58 35.83 52.58 35.83C52.58 35.83 56.99 36.62 58.57 36.3C60.46 35.91 63.53 36.46 64.63 38.98C66.52 39.77 67.15 40.88 67.39 42.14C67.63 44.19 66.52 46.31 66.29 47.18L66.29 47.34C66.52 47.5 66.68 47.73 66.52 48.6C66.29 50.73 66.29 51.99 65.26 51.75L64.24 53.57C64.24 53.8 64.24 53.8 64.08 53.96C64.08 54.35 64.08 54.98 64.08 58.37C64.08 58.77 64.24 59.24 64.48 59.48C64.63 59.63 64.63 59.71 64.71 59.71C64.95 59.95 65.18 60.19 65.5 60.19C68.02 61.21 69.83 62 71.17 62.47C72.51 63.02 73.37 63.42 73.85 63.81Z" fill="#FFFFFF" fill-opacity="1.000000" fill-rule="nonzero"/>
	<path id="Vector" d="M73.85 63.81C73.61 64.21 73.22 64.44 72.82 64.68C69.04 68.22 63.92 70.35 58.41 70.35C54 70.35 49.83 68.93 46.36 66.57C45.34 65.94 44.47 65.07 43.6 64.28C44.08 63.65 44.86 63.26 46.52 62.63L47.15 62.39C48.41 61.92 50.22 61.29 52.5 60.26C52.9 60.11 53.13 59.87 53.37 59.63C54.63 61.45 56.68 62.55 59.04 62.55C61.33 62.55 63.37 61.45 64.63 59.79C64.87 60.03 65.11 60.26 65.42 60.26C67.94 61.29 69.75 62.08 71.09 62.55C72.51 63.02 73.37 63.42 73.85 63.81Z" fill="#E6E6E6" fill-opacity="1.000000" fill-rule="nonzero"/>
	<path id="Vector" d="M66.13 47.02C66.29 46.55 65.97 45.76 65.73 45.37C65.73 45.21 65.58 45.21 65.58 45.13C64.71 43.32 62.82 42.69 61.01 42.61C56.28 42.37 55.97 43.24 54.55 41.98C55.02 42.61 55.02 43.79 54.31 45.05C53.84 45.92 52.9 46.47 52.03 46.71C49.9 41.9 51.01 38.83 53.05 37.8C52.27 36.3 52.27 35.75 52.27 35.75C52.27 35.75 56.68 36.54 58.25 36.23C60.14 35.83 63.21 36.38 64.32 38.91C66.21 39.69 66.84 40.8 67.07 42.06C67.55 44.03 66.36 46.16 66.13 47.02Z" fill="#C9C9C9" fill-opacity="1.000000" fill-rule="nonzero"/>
	<path id="Vector" d="M54 58.21L54 53.88C53.84 53.72 53.84 53.72 53.76 53.64L53.76 53.41C54 53.8 54.24 54.2 54.63 54.43L58.02 56.87C58.8 57.51 59.91 57.51 60.69 56.87L63.84 54.12C64 53.96 64.08 53.96 64.24 53.88C64.24 54.27 64.24 54.9 64.24 58.29C64.24 58.53 64.24 58.69 64.4 58.92L54 58.92C53.84 58.61 54 58.45 54 58.21Z" fill="url(#paint_linear_6520_1626_0)" fill-opacity="1.000000" fill-rule="nonzero"/>
	<g opacity="0.600000">
		<path id="Vector" d="M33.52 17.23C33.52 21.96 31.55 26.14 28.32 29.13C27.46 29.92 26.51 30.63 25.41 31.26C23.05 32.68 20.21 33.47 17.22 33.47C14.23 33.47 11.39 32.68 9.03 31.26C8.63 31.02 8.32 30.87 7.93 30.55C3.75 27.64 1 22.75 1 17.23C1 8.25 8.32 1 17.22 1C26.28 0.92 33.52 8.25 33.52 17.23Z" fill="#FAFAFC" fill-opacity="1.000000" fill-rule="nonzero"/>
		<path id="Vector (Stroke)" d="M32.52 17.23C32.52 8.79 25.72 1.92 17.23 2L17.22 2L17.22 2C8.87 2 2 8.8 2 17.23C2 22.41 4.58 27 8.5 29.73L8.53 29.75L8.55 29.77C8.79 29.96 8.97 30.07 9.24 30.22C9.33 30.28 9.43 30.33 9.54 30.4C11.74 31.73 14.4 32.47 17.22 32.47C20.04 32.47 22.69 31.73 24.9 30.4L24.9 30.4L24.91 30.39C25.95 29.8 26.83 29.14 27.65 28.4C30.68 25.58 32.52 21.67 32.52 17.23ZM17.21 0C26.83 -0.09 34.52 7.7 34.52 17.23C34.52 22.25 32.43 26.69 29 29.87L29 29.87L29 29.87C28.08 30.7 27.08 31.45 25.92 32.12C23.39 33.64 20.38 34.47 17.22 34.47C14.05 34.47 11.04 33.63 8.51 32.12C8.44 32.08 8.37 32.03 8.3 31.99C8.01 31.83 7.68 31.64 7.33 31.35C2.91 28.25 0 23.08 0 17.23C0 7.69 7.77 0 17.21 0Z" fill="#FAFAFC" fill-opacity="1.000000" fill-rule="evenodd"/>
		<path id="Vector" d="M13.99 20.86C14.23 21.09 14.38 21.33 14.7 21.57C14.94 21.8 15.09 21.88 15.33 22.04C15.41 22.12 15.64 22.28 15.72 22.35C15.72 22.35 15.8 22.35 15.8 22.43L15.88 22.51L15.88 23.93C15.88 23.93 15.88 23.93 15.8 23.85C15.72 23.77 15.49 23.62 15.41 23.54C15.17 23.46 15.01 23.22 14.78 23.14C14.7 23.14 14.7 23.06 14.54 23.06C13.83 22.67 13.28 22.28 13.28 21.72C13.36 21.57 13.6 21.25 13.99 20.86ZM27.85 28.58C27.22 27.24 26.43 26.06 25.02 25.35C24.31 25.03 23.52 24.72 22.73 24.72C22.5 24.72 22.26 24.72 22.02 24.72C21.95 24.72 21.79 24.72 21.71 24.72C20.61 24.64 20.53 24.4 20.53 24.4L20.53 22.12C21.24 21.49 21.95 20.78 22.5 20.15C22.97 19.44 23.36 18.65 23.6 17.62C24.47 17.39 25.1 16.6 25.02 15.65C25.02 15.26 24.7 14.87 24.7 14.47C24.7 14.24 24.7 14.08 24.7 13.84C24.7 13.76 24.7 13.53 24.7 13.45C24.7 13.37 24.7 13.13 24.7 13.05C24.62 12.34 24.39 11.64 23.99 10.85C22.81 8.64 20.61 7.22 18.01 7.22C17.54 7.22 16.98 7.3 16.51 7.46C15.64 7.69 14.7 8.09 13.99 8.64C13.91 8.72 13.68 8.88 13.6 9.03L13.52 9.11C12.73 9.9 12.02 10.85 11.71 11.95C11.31 13.05 11.31 14.16 11.39 15.26C11.39 15.26 11.39 15.26 11.39 15.34L11.39 15.42C11.39 15.65 11.47 15.65 11.39 15.73C11.39 15.81 11.31 15.81 11.31 15.97C11.08 16.29 11 16.68 11.23 17.31C11.63 18.33 12.26 18.18 12.97 18.73C12.97 18.73 12.89 18.73 12.89 18.81L12.18 18.96C8.95 19.99 7.85 22.67 9.26 24.4C9.74 25.03 10.53 25.51 11.79 25.82C11.47 25.82 11.16 26.06 11 26.22C9.58 27.32 8.71 29.05 8.48 30.63C8.48 30.71 8.48 30.87 8.48 30.94C8.87 31.18 9.19 31.42 9.58 31.65L25.25 31.26C26.28 30.63 26.67 30.16 27.62 29.37C27.46 28.82 28.01 28.66 27.85 28.58Z" fill="#FFFFFF" fill-opacity="1.000000" fill-rule="nonzero"/>
		<path id="Vector" d="M28.32 29.13C27.46 29.92 26.51 30.63 25.41 31.26C23.05 32.68 20.21 33.47 17.22 33.47C14.23 33.47 11.39 32.68 9.03 31.26C8.63 31.02 8.32 30.87 7.93 30.55C7.93 30.47 7.93 30.31 7.93 30.24C8.16 28.66 9.03 26.93 10.45 25.82C10.68 25.59 10.92 25.51 11.23 25.43C10.05 25.19 9.26 24.72 8.71 24.01L12.49 24.01C13.6 25.51 15.33 26.37 17.3 26.37C19.03 26.37 20.53 25.66 21.63 24.56C21.71 24.56 21.87 24.56 21.94 24.56C22.18 24.56 22.34 24.56 22.65 24.56C23.44 24.56 24.23 24.8 24.94 25.19C26.36 25.9 27.3 27.08 28.01 28.5C28.25 28.74 28.25 28.98 28.32 29.13Z" fill="#E6E6E6" fill-opacity="1.000000" fill-rule="nonzero"/>
		<path id="Vector" d="M24.78 13.45C23.6 13.84 22.18 14.08 20.92 13.92C18.79 13.68 16.83 12.9 15.25 11.56C14.78 13.05 13.44 14.16 11.94 14.87C11.71 14.95 11.55 15.1 11.31 15.1C11.31 15.1 11.31 15.1 11.31 15.02C11.23 13.92 11.23 12.82 11.63 11.71C11.94 10.61 12.65 9.74 13.44 8.88L13.52 8.8C13.6 8.72 13.83 8.56 13.91 8.4C14.62 7.77 15.49 7.38 16.43 7.22C16.9 7.14 17.46 6.99 17.93 6.99C20.53 6.99 22.81 8.4 23.91 10.61C24.31 11.4 24.54 12.19 24.62 12.82C24.78 13.13 24.78 13.29 24.78 13.45Z" fill="#C9C9C9" fill-opacity="1.000000" fill-rule="nonzero"/>
		<path id="Vector" d="M16.75 28.27C16.12 28.97 15.17 28.97 14.23 28.97C15.09 28.11 14.62 25.19 11.39 25.51C6.98 24.72 7.37 20.07 11.79 18.73L12.49 18.49L12.57 18.57C12.89 19.44 13.36 20.3 13.83 20.86C12.02 22.35 14.54 22.75 15.72 23.93C16.83 24.56 17.77 27 16.75 28.27Z" fill="#C9C9C9" fill-opacity="1.000000" fill-rule="nonzero"/>
		<path id="Vector" d="M116.85 20.54C116.85 25.35 114.88 29.68 111.89 32.91C111.65 33.23 111.34 33.47 111.02 33.7C107.79 36.7 103.54 38.51 98.81 38.51C95.03 38.51 91.49 37.33 88.65 35.28C87.79 34.73 87.08 34.02 86.29 33.31C82.98 30.08 80.93 25.58 80.93 20.54C80.93 10.69 88.97 2.57 98.81 2.57C108.81 2.57 116.85 10.69 116.85 20.54Z" fill="#D6DCE8" fill-opacity="1.000000" fill-rule="nonzero"/>
		<path id="Vector" d="M116.85 20.54C116.85 25.82 114.56 30.39 111.02 33.78C107.79 36.78 103.54 38.59 98.81 38.59C95.03 38.59 91.49 37.41 88.65 35.36C83.93 32.13 80.93 26.77 80.93 20.62C80.93 10.77 88.97 2.65 98.81 2.65C108.66 2.73 116.85 10.69 116.85 20.54Z" fill="#FAFAFC" fill-opacity="1.000000" fill-rule="nonzero"/>
		<path id="Vector (Stroke)" d="M98.81 3.65C89.52 3.65 81.93 11.32 81.93 20.62C81.93 26.43 84.76 31.48 89.22 34.53L89.23 34.54L89.24 34.55C91.9 36.47 95.24 37.59 98.81 37.59C103.27 37.59 107.28 35.88 110.34 33.05C113.7 29.83 115.85 25.51 115.85 20.54C115.85 11.26 108.12 3.73 98.81 3.65ZM79.93 20.62C79.93 10.22 88.41 1.65 98.81 1.65L98.82 1.65L98.82 1.65C109.19 1.73 117.85 10.12 117.85 20.54C117.85 26.13 115.43 30.95 111.71 34.5L111.71 34.51L111.7 34.52C108.3 37.67 103.8 39.59 98.81 39.59C94.83 39.59 91.08 38.35 88.08 36.18C83.09 32.76 79.93 27.1 79.93 20.62Z" fill="#FAFAFC" fill-opacity="1.000000" fill-rule="evenodd"/>
		<path id="Vector" d="M111.89 32.92C111.65 33.23 111.34 33.47 111.02 33.7C107.79 36.7 103.54 38.51 98.81 38.51C95.03 38.51 91.49 37.33 88.65 35.28C87.79 34.73 87.08 34.02 86.29 33.31C86.68 32.76 87.39 32.44 88.73 31.89L89.28 31.65C90.39 31.26 91.88 30.71 93.77 29.84C94.09 29.76 94.32 29.53 94.56 29.29C94.64 29.21 94.8 29.05 94.8 28.9C94.87 28.66 95.03 28.34 95.03 28.11L95.03 24.48C94.95 24.4 94.95 24.4 94.8 24.25C94.48 23.85 94.24 23.3 94.24 22.67L94.01 22.59C93.06 22.83 93.14 21.8 92.91 19.91C92.83 19.12 92.91 18.97 93.3 18.81L93.61 18.41C92.98 16.92 92.67 15.5 92.67 14.47C92.67 12.66 93.46 11.48 94.48 10.93C93.85 9.66 93.85 9.19 93.85 9.19C93.85 9.19 97.63 9.82 98.89 9.59C100.47 9.27 103.07 9.66 104.01 11.87C105.59 12.5 106.14 13.45 106.37 14.55C106.61 16.29 105.59 18.1 105.43 18.81L105.43 18.97C105.66 19.04 105.74 19.28 105.66 20.07C105.43 21.88 105.43 22.98 104.56 22.75L103.7 24.25C103.7 24.48 103.7 24.48 103.62 24.56C103.62 24.88 103.62 25.43 103.62 28.34C103.62 28.66 103.7 29.13 103.93 29.29C104.01 29.37 104.01 29.53 104.17 29.53C104.4 29.76 104.56 29.92 104.8 29.92C106.93 30.79 108.42 31.42 109.6 31.89C110.71 32.29 111.49 32.6 111.89 32.92Z" fill="#FFFFFF" fill-opacity="1.000000" fill-rule="nonzero"/>
		<path id="Vector" d="M111.89 32.92C111.65 33.23 111.34 33.47 111.02 33.7C107.79 36.7 103.54 38.51 98.81 38.51C95.03 38.51 91.49 37.33 88.65 35.28C87.79 34.73 87.08 34.02 86.29 33.31C86.68 32.76 87.39 32.44 88.73 31.89L89.28 31.65C90.39 31.26 91.88 30.71 93.77 29.84C94.09 29.76 94.32 29.53 94.56 29.29C95.66 30.79 97.32 31.73 99.36 31.73C101.33 31.73 102.99 30.79 104.09 29.37C104.33 29.61 104.48 29.76 104.72 29.76C106.85 30.63 108.34 31.26 109.52 31.73C110.71 32.29 111.49 32.6 111.89 32.92Z" fill="#E6E6E6" fill-opacity="1.000000" fill-rule="nonzero"/>
		<path id="Vector" d="M105.35 18.73C105.43 18.33 105.27 17.63 105.04 17.31C105.04 17.23 104.96 17.23 104.96 17.07C104.17 15.58 102.59 15.02 101.1 14.95C97.16 14.71 96.84 15.5 95.66 14.39C96.06 14.95 96.06 15.89 95.43 17C95.03 17.78 94.25 18.18 93.46 18.41C91.65 14.32 92.59 11.79 94.32 10.93C93.69 9.66 93.69 9.19 93.69 9.19C93.69 9.19 97.47 9.82 98.73 9.59C100.31 9.27 102.91 9.66 103.85 11.87C105.43 12.5 105.98 13.45 106.22 14.55C106.53 16.13 105.59 17.94 105.35 18.73Z" fill="#C9C9C9" fill-opacity="1.000000" fill-rule="nonzero"/>
		<path id="Vector" d="M47.94 89.98C47.94 94.47 46.12 98.49 43.37 101.49C43.13 101.8 42.9 101.96 42.58 102.19C39.59 105.03 35.57 106.69 31.16 106.69C27.7 106.69 24.39 105.58 21.63 103.69C20.84 103.22 20.13 102.51 19.43 101.88C16.35 98.88 14.46 94.71 14.46 89.98C14.46 80.76 21.95 73.27 31.16 73.27C40.45 73.19 47.94 80.76 47.94 89.98Z" fill="#D6DCE8" fill-opacity="1.000000" fill-rule="nonzero"/>
		<path id="Vector" d="M47.94 89.98C47.94 94.86 45.81 99.2 42.5 102.27C39.51 105.11 35.49 106.77 31.08 106.77C27.62 106.77 24.31 105.66 21.55 103.77C17.14 100.78 14.38 95.73 14.38 90.06C14.38 80.83 21.87 73.35 31.08 73.35C40.37 73.35 47.94 80.76 47.94 89.98Z" fill="#FAFAFC" fill-opacity="1.000000" fill-rule="nonzero"/>
		<path id="Vector (Stroke)" d="M31.08 74.35C22.42 74.35 15.38 81.39 15.38 90.06C15.38 95.4 17.98 100.13 22.11 102.94L22.12 102.95C24.72 104.73 27.83 105.77 31.08 105.77C35.24 105.77 39.01 104.21 41.81 101.55L41.82 101.54L41.82 101.54C44.94 98.64 46.94 94.56 46.94 89.98C46.94 81.32 39.84 74.35 31.08 74.35ZM13.38 90.06C13.38 80.28 21.31 72.35 31.08 72.35C40.91 72.35 48.94 80.19 48.94 89.98C48.94 95.16 46.68 99.75 43.19 103C40.01 106.01 35.75 107.77 31.08 107.77C27.4 107.77 23.9 106.59 20.99 104.6C16.3 101.41 13.38 96.06 13.38 90.06Z" fill="#FAFAFC" fill-opacity="1.000000" fill-rule="evenodd"/>
		<path id="Vector" d="M43.37 101.48C43.13 101.8 42.89 101.96 42.58 102.19C39.59 105.03 35.57 106.69 31.16 106.69C27.69 106.69 24.39 105.58 21.63 103.69C20.84 103.22 20.13 102.51 19.42 101.88C19.82 101.41 20.45 101.09 21.71 100.54L22.18 100.3C23.21 99.91 24.54 99.44 26.36 98.57C26.67 98.49 26.83 98.25 27.06 98.1C27.14 98.02 27.3 97.86 27.3 97.7C27.38 97.46 27.54 97.23 27.54 96.99L27.54 93.6C27.46 93.52 27.46 93.52 27.3 93.37C26.99 92.97 26.83 92.5 26.83 91.87L26.59 91.79C25.73 92.03 25.8 91.08 25.57 89.27C25.49 88.56 25.57 88.4 25.96 88.24L26.28 87.85C25.65 86.43 25.41 85.17 25.41 84.15C25.41 82.41 26.12 81.31 27.14 80.83C26.51 79.65 26.51 79.26 26.51 79.26C26.51 79.26 29.98 79.89 31.24 79.65C32.74 79.34 35.1 79.73 36.04 81.78C37.54 82.41 38.01 83.28 38.25 84.3C38.48 85.88 37.54 87.61 37.38 88.32L37.38 88.4C37.62 88.48 37.7 88.72 37.62 89.43C37.38 91.16 37.38 92.11 36.59 91.95L35.81 93.37C35.81 93.6 35.81 93.6 35.73 93.68C35.73 94 35.73 94.47 35.73 97.15C35.73 97.46 35.81 97.86 36.04 98.02C36.12 98.1 36.12 98.25 36.28 98.25C36.52 98.49 36.67 98.65 36.91 98.65C38.88 99.44 40.3 100.07 41.4 100.46C42.26 100.85 42.97 101.17 43.37 101.48Z" fill="#FFFFFF" fill-opacity="1.000000" fill-rule="nonzero"/>
		<path id="Vector" d="M43.37 101.49C43.13 101.8 42.89 101.96 42.58 102.19C39.59 105.03 35.57 106.69 31.16 106.69C27.69 106.69 24.39 105.58 21.63 103.69C20.84 103.22 20.13 102.51 19.42 101.88C19.82 101.41 20.45 101.09 21.71 100.54L22.18 100.3C23.21 99.91 24.54 99.44 26.36 98.57C26.67 98.49 26.83 98.25 27.06 98.1C28.09 99.51 29.66 100.38 31.55 100.38C33.37 100.38 34.94 99.51 35.96 98.17C36.2 98.41 36.36 98.57 36.59 98.57C38.56 99.36 39.98 99.99 41.08 100.38C42.26 100.85 42.97 101.17 43.37 101.49Z" fill="#E6E6E6" fill-opacity="1.000000" fill-rule="nonzero"/>
		<path id="Vector" d="M37.22 88.24C37.3 87.85 37.15 87.22 36.91 86.9C36.91 86.83 36.83 86.83 36.83 86.67C36.12 85.25 34.63 84.78 33.21 84.7C29.51 84.46 29.19 85.17 28.09 84.22C28.48 84.7 28.48 85.64 27.85 86.59C27.46 87.3 26.75 87.69 26.04 87.93C24.31 84.15 25.25 81.7 26.83 80.91C26.2 79.73 26.2 79.34 26.2 79.34C26.2 79.34 29.66 79.97 30.92 79.73C32.42 79.42 34.78 79.81 35.73 81.86C37.22 82.49 37.7 83.36 37.93 84.38C38.33 85.8 37.46 87.53 37.22 88.24Z" fill="#C9C9C9" fill-opacity="1.000000" fill-rule="nonzero"/>
	</g>
	<path id="Vector" d="M110.41 92.78L94.82 77.02C93.22 75.41 90.92 74.8 88.82 75.2L85.02 71.37C95.82 57.83 94.92 37.93 82.52 25.41C72.13 14.9 56.63 12.58 44.04 18.54C40.54 20.15 37.24 22.48 34.24 25.41C30.54 29.04 27.94 33.39 26.34 38.03C25.54 40.26 24.94 42.48 24.64 44.8C23.14 55.2 26.34 66.21 34.24 74.19C34.44 74.4 34.54 74.5 34.74 74.7C41.34 81.16 49.83 84.3 58.43 84.3C66.03 84.3 73.63 81.77 79.83 76.72L83.62 80.56C83.22 82.68 83.82 85 85.42 86.62L100.92 102.38C103.52 105 107.72 105 110.31 102.38C113.01 99.75 113.01 95.41 110.41 92.78ZM77.63 69.25C76.43 70.46 75.13 71.47 73.83 72.48C72.53 73.39 71.23 74.09 69.93 74.7C62.73 78.13 54.23 78.13 47.04 74.7C44.24 73.39 41.64 71.57 39.34 69.25C32.74 62.58 30.24 53.39 31.84 44.8C32.24 42.48 32.94 40.15 34.04 38.03C35.34 35.31 37.14 32.68 39.34 30.46C40.84 28.94 42.44 27.63 44.14 26.62C48.54 23.79 53.53 22.48 58.53 22.48C65.53 22.48 72.43 25.1 77.73 30.46C88.22 41.16 88.22 58.54 77.63 69.25Z" fill="#FAFAFC" fill-opacity="1.000000" fill-rule="nonzero"/>
	<path id="Vector" d="M94.82 77.02C93.22 75.41 90.92 74.8 88.82 75.2L85.02 71.37C95.82 57.83 94.92 37.93 82.52 25.41C72.13 14.9 56.63 12.58 44.04 18.54C40.54 20.15 37.24 22.48 34.24 25.41C30.54 29.04 27.94 33.39 26.34 38.03C25.54 40.26 24.94 42.48 24.64 44.8C23.14 55.2 26.34 66.21 34.24 74.19C34.44 74.4 34.54 74.5 34.74 74.7C41.34 81.16 49.83 84.3 58.43 84.3C66.03 84.3 73.63 81.77 79.83 76.72L83.62 80.56C83.22 82.68 83.82 85 85.42 86.62L100.92 102.38C103.52 105 107.72 105 110.31 102.38C113.01 99.75 113.01 95.41 110.41 92.78L94.82 77.02ZM73.83 72.48C72.53 73.39 71.23 74.09 69.93 74.7C62.73 78.13 54.23 78.13 47.04 74.7C44.24 73.39 41.64 71.57 39.34 69.25C32.74 62.58 30.24 53.39 31.84 44.8C32.24 42.48 32.94 40.15 34.04 38.03C35.34 35.31 37.14 32.68 39.34 30.46C40.84 28.94 42.44 27.63 44.14 26.62C48.54 23.79 53.53 22.48 58.53 22.48C65.53 22.48 72.43 25.1 77.73 30.46C88.22 41.16 88.22 58.54 77.63 69.25C76.43 70.46 75.13 71.47 73.83 72.48Z" stroke="#E4E2E1" stroke-opacity="1.000000" stroke-width="0.500000"/>
</svg>
