<svg width="118.544922" height="113.428711" viewBox="0 0 118.545 113.429" fill="none" xmlns="http://www.w3.org/2000/svg" xmlns:xlink="http://www.w3.org/1999/xlink">
	<desc>
			Created with Pixso.
	</desc>
	<defs/>
	<path id="Vector" d="M87.09 28.42L88.07 107.63C88.07 110.33 85.86 112.42 83.15 112.42L5.91 112.42C3.21 112.42 1 110.21 1 107.63L1 5.79C1 3.09 3.21 1 5.91 1L61.87 1L87.09 28.42Z" fill="#FFFFFF" fill-opacity="1.000000" fill-rule="nonzero"/>
	<path id="Vector" d="M88.07 107.63C88.07 110.33 85.86 112.42 83.15 112.42L5.91 112.42C3.21 112.42 1 110.21 1 107.63L1 5.79C1 3.09 3.21 1 5.91 1L61.87 1L87.09 28.42L88.07 107.63Z" stroke="#FAFAFC" stroke-opacity="1.000000" stroke-width="2.000000"/>
	<path id="Vector" d="M51.05 17.6L14.03 17.6C13.17 17.6 12.43 16.86 12.43 16C12.43 15.14 13.17 14.4 14.03 14.4L51.05 14.4C51.91 14.4 52.65 15.14 52.65 16C52.65 16.86 51.91 17.6 51.05 17.6Z" fill="#E4E2E1" fill-opacity="1.000000" fill-rule="nonzero"/>
	<path id="Vector" d="M28.3 26.45L14.03 26.45C13.17 26.45 12.43 25.72 12.43 24.85C12.43 23.99 13.17 23.26 14.03 23.26L28.18 23.26C29.04 23.26 29.78 23.99 29.78 24.85C29.78 25.72 29.04 26.45 28.3 26.45Z" fill="#E4E2E1" fill-opacity="1.000000" fill-rule="nonzero"/>
	<path id="Vector" d="M28.3 98.41L14.03 98.41C13.17 98.41 12.43 97.67 12.43 96.81C12.43 95.95 13.17 95.21 14.03 95.21L28.18 95.21C29.04 95.21 29.78 95.95 29.78 96.81C29.78 97.67 29.04 98.41 28.3 98.41Z" fill="#E4E2E1" fill-opacity="1.000000" fill-rule="nonzero"/>
	<path id="Vector" d="M61.87 1L61.87 22.89C61.87 25.96 64.58 28.42 67.66 28.42L87.09 28.42L61.87 1Z" fill="#FAFAFC" fill-opacity="1.000000" fill-rule="nonzero"/>
	<rect id="Rectangle 3077" x="12.576172" y="37.499023" rx="3.000000" width="63.648010" height="49.615639" stroke="#E4E2E1" stroke-opacity="1.000000" stroke-width="0.500000"/>
	<path id="Vector 77" d="M12.82 49.52L75.47 49.52L75.47 50.02L12.82 50.02L12.82 49.52Z" fill="#E4E2E1" fill-opacity="1.000000" fill-rule="evenodd"/>
	<path id="Vector 78" d="M12.82 62.05L75.47 62.05L75.47 62.55L12.82 62.55L12.82 62.05Z" fill="#E4E2E1" fill-opacity="1.000000" fill-rule="evenodd"/>
	<path id="Vector 79" d="M12.82 74.58L75.47 74.58L75.47 75.08L12.82 75.08L12.82 74.58Z" fill="#E4E2E1" fill-opacity="1.000000" fill-rule="evenodd"/>
	<path id="Vector 80" d="M53.66 37.24L53.66 86.86L53.16 86.86L53.16 37.24L53.66 37.24Z" fill="#E4E2E1" fill-opacity="1.000000" fill-rule="evenodd"/>
	<path id="Vector 81" d="M18.33 43.26L42.39 43.26" stroke="#E4E2E1" stroke-opacity="1.000000" stroke-width="2.000000" stroke-linecap="round"/>
	<path id="Vector 85" d="M58.43 43.26L64.44 43.26" stroke="#E4E2E1" stroke-opacity="1.000000" stroke-width="2.000000" stroke-linecap="round"/>
	<path id="Vector 82" d="M18.33 55.29L42.39 55.29" stroke="#E4E2E1" stroke-opacity="1.000000" stroke-width="2.000000" stroke-linecap="round"/>
	<path id="Vector 86" d="M58.43 55.29L64.44 55.29" stroke="#E4E2E1" stroke-opacity="1.000000" stroke-width="2.000000" stroke-linecap="round"/>
	<path id="Vector 83" d="M18.33 68.32L42.39 68.32" stroke="#E4E2E1" stroke-opacity="1.000000" stroke-width="2.000000" stroke-linecap="round"/>
	<path id="Vector 87" d="M58.43 68.32L64.44 68.32" stroke="#E4E2E1" stroke-opacity="1.000000" stroke-width="2.000000" stroke-linecap="round"/>
	<path id="Vector 84" d="M18.33 80.34L42.39 80.34" stroke="#E4E2E1" stroke-opacity="1.000000" stroke-width="2.000000" stroke-linecap="round"/>
	<path id="Vector 88" d="M58.43 80.34L64.44 80.34" stroke="#E4E2E1" stroke-opacity="1.000000" stroke-width="2.000000" stroke-linecap="round"/>
	<path id="Vector" d="M118.29 57.72L118.29 107.3C118.29 109.81 116.24 111.82 113.72 111.82L75.78 111.82C73.27 111.82 71.21 109.76 71.21 107.3L71.21 57.72C71.21 55.21 73.27 53.15 75.78 53.15L113.77 53.15C116.24 53.15 118.29 55.21 118.29 57.72Z" fill="#FAFAFC" fill-opacity="1.000000" fill-rule="nonzero"/>
	<path id="Vector" d="M118.29 107.3C118.29 109.81 116.24 111.82 113.72 111.82L75.78 111.82C73.27 111.82 71.21 109.76 71.21 107.3L71.21 57.72C71.21 55.21 73.27 53.15 75.78 53.15L113.77 53.15C116.24 53.15 118.29 55.21 118.29 57.72L118.29 107.3Z" stroke="#E4E2E1" stroke-opacity="1.000000" stroke-width="0.500000" stroke-linejoin="round"/>
	<path id="Vector" d="M118.29 57.72L118.29 70.12C118.29 70.61 117.89 71.01 117.39 71.01L72.11 71.01C71.62 71.01 71.21 70.61 71.21 70.12L71.21 57.72C71.21 55.21 73.27 53.15 75.78 53.15L113.77 53.15C116.24 53.15 118.29 55.21 118.29 57.72Z" fill="#FAFAFC" fill-opacity="1.000000" fill-rule="nonzero"/>
	<path id="Vector" d="M118.29 70.12C118.29 70.61 117.89 71.01 117.39 71.01L72.11 71.01C71.62 71.01 71.21 70.61 71.21 70.12L71.21 57.72C71.21 55.21 73.27 53.15 75.78 53.15L113.77 53.15C116.24 53.15 118.29 55.21 118.29 57.72L118.29 70.12Z" stroke="#E4E2E1" stroke-opacity="1.000000" stroke-width="0.500000" stroke-linejoin="round"/>
	<path id="Vector" d="M81.58 79.83L76.51 79.83C75.78 79.83 75.19 79.24 75.19 78.51L75.19 76.22C75.19 75.49 75.78 74.9 76.51 74.9L81.58 74.9C82.31 74.9 82.9 75.49 82.9 76.22L82.9 78.51C82.9 79.24 82.31 79.83 81.58 79.83Z" fill="#E4E2E1" fill-opacity="1.000000" fill-rule="nonzero"/>
	<path id="Vector" d="M92.08 79.83L87.01 79.83C86.28 79.83 85.69 79.24 85.69 78.51L85.69 76.22C85.69 75.49 86.28 74.9 87.01 74.9L92.08 74.9C92.81 74.9 93.41 75.49 93.41 76.22L93.41 78.51C93.41 79.24 92.81 79.83 92.08 79.83Z" fill="#E4E2E1" fill-opacity="1.000000" fill-rule="nonzero"/>
	<path id="Vector" d="M102.63 79.83L97.51 79.83C96.78 79.83 96.19 79.24 96.19 78.51L96.19 76.22C96.19 75.49 96.78 74.9 97.51 74.9L102.58 74.9C103.31 74.9 103.91 75.49 103.91 76.22L103.91 78.51C103.91 79.24 103.31 79.83 102.63 79.83Z" fill="#E4E2E1" fill-opacity="1.000000" fill-rule="nonzero"/>
	<path id="Vector" d="M113.13 79.83L108.06 79.83C107.33 79.83 106.74 79.24 106.74 78.51L106.74 76.22C106.74 75.49 107.33 74.9 108.06 74.9L113.13 74.9C113.86 74.9 114.45 75.49 114.45 76.22L114.45 78.51C114.41 79.24 113.86 79.83 113.13 79.83Z" fill="#E4E2E1" fill-opacity="1.000000" fill-rule="nonzero"/>
	<path id="Vector" d="M81.58 88.1L76.51 88.1C75.78 88.1 75.19 87.51 75.19 86.78L75.19 84.49C75.19 83.76 75.78 83.17 76.51 83.17L81.58 83.17C82.31 83.17 82.9 83.76 82.9 84.49L82.9 86.78C82.9 87.51 82.31 88.1 81.58 88.1Z" fill="#E4E2E1" fill-opacity="1.000000" fill-rule="nonzero"/>
	<path id="Vector" d="M92.08 88.1L87.01 88.1C86.28 88.1 85.69 87.51 85.69 86.78L85.69 84.49C85.69 83.76 86.28 83.17 87.01 83.17L92.08 83.17C92.81 83.17 93.41 83.76 93.41 84.49L93.41 86.78C93.41 87.51 92.81 88.1 92.08 88.1Z" fill="#E4E2E1" fill-opacity="1.000000" fill-rule="nonzero"/>
	<path id="Vector" d="M102.63 88.1L97.51 88.1C96.78 88.1 96.19 87.51 96.19 86.78L96.19 84.49C96.19 83.76 96.78 83.17 97.51 83.17L102.58 83.17C103.31 83.17 103.91 83.76 103.91 84.49L103.91 86.78C103.91 87.51 103.31 88.1 102.63 88.1Z" fill="#E4E2E1" fill-opacity="1.000000" fill-rule="nonzero"/>
	<path id="Vector" d="M113.13 88.1L108.06 88.1C107.33 88.1 106.74 87.51 106.74 86.78L106.74 84.49C106.74 83.76 107.33 83.17 108.06 83.17L113.13 83.17C113.86 83.17 114.45 83.76 114.45 84.49L114.45 86.78C114.41 87.51 113.86 88.1 113.13 88.1Z" fill="#E4E2E1" fill-opacity="1.000000" fill-rule="nonzero"/>
	<path id="Vector" d="M81.58 96.33L76.51 96.33C75.78 96.33 75.19 95.73 75.19 95L75.19 92.72C75.19 91.99 75.78 91.39 76.51 91.39L81.58 91.39C82.31 91.39 82.9 91.99 82.9 92.72L82.9 95C82.9 95.78 82.31 96.33 81.58 96.33Z" fill="#E4E2E1" fill-opacity="1.000000" fill-rule="nonzero"/>
	<path id="Vector" d="M92.08 96.33L87.01 96.33C86.28 96.33 85.69 95.73 85.69 95L85.69 92.72C85.69 91.99 86.28 91.39 87.01 91.39L92.08 91.39C92.81 91.39 93.41 91.99 93.41 92.72L93.41 95C93.41 95.78 92.81 96.33 92.08 96.33Z" fill="#E4E2E1" fill-opacity="1.000000" fill-rule="nonzero"/>
	<path id="Vector" d="M102.63 96.33L97.51 96.33C96.78 96.33 96.19 95.73 96.19 95L96.19 92.72C96.19 91.99 96.78 91.39 97.51 91.39L102.58 91.39C103.31 91.39 103.91 91.99 103.91 92.72L103.91 95C103.91 95.78 103.31 96.33 102.63 96.33Z" fill="#E4E2E1" fill-opacity="1.000000" fill-rule="nonzero"/>
	<path id="Vector" d="M114.41 92.76L114.41 103.32C114.41 104.05 113.81 104.64 113.13 104.64L108.06 104.64C107.33 104.64 106.74 104.05 106.74 103.32L106.74 92.76C106.74 92.03 107.33 91.44 108.06 91.44L113.13 91.44C113.86 91.44 114.41 92.03 114.41 92.76Z" fill="#E4E2E1" fill-opacity="1.000000" fill-rule="nonzero"/>
	<path id="Vector" d="M81.58 104.6L76.51 104.6C75.78 104.6 75.19 104.01 75.19 103.27L75.19 100.99C75.19 100.26 75.78 99.66 76.51 99.66L81.58 99.66C82.31 99.66 82.9 100.26 82.9 100.99L82.9 103.27C82.9 104.05 82.31 104.6 81.58 104.6Z" fill="#E4E2E1" fill-opacity="1.000000" fill-rule="nonzero"/>
	<path id="Vector" d="M92.08 104.6L87.01 104.6C86.28 104.6 85.69 104.01 85.69 103.27L85.69 100.99C85.69 100.26 86.28 99.66 87.01 99.66L92.08 99.66C92.81 99.66 93.41 100.26 93.41 100.99L93.41 103.27C93.41 104.05 92.81 104.6 92.08 104.6Z" fill="#E4E2E1" fill-opacity="1.000000" fill-rule="nonzero"/>
	<path id="Vector" d="M102.63 104.6L97.51 104.6C96.78 104.6 96.19 104.01 96.19 103.27L96.19 100.99C96.19 100.26 96.78 99.66 97.51 99.66L102.58 99.66C103.31 99.66 103.91 100.26 103.91 100.99L103.91 103.27C103.91 104.05 103.31 104.6 102.63 104.6Z" fill="#E4E2E1" fill-opacity="1.000000" fill-rule="nonzero"/>
	<path id="Vector" d="M112.26 66.72L77.38 66.72C76.19 66.72 75.19 65.76 75.19 64.53L75.19 59.36C75.19 58.18 76.15 57.17 77.38 57.17L112.26 57.17C113.45 57.17 114.45 58.13 114.45 59.36L114.45 64.53C114.41 65.71 113.45 66.72 112.26 66.72Z" fill="#FFFFFF" fill-opacity="1.000000" fill-rule="nonzero"/>
	<path id="Vector" d="M77.38 66.72C76.19 66.72 75.19 65.76 75.19 64.53L75.19 59.36C75.19 58.18 76.15 57.17 77.38 57.17L112.26 57.17C113.45 57.17 114.45 58.13 114.45 59.36L114.45 64.53C114.41 65.71 113.45 66.72 112.26 66.72L77.38 66.72Z" stroke="#E4E2E1" stroke-opacity="1.000000" stroke-width="0.500000" stroke-linejoin="round"/>
	<path id="Vector" d="M97.33 62.97L110.39 62.97C111.03 62.97 111.53 62.47 111.53 61.83C111.53 61.19 111.03 60.69 110.39 60.69L97.33 60.69C96.69 60.69 96.19 61.19 96.19 61.83C96.24 62.47 96.74 62.97 97.33 62.97Z" fill="#E4E2E1" fill-opacity="1.000000" fill-rule="nonzero"/>
</svg>
