<svg width="13.500000" height="13.500000" viewBox="0 0 13.5 13.5" fill="none" xmlns="http://www.w3.org/2000/svg" xmlns:xlink="http://www.w3.org/1999/xlink">
	<desc>
			Created with Pixso.
	</desc>
	<defs/>
	<path id="Vector" d="M3.41 0.75L2.08 0.75C1.34 0.75 0.75 1.34 0.75 2.08L0.75 3.41" stroke="#858585" stroke-opacity="1.000000" stroke-width="1.500000" stroke-linejoin="round" stroke-linecap="round"/>
	<path id="Vector" d="M10.08 0.75L11.41 0.75C12.15 0.75 12.75 1.34 12.75 2.08L12.75 3.41" stroke="#858585" stroke-opacity="1.000000" stroke-width="1.500000" stroke-linejoin="round" stroke-linecap="round"/>
	<path id="Vector" d="M9.41 4.08L9.41 5.41" stroke="#858585" stroke-opacity="1.000000" stroke-width="1.500000" stroke-linejoin="round" stroke-linecap="round"/>
	<path id="Vector" d="M4.08 4.08L4.08 5.41" stroke="#858585" stroke-opacity="1.000000" stroke-width="1.500000" stroke-linejoin="round" stroke-linecap="round"/>
	<path id="Vector" d="M4.75 9.41C4.75 9.41 5.41 10.08 6.75 10.08C8.08 10.08 8.75 9.41 8.75 9.41" stroke="#858585" stroke-opacity="1.000000" stroke-width="1.500000" stroke-linejoin="round" stroke-linecap="round"/>
	<path id="Vector" d="M6.75 4.08L6.75 7.41L6.08 7.41" stroke="#858585" stroke-opacity="1.000000" stroke-width="1.500000" stroke-linejoin="round" stroke-linecap="round"/>
	<path id="Vector" d="M3.41 12.75L2.08 12.75C1.34 12.75 0.75 12.15 0.75 11.41L0.75 10.08" stroke="#858585" stroke-opacity="1.000000" stroke-width="1.500000" stroke-linejoin="round" stroke-linecap="round"/>
	<path id="Vector" d="M10.08 12.75L11.41 12.75C12.15 12.75 12.75 12.15 12.75 11.41L12.75 10.08" stroke="#858585" stroke-opacity="1.000000" stroke-width="1.500000" stroke-linejoin="round" stroke-linecap="round"/>
</svg>
