<svg width="22.833008" height="22.833984" viewBox="0 0 22.833 22.834" fill="none" xmlns="http://www.w3.org/2000/svg" xmlns:xlink="http://www.w3.org/1999/xlink">
	<desc>
			Created with Pixso.
	</desc>
	<defs/>
	<path id="Vector" d="M19.95 11.41L19.95 21.44C19.95 21.79 19.66 22.08 19.31 22.08L3.52 22.08C3.16 22.08 2.88 21.79 2.88 21.44L2.88 11.41" stroke="#242424" stroke-opacity="1.000000" stroke-width="1.500000" stroke-linejoin="round" stroke-linecap="round"/>
	<path id="Vector" d="M1.38 6.08C1.03 6.08 0.75 6.37 0.75 6.72L0.75 10.77C0.75 11.13 1.03 11.41 1.38 11.41L21.44 11.41C21.79 11.41 22.08 11.13 22.08 10.77L22.08 6.72C22.08 6.37 21.79 6.08 21.44 6.08L1.38 6.08Z" stroke="#242424" stroke-opacity="1.000000" stroke-width="1.500000" stroke-linejoin="round"/>
	<path id="Vector" d="M11.41 22.08L11.41 6.08" stroke="#242424" stroke-opacity="1.000000" stroke-width="1.500000" stroke-linejoin="round" stroke-linecap="round"/>
	<path id="Vector" d="M6.61 6.08C5.9 6.08 5.23 5.8 4.73 5.3C4.23 4.8 3.95 4.12 3.95 3.41C3.95 2.7 4.23 2.03 4.73 1.53C5.23 1.03 5.9 0.75 6.61 0.75C10.35 0.75 11.41 6.08 11.41 6.08L6.61 6.08Z" stroke="#242424" stroke-opacity="1.000000" stroke-width="1.500000" stroke-linejoin="round"/>
	<path id="Vector" d="M16.21 6.08C16.92 6.08 17.6 5.8 18.1 5.3C18.6 4.8 18.88 4.12 18.88 3.41C18.88 2.7 18.6 2.03 18.1 1.53C17.6 1.03 16.92 0.75 16.21 0.75C12.48 0.75 11.41 6.08 11.41 6.08L16.21 6.08Z" stroke="#242424" stroke-opacity="1.000000" stroke-width="1.500000" stroke-linejoin="round"/>
</svg>
