<svg width="16.666016" height="16.666992" viewBox="0 0 16.666 16.667" fill="none" xmlns="http://www.w3.org/2000/svg" xmlns:xlink="http://www.w3.org/1999/xlink">
	<desc>
			Created with Pixso.
	</desc>
	<defs/>
	<path id="Vector" d="M8.33 0C3.73 0 0 3.73 0 8.33C0 12.93 3.73 16.66 8.33 16.66C12.93 16.66 16.66 12.93 16.66 8.33C16.66 3.73 12.93 0 8.33 0ZM8.33 4.16C8.79 4.16 9.16 4.54 9.16 5C9.16 5.45 8.79 5.83 8.33 5.83C7.87 5.83 7.5 5.45 7.5 5C7.5 4.54 7.87 4.16 8.33 4.16ZM7.5 6.66C7.63 6.66 8.22 6.66 8.33 6.66C8.85 6.66 9.24 7.14 9.14 7.65L8.51 10.83L9.16 10.83C9.62 10.83 10 11.2 10 11.66C10 12.12 9.62 12.5 9.16 12.5L8.33 12.5C7.34 12.5 6.65 11.64 6.84 10.67L7.34 8.28C6.96 8.2 6.66 7.9 6.66 7.5C6.66 7.04 7.03 6.66 7.5 6.66Z" fill="#FFA51D" fill-opacity="1.000000" fill-rule="nonzero"/>
</svg>
