<svg width="15.000000" height="15.000000" viewBox="0 0 15 15" fill="none" xmlns="http://www.w3.org/2000/svg" xmlns:xlink="http://www.w3.org/1999/xlink">
	<desc>
			Created with Pixso.
	</desc>
	<defs/>
	<path id="Vector" d="M7.5 0C3.35 0 0 3.35 0 7.5C0 11.64 3.35 15 7.5 15C11.64 15 15 11.64 15 7.5C15 3.35 11.64 0 7.5 0ZM8.02 3.31C8.02 3.02 7.78 2.79 7.5 2.79C7.21 2.79 6.97 3.02 6.97 3.31L6.97 7.5C6.97 7.78 7.21 8.02 7.5 8.02L11.68 8.02C11.97 8.02 12.2 7.78 12.2 7.5C12.2 7.21 11.97 6.97 11.68 6.97L8.02 6.97L8.02 3.31Z" fill="#85C5FF" fill-opacity="1.000000" fill-rule="evenodd"/>
</svg>
