<svg width="345.861816" height="172.989990" viewBox="0 0 345.862 172.99" fill="none" xmlns="http://www.w3.org/2000/svg" xmlns:xlink="http://www.w3.org/1999/xlink">
	<desc>
			Created with Pixso.
	</desc>
	<defs>
		<linearGradient x1="0.000000" y1="-173.000000" x2="0.000000" y2="4.000000" id="paint_linear_6419_892_0" gradientUnits="userSpaceOnUse">
			<stop stop-color="#FF3F3F"/>
			<stop offset="1.000000" stop-color="#000000"/>
		</linearGradient>
	</defs>
	<path id="Ellipse 207" d="M345.86 167.98C344.55 122.24 325.44 80.91 295.22 50.69C261.51 16.9 217.22 0.03 172.93 0.03C125.2 -0.02 81.95 19.37 50.63 50.69C18.12 83.13 1.27 125.37 0 167.98C-0.08 170.74 2.17 172.98 4.93 172.98L30.68 172.98C33.44 172.98 35.67 170.74 35.77 167.98C37.06 132.1 52.16 99.71 75.9 75.96C102.65 49.16 137.79 35.77 172.93 35.77C210.79 35.74 245.1 51.12 269.95 75.96C295.48 101.44 308.84 134.54 310.08 167.99C310.18 170.75 312.41 172.98 315.17 172.98L340.93 172.98C343.69 172.98 345.93 170.74 345.86 167.98Z" fill="#FAFAFC" fill-opacity="1.000000" fill-rule="evenodd"/>
	<path id="Ellipse 207" d="" fill="#FAFAFC" fill-opacity="0" fill-rule="nonzero"/>
	<path id="Ellipse 207" d="M300.43 172.99L300.42 171.97L301.42 171.97L301.43 172.98L300.43 172.99ZM300.33 167.94Q300.21 164.95 299.96 161.96L300.95 161.88Q301.21 164.88 301.33 167.91L300.33 167.94ZM299.02 154L298.71 152.02L299.69 151.86L300.01 153.85L299.02 154ZM297.99 148.1Q297.41 145.14 296.68 142.22L297.65 141.98Q298.38 144.93 298.97 147.91L297.99 148.1ZM294.51 134.53L293.89 132.62L294.84 132.31L295.46 134.23L294.51 134.53ZM292.56 128.84Q291.52 126.03 290.35 123.27L291.27 122.88Q292.45 125.66 293.5 128.49L292.56 128.84ZM286.99 115.99L286.07 114.2L286.96 113.75L287.88 115.54L286.99 115.99ZM284.17 110.69Q282.7 108.07 281.1 105.52L281.95 104.99Q283.56 107.56 285.04 110.2L284.17 110.69ZM276.65 98.87Q276.06 98.05 275.47 97.25L276.27 96.65Q276.87 97.46 277.46 98.28L276.65 98.87ZM273.03 94.07Q271.17 91.71 269.2 89.44L269.96 88.79Q271.94 91.07 273.82 93.45L273.03 94.07ZM263.76 83.56L263.35 83.15L263.06 82.85L262.34 82.14L263.04 81.43L263.77 82.14L264.06 82.44L264.48 82.86L263.76 83.56ZM259.43 79.35Q257.23 77.31 254.94 75.38L255.58 74.62Q257.89 76.57 260.11 78.62L259.43 79.35ZM248.65 70.41Q247.85 69.82 247.03 69.23L247.62 68.42Q248.43 69.01 249.25 69.61L248.65 70.41ZM243.76 66.96Q241.25 65.29 238.68 63.73L239.19 62.88Q241.79 64.44 244.31 66.13L243.76 66.96ZM231.71 59.83L229.91 58.91L230.36 58.02L232.16 58.93L231.71 59.83ZM226.3 57.18Q223.58 55.92 220.8 54.8L221.17 53.87Q223.97 55.01 226.72 56.27L226.3 57.18ZM213.28 52.03L211.37 51.42L211.67 50.46L213.58 51.08L213.28 52.03ZM207.53 50.27Q204.64 49.46 201.71 48.79L201.94 47.81Q204.89 48.49 207.8 49.31L207.53 50.27ZM193.86 47.24L191.87 46.92L192.03 45.93L194.02 46.25L193.86 47.24ZM187.91 46.39Q184.93 46.04 181.93 45.83L182 44.84Q185.02 45.05 188.03 45.4L187.91 46.39ZM173.93 45.52L173.35 45.52L172.93 45.52L171.91 45.52L171.91 44.52L172.93 44.52L173.36 44.52L173.93 44.52L173.93 45.52ZM167.89 45.61Q164.89 45.72 161.91 45.98L161.82 44.98Q164.83 44.73 167.85 44.61L167.89 45.61ZM153.95 46.91L151.96 47.22L151.81 46.23L153.79 45.92L153.95 46.91ZM148.04 47.93Q145.09 48.51 142.17 49.24L141.92 48.27Q144.87 47.54 147.85 46.95L148.04 47.93ZM134.48 51.4L132.56 52.03L132.25 51.08L134.17 50.45L134.48 51.4ZM128.78 53.36Q125.97 54.39 123.21 55.57L122.82 54.64Q125.6 53.46 128.43 52.42L128.78 53.36ZM115.93 58.93L114.15 59.84L113.69 58.95L115.48 58.04L115.93 58.93ZM110.63 61.74Q108.01 63.21 105.46 64.81L104.93 63.96Q107.5 62.35 110.14 60.87L110.63 61.74ZM98.81 69.26Q97.99 69.85 97.19 70.44L96.59 69.64Q97.41 69.04 98.23 68.45L98.81 69.26ZM94.01 72.88Q91.65 74.74 89.38 76.71L88.73 75.95Q91.01 73.97 93.39 72.09L94.01 72.88ZM83.51 82.15L83.2 82.45L82.79 82.85L82.08 83.57L81.37 82.87L82.09 82.14L82.5 81.73L82.8 81.43L83.51 82.15ZM79.3 86.48Q77.26 88.68 75.33 90.97L74.56 90.33Q76.51 88.02 78.56 85.8L79.3 86.48ZM70.35 97.26Q69.76 98.06 69.17 98.88L68.36 98.29Q68.95 97.48 69.55 96.66L70.35 97.26ZM66.9 102.15Q65.23 104.66 63.67 107.24L62.82 106.72Q64.38 104.12 66.07 101.6L66.9 102.15ZM59.77 114.2L58.85 116L57.96 115.55L58.88 113.75L59.77 114.2ZM57.12 119.61Q55.86 122.33 54.74 125.11L53.81 124.74Q54.94 121.94 56.21 119.19L57.12 119.61ZM51.97 132.63L51.35 134.54L50.4 134.24L51.02 132.33L51.97 132.63ZM50.21 138.38Q49.39 141.27 48.72 144.2L47.74 143.97Q48.43 141.02 49.25 138.11L50.21 138.38ZM47.16 152.05L46.85 154.04L45.86 153.88L46.17 151.89L47.16 152.05ZM46.32 158Q45.96 160.98 45.75 163.98L44.75 163.91Q44.97 160.89 45.32 157.88L46.32 158ZM45.43 171.98L45.43 172.72L45.43 172.98L44.43 172.98L44.43 172.72L44.43 171.98L45.43 171.98Z" fill="#E4E2E1" fill-opacity="1.000000" fill-rule="evenodd"/>
	<path id="Ellipse 207" d="M0 167.98C1.19 125.91 17.45 87.57 43.57 58.18C72.76 25.22 111.8 6.09 152.38 1.25C194.32 -3.81 234.57 6.66 267.43 28.08C269.75 29.59 270.31 32.71 268.73 34.98L254.05 56.13C252.47 58.4 249.36 58.96 247.04 57.46C219.28 39.63 187.28 33.06 156.63 36.74C121.94 40.86 91.82 57.64 70.3 81.9C48.28 106.66 36.9 137.23 35.77 167.99C35.67 170.75 33.44 172.98 30.68 172.98L4.93 172.98C2.16 172.98 -0.08 170.74 0 167.98Z" fill="url(#paint_linear_6419_892_0)" fill-opacity="1.000000" fill-rule="evenodd"/>
</svg>
