<svg width="329.433594" height="17.570312" viewBox="0 0 329.434 17.5703" fill="none" xmlns="http://www.w3.org/2000/svg" xmlns:xlink="http://www.w3.org/1999/xlink">
	<desc>
			Created with Pixso.
	</desc>
	<defs/>
	<line id="Line 113" x1="0.216797" y1="17.445312" x2="10.216797" y2="0.125000" stroke="#E4E2E1" stroke-opacity="1.000000" stroke-width="0.500000"/>
	<line id="Line 116" x1="33.216797" y1="17.445312" x2="43.216797" y2="0.125000" stroke="#E4E2E1" stroke-opacity="1.000000" stroke-width="0.500000"/>
	<line id="Line 119" x1="66.216797" y1="17.445312" x2="76.216797" y2="0.125000" stroke="#E4E2E1" stroke-opacity="1.000000" stroke-width="0.500000"/>
	<line id="Line 122" x1="99.216797" y1="17.445312" x2="109.216797" y2="0.125000" stroke="#E4E2E1" stroke-opacity="1.000000" stroke-width="0.500000"/>
	<line id="Line 125" x1="132.216797" y1="17.445312" x2="142.216797" y2="0.125000" stroke="#E4E2E1" stroke-opacity="1.000000" stroke-width="0.500000"/>
	<line id="Line 128" x1="165.216797" y1="17.445312" x2="175.216797" y2="0.125000" stroke="#E4E2E1" stroke-opacity="1.000000" stroke-width="0.500000"/>
	<line id="Line 131" x1="198.216797" y1="17.445312" x2="208.216797" y2="0.125000" stroke="#E4E2E1" stroke-opacity="1.000000" stroke-width="0.500000"/>
	<line id="Line 134" x1="231.216797" y1="17.445312" x2="241.216797" y2="0.125000" stroke="#E4E2E1" stroke-opacity="1.000000" stroke-width="0.500000"/>
	<line id="Line 137" x1="264.216797" y1="17.445312" x2="274.216797" y2="0.125000" stroke="#E4E2E1" stroke-opacity="1.000000" stroke-width="0.500000"/>
	<line id="Line 140" x1="297.216797" y1="17.445312" x2="307.216797" y2="0.125000" stroke="#E4E2E1" stroke-opacity="1.000000" stroke-width="0.500000"/>
	<line id="Line 114" x1="11.216797" y1="17.445312" x2="21.216797" y2="0.125000" stroke="#E4E2E1" stroke-opacity="1.000000" stroke-width="0.500000"/>
	<line id="Line 117" x1="44.216797" y1="17.445312" x2="54.216797" y2="0.125000" stroke="#E4E2E1" stroke-opacity="1.000000" stroke-width="0.500000"/>
	<line id="Line 120" x1="77.216797" y1="17.445312" x2="87.216797" y2="0.125000" stroke="#E4E2E1" stroke-opacity="1.000000" stroke-width="0.500000"/>
	<line id="Line 123" x1="110.216797" y1="17.445312" x2="120.216797" y2="0.125000" stroke="#E4E2E1" stroke-opacity="1.000000" stroke-width="0.500000"/>
	<line id="Line 126" x1="143.216797" y1="17.445312" x2="153.216797" y2="0.125000" stroke="#E4E2E1" stroke-opacity="1.000000" stroke-width="0.500000"/>
	<line id="Line 129" x1="176.216797" y1="17.445312" x2="186.216797" y2="0.125000" stroke="#E4E2E1" stroke-opacity="1.000000" stroke-width="0.500000"/>
	<line id="Line 132" x1="209.216797" y1="17.445312" x2="219.216797" y2="0.125000" stroke="#E4E2E1" stroke-opacity="1.000000" stroke-width="0.500000"/>
	<line id="Line 135" x1="242.216797" y1="17.445312" x2="252.216797" y2="0.125000" stroke="#E4E2E1" stroke-opacity="1.000000" stroke-width="0.500000"/>
	<line id="Line 138" x1="275.216797" y1="17.445312" x2="285.216797" y2="0.125000" stroke="#E4E2E1" stroke-opacity="1.000000" stroke-width="0.500000"/>
	<line id="Line 141" x1="308.216797" y1="17.445312" x2="318.216797" y2="0.125000" stroke="#E4E2E1" stroke-opacity="1.000000" stroke-width="0.500000"/>
	<line id="Line 115" x1="22.216797" y1="17.445312" x2="32.216797" y2="0.125000" stroke="#E4E2E1" stroke-opacity="1.000000" stroke-width="0.500000"/>
	<line id="Line 118" x1="55.216797" y1="17.445312" x2="65.216797" y2="0.125000" stroke="#E4E2E1" stroke-opacity="1.000000" stroke-width="0.500000"/>
	<line id="Line 121" x1="88.216797" y1="17.445312" x2="98.216797" y2="0.125000" stroke="#E4E2E1" stroke-opacity="1.000000" stroke-width="0.500000"/>
	<line id="Line 124" x1="121.216797" y1="17.445312" x2="131.216797" y2="0.125000" stroke="#E4E2E1" stroke-opacity="1.000000" stroke-width="0.500000"/>
	<line id="Line 127" x1="154.216797" y1="17.445312" x2="164.216797" y2="0.125000" stroke="#E4E2E1" stroke-opacity="1.000000" stroke-width="0.500000"/>
	<line id="Line 130" x1="187.216797" y1="17.445312" x2="197.216797" y2="0.125000" stroke="#E4E2E1" stroke-opacity="1.000000" stroke-width="0.500000"/>
	<line id="Line 133" x1="220.216797" y1="17.445312" x2="230.216797" y2="0.125000" stroke="#E4E2E1" stroke-opacity="1.000000" stroke-width="0.500000"/>
	<line id="Line 136" x1="253.216797" y1="17.445312" x2="263.216797" y2="0.125000" stroke="#E4E2E1" stroke-opacity="1.000000" stroke-width="0.500000"/>
	<line id="Line 139" x1="286.216797" y1="17.445312" x2="296.216797" y2="0.125000" stroke="#E4E2E1" stroke-opacity="1.000000" stroke-width="0.500000"/>
	<line id="Line 142" x1="319.216797" y1="17.445312" x2="329.216797" y2="0.125000" stroke="#E4E2E1" stroke-opacity="1.000000" stroke-width="0.500000"/>
</svg>
