<svg width="196.000000" height="28.000000" viewBox="0 0 196 28" fill="none" xmlns="http://www.w3.org/2000/svg" xmlns:xlink="http://www.w3.org/1999/xlink">
	<desc>
			Created with Pixso.
	</desc>
	<defs/>
	<line id="Line 101" x1="0.000000" y1="13.750000" x2="196.000000" y2="13.750000" stroke="#E4E2E1" stroke-opacity="1.000000" stroke-width="0.500000"/>
	<rect id="Frame 47862" rx="6.500000" width="29.000000" height="27.000000" transform="translate(83.500000 0.500000)" fill="#FFFFFF" fill-opacity="1.000000"/>
	<path id="Vector" d="M96.01 17.08C96.05 17.21 96.13 17.33 96.28 17.41C96.59 17.56 97.02 17.5 97.22 17.27L99.88 14.27C100.02 14.11 100.02 13.88 99.88 13.71L97.22 10.72C97.02 10.49 96.59 10.42 96.28 10.58C95.98 10.73 95.89 11.05 96.1 11.28L98.51 13.99L96.1 16.71C96 16.82 95.98 16.96 96.01 17.08Z" fill="#E4E2E1" fill-opacity="1.000000" fill-rule="nonzero"/>
	<rect id="Frame 47862" rx="6.500000" width="29.000000" height="27.000000" transform="translate(83.500000 0.500000)" stroke="#EAEAEA" stroke-opacity="1.000000" stroke-width="1.000000"/>
</svg>
