<svg width="16.000000" height="14.511597" viewBox="0 0 16 14.5116" fill="none" xmlns="http://www.w3.org/2000/svg" xmlns:xlink="http://www.w3.org/1999/xlink">
	<desc>
			Created with Pixso.
	</desc>
	<defs/>
	<path id="Vector" d="M8.93 2.79C8.93 1.24 10.17 0 11.72 0L13.2 0C14.75 0 16 1.24 16 2.79L16 11.72C16 13.26 14.75 14.51 13.2 14.51L11.72 14.51C10.17 14.51 8.93 13.26 8.93 11.72L8.93 2.79Z" fill="#000000" fill-opacity="1.000000" fill-rule="evenodd"/>
	<path id="Vector" d="M0 3.53C0 1.58 1.58 0 3.53 0L5.02 0C5.33 0 5.58 0.24 5.58 0.55C5.58 0.86 5.33 1.11 5.02 1.11L3.53 1.11C2.19 1.11 1.11 2.19 1.11 3.53L1.11 10.97C1.11 12.31 2.19 13.39 3.53 13.39L5.02 13.39C5.33 13.39 5.58 13.64 5.58 13.95C5.58 14.26 5.33 14.51 5.02 14.51L3.53 14.51C1.58 14.51 0 12.92 0 10.97L0 3.53Z" fill="#000000" fill-opacity="1.000000" fill-rule="evenodd"/>
	<path id="Vector" d="M6.16 4.62C6.38 4.84 6.38 5.19 6.16 5.41L4.88 6.69L9.48 6.69C9.79 6.69 10.04 6.94 10.04 7.25C10.04 7.56 9.79 7.81 9.48 7.81L4.88 7.81L6.16 9.09C6.38 9.31 6.38 9.66 6.16 9.88C5.94 10.1 5.59 10.1 5.37 9.88L3.14 7.65C2.92 7.43 2.92 7.07 3.14 6.86L5.37 4.62C5.59 4.41 5.94 4.41 6.16 4.62Z" fill="#000000" fill-opacity="1.000000" fill-rule="evenodd"/>
</svg>
