<svg width="13.842285" height="17.211060" viewBox="0 0 13.8423 17.2111" fill="none" xmlns="http://www.w3.org/2000/svg" xmlns:xlink="http://www.w3.org/1999/xlink">
	<desc>
			Created with Pixso.
	</desc>
	<defs/>
	<path id="Vector" d="M6.92 16.17C6.92 16.17 0.75 10.32 0.75 6.92C0.75 3.51 3.51 0.75 6.92 0.75C10.32 0.75 13.09 3.51 13.09 6.92C13.09 10.32 6.92 16.17 6.92 16.17Z" stroke="#A3A3A3" stroke-opacity="1.000000" stroke-width="1.500000"/>
	<path id="Vector" d="M6.92 7.69C7.34 7.69 7.69 7.34 7.69 6.92C7.69 6.49 7.34 6.14 6.92 6.14C6.49 6.14 6.14 6.49 6.14 6.92C6.14 7.34 6.49 7.69 6.92 7.69Z" fill="#A3A3A3" fill-opacity="1.000000" fill-rule="nonzero"/>
	<path id="Vector" d="M7.69 6.92C7.69 6.49 7.34 6.14 6.92 6.14C6.49 6.14 6.14 6.49 6.14 6.92C6.14 7.34 6.49 7.69 6.92 7.69C7.34 7.69 7.69 7.34 7.69 6.92Z" stroke="#A3A3A3" stroke-opacity="1.000000" stroke-width="1.500000" stroke-linejoin="round"/>
</svg>
