<svg width="2.357910" height="16.082031" viewBox="0 0 2.35791 16.082" fill="none" xmlns="http://www.w3.org/2000/svg" xmlns:xlink="http://www.w3.org/1999/xlink">
	<desc>
			Created with Pixso.
	</desc>
	<defs/>
	<path id="Vector" d="M1.17 8.46C1.41 8.46 1.6 8.27 1.6 8.04C1.6 7.8 1.41 7.61 1.17 7.61C0.94 7.61 0.75 7.8 0.75 8.04C0.75 8.27 0.94 8.46 1.17 8.46Z" fill="#000000" fill-opacity="1.000000" fill-rule="nonzero"/>
	<path id="Vector" d="M1.6 8.04C1.6 7.8 1.41 7.61 1.17 7.61C0.94 7.61 0.75 7.8 0.75 8.04C0.75 8.27 0.94 8.46 1.17 8.46C1.41 8.46 1.6 8.27 1.6 8.04Z" stroke="#000000" stroke-opacity="1.000000" stroke-width="1.500000" stroke-linejoin="round"/>
	<path id="Vector" d="M1.17 15.33C1.41 15.33 1.6 15.14 1.6 14.9C1.6 14.66 1.41 14.47 1.17 14.47C0.94 14.47 0.75 14.66 0.75 14.9C0.75 15.14 0.94 15.33 1.17 15.33Z" fill="#000000" fill-opacity="1.000000" fill-rule="nonzero"/>
	<path id="Vector" d="M1.6 14.9C1.6 14.66 1.41 14.47 1.17 14.47C0.94 14.47 0.75 14.66 0.75 14.9C0.75 15.14 0.94 15.33 1.17 15.33C1.41 15.33 1.6 15.14 1.6 14.9Z" stroke="#000000" stroke-opacity="1.000000" stroke-width="1.500000" stroke-linejoin="round"/>
	<path id="Vector" d="M1.17 1.6C1.41 1.6 1.6 1.41 1.6 1.17C1.6 0.94 1.41 0.75 1.17 0.75C0.94 0.75 0.75 0.94 0.75 1.17C0.75 1.41 0.94 1.6 1.17 1.6Z" fill="#000000" fill-opacity="1.000000" fill-rule="nonzero"/>
	<path id="Vector" d="M1.6 1.17C1.6 0.94 1.41 0.75 1.17 0.75C0.94 0.75 0.75 0.94 0.75 1.17C0.75 1.41 0.94 1.6 1.17 1.6C1.41 1.6 1.6 1.41 1.6 1.17Z" stroke="#000000" stroke-opacity="1.000000" stroke-width="1.500000" stroke-linejoin="round"/>
</svg>
