<svg width="26.000000" height="26.000000" viewBox="0 0 26 26" fill="none" xmlns="http://www.w3.org/2000/svg" xmlns:xlink="http://www.w3.org/1999/xlink">
	<desc>
			Created with Pixso.
	</desc>
	<defs>
		<clipPath id="clip6520_705">
			<rect id="Tether Symbol" rx="4.934544" width="25.869089" height="25.869089" transform="translate(0.065456 0.065456)" fill="white" fill-opacity="0"/>
		</clipPath>
	</defs>
	<rect id="Tether Symbol" rx="4.934544" width="25.869089" height="25.869089" transform="translate(0.065456 0.065456)" fill="#E33E23" fill-opacity="1.000000"/>
	<g clip-path="url(#clip6520_705)">
		<path id="Combined-Shape" d="M4 13.14C4 13.14 9.03 14.17 9.74 11.95C10.43 9.77 8.13 9.32 8.13 9.32L7.12 9.32L7.12 12.97L6.04 12.97L6.04 9.44L5.08 9.44L5.08 9.07C5.08 9.07 8.71 9.06 9.11 9.1C11.13 9.32 12.11 12.75 8.88 13.43C6.37 13.97 4 13.14 4 13.14ZM6.03 13.92L6.03 16.12C6.03 16.12 6.03 16.58 5.58 16.58C5.14 16.58 5.03 16.58 5.03 16.58L5.03 16.95L8.16 16.95L8.16 16.54L7.46 16.54C7.46 16.54 7.11 16.51 7.11 16.16C7.11 15.82 7.11 13.9 7.11 13.9L6.04 13.9L6.03 13.92ZM10.03 16.96L13.17 16.96L13.17 16.51L12.27 16.51C12.27 16.51 11.98 16.35 11.98 16.03C11.98 15.71 11.98 10.52 11.98 10.52L15.48 16.96L18.92 10.64L18.84 16.09C18.84 16.09 18.93 16.54 18.44 16.54C17.96 16.54 17.85 16.55 17.85 16.55L17.85 16.91L21 16.91L21 16.49L20.26 16.49C20.26 16.49 19.95 16.52 19.95 16.2C19.95 15.88 19.95 9.58 19.95 9.58C19.95 9.58 19.96 9.44 20.23 9.44L20.87 9.44L20.87 9L18.91 9L15.7 15.31L12.5 9.04L10.75 9.04L10.75 9.42L11.31 9.42C11.31 9.42 11.5 9.4 11.5 9.67C11.5 9.95 11.43 16.06 11.43 16.06C11.43 16.06 11.45 16.53 10.9 16.53C10.35 16.53 10.03 16.53 10.03 16.53L10.03 17L10.03 16.96Z" fill="#FFFFFF" fill-opacity="1.000000" fill-rule="evenodd"/>
	</g>
</svg>
