<svg width="26.000000" height="26.000000" viewBox="0 0 26 26" fill="none" xmlns="http://www.w3.org/2000/svg" xmlns:xlink="http://www.w3.org/1999/xlink">
	<desc>
			Created with Pixso.
	</desc>
	<defs>
		<clipPath id="clip6519_2445">
			<rect id="Tether Symbol" rx="4.934544" width="25.869089" height="25.869089" transform="translate(0.065456 0.065456)" fill="white" fill-opacity="0"/>
		</clipPath>
	</defs>
	<rect id="Tether Symbol" rx="4.934544" width="25.869089" height="25.869089" transform="translate(0.065456 0.065456)" fill="#C51F4D" fill-opacity="1.000000"/>
	<g clip-path="url(#clip6519_2445)">
		<path id="Path" d="M8.64 8.4L16.69 8.4C17.9 8.4 18.97 9.22 19.28 10.39C18.86 10.91 17.91 11.15 17.23 11.22C17.01 10.73 16.51 10.41 15.97 10.42L9.36 10.42C8.6 10.42 7.97 11.04 7.97 11.81L7.97 15.06C7.98 15.82 8.6 16.45 9.36 16.45L16.69 16.45C18.55 16.45 19.03 15.86 19.37 15.25L19.37 15.77C19.37 17.25 18.17 18.45 16.69 18.46L8.64 18.46C7.16 18.45 5.97 17.26 5.96 15.78L5.96 11.11C5.96 10.39 6.24 9.71 6.74 9.2C7.24 8.69 7.93 8.41 8.64 8.4Z" fill="#FFFFFF" fill-opacity="1.000000" fill-rule="evenodd"/>
		<path id="Shape" d="M10.63 12.1L16.92 12.1C17.99 12.11 18.94 11.44 19.29 10.44C19.78 11.01 20.03 11.76 19.99 12.51C19.99 13.36 19.55 14.14 18.83 14.59C18.47 14.84 18.03 14.97 17.59 14.97L10.63 14.97C10.41 14.97 10.19 14.88 10.03 14.72C9.87 14.56 9.78 14.34 9.79 14.11L9.79 12.93C9.79 12.71 9.88 12.5 10.04 12.34C10.19 12.18 10.41 12.1 10.63 12.1ZM11.57 12.95L11.05 12.95C10.82 12.95 10.63 13.14 10.63 13.37L10.63 13.72C10.63 13.95 10.82 14.14 11.05 14.14L11.57 14.14C11.8 14.14 11.99 13.95 11.99 13.72L11.99 13.37C11.99 13.14 11.8 12.95 11.57 12.95Z" fill="#FFFFFF" fill-opacity="1.000000" fill-rule="evenodd"/>
	</g>
</svg>
