<svg width="10.585938" height="10.584961" viewBox="0 0 10.5859 10.585" fill="none" xmlns="http://www.w3.org/2000/svg" xmlns:xlink="http://www.w3.org/1999/xlink">
	<desc>
			Created with Pixso.
	</desc>
	<defs/>
	<path id="Vector" d="M0.52 0.51C0.22 0.81 0.22 1.28 0.52 1.58L4.23 5.29L0.52 9C0.22 9.29 0.22 9.77 0.52 10.06C0.81 10.35 1.28 10.35 1.58 10.06L5.29 6.35L9 10.06C9.29 10.35 9.77 10.35 10.06 10.06C10.35 9.77 10.35 9.29 10.06 9L6.35 5.29L10.06 1.58C10.35 1.28 10.35 0.81 10.06 0.51C9.77 0.22 9.29 0.22 9 0.51L5.29 4.23L1.58 0.51C1.28 0.22 0.81 0.22 0.52 0.51Z" fill="#FFFFFF" fill-opacity="1.000000" fill-rule="nonzero"/>
	<path id="Vector" d="M0.16 1.61Q0.22 1.71 0.3 1.79L3.8 5.29L0.3 8.79Q0.22 8.87 0.16 8.96Q0.11 9.04 0.07 9.14Q0.04 9.23 0.02 9.32Q0 9.42 0 9.53Q0 9.64 0.02 9.74Q0.04 9.83 0.07 9.93Q0.11 10.02 0.16 10.1Q0.22 10.19 0.3 10.27Q0.38 10.35 0.48 10.41Q0.56 10.47 0.65 10.5Q0.74 10.54 0.83 10.56Q0.94 10.58 1.05 10.58Q1.15 10.58 1.26 10.56Q1.35 10.54 1.44 10.5Q1.53 10.47 1.61 10.41Q1.71 10.35 1.79 10.27L5.29 6.77L8.79 10.27Q8.87 10.35 8.96 10.41Q9.04 10.47 9.14 10.5Q9.23 10.54 9.32 10.56Q9.42 10.58 9.53 10.58Q9.64 10.58 9.74 10.56Q9.83 10.54 9.93 10.5Q10.02 10.47 10.1 10.41Q10.19 10.35 10.27 10.27Q10.35 10.19 10.41 10.1Q10.47 10.02 10.5 9.93Q10.54 9.83 10.56 9.74Q10.58 9.64 10.58 9.53Q10.58 9.42 10.56 9.32Q10.54 9.23 10.5 9.14Q10.47 9.04 10.41 8.96Q10.35 8.87 10.27 8.79L6.77 5.29L10.27 1.79Q10.35 1.71 10.41 1.61Q10.47 1.53 10.5 1.44Q10.54 1.35 10.56 1.26Q10.58 1.15 10.58 1.04Q10.58 0.94 10.56 0.83Q10.54 0.74 10.5 0.65Q10.47 0.56 10.41 0.48Q10.35 0.38 10.27 0.3Q10.19 0.22 10.1 0.16Q10.02 0.11 9.93 0.07Q9.83 0.04 9.74 0.02Q9.64 0 9.53 0Q9.42 0 9.32 0.02Q9.23 0.04 9.14 0.07Q9.04 0.11 8.96 0.16Q8.87 0.22 8.79 0.3L5.29 3.8L1.79 0.3Q1.71 0.22 1.61 0.16Q1.53 0.11 1.44 0.07Q1.35 0.04 1.26 0.02Q1.15 0 1.05 0Q0.94 0 0.83 0.02Q0.74 0.04 0.65 0.07Q0.56 0.11 0.48 0.16Q0.38 0.22 0.3 0.3Q0.22 0.38 0.16 0.48Q0.11 0.56 0.07 0.65Q0.04 0.74 0.02 0.83Q0 0.94 0 1.04Q0 1.15 0.02 1.26Q0.04 1.35 0.07 1.44Q0.11 1.53 0.16 1.61ZM5.08 4.01L1.58 0.51C1.28 0.22 0.81 0.22 0.52 0.51C0.22 0.81 0.22 1.28 0.52 1.58L4.23 5.29L0.52 9C0.22 9.29 0.22 9.77 0.52 10.06C0.81 10.35 1.28 10.35 1.58 10.06L5.29 6.35L9 10.06C9.29 10.35 9.77 10.35 10.06 10.06C10.35 9.77 10.35 9.29 10.06 9L6.35 5.29L10.06 1.58C10.35 1.28 10.35 0.81 10.06 0.51C9.77 0.22 9.29 0.22 9 0.51L5.29 4.23L5.08 4.01Z" fill="#FFFFFF" fill-opacity="1.000000" fill-rule="evenodd"/>
</svg>
