<svg width="15.006836" height="15.004150" viewBox="0 0 15.0068 15.0042" fill="none" xmlns="http://www.w3.org/2000/svg" xmlns:xlink="http://www.w3.org/1999/xlink">
	<desc>
			Created with Pixso.
	</desc>
	<defs/>
	<path id="Vector" d="M9.74 7.49L9.74 9.74" stroke="#858585" stroke-opacity="1.000000" stroke-width="1.500000" stroke-linejoin="round" stroke-linecap="round"/>
	<path id="Vector" d="M7.49 0.75L7.49 2.99" stroke="#858585" stroke-opacity="1.000000" stroke-width="1.500000" stroke-linejoin="round" stroke-linecap="round"/>
	<path id="Vector" d="M11.99 7.49L11.99 9.74" stroke="#858585" stroke-opacity="1.000000" stroke-width="1.500000" stroke-linejoin="round" stroke-linecap="round"/>
	<path id="Vector" d="M7.49 11.99L14.24 11.99" stroke="#858585" stroke-opacity="1.000000" stroke-width="1.500000" stroke-linejoin="round" stroke-linecap="round"/>
	<path id="Vector" d="M11.99 14.24L14.24 14.24" stroke="#858585" stroke-opacity="1.000000" stroke-width="1.500000" stroke-linejoin="round" stroke-linecap="round"/>
	<path id="Vector" d="M3 7.49L5.25 7.49" stroke="#858585" stroke-opacity="1.000000" stroke-width="1.500000" stroke-linejoin="round" stroke-linecap="round"/>
	<path id="Vector" d="M3 3L3 3" stroke="#858585" stroke-opacity="1.000000" stroke-width="1.500000" stroke-linejoin="round" stroke-linecap="round"/>
	<path id="Vector" d="M7.49 7.5L7.5 7.49" stroke="#858585" stroke-opacity="1.000000" stroke-width="1.500000" stroke-linejoin="round" stroke-linecap="round"/>
	<path id="Vector" d="M0.75 7.5L0.76 7.49" stroke="#858585" stroke-opacity="1.000000" stroke-width="1.500000" stroke-linejoin="round" stroke-linecap="round"/>
	<path id="Vector" d="M7.49 5.25L7.5 5.24" stroke="#858585" stroke-opacity="1.000000" stroke-width="1.500000" stroke-linejoin="round" stroke-linecap="round"/>
	<path id="Vector" d="M7.49 9.75L7.5 9.74" stroke="#858585" stroke-opacity="1.000000" stroke-width="1.500000" stroke-linejoin="round" stroke-linecap="round"/>
	<path id="Vector" d="M9.74 14.25L9.75 14.24" stroke="#858585" stroke-opacity="1.000000" stroke-width="1.500000" stroke-linejoin="round" stroke-linecap="round"/>
	<path id="Vector" d="M7.49 14.25L7.5 14.24" stroke="#858585" stroke-opacity="1.000000" stroke-width="1.500000" stroke-linejoin="round" stroke-linecap="round"/>
	<path id="Vector" d="M14.24 7.5L14.25 7.49" stroke="#858585" stroke-opacity="1.000000" stroke-width="1.500000" stroke-linejoin="round" stroke-linecap="round"/>
	<path id="Vector" d="M14.24 9.75L14.25 9.74" stroke="#858585" stroke-opacity="1.000000" stroke-width="1.500000" stroke-linejoin="round" stroke-linecap="round"/>
	<path id="Vector" d="M11.99 3L12 3" stroke="#858585" stroke-opacity="1.000000" stroke-width="1.500000" stroke-linejoin="round" stroke-linecap="round"/>
	<path id="Vector" d="M5.25 4.79C5.25 5.04 5.04 5.24 4.8 5.24L1.2 5.24C0.95 5.24 0.75 5.04 0.75 4.79L0.75 1.19C0.75 0.95 0.95 0.75 1.2 0.75L4.8 0.75C5.04 0.75 5.25 0.95 5.25 1.19L5.25 4.79Z" stroke="#858585" stroke-opacity="1.000000" stroke-width="1.500000" stroke-linejoin="round"/>
	<path id="Vector" d="M14.24 4.79C14.24 5.04 14.04 5.24 13.79 5.24L10.19 5.24C9.94 5.24 9.74 5.04 9.74 4.79L9.74 1.19C9.74 0.95 9.94 0.75 10.19 0.75L13.79 0.75C14.04 0.75 14.24 0.95 14.24 1.19L14.24 4.79Z" stroke="#858585" stroke-opacity="1.000000" stroke-width="1.500000" stroke-linejoin="round"/>
	<path id="Vector" d="M3 12L3 11.99" stroke="#858585" stroke-opacity="1.000000" stroke-width="1.500000" stroke-linejoin="round" stroke-linecap="round"/>
	<path id="Vector" d="M5.25 13.79C5.25 14.04 5.04 14.24 4.8 14.24L1.2 14.24C0.95 14.24 0.75 14.04 0.75 13.79L0.75 10.19C0.75 9.94 0.95 9.74 1.2 9.74L4.8 9.74C5.04 9.74 5.25 9.94 5.25 10.19L5.25 13.79Z" stroke="#858585" stroke-opacity="1.000000" stroke-width="1.500000" stroke-linejoin="round"/>
</svg>
