<svg width="19.002686" height="19.000977" viewBox="0 0 19.0027 19.001" fill="none" xmlns="http://www.w3.org/2000/svg" xmlns:xlink="http://www.w3.org/1999/xlink">
	<desc>
			Created with Pixso.
	</desc>
	<defs>
		<linearGradient x1="10.001222" y1="1.500001" x2="19.001228" y2="9.499996" id="paint_linear_6449_1110_0" gradientUnits="userSpaceOnUse">
			<stop stop-color="#22C55E"/>
			<stop offset="1.000000" stop-color="#105F2D"/>
		</linearGradient>
	</defs>
	<path id="Ellipse 212" d="M4.49 17.56C6.32 18.7 8.54 19.23 10.84 18.9C12.98 18.59 15.02 17.56 16.57 15.83C18.01 14.22 18.92 12.12 18.99 9.8C19.06 7.64 18.4 5.45 16.96 3.63C15.63 1.93 13.72 0.67 11.45 0.2C9.33 -0.25 7.06 0.02 5.01 1.12C3.11 2.14 1.54 3.8 0.68 5.96C-0.12 7.96 -0.25 10.25 0.47 12.46C1.14 14.5 2.51 16.34 4.49 17.56ZM14.86 14.3C13.77 15.52 12.26 16.38 10.52 16.63C8.9 16.86 7.19 16.55 5.69 15.62C4.3 14.75 3.2 13.41 2.65 11.74C2.14 10.19 2.15 8.45 2.81 6.81C3.42 5.29 4.54 3.97 6.1 3.14C7.54 2.37 9.25 2.08 10.98 2.44C12.58 2.78 14.07 3.66 15.16 5.04C16.17 6.33 16.76 7.97 16.7 9.73C16.65 11.36 16.04 12.99 14.86 14.3Z" fill="#F2F2F2" fill-opacity="1.000000" fill-rule="evenodd"/>
	<path id="Ellipse 213" d="M10.64 0.06C12.2 0.25 13.65 0.82 14.89 1.67C16.53 2.81 17.71 4.37 18.37 6.11C18.94 7.6 19.11 9.14 18.93 10.62C18.85 11.25 18.23 11.63 17.61 11.48C17 11.33 16.63 10.71 16.68 10.07C16.77 8.98 16.61 7.91 16.23 6.93C15.69 5.51 14.75 4.36 13.59 3.56C12.67 2.93 11.67 2.54 10.64 2.38C10.01 2.28 9.5 1.78 9.5 1.14C9.5 0.51 10.01 -0.01 10.64 0.06Z" fill="#DF361E" fill-opacity="0" fill-rule="evenodd"/>
	<path id="Ellipse 213" d="M10.64 0.06C12.2 0.25 13.65 0.82 14.89 1.67C16.53 2.81 17.71 4.37 18.37 6.11C18.94 7.6 19.11 9.14 18.93 10.62C18.85 11.25 18.23 11.63 17.61 11.48C17 11.33 16.63 10.71 16.68 10.07C16.77 8.98 16.61 7.91 16.23 6.93C15.69 5.51 14.75 4.36 13.59 3.56C12.67 2.93 11.67 2.54 10.64 2.38C10.01 2.28 9.5 1.78 9.5 1.14C9.5 0.51 10.01 -0.01 10.64 0.06Z" fill="url(#paint_linear_6449_1110_0)" fill-opacity="1.000000" fill-rule="evenodd"/>
</svg>
