<svg width="13.500244" height="13.500000" viewBox="0 0 13.5002 13.5" fill="none" xmlns="http://www.w3.org/2000/svg" xmlns:xlink="http://www.w3.org/1999/xlink">
	<desc>
			Created with Pixso.
	</desc>
	<defs/>
	<path id="Vector" d="M4.94 12.75C4.7 12.75 4.5 12.54 4.5 12.29L4.5 4.95C4.5 4.7 4.7 4.5 4.94 4.5L12.3 4.5C12.54 4.5 12.75 4.7 12.75 4.95L12.75 12.29C12.75 12.54 12.54 12.75 12.3 12.75L4.94 12.75Z" stroke="#DF361E" stroke-opacity="1.000000" stroke-width="1.500000" stroke-linejoin="round"/>
	<path id="Vector" d="M9 4.5L9 1.2C9 0.95 8.79 0.75 8.55 0.75L1.19 0.75C0.95 0.75 0.75 0.95 0.75 1.2L0.75 8.54C0.75 8.79 0.95 9 1.19 9L4.5 9" stroke="#DF361E" stroke-opacity="1.000000" stroke-width="1.500000" stroke-linejoin="round" stroke-linecap="round"/>
</svg>
