<svg width="48.000000" height="48.000000" viewBox="0 0 48 48" fill="none" xmlns="http://www.w3.org/2000/svg" xmlns:xlink="http://www.w3.org/1999/xlink">
	<desc>
			Created with Pixso.
	</desc>
	<defs/>
	<circle id="Ellipse 211" cx="24.000000" cy="24.000000" r="24.000000" fill="#FAFAFC" fill-opacity="1.000000"/>
	<path id="Vector" d="M25.6 23.99C25.6 22 23.74 20 21.48 20C21.21 20 20.33 20 20.11 20C17.84 20 16 21.79 16 23.99C16 25.9 17.36 27.49 19.2 27.89C19.49 27.96 19.8 27.99 20.11 27.99" stroke="#242424" stroke-opacity="1.000000" stroke-width="1.500000" stroke-linejoin="round" stroke-linecap="round"/>
	<path id="Vector" d="M22.39 23.99C22.39 25.99 24.25 27.99 26.51 27.99C26.78 27.99 27.66 27.99 27.88 27.99C30.15 27.99 32 26.2 32 23.99C32 22.09 30.63 20.5 28.79 20.09C28.5 20.03 28.19 20 27.88 20" stroke="#242424" stroke-opacity="1.000000" stroke-width="1.500000" stroke-linejoin="round" stroke-linecap="round"/>
</svg>
