<svg width="15.000000" height="15.000000" viewBox="0 0 15 15" fill="none" xmlns="http://www.w3.org/2000/svg" xmlns:xlink="http://www.w3.org/1999/xlink">
	<desc>
			Created with Pixso.
	</desc>
	<defs/>
	<path id="Vector" d="M7.5 0C3.35 0 0 3.35 0 7.5C0 11.64 3.35 15 7.5 15C11.64 15 15 11.64 15 7.5C15 3.35 11.64 0 7.5 0ZM5.89 5.15C5.69 4.95 5.36 4.95 5.15 5.15C4.95 5.36 4.95 5.69 5.15 5.89L6.75 7.5L5.15 9.1C4.95 9.3 4.95 9.63 5.15 9.84C5.36 10.04 5.69 10.04 5.89 9.84L7.49 8.24L9.1 9.84C9.3 10.04 9.63 10.04 9.84 9.84C10.04 9.63 10.04 9.3 9.84 9.1L8.23 7.5L9.84 5.89C10.04 5.69 10.04 5.36 9.84 5.15C9.63 4.95 9.3 4.95 9.1 5.15L7.49 6.75L5.89 5.15Z" fill="#C32222" fill-opacity="1.000000" fill-rule="evenodd"/>
</svg>
