<svg width="57.000000" height="51.000000" viewBox="0 0 57 51" fill="none" xmlns="http://www.w3.org/2000/svg" xmlns:xlink="http://www.w3.org/1999/xlink">
	<desc>
			Created with Pixso.
	</desc>
	<defs>
		<linearGradient x1="49.999992" y1="33.999992" x2="45.499996" y2="29.499994" id="paint_linear_6427_763_0" gradientUnits="userSpaceOnUse">
			<stop stop-color="#22C55E"/>
			<stop offset="1.000000" stop-color="#E4E2E1" stop-opacity="0.000000"/>
		</linearGradient>
	</defs>
	<rect id="Rectangle 3721" rx="9.000000" width="51.000000" height="51.000000" fill="#FAFAFC" fill-opacity="0"/>
	<rect id="Rectangle 3721" x="0.250000" y="0.250000" rx="9.000000" width="50.500000" height="50.500000" stroke="#E4E2E1" stroke-opacity="1.000000" stroke-width="0.500000"/>
	<rect id="Rectangle 3870" rx="9.000000" width="51.000000" height="51.000000" fill="#FAFAFC" fill-opacity="0"/>
	<rect id="Rectangle 3870" x="1.000000" y="1.000000" rx="9.000000" width="49.000000" height="49.000000" stroke="url(#paint_linear_6427_763_0)" stroke-opacity="1.000000" stroke-width="2.000000"/>
	<path id="Vector" d="M22.71 30.96L19.1 27.35L23.2 19.52C24.36 17.29 26.55 15.77 29.06 15.47L34.39 14.81C34.89 14.75 35.31 15.17 35.25 15.66L34.59 21C34.29 23.5 32.77 25.69 30.54 26.86L22.71 30.96Z" stroke="#242424" stroke-opacity="1.000000" stroke-width="2.000000" stroke-linejoin="round"/>
	<path id="Vector" d="M16.38 30.06C14.58 31.87 15.48 34.58 15.48 34.58C15.48 34.58 18.19 35.48 20 33.67" stroke="#242424" stroke-opacity="1.000000" stroke-width="2.000000" stroke-linejoin="round" stroke-linecap="round"/>
	<path id="Vector" d="M21.81 21.92C16.38 21.02 14.58 26.44 14.58 26.44L19.1 27.35" stroke="#242424" stroke-opacity="1.000000" stroke-width="2.000000" stroke-linejoin="round" stroke-linecap="round"/>
	<path id="Vector" d="M28.53 28.64C29.43 34.06 24.01 35.87 24.01 35.87L23.1 31.35" stroke="#242424" stroke-opacity="1.000000" stroke-width="2.000000" stroke-linejoin="round" stroke-linecap="round"/>
	<path id="Vector" d="M26.33 20.11C27.33 19.12 28.95 19.12 29.94 20.11C30.94 21.11 30.94 22.73 29.94 23.73C28.95 24.73 27.33 24.73 26.33 23.73C25.33 22.73 25.33 21.11 26.33 20.11Z" stroke="#242424" stroke-opacity="1.000000" stroke-width="2.000000" stroke-linejoin="round"/>
	<circle id="Ellipse 199" cx="51.000000" cy="27.000000" r="3.000000" fill="#22C55E" fill-opacity="1.000000"/>
	<circle id="Ellipse 199" cx="51.000000" cy="27.000000" r="4.500000" stroke="#FFFFFF" stroke-opacity="1.000000" stroke-width="3.000000"/>
</svg>
