<svg width="20.500000" height="20.499023" viewBox="0 0 20.5 20.499" fill="none" xmlns="http://www.w3.org/2000/svg" xmlns:xlink="http://www.w3.org/1999/xlink">
	<desc>
			Created with Pixso.
	</desc>
	<defs/>
	<path id="Vector" d="M9.82 5.34C10 4.97 10.5 4.97 10.67 5.34L12.01 8.19L15.02 8.65C15.41 8.71 15.56 9.21 15.28 9.49L13.11 11.71L13.62 14.85C13.69 15.25 13.28 15.56 12.94 15.37L10.25 13.89L7.55 15.37C7.21 15.56 6.8 15.25 6.87 14.85L7.38 11.71L5.21 9.49C4.93 9.21 5.08 8.71 5.47 8.65L8.48 8.19L9.82 5.34Z" stroke="#22C55E" stroke-opacity="1.000000" stroke-width="1.500000" stroke-linejoin="round"/>
	<path id="Vector" d="M18.88 10.25L19.75 10.25" stroke="#22C55E" stroke-opacity="1.000000" stroke-width="1.500000" stroke-linejoin="round" stroke-linecap="round"/>
	<path id="Vector" d="M10.25 1.61L10.25 0.75" stroke="#22C55E" stroke-opacity="1.000000" stroke-width="1.500000" stroke-linejoin="round" stroke-linecap="round"/>
	<path id="Vector" d="M10.25 19.74L10.25 18.88" stroke="#22C55E" stroke-opacity="1.000000" stroke-width="1.500000" stroke-linejoin="round" stroke-linecap="round"/>
	<path id="Vector" d="M17.15 17.16L16.29 16.29" stroke="#22C55E" stroke-opacity="1.000000" stroke-width="1.500000" stroke-linejoin="round" stroke-linecap="round"/>
	<path id="Vector" d="M17.15 3.34L16.29 4.2" stroke="#22C55E" stroke-opacity="1.000000" stroke-width="1.500000" stroke-linejoin="round" stroke-linecap="round"/>
	<path id="Vector" d="M3.34 17.16L4.2 16.29" stroke="#22C55E" stroke-opacity="1.000000" stroke-width="1.500000" stroke-linejoin="round" stroke-linecap="round"/>
	<path id="Vector" d="M3.34 3.34L4.2 4.2" stroke="#22C55E" stroke-opacity="1.000000" stroke-width="1.500000" stroke-linejoin="round" stroke-linecap="round"/>
	<path id="Vector" d="M0.75 10.25L1.61 10.25" stroke="#22C55E" stroke-opacity="1.000000" stroke-width="1.500000" stroke-linejoin="round" stroke-linecap="round"/>
</svg>
