<svg width="36.000000" height="36.000000" viewBox="0 0 36 36" fill="none" xmlns="http://www.w3.org/2000/svg" xmlns:xlink="http://www.w3.org/1999/xlink">
	<desc>
			Created with Pixso.
	</desc>
	<defs>
		<clipPath id="clip6411_1808">
			<rect id="United States-Circle" rx="8.500000" width="17.000000" height="17.000000" transform="translate(9.500000 9.500000)" fill="white" fill-opacity="0"/>
		</clipPath>
	</defs>
	<rect id="Rectangle 3721" rx="9.000000" width="36.000000" height="36.000000" fill="#FAFAFC" fill-opacity="1.000000"/>
	<rect id="Rectangle 3721" x="0.250000" y="0.250000" rx="9.000000" width="35.500000" height="35.500000" stroke="#E4E2E1" stroke-opacity="0" stroke-width="0.500000"/>
	<rect id="United States-Circle" rx="8.500000" width="17.000000" height="17.000000" transform="translate(9.500000 9.500000)" fill="#F9F9F9" fill-opacity="1.000000"/>
	<g clip-path="url(#clip6411_1808)">
		<path id="Vector" d="M27 9L9 9L9 10.5L27 10.5L27 9Z" fill="#D74B4B" fill-opacity="1.000000" fill-rule="evenodd"/>
		<path id="Vector" d="M27 12.3L9 12.3L9 13.8L27 13.8L27 12.3Z" fill="#D74B4B" fill-opacity="1.000000" fill-rule="evenodd"/>
		<path id="Vector" d="M9 15.6L27 15.6L27 17.1L9 17.1L9 15.6Z" fill="#D74B4B" fill-opacity="1.000000" fill-rule="evenodd"/>
		<path id="Vector" d="M27 18.89L9 18.89L9 20.39L27 20.39L27 18.89Z" fill="#D74B4B" fill-opacity="1.000000" fill-rule="evenodd"/>
		<path id="Vector" d="M9 22.2L27 22.2L27 23.7L9 23.7L9 22.2Z" fill="#D74B4B" fill-opacity="1.000000" fill-rule="evenodd"/>
		<path id="Vector" d="M27 25.5L9 25.5L9 27L27 27L27 25.5Z" fill="#D74B4B" fill-opacity="1.000000" fill-rule="evenodd"/>
		<path id="Vector" d="M9 9L19.51 9L19.51 20.4L9 20.4L9 9Z" fill="#485CC2" fill-opacity="1.000000" fill-rule="evenodd"/>
		<path id="Vector" d="M10.73 10.04L10.82 10.3L11.09 10.3L10.87 10.46L10.95 10.72L10.73 10.56L10.51 10.72L10.6 10.46L10.38 10.3L10.65 10.3L10.73 10.04Z" fill="#F9F9F9" fill-opacity="1.000000" fill-rule="nonzero"/>
		<path id="Vector" d="M10.07 11.8L9.98 11.54L9.9 11.8L9.63 11.8L9.85 11.96L9.76 12.22L9.98 12.06L10.2 12.22L10.12 11.96L10.34 11.8L10.07 11.8Z" fill="#F9F9F9" fill-opacity="1.000000" fill-rule="nonzero"/>
		<path id="Vector" d="M10.73 13.41L10.82 13.67L11.09 13.67L10.87 13.83L10.95 14.09L10.73 13.93L10.51 14.09L10.6 13.83L10.38 13.67L10.65 13.67L10.73 13.41Z" fill="#F9F9F9" fill-opacity="1.000000" fill-rule="nonzero"/>
		<path id="Vector" d="M10.73 16.79L10.82 17.05L11.09 17.05L10.87 17.21L10.95 17.47L10.73 17.31L10.51 17.47L10.6 17.21L10.38 17.05L10.65 17.05L10.73 16.79Z" fill="#F9F9F9" fill-opacity="1.000000" fill-rule="nonzero"/>
		<path id="Vector" d="M9.98 15.29L10.07 15.55L10.34 15.55L10.12 15.71L10.2 15.97L9.98 15.81L9.76 15.97L9.85 15.71L9.63 15.55L9.9 15.55L9.98 15.29Z" fill="#F9F9F9" fill-opacity="1.000000" fill-rule="nonzero"/>
		<path id="Vector" d="M10.07 18.55L9.98 18.29L9.9 18.55L9.63 18.55L9.85 18.71L9.76 18.97L9.98 18.81L10.2 18.97L10.12 18.71L10.34 18.55L10.07 18.55Z" fill="#F9F9F9" fill-opacity="1.000000" fill-rule="nonzero"/>
		<path id="Vector" d="M12.98 13.41L13.07 13.67L13.34 13.67L13.12 13.83L13.2 14.09L12.98 13.93L12.76 14.09L12.85 13.83L12.63 13.67L12.9 13.67L12.98 13.41Z" fill="#F9F9F9" fill-opacity="1.000000" fill-rule="nonzero"/>
		<path id="Vector" d="M13.07 17.05L12.98 16.79L12.9 17.05L12.63 17.05L12.85 17.21L12.76 17.47L12.98 17.31L13.2 17.47L13.12 17.21L13.34 17.05L13.07 17.05Z" fill="#F9F9F9" fill-opacity="1.000000" fill-rule="nonzero"/>
		<path id="Vector" d="M11.86 11.54L11.95 11.8L12.22 11.8L12 11.96L12.08 12.22L11.86 12.06L11.64 12.22L11.73 11.96L11.51 11.8L11.78 11.8L11.86 11.54Z" fill="#F9F9F9" fill-opacity="1.000000" fill-rule="nonzero"/>
		<path id="Vector" d="M11.95 15.55L11.86 15.29L11.78 15.55L11.51 15.55L11.73 15.71L11.64 15.97L11.86 15.81L12.08 15.97L12 15.71L12.22 15.55L11.95 15.55Z" fill="#F9F9F9" fill-opacity="1.000000" fill-rule="nonzero"/>
		<path id="Vector" d="M11.86 18.29L11.95 18.55L12.22 18.55L12 18.71L12.08 18.97L11.86 18.81L11.64 18.97L11.73 18.71L11.51 18.55L11.78 18.55L11.86 18.29Z" fill="#F9F9F9" fill-opacity="1.000000" fill-rule="nonzero"/>
		<path id="Vector" d="M15.32 13.67L15.23 13.41L15.15 13.67L14.88 13.67L15.1 13.83L15.01 14.09L15.23 13.93L15.45 14.09L15.37 13.83L15.59 13.67L15.32 13.67Z" fill="#F9F9F9" fill-opacity="1.000000" fill-rule="nonzero"/>
		<path id="Vector" d="M15.23 16.79L15.32 17.05L15.59 17.05L15.37 17.21L15.45 17.47L15.23 17.31L15.01 17.47L15.1 17.21L14.88 17.05L15.15 17.05L15.23 16.79Z" fill="#F9F9F9" fill-opacity="1.000000" fill-rule="nonzero"/>
		<path id="Vector" d="M14.2 11.8L14.11 11.54L14.03 11.8L13.76 11.8L13.98 11.96L13.89 12.22L14.11 12.06L14.33 12.22L14.25 11.96L14.47 11.8L14.2 11.8Z" fill="#F9F9F9" fill-opacity="1.000000" fill-rule="nonzero"/>
		<path id="Vector" d="M14.11 15.29L14.2 15.55L14.47 15.55L14.25 15.71L14.33 15.97L14.11 15.81L13.89 15.97L13.98 15.71L13.76 15.55L14.03 15.55L14.11 15.29Z" fill="#F9F9F9" fill-opacity="1.000000" fill-rule="nonzero"/>
		<path id="Vector" d="M14.2 18.55L14.11 18.29L14.03 18.55L13.76 18.55L13.98 18.71L13.89 18.97L14.11 18.81L14.33 18.97L14.25 18.71L14.47 18.55L14.2 18.55Z" fill="#F9F9F9" fill-opacity="1.000000" fill-rule="nonzero"/>
		<path id="Vector" d="M17.48 13.41L17.57 13.67L17.84 13.67L17.62 13.83L17.7 14.09L17.48 13.93L17.26 14.09L17.35 13.83L17.13 13.67L17.4 13.67L17.48 13.41Z" fill="#F9F9F9" fill-opacity="1.000000" fill-rule="nonzero"/>
		<path id="Vector" d="M17.57 17.05L17.48 16.79L17.4 17.05L17.13 17.05L17.35 17.21L17.26 17.47L17.48 17.31L17.7 17.47L17.62 17.21L17.84 17.05L17.57 17.05Z" fill="#F9F9F9" fill-opacity="1.000000" fill-rule="nonzero"/>
		<path id="Vector" d="M16.36 11.54L16.45 11.8L16.72 11.8L16.5 11.96L16.58 12.22L16.36 12.06L16.14 12.22L16.23 11.96L16.01 11.8L16.28 11.8L16.36 11.54Z" fill="#F9F9F9" fill-opacity="1.000000" fill-rule="nonzero"/>
		<path id="Vector" d="M16.45 15.55L16.36 15.29L16.28 15.55L16.01 15.55L16.23 15.71L16.14 15.97L16.36 15.81L16.58 15.97L16.5 15.71L16.72 15.55L16.45 15.55Z" fill="#F9F9F9" fill-opacity="1.000000" fill-rule="nonzero"/>
		<path id="Vector" d="M16.36 18.29L16.45 18.55L16.72 18.55L16.5 18.71L16.58 18.97L16.36 18.81L16.14 18.97L16.23 18.71L16.01 18.55L16.28 18.55L16.36 18.29Z" fill="#F9F9F9" fill-opacity="1.000000" fill-rule="nonzero"/>
		<path id="Vector" d="M18.7 11.8L18.61 11.54L18.53 11.8L18.26 11.8L18.48 11.96L18.39 12.22L18.61 12.06L18.83 12.22L18.75 11.96L18.97 11.8L18.7 11.8Z" fill="#F9F9F9" fill-opacity="1.000000" fill-rule="nonzero"/>
		<path id="Vector" d="M18.61 15.29L18.7 15.55L18.97 15.55L18.75 15.71L18.83 15.97L18.61 15.81L18.39 15.97L18.48 15.71L18.26 15.55L18.53 15.55L18.61 15.29Z" fill="#F9F9F9" fill-opacity="1.000000" fill-rule="nonzero"/>
		<path id="Vector" d="M18.7 18.55L18.61 18.29L18.53 18.55L18.26 18.55L18.48 18.71L18.39 18.97L18.61 18.81L18.83 18.97L18.75 18.71L18.97 18.55L18.7 18.55Z" fill="#F9F9F9" fill-opacity="1.000000" fill-rule="nonzero"/>
		<path id="Vector" d="M13.07 10.3L12.98 10.04L12.9 10.3L12.63 10.3L12.85 10.46L12.76 10.72L12.98 10.56L13.2 10.72L13.12 10.46L13.34 10.3L13.07 10.3Z" fill="#F9F9F9" fill-opacity="1.000000" fill-rule="nonzero"/>
		<path id="Vector" d="M15.23 10.04L15.32 10.3L15.59 10.3L15.37 10.46L15.45 10.72L15.23 10.56L15.01 10.72L15.1 10.46L14.88 10.3L15.15 10.3L15.23 10.04Z" fill="#F9F9F9" fill-opacity="1.000000" fill-rule="nonzero"/>
		<path id="Vector" d="M17.57 10.3L17.48 10.04L17.4 10.3L17.13 10.3L17.35 10.46L17.26 10.72L17.48 10.56L17.7 10.72L17.62 10.46L17.84 10.3L17.57 10.3Z" fill="#F9F9F9" fill-opacity="1.000000" fill-rule="nonzero"/>
	</g>
</svg>
