<svg width="30.000000" height="30.000000" viewBox="0 0 30 30" fill="none" xmlns="http://www.w3.org/2000/svg" xmlns:xlink="http://www.w3.org/1999/xlink">
	<desc>
			Created with Pixso.
	</desc>
	<defs/>
	<path id="Vector" d="M29 28L28 28L28 21.5C28 20.83 27.73 20.2 27.26 19.73C26.79 19.26 26.16 19 25.5 19L24.5 19C23.83 19 23.2 19.26 22.73 19.73C22.26 20.2 22 20.83 22 21.5L22 28L18 28L18 15.5C18 14.83 17.73 14.2 17.26 13.73C16.79 13.26 16.16 13 15.5 13L14.5 13C13.83 13 13.2 13.26 12.73 13.73C12.26 14.2 12 14.83 12 15.5L12 28L8 28L8 21.5C8 20.83 7.73 20.2 7.26 19.73C6.79 19.26 6.16 19 5.5 19L4.5 19C3.83 19 3.2 19.26 2.73 19.73C2.26 20.2 2 20.83 2 21.5L2 28L1 28C0.73 28 0.48 28.1 0.29 28.29C0.1 28.48 0 28.73 0 29C0 29.26 0.1 29.51 0.29 29.7C0.48 29.89 0.73 30 1 30L29 30C29.26 30 29.51 29.89 29.7 29.7C29.89 29.51 30 29.26 30 29C30 28.73 29.89 28.48 29.7 28.29C29.51 28.1 29.26 28 29 28ZM24 21.5C24 21.36 24.05 21.24 24.14 21.14C24.24 21.05 24.36 21 24.5 21L25.5 21C25.63 21 25.75 21.05 25.85 21.14C25.94 21.24 26 21.36 26 21.5L26 28L24 28L24 21.5ZM14.5 15L15.5 15C15.63 15 15.75 15.05 15.85 15.14C15.94 15.24 16 15.36 16 15.5L16 18L14 18L14 15.5C14 15.36 14.05 15.24 14.14 15.14C14.24 15.05 14.36 15 14.5 15ZM14 20L16 20L16 28L14 28L14 20ZM4 21.5C4 21.36 4.05 21.24 4.14 21.14C4.24 21.05 4.36 21 4.5 21L5.5 21C5.63 21 5.75 21.05 5.85 21.14C5.94 21.24 6 21.36 6 21.5L6 28L4 28L4 21.5Z" fill="#242424" fill-opacity="1.000000" fill-rule="nonzero"/>
	<path id="Vector" d="M23.25 0C21.91 0 20.61 0.39 19.5 1.13C18.38 1.87 17.52 2.93 17.01 4.16C16.5 5.4 16.36 6.75 16.62 8.06C16.89 9.37 17.53 10.57 18.47 11.52C19.42 12.46 20.62 13.1 21.93 13.37C23.24 13.63 24.59 13.49 25.83 12.98C27.06 12.47 28.12 11.61 28.86 10.5C29.6 9.39 30 8.08 30 6.75C29.99 4.96 29.28 3.24 28.02 1.97C26.75 0.71 25.03 0 23.25 0ZM26.15 8L23.94 10.12C23.75 10.29 23.5 10.39 23.25 10.39C22.99 10.39 22.74 10.29 22.55 10.12L20.33 8C20.24 7.9 20.16 7.79 20.11 7.67C20.06 7.55 20.03 7.42 20.03 7.29C20.03 7.16 20.05 7.03 20.1 6.91C20.15 6.79 20.22 6.67 20.31 6.58C20.4 6.49 20.51 6.41 20.63 6.36C20.75 6.31 20.88 6.28 21.01 6.27C21.14 6.27 21.27 6.3 21.4 6.34C21.52 6.39 21.63 6.46 21.73 6.56L22.25 7.06L22.25 4.06C22.25 3.79 22.35 3.54 22.54 3.35C22.73 3.16 22.98 3.06 23.25 3.06C23.51 3.06 23.76 3.16 23.95 3.35C24.14 3.54 24.25 3.79 24.25 4.06L24.25 7.06L24.76 6.56C24.96 6.39 25.21 6.31 25.46 6.33C25.71 6.34 25.95 6.45 26.12 6.63C26.3 6.82 26.4 7.06 26.4 7.31C26.41 7.56 26.31 7.81 26.15 8Z" fill="#DF361E" fill-opacity="1.000000" fill-rule="nonzero"/>
	<path id="Vector" d="M6.75 0C5.41 0 4.11 0.39 3 1.13C1.88 1.87 1.02 2.93 0.51 4.16C0 5.4 -0.14 6.75 0.12 8.06C0.39 9.37 1.03 10.57 1.97 11.52C2.92 12.46 4.12 13.1 5.43 13.37C6.74 13.63 8.09 13.49 9.33 12.98C10.56 12.47 11.62 11.61 12.36 10.5C13.1 9.39 13.5 8.08 13.5 6.75C13.49 4.96 12.78 3.24 11.52 1.97C10.25 0.71 8.53 0 6.75 0ZM9.67 6.91C9.49 7.09 9.23 7.2 8.97 7.2C8.71 7.2 8.45 7.09 8.26 6.91L7.75 6.41L7.75 9.41C7.75 9.67 7.64 9.92 7.45 10.11C7.26 10.3 7.01 10.41 6.75 10.41C6.48 10.41 6.23 10.3 6.04 10.11C5.85 9.92 5.75 9.67 5.75 9.41L5.75 6.41L5.23 6.91C5.13 7 5.02 7.07 4.89 7.12C4.77 7.16 4.64 7.19 4.51 7.18C4.38 7.18 4.25 7.15 4.13 7.1C4.01 7.05 3.9 6.97 3.8 6.87C3.71 6.78 3.64 6.67 3.59 6.54C3.55 6.42 3.52 6.29 3.53 6.16C3.53 6.03 3.56 5.9 3.61 5.78C3.66 5.66 3.74 5.55 3.83 5.45L6.05 3.33C6.24 3.16 6.49 3.06 6.75 3.06C7 3.06 7.25 3.16 7.44 3.33L9.65 5.45C9.75 5.54 9.83 5.65 9.89 5.78C9.94 5.9 9.98 6.03 9.98 6.17C9.99 6.31 9.96 6.44 9.91 6.57C9.87 6.69 9.79 6.81 9.7 6.91L9.67 6.91Z" fill="#DF361E" fill-opacity="1.000000" fill-rule="nonzero"/>
</svg>
