<svg width="30.000000" height="30.001465" viewBox="0 0 30 30.0015" fill="none" xmlns="http://www.w3.org/2000/svg" xmlns:xlink="http://www.w3.org/1999/xlink">
	<desc>
			Created with Pixso.
	</desc>
	<defs/>
	<path id="Vector" d="M29.79 10.4C29.7 10.27 29.58 10.17 29.44 10.1C29.3 10.03 29.15 10 29 10L19.54 10L19.54 7.32C23.12 7.02 25.29 5.05 25.54 3.15C25.61 2.44 25.4 1.73 24.96 1.17C24.51 0.61 23.87 0.24 23.16 0.15C22.7 0.02 22.21 0 21.74 0.08C21.26 0.16 20.81 0.35 20.41 0.62C19.6 1.22 18.96 2.03 18.57 2.97C18.17 2.01 17.52 1.19 16.7 0.58C16.3 0.31 15.85 0.12 15.38 0.04C14.9 -0.04 14.42 -0.02 13.96 0.11C13.25 0.2 12.6 0.57 12.16 1.13C11.71 1.69 11.5 2.4 11.57 3.11C11.8 5.01 13.96 6.98 17.57 7.28L17.57 10L10.12 10C9.86 10 9.61 10.1 9.42 10.29C9.23 10.48 9.12 10.73 9.12 11C9.12 11.26 9.23 11.52 9.42 11.7C9.61 11.89 9.86 12 10.12 12L27.7 12L27.09 14L11.21 14C10.95 14 10.7 14.1 10.51 14.29C10.32 14.48 10.21 14.73 10.21 15C10.21 15.26 10.32 15.52 10.51 15.7C10.7 15.89 10.95 16 11.21 16L26.45 16L25.45 19.28C25.38 19.49 25.25 19.68 25.07 19.81C24.89 19.94 24.67 20.01 24.45 20L12.88 20C12.62 20 12.37 20.1 12.18 20.29C11.99 20.48 11.88 20.73 11.88 21C11.88 21.26 11.99 21.52 12.18 21.7C12.37 21.89 12.62 22 12.88 22L24.5 22C25.15 22 25.78 21.79 26.29 21.4C26.81 21.02 27.19 20.47 27.37 19.86L29.96 11.28C30 11.13 30.01 10.97 29.98 10.82C29.95 10.66 29.89 10.52 29.79 10.4ZM21.51 2.23C21.74 2.07 22 1.99 22.26 2C22.4 1.98 22.53 1.98 22.66 2C23.29 2.15 23.59 2.44 23.54 2.86C23.45 3.61 22.26 4.93 19.8 5.25C20.06 4.09 20.65 3.04 21.51 2.23ZM13.51 2.91C13.46 2.49 13.75 2.2 14.4 2.05C14.52 2.03 14.66 2.03 14.79 2.05C15.06 2.04 15.32 2.12 15.54 2.28C16.42 3.1 17.01 4.17 17.25 5.35C14.83 4.98 13.7 3.7 13.55 2.91L13.51 2.91Z" fill="#242424" fill-opacity="1.000000" fill-rule="nonzero"/>
	<path id="Vector" d="M29 24L11.13 24C11.03 24 10.92 23.96 10.83 23.89C10.74 23.83 10.68 23.73 10.66 23.63L6.26 7.83C6.12 7.3 5.8 6.84 5.37 6.51C4.93 6.18 4.4 6 3.86 6L1 6C0.73 6 0.48 6.1 0.29 6.29C0.1 6.48 0 6.73 0 7C0 7.26 0.1 7.52 0.29 7.7C0.48 7.89 0.73 8 1 8L3.86 8C3.96 8 4.07 8.03 4.16 8.1C4.24 8.16 4.3 8.25 4.33 8.36L8.7 24.17C8.84 24.69 9.16 25.15 9.59 25.48C10.03 25.81 10.56 25.99 11.11 26L11.96 26L11.96 27C11.96 27.79 12.28 28.56 12.84 29.12C13.41 29.68 14.17 30 14.96 30C15.76 30 16.52 29.68 17.09 29.12C17.65 28.56 17.96 27.79 17.96 27L17.96 26L19.96 26L19.96 27C19.96 27.79 20.28 28.56 20.84 29.12C21.41 29.68 22.17 30 22.96 30C23.76 30 24.52 29.68 25.09 29.12C25.65 28.56 25.96 27.79 25.96 27L25.96 26L28.96 26C29.23 26 29.48 25.89 29.67 25.7C29.86 25.52 29.96 25.26 29.96 25C29.96 24.73 29.86 24.48 29.67 24.29C29.48 24.1 29.23 24 28.96 24L29 24Z" fill="#DF361E" fill-opacity="1.000000" fill-rule="nonzero"/>
</svg>
