<svg width="23.990234" height="30.001465" viewBox="0 0 23.9902 30.0015" fill="none" xmlns="http://www.w3.org/2000/svg" xmlns:xlink="http://www.w3.org/1999/xlink">
	<desc>
			Created with Pixso.
	</desc>
	<defs/>
	<path id="Vector" d="M21.5 13L19 13L19 12C19 11.73 18.89 11.48 18.7 11.29C18.51 11.1 18.26 11 18 11L6 11C5.73 11 5.48 11.1 5.29 11.29C5.1 11.48 5 11.73 5 12L5 13L2.5 13C1.83 13 1.2 13.26 0.73 13.73C0.26 14.2 0 14.83 0 15.5L0 17C0 18.06 0.42 19.07 1.17 19.83C1.92 20.58 2.93 21 4 21L5 21C5.02 21.5 5.17 21.98 5.43 22.41C5.69 22.83 6.05 23.19 6.49 23.44L8.49 24.58L8.49 28L7 28C6.73 28 6.48 28.1 6.29 28.29C6.1 28.48 6 28.73 6 29C6 29.26 6.1 29.52 6.29 29.7C6.48 29.89 6.73 30 7 30L17 30C17.26 30 17.51 29.89 17.7 29.7C17.89 29.52 18 29.26 18 29C18 28.73 17.89 28.48 17.7 28.29C17.51 28.1 17.26 28 17 28L15.5 28L15.5 24.58L17.5 23.44C17.93 23.19 18.29 22.83 18.55 22.41C18.81 21.98 18.96 21.5 18.99 21L19.99 21C21.05 21 22.06 20.58 22.81 19.83C23.56 19.07 23.99 18.06 23.99 17L23.99 15.5C23.99 14.84 23.72 14.2 23.26 13.73C22.79 13.26 22.16 13 21.5 13ZM2 17L2 15.5C2 15.36 2.05 15.24 2.14 15.14C2.24 15.05 2.36 15 2.5 15L5 15L5 19L4 19C3.46 19 2.96 18.79 2.58 18.41C2.21 18.04 2 17.53 2 17ZM17 20.84C17 21.01 16.95 21.19 16.86 21.34C16.77 21.49 16.64 21.62 16.49 21.71L14 23.13C13.84 23.21 13.72 23.34 13.63 23.49C13.54 23.65 13.49 23.82 13.5 24L13.5 28L10.5 28L10.5 24C10.5 23.82 10.45 23.65 10.36 23.49C10.27 23.34 10.14 23.21 9.99 23.13L7.5 21.7C7.34 21.61 7.22 21.48 7.13 21.33C7.04 21.18 6.99 21 7 20.83L7 13L17 13L17 20.84ZM22 17C22 17.53 21.78 18.04 21.41 18.41C21.03 18.79 20.53 19 20 19L19 19L19 15L21.5 15C21.63 15 21.75 15.05 21.85 15.14C21.94 15.24 22 15.36 22 15.5L22 17Z" fill="#242424" fill-opacity="1.000000" fill-rule="nonzero"/>
	<path id="Vector" d="M9.5 17L10.5 17C10.76 17 11.01 16.89 11.2 16.7C11.39 16.52 11.5 16.26 11.5 16C11.5 15.73 11.39 15.48 11.2 15.29C11.01 15.1 10.76 15 10.5 15L9.5 15C9.23 15 8.98 15.1 8.79 15.29C8.6 15.48 8.5 15.73 8.5 16C8.5 16.26 8.6 16.52 8.79 16.7C8.98 16.89 9.23 17 9.5 17Z" fill="#242424" fill-opacity="1.000000" fill-rule="nonzero"/>
	<path id="Vector" d="M13.5 17L14.5 17C14.76 17 15.01 16.89 15.2 16.7C15.39 16.52 15.5 16.26 15.5 16C15.5 15.73 15.39 15.48 15.2 15.29C15.01 15.1 14.76 15 14.5 15L13.5 15C13.23 15 12.98 15.1 12.79 15.29C12.6 15.48 12.5 15.73 12.5 16C12.5 16.26 12.6 16.52 12.79 16.7C12.98 16.89 13.23 17 13.5 17Z" fill="#242424" fill-opacity="1.000000" fill-rule="nonzero"/>
	<path id="Vector" d="M11 7.32L11 9L13 9L13 7.32C16.58 7.02 18.74 5.05 19 3.16C19.07 2.44 18.86 1.72 18.42 1.15C17.97 0.58 17.32 0.21 16.61 0.11C16.14 -0.02 15.66 -0.04 15.18 0.04C14.71 0.12 14.26 0.31 13.87 0.58C13.05 1.18 12.41 1.99 12.02 2.93C11.62 1.99 10.98 1.18 10.16 0.58C9.77 0.31 9.32 0.13 8.85 0.04C8.37 -0.04 7.89 -0.02 7.43 0.11C6.71 0.21 6.06 0.58 5.61 1.15C5.17 1.72 4.96 2.44 5.04 3.16C5.25 5.05 7.41 7.02 11 7.32Z" fill="#DF361E" fill-opacity="1.000000" fill-rule="nonzero"/>
</svg>
