<svg width="30.000000" height="30.007324" viewBox="0 0 30 30.0073" fill="none" xmlns="http://www.w3.org/2000/svg" xmlns:xlink="http://www.w3.org/1999/xlink">
	<desc>
			Created with Pixso.
	</desc>
	<defs/>
	<path id="Vector" d="M23 8C23 6.46 22.55 4.95 21.72 3.66C20.88 2.37 19.69 1.34 18.29 0.71C16.89 0.07 15.33 -0.14 13.81 0.08C12.29 0.31 10.86 0.97 9.71 1.99C8.55 3.01 7.71 4.34 7.3 5.82C6.88 7.3 6.9 8.88 7.35 10.35C7.8 11.82 8.67 13.13 9.85 14.12C11.03 15.11 12.47 15.74 14 15.93L14 18.85L10.08 20.58C9.96 20.64 9.86 20.71 9.77 20.81C9.67 20.9 9.6 21.01 9.56 21.14C9.51 21.26 9.49 21.39 9.49 21.52C9.49 21.65 9.52 21.78 9.58 21.9C9.63 22.02 9.7 22.13 9.8 22.22C9.89 22.31 10.01 22.38 10.13 22.43C10.25 22.48 10.38 22.5 10.51 22.5C10.65 22.49 10.78 22.47 10.9 22.41L15 20.59L19.08 22.41C19.2 22.47 19.33 22.49 19.47 22.5C19.6 22.5 19.73 22.48 19.85 22.43C19.97 22.38 20.09 22.31 20.18 22.22C20.28 22.13 20.35 22.02 20.41 21.9C20.46 21.78 20.49 21.65 20.49 21.52C20.49 21.39 20.47 21.26 20.42 21.14C20.38 21.01 20.31 20.9 20.21 20.81C20.12 20.71 20.02 20.64 19.9 20.58L16 18.85L16 15.93C17.93 15.69 19.7 14.75 20.99 13.29C22.28 11.83 22.99 9.95 23 8ZM9 8C9 6.82 9.35 5.66 10.01 4.67C10.67 3.68 11.6 2.91 12.7 2.46C13.79 2 15 1.89 16.17 2.12C17.33 2.35 18.4 2.92 19.24 3.76C20.08 4.6 20.65 5.67 20.88 6.83C21.11 8 20.99 9.2 20.54 10.3C20.08 11.39 19.32 12.33 18.33 12.99C17.34 13.65 16.18 14 15 14C13.4 14 11.88 13.37 10.75 12.25C9.63 11.12 9 9.59 9 8Z" fill="#242424" fill-opacity="1.000000" fill-rule="nonzero"/>
	<path id="Vector" d="M18.45 5.55C18.27 5.37 18.01 5.26 17.75 5.26C17.49 5.26 17.23 5.37 17.04 5.55L14.16 8.37L12.94 7.18C12.85 7.09 12.74 7.02 12.62 6.97C12.5 6.92 12.37 6.9 12.23 6.9C12.1 6.9 11.97 6.93 11.85 6.98C11.73 7.03 11.62 7.1 11.53 7.2C11.44 7.29 11.37 7.4 11.32 7.52C11.27 7.65 11.24 7.78 11.24 7.91C11.25 8.04 11.27 8.17 11.32 8.29C11.38 8.41 11.45 8.52 11.54 8.61L13.46 10.48C13.65 10.67 13.9 10.77 14.16 10.77C14.43 10.77 14.68 10.67 14.87 10.48L18.44 6.98C18.54 6.89 18.62 6.78 18.67 6.66C18.72 6.53 18.75 6.4 18.75 6.27C18.75 6.14 18.73 6 18.67 5.88C18.62 5.76 18.55 5.65 18.45 5.55Z" fill="#242424" fill-opacity="1.000000" fill-rule="nonzero"/>
	<path id="Vector" d="M7.5 19.5C7.5 20.88 6.38 22 5 22C3.61 22 2.5 20.88 2.5 19.5C2.5 18.12 3.61 17 5 17C6.38 17 7.5 18.12 7.5 19.5Z" fill="#DF361E" fill-opacity="1.000000" fill-rule="evenodd"/>
	<path id="Vector" d="M7.87 22.93C7.07 23.62 6.05 24 5 24C3.94 24 2.92 23.62 2.12 22.93C1.46 23.39 0.93 24 0.56 24.71C0.19 25.42 0 26.2 0 27L0 27.5C0 28.17 0.26 28.8 0.73 29.27C1.2 29.74 1.83 30 2.5 30L7.5 30C8.16 30 8.79 29.74 9.26 29.27C9.73 28.8 10 28.17 10 27.5L10 27C9.99 26.2 9.8 25.42 9.43 24.71C9.06 24 8.53 23.39 7.87 22.93Z" fill="#DF361E" fill-opacity="1.000000" fill-rule="nonzero"/>
	<path id="Vector" d="M27.5 19.5C27.5 20.88 26.38 22 25 22C23.61 22 22.5 20.88 22.5 19.5C22.5 18.12 23.61 17 25 17C26.38 17 27.5 18.12 27.5 19.5Z" fill="#DF361E" fill-opacity="1.000000" fill-rule="evenodd"/>
	<path id="Vector" d="M27.87 22.93C27.07 23.62 26.05 24 25 24C23.94 24 22.92 23.62 22.12 22.93C21.46 23.39 20.93 24 20.56 24.71C20.19 25.42 20 26.2 20 27L20 27.5C20 28.17 20.26 28.8 20.73 29.27C21.2 29.74 21.83 30 22.5 30L27.5 30C28.16 30 28.79 29.74 29.26 29.27C29.73 28.8 30 28.17 30 27.5L30 27C29.99 26.2 29.8 25.42 29.43 24.71C29.06 24 28.53 23.39 27.87 22.93Z" fill="#DF361E" fill-opacity="1.000000" fill-rule="nonzero"/>
</svg>
