<svg width="29.970703" height="29.972656" viewBox="0 0 29.9707 29.9727" fill="none" xmlns="http://www.w3.org/2000/svg" xmlns:xlink="http://www.w3.org/1999/xlink">
	<desc>
			Created with Pixso.
	</desc>
	<defs/>
	<path id="Vector" d="M7.41 22.55C7.22 22.36 6.97 22.26 6.71 22.26C6.44 22.26 6.19 22.36 6 22.55L0.29 28.26C0.15 28.4 0.05 28.58 0.01 28.77C-0.02 28.97 0 29.17 0.07 29.35C0.15 29.53 0.28 29.69 0.44 29.8C0.61 29.91 0.8 29.97 1 29.97C1.26 29.96 1.52 29.86 1.7 29.67L7.41 23.97C7.5 23.87 7.58 23.76 7.63 23.64C7.68 23.52 7.71 23.39 7.71 23.26C7.71 23.13 7.68 23 7.63 22.87C7.58 22.75 7.5 22.64 7.41 22.55Z" fill="#242424" fill-opacity="1.000000" fill-rule="nonzero"/>
	<path id="Vector" d="M8.29 24.84L5.47 27.67C5.38 27.76 5.3 27.87 5.25 27.99C5.2 28.11 5.17 28.25 5.17 28.38C5.17 28.51 5.2 28.64 5.25 28.76C5.3 28.88 5.38 28.99 5.47 29.09C5.56 29.18 5.67 29.25 5.8 29.3C5.92 29.35 6.05 29.38 6.18 29.38C6.31 29.38 6.44 29.35 6.56 29.3C6.69 29.25 6.8 29.18 6.89 29.09L9.7 26.27C9.79 26.18 9.87 26.06 9.92 25.94C9.97 25.82 10 25.69 10 25.56C10 25.43 9.97 25.3 9.92 25.18C9.87 25.06 9.8 24.95 9.71 24.85C9.61 24.76 9.5 24.69 9.38 24.63C9.26 24.58 9.13 24.56 9 24.56C8.87 24.56 8.74 24.58 8.62 24.63C8.49 24.68 8.38 24.75 8.29 24.85L8.29 24.84Z" fill="#242424" fill-opacity="1.000000" fill-rule="nonzero"/>
	<path id="Vector" d="M1.6 24.79C1.87 24.78 2.12 24.68 2.3 24.49L5.12 21.67C5.29 21.48 5.37 21.23 5.36 20.98C5.35 20.73 5.25 20.49 5.07 20.31C4.89 20.13 4.65 20.03 4.4 20.02C4.15 20.01 3.9 20.09 3.71 20.26L0.89 23.08C0.7 23.27 0.6 23.52 0.6 23.78C0.6 24.05 0.7 24.3 0.89 24.49C0.98 24.58 1.09 24.66 1.22 24.71C1.34 24.76 1.47 24.79 1.6 24.79Z" fill="#242424" fill-opacity="1.000000" fill-rule="nonzero"/>
	<path id="Vector" d="M29.87 0.97C29.84 0.74 29.74 0.53 29.58 0.37C29.42 0.21 29.21 0.11 28.99 0.09C25.71 -0.21 22.4 0.22 19.31 1.36C16.21 2.5 13.41 4.31 11.11 6.67C8.15 9.61 6.04 13.31 5.02 17.37C4.98 17.53 4.98 17.71 5.03 17.87C5.07 18.04 5.16 18.19 5.28 18.31L11.64 24.68C11.73 24.77 11.84 24.84 11.97 24.89C12.09 24.94 12.22 24.97 12.35 24.97L12.59 24.97C16.64 23.95 20.34 21.84 23.28 18.87C25.64 16.56 27.46 13.76 28.6 10.66C29.74 7.57 30.18 4.25 29.87 0.97ZM12.7 22.87L7.15 17.31C7.46 16.22 7.85 15.17 8.33 14.15L15.86 21.69C14.84 22.17 13.79 22.56 12.7 22.87ZM21.92 17.44C20.65 18.68 19.23 19.77 17.7 20.67L9.29 12.26C10.21 10.73 11.31 9.32 12.57 8.06C14.57 6.01 16.97 4.41 19.63 3.36C22.29 2.31 25.14 1.83 28 1.97C28.13 4.83 27.65 7.69 26.59 10.36C25.54 13.03 23.93 15.44 21.87 17.44L21.92 17.44Z" fill="#242424" fill-opacity="1.000000" fill-rule="nonzero"/>
	<path id="Vector" d="M23.43 21.45C21.33 23.28 18.94 24.76 16.36 25.82L17.18 28.28C17.24 28.44 17.33 28.59 17.45 28.7C17.58 28.82 17.74 28.9 17.9 28.94C17.98 28.95 18.05 28.95 18.13 28.94C18.26 28.94 18.39 28.91 18.52 28.86C18.64 28.81 18.75 28.73 18.84 28.64L22.48 25C22.84 24.63 23.12 24.18 23.29 23.7C23.47 23.21 23.53 22.69 23.48 22.18L23.43 21.45Z" fill="#DF361E" fill-opacity="1.000000" fill-rule="nonzero"/>
	<path id="Vector" d="M4.93 7.49L1.29 11.13C1.17 11.25 1.08 11.4 1.04 11.56C0.99 11.73 0.99 11.9 1.03 12.07C1.07 12.23 1.15 12.39 1.26 12.51C1.38 12.64 1.52 12.73 1.68 12.79L4.15 13.61C5.2 11.02 6.67 8.63 8.51 6.54L7.75 6.47C7.23 6.42 6.71 6.49 6.23 6.66C5.74 6.84 5.3 7.12 4.93 7.49Z" fill="#DF361E" fill-opacity="1.000000" fill-rule="nonzero"/>
	<path id="Vector" d="M20.85 10.53L20.74 12.45C20.73 12.58 20.75 12.71 20.79 12.83C20.84 12.96 20.9 13.07 20.99 13.17C21.08 13.27 21.18 13.35 21.3 13.41C21.42 13.47 21.55 13.5 21.68 13.51L21.7 13.51C21.96 13.51 22.2 13.41 22.39 13.24C22.57 13.06 22.69 12.82 22.7 12.57L22.96 8.02C22.97 7.88 22.94 7.74 22.89 7.61C22.84 7.47 22.76 7.36 22.66 7.26C22.56 7.16 22.44 7.08 22.31 7.03C22.18 6.98 22.04 6.96 21.9 6.97L17.36 7.23C17.23 7.23 17.1 7.27 16.98 7.32C16.86 7.38 16.76 7.46 16.67 7.56C16.58 7.66 16.51 7.77 16.47 7.9C16.43 8.02 16.41 8.15 16.42 8.28C16.42 8.41 16.46 8.54 16.51 8.66C16.57 8.78 16.65 8.89 16.75 8.97C16.85 9.06 16.96 9.13 17.08 9.17C17.21 9.22 17.34 9.23 17.47 9.23L19.4 9.12L15.25 13.27C15.11 13.41 15.01 13.59 14.97 13.78C14.94 13.98 14.96 14.18 15.03 14.36C15.11 14.54 15.24 14.7 15.4 14.81C15.57 14.92 15.76 14.98 15.96 14.98C16.22 14.97 16.48 14.87 16.66 14.68L20.85 10.53Z" fill="#DF361E" fill-opacity="1.000000" fill-rule="nonzero"/>
</svg>
