<svg width="156.414062" height="24.157227" viewBox="0 0 156.414 24.1572" fill="none" xmlns="http://www.w3.org/2000/svg" xmlns:xlink="http://www.w3.org/1999/xlink">
	<desc>
			Created with Pixso.
	</desc>
	<defs/>
	<path id="Vector" d="M47.18 13.18L49.63 13.18L48.43 9.38L47.18 13.18ZM47.31 7.17L49.58 7.17L53 16.83L50.82 16.83L50.19 14.84L46.64 14.84L45.97 16.83L43.86 16.83L47.31 7.17ZM55.63 14.55C55.68 14.88 55.76 15.12 55.89 15.26C56.12 15.51 56.55 15.63 57.18 15.63C57.91 15.63 58.37 15.41 58.37 14.98C58.38 14.88 58.36 14.79 58.31 14.7C58.26 14.62 58.2 14.55 58.11 14.5C57.94 14.39 57.29 14.2 56.17 13.94C55.36 13.73 54.79 13.48 54.46 13.18C54.12 12.89 53.96 12.46 53.96 11.9C53.96 11.24 54.22 10.67 54.73 10.2C55.25 9.73 55.98 9.49 56.92 9.49C57.81 9.49 58.54 9.67 59.09 10.02C59.66 10.38 59.98 10.99 60.06 11.87L58.2 11.87C58.12 11.19 57.71 10.91 56.95 10.91C56.14 10.91 55.82 11.21 55.82 11.55C55.81 11.65 55.84 11.74 55.89 11.83C55.94 11.91 56.01 11.97 56.09 12.02C56.28 12.12 56.93 12.29 58.04 12.53C59.52 12.88 60.26 13.59 60.26 14.67C60.26 15.38 60 15.95 59.47 16.4C58.94 16.85 58.13 17.07 57.03 17.07C55.91 17.07 55.08 16.83 54.54 16.36C54.01 15.89 53.74 15.28 53.74 14.55L55.63 14.55L55.63 14.55ZM63.2 14.55C63.24 14.88 63.32 15.12 63.46 15.26C63.69 15.51 64.11 15.63 64.74 15.63C65.48 15.63 65.94 15.41 65.94 14.98C65.94 14.88 65.92 14.79 65.87 14.7C65.83 14.62 65.76 14.55 65.68 14.5C65.5 14.39 64.85 14.2 63.73 13.94C62.92 13.73 62.35 13.48 62.02 13.18C61.69 12.89 61.52 12.46 61.52 11.9C61.52 11.24 61.78 10.67 62.3 10.2C62.82 9.73 63.54 9.49 64.48 9.49C65.37 9.49 66.1 9.67 66.66 10.02C67.22 10.38 67.54 10.99 67.63 11.87L65.76 11.87C65.69 11.18 65.27 10.91 64.51 10.91C63.71 10.91 63.38 11.21 63.38 11.55C63.38 11.65 63.4 11.74 63.45 11.83C63.5 11.91 63.57 11.97 63.66 12.02C63.84 12.12 64.49 12.29 65.6 12.53C67.09 12.88 67.82 13.59 67.82 14.67C67.82 15.38 67.56 15.95 67.03 16.4C66.51 16.85 65.7 17.07 64.6 17.07C63.47 17.07 62.64 16.83 62.11 16.36C61.57 15.89 61.31 15.28 61.31 14.55L63.2 14.55L63.2 14.55ZM74.21 13.27C74.21 11.83 73.6 11.04 72.51 11.04C71.43 11.04 70.81 11.83 70.81 13.27C70.81 14.71 71.42 15.51 72.51 15.51C73.6 15.51 74.21 14.71 74.21 13.27ZM75.26 15.96C74.66 16.71 73.75 17.08 72.52 17.08C71.29 17.08 70.38 16.71 69.78 15.96C69.17 15.22 68.87 14.32 68.87 13.27C68.87 12.24 69.17 11.35 69.78 10.59C70.38 9.84 71.29 9.46 72.52 9.46C73.74 9.46 74.66 9.84 75.26 10.59C75.87 11.35 76.17 12.24 76.17 13.27C76.17 14.32 75.87 15.22 75.26 15.96ZM81.87 12.25C81.84 11.99 81.75 11.75 81.6 11.53C81.39 11.24 81.07 11.1 80.63 11.1C80 11.1 79.57 11.41 79.33 12.03C79.21 12.37 79.15 12.81 79.15 13.36C79.15 13.88 79.21 14.3 79.33 14.62C79.56 15.22 79.98 15.51 80.59 15.51C81.47 15.51 81.78 14.99 81.86 14.24L83.76 14.24C83.71 14.83 83.5 15.38 83.15 15.85C82.56 16.67 81.69 17.08 80.55 17.08C79.4 17.08 78.55 16.74 78.01 16.06C77.47 15.38 77.2 14.49 77.2 13.4C77.2 12.18 77.5 11.22 78.1 10.54C78.69 9.86 79.52 9.52 80.57 9.52C81.47 9.52 82.2 9.72 82.77 10.12C83.34 10.52 83.68 11.23 83.79 12.25L81.87 12.25ZM87.09 8.84L85.2 8.84L85.2 7.11L87.09 7.11L87.09 8.84ZM85.2 9.69L87.09 9.69L87.09 16.83L85.2 16.83L85.2 9.69ZM92.94 13.36C92.71 13.5 92.51 13.59 92.09 13.66L91.67 13.74C91.27 13.81 90.99 13.9 90.82 14C90.53 14.17 90.39 14.43 90.39 14.79C90.39 15.43 90.79 15.7 91.3 15.7C91.7 15.7 92.07 15.58 92.41 15.34C92.75 15.11 92.92 14.68 92.94 14.05L92.94 13.36ZM91.8 12.49C92.15 12.44 92.4 12.39 92.55 12.32C92.81 12.21 92.94 12.03 92.95 11.79C92.95 11.21 92.53 11.02 91.75 11.02C90.98 11.02 90.65 11.35 90.55 12L88.75 12C88.85 10.39 89.85 9.52 91.81 9.52C92.59 9.52 93.29 9.67 93.89 9.98C94.5 10.3 94.8 10.88 94.81 11.74C94.81 11.74 94.81 15.24 94.82 15.84C94.85 16.33 94.96 16.44 95.2 16.56L95.2 16.83L93.17 16.83C93.07 16.56 93.01 16.28 93 15.99C92.44 16.6 91.68 17.05 90.75 17.05C90.1 17.05 89.57 16.87 89.15 16.5C88.73 16.13 88.52 15.61 88.52 14.93C88.52 14.05 88.85 13.42 89.53 13.03C89.9 12.81 90.45 12.66 91.17 12.57L91.8 12.49ZM95.83 11.08L95.83 9.75L96.83 9.75L96.83 7.76L98.67 7.76L98.67 9.75L99.83 9.75L99.83 11.08L98.67 11.08L98.67 14.86C98.67 15.15 98.71 15.33 98.79 15.41C98.87 15.49 99.17 15.51 99.64 15.51L99.83 15.5L99.83 16.9L98.95 16.93C98.07 16.96 97.46 16.81 97.14 16.47C96.93 16.26 96.83 15.92 96.83 15.48L96.83 11.08L95.83 11.08ZM102.5 12.55L105.4 12.55C105.34 11.56 104.75 11.04 103.95 11.04C103.09 11.04 102.62 11.62 102.5 12.55ZM105.56 9.83C106.46 10.25 107.1 11.17 107.28 12.36C107.33 12.69 107.35 13.16 107.34 13.78L102.45 13.78C102.48 14.49 102.7 14.99 103.13 15.28C103.39 15.46 103.69 15.55 104.06 15.55C104.65 15.55 105.06 15.33 105.34 14.73L107.25 14.73C107.2 15.16 106.98 15.59 106.59 16.02C105.97 16.72 105.12 17.06 104.02 17.06C103.14 17.07 102.28 16.76 101.61 16.19C100.92 15.6 100.57 14.65 100.57 13.33C100.57 12.1 100.88 11.15 101.51 10.49C102.14 9.83 102.95 9.5 103.95 9.5C104.55 9.5 105.08 9.61 105.56 9.83ZM113.3 10.59L113.3 7.19L115.2 7.19L115.2 16.83L113.38 16.83L113.38 15.84C112.85 16.69 112.22 17.05 111.2 17.05C110.37 17.05 109.67 16.71 109.09 16.04C108.53 15.37 108.24 14.5 108.24 13.44C108.24 12.22 108.52 11.27 109.08 10.57C109.64 9.87 110.39 9.52 111.33 9.52C112.19 9.52 112.88 9.92 113.3 10.59ZM112.94 14.89C113.22 14.5 113.36 13.99 113.36 13.36C113.36 12.49 113.13 11.87 112.69 11.49C112.43 11.27 112.1 11.14 111.75 11.15C111.21 11.15 110.8 11.36 110.55 11.77C110.3 12.18 110.17 12.69 110.17 13.3C110.17 14.62 110.68 15.48 111.74 15.48C112.27 15.48 112.67 15.28 112.94 14.89ZM124.91 8.85L123.03 8.85L123.03 11.69L124.91 11.69C125.86 11.69 126.41 11.24 126.42 10.25C126.42 9.25 125.86 8.85 124.91 8.85ZM127.55 12.65C126.97 13.12 126.15 13.36 125.08 13.36L123.03 13.36L123.03 16.83L121.02 16.83L121.02 7.17L125.23 7.17C126.2 7.17 126.97 7.42 127.55 7.92C128.13 8.42 128.41 9.19 128.41 10.23C128.41 11.37 128.13 12.18 127.55 12.65ZM133.84 9.52L134 9.53L134 11.44C133.83 11.43 133.65 11.42 133.47 11.41C132.72 11.41 132.21 11.66 131.95 12.15C131.81 12.42 131.74 12.85 131.74 13.42L131.74 16.83L129.86 16.83L129.86 9.69L131.64 9.69L131.64 10.94C131.93 10.46 132.18 10.13 132.39 9.96C132.74 9.67 133.2 9.52 133.75 9.52C133.79 9.52 133.82 9.52 133.84 9.52ZM136.56 12.55L139.47 12.55C139.4 11.56 138.81 11.04 138.02 11.04C137.16 11.04 136.69 11.62 136.56 12.55ZM139.62 9.83C140.52 10.25 141.17 11.17 141.35 12.36C141.39 12.69 141.41 13.16 141.4 13.78L136.52 13.78C136.55 14.49 136.77 14.99 137.19 15.28C137.45 15.46 137.76 15.55 138.12 15.55C138.72 15.55 139.12 15.33 139.41 14.73L141.31 14.73C141.27 15.16 141.04 15.59 140.65 16.02C140.04 16.72 139.18 17.06 138.08 17.06C137.2 17.07 136.35 16.76 135.68 16.19C134.98 15.6 134.64 14.65 134.64 13.33C134.64 12.1 134.95 11.15 135.57 10.49C136.2 9.83 137.02 9.5 138.02 9.5C138.61 9.5 139.15 9.61 139.62 9.83ZM144.22 14.55C144.26 14.88 144.34 15.12 144.47 15.26C144.71 15.51 145.13 15.63 145.76 15.63C146.5 15.63 146.96 15.41 146.96 14.98C146.96 14.88 146.94 14.79 146.89 14.7C146.85 14.62 146.78 14.55 146.7 14.5C146.52 14.39 145.87 14.2 144.75 13.94C143.94 13.73 143.37 13.48 143.04 13.18C142.71 12.89 142.54 12.46 142.54 11.9C142.54 11.24 142.8 10.67 143.32 10.2C143.84 9.73 144.56 9.49 145.5 9.49C146.39 9.49 147.12 9.67 147.68 10.02C148.24 10.38 148.56 10.99 148.65 11.87L146.78 11.87C146.71 11.18 146.29 10.91 145.53 10.91C144.73 10.91 144.4 11.21 144.4 11.55C144.4 11.65 144.42 11.74 144.47 11.82C144.52 11.91 144.59 11.97 144.68 12.02C144.86 12.12 145.51 12.29 146.62 12.53C148.11 12.88 148.84 13.59 148.84 14.67C148.84 15.38 148.58 15.95 148.05 16.4C147.53 16.85 146.72 17.07 145.61 17.07C144.49 17.07 143.66 16.83 143.12 16.36C142.87 16.14 142.66 15.86 142.52 15.55C142.38 15.23 142.32 14.89 142.32 14.55L144.22 14.55L144.22 14.55ZM151.78 14.55C151.82 14.88 151.91 15.12 152.04 15.26C152.27 15.51 152.7 15.63 153.32 15.63C154.06 15.63 154.52 15.41 154.52 14.98C154.53 14.88 154.5 14.79 154.46 14.7C154.41 14.62 154.34 14.55 154.26 14.5C154.09 14.39 153.44 14.2 152.32 13.94C151.51 13.73 150.94 13.48 150.61 13.18C150.27 12.89 150.11 12.46 150.11 11.9C150.11 11.24 150.36 10.67 150.88 10.2C151.4 9.73 152.13 9.49 153.07 9.49C153.96 9.49 154.68 9.67 155.24 10.02C155.81 10.38 156.13 10.99 156.21 11.87L154.34 11.87C154.27 11.19 153.86 10.91 153.09 10.91C152.29 10.91 151.97 11.21 151.97 11.55C151.96 11.65 151.98 11.74 152.03 11.83C152.08 11.91 152.16 11.97 152.24 12.02C152.42 12.12 153.07 12.29 154.19 12.53C155.67 12.88 156.41 13.59 156.41 14.67C156.42 15 156.35 15.33 156.21 15.63C156.07 15.93 155.87 16.19 155.61 16.4C155.09 16.85 154.28 17.07 153.18 17.07C152.06 17.07 151.23 16.83 150.69 16.36C150.43 16.14 150.22 15.86 150.09 15.55C149.95 15.23 149.88 14.89 149.89 14.55L151.78 14.55L151.78 14.55Z" fill="#000000" fill-opacity="1.000000" fill-rule="nonzero"/>
	<path id="Vector" d="M0 20.32L13.65 0L18.66 0L18.66 20.36L13.41 20.36L13.41 8.74L10.38 12.81L12.61 12.81L12.6 17.09L7.74 17.09L5.63 20.32L0 20.32ZM19.47 3.87L27.67 3.87C27.67 3.87 33.78 3.91 33.78 10.46C33.78 17 28.75 17.44 28.75 17.44L25.51 17.44L25.51 12.77C25.51 12.77 29.03 13.07 29.02 10.66C29.02 8.3 26.99 8.2 26.99 8.2L24.68 8.18L24.68 24.15L19.48 24.15L19.47 3.87Z" fill="#B86E27" fill-opacity="1.000000" fill-rule="nonzero"/>
</svg>
