<svg width="158.229248" height="21.527344" viewBox="0 0 158.229 21.5273" fill="none" xmlns="http://www.w3.org/2000/svg" xmlns:xlink="http://www.w3.org/1999/xlink">
	<desc>
			Created with Pixso.
	</desc>
	<defs/>
	<path id="Vector" d="M22.75 21.46L37.94 21.46L37.94 17.45L27.34 17.45L27.34 12.54L36.13 12.54L36.13 8.53L27.34 8.53L27.34 4L38 4L38 0L22.75 0L22.75 21.46Z" fill="#093451" fill-opacity="1.000000" fill-rule="nonzero"/>
	<path id="Vector" d="M56.23 13.5L46.28 0L39.43 0L41.56 2.71L41.56 21.52L46.15 21.52L46.15 7.43L56.43 21.46L60.82 21.46L60.82 0L56.23 0L56.23 13.5Z" fill="#093451" fill-opacity="1.000000" fill-rule="nonzero"/>
	<path id="Vector" d="M15.83 10.41C17.85 10.03 19.53 8.15 19.53 5.5C19.52 2.64 17.45 0 13.31 0L0 0L2.06 2.64L2.06 21.47L13.78 21.47C17.92 21.47 20.05 18.88 20.05 15.65C19.97 12.99 18.14 10.73 15.83 10.41ZM6.65 4.03L12.41 4.03C13.96 4.03 14.93 4.94 14.93 6.29C14.93 7.64 13.96 8.55 12.41 8.55L6.65 8.55L6.65 4.03ZM12.6 17.47L6.65 17.47L6.65 12.54L12.6 12.54C14.35 12.54 15.31 13.63 15.31 14.99C15.31 16.54 14.28 17.45 12.6 17.45L12.6 17.47Z" fill="#093451" fill-opacity="1.000000" fill-rule="nonzero"/>
	<path id="Vector" d="M127.99 13.5L130.38 13.5L130.38 16.03C129.14 17.05 127.59 17.62 125.98 17.64C122.17 17.64 119.46 14.73 119.46 10.79C119.46 6.85 122.17 3.94 125.98 3.94C126.96 3.95 127.93 4.2 128.78 4.67C129.64 5.15 130.37 5.83 130.9 6.65L134.52 4.64C132.97 2.19 130.25 0 125.92 0C119.84 0 114.8 4.2 114.8 10.73C114.8 17.26 119.78 21.46 125.92 21.46C127.58 21.48 129.22 21.15 130.74 20.48C132.26 19.81 133.61 18.82 134.71 17.58L134.71 9.63L124.88 9.63L127.99 13.5Z" fill="#093451" fill-opacity="1.000000" fill-rule="nonzero"/>
	<path id="Vector" d="M107.3 13.5L97.35 0L90.49 0L92.63 2.71L92.63 21.52L97.22 21.52L97.22 7.43L107.5 21.46L111.89 21.46L111.89 0L107.3 0L107.3 13.5Z" fill="#093451" fill-opacity="1.000000" fill-rule="nonzero"/>
	<path id="Vector" d="M149.9 0L141.04 0L143.17 2.71L142.79 3.74L135.93 21.52L141.11 21.52L142.45 17.9L151.71 17.9L153.06 21.52L158.22 21.52L149.9 0ZM143.63 13.83L146.99 4.58L150.35 13.83L143.63 13.83Z" fill="#093451" fill-opacity="1.000000" fill-rule="nonzero"/>
	<path id="Vector" d="M83.25 0L87.84 0L87.84 21.52L83.25 21.52L83.25 0Z" fill="#093451" fill-opacity="1.000000" fill-rule="evenodd"/>
	<path id="Vector" d="M79.57 3.68L79.57 0L63.41 0L63.41 4L73.56 4L63.41 17.77L63.41 21.46L79.76 21.46L79.76 17.45L69.36 17.45L79.57 3.68Z" fill="#093451" fill-opacity="1.000000" fill-rule="nonzero"/>
</svg>
