<svg width="80.829102" height="25.628906" viewBox="0 0 80.8291 25.6289" fill="none" xmlns="http://www.w3.org/2000/svg" xmlns:xlink="http://www.w3.org/1999/xlink">
	<desc>
			Created with Pixso.
	</desc>
	<defs/>
	<path id="Vector" d="M17.23 0.18C17.82 0.18 18.4 0.18 18.99 0.17C18.98 2.27 19.01 4.36 18.97 6.46C18.96 7.81 18.39 9.25 17.15 9.92C15.75 10.63 13.98 10.63 12.6 9.85C11.43 9.17 10.87 7.76 10.9 6.45C10.9 4.36 10.9 2.27 10.9 0.18L12.6 0.18C12.61 1.99 12.6 3.8 12.61 5.61C12.64 6.44 12.64 7.35 13.14 8.05C13.81 8.98 15.22 9.07 16.17 8.55C17.03 8.03 17.21 6.95 17.23 6.03C17.24 4.08 17.23 2.13 17.23 0.18ZM24.83 0.22C26.3 -0.22 27.95 0.04 29.26 0.83C29.25 1.44 29.25 2.05 29.25 2.66C28.15 1.84 26.69 1.24 25.32 1.72C24.73 1.89 24.34 2.61 24.62 3.18C24.86 3.73 25.5 3.89 26 4.09C27.08 4.52 28.33 4.76 29.14 5.67C30.17 6.92 29.91 9.15 28.4 9.91C26.69 10.79 24.56 10.51 22.93 9.59C22.93 8.96 22.93 8.33 22.92 7.7C24.15 8.65 25.86 9.21 27.36 8.63C28.18 8.34 28.29 7.06 27.54 6.62C26.39 5.92 24.97 5.77 23.86 4.98C22.89 4.28 22.6 2.89 23 1.8C23.3 1 24.04 0.45 24.83 0.22ZM40.65 0.03C42.97 2.15 45.23 4.35 47.5 6.53L47.5 0.18L49.21 0.18L49.21 10.45C46.88 8.25 44.63 5.98 42.29 3.78L42.29 10.23C41.74 10.23 41.19 10.23 40.64 10.23C40.65 6.83 40.63 3.43 40.65 0.03ZM53.68 0.17C55.73 0.17 57.78 0.18 59.84 0.17C59.85 0.69 59.85 1.2 59.85 1.72C58.38 1.72 56.91 1.72 55.43 1.72L55.43 4.11C56.75 4.11 58.06 4.11 59.37 4.11L59.37 5.65C58.06 5.66 56.74 5.66 55.43 5.65C55.43 6.66 55.43 7.68 55.44 8.69C56.91 8.68 58.38 8.69 59.84 8.68C59.84 9.22 59.85 9.75 59.85 10.28L53.67 10.28C53.68 6.91 53.67 3.55 53.68 0.17ZM64.84 0.57C66.43 -0.35 68.47 -0.07 70.04 0.78C70.07 1.41 70.07 2.03 70.07 2.66C68.93 1.81 67.4 1.2 66 1.76C65.21 2.04 65.12 3.23 65.84 3.65C67.01 4.32 68.44 4.46 69.54 5.28C71.01 6.38 70.9 9.04 69.22 9.89C67.52 10.78 65.36 10.52 63.73 9.57C63.73 8.95 63.73 8.33 63.72 7.71C64.91 8.56 66.42 9.14 67.89 8.74C68.43 8.6 68.92 8.12 68.85 7.52C68.86 7.07 68.54 6.67 68.14 6.48C66.99 5.88 65.63 5.72 64.59 4.91C63.23 3.86 63.32 1.44 64.84 0.57ZM75.05 0.6C76.63 -0.35 78.71 -0.1 80.27 0.78C80.28 1.4 80.28 2.02 80.28 2.63C79.16 1.78 77.62 1.21 76.24 1.77C75.48 2.07 75.39 3.23 76.09 3.65C77.29 4.35 78.78 4.46 79.88 5.35C80.83 6.09 81.02 7.47 80.65 8.56C80.31 9.53 79.33 10.1 78.37 10.31C76.9 10.61 75.33 10.34 74.02 9.6C74 8.97 74 8.34 73.99 7.71C75.23 8.63 76.92 9.21 78.42 8.64C79.24 8.34 79.37 7.08 78.63 6.63C77.44 5.88 75.94 5.78 74.83 4.9C73.52 3.84 73.58 1.49 75.05 0.6ZM0 0.18C1.78 0.28 3.63 -0.09 5.36 0.48C7.28 1.09 7.55 4.09 5.8 5.06C7.39 5.72 7.76 7.98 6.67 9.24C5.99 10.04 4.89 10.25 3.9 10.28C2.6 10.3 1.3 10.28 0 10.29L0 0.18L0 0.18ZM1.7 1.72C1.7 2.61 1.7 3.49 1.7 4.38C2.62 4.33 3.57 4.5 4.46 4.25C5.54 3.93 5.55 2.16 4.47 1.83C3.57 1.6 2.62 1.76 1.7 1.72ZM1.7 5.87C1.7 6.83 1.7 7.78 1.7 8.74C2.75 8.66 3.88 8.95 4.87 8.5C5.86 8.02 5.77 6.38 4.74 6.02C3.76 5.71 2.71 5.94 1.7 5.87ZM34.1 0.18L35.8 0.18L35.8 10.29L34.1 10.29L34.1 0.18ZM27.12 15.87C28.71 14.86 30.83 15.14 32.4 16.05C32.39 16.66 32.39 17.27 32.4 17.88C31.25 17.04 29.67 16.39 28.28 17.03C27.6 17.36 27.51 18.37 28.13 18.81C29.39 19.61 31.06 19.65 32.15 20.75C32.88 21.43 33 22.53 32.81 23.47C32.59 24.4 31.78 25.1 30.88 25.37C29.3 25.85 27.53 25.59 26.11 24.77C26.12 24.14 26.12 23.52 26.11 22.9C27.31 23.8 28.94 24.39 30.41 23.86C31.3 23.62 31.48 22.25 30.67 21.81C29.49 21.06 27.97 20.97 26.88 20.05C25.64 19 25.72 16.75 27.12 15.87ZM6.75 15.45L8.45 15.45C8.46 18.78 8.46 22.11 8.45 25.45L6.75 25.45L6.75 15.45ZM13.29 15.21C15.56 17.37 17.82 19.54 20.1 21.69C20.11 19.59 20.1 17.49 20.11 15.39C20.67 15.39 21.24 15.39 21.81 15.39C21.81 18.8 21.8 22.21 21.81 25.62C19.5 23.44 17.24 21.2 14.95 18.99C14.94 21.14 14.95 23.29 14.94 25.45L13.29 25.45C13.29 22.04 13.29 18.62 13.29 15.21ZM37.24 15.45L38.94 15.45L38.94 25.45L37.24 25.45L37.24 15.45ZM43.84 15.45C45.21 15.45 46.58 15.44 47.95 15.44C49.51 15.42 51.12 16.22 51.88 17.61C52.7 19.08 52.76 20.9 52.25 22.47C51.7 24.13 50.08 25.3 48.35 25.42C46.85 25.49 45.34 25.43 43.84 25.45L43.84 15.45ZM45.59 16.99L45.59 23.9C46.81 23.86 48.12 24.09 49.26 23.52C50.35 22.96 50.85 21.68 50.81 20.51C50.86 19.32 50.44 17.99 49.35 17.38C48.2 16.74 46.84 17.07 45.59 16.99ZM56.07 15.45C58.11 15.44 60.15 15.44 62.19 15.45C62.19 15.96 62.19 16.48 62.19 16.99C60.71 16.99 59.24 16.99 57.77 16.99L57.77 19.33C59.08 19.33 60.4 19.33 61.71 19.33L61.71 20.82C60.4 20.82 59.08 20.82 57.77 20.82L57.77 23.9C59.24 23.9 60.72 23.9 62.19 23.9L62.19 25.45L56.07 25.45L56.07 15.45ZM67.19 15.44C68.57 15.46 69.95 15.43 71.33 15.45C72.51 15.48 73.74 16.16 74.08 17.34C74.38 18.37 74.31 19.59 73.65 20.47C73.25 20.99 72.59 21.19 71.98 21.36C73.17 22.71 74.36 24.07 75.54 25.44C74.87 25.45 74.19 25.45 73.53 25.44C72.39 24.08 71.22 22.75 70.08 21.4C69.7 21.4 69.32 21.4 68.95 21.4C68.94 22.75 68.94 24.1 68.94 25.44C68.36 25.45 67.77 25.45 67.19 25.44L67.19 15.44L67.19 15.44ZM68.94 16.94C68.94 17.93 68.94 18.92 68.94 19.91C69.85 19.86 70.8 20.05 71.68 19.77C72.77 19.33 72.79 17.59 71.72 17.12C70.84 16.79 69.87 16.98 68.95 16.94L68.94 16.94Z" fill="#185F7D" fill-opacity="1.000000" fill-rule="nonzero"/>
</svg>
