<svg width="118.590820" height="16.994629" viewBox="0 0 118.591 16.9946" fill="none" xmlns="http://www.w3.org/2000/svg" xmlns:xlink="http://www.w3.org/1999/xlink">
	<desc>
			Created with Pixso.
	</desc>
	<defs/>
	<path id="Vector" d="M27.8 11.85C27.68 12.52 27.33 13.13 26.82 13.58C26.3 14.03 25.64 14.28 24.96 14.31C24.66 14.32 24.37 14.25 24.09 14.13C23.82 14 23.58 13.82 23.39 13.58C23.21 13.35 23.08 13.08 23.01 12.78C22.95 12.49 22.95 12.19 23.03 11.9C23.14 11.23 23.49 10.62 24 10.17C24.51 9.72 25.16 9.47 25.84 9.44C26.15 9.42 26.45 9.47 26.73 9.6C27.01 9.72 27.25 9.9 27.45 10.14C27.64 10.38 27.77 10.65 27.83 10.95C27.89 11.25 27.88 11.56 27.8 11.85ZM28.71 7.1L28.5 8.1C28.25 7.64 27.87 7.27 27.41 7.04C26.95 6.8 26.43 6.71 25.91 6.78C24.52 6.84 23.18 7.38 22.14 8.31C21.1 9.23 20.41 10.49 20.19 11.87C19.69 14.6 21 16.99 24.02 16.99C24.6 17.01 25.17 16.9 25.7 16.66C26.23 16.43 26.7 16.07 27.07 15.63L26.88 16.65L29.7 16.65L31.48 7.13L28.71 7.13L28.71 7.1ZM33.12 7.11L35.78 7.11L35.6 8.11C35.88 7.67 36.28 7.32 36.75 7.09C37.22 6.85 37.74 6.75 38.27 6.78L37.75 9.65C36.41 9.65 35.48 9.94 35.18 11.4L34.2 16.62L31.34 16.62L33.12 7.11Z" fill="#363333" fill-opacity="1.000000" fill-rule="nonzero"/>
	<path id="Vector" d="M40.18 3.38L37.72 16.62L40.58 16.62L41.43 12.03L41.48 12.03L43.31 16.62L46.54 16.62L44.05 11.29L48.4 7.11L45.04 7.11L41.75 10.56L41.71 10.56L43.04 3.38L40.18 3.38Z" fill="#363333" fill-opacity="1.000000" fill-rule="nonzero"/>
	<path id="Vector" d="M50.09 10.81C50.29 10.32 50.64 9.91 51.08 9.62C51.52 9.33 52.04 9.18 52.56 9.18C52.79 9.15 53.03 9.18 53.25 9.25C53.47 9.31 53.68 9.43 53.85 9.58C54.02 9.74 54.16 9.93 54.26 10.14C54.36 10.35 54.41 10.58 54.41 10.81L50.09 10.81ZM52.97 6.78C51.55 6.86 50.2 7.4 49.13 8.33C48.05 9.27 47.32 10.53 47.04 11.92C46.9 12.53 46.89 13.17 47.03 13.78C47.17 14.4 47.45 14.97 47.84 15.46C48.24 15.95 48.75 16.34 49.32 16.6C49.89 16.86 50.52 16.99 51.15 16.96C52.17 16.96 53.16 16.66 54.01 16.1C54.99 15.5 55.81 14.66 56.4 13.67L53.49 13.67C53.26 13.95 52.97 14.18 52.64 14.33C52.3 14.48 51.94 14.56 51.58 14.55C51.33 14.58 51.08 14.56 50.85 14.48C50.61 14.4 50.39 14.27 50.21 14.1C50.03 13.93 49.89 13.72 49.8 13.49C49.71 13.25 49.67 13 49.69 12.76L56.83 12.76C56.93 12.52 56.99 12.27 57.03 12.01C57.58 9.05 55.88 6.78 52.97 6.78Z" fill="#363333" fill-opacity="1.000000" fill-rule="nonzero"/>
	<path id="Vector" d="M16.4 3.38L11.38 10.92L11.33 10.92L11.33 3.38L8.9 3.38L0 16.62L3.45 16.62L8.45 9.08L8.49 9.08L8.49 16.62L10.95 16.62L15.95 9.08L15.99 9.08L15.99 16.62L18.85 16.62L18.85 3.38L16.4 3.38ZM64.26 7.11L62.46 7.11L62.98 4.29L60.48 4.29L60.28 5.43C60.22 5.92 59.98 6.37 59.6 6.69C59.22 7.01 58.73 7.18 58.23 7.16L57.8 9.26L59.22 9.26L57.85 16.62L60.69 16.62L62.06 9.26L63.88 9.26L64.26 7.11Z" fill="#363333" fill-opacity="1.000000" fill-rule="nonzero"/>
	<path id="Vector" d="M111.01 3.39L113.85 3.39L112.99 8.11C113.28 7.66 113.69 7.3 114.17 7.07C114.65 6.84 115.18 6.74 115.71 6.78C116.17 6.76 116.63 6.84 117.05 7.03C117.46 7.21 117.83 7.49 118.12 7.85C118.73 8.77 118.67 9.62 118.35 11.32L117.38 16.64L114.54 16.64L115.49 11.45C115.58 11 115.85 9.45 114.36 9.45C113.85 9.46 113.37 9.65 113 9.99C112.64 10.34 112.41 10.81 112.38 11.31L111.39 16.62L108.6 16.62L111.01 3.39ZM99.04 7.11L97.28 7.11L97.77 4.29L95.27 4.29L95.02 5.38C94.96 5.87 94.72 6.33 94.34 6.65C93.96 6.97 93.47 7.13 92.97 7.11L92.59 9.26L93.99 9.26L92.63 16.62L95.47 16.62L96.83 9.26L98.65 9.26L99.04 7.11ZM85.34 14.31C86.03 14.3 86.7 14.05 87.23 13.6C87.75 13.15 88.11 12.53 88.23 11.85C88.32 11.56 88.33 11.25 88.27 10.95C88.2 10.65 88.07 10.38 87.88 10.14C87.69 9.9 87.44 9.72 87.16 9.59C86.88 9.47 86.58 9.42 86.28 9.44C85.6 9.46 84.95 9.72 84.43 10.17C83.92 10.62 83.58 11.23 83.46 11.9C83.39 12.19 83.38 12.49 83.45 12.78C83.51 13.08 83.64 13.35 83.83 13.58C84.01 13.82 84.25 14 84.53 14.13C84.8 14.25 85.1 14.31 85.39 14.31L85.34 14.31ZM90.19 16.57L87.32 16.57L87.5 15.55C87.13 16.01 86.66 16.38 86.12 16.62C85.59 16.87 85 16.99 84.41 16.96C81.39 16.96 80.07 14.58 80.58 11.85C80.8 10.48 81.49 9.22 82.53 8.3C83.57 7.38 84.9 6.84 86.29 6.78C86.8 6.73 87.31 6.82 87.77 7.06C88.22 7.3 88.59 7.67 88.83 8.12L89.04 7.12L91.85 7.12L90.19 16.57ZM84.73 0L79.18 3.39L80.76 3.39L75.73 10.92L75.73 3.39L73.23 3.39L68.21 10.92L68.21 3.39L65.3 3.39L65.3 16.62L67.78 16.62L72.8 9.05L72.8 16.62L75.26 16.62L84.18 3.39L85.59 3.39L84.73 0ZM108.33 13.02C107.85 14.15 107.06 15.13 106.04 15.83C105.03 16.53 103.83 16.92 102.6 16.96C101.96 17 101.31 16.88 100.72 16.62C100.13 16.36 99.61 15.96 99.2 15.46C98.79 14.96 98.51 14.37 98.37 13.74C98.24 13.11 98.25 12.45 98.42 11.83C98.7 10.43 99.45 9.17 100.54 8.25C101.63 7.34 103 6.82 104.42 6.78C104.97 6.75 105.52 6.82 106.04 7.01C106.56 7.19 107.03 7.48 107.43 7.86C107.83 8.23 108.15 8.69 108.37 9.19C108.59 9.69 108.71 10.24 108.71 10.79L105.83 10.79C105.74 10.38 105.51 10.01 105.18 9.76C104.84 9.51 104.42 9.4 104 9.44C103.34 9.45 102.7 9.7 102.2 10.14C101.71 10.59 101.39 11.19 101.3 11.85C101.21 12.13 101.18 12.44 101.23 12.73C101.27 13.03 101.39 13.31 101.57 13.55C101.75 13.79 101.99 13.98 102.26 14.11C102.53 14.23 102.82 14.29 103.12 14.28C103.57 14.28 104.02 14.16 104.41 13.94C104.81 13.72 105.14 13.4 105.39 13.02L108.29 13.02L108.33 13.02Z" fill="#4DB84D" fill-opacity="1.000000" fill-rule="nonzero"/>
</svg>
