<svg width="117.870850" height="24.726074" viewBox="0 0 117.871 24.7261" fill="none" xmlns="http://www.w3.org/2000/svg" xmlns:xlink="http://www.w3.org/1999/xlink">
	<desc>
			Created with Pixso.
	</desc>
	<defs/>
	<path id="Vector" d="M59.25 24.08L61.37 24.08L61.37 0.69L59.25 0.69L59.25 24.08ZM88.54 0.69L95.33 0.69L95.33 2.64L93.02 2.64L93.02 24.08L90.88 24.08L90.88 2.64L88.54 2.64L88.54 0.69ZM57.3 0.69L57.3 24.08L55.07 24.08L51.89 9.87L51.89 24.08L49.8 24.08L49.8 0.69L51.72 0.69L55.21 16.18L55.21 0.69L57.3 0.69ZM11.05 0.69L11.05 24.08L8.96 24.08L8.96 4.03L6.38 24.08L4.64 24.08L2.1 4.03L2.1 24.08L0 24.08L0 0.69L3.55 0.69L5.59 14.79L7.51 0.69L11.05 0.69ZM36.95 24.08C38.67 21.76 39.59 18.95 39.58 16.06C39.58 8.59 33.53 2.53 26.05 2.53C18.58 2.53 12.52 8.59 12.52 16.06C12.51 18.95 13.43 21.76 15.15 24.08L17.96 24.08C15.92 22.02 14.66 19.19 14.66 16.06C14.66 9.77 19.76 4.67 26.05 4.67C32.35 4.67 37.45 9.77 37.45 16.06C37.45 19.19 36.19 22.02 34.15 24.08L36.95 24.08L36.95 24.08ZM100.2 16.7L98.79 3.8L97.49 16.7L100.2 16.7ZM103.03 24.08L100.95 24.08L100.4 18.81L97.29 18.81L96.78 24.08L94.66 24.08L97.05 0.69L100.3 0.69L103.03 24.08ZM77.61 21.1C77.61 22.16 77 22.7 76.29 22.7C75.58 22.7 74.96 22.16 74.96 21.1L74.96 3.44C74.96 2.39 75.58 1.85 76.29 1.85C77 1.85 77.61 2.39 77.61 3.44L77.61 4.29L77.61 8.7L79.75 8.7L79.75 5.3L79.74 4.32C79.73 1.4 78.59 0.01 76.21 0.01C74.09 0.01 72.71 1.52 72.71 3.82L72.72 4.68L72.72 19.32L72.72 20.26C72.72 23.26 73.88 24.72 76.26 24.72C78.64 24.72 79.75 23.29 79.75 20.2L79.75 11.7L75.82 11.7L75.82 13.74L77.61 13.74L77.61 20.33L77.61 21.1ZM86.38 20.54L86.38 14.46L81.51 10.82L81.51 4.03C81.51 1.36 82.71 0 85.06 0C87.45 0 88.54 1.35 88.55 4.35L88.56 5.28L88.56 8.73L86.38 8.73L86.38 4.11L86.38 3.45C86.38 2.39 85.76 1.85 85.06 1.85C84.36 1.85 83.75 2.39 83.75 3.45L83.75 9.81L88.56 13.44L88.56 20.48C88.56 23.23 87.34 24.7 85.05 24.7C82.73 24.7 81.53 23.31 81.51 20.63L81.51 19.7L81.51 15.13L83.75 15.13L83.75 21.1C83.75 22.16 84.36 22.7 85.06 22.7C85.76 22.7 86.38 22.16 86.38 21.1L86.38 20.54ZM43.14 2.53L43.14 11.79L43.89 11.79C45.27 11.79 45.92 11.16 45.92 9.82L45.92 5.05C45.92 3.14 45.47 2.53 44.05 2.53L43.14 2.53ZM48.5 24.08L46.37 24.08C46.08 23.29 45.95 22.55 45.94 21.56L45.92 20.36L45.92 19.76L45.92 15.19C45.92 14.24 45.33 13.8 44.66 13.8L43.14 13.8L43.14 24.08L41.05 24.08L41.05 0.69L43.78 0.69C46.84 0.69 48.01 1.81 48.01 4.81L48.01 9.2C48.01 11.16 47.68 11.99 46.14 12.56L46.21 12.58C47.66 13 47.99 13.55 48 15.4L48.01 16.25L48.01 20.52C48.01 22.07 48.13 22.91 48.5 24.08L48.5 24.08ZM105.67 2.53L105.67 11.79L106.42 11.79C107.8 11.79 108.45 11.16 108.45 9.82L108.45 5.05C108.45 3.14 108 2.53 106.58 2.53L105.67 2.53ZM111.03 24.08L108.9 24.08C108.61 23.29 108.48 22.55 108.47 21.56L108.45 20.36L108.45 19.76L108.45 15.19C108.45 14.24 107.86 13.8 107.19 13.8L105.67 13.8L105.67 24.08L103.58 24.08L103.58 0.69L106.31 0.69C109.37 0.69 110.54 1.81 110.54 4.81L110.54 9.2C110.54 11.16 110.21 11.99 108.67 12.56L108.74 12.58C110.19 13 110.52 13.55 110.53 15.4L110.54 16.25L110.54 20.52C110.54 22.07 110.66 22.91 111.03 24.08L111.03 24.08ZM70.79 0.69L70.79 24.08L68.56 24.08L65.37 9.87L65.37 24.08L63.28 24.08L63.28 0.69L65.21 0.69L68.7 16.18L68.7 0.69L70.79 0.69ZM112.87 3.06C112.87 2.43 113.12 1.83 113.56 1.39C114.01 0.94 114.61 0.69 115.23 0.69C115.86 0.69 116.46 0.94 116.9 1.39C117.35 1.83 117.59 2.43 117.59 3.06C117.59 3.68 117.35 4.28 116.9 4.73C116.46 5.17 115.86 5.42 115.23 5.42C114.61 5.42 114.01 5.17 113.56 4.73C113.12 4.28 112.87 3.68 112.87 3.06L112.87 3.06ZM112.6 3.06C112.6 3.75 112.88 4.42 113.37 4.92C113.86 5.41 114.53 5.69 115.23 5.69C115.93 5.69 116.6 5.41 117.09 4.92C117.59 4.42 117.87 3.75 117.87 3.06C117.87 2.36 117.59 1.69 117.09 1.19C116.6 0.7 115.93 0.42 115.23 0.42C114.53 0.42 113.86 0.7 113.37 1.19C112.88 1.69 112.6 2.36 112.6 3.06L112.6 3.06Z" fill="#EA293C" fill-opacity="1.000000" fill-rule="nonzero"/>
	<path id="Vector" d="M114.66 2.97L115.43 2.97C115.76 2.97 115.98 2.87 115.98 2.52C115.98 2.18 115.76 2.07 115.43 2.07L114.66 2.07L114.66 2.97ZM114.31 1.77L115.49 1.77C115.9 1.77 116.32 1.93 116.32 2.52C116.32 2.85 116.17 3.17 115.72 3.25L116.44 4.37L116.02 4.37L115.32 3.27L114.66 3.27L114.66 4.37L114.31 4.37L114.31 1.77L114.31 1.77Z" fill="#EA293C" fill-opacity="1.000000" fill-rule="nonzero"/>
</svg>
