<svg width="202.065430" height="20.580078" viewBox="0 0 202.065 20.5801" fill="none" xmlns="http://www.w3.org/2000/svg" xmlns:xlink="http://www.w3.org/1999/xlink">
	<desc>
			Created with Pixso.
	</desc>
	<defs/>
	<path id="Vector" d="M33.18 0C33.4 0.07 33.54 0.14 33.47 0.42C33.4 0.92 32.62 0.71 32.19 0.85C31.13 1.21 31.48 2.62 31.34 3.62L31.34 17.67C31.34 18.24 31.27 18.87 31.69 19.09C31.98 19.51 32.83 19.23 33.4 19.3C34.25 19.16 34.6 18.24 35.17 17.81C35.38 17.03 35.74 16.39 35.88 15.61C36.31 14.19 36.09 12.35 36.59 10.93C36.87 10.86 36.95 11.07 37.02 11.28L37.02 19.16C37.16 19.37 36.94 19.73 36.94 19.94L36.3 20.08L28.43 20.08C28.14 20.01 27.72 20.08 27.58 19.8C27.65 19.02 28.93 19.37 28.93 18.45L28.93 8.45C28.85 7.17 28.93 5.54 28.93 4.33C28.93 3.12 29.28 1.49 28.43 0.85C28.07 0.5 26.94 1.07 27.08 0.28C27.15 0.14 27.22 0.07 27.44 0L33.18 0L33.18 0ZM61.71 1.06C61.99 1.27 62.35 1.06 62.49 0.99C62.77 0.71 62.49 0 63.06 0.07L63.41 0.14L63.41 7.59C63.27 7.66 63.41 8.09 63.2 8.09L62.77 8.09C62.63 5.39 62.42 2.62 60.43 1.35C60.07 1.12 59.65 1 59.23 0.99C58.37 1.06 57.88 1.7 57.52 2.34C57.03 3.12 57.17 4.61 57.59 5.32C58.66 6.81 60.36 7.66 61.64 8.87C62.92 10.21 64.41 11.63 64.48 13.9C64.69 16.39 63.84 18.45 62.21 19.79C61.28 20.43 59.87 20.5 58.8 20.08L57.31 19.09C56.96 18.94 56.88 19.3 56.74 19.44C56.74 19.87 56.67 20.15 56.39 20.29L55.89 20.15L55.82 16.03L55.82 11.42C55.96 11.35 56.32 11.35 56.46 11.42C56.6 14.33 56.67 17.38 58.8 18.87C59.44 19.3 60.22 19.65 61.14 19.37C62.49 18.8 62.99 17.31 62.99 15.68C62.84 14.26 62.28 13.2 61.28 12.42C59.94 10.78 57.95 9.93 56.67 8.16C56.32 7.73 56.32 7.16 56.03 6.67C55.32 4.32 56.24 1.98 57.59 0.56C58.23 0.14 59.22 -0.15 60.08 0.07C60.69 0.27 61.25 0.61 61.71 1.06ZM5.58 0.07C5.72 0.14 5.94 0.14 6.01 0.42C5.8 0.92 5.16 0.92 4.94 1.35C4.73 1.77 4.73 2.55 4.87 3.05L5.72 8.09C6.08 9.72 6.43 11.42 6.86 13.05L7.07 13.05C7.64 10.64 8.06 8.23 8.49 5.82C8.06 3.97 8.42 1.49 6.72 0.64C6.57 0.28 6.79 0.07 7.14 0.07C8.13 0.14 11.33 0.07 12.11 0.14C12.18 0.32 12.18 0.53 12.11 0.71C11.54 0.92 10.9 0.85 10.55 1.35C9.77 2.62 10.83 3.97 10.76 5.46L11.61 9.93C11.83 10.93 11.83 12.13 12.39 12.91L12.46 12.91L13.53 8.3C14.1 6.38 14.38 4.33 14.81 2.34C14.95 1.7 14.74 1.28 14.31 0.99C14.03 0.71 13.53 0.78 13.1 0.71C13.03 0.53 13.03 0.32 13.1 0.14C14.17 0.14 17.43 0.07 17.86 0.14C18.07 0.21 18 0.57 17.93 0.71C17.29 0.85 16.65 0.99 16.3 1.42C15.87 2.55 15.66 3.76 15.38 4.89L14.17 10.43C13.46 13.48 12.68 16.6 11.97 19.72C11.83 19.94 11.47 19.94 11.33 19.8C10.91 19.23 10.91 18.3 10.69 17.52L9.63 11.42L9.06 8.87L8.92 8.87L8.07 13.05C7.63 15.13 7.21 17.22 6.79 19.3C6.72 19.72 6.43 20.01 5.87 19.87C5.37 19.72 5.58 19.09 5.44 18.66L5.09 16.39L4.02 10.78L3.31 6.74C3.1 5.11 2.67 3.47 2.32 1.91C2.25 1.49 1.82 1.2 1.54 0.92C1.04 0.78 0.62 0.99 0.12 0.71C-0.02 0.57 -0.09 0.14 0.19 0.07L5.58 0.07ZM21.76 0.57C22.04 2.48 22.61 4.18 22.9 6.17L24.39 13.48C24.74 15.11 24.88 16.74 25.31 18.23C25.52 18.87 25.95 19.3 26.66 19.37C26.66 19.58 26.87 19.72 26.73 19.87L26.51 20.08L22.33 20.08C22.18 19.87 21.48 20.08 21.19 19.87C20.98 18.8 22.54 19.65 22.68 18.87C23.04 18.52 22.9 17.81 22.83 17.38C22.47 16.67 22.75 15.47 22.04 14.97L19.21 14.97L18.92 15.11C18.85 16.39 17.93 17.81 18.71 19.09C18.99 19.3 19.56 19.23 19.77 19.44L19.7 19.87L15.66 19.94C15.23 20.08 15.3 19.44 15.45 19.3C16.3 19.37 16.79 18.94 17.22 18.52C17.72 17.38 17.72 15.96 18.07 14.69L18.85 9.72L19.56 5.6C19.92 3.9 20.13 2.13 20.48 0.35C20.55 0 21.9 -0.21 21.76 0.57ZM44.18 0.07C44.25 0.21 44.4 0.5 44.25 0.64C43.61 0.92 42.55 0.64 42.41 1.42C42.27 3.62 42.27 5.25 42.27 7.45L42.2 16.11L42.12 16.11C42.55 17.17 41.56 19.3 43.12 19.37C43.47 19.44 44.18 19.44 44.54 19.23C45.96 18.1 46.38 16.18 46.67 14.26C46.88 13.27 46.74 12.06 47.02 11.07C47.2 11 47.41 11 47.59 11.07L47.59 19.73L47.52 20.08C46.38 20.08 45.18 20.08 44.32 20.15L40.28 20.08L38.08 20.08C37.72 20.08 37.87 19.58 37.94 19.37C38.65 19.3 39.5 19.37 39.85 18.81C40.14 17.74 39.93 16.32 40.07 15.19C39.92 14.19 40.14 13.13 40 11.99L40.07 11.07L40.07 1.99C40 1.63 39.78 1.21 39.57 1C39.14 0.5 37.44 1.21 38.08 0.07L44.18 0.07L44.18 0.07ZM74.2 0.14L74.34 0.5L74.34 8.65C74.27 8.87 74.13 8.94 73.98 9.01L73.63 8.87C73.7 6.31 73.34 4.04 72.63 1.99C72.49 1.56 72.14 1.2 71.71 0.99C71.36 0.99 71 0.99 70.86 1.28L70.86 16.39L70.79 16.39C70.86 17.45 70.65 18.8 71.43 19.3C71.93 19.65 72.78 19.09 72.85 19.87C72.85 20.43 72.07 20.01 71.71 20.22L70.15 20.22L70.15 20.15C69.66 20.36 69.16 20.01 68.73 20.22C68.31 20.15 67.39 20.15 66.75 20.15C66.53 20.08 66.61 19.65 66.68 19.51C67.46 19.37 68.31 19.3 68.59 18.45L68.59 1.42C68.45 1.06 68.24 0.99 67.95 0.92C66.89 1.2 66.61 2.34 66.32 3.4C65.97 4.97 65.68 6.53 65.83 8.44C65.68 8.65 65.83 9.01 65.47 9.01L65.04 8.87L65.04 0.28C65.97 0 72 0.07 74.2 0.14ZM82.64 0.14C83.85 0.5 84.84 1.27 85.41 2.34C85.9 3.9 86.19 6.46 85.19 7.8C84.7 8.51 84.13 9.15 83.35 9.65C83.21 10.15 83.71 10.15 83.99 10.57C84.98 11.28 85.12 12.91 85.12 14.19C85.12 14.05 84.98 13.9 84.91 14.05C84.84 14.26 84.98 14.4 85.2 14.4C85.27 15.61 85.05 16.96 85.34 18.02C85.37 18.12 85.42 18.21 85.5 18.29C85.57 18.36 85.66 18.42 85.76 18.45C86.12 18.38 86.19 18.02 86.33 17.81C86.26 17.17 86.4 16.46 86.47 15.82C86.69 15.96 86.9 15.54 87.04 15.82C87.18 17.45 87.11 19.16 86.05 19.93C85.62 20.22 85.2 20.36 84.56 20.29C83.9 20.1 83.35 19.67 83 19.08L82.79 17.74L82.79 12.63C82.57 11.63 82.36 10.57 81.37 10.29C80.94 10.14 80.23 10 79.88 10.29L79.73 10.57L79.73 18.45C79.88 18.87 80.02 19.23 80.37 19.37C80.73 19.44 81.22 19.37 81.15 19.94L81.01 20.15L77.32 20.22C77.18 20.22 76.97 20.08 76.9 20.22C76.54 19.94 75.33 20.58 75.62 19.72C75.62 19.23 76.26 19.58 76.54 19.37C76.9 19.3 77.11 18.94 77.32 18.73C77.32 18.37 77.53 17.95 77.39 17.59L77.46 13.48C77.46 11.78 77.39 10.15 77.46 8.65C77.46 7.59 77.46 6.1 77.39 4.97C77.46 4.25 77.39 3.19 77.46 2.48C77.32 1.84 77.18 1.2 76.61 0.99C76.26 0.85 75.62 1.06 75.48 0.71C75.41 0.42 75.48 0.21 75.76 0.14L82.64 0.14ZM97.61 0.14C98.11 0.35 97.82 1.35 97.9 1.84C98.11 2.98 97.75 4.25 97.97 5.25C97.75 5.67 98.04 5.96 97.97 6.38C97.83 6.88 97.97 7.59 97.83 8.01C96.83 8.09 97.33 6.81 97.19 6.17C96.97 3.97 96.19 1.98 94.35 1.06C93.71 0.85 92.65 0.85 92.22 1.34C91.79 2.62 92.01 4.75 92.01 5.96C91.86 6.38 92.08 6.53 92.01 7.02L92.01 9.01C92.08 9.22 91.94 9.79 92.43 9.72C94.14 8.94 94.35 6.95 94.35 4.96C94.35 4.68 94.49 4.54 94.92 4.61L94.99 5.03C94.85 5.96 95.13 7.09 94.92 8.09C94.92 9.08 94.92 10.43 94.99 11.49C94.92 12.72 94.92 13.95 94.99 15.18C94.99 15.46 94.85 15.61 94.56 15.61C94.07 15.18 94.42 13.97 94.21 13.34C93.92 12.13 93.64 10.71 92.29 10.43L92.08 10.57C91.94 12.13 92.01 13.27 92.01 14.68C92.01 15.96 92.08 17.59 92.01 18.87C92.43 19.72 93.5 19.37 94.49 19.37C96.26 18.59 96.9 16.46 97.26 14.47L98.11 14.68L98.11 19.93L97.9 20.15L89.67 20.22C89.1 20.08 88.1 20.29 87.54 20.08C87.32 18.94 88.67 19.72 89.1 19.3C89.38 19.16 89.52 18.87 89.67 18.59L89.67 1.84C89.52 1.49 89.31 1.13 89.03 0.99C88.53 0.78 87.46 1.21 87.54 0.35L87.68 0.14L97.61 0.14ZM107.9 0.14C108.26 0.35 109.25 0 109.46 0.42C109.46 3.05 109.53 5.32 109.46 7.87C109.39 8.09 109.04 8.09 108.89 7.95C108.61 5.18 108.68 1.91 106.13 0.92C105.56 0.71 104.92 0.99 104.35 0.99C104 1.35 103.71 1.63 103.71 2.2L103.71 9.08C103.78 9.29 103.86 9.44 104.07 9.44C105.98 8.94 105.84 6.6 106.13 4.68C106.2 4.54 106.55 4.54 106.69 4.68L106.69 7.59C106.84 7.73 106.69 7.73 106.69 8.02C106.84 8.66 106.69 9.15 106.76 9.93L106.76 11.85C106.55 12.91 106.84 14.26 106.55 15.26C106.41 15.4 106.13 15.33 106.05 15.11C105.91 13.48 105.91 11.35 104.64 10.36C104.49 10.22 104.07 10.22 103.86 10.36L103.71 10.86L103.71 15.47L103.78 15.47C103.85 16.6 103.36 18.45 104.21 19.16C104.78 19.44 105.56 19.51 106.27 19.37C107.83 18.87 108.25 17.24 108.82 15.82C108.68 15.26 109.03 14.69 109.03 14.05L109.18 11.78C109.32 11.64 109.46 11.57 109.67 11.71L109.82 11.85C109.6 12.91 110.24 14.62 109.25 15.04C109.18 15.32 108.82 15.32 108.82 15.68C109.11 15.4 109.46 15.11 109.74 14.69L109.89 14.69L109.82 18.8C109.67 19.3 110.03 20.08 109.46 20.22C108.25 20.36 107.12 20.29 105.91 20.29C103.64 20.15 101.51 20.22 99.31 20.22C99.1 20.15 99.1 19.72 99.24 19.58C99.88 19.37 100.73 19.51 101.16 18.87C101.8 18.38 101.44 16.96 101.51 16.03C101.58 14.47 101.37 12.42 101.51 11L101.44 6.95L101.44 1.91C101.23 1.35 100.8 0.85 100.09 0.85C99.67 0.85 99.17 0.92 99.31 0.35C99.39 0.07 106.77 0.14 107.9 0.14ZM144.02 2.2C144.94 3.47 145.22 5.32 145.65 7.09C146.15 10.78 145.79 15.04 144.37 17.74C143.85 18.73 143.06 19.57 142.1 20.15C141.25 20.36 139.97 20.43 139.41 19.87C136.71 17.38 136.07 13.48 136.14 8.94C136.28 5.89 137.21 2.98 138.98 0.92C139.69 0.14 141.04 -0.07 142.17 0.28C142.88 0.78 143.59 1.42 144.02 2.2ZM120.32 0.35L120.46 0.57L120.53 6.03C120.32 6.95 120.53 8.09 120.39 9.01C120.18 9.22 119.96 9.01 119.82 8.94L119.61 5.46C119.32 3.83 119.04 2.34 118.12 1.2C117.9 0.99 117.41 0.99 117.27 1.2L116.98 1.49L116.98 18.73C117.12 19.72 118.54 19.16 119.11 19.58C119.18 19.94 119.04 20.15 118.76 20.22C116.91 20.43 115.07 20.08 113.22 20.22C112.8 20.29 112.8 19.79 112.94 19.58C113.58 19.44 114.36 19.51 114.57 18.87L114.64 10.92L114.64 1.56C114.5 1.34 114.36 1.13 114.08 1.06C112.8 1.2 112.73 2.48 112.37 3.4L111.81 7.24C111.66 7.88 111.95 8.73 111.59 9.08L111.17 9.01L111.1 5.04C111.1 3.62 111.02 1.84 111.17 0.42C111.66 0.07 119.11 0.28 120.32 0.35ZM135.64 0.28C136 0.21 136.07 0.57 135.93 0.78C135.22 0.92 134.51 0.92 134.08 1.42C133.59 2.55 134.15 4.04 133.94 5.25C134.01 5.46 133.87 5.89 133.94 6.24C134.01 7.16 133.94 8.23 133.94 9.08L133.94 17.03C133.52 18.45 132.88 19.87 131.46 20.22C130.04 20.58 129.12 19.94 128.48 19.23C127.7 18.09 126.85 16.6 127.49 14.9C127.77 14.26 128.27 13.9 128.98 13.83C129.33 13.98 129.76 14.12 129.9 14.47C129.83 15.11 130.25 15.82 129.83 16.25C129.76 16.81 128.98 16.81 128.98 17.45C129.05 18.3 129.4 19.01 130.11 19.3C130.75 19.44 131.1 19.16 131.46 18.8C131.96 17.38 131.67 15.11 131.67 13.55L131.75 9.43L131.75 2.13C131.6 1.7 131.46 1.34 131.1 0.99C130.68 0.64 129.69 1.13 129.47 0.56L129.69 0.14C131.89 0.14 133.45 0.35 135.64 0.28ZM151.18 0.35C151.47 0.21 152.04 0.14 152.25 0.5C152.32 0.92 152.04 0.99 151.75 1.06C151.33 1.06 151.04 1.28 150.76 1.49C150.47 1.99 150.47 2.69 150.47 3.41L150.47 11.49L150.4 11.57C150.55 13.7 150.4 15.11 150.55 17.31C150.76 18.16 151.25 18.94 152.04 19.37C152.67 19.51 153.53 19.44 153.95 18.94C154.66 18.45 154.8 17.67 154.94 16.89L154.94 9.79L154.87 9.37L154.94 3.12C155.02 2.48 154.87 1.77 154.52 1.28C154.16 0.99 153.53 0.99 153.1 0.92L153.17 0.42L156.93 0.35C157.14 0.35 157.29 0.57 157.29 0.71C157.29 1.06 156.72 0.85 156.58 0.99C156.22 1.06 155.87 1.35 155.87 1.7L155.65 2.84L155.65 17.03C155.51 18.24 154.8 19.23 153.95 19.94C153.38 20.43 152.25 20.22 151.61 20.36C150.19 20.08 148.99 19.09 148.56 17.74C147.71 15.96 148.28 13.05 148.06 11.14L148.06 1.99C147.92 1.56 147.71 1.28 147.35 1.06C147 0.92 146.36 1.06 146.36 0.64C146.29 0.21 146.78 0.43 147 0.28L151.18 0.35ZM162.61 0.42C164.74 0.14 166.87 0.57 167.72 2.27C168.43 3.4 168.85 5.18 168.36 6.74C167.72 7.87 167.22 9.29 165.94 9.86C165.94 10.5 166.65 10.64 166.94 11.14C167.22 11.71 167.5 12.2 167.5 12.98L167.64 16.6C167.64 17.24 167.57 18.3 168.21 18.59C169.06 18.3 168.85 17.03 168.99 16.1C169.06 16.03 169.35 16.03 169.42 16.1C169.63 17.67 169.28 19.16 168.35 20.08C167.86 20.29 167.22 20.58 166.65 20.36C166.01 20.36 166.01 19.65 165.59 19.3L165.37 17.24L165.37 13.12C165.3 12.2 165.23 11.14 164.52 10.64C164.03 10.21 163.1 10.07 162.39 10.36L162.25 10.57C161.97 13.34 162.32 15.61 162.25 18.52C162.32 18.94 162.39 19.44 162.89 19.65C163.32 19.72 163.53 19.65 164.03 19.79C164.1 19.94 164.03 20.15 164.1 20.36L160.34 20.43L158.28 20.29C158.14 20.15 158.14 19.79 158.28 19.72C158.92 19.72 159.41 19.51 159.77 19.16L159.98 18.45L159.98 2.13C159.84 1.7 159.77 1.27 159.34 1.06C158.99 0.92 158.35 1.13 158.35 0.64C158.57 0.14 158.99 0.57 159.48 0.35C160.55 0.42 161.4 0.42 162.61 0.42ZM173.04 0.35C173.18 0.5 173.46 0.57 173.54 0.78C174.96 4.75 176.02 8.87 177.65 12.7C178.08 12.63 177.51 12.2 177.79 11.99C177.72 10.5 177.86 9.08 177.72 7.52C177.86 6.67 177.72 6.03 177.79 5.11C177.58 4.97 177.94 4.75 177.72 4.68C177.86 3.83 177.65 2.62 177.65 1.63C177.3 1.13 176.66 0.99 175.95 0.99C175.95 0.92 175.81 0.49 176.09 0.42L180.21 0.42C180.49 0.5 180.35 0.78 180.35 0.99C179.92 1.2 179.28 1.13 179 1.56L178.72 2.27L178.65 6.1L178.65 18.23C178.58 18.8 178.72 19.72 178.58 20.29C178.43 20.43 178.08 20.51 177.94 20.36C177.44 19.72 177.51 18.66 177.01 18.02C176.23 16.1 175.81 13.9 175.03 12.06L173.61 8.01C173.4 7.31 173.04 6.74 172.83 6.1L172.69 6.17C172.47 7.02 172.47 7.73 172.61 8.58L172.54 12.41L172.54 18.73C172.69 19.08 172.83 19.44 173.18 19.65C173.54 19.87 174.39 19.44 174.39 20.08L174.32 20.36L170.35 20.43C170.06 20.36 169.71 20.36 169.71 20.01C169.99 19.44 171.2 20.01 171.48 19.3C171.77 18.73 171.77 17.95 171.77 17.17L171.69 9.01L171.69 2.2C171.55 1.2 170.56 1.13 169.78 0.92C169.56 0.78 169.78 0.56 169.78 0.42C170.84 0.28 171.9 0.35 173.04 0.35ZM186.88 3.97C187.16 5.96 187.8 7.73 188.01 9.79L189.29 15.68C189.71 17.1 189.64 18.94 190.99 19.65C191.35 19.72 191.77 19.72 191.56 20.29L191.49 20.43C189.85 20.5 187.66 20.58 185.95 20.36C185.6 19.37 186.81 19.79 187.23 19.51C187.58 19.23 187.66 18.66 187.58 18.02C187.37 17.03 187.23 15.96 186.81 15.18C185.67 15.11 184.32 15.11 183.33 15.25C183.04 15.61 182.97 16.17 182.9 16.74C182.76 17.59 182.19 18.87 183.04 19.58C183.4 19.94 184.82 19.3 184.32 20.36C183.19 20.58 181.84 20.5 180.7 20.5C180.35 20.36 179.57 20.65 179.78 19.94C179.78 19.51 180.49 19.79 180.7 19.65C181.34 19.3 181.63 18.66 181.77 18.02L182.62 13.2L183.68 7.09L184.32 3.55C184.53 2.48 184.68 1.28 185.17 0.42L186.1 0.5L186.88 3.97ZM197.66 0.42C197.94 0.5 198.23 0.57 198.23 0.92C198.09 1.42 197.16 1.13 196.81 1.42C196.31 1.63 196.31 2.27 196.17 2.69L196.17 18.52C195.96 19.01 196.31 19.37 196.6 19.65C197.16 20.01 198.44 19.94 199.15 19.72C200.29 19.01 200.5 17.59 201 16.32L201.49 12.63C201.56 12.49 201.85 12.49 202.06 12.63L202.06 19.23L201.99 19.23C201.99 19.58 202.06 20.15 201.92 20.5C201.56 20.65 201 20.5 200.71 20.58L200.5 20.5L196.67 20.58C195.18 20.5 193.54 20.72 192.34 20.36C192.2 20.29 192.2 20.01 192.27 19.86C192.69 19.58 193.62 19.93 193.83 19.3L193.9 18.59L193.9 1.84C193.54 1.13 192.77 1.06 192.05 1.06C192.05 0.78 191.91 0.5 192.2 0.42L197.66 0.42Z" fill="#000000" fill-opacity="1.000000" fill-rule="evenodd"/>
	<path id="Vector" d="M142.74 2.27L142.88 3.62L142.88 8.09L142.95 8.16L142.88 17.38C142.74 18.09 142.38 18.59 142.03 19.16C141.53 19.58 140.68 19.51 140.19 19.23C139.12 18.52 138.91 17.17 138.98 15.97C138.91 14.97 139.26 14.12 138.98 13.2C139.05 12.13 138.98 10.93 139.12 9.79C138.98 9.72 139.12 9.29 138.98 9.22C139.26 8.87 138.91 8.66 138.98 8.3C139.05 6.53 138.98 5.18 138.98 3.12C139.26 2.2 139.69 1.14 140.68 0.92C141.75 0.85 142.32 1.49 142.74 2.27ZM82.07 1.06C84.06 2.27 83.28 5.32 83.21 7.59C83.07 8.23 82.71 8.73 82.22 9.15C81.65 9.51 80.44 9.44 79.87 9.22L79.8 1.99C79.87 1.49 80.09 0.99 80.72 0.99C81.15 0.85 81.58 1.06 82.07 1.06ZM165.73 2.2C165.94 2.7 165.94 3.4 166.01 3.9L165.94 7.66C165.73 8.37 165.52 9.01 164.88 9.29C164.31 9.51 163.03 9.51 162.32 9.29C162.25 6.6 162.25 4.54 162.25 1.84C162.32 1.49 162.61 1.14 163.03 0.99C164.38 0.71 165.09 1.42 165.73 2.2ZM185.1 6.39C185.53 9.08 186.38 11.49 186.73 14.26L186.59 14.4L183.75 14.47L183.4 14.26C183.47 13.48 183.61 12.63 183.82 11.78L184.39 8.02C184.53 7.45 184.6 6.81 184.82 6.31L185.1 6.39ZM21.34 10.15L22.04 13.98C21.55 14.55 20.55 13.98 19.77 14.19L19.21 14.12L19.28 13.2L19.92 9.15L20.41 6.53L20.56 6.6L21.34 10.15Z" fill="#FFFFFF" fill-opacity="1.000000" fill-rule="evenodd"/>
</svg>
