<svg width="117.492188" height="16.549316" viewBox="0 0 117.492 16.5493" fill="none" xmlns="http://www.w3.org/2000/svg" xmlns:xlink="http://www.w3.org/1999/xlink">
	<desc>
			Created with Pixso.
	</desc>
	<defs/>
	<path id="Vector" d="M16.73 4.37L16.73 5.2C16.25 4.58 15.37 4.16 14.34 4.16C11.92 4.16 10.12 6.3 10.12 8.82C10.12 11.41 11.9 13.48 14.34 13.48C15.37 13.48 16.25 13.07 16.73 12.42L16.73 13.25L19.75 13.25L19.75 4.37L16.73 4.37ZM20.8 0.43L20.8 13.25L23.93 13.25L23.93 8.52C23.93 7.59 24.38 7.04 25.08 7.04C25.79 7.04 26.16 7.52 26.16 8.41L26.16 13.25L29.28 13.25L29.28 7.67C29.28 5.51 28.11 4.16 26.24 4.16C25.79 4.14 25.34 4.23 24.94 4.42C24.53 4.61 24.18 4.89 23.9 5.24L23.9 0.44L20.8 0.43ZM49.45 8.81C49.45 11.47 47.41 13.48 44.71 13.48C42 13.48 39.96 11.47 39.96 8.81C39.96 6.16 42 4.15 44.71 4.15C47.41 4.15 49.45 6.16 49.45 8.81ZM39.43 8.81C39.43 11.47 37.4 13.48 34.69 13.48C31.99 13.48 29.95 11.47 29.95 8.81C29.95 6.16 31.98 4.15 34.69 4.15C37.4 4.15 39.43 6.16 39.43 8.81ZM0 4.37L3.78 13.32L2.42 16.54L5.75 16.54L10.79 4.37L7.47 4.37L5.42 9.58L3.38 4.37L0 4.37ZM14.98 10.64C14.74 10.65 14.5 10.6 14.27 10.51C14.05 10.42 13.85 10.29 13.67 10.12C13.5 9.95 13.37 9.75 13.28 9.52C13.18 9.3 13.14 9.06 13.14 8.82C13.14 8.58 13.18 8.34 13.28 8.11C13.37 7.89 13.5 7.69 13.68 7.52C13.85 7.35 14.05 7.21 14.28 7.12C14.5 7.04 14.74 6.99 14.98 7C15.22 6.99 15.46 7.04 15.68 7.13C15.9 7.22 16.1 7.35 16.27 7.52C16.44 7.69 16.58 7.9 16.67 8.12C16.76 8.34 16.8 8.58 16.8 8.82C16.8 9.06 16.76 9.3 16.67 9.52C16.58 9.74 16.44 9.94 16.27 10.11C16.1 10.28 15.9 10.42 15.68 10.51C15.46 10.6 15.22 10.64 14.98 10.64ZM36.46 8.82C36.47 8.58 36.42 8.35 36.34 8.13C36.25 7.91 36.12 7.71 35.96 7.55C35.79 7.38 35.59 7.25 35.38 7.16C35.16 7.07 34.93 7.02 34.69 7.03C34.46 7.02 34.22 7.07 34.01 7.16C33.79 7.25 33.59 7.38 33.43 7.55C33.26 7.71 33.13 7.91 33.04 8.13C32.96 8.35 32.92 8.58 32.92 8.82C32.92 9.05 32.96 9.29 33.04 9.51C33.13 9.72 33.26 9.92 33.43 10.09C33.59 10.26 33.79 10.39 34.01 10.48C34.22 10.57 34.46 10.61 34.69 10.61C34.93 10.61 35.16 10.57 35.38 10.48C35.59 10.39 35.79 10.26 35.96 10.09C36.12 9.92 36.25 9.72 36.34 9.51C36.42 9.29 36.47 9.05 36.46 8.82ZM46.47 8.82C46.48 8.58 46.44 8.35 46.35 8.13C46.26 7.91 46.13 7.71 45.97 7.55C45.8 7.38 45.61 7.25 45.39 7.16C45.17 7.07 44.94 7.02 44.71 7.03C44.47 7.02 44.24 7.07 44.02 7.16C43.8 7.25 43.61 7.38 43.44 7.55C43.28 7.71 43.15 7.91 43.06 8.13C42.97 8.35 42.93 8.58 42.94 8.82C42.93 9.05 42.97 9.29 43.06 9.51C43.15 9.72 43.28 9.92 43.44 10.09C43.61 10.26 43.8 10.39 44.02 10.48C44.24 10.57 44.47 10.61 44.71 10.61C44.94 10.61 45.17 10.57 45.39 10.48C45.61 10.39 45.8 10.26 45.97 10.09C46.13 9.92 46.26 9.72 46.35 9.51C46.44 9.29 46.48 9.05 46.47 8.82ZM49.84 11.37C49.83 11.64 49.88 11.9 49.99 12.15C50.09 12.4 50.24 12.63 50.43 12.82C50.62 13.01 50.84 13.16 51.09 13.26C51.34 13.36 51.6 13.41 51.87 13.41C52.15 13.41 52.42 13.36 52.68 13.25C52.94 13.15 53.17 12.99 53.37 12.79C53.56 12.6 53.72 12.36 53.82 12.11C53.93 11.85 53.98 11.58 53.98 11.3C53.98 11.03 53.93 10.76 53.83 10.51C53.73 10.26 53.58 10.04 53.39 9.85C53.2 9.66 52.98 9.51 52.73 9.4C52.48 9.3 52.21 9.25 51.94 9.26C51.66 9.26 51.39 9.31 51.13 9.42C50.88 9.52 50.64 9.68 50.45 9.87C50.25 10.07 50.09 10.3 49.99 10.56C49.88 10.82 49.83 11.09 49.83 11.37L49.84 11.37ZM54.29 0.44L50.97 8.48L54.68 8.48L58.01 0.43L54.29 0.44Z" fill="#5A00C7" fill-opacity="1.000000" fill-rule="nonzero"/>
	<path id="Vector" d="M62.23 4.19C62.23 3.25 62.81 2.84 63.56 2.84C63.9 2.83 64.23 2.91 64.54 3.05L64.54 0.37C64.04 0.15 63.51 0.05 62.97 0.06C60.47 0.06 59 1.61 59 4.12L59 4.4L57.81 4.4L57.81 7.02L59 7.02L59 13.3L62.23 13.3L62.23 7.02L64.41 7.02L64.41 4.4L62.23 4.4L62.23 4.19ZM68.77 13.3L68.77 4.41L65.53 4.41L65.53 13.3L68.77 13.3ZM68.97 1.79C68.96 1.31 68.77 0.86 68.43 0.52C68.09 0.18 67.63 0 67.15 0C66.67 0 66.21 0.18 65.87 0.52C65.53 0.86 65.34 1.31 65.33 1.79C65.34 2.27 65.53 2.73 65.87 3.06C66.21 3.4 66.67 3.59 67.15 3.59C67.63 3.59 68.09 3.4 68.43 3.06C68.77 2.73 68.96 2.27 68.97 1.79ZM86.51 4.41L86.51 5.35C85.96 4.58 85 4.16 83.93 4.16C81.52 4.16 79.76 6.24 79.76 8.85C79.76 11.46 81.5 13.54 83.93 13.54C85 13.54 85.93 13.12 86.51 12.35L86.51 13.3L89.7 13.3L89.7 4.41L86.51 4.41ZM86.6 8.85C86.6 9.09 86.55 9.33 86.46 9.55C86.36 9.77 86.23 9.96 86.06 10.13C85.89 10.3 85.69 10.43 85.47 10.52C85.24 10.61 85.01 10.65 84.77 10.65C84.53 10.65 84.29 10.61 84.07 10.52C83.85 10.43 83.65 10.3 83.48 10.13C83.31 9.97 83.17 9.77 83.08 9.55C82.99 9.33 82.94 9.09 82.94 8.85C82.94 8.61 82.99 8.37 83.08 8.15C83.17 7.93 83.31 7.73 83.48 7.57C83.65 7.4 83.85 7.27 84.07 7.18C84.29 7.09 84.53 7.05 84.77 7.05C85.01 7.05 85.24 7.09 85.47 7.18C85.69 7.27 85.89 7.4 86.06 7.57C86.23 7.74 86.36 7.93 86.46 8.16C86.55 8.38 86.6 8.61 86.6 8.85ZM96.56 13.3L99.81 13.3L99.81 7.65C99.81 5.48 98.62 4.14 96.72 4.14C95.67 4.14 94.82 4.59 94.3 5.42L94.3 4.39L91.05 4.39L91.05 13.28L94.3 13.28L94.3 8.54C94.3 7.63 94.75 7.09 95.46 7.09C96.17 7.09 96.56 7.59 96.56 8.44L96.56 13.3ZM75.63 13.3L78.88 13.3L78.88 7.65C78.88 5.48 77.69 4.14 75.79 4.14C74.74 4.14 73.89 4.59 73.37 5.42L73.37 4.39L70.13 4.39L70.13 13.28L73.37 13.28L73.37 8.54C73.37 7.63 73.82 7.09 74.53 7.09C75.24 7.09 75.62 7.59 75.62 8.44L75.63 13.3ZM100.69 8.85C100.69 11.73 102.75 13.54 105.43 13.54C106.17 13.55 106.9 13.38 107.56 13.05L107.56 10.09C107.1 10.44 106.53 10.62 105.95 10.63C104.81 10.63 103.98 9.92 103.98 8.85C103.98 7.78 104.83 7.07 105.95 7.07C106.52 7.07 107.09 7.24 107.56 7.57L107.56 4.62C106.91 4.31 106.2 4.15 105.49 4.15C102.68 4.15 100.69 6.13 100.69 8.85ZM114.4 10.29C114.23 10.53 114.01 10.72 113.76 10.85C113.5 10.97 113.21 11.03 112.93 11.02C112.07 11.02 111.38 10.47 111.33 9.67L117.45 9.67C117.48 9.44 117.49 9.22 117.49 8.99C117.49 6.08 115.6 4.15 112.87 4.15C112.25 4.14 111.63 4.26 111.06 4.49C110.48 4.72 109.96 5.07 109.52 5.51C109.08 5.95 108.73 6.47 108.5 7.05C108.27 7.63 108.16 8.24 108.17 8.87C108.17 11.69 110.01 13.54 112.91 13.54C114.86 13.54 116.32 12.8 117.17 11.36L114.4 10.29ZM111.35 7.82C111.42 7.09 112.04 6.61 112.85 6.61C113.67 6.61 114.27 7.09 114.35 7.82L111.35 7.82Z" fill="#000000" fill-opacity="1.000000" fill-rule="nonzero"/>
</svg>
