<svg width="105.548096" height="70.227539" viewBox="0 0 105.548 70.2275" fill="none" xmlns="http://www.w3.org/2000/svg" xmlns:xlink="http://www.w3.org/1999/xlink">
	<desc>
			Created with Pixso.
	</desc>
	<defs/>
	<path id="Vector" d="M100.62 48.8C101.06 49.05 101.51 49.16 101.98 49.16L102 49.16C102.48 49.16 102.92 49.05 103.37 48.8C103.8 48.57 104.16 48.22 104.38 47.78C104.62 47.37 104.75 46.9 104.75 46.42C104.75 45.92 104.64 45.46 104.38 45.02C104.14 44.57 103.8 44.24 103.35 44C102.91 43.76 102.46 43.64 102 43.64L101.98 43.64C101.51 43.65 101.05 43.78 100.63 44C100.19 44.24 99.86 44.57 99.6 45.02C99.36 45.44 99.23 45.93 99.24 46.42C99.24 46.88 99.35 47.34 99.6 47.78C99.83 48.22 100.18 48.57 100.62 48.8ZM100 45.26C100.2 44.9 100.5 44.6 100.86 44.4C101.22 44.21 101.6 44.1 101.99 44.1L102 44.1C102.38 44.1 102.76 44.21 103.13 44.4C103.49 44.6 103.79 44.9 103.99 45.26C104.19 45.62 104.29 46 104.29 46.42C104.29 46.82 104.19 47.21 103.99 47.56C103.79 47.91 103.5 48.21 103.14 48.4C102.8 48.6 102.4 48.7 102 48.7L101.99 48.7C101.58 48.7 101.19 48.6 100.84 48.4C100.49 48.21 100.2 47.91 100 47.56C99.79 47.19 99.68 46.81 99.68 46.42C99.68 46 99.79 45.62 100 45.26Z" fill="#242424" fill-opacity="1.000000" fill-rule="evenodd"/>
	<path id="Vector" d="M101.25 46.67L101.54 46.67C101.71 46.67 101.84 46.7 101.92 46.78C101.95 46.8 101.97 46.81 101.98 46.83C102.11 46.94 102.26 47.16 102.43 47.46L102.7 47.94L103.27 47.94L102.92 47.35C102.75 47.08 102.59 46.88 102.48 46.77C102.4 46.7 102.32 46.64 102.22 46.61C102.48 46.59 102.68 46.5 102.84 46.34C103 46.18 103.08 45.99 103.08 45.76C103.08 45.61 103.03 45.46 102.94 45.34C102.85 45.2 102.71 45.1 102.56 45.05C102.43 45 102.24 44.97 101.99 44.97C101.94 44.97 101.87 44.95 101.81 44.95L100.78 44.95L100.78 47.94L101.25 47.94L101.25 46.67ZM101.25 45.37L101.98 45.37C102.13 45.38 102.22 45.4 102.29 45.41C102.37 45.44 102.45 45.5 102.49 45.57C102.54 45.64 102.56 45.72 102.56 45.81C102.56 45.87 102.55 45.93 102.52 45.99C102.5 46.04 102.46 46.09 102.41 46.13C102.33 46.21 102.19 46.24 101.98 46.26L101.25 46.26L101.25 45.37L101.25 45.37ZM29.93 45.7L34.22 45.7L29.93 38.55L26.31 32.54L10.92 41.78L13.27 45.7L29.93 45.7ZM69.82 45.7L90.77 45.7L77.73 23.98L63.31 0L57.37 3.57L47.94 9.24L57.37 24.94L69.82 45.7ZM62.5 52.86C61.03 51.91 59.3 51.36 57.42 51.36L57.37 51.36C52.2 51.39 47.99 55.61 47.99 60.79C47.99 65.97 52.2 70.19 57.37 70.22L57.42 70.22C59.3 70.22 61.03 69.67 62.5 68.71L62.5 69.7L66.84 69.7L66.84 45.7L62.5 45.7L62.5 52.86ZM62.5 61.77C62.04 64.16 59.93 65.98 57.42 65.98L57.37 65.98C54.53 65.95 52.23 63.63 52.23 60.79C52.23 57.95 54.53 55.63 57.37 55.61L57.42 55.61C59.93 55.61 62.04 57.42 62.5 59.8L62.5 61.77ZM82.86 52.86C81.35 51.88 79.59 51.35 77.78 51.36L77.73 51.36C72.56 51.39 68.35 55.61 68.35 60.79C68.35 65.97 72.56 70.19 77.73 70.22L77.78 70.22C79.66 70.22 81.4 69.67 82.86 68.71L82.86 69.7L87.2 69.7L87.2 51.83L82.86 51.83L82.86 52.86ZM82.86 61.77C82.4 64.16 80.29 65.98 77.78 65.98L77.73 65.98C74.89 65.95 72.59 63.63 72.59 60.79C72.59 57.95 74.89 55.63 77.73 55.61L77.78 55.61C80.29 55.61 82.4 57.42 82.86 59.8L82.86 61.77ZM102.62 59.61C102.46 59.53 102.24 59.45 101.98 59.36C101.02 59.03 99.44 58.61 97.25 58.14C95.33 57.71 94.36 57.15 94.36 56.45C94.36 55.96 94.54 55.56 94.87 55.28C95.31 54.9 96.11 54.71 97.25 54.71C98.41 54.71 99.25 54.96 99.75 55.45C100.05 55.75 100.27 56.29 100.41 57.06L105.02 57.06C105.02 54.8 104.1 53.18 102.29 52.2C102.19 52.13 102.09 52.08 101.98 52.04C100.73 51.45 99.06 51.15 96.98 51.15C94.46 51.15 92.55 51.82 91.28 53.17C90.27 54.25 89.77 55.56 89.77 57.12C89.77 59.06 90.72 60.46 92.66 61.36C93.39 61.71 95.17 62.2 98 62.81C99.89 63.22 100.84 63.81 100.84 64.55C100.84 65 100.65 65.38 100.24 65.73C99.71 66.17 98.92 66.4 97.86 66.4C96.44 66.4 95.44 66.16 94.85 65.7C94.27 65.25 93.96 64.6 93.96 63.78L89.14 63.78C89.14 65.97 90.06 67.6 91.92 68.68C93.39 69.52 95.33 69.95 97.73 69.95C99.33 69.95 100.76 69.68 101.99 69.16C102.24 69.05 102.46 68.94 102.7 68.81C104.59 67.76 105.54 66.09 105.54 63.81C105.54 61.93 104.57 60.53 102.62 59.61ZM14.51 52.86C12.99 51.88 11.22 51.36 9.41 51.36L9.36 51.36C4.2 51.39 0 55.61 0 60.79C0 65.97 4.2 70.19 9.36 70.22L9.41 70.22C11.29 70.22 13.03 69.67 14.51 68.71L14.51 69.7L18.85 69.7L18.85 51.83L14.51 51.83L14.51 52.86ZM14.51 61.77C14.05 64.16 11.94 65.98 9.41 65.98L9.36 65.98C6.54 65.95 4.24 63.63 4.24 60.79C4.24 57.95 6.54 55.63 9.36 55.61L9.41 55.61C11.94 55.61 14.05 57.42 14.51 59.8L14.51 61.77ZM41.57 49.94L46.29 49.94L46.29 45.8L41.57 45.8L41.57 49.94ZM41.57 69.7L46.29 69.7L46.29 51.36L41.57 51.36L41.57 69.7ZM35.08 52.86C33.56 51.88 31.79 51.36 29.98 51.36L29.93 51.36C24.75 51.39 20.55 55.61 20.55 60.79C20.55 65.97 24.75 70.19 29.93 70.22L29.98 70.22C31.79 70.22 33.56 69.7 35.08 68.71L35.08 69.7L39.41 69.7L39.41 45.7L35.08 45.7L35.08 52.86ZM35.08 61.77C34.62 64.16 32.5 65.98 29.98 65.98L29.93 65.98C27.09 65.95 24.79 63.63 24.79 60.79C24.79 57.95 27.09 55.63 29.93 55.61L29.98 55.61C32.5 55.61 34.62 57.42 35.08 59.8L35.08 61.77ZM62.49 45.7L57.37 37.16L44.81 16.26L29.93 25.21L29.42 25.52L29.93 26.36L41.56 45.7L62.49 45.7Z" fill="#242424" fill-opacity="1.000000" fill-rule="evenodd"/>
</svg>
