<svg width="113.524902" height="38.832520" viewBox="0 0 113.525 38.8325" fill="none" xmlns="http://www.w3.org/2000/svg" xmlns:xlink="http://www.w3.org/1999/xlink">
	<desc>
			Created with Pixso.
	</desc>
	<defs/>
	<path id="Vector" d="M26.4 20.63C26.36 15.72 30.42 13.35 30.6 13.24C28.31 9.9 24.76 9.44 23.5 9.39C20.48 9.08 17.6 11.17 16.06 11.17C14.53 11.17 12.16 9.43 9.66 9.49C6.36 9.53 3.32 11.4 1.62 14.35C-1.8 20.28 0.75 29.09 4.09 33.91C5.72 36.27 7.66 38.92 10.22 38.82C12.68 38.73 13.61 37.23 16.58 37.23C19.55 37.23 20.39 38.82 22.99 38.78C25.63 38.73 27.31 36.37 28.93 34C30.8 31.26 31.57 28.62 31.62 28.48C31.56 28.45 26.46 26.5 26.4 20.63Z" fill="#242424" fill-opacity="1.000000" fill-rule="nonzero"/>
	<path id="Vector" d="M21.52 6.2C22.88 4.55 23.79 2.27 23.54 0C21.59 0.07 19.22 1.3 17.82 2.94C16.57 4.39 15.46 6.72 15.76 8.95C17.93 9.12 20.16 7.84 21.52 6.2ZM43.53 25.46L41.29 32.28L38.39 32.28L45.75 10.61L49.13 10.61L56.51 32.28L53.53 32.28L51.21 25.46L43.53 25.46ZM50.64 23.27L48.52 17.04C48.04 15.62 47.72 14.34 47.39 13.08L47.33 13.08C47.01 14.37 46.66 15.68 46.24 17L44.12 23.27L50.64 23.27ZM58.71 21.8C58.71 19.81 58.65 18.19 58.58 16.72L61.11 16.72L61.25 19.39L61.31 19.39C62.46 17.49 64.3 16.37 66.83 16.37C70.6 16.37 73.42 19.55 73.42 24.27C73.42 29.87 70.01 32.63 66.35 32.63C64.3 32.63 62.5 31.73 61.56 30.19L61.5 30.19L61.5 38.64L58.71 38.64L58.71 21.8ZM61.5 25.94C61.5 26.36 61.56 26.74 61.63 27.1C62.14 29.06 63.85 30.41 65.87 30.41C68.86 30.41 70.6 27.97 70.6 24.4C70.6 21.28 68.96 18.62 65.97 18.62C64.05 18.62 62.25 20 61.7 22.12C61.6 22.48 61.5 22.9 61.5 23.28L61.5 25.94ZM76.34 21.8C76.34 19.81 76.28 18.19 76.21 16.72L78.75 16.72L78.88 19.39L78.94 19.39C80.1 17.49 81.93 16.37 84.47 16.37C88.23 16.37 91.06 19.55 91.06 24.27C91.06 29.87 87.65 32.63 83.99 32.63C81.93 32.63 80.13 31.73 79.2 30.19L79.14 30.19L79.14 38.64L76.34 38.64L76.34 21.8ZM79.14 25.94C79.14 26.36 79.2 26.74 79.27 27.1C79.79 29.06 81.49 30.41 83.52 30.41C86.5 30.41 88.24 27.97 88.24 24.4C88.24 21.28 86.6 18.62 83.61 18.62C81.69 18.62 79.89 20 79.34 22.12C79.24 22.48 79.14 22.9 79.14 23.28L79.14 25.94ZM93.99 9.46L96.81 9.46L96.81 32.27L93.99 32.27L93.99 9.46ZM102.5 25.01C102.56 28.83 105.01 30.41 107.83 30.41C109.86 30.41 111.08 30.06 112.14 29.61L112.62 31.63C111.63 32.08 109.92 32.6 107.45 32.6C102.66 32.6 99.8 29.45 99.8 24.76C99.8 20.06 102.56 16.37 107.09 16.37C112.17 16.37 113.52 20.83 113.52 23.69C113.52 24.27 113.46 24.72 113.42 25.01L102.5 25.01ZM110.79 22.99C110.83 21.19 110.05 18.39 106.87 18.39C104.01 18.39 102.76 21.03 102.54 22.99L110.79 22.99Z" fill="#242424" fill-opacity="1.000000" fill-rule="nonzero"/>
</svg>
