<svg width="96.962036" height="59.976562" viewBox="0 0 96.962 59.9766" fill="none" xmlns="http://www.w3.org/2000/svg" xmlns:xlink="http://www.w3.org/1999/xlink">
	<desc>
			Created with Pixso.
	</desc>
	<defs/>
	<path id="Vector" d="M81.69 59.55L81.69 46.68L76.38 46.68L76.38 59.55L81.69 59.55ZM53.57 54.2L53.57 46.87L48.42 46.87L48.42 52.48C48.42 54.1 48.36 54.56 48.26 54.98C47.9 56.16 46.66 56.68 45.39 56.68C43.63 56.68 42.82 55.99 42.49 54.92C42.39 54.56 42.36 54.17 42.33 53.78C42.29 53.36 42.33 52.9 42.33 52.41L42.33 46.87L37.11 46.87L37.11 54.24C37.11 55.9 37.67 57.14 38.58 57.98C40.14 59.52 42.78 59.97 45.23 59.97C48.19 59.97 50.47 59.55 52.1 57.95C52.95 57.14 53.57 56.06 53.57 54.2ZM28.28 53.29C28.02 53.25 27.76 53.22 27.5 53.23L21.63 53.23C21.34 53.23 21.01 53.26 20.85 53.29C20.95 53.19 21.15 53 21.34 52.74L23.98 48.37C24.34 47.78 24.5 47.39 24.57 47.23C24.63 47.39 24.79 47.78 25.15 48.4L27.86 52.8C27.99 53 28.18 53.19 28.28 53.29ZM38.12 59.55L26.39 41.95L19.81 41.95L21.54 44C21.57 44.04 21.63 44.07 21.7 44.1C21.63 44.13 21.57 44.17 21.54 44.2L11.3 59.55L17.23 59.55L18.83 56.91C18.9 56.78 18.93 56.65 18.93 56.58C18.99 56.58 19.16 56.65 19.32 56.65L29.91 56.65C30.07 56.65 30.2 56.61 30.27 56.58C30.26 56.67 30.29 56.77 30.33 56.84L32 59.55L38.12 59.55ZM74.95 52.93C74.95 51.5 74.36 49.84 72.54 47.52L68.14 41.95L62.01 41.95L65.5 45.86C66.08 46.51 66.83 47.1 66.83 47.1C65.99 46.61 64.91 46.41 64.06 46.41C62.04 46.41 59.99 46.84 58.17 47.85C56.21 48.92 54.91 50.72 54.91 53.1C54.91 54.92 55.72 56.32 56.76 57.4C59.11 59.74 63.38 59.97 64.94 59.97C67.26 59.97 70.87 59.45 72.93 57.59C74.13 56.48 74.95 54.95 74.95 52.93ZM69.86 53.1C69.86 54.43 68.98 55.44 67.88 56C66.96 56.48 65.89 56.61 64.94 56.61C64 56.61 62.89 56.42 61.98 55.96C60.87 55.41 60.02 54.33 60.02 53.16C60.02 51.76 61.1 50.65 62.37 50.1C63.15 49.74 64.1 49.61 64.85 49.61C65.56 49.61 66.61 49.71 67.42 50.03C68.89 50.65 69.86 51.82 69.86 53.1ZM80.01 0C76.19 -0.01 72.49 1.28 69.5 3.65C66.51 1.28 62.8 -0.01 58.99 0C55.17 -0.01 51.47 1.28 48.48 3.65C45.49 1.28 41.78 -0.01 37.97 0C34.15 -0.01 30.45 1.28 27.46 3.65C24.47 1.28 20.76 -0.01 16.95 0C7.58 0 0 7.58 0 16.95C0 26.31 7.58 33.9 16.95 33.9C20.76 33.9 24.47 32.62 27.46 30.24C30.45 32.62 34.15 33.9 37.97 33.9C41.78 33.9 45.49 32.62 48.48 30.24C51.47 32.62 55.17 33.9 58.99 33.9C62.8 33.9 66.51 32.62 69.5 30.24C72.49 32.62 76.19 33.9 80.01 33.9C89.37 33.9 96.96 26.31 96.96 16.95C96.96 7.58 89.37 0 80.01 0ZM24.68 27.48C22.52 29.05 19.82 30.01 16.95 30.01C9.72 30.01 3.88 24.17 3.88 16.95C3.88 9.72 9.72 3.88 16.95 3.88C19.82 3.88 22.52 4.84 24.68 6.42C22.3 9.41 21.01 13.12 21.02 16.95C21.02 20.77 22.31 24.48 24.68 27.48ZM27.46 24.71C25.79 22.46 24.89 19.74 24.9 16.95C24.89 14.15 25.79 11.43 27.46 9.18C29.12 11.43 30.02 14.15 30.01 16.95C30.02 19.74 29.12 22.46 27.46 24.71ZM45.7 27.48C43.46 29.13 40.74 30.02 37.96 30.01C35.18 30.01 32.47 29.13 30.23 27.48C32.6 24.48 33.89 20.77 33.9 16.95C33.9 13.12 32.61 9.41 30.23 6.42C32.47 4.77 35.18 3.88 37.96 3.88C40.86 3.88 43.53 4.82 45.7 6.42C43.32 9.41 42.03 13.12 42.04 16.95C42.04 20.77 43.33 24.48 45.7 27.48ZM48.48 24.71C46.81 22.46 45.91 19.74 45.92 16.95C45.91 14.15 46.81 11.43 48.48 9.18C50.14 11.43 51.04 14.15 51.03 16.95C51.04 19.74 50.14 22.46 48.48 24.71ZM66.72 27.48C64.55 29.07 61.88 30.01 58.98 30.01C56.08 30.01 53.42 29.07 51.25 27.48C53.62 24.48 54.91 20.77 54.92 16.95C54.92 13.12 53.63 9.41 51.25 6.42C53.42 4.82 56.08 3.88 58.98 3.88C61.88 3.88 64.55 4.82 66.72 6.42C64.34 9.41 63.05 13.12 63.06 16.95C63.06 20.77 64.35 24.48 66.72 27.48ZM69.5 24.71C67.83 22.46 66.93 19.74 66.94 16.95C66.93 14.15 67.83 11.43 69.5 9.18C71.16 11.43 72.06 14.15 72.05 16.95C72.06 19.74 71.16 22.46 69.5 24.71ZM80.01 30.01C77.13 30.01 74.43 29.05 72.27 27.48C74.64 24.48 75.94 20.77 75.94 16.95C75.94 13.12 74.65 9.41 72.27 6.42C74.43 4.84 77.13 3.88 80.01 3.88C87.23 3.88 93.07 9.72 93.07 16.95C93.07 24.17 87.23 30.01 80.01 30.01Z" fill="#242424" fill-opacity="1.000000" fill-rule="evenodd"/>
</svg>
