<svg width="49.443115" height="49.443359" viewBox="0 0 49.4431 49.4434" fill="none" xmlns="http://www.w3.org/2000/svg" xmlns:xlink="http://www.w3.org/1999/xlink">
	<desc>
			Created with Pixso.
	</desc>
	<defs/>
	<path id="Vector" d="M24.72 49.44C31.32 49.44 37.53 46.87 42.2 42.2C46.87 37.53 49.44 31.32 49.44 24.72C49.44 18.11 46.87 11.91 42.2 7.24C37.53 2.57 31.32 0 24.72 0C11.09 0 0 11.08 0 24.72C0 31.32 2.57 37.53 7.24 42.2C11.91 46.87 18.11 49.44 24.72 49.44Z" fill="#000000" fill-opacity="1.000000" fill-rule="nonzero"/>
	<path id="Vector" d="M0.85 24.72C0.85 18.34 3.33 12.35 7.84 7.84C12.35 3.33 18.34 0.85 24.72 0.85C31.09 0.85 37.08 3.33 41.59 7.84C46.1 12.35 48.58 18.34 48.58 24.72C48.58 37.88 37.88 48.58 24.72 48.58C18.34 48.58 12.35 46.1 7.84 41.59C3.33 37.08 0.85 31.09 0.85 24.72Z" fill="#FFFFFF" fill-opacity="1.000000" fill-rule="nonzero"/>
	<path id="Vector" d="M24.72 1.83C12.08 1.83 1.83 12.08 1.83 24.72C1.83 37.35 12.08 47.6 24.72 47.6C37.35 47.6 47.6 37.35 47.6 24.72C47.6 12.08 37.35 1.83 24.72 1.83Z" fill="#000000" fill-opacity="1.000000" fill-rule="nonzero"/>
	<path id="Vector" d="M24.72 39.33C16.64 39.33 10.1 32.79 10.1 24.72C10.1 16.64 16.64 10.1 24.72 10.1C32.79 10.1 39.33 16.64 39.33 24.72C39.33 32.79 32.79 39.33 24.72 39.33Z" fill="#FFFFFF" fill-opacity="1.000000" fill-rule="nonzero"/>
	<path id="Vector" d="M11.04 24.72L24.72 24.72L24.72 11.04C17.16 11.04 11.04 17.16 11.04 24.72ZM24.72 24.72L24.72 38.39C32.27 38.39 38.39 32.27 38.39 24.72L24.72 24.72Z" fill="#000000" fill-opacity="1.000000" fill-rule="nonzero"/>
	<path id="Vector" d="M13.98 10.77C13.49 10.3 12.74 10.16 12.04 10.59C12.17 10.25 12.12 9.89 12.05 9.69C11.74 9.14 11.64 9.07 11.39 8.86C10.58 8.19 9.73 8.76 9.12 9.49L6.18 12.99L10.8 16.87L13.9 13.18C14.61 12.33 14.72 11.49 13.98 10.77ZM25.48 9.11L27.07 4.9L27.07 9.11L28.27 9.11L28.27 3.08L26.46 3.08L24.82 7.4L24.83 7.4L23.18 3.08L21.37 3.08L21.37 9.11L22.58 9.11L22.58 4.9L24.16 9.11L25.48 9.11ZM41.69 11.61L39.42 14.83L42.94 13.16L43.88 14.31L38.34 16.99L37.24 15.63L39.42 12.44L39.41 12.43L35.84 13.9L34.73 12.54L38.51 7.68L39.45 8.83L37.08 11.93L40.7 10.38L41.69 11.61Z" fill="#FFFFFF" fill-opacity="1.000000" fill-rule="nonzero"/>
	<path id="Vector" d="M9.76 10.36C9.97 10.11 10.43 10.12 10.73 10.37C11.05 10.65 11.06 11.03 10.84 11.3L9.09 13.38L8 12.46L9.76 10.36ZM12.87 12.81L11.03 15L9.87 14.03L11.73 11.82C11.94 11.57 12.41 11.5 12.72 11.77C13.08 12.06 13.11 12.52 12.87 12.81Z" fill="#000000" fill-opacity="1.000000" fill-rule="nonzero"/>
</svg>
