<svg width="84.298096" height="55.812988" viewBox="0 0 84.2981 55.813" fill="none" xmlns="http://www.w3.org/2000/svg" xmlns:xlink="http://www.w3.org/1999/xlink">
	<desc>
			Created with Pixso.
	</desc>
	<defs/>
	<path id="Vector" d="M6.02 55.8C5.99 55.8 5.87 55.79 5.76 55.78C4.73 55.67 3.63 55.25 2.77 54.63C1.47 53.7 0.56 52.34 0.18 50.79C-0.02 49.96 -0.06 49.03 0.07 48.18C0.42 45.89 1.93 43.93 4.03 43.05C4.55 42.83 5.07 42.69 5.68 42.61C6.02 42.56 6.85 42.56 7.19 42.61C7.91 42.7 8.53 42.89 9.16 43.19C9.86 43.53 10.34 43.88 10.92 44.46C11.43 44.97 11.74 45.39 12.11 46.06L12.19 46.21L11.91 46.41C11.53 46.69 10.64 47.32 10.36 47.52L10.12 47.68L10.02 47.47C9.9 47.2 9.81 47.05 9.67 46.84C9.11 46 8.22 45.41 7.24 45.22C6.73 45.12 6.1 45.13 5.59 45.25C5.05 45.37 4.48 45.65 4.03 45.99C3.85 46.13 3.53 46.46 3.38 46.64C2.6 47.61 2.32 48.86 2.58 50.1C2.68 50.53 2.92 51.09 3.17 51.46C3.83 52.45 4.84 53.08 5.99 53.23C6.19 53.25 6.68 53.25 6.88 53.23C7.9 53.1 8.84 52.57 9.48 51.77C9.67 51.53 9.8 51.32 9.95 51.03C10.02 50.9 10.07 50.8 10.08 50.8C10.09 50.8 10.56 51.13 11.12 51.53L12.15 52.27L12.04 52.46C11.83 52.87 11.46 53.38 11.11 53.75C10.52 54.38 9.95 54.81 9.2 55.17C8.55 55.49 7.87 55.69 7.14 55.78C6.98 55.8 6.14 55.82 6.02 55.8ZM14.81 49.12L14.81 42.69L17.3 42.69L17.3 47.31L23.82 47.31L23.82 42.69L26.31 42.69L26.31 55.55L23.82 55.55L23.82 49.9L17.3 49.9L17.3 55.55L14.81 55.55L14.81 49.12ZM28.83 54.41C29.11 53.79 30.39 50.89 31.68 47.98L34.03 42.69L35.78 42.69L37.53 42.69L40.36 49.04C41.92 52.54 43.21 55.43 43.23 55.47L43.27 55.55L40.28 55.55L39.7 54.28L39.13 53L35.79 53.01L32.45 53.01L31.88 54.28L31.31 55.55L28.33 55.55L28.83 54.41ZM38.07 50.41C38.06 50.36 35.8 45.3 35.79 45.3C35.78 45.3 33.63 50.32 33.59 50.42C33.59 50.43 34.45 50.43 35.83 50.43C37.74 50.43 38.08 50.43 38.07 50.41ZM45.28 49.12L45.28 42.69L47.03 42.69L48.79 42.69L51.53 46.55L54.28 50.4L54.28 46.55L54.29 42.69L56.8 42.69L56.8 55.55L55.79 55.55L54.79 55.54L51.3 50.71C49.39 48.05 47.81 45.88 47.81 45.88C47.8 45.88 47.79 48.05 47.79 50.71L47.79 55.55L45.28 55.55L45.28 49.12ZM61.34 49.12L61.34 42.69L70.33 42.69L70.33 45.28L63.86 45.28L63.86 47.85L69.85 47.85L69.85 50.43L63.86 50.43L63.86 53L71.26 53L71.26 55.55L61.34 55.55L61.34 49.12ZM74.78 49.12L74.78 42.69L77.29 42.69L77.29 53L84.29 53L84.29 55.55L74.78 55.55L74.78 49.12ZM31.72 39.42C29.04 39.3 26.05 38.48 23.64 37.22C21.79 36.25 20.32 35.16 18.78 33.62C17.58 32.41 16.69 31.31 15.94 30.07L15.61 29.52L16.08 29.28C16.99 28.79 21.13 26.67 21.17 26.67C21.18 26.67 21.36 26.9 21.55 27.19C23.71 30.41 27.09 32.5 31.04 33.07C31.73 33.17 33.81 33.16 34.56 33.05C35.4 32.92 36.41 32.69 37.05 32.48C37.09 32.47 37.01 32.34 36.83 32.12C35.41 30.46 34.12 28.17 33.4 26.04C32.09 22.19 31.99 18.06 33.13 14.17C33.84 11.76 35.05 9.42 36.59 7.5C36.82 7.22 37.01 6.97 37.01 6.95C37.01 6.87 35.8 6.55 35.02 6.42C33.8 6.21 31.9 6.18 30.8 6.36C28.95 6.65 27.07 7.35 25.61 8.28C23.97 9.31 22.61 10.64 21.52 12.26L21.04 12.98L20.43 12.66C20.09 12.48 18.84 11.83 17.65 11.22C16.46 10.6 15.48 10.1 15.48 10.09C15.46 10.08 16.21 8.89 16.51 8.45C17.44 7.11 19.1 5.34 20.32 4.37C23.52 1.83 27.07 0.4 31.07 0.05C31.81 -0.02 33.65 -0.02 34.36 0.05C36.9 0.28 39.08 0.89 41.33 2.02L42.4 2.55L42.76 2.35C43.34 2.02 44.38 1.54 45.16 1.24C47.36 0.39 49.58 -0.01 52.03 0C53.74 0 55.16 0.16 56.71 0.55C60.21 1.41 63.19 3.07 65.76 5.58C67.16 6.94 68.25 8.33 69.13 9.87L69.27 10.1L67.09 11.22C65.89 11.84 64.64 12.49 64.31 12.66L63.7 12.98L63.25 12.29C60.99 8.88 57.29 6.66 53.24 6.28C52.05 6.17 50.27 6.27 49.19 6.52C48.63 6.64 47.73 6.9 47.73 6.93C47.73 6.95 47.87 7.15 48.06 7.37C50.37 10.21 51.82 13.68 52.29 17.51C52.4 18.42 52.42 20.76 52.32 21.66C51.89 25.48 50.45 29.01 48.14 31.85C47.62 32.49 47.64 32.45 47.81 32.51C47.89 32.54 48.26 32.65 48.63 32.74C50.53 33.22 52.58 33.29 54.5 32.94C57.99 32.29 61.13 30.23 63.16 27.25C63.34 26.97 63.51 26.73 63.53 26.71C63.55 26.68 64.02 26.89 64.57 27.17C65.66 27.71 69.07 29.48 69.11 29.52C69.17 29.58 68.08 31.19 67.42 32.03C66.78 32.83 65.13 34.48 64.34 35.11C61.48 37.37 58.27 38.76 54.73 39.25C50.67 39.82 46.38 39.06 42.88 37.16L42.38 36.89L41.77 37.21C38.73 38.82 35.25 39.58 31.72 39.42ZM43.06 28.26C44.75 26.16 45.81 23.62 46.07 21.02C46.16 20.14 46.1 18.36 45.97 17.56C45.59 15.37 44.79 13.5 43.5 11.78C43.26 11.46 42.9 11.03 42.71 10.82L42.37 10.45L42.05 10.8C41.63 11.25 40.92 12.19 40.57 12.76C38.77 15.67 38.18 19.25 38.94 22.65C39.42 24.79 40.53 26.95 42.01 28.65L42.35 29.04L42.5 28.9C42.59 28.82 42.84 28.53 43.06 28.26Z" fill="#242424" fill-opacity="1.000000" fill-rule="nonzero"/>
</svg>
