<svg width="120.477051" height="40.159180" viewBox="0 0 120.477 40.1592" fill="none" xmlns="http://www.w3.org/2000/svg" xmlns:xlink="http://www.w3.org/1999/xlink">
	<desc>
			Created with Pixso.
	</desc>
	<defs/>
	<path id="Vector" d="M0 0L120.47 0L120.47 40.15L0 40.15L0 0Z" fill="#242424" fill-opacity="1.000000" fill-rule="nonzero"/>
	<path id="Vector" d="M52.44 13.53C50.62 13.53 48.69 14.33 47.43 16.04L47.43 13.87L43.23 13.87L43.23 29.35L47.43 29.35L47.43 20.47C47.43 18.88 48.69 17.17 50.96 17.17C52.67 17.17 54.49 18.42 54.49 20.47L54.49 29.23L58.7 29.23L58.7 19.68C58.81 16.15 56.19 13.53 52.44 13.53ZM88.96 13.76L85.09 24.34L81.22 13.76L76.44 13.76L82.82 29.23L87.48 29.23L93.74 13.76L88.96 13.76ZM38.67 24.45C36.85 25.82 35.83 26.05 34.24 26.05C32.76 26.05 31.62 25.59 30.83 24.8L41.63 20.25C41.41 18.54 40.72 17.06 39.81 15.92C38.33 14.22 36.29 13.42 33.67 13.42C29 13.42 25.48 16.83 25.48 21.38C25.48 26.05 29 29.35 34.12 29.35C36.97 29.35 39.93 27.98 41.29 26.39L38.67 24.45ZM30.48 18.42C31.17 17.4 32.3 16.83 33.78 16.83C35.26 16.83 36.51 17.74 37.08 18.99L29.69 22.07C29.46 20.59 29.91 19.33 30.48 18.42ZM25.14 25.36L15.47 25.36L15.47 9.21L11.14 9.21L11.14 29.23L25.14 29.23L25.14 25.36ZM101.36 29.46C96.7 29.46 93.05 26.05 93.05 21.5C93.05 17.06 96.7 13.53 101.36 13.53C106.02 13.53 109.66 16.95 109.66 21.5C109.78 26.05 106.14 29.46 101.36 29.46ZM101.36 17.17C98.97 17.17 97.26 18.99 97.26 21.5C97.26 23.89 99.08 25.82 101.36 25.82C103.75 25.82 105.46 24 105.46 21.5C105.57 19.11 103.75 17.17 101.36 17.17ZM68.71 29.46C64.04 29.46 60.4 26.05 60.4 21.5C60.4 17.06 64.04 13.53 68.71 13.53C73.37 13.53 77.01 16.95 77.01 21.5C77.01 26.05 73.37 29.46 68.71 29.46ZM68.71 17.17C66.32 17.17 64.61 18.99 64.61 21.5C64.61 23.89 66.43 25.82 68.71 25.82C71.1 25.82 72.8 24 72.8 21.5C72.92 19.11 71.1 17.17 68.71 17.17ZM110.35 27.41L109.66 27.41L109.66 27.07L111.49 27.07L111.49 27.41L110.8 27.41L110.8 29.23L110.35 29.23L110.35 27.41ZM111.94 27.07L112.4 27.07L113.08 28.1L113.76 27.07L114.22 27.07L114.22 29.35L113.76 29.35L113.76 27.75L113.08 28.78L112.4 27.75L112.4 29.35L111.94 29.35L111.94 27.07Z" fill="#FFFFFF" fill-opacity="1.000000" fill-rule="nonzero"/>
</svg>
