<svg width="102.719727" height="48.921387" viewBox="0 0 102.72 48.9214" fill="none" xmlns="http://www.w3.org/2000/svg" xmlns:xlink="http://www.w3.org/1999/xlink">
	<desc>
			Created with Pixso.
	</desc>
	<defs/>
	<path id="Vector" d="M24.46 48.92C37.97 48.92 48.92 37.96 48.92 24.46C48.92 10.95 37.97 0 24.46 0C10.95 0 0 10.95 0 24.46C0 37.96 10.95 48.92 24.46 48.92Z" fill="#242424" fill-opacity="1.000000" fill-rule="evenodd"/>
	<path id="Vector" d="M30.41 33.06L25.35 33.06L25.35 13.92L23.47 13.92L23.47 34.95L25.35 34.95L25.35 34.94L30.41 34.94L30.41 33.06Z" fill="#FFFFFF" fill-opacity="1.000000" fill-rule="evenodd"/>
	<path id="Vector" d="M43.06 25.24L30.44 25.24L30.44 23.36L44.9 23.36C44.92 23.72 44.93 24.09 44.93 24.46C44.93 35.77 35.76 44.93 24.46 44.93C13.15 44.93 3.98 35.77 3.98 24.46C3.98 13.15 13.15 3.98 24.46 3.98C24.75 3.98 25.05 3.99 25.35 4L25.35 5.86C25.05 5.85 24.75 5.84 24.46 5.84C14.18 5.84 5.84 14.18 5.84 24.46C5.84 34.74 14.18 43.07 24.46 43.07C34.46 43.07 42.61 35.19 43.05 25.29L43.06 25.24Z" fill="#FFFFFF" fill-opacity="1.000000" fill-rule="evenodd"/>
	<path id="Vector" d="M16.82 19.59C17.58 19.59 18.31 19.28 18.85 18.74C19.39 18.2 19.7 17.47 19.7 16.71C19.7 15.95 19.39 15.21 18.85 14.67C18.31 14.13 17.58 13.83 16.82 13.83C16.06 13.83 15.32 14.13 14.78 14.67C14.24 15.21 13.94 15.95 13.94 16.71C13.94 17.47 14.24 18.2 14.78 18.74C15.32 19.28 16.06 19.59 16.82 19.59Z" fill="#FFFFFF" fill-opacity="1.000000" fill-rule="evenodd"/>
	<path id="Vector" d="M61.06 36.46L78.54 36.46L78.54 31.18L67.48 31.18L67.48 12.28L61.06 12.28L61.06 36.46ZM99.66 13.98C97.66 12.43 95.08 11.64 92 11.64C88.34 11.64 85.29 12.77 83.16 14.89C80.95 17.11 79.77 20.38 79.77 24.34C79.77 28.57 81.01 32.15 83.27 34.4C85.03 36.17 87.39 37.1 90.09 37.1C96.01 37.1 97.37 33.55 97.37 33.55L97.37 36.46L102.71 36.46L102.71 22.81L92.07 22.81L92.07 27.08L96.97 27.08C96.97 27.08 97.02 32.46 91.96 32.46C90.68 32.46 89.54 31.99 88.66 31.11C87.28 29.74 86.56 27.43 86.56 24.44C86.56 19.48 88.53 16.52 91.83 16.52C93.89 16.52 95.44 17.79 95.84 19.7L102.65 19.7C102.29 16.92 101.53 15.46 99.66 13.98Z" fill="#242424" fill-opacity="1.000000" fill-rule="evenodd"/>
</svg>
