<svg width="67.303955" height="81.420898" viewBox="0 0 67.304 81.4209" fill="none" xmlns="http://www.w3.org/2000/svg" xmlns:xlink="http://www.w3.org/1999/xlink">
	<desc>
			Created with Pixso.
	</desc>
	<defs/>
	<path id="Vector" d="M65.68 73.79L66.57 73.79L66.57 81.29L61.14 75.61L61.14 81.01L60.23 81.01L60.23 73.43L65.68 79.14L65.68 73.79ZM40.19 73.79L40.19 78.37C40.19 79.19 39.96 79.84 39.5 80.35C39.02 80.91 38.36 81.16 37.52 81.16C36.74 81.16 36.08 80.91 35.6 80.35C35.12 79.84 34.89 79.19 34.89 78.37L34.89 73.79L35.8 73.79L35.8 78.07C35.8 79.57 36.36 80.33 37.52 80.33C38.72 80.33 39.3 79.57 39.3 78.07L39.3 73.79L40.19 73.79ZM42.97 73.79L47.31 73.79L47.31 74.62L45.58 74.62L45.58 81.01L44.72 81.01L44.72 74.62L42.97 74.62L42.97 73.79ZM41.4 73.79L42.31 73.79L42.31 81.01L41.4 81.01L41.4 73.79ZM33.42 73.79L34.41 73.79L31.26 81.42L28.12 73.79L29.11 73.79L31.27 79.14L33.42 73.79ZM58.56 77.41C58.56 78.22 58.28 78.91 57.7 79.49C57.16 80.05 56.48 80.33 55.69 80.33C54.91 80.33 54.22 80.05 53.64 79.49C53.06 78.91 52.78 78.22 52.78 77.41C52.78 76.6 53.03 75.92 53.59 75.36C54.15 74.78 54.86 74.5 55.69 74.5C56.53 74.5 57.21 74.78 57.75 75.36C58.28 75.92 58.56 76.6 58.56 77.41ZM58.36 74.75C57.6 74.02 56.71 73.64 55.69 73.64C54.66 73.64 53.77 74.02 53.01 74.75C52.27 75.49 51.89 76.37 51.89 77.41C51.89 78.48 52.27 79.36 53.01 80.1C53.74 80.81 54.63 81.16 55.69 81.16C56.73 81.16 57.65 80.81 58.36 80.1C59.09 79.36 59.47 78.48 59.47 77.41C59.47 76.37 59.09 75.49 58.36 74.75ZM51.69 73.79L51.69 74.62L49.99 74.62L49.99 81.01L49.08 81.01L49.08 74.62L47.36 74.62L47.36 73.79L51.69 73.79ZM9.77 75.36C10.31 75.92 10.56 76.6 10.56 77.41C10.56 78.22 10.28 78.91 9.72 79.49C9.17 80.05 8.48 80.33 7.7 80.33C6.91 80.33 6.23 80.05 5.64 79.49C5.11 78.91 4.81 78.22 4.81 77.41C4.81 76.6 5.09 75.92 5.62 75.36C6.18 74.78 6.86 74.5 7.7 74.5C8.53 74.5 9.24 74.78 9.77 75.36ZM10.36 74.75C9.6 74.02 8.71 73.64 7.7 73.64C6.66 73.64 5.75 74.02 5.04 74.75C4.28 75.49 3.9 76.37 3.9 77.41C3.9 78.48 4.28 79.36 5.04 80.1C5.75 80.81 6.63 81.16 7.7 81.16C8.76 81.16 9.65 80.81 10.36 80.1C11.12 79.36 11.47 78.48 11.47 77.41C11.47 76.37 11.12 75.49 10.36 74.75ZM13.12 78.07C13.12 79.57 13.7 80.33 14.87 80.33C16.01 80.33 16.62 79.57 16.62 78.07L16.62 73.79L17.5 73.79L17.5 78.37C17.5 79.19 17.28 79.84 16.79 80.35C16.31 80.91 15.65 81.16 14.87 81.16C14.06 81.16 13.42 80.91 12.94 80.35C12.44 79.84 12.21 79.19 12.21 78.37L12.21 73.79L13.12 73.79L13.12 78.07ZM1.61 73.79L1.61 80.2L3.82 80.2L3.82 81.01L0.73 81.01L0.73 73.79L1.61 73.79L1.61 73.79ZM23.33 76.75C24.55 77.23 25.13 77.94 25.13 78.91C25.13 79.57 24.9 80.1 24.45 80.53C24.02 80.96 23.49 81.16 22.85 81.16C22.27 81.16 21.76 80.99 21.33 80.58C20.93 80.2 20.67 79.72 20.6 79.14L21.51 78.93C21.51 79.34 21.63 79.67 21.91 79.95C22.19 80.2 22.5 80.33 22.9 80.33C23.28 80.33 23.59 80.17 23.87 79.9C24.09 79.64 24.22 79.31 24.22 78.91C24.22 78.35 23.81 77.89 22.98 77.54L22.47 77.36C21.46 76.88 20.93 76.27 20.93 75.51C20.93 74.95 21.15 74.47 21.56 74.14C21.99 73.79 22.47 73.64 23.05 73.64C23.89 73.64 24.5 74.02 24.9 74.75L24.2 75.16C23.92 74.73 23.54 74.5 23.03 74.5C22.72 74.5 22.42 74.57 22.19 74.75C21.94 74.95 21.81 75.21 21.81 75.51C21.81 75.94 22.14 76.27 22.85 76.52L23.33 76.75ZM18.72 73.79L19.63 73.79L19.63 81.01L18.72 81.01L18.72 73.79ZM54.31 8.5L36.83 49.75L32.01 39.17L40.91 14.93C41.58 13.05 43.93 12.18 47.88 12.18L49.28 8.5L28.52 8.5L27.18 12.18C30.13 12.18 31.34 13.05 30.87 14.93L26.45 27.25L17.74 8.5C16.13 6.49 16.94 5.49 20.09 5.49L20.09 1.13L0 1.13L0 5.49C3.75 5.49 6.09 6.49 7.09 8.5L21.83 39.84L14.93 58.26C14.8 60.74 10.91 61.94 3.41 61.94L2 65.63L59.33 65.63L67.3 48.68L63.15 48.68C59.26 57.46 54.78 61.94 49.75 61.94L23.43 61.94L27.32 51.56L30.67 58.26L38.17 58.26L59.33 8.5C60.33 5.49 62.95 3.88 67.03 3.88L67.03 0L49.75 0L49.75 3.88C54.98 3.88 56.45 5.49 54.31 8.5Z" fill="#242424" fill-opacity="1.000000" fill-rule="evenodd"/>
</svg>
