<svg width="98.476562" height="35.754883" viewBox="0 0 98.4766 35.7549" fill="none" xmlns="http://www.w3.org/2000/svg" xmlns:xlink="http://www.w3.org/1999/xlink">
	<desc>
			Created with Pixso.
	</desc>
	<defs/>
	<path id="Vector" d="M82.48 0.03C88.23 6.6 96.19 13.95 98.1 23.12C101.11 37.59 83.52 37.2 74.98 33.67C49.85 23.28 24.99 12.24 0 1.52C24.3 8 48.51 14.8 72.9 20.94C90.35 25.33 86.96 9.76 82.48 0.03Z" fill="#242424" fill-opacity="1.000000" fill-rule="evenodd"/>
	<path id="Vector" d="M82.45 0C82.46 0 82.47 -0.01 82.48 0C82.49 0 82.5 0 82.5 0.01C82.86 0.42 82.74 0.28 82.86 0.42C82.96 0.52 83.05 0.62 83.14 0.73C83.48 1.11 83.83 1.49 84.17 1.88C85.21 3.02 86.26 4.16 87.3 5.32C89.74 8.03 92.12 10.81 94.1 13.87C95.65 16.26 96.95 18.82 97.74 21.55C97.88 22.02 98 22.5 98.1 22.97C98.62 25.41 98.71 28.06 97.59 30.35C97.42 30.71 97.21 31.06 96.98 31.39C96.61 31.91 96.18 32.39 95.7 32.81C94.98 33.44 94.16 33.94 93.29 34.34C91.96 34.95 90.52 35.31 89.07 35.52C86.94 35.83 84.75 35.81 82.61 35.57C80.49 35.34 78.39 34.9 76.37 34.22C75.53 33.93 74.71 33.59 73.89 33.25C72.94 32.85 71.99 32.46 71.04 32.06C67.77 30.7 64.51 29.33 61.25 27.95C48.96 22.74 36.71 17.43 24.46 12.11C18.29 9.44 12.12 6.75 5.94 4.09C4.45 3.45 2.95 2.81 1.45 2.17C1.09 2.01 0.74 1.86 0.38 1.7C0.28 1.66 0.18 1.62 0.09 1.58C0.07 1.57 0.01 1.55 0.01 1.54C0 1.53 0.02 1.53 0.03 1.53C0.03 1.52 0.03 1.52 0.03 1.52C0.03 1.52 0.03 1.52 0.03 1.52C0.06 1.52 0.08 1.53 0.09 1.53C0.16 1.55 0.22 1.57 0.28 1.58C0.6 1.67 0.92 1.75 1.23 1.84C2.06 2.06 2.88 2.28 3.7 2.5C6.1 3.14 8.51 3.79 10.91 4.43C18.12 6.38 25.32 8.34 32.53 10.3C45.2 13.73 57.89 17.14 70.62 20.36C71.38 20.55 72.14 20.75 72.9 20.94C73.55 21.1 74.2 21.24 74.85 21.36C75.36 21.45 75.88 21.53 76.39 21.59C76.79 21.63 77.19 21.66 77.59 21.68C76.37 21.63 75.16 21.45 73.97 21.19C73.42 21.08 72.87 20.94 72.33 20.8C71.76 20.66 71.19 20.51 70.61 20.37C67.44 19.57 64.27 18.75 61.1 17.93C50.26 15.12 39.45 12.19 28.64 9.26C22.28 7.54 15.93 5.82 9.57 4.1C7.46 3.53 5.34 2.97 3.22 2.4C2.49 2.2 1.76 2.01 1.03 1.81L0.37 1.64C0.31 1.62 0.25 1.6 0.18 1.59C0.19 1.59 0.19 1.59 0.2 1.59C0.29 1.63 0.39 1.68 0.49 1.72C0.81 1.86 1.14 2 1.46 2.14C2.77 2.7 4.07 3.25 5.37 3.81C10.54 6.04 15.71 8.28 20.87 10.52C33.74 16.09 46.59 21.69 59.51 27.16C63.29 28.76 67.08 30.35 70.87 31.93C71.88 32.35 72.89 32.77 73.91 33.19C74.63 33.49 75.36 33.8 76.1 34.06C77.57 34.58 79.1 34.96 80.63 35.23C81.64 35.4 82.65 35.53 83.67 35.61C84.46 35.67 85.26 35.69 86.05 35.68C86.69 35.68 87.33 35.65 87.96 35.59C88.39 35.55 88.81 35.5 89.23 35.44C91.9 35.03 94.68 34.04 96.48 31.93C96.77 31.59 97.03 31.23 97.25 30.85C97.58 30.3 97.83 29.7 98.01 29.08C98.31 28.1 98.42 27.08 98.41 26.05C98.38 24.39 98.04 22.74 97.55 21.16C96.77 18.63 95.56 16.25 94.13 14.03C91.94 10.63 89.27 7.58 86.56 4.6C85.65 3.6 84.74 2.61 83.84 1.61C83.57 1.31 83.67 1.43 82.52 0.13C82.52 0.13 82.52 0.13 82.52 0.13C82.46 0.06 82.52 0.13 82.45 0.05C82.45 0.05 82.45 0.04 82.44 0.04C82.44 0.04 82.44 0.03 82.44 0.03C82.44 0.02 82.44 0.02 82.45 0.01C82.45 0.01 82.45 0.01 82.45 0ZM77.59 21.68C78.71 21.73 79.87 21.67 80.96 21.4C80.1 21.61 79.2 21.7 78.31 21.71C78.07 21.71 77.83 21.69 77.59 21.68ZM82.58 0.26C82.63 0.36 82.67 0.46 82.72 0.57C82.79 0.71 82.85 0.86 82.91 1C82.88 0.92 82.78 0.71 82.58 0.26ZM82.91 1C82.92 1.03 83.01 1.22 83.03 1.27C83.04 1.3 83.05 1.33 83.06 1.36C83.01 1.24 82.96 1.12 82.91 1ZM83.06 1.36C83.09 1.41 83.11 1.46 83.13 1.51C83.4 2.15 83.65 2.79 83.89 3.44C83.63 2.74 83.36 2.05 83.06 1.36ZM83.89 3.44C83.91 3.48 83.93 3.52 83.94 3.57C84.03 3.78 84.1 4.01 84.18 4.23C84.09 3.96 83.99 3.7 83.89 3.44ZM84.18 4.23C84.24 4.4 84.31 4.57 84.37 4.75C84.38 4.79 84.39 4.83 84.41 4.87C84.33 4.66 84.25 4.44 84.18 4.23ZM84.55 5.32C84.65 5.63 84.75 5.94 84.84 6.25C84.75 5.94 84.65 5.63 84.55 5.32ZM84.84 6.25C84.89 6.4 84.93 6.55 84.97 6.7C84.93 6.55 84.89 6.4 84.84 6.25ZM84.97 6.7C85.04 6.94 85.11 7.18 85.17 7.41C85.19 7.49 85.21 7.56 85.23 7.63C85.15 7.32 85.06 7.01 84.97 6.7ZM85.23 7.63C85.26 7.77 85.29 7.91 85.32 8.05C85.29 7.91 85.26 7.77 85.23 7.63ZM85.56 9.09C85.57 9.13 85.58 9.18 85.59 9.22C85.6 9.27 85.61 9.31 85.62 9.35C85.6 9.26 85.58 9.18 85.56 9.09ZM85.93 11.3C85.95 11.45 85.96 11.59 85.98 11.74C85.96 11.59 85.95 11.45 85.93 11.3ZM85.98 11.74C85.99 11.91 86.02 12.07 86.03 12.24C86.04 12.35 86.04 12.47 86.05 12.58C86.03 12.3 86.01 12.02 85.98 11.74ZM86.05 12.66C86.07 13.01 86.08 13.37 86.08 13.73C86.08 13.37 86.07 13.02 86.05 12.66ZM86.08 13.77C86.08 14.21 86.05 14.66 86 15.09C86.05 14.65 86.08 14.21 86.08 13.77ZM85.98 15.26C85.96 15.43 85.94 15.61 85.92 15.78C85.91 15.83 85.89 15.88 85.88 15.93C85.92 15.7 85.96 15.48 85.98 15.26ZM85.88 15.93C85.83 16.2 85.77 16.47 85.69 16.73C85.77 16.47 85.83 16.2 85.88 15.93ZM85.69 16.73C85.67 16.83 85.64 16.93 85.61 17.03C85.64 16.93 85.67 16.83 85.69 16.73ZM85.32 17.82C85.25 17.98 85.17 18.13 85.09 18.28C85.17 18.13 85.25 17.97 85.32 17.82ZM85.09 18.28C85.08 18.31 85.06 18.34 85.05 18.37C85.06 18.34 85.08 18.31 85.09 18.28ZM85.05 18.37C84.94 18.56 84.83 18.75 84.71 18.92C84.83 18.74 84.94 18.56 85.05 18.37ZM84.71 18.92C84.49 19.25 84.24 19.55 83.95 19.82C83.75 20.02 83.52 20.19 83.29 20.36C83.52 20.19 83.74 20.02 83.95 19.82C84.23 19.54 84.48 19.25 84.71 18.92ZM83.27 20.37C83.18 20.43 83.1 20.5 83 20.56C82.9 20.62 82.8 20.66 82.69 20.72C82.89 20.61 83.09 20.5 83.27 20.37ZM81.66 21.18C81.56 21.22 81.45 21.27 81.35 21.3C81.23 21.33 81.11 21.36 81 21.39C81.22 21.33 81.44 21.26 81.66 21.18Z" fill="#242424" fill-opacity="1.000000" fill-rule="nonzero"/>
</svg>
