<svg width="113.619629" height="20.833496" viewBox="0 0 113.62 20.8335" fill="none" xmlns="http://www.w3.org/2000/svg" xmlns:xlink="http://www.w3.org/1999/xlink">
	<desc>
			Created with Pixso.
	</desc>
	<defs/>
	<path id="Vector" d="M11.53 7.69C11.53 10.29 10.28 12.04 7.1 12.04L6.1 12.04L6.1 3.78C6.45 3.76 6.79 3.76 7.1 3.76C10.11 3.76 11.53 5.18 11.53 7.69ZM8.27 15.64C13.96 15.64 17.55 12.71 17.55 7.61C17.55 2 13.71 0 7.44 0C5.01 0 2.08 0.16 0 0.41L0 20.41L6.1 20.41L6.1 15.64L8.27 15.64ZM90.04 7.69C90.04 10.29 88.78 12.04 85.61 12.04L84.61 12.04L84.61 3.78C84.96 3.76 85.29 3.76 85.61 3.76C88.61 3.76 90.04 5.18 90.04 7.69ZM86.78 15.64C92.46 15.64 96.06 12.71 96.06 7.61C96.06 2 92.21 0 85.94 0C83.52 0 80.59 0.16 78.5 0.41L78.5 20.41L84.6 20.41L84.6 15.64L86.78 15.64ZM104 5.52C104 4.43 105.09 3.93 106.84 3.93C108.76 3.93 110.86 4.35 112.28 4.93L111.78 0.58C110.19 0.25 108.76 0 106.17 0C101.24 0 97.9 1.94 97.9 6.02C97.9 13.05 107.43 11.63 107.43 14.89C107.43 16.14 106.51 16.81 104.25 16.81C102.25 16.81 99.15 16.14 97.31 15.22L97.98 19.83C99.82 20.49 102.33 20.83 104.34 20.83C109.43 20.83 113.62 19.15 113.62 14.13C113.62 7.44 104 8.7 104 5.52ZM73.9 0.41L67.8 0.41L67.8 20.41L73.9 20.41L73.9 0.41ZM49.15 0.41L43.05 0.41L43.05 20.41L49.15 20.41L49.15 0.41ZM59.77 16.39L59.77 0.41L53.67 0.41L53.67 20.41L64.71 20.41L65.62 16.39L59.77 16.39ZM38.54 0.41L32.43 0.41L32.43 8.36L26.08 8.36L26.08 0.41L19.98 0.41L19.98 20.41L26.08 20.41L26.08 12.54L32.43 12.54L32.43 20.41L38.54 20.41L38.54 0.41Z" fill="#242424" fill-opacity="1.000000" fill-rule="nonzero"/>
</svg>
