<svg width="117.281738" height="8.173828" viewBox="0 0 117.282 8.17383" fill="none" xmlns="http://www.w3.org/2000/svg" xmlns:xlink="http://www.w3.org/1999/xlink">
	<desc>
			Created with Pixso.
	</desc>
	<defs/>
	<path id="Subtract" d="M17.1301 6.11035L17.1301 2.06348C17.1301 0.772461 18.041 0 19.2972 0L30.2144 0C31.4707 0 32.3815 0.772461 32.3815 2.06348L32.3815 6.11035C32.3815 7.40234 31.4707 8.17334 30.2144 8.17334L19.2972 8.17334C18.041 8.17334 17.1301 7.40234 17.1301 6.11035ZM0 0.000488281L13.3839 0.000488281C14.6633 0.000488281 15.2169 1.22266 15.2169 2.35205L15.2169 3.29736C15.2169 4.72656 14.3636 5.76465 12.8767 5.76465L1.86816 5.76465L1.86816 8.17334L0 8.17334L0 0.000488281ZM34.3988 0.000488281L47.8397 0.000488281C48.7964 0.000488281 49.6727 0.634277 49.6727 1.63721L49.6727 3.75879C49.6727 4.64648 48.9807 5.11865 48.197 5.32666C49.3267 5.85693 49.5574 7.03223 49.6727 8.17334L47.8397 8.17334C47.7589 6.94043 47.2285 5.76465 45.8112 5.76465L36.2662 5.76465L36.2662 8.17334L34.3988 8.17334L34.3988 0.000488281ZM66.5828 0.000488281L66.5828 1.63721L54.1569 1.63721C53.6609 1.63721 53.4535 1.99463 53.4535 2.46729C53.4535 2.91699 53.6842 3.2627 54.1569 3.2627L64.2897 3.2627C65.9497 3.2627 66.8486 4.05859 66.8486 5.75293C66.8486 7.1709 66.0883 8.17334 64.6132 8.17334L51.875 8.17334L51.875 6.53662L64.2903 6.53662C64.7166 6.53662 64.9015 6.16797 64.9015 5.7876C64.9015 5.35059 64.8101 4.88818 64.2903 4.88818L53.765 4.88818C52.4047 4.88818 51.6211 3.83984 51.6211 2.53711C51.6211 0.911621 52.4968 0.00146484 54.1575 0.00146484L66.5828 0.000488281ZM83.3212 0.000488281L83.3212 1.63721L71.0557 1.63721C70.7678 1.63721 70.6638 1.91406 70.6638 2.15625L70.6638 6.13379C70.6638 6.37646 70.8142 6.53711 71.0557 6.53711L83.3212 6.53711L83.3212 8.17383L71.0557 8.17383C69.7185 8.17383 68.8088 7.25195 68.8088 5.90283L68.8088 2.39893C68.8088 0.854492 69.4652 0.00146484 71.0557 0.00146484L83.3212 0.000488281ZM85.3265 0.000488281L87.2059 0.000488281L87.2059 3.18213L98.0541 3.18213L98.0541 0.000488281L99.9786 0.000488281L99.9786 8.17334L98.0541 8.17334L98.0541 4.81885L87.2059 4.81885L87.2059 8.17334L85.3265 8.17334L85.3265 0.000488281ZM101.95 0.000488281L117.282 0.000488281L117.282 1.63721L103.817 1.63721L103.817 3.21729L117.282 3.21729L117.282 4.8418L103.817 4.8418L103.817 6.53662L117.282 6.53662L117.282 8.17334L101.95 8.17334L101.95 0.000488281ZM36.2662 4.12695L36.2662 1.63721L47.1019 1.63672C47.6442 1.63672 47.8397 1.86719 47.8397 2.39746L47.8397 3.50488C47.8397 3.81543 47.7476 4.12695 47.3789 4.12695L36.2662 4.12695ZM1.86804 4.12695L1.86804 1.63721L12.5194 1.6377C13.061 1.6377 13.3839 1.96045 13.3839 2.50244L13.3839 3.42383C13.3839 3.94287 12.9808 4.12695 12.5194 4.12695L1.86804 4.12695ZM29.5574 6.53613L20.0814 6.53613C19.5048 6.53613 19.0208 6.2832 19.0208 5.62549L19.0208 2.54785C19.0208 1.89111 19.4934 1.63721 20.0814 1.63721L29.5574 1.63721C30.1454 1.63721 30.6062 1.89111 30.6062 2.54785L30.6062 5.62549C30.6062 6.2832 30.1335 6.53613 29.5574 6.53613Z" clip-rule="evenodd" fill="#242424" fill-opacity="1.000000" fill-rule="evenodd"/>
</svg>
