<svg width="120.963135" height="18.770020" viewBox="0 0 120.963 18.77" fill="none" xmlns="http://www.w3.org/2000/svg" xmlns:xlink="http://www.w3.org/1999/xlink">
	<desc>
			Created with Pixso.
	</desc>
	<defs/>
	<path id="Vector" d="M2.19 18.76L0.49 18.76C0.35 18.76 0 18.76 0 18.55C0 18.41 0.07 18.34 0.28 18.27C1.84 17.77 2.19 16.92 2.19 15.72L2.19 3.04C2.19 1.91 1.84 1.06 0.28 0.49C0.07 0.49 0 0.35 0 0.28C0 0 0.35 0.07 0.49 0.07L14.51 0.07C17.7 0.07 20.32 2.62 20.32 5.8C20.32 8.99 17.7 11.54 14.51 11.54L7.43 11.54L7.43 15.86C7.5 16.99 7.86 17.77 9.34 18.27C9.56 18.34 9.63 18.41 9.63 18.55C9.63 18.76 9.27 18.76 9.13 18.76L2.19 18.76L2.19 18.76ZM106.72 11.89L110.05 11.89L106.72 6.23L106.37 5.66L103.4 11.89L106.72 11.89ZM106.72 0L108.99 0L118.48 16.71C118.76 17.13 119.12 17.56 119.54 17.77C119.9 18.06 120.32 18.13 120.67 18.27C120.82 18.34 120.96 18.41 120.96 18.55C120.96 18.76 120.6 18.76 120.46 18.76L112.04 18.76C111.89 18.76 111.47 18.76 111.47 18.55C111.47 18.41 111.61 18.34 111.75 18.27C112.18 18.13 112.46 17.91 112.6 17.49C112.74 16.99 112.6 16.71 112.25 16.07C111.77 15.05 111.27 14.04 110.76 13.03L102.83 13.03L102.76 13.17C102.69 13.45 102.12 14.44 101.69 15.51C101.13 16.64 100.92 16.92 101.06 17.49C101.13 17.91 101.48 18.13 101.91 18.27C102.05 18.34 102.12 18.41 102.12 18.55C102.12 18.76 101.77 18.76 101.62 18.76L97.73 18.76C97.59 18.76 97.23 18.76 97.23 18.55C97.23 18.41 97.3 18.34 97.52 18.27C97.87 18.13 98.29 18.05 98.65 17.77C99.07 17.56 99.43 17.13 99.71 16.71L100.21 15.65L105.59 4.39L104.81 3.04C104.1 1.91 103.39 1.2 102.61 0.77C102.26 0.56 101.91 0.56 101.55 0.42C101.34 0.35 101.27 0.28 101.34 0.14C101.34 0 101.48 0.07 101.55 0L106.72 0L106.72 0ZM85.55 18.69L85.83 18.69C98.86 18.69 98.72 0.07 85.83 0.07L75.14 0.07C74.92 0.07 74.57 0 74.57 0.28C74.57 0.35 74.71 0.49 74.85 0.49C76.41 0.99 76.77 1.84 76.84 2.9L76.84 15.86C76.77 16.99 76.41 17.77 74.85 18.27C74.71 18.34 74.57 18.41 74.57 18.55C74.57 18.76 74.92 18.76 75.14 18.76L82.01 18.76L82.01 18.69L85.55 18.69ZM85.55 1.41C87.53 1.41 89.16 3.04 89.16 5.02L89.16 13.66C89.16 15.65 87.53 17.28 85.55 17.28L82.01 17.28L82.01 1.41L85.55 1.41ZM58.56 11.89L61.89 11.89L58.56 6.23L58.21 5.66L55.24 11.89L58.56 11.89ZM58.56 0L60.9 0L70.39 16.71C70.6 17.13 70.96 17.56 71.38 17.77C71.74 18.06 72.16 18.13 72.59 18.27C72.73 18.34 72.87 18.41 72.87 18.55C72.87 18.76 72.45 18.76 72.3 18.76L63.88 18.76C63.74 18.76 63.38 18.76 63.38 18.55C63.38 18.41 63.45 18.34 63.66 18.27C64.02 18.13 64.37 17.91 64.44 17.49C64.58 16.99 64.44 16.71 64.16 16.07C63.66 15.01 63.1 14.02 62.6 13.03L54.67 13.03L54.6 13.17C54.53 13.45 54.03 14.44 53.54 15.51C53.04 16.64 52.76 16.92 52.9 17.49C53.04 17.91 53.32 18.13 53.75 18.27C53.89 18.34 54.03 18.41 54.03 18.55C54.03 18.76 53.68 18.76 53.47 18.76L49.64 18.76C49.5 18.76 49.07 18.76 49.07 18.55C49.07 18.41 49.22 18.34 49.36 18.27C49.78 18.13 50.14 18.05 50.56 17.77C50.92 17.56 51.34 17.13 51.55 16.71L52.05 15.65L57.5 4.39L56.72 3.04C56.02 1.91 55.24 1.2 54.53 0.77C54.1 0.56 53.82 0.56 53.39 0.42C53.25 0.35 53.11 0.28 53.18 0.14C53.25 0 53.39 0.07 53.47 0L58.56 0L58.56 0ZM35.19 12.39C36.82 12.96 38.81 13.1 40.36 12.6L46.53 17.91L47.02 18.34C47.09 18.41 47.09 18.48 47.09 18.55C47.09 18.76 46.74 18.76 46.6 18.76L40.08 18.76L35.19 14.73L31.23 11.54L31.23 15.93C31.3 16.99 31.72 17.77 33.21 18.27C33.35 18.34 33.42 18.41 33.42 18.55C33.42 18.77 33.07 18.77 32.93 18.77L24.36 18.77C24.15 18.77 23.79 18.77 23.79 18.55C23.79 18.41 23.93 18.34 24.07 18.27C25.77 17.7 25.99 16.85 26.06 15.51L26.06 3.25C25.99 1.98 25.77 1.06 24.07 0.49C23.93 0.49 23.79 0.35 23.79 0.28C23.79 0 24.15 0.07 24.36 0.07L38.17 0.07C38.92 0.06 39.67 0.21 40.37 0.5C41.06 0.78 41.7 1.21 42.23 1.74C42.76 2.27 43.19 2.91 43.47 3.6C43.76 4.3 43.91 5.05 43.9 5.8C43.91 6.56 43.76 7.3 43.47 8C43.19 8.7 42.76 9.33 42.23 9.87C41.7 10.4 41.06 10.82 40.37 11.11C39.67 11.4 38.92 11.54 38.17 11.54L33.71 11.54C33.92 11.96 34.41 12.11 34.84 12.32C34.98 12.32 35.05 12.39 35.19 12.39ZM35.19 10.19L35.76 10.19C37.6 10.19 39.16 8.21 39.16 5.66C39.16 3.18 37.6 1.2 35.76 1.2L31.23 1.2L31.23 10.19L35.19 10.19ZM11.47 1.2L7.43 1.2L7.43 10.2L12.11 10.2C14.02 10.2 15.51 8.21 15.51 5.66C15.51 3.18 14.02 1.2 12.11 1.2L11.47 1.2Z" fill="#242424" fill-opacity="1.000000" fill-rule="evenodd"/>
</svg>
