<svg width="106.218506" height="52.924805" viewBox="0 0 106.219 52.9248" fill="none" xmlns="http://www.w3.org/2000/svg" xmlns:xlink="http://www.w3.org/1999/xlink">
	<desc>
			Created with Pixso.
	</desc>
	<defs/>
	<path id="Vector" d="M57.24 0.17C56.89 0.23 56.56 1.51 55.89 2.17C55.4 2.66 54.78 2.63 54.46 3.22C54.34 3.44 54.38 3.82 54.24 4.19C53.96 4.91 53 4.98 53 5.77C52.99 6.63 53.8 6.79 54.5 7.4C55.05 7.89 55.1 8.23 55.76 8.47C56.33 8.66 57.17 8.03 57.92 8.25C58.55 8.44 59.14 8.57 59.28 9.21C59.4 9.8 59.27 10.71 58.52 10.61C58.26 10.58 57.16 10.21 55.81 10.35C54.18 10.54 52.32 11.07 52.13 12.89C52.03 13.91 53.29 15.11 54.51 14.86C55.35 14.7 54.95 13.71 55.41 13.23C56.01 12.61 59.4 15.38 62.56 15.38C63.89 15.38 64.88 15.04 65.86 14.01C65.96 13.93 66.07 13.76 66.21 13.75C66.34 13.76 66.58 13.9 66.65 13.95C69.2 16 71.12 20.1 80.47 20.15C81.79 20.15 83.28 20.78 84.51 21.9C85.6 22.91 86.24 24.48 86.86 26.07C87.79 28.46 89.47 30.78 92.01 33.37C92.15 33.5 94.24 35.13 94.41 35.25C94.44 35.27 94.59 35.64 94.54 35.84C94.48 37.39 94.25 41.9 97.61 42.11C98.43 42.15 98.22 41.57 98.22 41.17C98.22 40.39 98.07 39.61 98.49 38.8C99.05 37.7 97.29 37.19 97.34 34.8C97.37 33.02 95.88 33.32 95.12 31.96C94.68 31.17 94.29 30.76 94.32 29.79C94.49 24.38 93.17 20.82 92.51 19.95C91.99 19.29 91.57 19.02 92.04 18.72C94.84 16.87 95.48 15.14 95.48 15.14C96.97 11.64 98.31 8.43 100.16 7.02C100.53 6.73 101.49 6.02 102.07 5.74C103.8 4.93 104.71 4.43 105.21 3.94C106 3.17 106.63 1.56 105.87 0.58C104.92 -0.62 103.29 0.33 102.57 0.76C97.41 3.82 96.65 9.22 94.86 12.32C93.44 14.8 91.12 16.62 89.05 16.77C87.5 16.88 85.82 16.57 84.16 15.84C80.1 14.06 77.88 11.76 77.36 11.36C76.27 10.52 67.82 2.22 60.96 1.88C60.96 1.88 60.11 0.17 59.9 0.15C59.4 0.08 58.89 1.16 58.52 1.29C58.17 1.4 57.59 0.12 57.24 0.17ZM27.08 49.72C26.44 49.7 25.89 49.17 25.89 48.52L25.89 27.15L18.85 27.15L18.85 50.7C18.85 51.86 19.78 52.8 20.93 52.8L33.24 52.8C34.4 52.8 35.32 51.86 35.32 50.7L35.32 27.15L28.29 27.15L28.28 48.52C28.28 49.17 27.73 49.7 27.08 49.72ZM50.66 27.15L40 27.15C38.74 27.15 37.72 28.17 37.72 29.45L37.72 52.8L44.77 52.8L44.77 31.38C44.77 30.72 45.3 30.2 45.96 30.2C46.61 30.2 47.14 30.71 47.16 31.36L47.16 52.8L54.18 52.8L54.18 31.36C54.19 30.71 54.71 30.2 55.37 30.2C56.02 30.2 56.56 30.72 56.57 31.38L56.57 52.8L63.62 52.8L63.62 29.45C63.62 28.17 62.59 27.15 61.33 27.15L50.66 27.15ZM9.42 31.43C9.43 30.71 8.85 30.2 8.23 30.2L7.03 30.2L7.03 43.18L8.23 43.18C8.85 43.18 9.43 42.68 9.42 41.97L9.42 31.43ZM14.15 46.35L7.03 46.35L7.03 52.8L0 52.8L0 27.15L14.19 27.15C15.47 27.15 16.46 28.18 16.46 29.46L16.46 44.04C16.46 45.32 15.43 46.35 14.15 46.35ZM87.77 47.06C86.36 47.06 85.17 48.29 85.17 49.77C85.17 51.26 86.36 52.47 87.82 52.47C89.27 52.47 90.44 51.26 90.44 49.77C90.44 48.28 89.27 47.06 87.82 47.06L87.77 47.06ZM90.94 49.76C90.94 51.5 89.55 52.92 87.82 52.92C86.07 52.92 84.67 51.51 84.67 49.76C84.67 48.04 86.07 46.61 87.77 46.61C89.55 46.61 90.94 48 90.94 49.76Z" fill="#242424" fill-opacity="1.000000" fill-rule="nonzero"/>
	<path id="Vector" d="M87.49 49.56C87.98 49.56 88.24 49.39 88.24 49.04C88.24 48.73 87.99 48.57 87.51 48.57L87.37 48.57L87.37 49.56L87.49 49.56ZM89.29 51.59L88.45 51.59L87.37 50.15L87.37 51.59L86.69 51.59L86.69 47.95L87.41 47.95C88.39 47.95 88.91 48.32 88.91 49.03C88.91 49.5 88.6 49.92 88.17 50.05L88.12 50.07L89.29 51.59ZM75.43 43.18L75.43 31.37C75.42 30.72 74.89 30.22 74.24 30.22C73.59 30.22 73.05 30.74 73.04 31.39L73.04 43.18L75.43 43.18ZM75.43 52.8L75.43 46.36L73.04 46.36L73.04 52.8L66.01 52.8L66.01 29.45C66.01 28.17 67.03 27.15 68.29 27.15L80.18 27.15C81.45 27.15 82.47 28.17 82.47 29.45L82.47 52.8L75.43 52.8Z" fill="#242424" fill-opacity="1.000000" fill-rule="nonzero"/>
</svg>
