<svg width="117.446533" height="38.993164" viewBox="0 0 117.447 38.9932" fill="none" xmlns="http://www.w3.org/2000/svg" xmlns:xlink="http://www.w3.org/1999/xlink">
	<desc>
			Created with Pixso.
	</desc>
	<defs/>
	<path id="Vector" d="M117.37 9.28C115.77 0.11 88.22 -2.75 55.83 2.89C42.22 5.26 29.94 8.75 20.37 12.68C21.84 12.72 22.93 13.05 23.6 13.71C24.11 14.23 24.37 14.94 24.37 15.83L24.37 16.74L21.2 16.74L21.2 15.94C21.2 15.27 20.8 14.85 20.09 14.85C19.49 14.85 19.12 15.12 19 15.65C18.96 15.86 18.97 16.08 19.01 16.29C19.35 17.68 24.07 18.54 24.58 21.1C24.65 21.43 24.74 22.14 24.6 23.15C24.3 25.22 22.49 26.01 20.17 26.01C16.95 26.01 15.63 24.49 15.63 22.38L15.64 21.38L19.04 21.38L19.04 22.62C19.04 23.32 19.55 23.71 20.24 23.71C20.9 23.71 21.28 23.44 21.41 22.9C21.47 22.65 21.5 22.29 21.39 22.01C20.76 20.43 16.36 19.69 15.81 17.14C15.69 16.56 15.68 16.07 15.78 15.45C15.83 15.15 15.93 14.85 16.06 14.57C5.45 19.53 -0.75 24.99 0.07 29.71C1.67 38.88 29.22 41.74 61.61 36.1C75.85 33.62 88.65 29.91 98.39 25.75C98.25 25.76 98.12 25.77 97.97 25.77C95.75 25.77 93.77 24.94 93.57 22.67C93.53 22.26 93.52 22.09 93.52 21.85L93.52 16.64C93.52 16.42 93.55 16.03 93.58 15.82C93.84 13.63 95.57 12.73 97.97 12.73C99.83 12.73 102.1 13.26 102.36 15.82C102.39 16.15 102.39 16.49 102.38 16.6L102.38 17.09L99.18 17.09L99.18 16.36C99.18 16.34 99.17 16.07 99.14 15.9C99.08 15.64 98.86 15.03 97.95 15.03C97.04 15.03 96.81 15.64 96.75 15.9C96.72 16.04 96.7 16.25 96.7 16.48L96.7 22.14C96.7 22.33 96.71 22.49 96.73 22.6C96.75 22.69 96.91 23.47 97.96 23.47C99 23.47 99.16 22.69 99.18 22.6C99.2 22.45 99.21 22.27 99.21 22.14L99.21 20.38L97.94 20.38L97.94 18.49L102.41 18.49L102.41 21.86C102.41 22.08 102.4 22.25 102.37 22.67C102.31 23.27 102.12 23.77 101.83 24.2C112.16 19.3 118.18 13.92 117.37 9.28ZM33.38 25.53L31.75 14.49L31.69 14.49L30.03 25.53L26.6 25.53L28.9 13.06L34.49 13.06L36.78 25.53L33.38 25.53ZM49.85 25.53L49.77 14.7L49.72 14.7L47.7 25.53L44.49 25.53L42.48 14.7L42.43 14.7L42.35 25.53L39.17 25.53L39.44 13.06L44.57 13.06L46.06 22.32L46.13 22.32L47.63 13.06L52.75 13.06L53.02 25.53L49.85 25.53ZM64.85 23.11C64.51 25.53 62.14 25.95 60.47 25.95C57.69 25.95 55.97 24.76 55.97 22.35L55.97 21.36L59.34 21.36L59.34 22.59C59.34 23.26 59.81 23.67 60.54 23.67C61.18 23.67 61.56 23.41 61.69 22.87C61.75 22.62 61.78 22.26 61.67 21.99C61.05 20.44 56.68 19.68 56.15 17.16C56.03 16.59 56.02 16.11 56.12 15.49C56.49 13.21 58.68 12.74 60.44 12.74C62.02 12.74 63.16 13.08 63.85 13.77C64.37 14.29 64.62 14.99 64.62 15.87L64.62 16.77L61.48 16.77L61.48 15.97C61.48 15.29 61.06 14.9 60.38 14.9C59.78 14.9 59.41 15.17 59.29 15.69C59.26 15.9 59.26 16.11 59.31 16.32C59.65 17.7 64.32 18.55 64.83 21.09C64.9 21.41 64.99 22.11 64.85 23.11ZM76.5 21.98C76.5 22.21 76.48 22.68 76.47 22.8C76.28 24.86 74.81 25.9 72.11 25.9C69.41 25.9 67.94 24.86 67.75 22.8C67.72 22.53 67.71 22.26 67.71 21.98L67.71 13.06L70.93 13.06L70.93 22.26C70.93 22.47 70.94 22.62 70.96 22.73C71 22.93 71.2 23.6 72.11 23.6C73.02 23.6 73.22 22.93 73.26 22.73C73.28 22.62 73.29 22.46 73.29 22.26L73.29 13.06L76.5 13.06L76.5 21.98ZM90.37 25.4L85.89 25.4L82.88 15.53L82.83 15.53L83 25.4L79.88 25.4L79.88 13.06L84.54 13.06L87.32 22.55L87.39 22.55L87.22 13.06L90.37 13.06L90.37 25.4Z" fill="#242424" fill-opacity="1.000000" fill-rule="nonzero"/>
</svg>
