<svg width="123.271729" height="21.497559" viewBox="0 0 123.272 21.4976" fill="none" xmlns="http://www.w3.org/2000/svg" xmlns:xlink="http://www.w3.org/1999/xlink">
	<desc>
			Created with Pixso.
	</desc>
	<defs/>
	<path id="Vector" d="M121.39 17.36C121.14 17.35 120.9 17.4 120.66 17.49C120.43 17.58 120.22 17.72 120.04 17.89C119.86 18.07 119.72 18.28 119.63 18.51C119.53 18.74 119.48 18.98 119.48 19.23C119.48 19.48 119.53 19.73 119.63 19.96C119.72 20.19 119.86 20.4 120.04 20.58C120.22 20.75 120.43 20.89 120.66 20.98C120.9 21.07 121.14 21.12 121.39 21.11C121.64 21.11 121.88 21.06 122.11 20.97C122.34 20.87 122.55 20.74 122.72 20.56C122.9 20.39 123.03 20.18 123.13 19.95C123.22 19.72 123.27 19.48 123.27 19.23C123.27 18.98 123.22 18.74 123.12 18.51C123.03 18.29 122.89 18.08 122.72 17.9C122.54 17.73 122.34 17.59 122.11 17.5C121.88 17.4 121.64 17.36 121.39 17.36ZM121.39 20.89C121.18 20.89 120.96 20.85 120.76 20.76C120.56 20.68 120.38 20.56 120.22 20.4C120.07 20.25 119.95 20.07 119.86 19.86C119.78 19.66 119.74 19.45 119.74 19.23C119.74 19.01 119.78 18.8 119.87 18.6C119.95 18.4 120.07 18.22 120.23 18.06C120.38 17.91 120.56 17.79 120.76 17.71C120.96 17.62 121.18 17.58 121.39 17.58C121.61 17.58 121.82 17.62 122.02 17.71C122.22 17.79 122.41 17.91 122.56 18.06C122.71 18.22 122.83 18.4 122.92 18.6C123 18.8 123.04 19.01 123.04 19.23C123.04 19.45 123 19.66 122.92 19.86C122.84 20.06 122.71 20.25 122.56 20.4C122.41 20.56 122.23 20.68 122.03 20.76C121.83 20.84 121.61 20.89 121.39 20.89Z" fill="#242424" fill-opacity="1.000000" fill-rule="evenodd"/>
	<path id="Vector" d="M122.36 18.74C122.36 18.56 122.28 18.37 122.12 18.29C121.96 18.19 121.79 18.18 121.61 18.18L120.69 18.18L120.69 20.28L120.95 20.28L120.95 19.31L121.42 19.31L122.02 20.28L122.33 20.28L121.69 19.31C122.07 19.3 122.36 19.15 122.36 18.74ZM121.34 19.11L120.95 19.11L120.95 18.37L121.55 18.37C121.81 18.37 122.1 18.41 122.1 18.73C122.1 19.16 121.64 19.11 121.34 19.11ZM110.38 8.59L114.22 4.48C114.44 4.18 114.55 3.97 114.55 3.79C114.55 3.49 114.3 3.37 113.48 3.37L112.51 3.37L112.51 0.78L123 0.78L123 3.37L121.62 3.37C120.03 3.37 119.74 3.61 117.52 6.41L111.44 12.97L111.44 16.98C111.44 18 111.96 18.36 113.44 18.36L115.73 18.36L115.73 20.86L101.04 20.86L101.04 18.36L103.33 18.36C104.81 18.36 105.33 18 105.33 16.98L105.33 12.97L98.17 5.05C96.99 3.67 97.15 3.37 93.86 3.37L93.86 0.78L107.15 0.78L107.15 3.37L106.2 3.37C105.24 3.37 104.83 3.55 104.83 3.91C104.83 4.21 105.13 4.45 105.31 4.69L108.93 8.64C109.36 9.09 109.89 9.15 110.38 8.59ZM21.22 0.78L24.42 0.78L24.42 8L21.46 8C21.2 6.56 20.3 6 19.47 5.24C17.99 3.87 14.77 2.74 12.06 2.74C8.56 2.74 5.61 3.82 5.61 5.41C5.61 9.84 25.6 6.32 25.6 14.69C25.6 19.05 21.32 21.49 13.63 21.49C10.97 21.49 6.94 20.67 4.56 19.4C3.82 18.97 3.5 19.81 3.36 20.86L0.07 20.86L0.07 13.39L3.05 13.39C3.7 15.29 4.6 15.68 5.44 16.43C6.88 17.76 10.31 18.72 13.46 18.69C18.2 18.65 19.83 17.61 19.83 16.1C19.83 14.6 18.22 14.24 13.02 13.42L8.6 12.7C3.62 11.95 0 10.83 0 6.86C0 2.74 4.58 0.15 11.84 0.15C14.9 0.15 17.45 0.56 19.91 1.94C20.59 2.38 21.23 2.44 21.22 0.78ZM83.78 12.88L83.84 4.85C83.84 3.79 83.29 3.43 81.73 3.43L79.89 3.43L79.89 0.93L91.59 0.93L91.59 3.43L90.07 3.43C88.5 3.43 87.95 3.79 87.95 4.85L87.95 21.01L83.37 20.98L68.53 6.92L68.53 17.13C68.53 18.15 69.08 18.54 70.64 18.54L72.68 18.54L72.68 21.01L60.52 21.01L60.52 18.54L62.54 18.54C64.1 18.54 64.65 18.15 64.65 17.13L64.65 4.85C64.65 3.79 64.1 3.43 62.54 3.43L60.52 3.43L60.52 0.93L71.03 0.93L83.78 12.88ZM44.56 0C35.23 0 29.38 4.12 29.38 10.74C29.38 17.25 35.14 21.34 44.27 21.34C53.97 21.34 59.61 17.31 59.61 10.41C59.61 4.21 53.52 0 44.56 0ZM44.35 18.72C39.18 18.72 36.21 15.74 36.21 10.59C36.21 5.57 39.31 2.58 44.6 2.58C49.68 2.58 52.65 5.63 52.65 10.8C52.65 15.86 49.64 18.72 44.35 18.72Z" fill="#242424" fill-opacity="1.000000" fill-rule="evenodd"/>
</svg>
