<svg width="105.280762" height="27.359375" viewBox="0 0 105.281 27.3594" fill="none" xmlns="http://www.w3.org/2000/svg" xmlns:xlink="http://www.w3.org/1999/xlink">
	<desc>
			Created with Pixso.
	</desc>
	<defs/>
	<path id="Subtract" d="M62.4722 0.181152L62.4722 9.28857L62.2622 9.28857C61.8711 7.49561 61.318 5.75049 60.3551 4.16748C59.2111 2.31738 57.3895 0.239258 55.0148 0.239258C49.5603 0.239258 49.0645 10.0137 49.0645 13.7427C49.0645 17.0806 49.3312 20.5229 50.5422 23.6504C51.3909 25.8438 52.621 26.9209 54.9005 26.9209C56.712 26.9209 58.6388 26.0054 59.6016 24.4316C59.8499 24.0215 59.8689 23.5645 59.8689 23.0972L59.8689 16.0586L57.4852 16.0586L57.4852 15.7827L66.2109 15.7827L66.2109 16.0586L64.1699 16.0586L64.1699 26.5869L63.9897 26.5869C63.4744 25.7285 62.6635 25.166 61.6246 25.166C60.8706 25.166 60.1362 25.4331 59.4795 25.7954L58.8881 26.1196C57.5527 26.7109 56.2742 27.1392 54.7965 27.1392C48.0262 27.1392 44.4214 19.9209 44.4214 13.9326C44.4214 9.55518 46.0905 4.87256 49.6379 2.13623C51.2305 0.905273 53.1566 0 55.2067 0C56.0081 0 56.7992 0.247559 57.5432 0.543457L58.0873 0.753418C58.7074 0.982422 59.3844 1.20166 60.0513 1.20166C60.8812 1.20166 61.6252 0.657715 62.2639 0.181152L62.4722 0.181152ZM30.9547 27.3594C27.8743 27.3594 24.9279 25.6343 23.0201 23.2773C20.8463 20.5986 19.7874 17.1367 19.7874 13.7134C19.7874 10.4233 20.7603 7.11426 22.772 4.4917C24.7556 1.91699 27.7404 0.0766602 31.0593 0.0766602C34.1111 0.0766602 37.0383 1.82227 38.9174 4.14844C41.0822 6.82812 42.1598 10.2993 42.1598 13.7231C42.1598 17.0029 41.1772 20.3125 39.1746 22.9346C37.2106 25.4893 34.2444 27.3594 30.9547 27.3594ZM30.9739 0.467285C36.0947 0.467285 37.4486 9.92725 37.4486 13.7134C37.4486 17.4995 36.0947 26.9678 30.9739 26.9683C25.8434 26.9683 24.4985 17.5083 24.4985 13.7134C24.4985 9.91748 25.8339 0.467285 30.9739 0.467285ZM65.0759 0.63916L74.3828 0.63916L74.3828 0.905762L71.9131 0.905762L71.9131 21.1138C71.9131 24.2788 75.1741 26.2056 78.0249 26.2056C81.0957 26.2056 83.6797 24.0703 83.6797 20.9326L83.6797 0.905273L80.7626 0.905273L80.7626 0.638672L104.784 0.638672L104.784 10.0127L104.603 10.0127C104.326 7.5332 103.849 4.98682 102.142 3.05127C100.417 1.09619 98.0704 0.905273 95.6581 0.905273L93.0554 0.905273L93.0554 12.9595C93.5883 13.0166 94.1324 13.0547 94.6766 13.0547C97.9473 13.0547 98.7958 10.8042 98.9387 8.01953L99.1774 8.01953L99.1774 18.5947L98.9387 18.5947C98.5286 16.0684 97.4132 13.3599 94.447 13.3599C93.98 13.3599 93.5225 13.3887 93.0554 13.4268L93.0554 26.3193L96.9551 26.3193C98.9775 26.3193 100.989 25.4424 102.42 24.0312C103.64 22.8301 104.49 21.2661 104.785 19.5781C104.947 18.6338 105.024 17.6709 105.071 16.7168L105.281 16.7168L105.281 26.5869L86.5042 26.5869L86.5042 26.3193L88.688 26.3193L88.688 0.905273L84.072 0.905273L84.072 21.0083C84.072 25.1655 80.1239 27.0059 76.4244 27.0059C72.2383 27.0059 67.6217 24.9751 67.6217 20.1875L67.6217 0.905273L65.0764 0.905273L65.0759 0.63916ZM0 0.63916L9.27881 0.63916L9.27881 0.905273L6.99976 0.905273L13.9231 19.8633L19.7687 0.905273L17.4706 0.905273L17.4706 0.63916L22.4772 0.63916L22.4772 0.905273L20.2645 0.905273L12.0255 27.1108L2.44165 0.905273L0 0.905273L0 0.63916Z" clip-rule="evenodd" fill="#242424" fill-opacity="1.000000" fill-rule="evenodd"/>
</svg>
