<svg width="30.000000" height="30.000000" viewBox="0 0 30 30" fill="none" xmlns="http://www.w3.org/2000/svg" xmlns:xlink="http://www.w3.org/1999/xlink">
	<desc>
			Created with Pixso.
	</desc>
	<defs/>
	<path id="Vector" d="M29 28L27.86 28L22.1 19.43C22 19.3 21.88 19.19 21.73 19.11C21.59 19.03 21.43 18.99 21.27 19C21.1 18.99 20.94 19.03 20.8 19.11C20.65 19.19 20.53 19.3 20.43 19.43L19.43 20.83L19.18 20.39C19.05 20.16 18.83 20 18.58 19.93C18.32 19.86 18.05 19.89 17.82 20.02C17.58 20.16 17.42 20.38 17.35 20.63C17.28 20.89 17.31 21.16 17.45 21.39L21.22 28L8.69 28L12.48 21.39C12.61 21.16 12.64 20.89 12.57 20.63C12.5 20.38 12.34 20.16 12.11 20.02C11.87 19.89 11.6 19.86 11.34 19.93C11.09 20 10.87 20.16 10.74 20.39L10.49 20.83L9.54 19.43C9.44 19.3 9.32 19.19 9.17 19.11C9.03 19.03 8.87 18.99 8.7 19C8.54 18.99 8.38 19.03 8.24 19.11C8.09 19.19 7.97 19.3 7.88 19.43L2.11 28L1 28C0.73 28 0.48 28.1 0.29 28.29C0.1 28.48 0 28.73 0 29C0 29.26 0.1 29.51 0.29 29.7C0.48 29.89 0.73 30 1 30L29 30C29.26 30 29.51 29.89 29.7 29.7C29.89 29.51 30 29.26 30 29C30 28.73 29.89 28.48 29.7 28.29C29.51 28.1 29.26 28 29 28ZM20.6 22.77L21.27 21.77L25.45 27.99L23.58 27.99L20.6 22.77ZM8.72 21.77L9.4 22.77L6.4 28L4.53 28L8.72 21.77Z" fill="#242424" fill-opacity="1.000000" fill-rule="nonzero"/>
	<path id="Vector" d="M18.35 18.85L15.99 14.7L15.99 10L24.99 10C25.26 10 25.51 9.89 25.7 9.7C25.89 9.51 25.99 9.26 25.99 9L25.99 2C25.99 1.73 25.89 1.48 25.7 1.29C25.51 1.1 25.26 1 24.99 1L15.99 1C15.99 0.73 15.89 0.48 15.7 0.29C15.51 0.1 15.26 0 14.99 0C14.73 0 14.48 0.1 14.29 0.29C14.1 0.48 13.99 0.73 13.99 1L13.99 14.7L11.63 18.83C13.87 19.06 16.12 19.08 18.35 18.85ZM20.99 5C20.99 4.73 21.1 4.48 21.29 4.29C21.48 4.1 21.73 4 21.99 4C22.26 4 22.51 4.1 22.7 4.29C22.89 4.48 22.99 4.73 22.99 5L22.99 6C22.99 6.26 22.89 6.51 22.7 6.7C22.51 6.89 22.26 7 21.99 7C21.73 7 21.48 6.89 21.29 6.7C21.1 6.51 20.99 6.26 20.99 6L20.99 5Z" fill="#DF361E" fill-opacity="1.000000" fill-rule="nonzero"/>
</svg>
