<svg width="30.060059" height="30.000977" viewBox="0 0 30.0601 30.001" fill="none" xmlns="http://www.w3.org/2000/svg" xmlns:xlink="http://www.w3.org/1999/xlink">
	<desc>
			Created with Pixso.
	</desc>
	<defs/>
	<path id="Vector" d="M5.06 9.89C5.32 9.89 5.57 9.78 5.76 9.59C5.95 9.41 6.06 9.15 6.06 8.89L6.06 8.29C6.06 8.02 5.95 7.77 5.76 7.58C5.57 7.39 5.32 7.29 5.06 7.29C4.79 7.29 4.54 7.39 4.35 7.58C4.16 7.77 4.06 8.02 4.06 8.29L4.06 8.89C4.06 9.15 4.16 9.41 4.35 9.59C4.54 9.78 4.79 9.89 5.06 9.89Z" fill="#242424" fill-opacity="1.000000" fill-rule="nonzero"/>
	<path id="Vector" d="M4.06 16.2C4.05 17.75 4.46 19.28 5.22 20.63C5.99 21.98 7.09 23.12 8.43 23.92C8.58 24.01 8.76 24.06 8.94 24.06C9.15 24.05 9.36 23.98 9.54 23.85C9.71 23.72 9.83 23.54 9.89 23.33C9.95 23.12 9.94 22.9 9.86 22.69C9.78 22.49 9.64 22.32 9.46 22.21C8.42 21.58 7.56 20.71 6.96 19.65C6.37 18.6 6.06 17.41 6.06 16.21L6.06 12.56C6.06 12.29 5.95 12.04 5.76 11.85C5.57 11.66 5.32 11.56 5.06 11.56C4.79 11.56 4.54 11.66 4.35 11.85C4.16 12.04 4.06 12.29 4.06 12.56L4.06 16.2Z" fill="#242424" fill-opacity="1.000000" fill-rule="nonzero"/>
	<path id="Vector" d="M21.64 3.18C21.5 3.08 21.35 3.02 21.2 3C21.04 2.98 20.88 2.99 20.73 3.05C16.18 4.61 11.81 0.33 11.73 0.29C11.54 0.1 11.28 0 11.02 0C10.76 0 10.5 0.1 10.32 0.29C10.32 0.29 5.9 4.62 1.32 3.05C1.17 3 1.01 2.98 0.85 3C0.69 3.03 0.54 3.08 0.41 3.18C0.28 3.27 0.18 3.39 0.1 3.53C0.03 3.68 -0.01 3.84 0 4L0 16.21C0 18.45 0.59 20.65 1.69 22.61C2.8 24.56 4.39 26.19 6.31 27.36L10.48 29.86C10.63 29.95 10.81 29.99 11 30C11.17 30 11.35 29.95 11.51 29.86L15.65 27.37C15.78 27.3 15.9 27.22 16.02 27.14C16.12 27.06 16.21 26.96 16.28 26.84C16.34 26.73 16.39 26.6 16.4 26.47C16.42 26.34 16.41 26.21 16.38 26.08C16.35 25.96 16.29 25.84 16.21 25.73C16.13 25.63 16.03 25.54 15.92 25.47C15.8 25.4 15.68 25.36 15.55 25.34C15.42 25.32 15.28 25.33 15.16 25.37C15.03 25.4 14.91 25.46 14.81 25.54L14.65 25.64L11 27.83L7.34 25.64C5.71 24.65 4.37 23.27 3.43 21.62C2.5 19.97 2 18.1 2 16.21L2 5.28C6 5.96 9.54 3.54 11 2.33C12.45 3.54 16 5.97 20 5.28L20 9.62C20 9.88 20.1 10.14 20.29 10.32C20.48 10.51 20.73 10.62 21 10.62C21.26 10.62 21.51 10.51 21.7 10.32C21.89 10.14 22 9.88 22 9.62L22 4C22 3.84 21.97 3.69 21.91 3.54C21.85 3.4 21.75 3.28 21.64 3.18Z" fill="#242424" fill-opacity="1.000000" fill-rule="nonzero"/>
	<path id="Vector" d="M22.06 11C20.47 11 18.93 11.46 17.61 12.34C16.29 13.22 15.27 14.47 14.66 15.93C14.06 17.4 13.9 19 14.21 20.56C14.52 22.11 15.28 23.53 16.4 24.65C17.52 25.77 18.94 26.53 20.49 26.84C22.05 27.15 23.65 26.99 25.12 26.39C26.58 25.78 27.83 24.76 28.71 23.44C29.59 22.12 30.06 20.58 30.06 19C30.06 16.87 29.21 14.84 27.71 13.34C26.21 11.84 24.18 11 22.06 11ZM21.36 18L22.76 18C23.38 17.97 24 18.18 24.46 18.6C24.93 19.02 25.21 19.61 25.25 20.23C25.29 20.86 25.08 21.48 24.67 21.95C24.26 22.42 23.68 22.72 23.06 22.77L23.06 23.2C23.06 23.46 22.95 23.72 22.76 23.9C22.57 24.09 22.32 24.2 22.06 24.2C21.79 24.2 21.54 24.09 21.35 23.9C21.16 23.72 21.06 23.46 21.06 23.2L21.06 22.8L19.95 22.8C19.69 22.8 19.44 22.69 19.25 22.5C19.06 22.31 18.95 22.06 18.95 21.8C18.95 21.53 19.06 21.28 19.25 21.09C19.44 20.9 19.69 20.8 19.95 20.8L22.76 20.8C22.86 20.8 22.96 20.75 23.04 20.68C23.11 20.6 23.16 20.5 23.16 20.4C23.16 20.29 23.11 20.19 23.04 20.11C22.96 20.04 22.86 20 22.76 20L21.36 20C20.73 20.03 20.12 19.81 19.65 19.39C19.18 18.97 18.9 18.38 18.86 17.76C18.82 17.13 19.03 16.52 19.44 16.04C19.85 15.57 20.43 15.27 21.06 15.23L21.06 14.8C21.06 14.53 21.16 14.28 21.35 14.09C21.54 13.9 21.79 13.8 22.06 13.8C22.32 13.8 22.57 13.9 22.76 14.09C22.95 14.28 23.06 14.53 23.06 14.8L23.06 15.2L24.16 15.2C24.42 15.2 24.67 15.3 24.86 15.49C25.05 15.68 25.16 15.93 25.16 16.2C25.16 16.46 25.05 16.72 24.86 16.9C24.67 17.09 24.42 17.2 24.16 17.2L21.36 17.2C21.25 17.2 21.15 17.24 21.07 17.31C21 17.39 20.96 17.49 20.96 17.6C20.96 17.7 21 17.8 21.07 17.88C21.15 17.95 21.25 18 21.36 18Z" fill="#DF361E" fill-opacity="1.000000" fill-rule="nonzero"/>
</svg>
