<svg width="29.975830" height="29.956055" viewBox="0 0 29.9758 29.9561" fill="none" xmlns="http://www.w3.org/2000/svg" xmlns:xlink="http://www.w3.org/1999/xlink">
	<desc>
			Created with Pixso.
	</desc>
	<defs/>
	<path id="Vector" d="M22.97 19.01C22.84 18.98 22.71 18.98 22.58 19.01C22.45 19.04 22.33 19.09 22.22 19.17C22.11 19.24 22.02 19.34 21.94 19.45C21.87 19.56 21.82 19.68 21.8 19.82C21.47 21.61 20.65 23.27 19.44 24.63C18.23 26 16.67 27 14.93 27.54C13.19 28.08 11.34 28.13 9.57 27.7C7.8 27.26 6.18 26.35 4.89 25.06C3.61 23.77 2.7 22.15 2.26 20.38C1.82 18.61 1.88 16.76 2.42 15.02C2.96 13.28 3.97 11.72 5.33 10.51C6.69 9.3 8.36 8.49 10.15 8.16C10.42 8.11 10.65 7.96 10.81 7.73C10.96 7.51 11.02 7.24 10.97 6.97C10.92 6.71 10.77 6.47 10.55 6.32C10.33 6.17 10.06 6.11 9.79 6.16C7.64 6.56 5.65 7.54 4.01 8.99C2.38 10.44 1.18 12.31 0.53 14.4C-0.11 16.49 -0.18 18.71 0.35 20.83C0.87 22.95 1.96 24.89 3.51 26.44C5.05 27.98 6.99 29.08 9.11 29.6C11.23 30.12 13.46 30.06 15.55 29.41C17.63 28.77 19.5 27.56 20.96 25.93C22.41 24.3 23.39 22.3 23.79 20.16C23.83 19.89 23.77 19.63 23.62 19.41C23.47 19.2 23.23 19.05 22.97 19.01Z" fill="#242424" fill-opacity="1.000000" fill-rule="nonzero"/>
	<path id="Vector" d="M9.97 19.5L9.97 15C9.97 14.73 9.87 14.48 9.68 14.29C9.49 14.1 9.24 14 8.97 14C8.71 14 8.45 14.1 8.26 14.29C8.08 14.48 7.97 14.73 7.97 15L7.97 19.5C7.97 20.16 8.23 20.79 8.7 21.26C9.17 21.73 9.81 22 10.47 22L14.97 22C15.24 22 15.49 21.89 15.68 21.7C15.87 21.51 15.97 21.26 15.97 21C15.97 20.73 15.87 20.48 15.68 20.29C15.49 20.1 15.24 20 14.97 20L10.47 20C10.34 20 10.21 19.94 10.12 19.85C10.02 19.75 9.97 19.63 9.97 19.5Z" fill="#242424" fill-opacity="1.000000" fill-rule="nonzero"/>
	<path id="Vector" d="M12.97 0C12.71 0 12.45 0.1 12.26 0.29C12.08 0.48 11.97 0.73 11.97 1L11.97 17C11.97 17.26 12.08 17.51 12.26 17.7C12.45 17.89 12.71 18 12.97 18L28.97 18C29.24 18 29.49 17.89 29.68 17.7C29.87 17.51 29.97 17.26 29.97 17C29.97 12.49 28.18 8.16 24.99 4.97C21.8 1.79 17.48 0 12.97 0ZM17.47 8.5L18.97 8.5C19.3 8.48 19.63 8.53 19.94 8.64C20.25 8.75 20.53 8.92 20.78 9.14C21.02 9.36 21.22 9.63 21.36 9.92C21.5 10.22 21.58 10.54 21.6 10.87C21.61 11.2 21.56 11.53 21.45 11.84C21.34 12.15 21.17 12.43 20.95 12.67C20.73 12.92 20.46 13.12 20.17 13.26C19.87 13.4 19.55 13.48 19.22 13.5L19.22 14.02C19.22 14.29 19.12 14.54 18.93 14.73C18.74 14.92 18.49 15.02 18.22 15.02C17.96 15.02 17.7 14.92 17.51 14.73C17.33 14.54 17.22 14.29 17.22 14.02L17.22 13.52L15.97 13.52C15.71 13.52 15.45 13.42 15.26 13.23C15.08 13.04 14.97 12.79 14.97 12.52C14.97 12.26 15.08 12.01 15.26 11.82C15.45 11.63 15.71 11.52 15.97 11.52L18.97 11.52C19.1 11.52 19.23 11.47 19.32 11.38C19.41 11.28 19.47 11.16 19.47 11.02C19.47 10.89 19.42 10.77 19.32 10.67C19.23 10.58 19.1 10.52 18.97 10.52L17.47 10.52C16.81 10.56 16.16 10.33 15.67 9.88C15.17 9.44 14.88 8.81 14.85 8.15C14.81 7.49 15.04 6.84 15.49 6.35C15.94 5.85 16.56 5.56 17.22 5.52L17.22 5C17.22 4.74 17.33 4.49 17.51 4.3C17.7 4.11 17.96 4 18.22 4C18.49 4 18.74 4.11 18.93 4.3C19.12 4.49 19.22 4.74 19.22 5L19.22 5.5L20.47 5.5C20.74 5.5 20.99 5.61 21.18 5.8C21.37 5.99 21.47 6.24 21.47 6.5C21.47 6.77 21.37 7.02 21.18 7.21C20.99 7.4 20.74 7.5 20.47 7.5L17.47 7.5C17.34 7.5 17.21 7.56 17.12 7.65C17.02 7.75 16.97 7.87 16.97 8C16.97 8.14 17.03 8.26 17.12 8.35C17.21 8.44 17.34 8.5 17.47 8.5ZM24.97 14L23.97 14C23.71 14 23.45 13.89 23.26 13.7C23.08 13.51 22.97 13.26 22.97 13C22.97 12.73 23.08 12.48 23.26 12.29C23.45 12.1 23.71 12 23.97 12L24.97 12C25.24 12 25.49 12.1 25.68 12.29C25.87 12.48 25.97 12.73 25.97 13C25.97 13.26 25.87 13.51 25.68 13.7C25.49 13.89 25.24 14 24.97 14Z" fill="#DF361E" fill-opacity="1.000000" fill-rule="nonzero"/>
</svg>
