<svg width="30.000000" height="30.021973" viewBox="0 0 30 30.022" fill="none" xmlns="http://www.w3.org/2000/svg" xmlns:xlink="http://www.w3.org/1999/xlink">
	<desc>
			Created with Pixso.
	</desc>
	<defs/>
	<path id="Vector" d="M22.7 3.29C22.5 3.12 22.26 3.04 22.01 3.05C21.75 3.06 21.52 3.16 21.34 3.34C21.16 3.52 21.06 3.75 21.05 4.01C21.04 4.26 21.12 4.5 21.29 4.7L22.58 6L17 6C16.2 6 15.44 6.31 14.87 6.87C14.31 7.44 14 8.2 14 9L14 14C14 14.26 13.89 14.52 13.7 14.7C13.51 14.89 13.26 15 13 15L9 15C8.73 15 8.48 15.1 8.29 15.29C8.1 15.48 8 15.73 8 16C8 16.26 8.1 16.52 8.29 16.7C8.48 16.89 8.73 17 9 17L13 17C13.79 17 14.55 16.68 15.12 16.12C15.68 15.55 16 14.79 16 14L16 9C16 8.73 16.1 8.48 16.29 8.29C16.48 8.1 16.73 8 17 8L22.58 8L21.29 9.29C21.14 9.43 21.05 9.6 21.01 9.8C20.97 9.99 20.99 10.2 21.07 10.38C21.14 10.56 21.27 10.72 21.44 10.83C21.6 10.94 21.8 11 22 11C22.26 10.99 22.51 10.88 22.7 10.7L25.7 7.7C25.88 7.51 25.99 7.25 25.99 6.99C25.99 6.73 25.88 6.47 25.7 6.29L22.7 3.29Z" fill="#242424" fill-opacity="1.000000" fill-rule="nonzero"/>
	<path id="Vector" d="M9.28 9.7C9.38 9.79 9.49 9.87 9.61 9.92C9.73 9.97 9.86 9.99 10 10C10.19 9.99 10.39 9.93 10.55 9.82C10.71 9.71 10.84 9.56 10.92 9.37C10.99 9.19 11.01 8.99 10.97 8.8C10.93 8.6 10.84 8.42 10.7 8.29L9.4 7L10.7 5.7C10.88 5.51 10.99 5.25 10.99 4.99C10.99 4.73 10.88 4.47 10.7 4.29C10.51 4.1 10.25 3.99 9.99 3.99C9.73 3.99 9.47 4.1 9.28 4.29L8 5.58L6.69 4.29C6.5 4.12 6.26 4.04 6.01 4.05C5.75 4.06 5.52 4.16 5.34 4.34C5.16 4.52 5.05 4.75 5.05 5.01C5.04 5.26 5.12 5.5 5.28 5.7L6.57 7L5.28 8.29C5.14 8.43 5.05 8.6 5.01 8.8C4.97 8.99 4.99 9.2 5.07 9.38C5.14 9.56 5.27 9.72 5.44 9.83C5.6 9.94 5.8 10 6 10C6.26 9.99 6.51 9.88 6.69 9.7L8 8.41L9.28 9.7Z" fill="#242424" fill-opacity="1.000000" fill-rule="nonzero"/>
	<path id="Vector" d="M5.5 15L5 15C4.73 15 4.48 15.1 4.29 15.29C4.1 15.48 4 15.73 4 16C4 16.26 4.1 16.51 4.29 16.7C4.48 16.89 4.73 17 5 17L5.5 17C5.76 17 6.01 16.89 6.2 16.7C6.39 16.51 6.5 16.26 6.5 16C6.5 15.73 6.39 15.48 6.2 15.29C6.01 15.1 5.76 15 5.5 15Z" fill="#242424" fill-opacity="1.000000" fill-rule="nonzero"/>
	<path id="Vector" d="M21.75 12.5C21.1 12.5 20.47 12.69 19.94 13.04C19.4 13.4 18.99 13.91 18.74 14.5C18.5 15.1 18.43 15.75 18.56 16.38C18.68 17.01 18.99 17.59 19.45 18.04C19.9 18.5 20.48 18.81 21.11 18.93C21.74 19.06 22.39 18.99 22.99 18.75C23.58 18.5 24.09 18.08 24.45 17.55C24.8 17.02 25 16.39 25 15.75C24.99 14.88 24.65 14.06 24.04 13.45C23.43 12.84 22.61 12.5 21.75 12.5ZM21.75 17C21.5 17 21.26 16.92 21.05 16.78C20.85 16.65 20.68 16.45 20.59 16.22C20.5 16 20.47 15.74 20.52 15.5C20.57 15.26 20.69 15.04 20.86 14.86C21.04 14.69 21.26 14.57 21.5 14.52C21.74 14.47 22 14.5 22.22 14.59C22.45 14.68 22.65 14.85 22.78 15.05C22.92 15.26 23 15.5 23 15.75C23 16.08 22.86 16.39 22.63 16.63C22.39 16.86 22.08 17 21.75 17Z" fill="#242424" fill-opacity="1.000000" fill-rule="nonzero"/>
	<path id="Vector" d="M27 0L3 0C2.2 0 1.44 0.31 0.87 0.87C0.31 1.44 0 2.2 0 3L0 19C0 19.79 0.31 20.55 0.87 21.12C1.44 21.68 2.2 22 3 22L27 22C27.79 22 28.55 21.68 29.12 21.12C29.68 20.55 30 19.79 30 19L30 3C30 2.2 29.68 1.44 29.12 0.87C28.55 0.31 27.79 0 27 0ZM28 19C28 19.26 27.89 19.51 27.7 19.7C27.51 19.89 27.26 20 27 20L3 20C2.73 20 2.48 19.89 2.29 19.7C2.1 19.51 2 19.26 2 19L2 3C2 2.73 2.1 2.48 2.29 2.29C2.48 2.1 2.73 2 3 2L27 2C27.26 2 27.51 2.1 27.7 2.29C27.89 2.48 28 2.73 28 3L28 19Z" fill="#242424" fill-opacity="1.000000" fill-rule="nonzero"/>
	<path id="Vector" d="M3.04 28.7C2.99 28.85 2.98 29.02 3 29.18C3.03 29.34 3.1 29.49 3.19 29.62C3.29 29.75 3.42 29.85 3.57 29.92C3.72 29.99 3.88 30.02 4.04 30.02L7.04 30.02C7.23 30.02 7.41 29.96 7.57 29.87C7.72 29.77 7.85 29.63 7.93 29.47L10.66 24.02L4.66 24.02L3.04 28.7Z" fill="#DF361E" fill-opacity="1.000000" fill-rule="nonzero"/>
	<path id="Vector" d="M26.95 28.7L25.38 24.02L19.38 24.02L22.1 29.47C22.19 29.63 22.32 29.77 22.48 29.87C22.64 29.97 22.82 30.02 23 30.02L26 30.02C26.16 30.01 26.32 29.98 26.46 29.9C26.6 29.83 26.72 29.73 26.81 29.6C26.91 29.47 26.97 29.32 26.99 29.16C27.01 29 27 28.85 26.95 28.7Z" fill="#DF361E" fill-opacity="1.000000" fill-rule="nonzero"/>
</svg>
