<svg width="24" height="24" viewBox="0 0 24 24" fill="none" xmlns="http://www.w3.org/2000/svg">
<path d="M3 12H12V13.5H3V12ZM1.5 8.25H9V9.75H1.5V8.25Z" fill="black"/>
<path d="M22.4394 12.4545L20.1894 7.2045C20.1316 7.06962 20.0355 6.95466 19.913 6.87387C19.7905 6.79309 19.6469 6.75002 19.5002 6.75H17.2502V5.25C17.2502 5.05109 17.1712 4.86032 17.0305 4.71967C16.8899 4.57902 16.6991 4.5 16.5002 4.5H4.50019V6H15.7502V15.417C15.4086 15.6157 15.1097 15.8799 14.8706 16.1945C14.6314 16.509 14.4568 16.8678 14.3567 17.25H9.64369C9.46114 16.543 9.02702 15.9269 8.42268 15.517C7.81835 15.1072 7.0853 14.9319 6.36094 15.0239C5.63658 15.1159 4.97064 15.4689 4.48795 16.0168C4.00526 16.5647 3.73895 17.2698 3.73895 18C3.73895 18.7302 4.00526 19.4353 4.48795 19.9832C4.97064 20.5311 5.63658 20.8841 6.36094 20.9761C7.0853 21.0681 7.81835 20.8928 8.42268 20.483C9.02702 20.0731 9.46114 19.457 9.64369 18.75H14.3567C14.5198 19.3937 14.893 19.9646 15.417 20.3724C15.9411 20.7802 16.5862 21.0016 17.2502 21.0016C17.9142 21.0016 18.5593 20.7802 19.0834 20.3724C19.6074 19.9646 19.9805 19.3937 20.1437 18.75H21.7502C21.9491 18.75 22.1399 18.671 22.2805 18.5303C22.4212 18.3897 22.5002 18.1989 22.5002 18V12.75C22.5002 12.6484 22.4795 12.5479 22.4394 12.4545ZM6.75019 19.5C6.45352 19.5 6.16351 19.412 5.91683 19.2472C5.67016 19.0824 5.4779 18.8481 5.36437 18.574C5.25084 18.2999 5.22113 17.9983 5.27901 17.7074C5.33689 17.4164 5.47975 17.1491 5.68953 16.9393C5.89931 16.7296 6.16658 16.5867 6.45755 16.5288C6.74853 16.4709 7.05013 16.5007 7.32421 16.6142C7.5983 16.7277 7.83257 16.92 7.99739 17.1666C8.16222 17.4133 8.25019 17.7033 8.25019 18C8.25019 18.3978 8.09215 18.7794 7.81085 19.0607C7.52955 19.342 7.14801 19.5 6.75019 19.5ZM17.2502 8.25H19.0052L20.6132 12H17.2502V8.25ZM17.2502 19.5C16.9535 19.5 16.6635 19.412 16.4168 19.2472C16.1702 19.0824 15.9779 18.8481 15.8644 18.574C15.7508 18.2999 15.7211 17.9983 15.779 17.7074C15.8369 17.4164 15.9797 17.1491 16.1895 16.9393C16.3993 16.7296 16.6666 16.5867 16.9576 16.5288C17.2485 16.4709 17.5501 16.5007 17.8242 16.6142C18.0983 16.7277 18.3326 16.92 18.4974 17.1666C18.6622 17.4133 18.7502 17.7033 18.7502 18C18.7502 18.3978 18.5922 18.7794 18.3108 19.0607C18.0295 19.342 17.648 19.5 17.2502 19.5ZM21.0002 17.25H20.1437C19.9785 16.6076 19.6048 16.0381 19.0811 15.6309C18.5575 15.2238 17.9135 15.0018 17.2502 15V13.5H21.0002V17.25Z" fill="black"/>
</svg>
