<svg width="20" height="20" viewBox="0 0 20 20" fill="none" xmlns="http://www.w3.org/2000/svg">
<path d="M3.3335 5.83333C3.3335 5.61232 3.42129 5.40036 3.57757 5.24408C3.73385 5.0878 3.94582 5 4.16683 5H15.8335C16.0545 5 16.2665 5.0878 16.4228 5.24408C16.579 5.40036 16.6668 5.61232 16.6668 5.83333V12.5C16.6668 12.721 16.579 12.933 16.4228 13.0893C16.2665 13.2455 16.0545 13.3333 15.8335 13.3333H4.16683C3.94582 13.3333 3.73385 13.2455 3.57757 13.0893C3.42129 12.933 3.3335 12.721 3.3335 12.5V5.83333Z" stroke="black" stroke-width="1.66667" stroke-linejoin="round"/>
<path d="M6.66687 5V13.3333M13.3335 5V13.3333M11.6669 5H15.0002M5.0002 5H8.33354M5.0002 13.3333H8.33354M11.6669 13.3333H15.0002M1.66687 15.8333H18.3335" stroke="black" stroke-width="1.66667" stroke-linecap="round" stroke-linejoin="round"/>
<path d="M7.50018 15.8333V16.6666M5.00018 15.8333V16.6666M2.50018 15.8333V16.6666M10.0002 15.8333V16.6666M12.5002 15.8333V16.6666M15.0002 15.8333V16.6666M17.5002 15.8333V16.6666" stroke="black" stroke-width="1.11111" stroke-linecap="round"/>
<path d="M12.5002 5V2.5H7.50018V5" stroke="black" stroke-width="1.66667" stroke-linecap="round" stroke-linejoin="round"/>
</svg>
