<svg width="22" height="22" viewBox="0 0 22 22" fill="none" xmlns="http://www.w3.org/2000/svg">
<path d="M10.0833 7.33335V11.9167L13.9792 14.2267L14.685 13.0533L11.4583 11.1375V7.33335H10.0833ZM19.25 9.16668V2.75001L16.83 5.17001C16.0665 4.40126 15.1581 3.79156 14.1574 3.37617C13.1566 2.96078 12.0835 2.74796 11 2.75001C9.36831 2.75001 7.77325 3.23387 6.41655 4.14039C5.05984 5.04691 4.00242 6.33539 3.378 7.84288C2.75357 9.35037 2.5902 11.0092 2.90853 12.6095C3.22685 14.2099 4.01259 15.6799 5.16637 16.8336C6.32016 17.9874 7.79017 18.7732 9.39051 19.0915C10.9909 19.4098 12.6497 19.2464 14.1571 18.622C15.6646 17.9976 16.9531 16.9402 17.8596 15.5835C18.7661 14.2268 19.25 12.6317 19.25 11H17.4167C17.4167 14.5383 14.5383 17.4167 11 17.4167C7.46167 17.4167 4.58334 14.5383 4.58334 11C4.58334 7.46168 7.46167 4.58335 11 4.58335C12.7692 4.58335 14.3733 5.30752 15.5375 6.46252L12.8333 9.16668H19.25Z" fill="black"/>
</svg>
