<svg width="115.251953" height="87.789062" viewBox="0 0 115.252 87.7891" fill="none" xmlns="http://www.w3.org/2000/svg" xmlns:xlink="http://www.w3.org/1999/xlink">
	<desc>
			Created with Pixso.
	</desc>
	<defs/>
	<g opacity="0.300000">
		<path id="Vector" d="M84.15 5.81L84.15 58.66C84.15 60.57 82.52 62.14 80.55 62.14L3.84 62.14C1.87 62.14 0.25 60.57 0.25 58.66L0.25 5.81C0.25 3.89 1.87 2.32 3.84 2.32L80.55 2.32C82.52 2.32 84.15 3.89 84.15 5.81Z" fill="#D6DCE8" fill-opacity="1.000000" fill-rule="nonzero"/>
		<path id="Vector" d="M84.15 58.66C84.15 60.57 82.52 62.14 80.55 62.14L3.84 62.14C1.87 62.14 0.25 60.57 0.25 58.66L0.25 5.81C0.25 3.89 1.87 2.32 3.84 2.32L80.55 2.32C82.52 2.32 84.15 3.89 84.15 5.81L84.15 58.66Z" stroke="#E4E2E1" stroke-opacity="1.000000" stroke-width="0.500000"/>
	</g>
	<path id="Vector" d="M86.29 3.73L86.29 56.58C86.29 58.49 84.66 60.07 82.69 60.07L5.98 60.07C4.01 60.07 2.38 58.49 2.38 56.58L2.38 3.73C2.38 1.82 4.01 0.25 5.98 0.25L82.69 0.25C84.66 0.25 86.29 1.82 86.29 3.73Z" fill="#FFFFFF" fill-opacity="1.000000" fill-rule="nonzero"/>
	<path id="Vector" d="M86.29 56.58C86.29 58.49 84.66 60.07 82.69 60.07L5.98 60.07C4.01 60.07 2.38 58.49 2.38 56.58L2.38 3.73C2.38 1.82 4.01 0.25 5.98 0.25L82.69 0.25C84.66 0.25 86.29 1.82 86.29 3.73L86.29 56.58Z" stroke="#E4E2E1" stroke-opacity="1.000000" stroke-width="0.500000"/>
	<rect id="Rectangle 3111" x="6.791016" y="28.564453" rx="3.000000" width="75.635933" height="14.984478" fill="#FAFAFC" fill-opacity="1.000000"/>
	<rect id="Rectangle 3111" x="7.041016" y="28.814453" rx="3.000000" width="75.135933" height="14.484478" stroke="#E4E2E1" stroke-opacity="1.000000" stroke-width="0.500000"/>
	<path id="Vector" d="M86.29 3.73L86.29 6.26L2.38 6.26L2.38 3.73C2.38 1.82 4.01 0.25 5.98 0.25L82.69 0.25C84.66 0.25 86.29 1.82 86.29 3.73Z" fill="#FAFAFC" fill-opacity="1.000000" fill-rule="nonzero"/>
	<path id="Vector" d="M86.29 6.26L2.38 6.26L2.38 3.73C2.38 1.82 4.01 0.25 5.98 0.25L82.69 0.25C84.66 0.25 86.29 1.82 86.29 3.73L86.29 6.26Z" stroke="#E4E2E1" stroke-opacity="1.000000" stroke-width="0.500000"/>
	<path id="Vector" d="M6.15 4.35C6.76 4.35 7.25 3.87 7.25 3.28C7.25 2.69 6.76 2.21 6.15 2.21C5.55 2.21 5.05 2.69 5.05 3.28C5.05 3.87 5.55 4.35 6.15 4.35Z" fill="#9FA6B6" fill-opacity="1.000000" fill-rule="nonzero"/>
	<path id="Vector" d="M7.25 3.28C7.25 3.87 6.76 4.35 6.15 4.35C5.55 4.35 5.05 3.87 5.05 3.28C5.05 2.69 5.55 2.21 6.15 2.21C6.76 2.21 7.25 2.69 7.25 3.28ZM6.41 3.8Q6.29 3.85 6.15 3.85Q6.01 3.85 5.9 3.8Q5.8 3.76 5.72 3.68Q5.63 3.59 5.59 3.48Q5.55 3.39 5.55 3.28Q5.55 3.18 5.59 3.09Q5.63 2.98 5.72 2.89Q5.8 2.81 5.9 2.77Q6.01 2.71 6.15 2.71Q6.29 2.71 6.41 2.77Q6.5 2.81 6.58 2.89Q6.68 2.98 6.72 3.09Q6.75 3.18 6.75 3.28Q6.75 3.39 6.72 3.48Q6.68 3.59 6.58 3.68Q6.5 3.76 6.41 3.8Z" fill="#E4E2E1" fill-opacity="1.000000" fill-rule="evenodd"/>
	<g opacity="0.600000">
		<path id="Vector" d="M9.58 4.35C10.18 4.35 10.68 3.87 10.68 3.28C10.68 2.69 10.18 2.21 9.58 2.21C8.97 2.21 8.47 2.69 8.47 3.28C8.47 3.87 8.97 4.35 9.58 4.35Z" fill="#9FA6B6" fill-opacity="1.000000" fill-rule="nonzero"/>
		<path id="Vector" d="M10.68 3.28C10.68 3.87 10.18 4.35 9.58 4.35C8.97 4.35 8.47 3.87 8.47 3.28C8.47 2.69 8.97 2.21 9.58 2.21C10.18 2.21 10.68 2.69 10.68 3.28ZM9.83 3.8Q9.71 3.85 9.58 3.85Q9.44 3.85 9.32 3.8Q9.22 3.76 9.14 3.68Q9.05 3.59 9.01 3.48Q8.97 3.39 8.97 3.28Q8.97 3.18 9.01 3.09Q9.05 2.98 9.14 2.89Q9.22 2.81 9.32 2.77Q9.44 2.71 9.58 2.71Q9.71 2.71 9.83 2.77Q9.93 2.81 10.01 2.89Q10.1 2.98 10.14 3.09Q10.18 3.18 10.18 3.28Q10.18 3.39 10.14 3.48Q10.1 3.59 10.01 3.68Q9.93 3.76 9.83 3.8Z" fill="#E4E2E1" fill-opacity="1.000000" fill-rule="evenodd"/>
	</g>
	<g opacity="0.400000">
		<path id="Vector" d="M13.06 4.35C13.66 4.35 14.16 3.87 14.16 3.28C14.16 2.69 13.66 2.21 13.06 2.21C12.45 2.21 11.95 2.69 11.95 3.28C11.95 3.87 12.45 4.35 13.06 4.35Z" fill="#9FA6B6" fill-opacity="1.000000" fill-rule="nonzero"/>
		<path id="Vector" d="M14.16 3.28C14.16 3.87 13.66 4.35 13.06 4.35C12.45 4.35 11.95 3.87 11.95 3.28C11.95 2.69 12.45 2.21 13.06 2.21C13.66 2.21 14.16 2.69 14.16 3.28ZM13.31 3.8Q13.19 3.85 13.06 3.85Q12.92 3.85 12.8 3.8Q12.7 3.76 12.62 3.68Q12.53 3.59 12.49 3.48Q12.45 3.39 12.45 3.28Q12.45 3.18 12.49 3.09Q12.53 2.98 12.62 2.89Q12.7 2.81 12.8 2.77Q12.92 2.71 13.06 2.71Q13.19 2.71 13.31 2.77Q13.41 2.81 13.49 2.89Q13.58 2.98 13.62 3.09Q13.66 3.18 13.66 3.28Q13.66 3.39 13.62 3.48Q13.58 3.59 13.49 3.68Q13.41 3.76 13.31 3.8Z" fill="#E4E2E1" fill-opacity="1.000000" fill-rule="evenodd"/>
	</g>
	<path id="path184_1_" d="M23.83 13.34L11.63 13.34C10.86 13.34 10.23 12.57 10.23 11.95C10.23 11.19 10.86 10.57 11.63 10.57L23.83 10.57C24.59 10.57 25.23 11.34 25.23 11.95C25.23 12.72 24.59 13.34 23.83 13.34Z" fill="#E4E2E1" fill-opacity="1.000000" fill-rule="nonzero"/>
	<path id="path186_1_" d="M20.53 34.12L11.59 34.12C10.85 34.12 10.23 33.36 10.23 32.74C10.23 31.97 10.85 31.36 11.59 31.36L20.53 31.36C21.27 31.36 21.9 32.13 21.9 32.74C21.77 33.36 21.15 34.12 20.53 34.12Z" fill="#BDBDBD" fill-opacity="1.000000" fill-rule="nonzero"/>
	<path id="path186_1_" d="M77.96 34.12L60.83 34.12C60.05 34.12 59.39 33.36 59.39 32.74C59.39 31.97 60.05 31.36 60.83 31.36L77.96 31.36C78.74 31.36 79.39 32.13 79.39 32.74C79.26 33.36 78.61 34.12 77.96 34.12Z" fill="#BDBDBD" fill-opacity="1.000000" fill-rule="nonzero"/>
	<g opacity="0.400000">
		<path id="Rectangle 3113" d="M79.03 34.67L63.71 59.1C62.04 61.77 63.95 65.23 67.1 65.23L97.75 65.23C100.89 65.23 102.81 61.77 101.14 59.1L85.81 34.67C84.24 32.18 80.6 32.18 79.03 34.67Z" fill="#D6DCE8" fill-opacity="1.000000" fill-rule="nonzero"/>
		<path id="Rectangle 3113" d="M79.03 34.67C80.6 32.18 84.24 32.18 85.81 34.67L101.14 59.1C102.81 61.77 100.89 65.23 97.75 65.23L67.1 65.23C63.95 65.23 62.04 61.77 63.71 59.1L79.03 34.67Z" stroke="#E4E2E1" stroke-opacity="1.000000" stroke-width="0.500000"/>
	</g>
	<path id="Rectangle 3112" d="M80.91 36.66L69.2 55.33C66.69 59.32 69.57 64.51 74.28 64.51L97.7 64.51C102.42 64.51 105.29 59.32 102.78 55.33L91.07 36.66C88.72 32.91 83.26 32.91 80.91 36.66Z" fill="#FAFAFC" fill-opacity="1.000000" fill-rule="nonzero"/>
	<path id="Rectangle 3112" d="M80.91 36.66L69.2 55.33C66.69 59.32 69.57 64.51 74.28 64.51L97.7 64.51C102.42 64.51 105.29 59.32 102.78 55.33L91.07 36.66C88.72 32.91 83.26 32.91 80.91 36.66ZM69.62 55.59L81.33 36.93Q82.14 35.64 83.31 34.99Q84.47 34.35 85.99 34.35Q87.51 34.35 88.68 34.99Q89.84 35.64 90.65 36.93L102.36 55.59Q103.22 56.96 103.26 58.36Q103.3 59.76 102.51 61.18Q101.73 62.59 100.52 63.3Q99.32 64.01 97.7 64.01L74.28 64.01Q72.66 64.01 71.46 63.3Q70.25 62.59 69.47 61.18Q68.68 59.76 68.72 58.36Q68.76 56.96 69.62 55.59Z" fill="#DF361E" fill-opacity="1.000000" fill-rule="evenodd"/>
	<path id="!" d="M86.08 41.96C85.04 41.96 84.22 42.83 84.28 43.87L84.73 51.9C84.77 52.62 85.36 53.19 86.08 53.19L86.08 53.19C86.8 53.19 87.4 52.62 87.44 51.9L87.89 43.87C87.95 42.83 87.12 41.96 86.08 41.96L86.08 41.96ZM86.08 58.54C87.05 58.54 87.81 57.76 87.81 56.78C87.81 55.79 87.05 55.02 86.08 55.02C85.12 55.02 84.36 55.79 84.36 56.78C84.36 57.76 85.12 58.54 86.08 58.54Z" fill="#DF361E" fill-opacity="1.000000" fill-rule="nonzero"/>
	<path id="!" d="M83.78 43.9L84.23 51.93Q84.24 52.12 84.29 52.31Q84.33 52.47 84.4 52.62Q84.47 52.77 84.57 52.91Q84.67 53.05 84.81 53.18Q84.94 53.3 85.09 53.4Q85.23 53.49 85.38 53.55Q85.54 53.61 85.7 53.65Q85.89 53.69 86.08 53.69Q86.28 53.69 86.47 53.65Q86.63 53.61 86.78 53.55Q86.94 53.49 87.08 53.4Q87.23 53.3 87.36 53.18Q87.49 53.05 87.6 52.91Q87.69 52.77 87.76 52.62Q87.84 52.47 87.88 52.31Q87.93 52.12 87.94 51.93L88.39 43.9Q88.4 43.63 88.36 43.37Q88.32 43.16 88.25 42.96Q88.17 42.75 88.06 42.56Q87.93 42.36 87.76 42.18Q87.59 42 87.39 41.86Q87.22 41.74 87.01 41.65Q86.81 41.56 86.6 41.51Q86.35 41.46 86.08 41.46Q85.82 41.46 85.57 41.51Q85.35 41.56 85.15 41.65Q84.95 41.74 84.77 41.86Q84.57 42 84.41 42.18Q84.24 42.36 84.11 42.56Q84 42.75 83.92 42.96Q83.84 43.16 83.81 43.37Q83.76 43.63 83.78 43.9ZM86.08 41.96C85.04 41.96 84.22 42.83 84.28 43.87L84.73 51.9C84.77 52.62 85.36 53.19 86.08 53.19C86.8 53.19 87.4 52.62 87.44 51.9L87.89 43.87C87.95 42.83 87.12 41.96 86.08 41.96ZM88.24 57.34Q88.31 57.06 88.31 56.78Q88.31 56.48 88.24 56.19Q88.2 56.04 88.14 55.9Q88.04 55.67 87.91 55.48Q87.8 55.32 87.66 55.18Q87.51 55.02 87.32 54.89Q87.15 54.78 86.95 54.69Q86.79 54.63 86.63 54.58Q86.36 54.52 86.08 54.52Q85.81 54.52 85.55 54.58Q85.38 54.62 85.21 54.69Q85.02 54.77 84.85 54.89Q84.66 55.01 84.5 55.18Q84.36 55.32 84.25 55.48Q84.12 55.67 84.03 55.9Q83.97 56.04 83.93 56.2Q83.86 56.48 83.86 56.78Q83.86 57.06 83.92 57.33Q83.96 57.5 84.03 57.66Q84.12 57.88 84.26 58.08Q84.36 58.24 84.5 58.38Q84.67 58.55 84.87 58.68Q85.03 58.79 85.21 58.87Q85.38 58.94 85.57 58.99Q85.82 59.04 86.08 59.04Q86.35 59.04 86.61 58.98Q86.79 58.94 86.95 58.87Q87.14 58.79 87.31 58.67Q87.5 58.55 87.66 58.38Q87.8 58.24 87.91 58.08Q88.04 57.88 88.14 57.66Q88.2 57.5 88.24 57.34ZM86.08 58.54C87.05 58.54 87.81 57.76 87.81 56.78C87.81 55.79 87.05 55.02 86.08 55.02C85.12 55.02 84.36 55.79 84.36 56.78C84.36 57.76 85.12 58.54 86.08 58.54Z" fill="#DF361E" fill-opacity="1.000000" fill-rule="evenodd"/>
	<path id="path186_1_" d="M53.78 34.12L27.51 34.12C26.72 34.12 26.06 33.36 26.06 32.74C26.06 31.97 26.72 31.36 27.51 31.36L53.78 31.36C54.57 31.36 55.23 32.13 55.23 32.74C55.09 33.36 54.44 34.12 53.78 34.12Z" fill="#BDBDBD" fill-opacity="1.000000" fill-rule="nonzero"/>
	<path id="path188_1_" d="M32.93 40.35L16.69 40.35C15.89 40.35 15.23 39.58 15.23 38.96C15.23 38.2 15.89 37.58 16.69 37.58L32.93 37.58C33.73 37.58 34.39 38.35 34.39 38.96C34.26 39.73 33.59 40.35 32.93 40.35Z" fill="#BDBDBD" fill-opacity="1.000000" fill-rule="nonzero"/>
	<path id="path188_1_" d="M47.98 40.35L39.14 40.35C38.37 40.35 37.73 39.58 37.73 38.96C37.73 38.2 38.37 37.58 39.14 37.58L47.98 37.58C48.75 37.58 49.39 38.35 49.39 38.96C49.26 39.73 48.62 40.35 47.98 40.35Z" fill="#BDBDBD" fill-opacity="1.000000" fill-rule="nonzero"/>
	<path id="path192_1_" d="M30.43 48.69L11.69 48.69C10.89 48.69 10.23 47.92 10.23 47.31C10.23 46.54 10.89 45.92 11.69 45.92L30.43 45.92C31.23 45.92 31.9 46.69 31.9 47.31C31.9 48.07 31.36 48.69 30.43 48.69Z" fill="#E4E2E1" fill-opacity="1.000000" fill-rule="nonzero"/>
	<path id="path192_1_" d="M43.82 48.69L36.64 48.69C35.87 48.69 35.23 47.92 35.23 47.31C35.23 46.54 35.87 45.92 36.64 45.92L43.82 45.92C44.59 45.92 45.23 46.69 45.23 47.31C45.23 48.07 44.72 48.69 43.82 48.69Z" fill="#E4E2E1" fill-opacity="1.000000" fill-rule="nonzero"/>
	<path id="path194_1_" d="M19.61 54.91L11.68 54.91C10.89 54.91 10.23 54.14 10.23 53.53C10.23 52.76 10.89 52.15 11.68 52.15L19.61 52.15C20.4 52.15 21.06 52.91 21.06 53.53C21.06 54.3 20.53 54.91 19.61 54.91Z" fill="#E4E2E1" fill-opacity="1.000000" fill-rule="nonzero"/>
	<path id="path196_1_" d="M26.42 54.91L24.87 54.91C24.16 54.91 23.56 54.14 23.56 53.53C23.56 52.76 24.16 52.15 24.87 52.15L26.42 52.15C27.13 52.15 27.73 52.91 27.73 53.53C27.73 54.3 27.13 54.91 26.42 54.91Z" fill="#E4E2E1" fill-opacity="1.000000" fill-rule="nonzero"/>
	<path id="path198_1_" d="M14.8 26.47L11.49 26.47C10.8 26.47 10.23 25.71 10.23 25.09C10.23 24.32 10.8 23.71 11.49 23.71L14.8 23.71C15.49 23.71 16.06 24.48 16.06 25.09C16.06 25.86 15.49 26.47 14.8 26.47Z" fill="#E4E2E1" fill-opacity="1.000000" fill-rule="nonzero"/>
	<path id="path198_1_" d="M43.79 26.47L23.33 26.47C22.55 26.47 21.9 25.71 21.9 25.09C21.9 24.32 22.55 23.71 23.33 23.71L43.79 23.71C44.57 23.71 45.23 24.48 45.23 25.09C45.23 25.86 44.57 26.47 43.79 26.47Z" fill="#E4E2E1" fill-opacity="1.000000" fill-rule="nonzero"/>
	<path id="path200_1_" d="M30.43 19.56L11.69 19.56C10.89 19.56 10.23 18.79 10.23 18.18C10.23 17.41 10.89 16.79 11.69 16.79L30.43 16.79C31.23 16.79 31.9 17.56 31.9 18.18C31.9 18.95 31.36 19.56 30.43 19.56Z" fill="#E4E2E1" fill-opacity="1.000000" fill-rule="nonzero"/>
	<path id="path200_1_" d="M55.43 19.56L36.69 19.56C35.89 19.56 35.23 18.79 35.23 18.18C35.23 17.41 35.89 16.79 36.69 16.79L55.43 16.79C56.23 16.79 56.89 17.56 56.89 18.18C56.89 18.95 56.36 19.56 55.43 19.56Z" fill="#E4E2E1" fill-opacity="1.000000" fill-rule="nonzero"/>
	<path id="path200_1_" d="M68.82 19.56L61.64 19.56C60.87 19.56 60.23 18.79 60.23 18.18C60.23 17.41 60.87 16.79 61.64 16.79L68.82 16.79C69.59 16.79 70.23 17.56 70.23 18.18C70.23 18.95 69.72 19.56 68.82 19.56Z" fill="#E4E2E1" fill-opacity="1.000000" fill-rule="nonzero"/>
</svg>
