<svg width="19.996094" height="19.999512" viewBox="0 0 19.9961 19.9995" fill="none" xmlns="http://www.w3.org/2000/svg" xmlns:xlink="http://www.w3.org/1999/xlink">
	<desc>
			Created with Pixso.
	</desc>
	<defs/>
	<path id="Vector" d="M10 18.1L10 14.5C10 12.01 7.98 10 5.5 10L1.9 10" stroke="#242424" stroke-opacity="1.000000" stroke-width="2.000000" stroke-linejoin="round" stroke-linecap="round"/>
	<path id="Vector" d="M10 18.1L10 14.5C10 12.01 12.01 10 14.5 10L18.09 10" stroke="#242424" stroke-opacity="1.000000" stroke-width="2.000000" stroke-linejoin="round" stroke-linecap="round"/>
	<path id="Vector" d="M10 1L10 18.99" stroke="#242424" stroke-opacity="1.000000" stroke-width="2.000000" stroke-linejoin="round" stroke-linecap="round"/>
	<path id="Vector" d="M4.59 6.39C3.19 7.8 2.4 8.59 1 10C2.4 11.4 3.19 12.19 4.59 13.59" stroke="#242424" stroke-opacity="1.000000" stroke-width="2.000000" stroke-linejoin="round" stroke-linecap="round"/>
	<path id="Vector" d="M13.59 4.6C12.19 3.19 11.4 2.4 10 1C8.59 2.4 7.8 3.19 6.4 4.6" stroke="#242424" stroke-opacity="1.000000" stroke-width="2.000000" stroke-linejoin="round" stroke-linecap="round"/>
	<path id="Vector" d="M15.39 6.39C16.8 7.8 17.59 8.59 18.99 10C17.59 11.4 16.8 12.19 15.39 13.59" stroke="#242424" stroke-opacity="1.000000" stroke-width="2.000000" stroke-linejoin="round" stroke-linecap="round"/>
</svg>
