<svg width="23.111328" height="21.000000" viewBox="0 0 23.1113 21" fill="none" xmlns="http://www.w3.org/2000/svg" xmlns:xlink="http://www.w3.org/1999/xlink">
	<desc>
			Created with Pixso.
	</desc>
	<defs/>
	<path id="Vector" d="M9.44 17.88C9.44 19.05 8.5 20 7.33 20L3.11 20C1.94 20 1 19.05 1 17.88L1 13.66C1 12.5 1.94 11.55 3.11 11.55L7.33 11.55C8.5 11.55 9.44 12.5 9.44 13.66L9.44 17.88Z" stroke="#000000" stroke-opacity="1.000000" stroke-width="2.000000" stroke-linejoin="round"/>
	<path id="Vector" d="M15.77 7.33C15.77 8.49 14.83 9.44 13.66 9.44L9.44 9.44C8.27 9.44 7.33 8.49 7.33 7.33L7.33 3.11C7.33 1.94 8.27 1 9.44 1L13.66 1C14.83 1 15.77 1.94 15.77 3.11L15.77 7.33Z" stroke="#000000" stroke-opacity="1.000000" stroke-width="2.000000" stroke-linejoin="round"/>
	<path id="Vector" d="M22.11 17.88C22.11 19.05 21.16 20 20 20L15.77 20C14.61 20 13.66 19.05 13.66 17.88L13.66 13.66C13.66 12.5 14.61 11.55 15.77 11.55L20 11.55C21.16 11.55 22.11 12.5 22.11 13.66L22.11 17.88Z" stroke="#000000" stroke-opacity="1.000000" stroke-width="2.000000" stroke-linejoin="round"/>
	<path id="Vector" d="M5.22 14.72L5.22 11.55" stroke="#000000" stroke-opacity="1.000000" stroke-width="2.000000" stroke-linejoin="round" stroke-linecap="round"/>
	<path id="Vector" d="M11.55 4.16L11.55 1" stroke="#000000" stroke-opacity="1.000000" stroke-width="2.000000" stroke-linejoin="round" stroke-linecap="round"/>
	<path id="Vector" d="M17.88 14.72L17.88 11.55" stroke="#000000" stroke-opacity="1.000000" stroke-width="2.000000" stroke-linejoin="round" stroke-linecap="round"/>
</svg>
