<svg width="22.000000" height="22.000000" viewBox="0 0 22 22" fill="none" xmlns="http://www.w3.org/2000/svg" xmlns:xlink="http://www.w3.org/1999/xlink">
	<desc>
			Created with Pixso.
	</desc>
	<defs/>
	<path id="Vector" d="M21 11C21 5.47 16.52 1 11 1C5.47 1 1 5.47 1 11C1 16.52 5.47 21 11 21C16.52 21 21 16.52 21 11Z" stroke="#000000" stroke-opacity="1.000000" stroke-width="2.000000" stroke-linejoin="round"/>
	<path id="Vector" d="M14 7.5C13.31 6.81 12.1 6.33 11 6.3C9.68 6.27 8.5 6.87 8.5 8.5C8.5 11.5 14 10 14 13C14 14.71 12.53 15.44 11 15.39C9.84 15.34 8.64 14.85 8 14M11 6.3L11 4.5M11 15.39L11 17.5" stroke="#000000" stroke-opacity="1.000000" stroke-width="2.000000" stroke-linejoin="round" stroke-linecap="round"/>
</svg>
