<svg width="142" height="21" viewBox="0 0 142 21" fill="none" xmlns="http://www.w3.org/2000/svg">
<path d="M24.9147 0.917236L20.3884 7.06739H45.0575C46.305 7.06739 46.2894 7.53713 45.6797 8.36773C45.0606 9.20766 44.0247 10.6604 43.3932 11.5159C43.0728 11.9483 42.4942 12.7354 44.4104 12.7354H54.4989L57.4885 8.67259C59.3425 6.15591 57.6502 0.920345 51.021 0.920345L24.9147 0.917236Z" fill="#A8A8A8"/>
<path d="M18.5562 20.9545L27.6493 8.59818H38.9323C40.1798 8.59818 40.1642 9.07103 39.5545 9.89852L37.2525 13.0343C36.932 13.4667 36.3534 14.2537 38.2697 14.2537H53.3822C52.1286 15.9771 48.0471 20.9545 40.7304 20.9545H18.5562ZM70.6257 14.2506L65.695 20.9545H52.6885L57.6192 14.2506H70.6257ZM90.5476 12.7325H58.7391L67.4371 0.91748H80.4373L75.4538 7.69292H81.2555L86.2453 0.91748H99.2456L90.5476 12.7325ZM89.4308 14.2506L84.5001 20.9545H71.4999L76.4306 14.2506H89.4308ZM0 16.8948H19.1566L18.1114 18.3165H0V16.8948ZM0 14.2506H21.104L20.0557 15.6723H0V14.2506ZM0 19.5391H17.2124L16.1702 20.9545H0V19.5391ZM141.678 18.3165H122.589L123.638 16.8948H141.678V18.3165ZM141.678 20.9545H120.651L121.69 19.5391H141.678V20.9545ZM125.582 14.2506H141.678V15.6754H124.537L125.582 14.2506ZM117.251 0.91748L108.553 12.7325H94.7753L103.479 0.91748H117.251ZM93.6616 14.2506C93.6616 14.2506 92.7128 15.5509 92.2492 16.1731C90.6192 18.3818 92.0595 20.9514 97.3884 20.9514H118.268L123.199 14.2506H93.6616Z" fill="#A8A8A8"/>
</svg>
