<svg width="47" height="54" viewBox="0 0 47 54" fill="none" xmlns="http://www.w3.org/2000/svg">
<path d="M23.393 53.8715C21.0966 52.8784 10.3596 48.0995 6.884 45.2446C2.84985 41.9552 0.677612 37.1763 0.677612 31.5285V5.1513C7.13226 1.67573 14.5799 0 23.393 0C32.2061 0 39.6537 1.67573 46.1084 5.1513V31.4664C46.1084 37.1142 43.9982 41.8931 39.902 45.1825C36.4264 48.0995 25.6894 52.8784 23.393 53.8715Z" fill="white"/>
<path d="M43.3765 6.20662C40.6457 5.95836 37.8528 5.77217 34.9358 5.77217C24.3229 5.77217 12.9032 8.06853 3.46944 16.6954V31.4666C3.46944 36.3076 5.2693 40.2797 8.62075 43.0726C11.5998 45.4931 20.7853 49.6514 23.392 50.8306C25.9366 49.7134 35.122 45.6172 38.1632 43.0726C41.5767 40.2797 43.3145 36.3697 43.3145 31.4666V6.20662M5.45549 29.9771V17.9367H9.30345V30.1012C9.30345 31.1563 9.55171 32.77 11.2895 32.77C12.0343 32.77 12.6549 32.5838 13.0893 32.2735V17.9367H16.8752V34.5078C15.3857 35.5008 13.4617 36.0594 11.1033 36.0594C7.31741 36.0594 5.45549 34.0112 5.45549 29.9771ZM22.6472 43.8173H18.7992V18.9297C20.1646 18.0608 21.8404 17.5643 23.9505 17.5643C28.5433 17.5643 31.0258 21.0399 31.0258 26.5636C31.0258 32.1493 28.6053 35.9352 24.3229 35.9352C23.5161 35.9352 22.9575 35.8111 22.5851 35.749L22.6472 43.8173ZM22.6472 32.6458C22.8954 32.77 23.392 32.8941 23.8885 32.8941C26.0607 32.8941 27.1158 30.846 27.1158 26.6877C27.1158 22.4053 26.1848 20.6675 23.9505 20.6675C23.454 20.6675 22.8954 20.7916 22.5851 20.9158L22.6472 32.6458ZM31.8947 22.5294C31.8947 19.4262 34.5014 17.6264 37.046 17.5643C39.1562 17.5022 40.5837 18.3091 41.2664 18.8056V22.157C40.4595 21.3502 39.1562 20.6054 37.8528 20.6054C36.7978 20.6054 35.6185 21.102 35.6185 22.4053C35.5565 23.7707 36.7357 24.3293 38.1011 25.1982C41.2664 27.0601 41.887 28.7358 41.8249 30.9701C41.7629 33.3906 40.0871 36.0594 36.3012 36.0594C34.8117 36.0594 33.3222 35.5628 32.0809 34.8801V31.3425C33.0739 32.2114 34.5014 32.8941 35.7427 32.8941C37.1701 32.8941 38.039 32.0873 38.039 30.7839C38.039 29.6047 37.3563 28.922 35.6806 27.929C32.5153 26.0671 31.9568 24.5775 31.8947 22.5294ZM7.37947 44.6242C3.53151 41.4589 1.4834 36.9282 1.4834 31.4666V5.64804C7.56566 2.42072 14.9513 0.744995 23.454 0.744995C31.9568 0.744995 39.3424 2.35866 45.4246 5.64804V31.5287C45.4246 36.9903 43.3765 41.521 39.5286 44.6862C35.9909 47.6032 24.7574 52.5063 23.454 53.0649C22.1507 52.4442 10.9171 47.5412 7.37947 44.6242Z" fill="#ACAEB0"/>
</svg>
