<svg width="68" height="36" viewBox="0 0 68 36" fill="none" xmlns="http://www.w3.org/2000/svg">
<path d="M1.39825 0.576482C0.592094 0.576482 0.108398 0.95269 0.108398 1.65136V34.3277C0.108398 34.9189 0.484606 35.4026 1.18328 35.4026H59.9792C60.4629 35.4026 60.8928 35.4026 61.1615 34.5964C61.1615 34.5964 67.0734 16.0547 67.1809 15.7323C67.3958 15.0336 67.2883 14.6574 66.6972 14.2812C47.6181 2.24255 18.9188 0.468994 5.96649 0.468994C4.08545 0.468994 2.58062 0.576482 1.39825 0.576482Z" fill="#7F7F7F"/>
<path d="M13.5437 21.4837C11.3402 20.5163 9.88907 19.9251 10.2653 18.8502C10.6415 17.5604 12.845 17.0767 14.8335 17.1842C15.8009 17.1842 16.4996 17.2917 17.4132 17.5604L18.1119 15.3031C17.1445 15.0882 16.3383 15.0344 15.156 15.0344C11.1789 14.9269 7.63183 16.0018 6.77192 18.2591C5.69704 20.8925 8.76045 22.5048 11.4476 23.7409C13.6511 24.7083 15.2097 25.7295 14.6185 26.8581C14.2423 27.8255 12.63 28.2554 10.4803 28.2554C8.59922 28.2554 6.23448 27.6643 4.35344 26.8044L3.27856 29.1691C4.67591 29.7603 7.41685 30.6202 9.83533 30.7277C14.2961 30.8352 17.252 29.7603 18.4344 27.2881C19.7242 24.3321 16.3383 22.8273 13.5437 21.4837Z" fill="white"/>
<path d="M19.7254 25.514C19.7254 25.514 19.7254 25.6215 19.8329 25.6215C19.8329 25.6215 19.9403 25.6215 19.9403 25.514C19.9403 25.4065 22.1439 18.7422 22.1439 18.7422C24.3474 21.8594 26.4971 25.9977 27.787 30.4047H31.3341L33.1076 24.8153C33.1076 24.8153 33.1076 24.7078 33.2151 24.7078C33.2151 24.7078 33.3226 24.7078 33.3226 24.8153C33.8063 28.2549 37.3534 30.6197 42.3516 30.6197C45.5225 30.6197 48.4784 29.7598 49.1771 29.4373L51.0581 23.5255H58.2598L58.9585 21.2682H51.6493L52.9391 17.4524H61.5382L62.3443 15.0877H50.1982L46.1674 27.825C45.2538 28.0399 44.1789 28.0937 43.104 28.0937C40.7393 28.0937 38.7507 27.5025 37.6759 26.2127C36.8697 25.2453 36.4935 24.0629 36.7622 22.6656C37.2459 19.4409 40.4168 17.3449 44.6626 17.3449C45.5762 17.3449 46.4361 17.3449 47.3498 17.5599L48.2634 15.0877C47.296 14.8727 46.0062 14.8727 44.8238 14.8727C41.0617 14.8727 37.6759 16.1625 35.6336 18.4198C35.6336 18.5273 35.5261 18.5273 35.4186 18.5273C35.3111 18.5273 35.3111 18.5273 35.3111 18.4198L36.386 15.0877H33.2151L29.668 25.7827C28.5931 22.6656 26.2821 18.4198 23.5412 15.0877H20.1553L17.6831 22.9343C18.9192 23.9017 19.2954 24.6003 19.7254 25.514Z" fill="white"/>
</svg>
