<svg width="146" height="36" viewBox="0 0 146 36" fill="none" xmlns="http://www.w3.org/2000/svg">
<path d="M31.4843 23.283C31.4461 25.9934 30.3526 27.7178 28.1603 28.891L18.5819 34.0745C18.5819 34.0745 17.4919 34.9272 15.719 34.9012C13.979 34.8752 13.6896 34.6065 12.6273 33.9896L3.30535 28.333C1.37996 27.2013 0.26736 25.3453 0.303754 22.8359L0.282959 12.4377C0.282959 9.92832 1.41982 8.22129 3.3608 7.11736L12.7642 1.59595C13.8335 0.992862 13.9773 0.724243 15.7172 0.724243C17.4901 0.724243 18.7171 1.59422 18.7171 1.59422L28.221 6.91459C30.3959 8.11904 31.4652 9.72555 31.4652 12.436L31.4843 23.283ZM2.80104 23.1149C2.80104 25.2049 3.749 25.7907 5.36418 26.7092L13.1974 31.3086C14.0899 31.8112 14.9201 32.3016 15.7172 32.3016C16.5942 32.3016 18.1591 31.3086 18.1591 31.3086L26.0738 26.8773C27.8848 25.8738 28.7773 25.373 28.7773 23.1149V12.4655C28.7773 10.2073 27.8848 9.70649 26.0738 8.70307L18.1591 4.27174C18.1591 4.27174 16.6773 3.27872 15.7172 3.27872C14.8542 3.27872 14.0899 3.76916 13.1974 4.27174L5.36418 8.87118C3.74727 9.79141 2.80104 10.3754 2.80104 12.4655V23.1149ZM24.5886 14.1569L24.592 15.656C24.5886 16.4653 25.0825 17.1342 25.9195 17.1152C26.6977 17.0961 27.221 16.6282 27.2193 15.7426L27.1881 12.4325C27.1777 12.0426 27.0789 11.5938 26.9334 11.339C26.7895 11.0842 26.436 10.8 26.1656 10.6285L23.3408 8.90237C22.5817 8.44659 21.9111 8.65455 21.4969 9.3131C21.0515 10.0202 21.3721 10.7879 22.067 11.2004L23.3512 11.9715L17.0811 15.5294V8.38766L18.3861 9.1242C19.088 9.52452 19.9146 9.42574 20.3098 8.68921C20.6772 8.00293 20.5264 7.31666 19.7569 6.88167L16.8628 5.27516C16.5196 5.09146 16.0119 4.95628 15.719 4.95628C15.4261 4.95628 15.0726 5.12438 14.7883 5.27516L11.8942 6.88167C11.123 7.31666 10.9722 8.00293 11.3414 8.68921C11.7365 9.42574 12.5614 9.52452 13.265 9.1242L14.57 8.38766V15.5312L8.29818 11.9733L9.58235 11.2021C10.2773 10.7896 10.5996 10.0219 10.1525 9.31483C9.73832 8.65628 9.06591 8.44832 8.30858 8.9041L5.48375 10.6302C5.2134 10.8035 4.85987 11.086 4.71603 11.3407C4.57219 11.5955 4.46994 12.0443 4.46301 12.4343L4.43008 15.7443C4.43008 16.6282 4.95172 17.0978 5.72984 17.1169C6.56516 17.136 7.0608 16.467 7.05907 15.6577L7.06254 14.1586L13.3326 17.7252L7.06254 21.2917L7.05907 19.7927C7.0608 18.9834 6.56689 18.3144 5.72984 18.3335C4.95172 18.3508 4.43008 18.8204 4.43008 19.706L4.46301 23.0161C4.47167 23.406 4.57219 23.8549 4.71603 24.1096C4.85987 24.3644 5.2134 24.6486 5.48375 24.8202L8.30858 26.5463C9.06764 27.002 9.73832 26.7941 10.1525 26.1355C10.5996 25.4285 10.2773 24.6607 9.58235 24.2483L8.29818 23.4771L14.57 19.9036V27.2325L13.265 26.496C12.5614 26.0939 11.7348 26.1945 11.3414 26.931C10.9722 27.6173 11.123 28.3035 11.8925 28.7368L14.7866 30.3433C15.0708 30.4941 15.4244 30.6622 15.7172 30.6622C16.0101 30.6622 16.5179 30.5287 16.861 30.3433L19.7552 28.7368C20.5246 28.3018 20.6754 27.6173 20.308 26.931C19.9112 26.1945 19.0862 26.0939 18.3844 26.496L17.0794 27.2325V19.9036L23.3495 23.4771L22.0653 24.2483C21.3704 24.6607 21.0498 25.4285 21.4951 26.1355C21.9093 26.7941 22.5817 27.002 23.3391 26.5463L26.1639 24.8202C26.4342 24.6469 26.7878 24.3644 26.9316 24.1096C27.0772 23.8549 27.1777 23.4043 27.1864 23.0161L27.2176 19.706C27.2193 18.8222 26.6959 18.3525 25.9178 18.3335C25.0825 18.3144 24.5868 18.9834 24.5903 19.7927L24.5868 21.2917L18.315 17.7252L24.5886 14.1569ZM25.5175 34.2963H25.0946V32.3172H25.8329C26.3441 32.3172 26.6457 32.4628 26.6457 32.9151C26.6457 33.2808 26.4325 33.4125 26.1691 33.4315L26.6751 34.2981H26.1743L25.7168 33.4662H25.5192L25.5175 34.2963ZM25.8901 33.13C26.079 33.13 26.1916 33.0901 26.1916 32.8718C26.1916 32.6673 25.9715 32.6534 25.8121 32.6534H25.5157V33.13H25.8901ZM25.8225 35.1472C24.8451 35.1472 23.9751 34.4696 23.9751 33.3085C23.9751 32.1474 24.8451 31.4698 25.8225 31.4698C26.7947 31.4698 27.663 32.1456 27.663 33.3085C27.663 34.4714 26.7947 35.1472 25.8225 35.1472ZM25.8225 31.8996C25.0929 31.8996 24.5037 32.4628 24.5037 33.3085C24.5037 34.1542 25.0929 34.7244 25.8225 34.7192V34.7244C26.5313 34.7244 27.1344 34.1542 27.1344 33.3085C27.1344 32.4628 26.5313 31.8996 25.8225 31.8996Z" fill="#ACAEB0"/>
<path d="M52.0519 18.7281C50.8527 19.3468 49.9446 19.586 48.6708 19.586C45.3278 19.586 43.6624 17.4162 43.6624 15.1962C43.6624 12.9017 45.5427 10.7562 48.8337 10.7562C50.0312 10.7562 51.1057 11.0092 51.9497 11.5136V13.4303C51.0034 12.9 50.0433 12.5464 48.9845 12.5464C47.1561 12.5464 45.8685 13.6313 45.8685 15.1581C45.8685 16.697 47.1423 17.794 48.9359 17.794C50.0572 17.794 50.8145 17.4405 52.0519 16.8478V18.7281ZM55.6601 18.489C55.6596 18.7804 55.5434 19.0597 55.337 19.2654C55.1306 19.4711 54.851 19.5864 54.5596 19.586C54.2682 19.5855 53.9889 19.4693 53.7832 19.2629C53.5774 19.0566 53.4621 18.7769 53.4626 18.4855C53.463 18.1941 53.5792 17.9148 53.7856 17.7091C53.992 17.5034 54.2717 17.388 54.5631 17.3885C54.8545 17.389 55.1337 17.5052 55.3395 17.7115C55.5452 17.9179 55.6605 18.1976 55.6601 18.489ZM66.7739 19.4716H64.6284V15.99H60.3392V19.4716H58.1955V10.8689H60.3392V14.3245H64.6284V10.8689H66.7739V19.4716ZM70.467 18.489C70.467 18.7799 70.3514 19.0589 70.1457 19.2647C69.94 19.4704 69.6609 19.586 69.37 19.586C69.079 19.586 68.8 19.4704 68.5943 19.2647C68.3886 19.0589 68.273 18.7799 68.273 18.489C68.273 18.198 68.3886 17.919 68.5943 17.7133C68.8 17.5075 69.079 17.392 69.37 17.392C69.6609 17.392 69.94 17.5075 70.1457 17.7133C70.3514 17.919 70.467 18.198 70.467 18.489ZM78.2639 10.8706C80.0298 10.8706 81.0765 12.056 81.0765 13.3436C81.0765 14.2899 80.5844 14.9952 79.6 15.4492C80.4839 15.8912 80.7473 16.95 81.9587 19.4733H79.6C78.6798 17.6329 78.3384 15.9778 77.179 15.9778H76.562V19.4733H74.4165V10.8706H78.2639ZM76.562 14.4025H77.6954C78.2898 14.4025 78.8704 14.1495 78.8704 13.4181C78.8704 12.7752 78.4545 12.4459 77.6469 12.4459H76.562V14.4025ZM87.3969 19.586C84.2428 19.586 82.463 17.366 82.463 15.1702C82.463 13.0889 84.1544 10.7562 87.3969 10.7562C90.6376 10.7562 92.3169 13.1027 92.3169 15.1702C92.3169 17.3781 90.4869 19.586 87.3969 19.586ZM87.3969 12.5464C85.7574 12.5464 84.6726 13.5932 84.6726 15.1702C84.6726 16.7473 85.7574 17.7958 87.3969 17.7958C89.0224 17.7958 90.1073 16.749 90.1073 15.1702C90.1073 13.5949 89.0224 12.5464 87.3969 12.5464ZM97.6529 10.8706C99.684 10.8706 100.505 12.0681 100.505 13.0265C100.505 13.7457 100.05 14.3886 99.3305 14.7422C100.556 15.0576 101.161 15.9397 101.161 16.9483C101.161 17.9327 100.63 19.4716 98.1208 19.4716H93.9321V10.8689L97.6529 10.8706ZM96.0741 14.2881H97.1971C97.9787 14.2881 98.2941 13.8081 98.2941 13.354C98.2941 12.9121 97.9787 12.4459 97.1971 12.4459H96.0741V14.2881ZM96.0741 17.8945H97.2855C98.4726 17.8945 98.8885 17.5791 98.8885 16.8357C98.8885 16.2066 98.334 15.8634 97.5749 15.8634H96.0741V17.8945ZM105.02 19.4716H102.876V10.8689H105.02V19.4716ZM115.779 19.4716H113.974L109.219 13.9588V19.4716H107.075V10.8689H109.044L113.635 16.1286V10.8689H115.779V19.4716ZM123.549 13.1027C122.3 12.5482 121.556 12.3333 120.825 12.3333C120.056 12.3333 119.562 12.6106 119.562 13.0403C119.562 14.3384 123.939 13.9727 123.939 16.976C123.939 18.6293 122.551 19.5877 120.634 19.5877C119.134 19.5877 118.388 19.196 117.532 18.7559V16.9015C118.768 17.723 119.524 18.0124 120.47 18.0124C121.291 18.0124 121.733 17.723 121.733 17.2187C121.733 15.8062 117.356 16.321 117.356 13.231C117.356 11.744 118.642 10.7597 120.636 10.7597C121.596 10.7597 122.466 10.9607 123.551 11.4286L123.549 13.1027ZM130.017 19.586C126.865 19.586 125.085 17.366 125.085 15.1702C125.085 13.0889 126.776 10.7562 130.017 10.7562C133.26 10.7562 134.937 13.1027 134.937 15.1702C134.937 17.3781 133.109 19.586 130.017 19.586ZM130.017 12.5464C128.378 12.5464 127.293 13.5932 127.293 15.1702C127.293 16.7473 128.378 17.7958 130.017 17.7958C131.644 17.7958 132.729 16.749 132.729 15.1702C132.731 13.5949 131.646 12.5464 130.017 12.5464ZM145.269 19.4716H143.465L138.712 13.9588V19.4716H136.566V10.8689H138.535L143.126 16.1286V10.8689H145.269V19.4716ZM45.9621 27.1177H45.4872L43.5393 22.7591H44.7091L45.7558 25.1368L46.891 22.7591H47.7817L48.9186 25.1368L49.9584 22.7591H51.1282L49.1872 27.1177H48.7089L47.3312 24.3119L45.9621 27.1177ZM56.7675 27.1177C55.1436 27.1177 54.2268 26.0068 54.2268 24.9115C54.2268 23.87 55.0986 22.7054 56.7675 22.7054C58.4381 22.7054 59.3029 23.8787 59.3029 24.9115C59.3029 26.0137 58.3601 27.1177 56.7675 27.1177ZM56.7675 23.5979C55.9235 23.5979 55.3637 24.1213 55.3637 24.9098C55.3637 25.6966 55.9217 26.22 56.7675 26.22C57.6062 26.22 58.166 25.6966 58.166 24.9098C58.1643 24.1213 57.6062 23.5979 56.7675 23.5979ZM65.2662 22.7591C66.1743 22.7591 66.715 23.3536 66.715 23.9965C66.715 24.4679 66.462 24.8232 65.9559 25.0485C66.41 25.2685 66.5469 25.7989 67.1708 27.0588H65.9559C65.4811 26.1385 65.3061 25.3119 64.7082 25.3119H64.3876V27.0588H63.2836V22.7591H65.2662ZM64.3876 24.5251H64.9733C65.2783 24.5251 65.5781 24.3986 65.5781 24.0329C65.5781 23.7106 65.3632 23.5477 64.9491 23.5477H64.3876V24.5251ZM74.2432 27.0588H70.8656V22.7591H71.9713V26.2702H74.245V27.0588H74.2432ZM79.9934 22.7591C81.612 22.7591 82.4422 23.7366 82.4422 24.915C82.4422 26.1524 81.6363 27.0588 79.8704 27.0588H78.0368V22.7591H79.9934ZM79.1425 26.2702H79.8634C80.9743 26.2702 81.3053 25.5389 81.3053 24.9098C81.3053 24.1715 80.8963 23.5477 79.8496 23.5477H79.1425V26.2702ZM87.9064 27.1177H87.4333L85.4836 22.7591H86.6534L87.7002 25.1368L88.837 22.7591H89.7278L90.8647 25.1368L91.9045 22.7591H93.0743L91.1315 27.1177H90.6584L89.2807 24.3119L87.9064 27.1177ZM97.8921 27.0588H96.7864V22.7591H97.8921V27.0588ZM104.043 22.7591C105.661 22.7591 106.493 23.7366 106.493 24.915C106.493 26.1524 105.687 27.0588 103.919 27.0588H102.088V22.7591H104.043ZM103.193 26.2702H103.914C105.025 26.2702 105.356 25.5389 105.356 24.9098C105.356 24.1715 104.947 23.5477 103.9 23.5477H103.193V26.2702ZM113.767 27.0588H110.498V22.7591H113.72V23.5477H111.602V24.4506H113.623V25.2374H111.602V26.272H113.765L113.767 27.0588ZM115.092 27.9287C115.198 27.8235 115.279 27.6959 115.33 27.5553C115.38 27.4146 115.398 27.2646 115.383 27.1159C115.156 27.0258 115.054 26.8872 115.054 26.655C115.054 26.3638 115.281 26.1559 115.586 26.1559C115.971 26.1559 116.236 26.4522 116.236 26.8751C116.23 27.1865 116.111 27.4851 115.9 27.715C115.69 27.945 115.404 28.0905 115.094 28.1246V27.9287H115.092ZM125.688 27.0588H124.582V22.7591H125.688V27.0588ZM134.379 27.0588H133.452L131.001 24.3033V27.0588H129.897V22.7591H130.911L133.275 25.3899V22.7591H134.379V27.0588ZM142.691 26.6879C142.157 26.9794 141.557 27.1275 140.949 27.1177C139.226 27.1177 138.37 26.0328 138.37 24.9219C138.37 23.7747 139.339 22.7037 141.034 22.7037C141.649 22.7037 142.204 22.8285 142.639 23.0815V24.0416C142.152 23.7764 141.658 23.5996 141.112 23.5996C140.169 23.5996 139.505 24.1403 139.505 24.9046C139.505 25.6723 140.162 26.2217 141.084 26.2217C141.663 26.2217 142.053 26.0449 142.691 25.7503V26.6879ZM145.165 26.5666C145.163 26.7143 145.102 26.855 144.996 26.958C144.891 27.061 144.748 27.1178 144.6 27.1159C144.453 27.1178 144.31 27.061 144.204 26.958C144.099 26.855 144.038 26.7143 144.035 26.5666C144.035 26.265 144.288 26.0189 144.6 26.0189C144.912 26.0189 145.165 26.265 145.165 26.5666Z" fill="#ACAEB0"/>
</svg>
