<svg width="79" height="24" viewBox="0 0 79 24" fill="none" xmlns="http://www.w3.org/2000/svg">
<path d="M71.2933 23.0323L68.1019 19.4532L64.9384 23.0323H58.282L64.7876 15.7232L58.282 8.41202H65.1463L68.37 11.9637L71.4721 8.41202H78.0962L71.6229 15.6925L78.1862 23.0323H71.2933ZM45.5 23.0323V0.000732422H58.282V5.13441H50.9142V8.41202H58.282V13.3519H50.9142V17.8857H58.282V23.0323H45.5Z" fill="#ACAEB0"/>
<path d="M40.1047 0.000732422V9.42648H40.0449C38.8512 8.05449 37.3591 7.57633 35.629 7.57633C32.0838 7.57633 29.413 9.9881 28.4756 13.1742C27.4062 9.66287 24.6487 7.51064 20.5608 7.51064C17.2401 7.51064 14.6188 9.00056 13.2495 11.429V8.41149H6.38686V5.13495H13.8768V0.00181081H0.269409V23.0323H6.38686V13.3519H12.4844C12.2966 14.0963 12.2027 14.8613 12.2049 15.629C12.2049 20.431 15.8745 23.8055 20.5597 23.8055C24.498 23.8055 27.0955 21.9548 28.468 18.5857H23.2251C22.5164 19.5996 21.978 19.899 20.5602 19.899C18.9168 19.899 17.4985 18.4645 17.4985 16.7662H28.174C28.6371 20.5812 31.6094 23.8707 35.6888 23.8707C37.4485 23.8707 39.0596 23.0054 40.0444 21.5435H40.1036V23.0355H45.4974V0.00181081H40.1047V0.000732422ZM17.6687 13.4208C18.0095 11.9572 19.1441 11.0009 20.5602 11.0009C22.1196 11.0009 23.1965 11.9276 23.4792 13.4208H17.6687ZM36.8314 19.5275C34.844 19.5275 33.6087 17.6757 33.6087 15.7415C33.6087 13.6739 34.6835 11.6875 36.8314 11.6875C39.0601 11.6875 39.948 13.6749 39.948 15.7415C39.948 17.7005 39.0079 19.5275 36.8314 19.5275Z" fill="#ACAEB0"/>
</svg>
