<svg width="72" height="21" viewBox="0 0 72 21" fill="none" xmlns="http://www.w3.org/2000/svg">
<path fill-rule="evenodd" clip-rule="evenodd" d="M11.1378 16.0945H8.02995C3.18225 16.0945 6.70412 5.75625 10.7854 5.75625H15.6956C16.4827 5.75625 17.8707 5.90163 18.5546 3.9465L19.6112 0.909424H12.878C9.23163 0.909424 6.39331 2.19898 4.34234 4.36259C0.799527 8.06524 -0.401856 13.848 0.44743 16.6144C1.25543 19.1732 3.45148 20.8579 6.89049 20.8995L9.56309 20.9204H12.8573L13.6653 18.4867C14.266 16.7601 12.9192 16.0945 11.1378 16.0945ZM48.9676 11.8095L49.9829 8.50197H39.1477C37.3453 8.50197 36.5373 9.00122 36.2265 10.0413L35.2112 13.3488H46.0467C47.849 13.3488 48.657 12.8495 48.9676 11.8095ZM33.5955 17.6338L32.5802 20.941H43.4154C45.1971 20.941 46.0257 20.4421 46.3365 19.402L47.3518 16.0945H36.5164C34.735 16.0945 33.927 16.5938 33.5955 17.6338ZM51.4954 4.23756L52.5104 0.930361H41.6752C39.8728 0.930361 39.0648 1.42931 38.754 2.46939L37.7387 5.77689H48.5742C50.3559 5.77689 51.1636 5.27764 51.4954 4.23756ZM35.1283 4.90342C34.6727 1.82477 33.0361 0.930361 29.0583 0.930361H21.8072L17.5809 13.3488H20.2535C21.8485 13.3488 22.6565 13.3694 23.5061 11.0814L25.2669 5.75625H27.9601C30.26 5.75625 29.7419 8.64765 28.5818 11.4556C27.5458 13.9312 25.7434 16.1152 23.568 16.1152H19.0724C17.2701 16.1152 16.4414 16.6144 16.11 17.6545L14.9911 20.962H18.2851L21.5171 20.941C24.376 20.9204 26.7172 20.7125 29.452 18.2369C32.3522 15.5953 35.7087 8.81397 35.1283 4.90342ZM71.5497 0.909424H65.2724L59.3678 7.21212C58.6842 7.94021 57.9797 8.66829 57.2962 9.52112H57.2339L60.1758 0.909424H55.0585L48.1599 20.941H53.2768L55.4728 14.6384L57.7518 12.7039L59.5544 18.4035C60.1135 20.1717 60.6939 20.941 61.9369 20.941H65.8524L61.8333 9.74995L71.5497 0.909424Z" fill="#BABABA"/>
</svg>
