<svg width="63" height="22" viewBox="0 0 63 22" fill="none" xmlns="http://www.w3.org/2000/svg">
<path d="M58.8197 21.1543C59.4899 21.1521 60.1443 20.9514 60.7005 20.5775C61.2566 20.2036 61.6895 19.6732 61.9444 19.0535C62.1994 18.4337 62.2649 17.7523 62.1328 17.0953C62.0007 16.4382 61.6769 15.8351 61.2023 15.362C60.7276 14.8889 60.1234 14.5671 59.466 14.4371C58.8085 14.3072 58.1273 14.375 57.5084 14.632C56.8895 14.8889 56.3606 15.3235 55.9885 15.8809C55.6164 16.4383 55.4178 17.0934 55.4178 17.7636C55.4194 18.6643 55.7787 19.5275 56.4167 20.1633C57.0546 20.7992 57.919 21.1557 58.8197 21.1543Z" fill="#ACAEB0"/>
<path d="M10.3347 10.2306V14.6672H14.0379C13.4968 15.513 12.2768 15.9643 11.4498 15.9643C8.66223 15.9643 7.26841 14.3806 7.26841 11.1844C7.26841 7.65546 9.10787 5.8497 12.7599 5.8497C14.21 5.8497 16.1053 6.21074 18.14 6.85012V1.54389C17.5542 1.29402 16.6631 1.0996 15.5197 0.904508C14.4974 0.72762 13.4624 0.634711 12.4249 0.626709C8.8008 0.626709 5.92976 1.59934 3.78377 3.54393C1.63778 5.48852 0.549683 8.10109 0.549683 11.4084C0.549683 14.4367 1.38599 16.8263 3.0586 18.5773C4.73094 20.3552 6.98891 21.2444 9.83251 21.2446C12.6874 21.2446 15.3106 19.7677 16.1565 17.8925L16.1382 20.9106H20.2681V10.2306H10.3347ZM22.3294 20.9102V0.95996H28.7412V15.7143H35.7379V20.9104L22.3294 20.9102ZM38.0775 20.4103V14.9646C39.1649 15.2974 40.2732 15.5575 41.3951 15.7433C42.4708 15.9478 43.5621 16.0593 44.657 16.0766C46.2178 16.0766 47.0266 15.6872 47.0266 14.9928C47.0266 14.5485 46.7758 14.3256 45.6328 14.0756L43.4025 13.5753C39.5834 12.7137 37.7994 10.7969 37.7994 7.54576C37.7994 5.40608 38.5524 3.71136 40.0297 2.46107C41.5052 1.23762 43.569 0.626709 46.1615 0.626709C47.9454 0.626709 50.6779 0.987753 52.3503 1.40546V6.6016C51.4859 6.37938 50.4551 6.15731 49.2006 5.96221C48.2239 5.79675 47.2363 5.70394 46.2459 5.68455C44.88 5.68455 44.0991 6.07393 44.0991 6.76835C44.0991 7.18458 44.4616 7.46332 45.2142 7.65774L47.8067 8.26866C51.598 9.15804 53.354 11.1026 53.354 14.4094C53.354 16.5214 52.5732 18.1882 51.04 19.4108C49.5068 20.6334 47.3879 21.2444 44.6841 21.2444C42.1194 21.2434 39.527 20.8824 38.0775 20.4103Z" fill="#ACAEB0"/>
</svg>
