<svg width="67" height="29" viewBox="0 0 67 29" fill="none" xmlns="http://www.w3.org/2000/svg">
<path fill-rule="evenodd" clip-rule="evenodd" d="M43.6847 23.3748C42.4547 23.7181 40.8531 23.8613 39.4799 23.8613C35.9036 23.8613 33.5572 22.0015 33.5572 18.5982C33.5572 15.3652 35.7603 13.277 38.9636 13.277C39.6799 13.277 40.4517 13.3621 40.9099 13.5906V8.90051H43.6847V23.3748ZM40.9099 15.995C40.4801 15.7937 39.88 15.6801 39.1933 15.6801C37.5052 15.6801 36.3901 16.71 36.3901 18.5117C36.3901 20.4283 37.5917 21.5163 39.5664 21.5163C39.9083 21.5163 40.4517 21.5163 40.9099 21.4014V15.995ZM66.4861 23.3748C65.2562 23.7181 63.6532 23.8613 62.2516 23.8613C58.705 23.8613 56.3302 22.0015 56.3302 18.5982C56.3302 15.3652 58.5333 13.277 61.7366 13.277C62.48 13.277 63.2234 13.3621 63.6829 13.5906V8.90051H66.4861V23.3748ZM63.6829 15.995C63.2531 15.7937 62.6814 15.6801 61.9934 15.6801C60.2769 15.6801 59.1618 16.71 59.1618 18.5117C59.1618 20.4283 60.3918 21.5163 62.3651 21.5163C62.7098 21.5163 63.2247 21.5163 63.6829 21.4014V15.995ZM48.0625 15.995C48.5194 15.7937 49.1776 15.7369 49.7209 15.7369C51.4375 15.7369 52.6106 16.71 52.6106 18.4536C52.6106 20.5148 51.2942 21.4582 49.5493 21.4866V23.8613H49.6925C53.2973 23.8613 55.4436 21.888 55.4436 18.3684C55.4436 15.1652 53.154 13.277 49.779 13.277C48.0625 13.277 46.373 13.6771 45.258 14.1352V27.7228H48.0625V15.995Z" fill="#7F7F7F"/>
<path fill-rule="evenodd" clip-rule="evenodd" d="M23.3139 6.66699L23.7707 7.18195L24.0289 7.03868L23.3139 6.66699Z" fill="#7F7F7F"/>
<path fill-rule="evenodd" clip-rule="evenodd" d="M22.628 6.29529L23.5146 7.3252L23.8296 7.15355L23.4863 6.75348L22.628 6.29529Z" fill="#7F7F7F"/>
<path fill-rule="evenodd" clip-rule="evenodd" d="M21.911 5.92346L23.2558 7.46834L23.5708 7.29668L22.799 6.3803L21.911 5.92346Z" fill="#7F7F7F"/>
<path fill-rule="evenodd" clip-rule="evenodd" d="M21.224 5.55237L22.9986 7.61085L23.3135 7.4392L22.0836 6.00786L21.224 5.55237ZM24.63 9.18546L24.4286 9.29899L24.6286 9.52876L24.63 9.18546Z" fill="#7F7F7F"/>
<path fill-rule="evenodd" clip-rule="evenodd" d="M20.5404 5.17859L22.7435 7.75338L23.0571 7.58173L21.3973 5.63678L20.5404 5.17859ZM24.5168 9.24149L24.2019 9.44152L24.6303 9.95648V9.41314L24.5168 9.24149Z" fill="#7F7F7F"/>
<path fill-rule="evenodd" clip-rule="evenodd" d="M19.8246 4.80762L22.4858 7.89737L22.8292 7.72571L20.7112 5.26581L19.8246 4.80762ZM24.2591 9.38548L23.9442 9.58551L24.6308 10.387V9.84367L24.2591 9.38548Z" fill="#7F7F7F"/>
<path fill-rule="evenodd" clip-rule="evenodd" d="M19.1375 4.43591L22.2556 8.04062L22.5706 7.86897L19.9958 4.8941L19.1375 4.43591ZM24.0019 9.55711L23.687 9.72877L24.6304 10.8438V10.3005L24.0019 9.55711Z" fill="#7F7F7F"/>
<path fill-rule="evenodd" clip-rule="evenodd" d="M18.4482 4.06384L21.9961 8.18351L22.311 8.01186L19.3064 4.52203L18.4482 4.06384ZM23.741 9.7L23.4261 9.87165L24.629 11.2733V10.7299L23.741 9.7Z" fill="#7F7F7F"/>
<path fill-rule="evenodd" clip-rule="evenodd" d="M17.7346 3.69092L21.7394 8.32689L22.0544 8.15524L18.6213 4.14911L17.7346 3.69092ZM23.4857 9.84338L23.1708 10.015L24.6305 11.7018V11.1585L23.4857 9.84338Z" fill="#7F7F7F"/>
<path fill-rule="evenodd" clip-rule="evenodd" d="M17.0488 3.32117L21.482 8.49778L21.7983 8.2991L17.907 3.77801L17.0488 3.32117ZM23.2283 9.98589L22.9133 10.1575L24.6299 12.1606V11.6173L23.2283 9.98589Z" fill="#7F7F7F"/>
<path fill-rule="evenodd" clip-rule="evenodd" d="M16.3341 2.94714L21.2269 8.64142L21.5404 8.44003L17.2207 3.40669L16.3341 2.94714ZM23.0002 10.1282L22.6568 10.2998L24.6302 12.5894V12.0434L23.0002 10.1282Z" fill="#7F7F7F"/>
<path fill-rule="evenodd" clip-rule="evenodd" d="M15.6459 2.57593L20.9671 8.78381L21.3104 8.58377L16.5325 3.03412L15.6459 2.57593ZM22.7418 10.2719L22.4255 10.4436L24.6286 13.0467V12.4764L22.7418 10.2719Z" fill="#7F7F7F"/>
<path fill-rule="evenodd" clip-rule="evenodd" d="M14.96 2.20447L20.7394 8.92731L21.053 8.72727L15.8183 2.66266L14.96 2.20447ZM22.4844 10.4154L22.1694 10.5871L24.6293 13.4768V12.9334L22.4844 10.4154Z" fill="#7F7F7F"/>
<path fill-rule="evenodd" clip-rule="evenodd" d="M14.2442 1.80444L20.4804 9.07062L20.7954 8.87059L15.1308 2.29102L14.2442 1.80444ZM22.2253 10.5587L21.9104 10.7304L24.6285 13.9066V13.3619L22.2253 10.5587Z" fill="#7F7F7F"/>
<path fill-rule="evenodd" clip-rule="evenodd" d="M13.5583 1.43274L20.2244 9.21388L20.5379 9.04223L14.4449 1.91931L13.5583 1.43274ZM21.9693 10.702L21.6543 10.8736L24.6292 14.3635V13.7917L21.9693 10.702Z" fill="#7F7F7F"/>
<path fill-rule="evenodd" clip-rule="evenodd" d="M12.8724 1.08948L19.9683 9.35719L20.2819 9.18554L13.7307 1.54632L12.8724 1.08948ZM21.7118 10.844L21.3969 11.0156L24.6299 14.792V14.2486L21.7118 10.844Z" fill="#7F7F7F"/>
<path fill-rule="evenodd" clip-rule="evenodd" d="M12.4136 0.974046L19.7095 9.49992L20.0231 9.32827L13.0434 1.17408L12.8718 1.08893C12.7332 1.00756 12.5742 0.967688 12.4136 0.974046ZM21.4544 10.9867L21.1395 11.1583L24.6293 15.2212V14.6779L21.4544 10.9867Z" fill="#7F7F7F"/>
<path fill-rule="evenodd" clip-rule="evenodd" d="M12.4122 0.974854C12.2974 0.974854 12.1825 1.00324 12.0689 1.03162L19.45 9.64264L19.7933 9.47099L12.4987 0.974854L12.4122 0.974854ZM21.2247 11.1307L20.9097 11.3024L24.628 15.6802V15.1071L21.2247 11.1307Z" fill="#7F7F7F"/>
<path fill-rule="evenodd" clip-rule="evenodd" d="M12.1564 1.00305C12.0982 1.03144 12.0131 1.05982 11.9847 1.08955L11.813 1.1747L19.2225 9.78573L19.5374 9.61407L12.1564 1.0044V1.00305ZM20.9674 11.2738L20.6525 11.4739L24.6289 16.1098V15.5652L20.9674 11.2738Z" fill="#7F7F7F"/>
<path fill-rule="evenodd" clip-rule="evenodd" d="M11.8709 1.1178L11.556 1.28945L18.9655 9.92885L19.2804 9.7572L11.8709 1.1178ZM20.7104 11.417L20.3968 11.617L24.63 16.5368V15.9935L20.7104 11.417Z" fill="#7F7F7F"/>
<path fill-rule="evenodd" clip-rule="evenodd" d="M11.6125 1.26123L11.2989 1.43288L18.7084 10.0723L19.0233 9.90063L11.6125 1.26123ZM20.4519 11.5604L20.1384 11.7604L24.6297 16.9952V16.4518L20.4519 11.5604Z" fill="#7F7F7F"/>
<path fill-rule="evenodd" clip-rule="evenodd" d="M11.3556 1.40283L11.0407 1.57448L18.4502 10.2152L18.7651 10.0436L11.3556 1.40283ZM20.1951 11.702L19.8815 11.9034L24.6297 17.4247V16.8813L20.1951 11.702Z" fill="#7F7F7F"/>
<path fill-rule="evenodd" clip-rule="evenodd" d="M11.0984 1.54602L10.7848 1.71767L18.1943 10.3584L18.5092 10.1868L11.0984 1.54602ZM19.9378 11.8452L19.6243 12.0452L24.6306 17.853V17.3097L19.9378 11.8452Z" fill="#7F7F7F"/>
<path fill-rule="evenodd" clip-rule="evenodd" d="M10.8394 1.69067L10.5231 1.85962L17.9326 10.499L18.2475 10.3274L10.8394 1.69067ZM19.7086 11.9898L19.3937 12.1885L24.6284 18.3113V17.7679L19.7086 11.9898Z" fill="#7F7F7F"/>
<path fill-rule="evenodd" clip-rule="evenodd" d="M10.5808 1.80444L10.2672 2.00448L17.7051 10.6439L18.02 10.4722L10.5808 1.80444ZM19.45 12.1604L19.1351 12.332L24.628 18.7399V18.1966L19.45 12.1604Z" fill="#7F7F7F"/>
<path fill-rule="evenodd" clip-rule="evenodd" d="M10.3251 1.94751L10.0102 2.11916L17.448 10.787L17.7629 10.6153L10.3251 1.94751ZM19.1943 12.3034L18.8793 12.4751L24.629 19.1979V18.6262L19.1943 12.3034Z" fill="#7F7F7F"/>
<path fill-rule="evenodd" clip-rule="evenodd" d="M10.0667 2.08948L9.75311 2.26113L17.1909 10.9587L17.5059 10.7586L10.0667 2.08948ZM18.9359 12.4468L18.6209 12.6184L24.6288 19.6278V19.0831L18.9359 12.4468Z" fill="#7F7F7F"/>
<path fill-rule="evenodd" clip-rule="evenodd" d="M9.80983 2.23242L9.4949 2.40407L16.9327 11.1016L17.2477 10.9016L9.80983 2.23242ZM18.679 12.5897L18.3641 12.7614L24.6287 20.0559V19.5126L18.679 12.5897Z" fill="#7F7F7F"/>
<path fill-rule="evenodd" clip-rule="evenodd" d="M9.55371 2.37622L9.24014 2.54787L16.678 11.2467L16.9929 11.0467L9.55371 2.37622ZM18.4229 12.7335L18.108 12.9052L24.6308 20.5146V19.9429L18.4229 12.7335Z" fill="#7F7F7F"/>
<path fill-rule="evenodd" clip-rule="evenodd" d="M9.29434 2.51917L8.98077 2.69082L16.4186 11.3883L16.7335 11.187L9.29434 2.51917ZM18.1933 12.8751L17.8783 13.0468L24.6296 20.9428V20.3994L18.1933 12.8751Z" fill="#7F7F7F"/>
<path fill-rule="evenodd" clip-rule="evenodd" d="M9.0359 2.63416L8.6926 2.80581L16.1885 11.5304L16.5035 11.3303L9.0359 2.63416ZM17.9335 13.0185L17.6185 13.1901L24.6279 21.3727V20.8293L17.9335 13.0185Z" fill="#7F7F7F"/>
<path fill-rule="evenodd" clip-rule="evenodd" d="M8.77998 2.77625L8.43668 2.9479L15.961 11.7022C15.9834 11.6516 16.0239 11.6111 16.0745 11.5887L16.2462 11.4738L8.77998 2.77625ZM17.6775 13.1619L17.3626 13.3336L24.572 21.7445C24.6044 21.6625 24.6236 21.5758 24.6288 21.4877V21.258L17.6775 13.1619Z" fill="#7F7F7F"/>
<path fill-rule="evenodd" clip-rule="evenodd" d="M8.52312 2.9209L8.17847 3.0912L15.8758 12.0455V11.932C15.8758 11.8455 15.9339 11.732 15.9907 11.6455L8.52312 2.9209ZM17.4193 13.3052L17.1896 13.4485C17.1625 13.4485 17.1341 13.4755 17.1044 13.4755L24.4287 22.0311C24.5083 21.9293 24.5667 21.8126 24.6004 21.6878L17.4193 13.3052Z" fill="#7F7F7F"/>
<path fill-rule="evenodd" clip-rule="evenodd" d="M8.26472 3.06274L7.92142 3.2344L15.8742 12.5036V11.9319L8.26472 3.06274ZM16.6176 13.3335L24.2271 22.2311C24.3136 22.173 24.4001 22.0594 24.4852 21.9743L17.1623 13.4484C17.0992 13.4768 17.0308 13.4915 16.9616 13.4915C16.8924 13.4915 16.824 13.4768 16.7609 13.4484L16.6176 13.3335Z" fill="#7F7F7F"/>
<path fill-rule="evenodd" clip-rule="evenodd" d="M8.00651 3.20569L7.66321 3.37734L23.9716 22.374L24.2013 22.2591L24.2865 22.1726L16.7919 13.4481H16.7622L16.1053 13.0467C16.0472 13.0196 16.0188 12.9615 15.962 12.9034C15.9039 12.8182 15.9039 12.7615 15.8755 12.7034V12.3884L8.00651 3.20569Z" fill="#7F7F7F"/>
<path fill-rule="evenodd" clip-rule="evenodd" d="M7.75175 3.34888L7.40845 3.52053L23.7155 22.5159L24.0304 22.3442L7.75175 3.34888Z" fill="#7F7F7F"/>
<path fill-rule="evenodd" clip-rule="evenodd" d="M7.49238 3.46301L7.14908 3.63467L23.4858 22.6597L23.7994 22.4881L7.49238 3.46301Z" fill="#7F7F7F"/>
<path fill-rule="evenodd" clip-rule="evenodd" d="M7.23417 3.60596L6.89087 3.77761L23.2263 22.8027L23.5412 22.631L7.23417 3.60596Z" fill="#7F7F7F"/>
<path fill-rule="evenodd" clip-rule="evenodd" d="M6.97712 3.74951L6.63382 3.92116L22.9719 22.9462L23.2855 22.7746L6.97712 3.74951Z" fill="#7F7F7F"/>
<path fill-rule="evenodd" clip-rule="evenodd" d="M6.69166 3.89233L6.37674 4.06399L22.7121 23.1174L23.0271 22.9174L6.69166 3.89233Z" fill="#7F7F7F"/>
<path fill-rule="evenodd" clip-rule="evenodd" d="M6.43461 4.03564L6.11969 4.2073L22.4564 23.2608L22.77 23.0607L6.43461 4.03564Z" fill="#7F7F7F"/>
<path fill-rule="evenodd" clip-rule="evenodd" d="M6.17756 4.17773L5.86264 4.35074L22.2264 23.4042L22.5413 23.2028L6.17756 4.17773Z" fill="#7F7F7F"/>
<path fill-rule="evenodd" clip-rule="evenodd" d="M5.91932 4.29236L5.6044 4.46401L21.9695 23.5459L22.2845 23.3458L5.91932 4.29236Z" fill="#7F7F7F"/>
<path fill-rule="evenodd" clip-rule="evenodd" d="M5.66227 4.43591L5.34735 4.60757L21.7111 23.6894L22.0261 23.5178L5.66227 4.43591Z" fill="#7F7F7F"/>
<path fill-rule="evenodd" clip-rule="evenodd" d="M5.40406 4.57861L5.08914 4.75027L13.0433 14.0195L13.3001 14.1912C13.415 14.2479 13.5299 14.3912 13.5299 14.5345V14.5629L21.4543 23.8321L21.7692 23.6605L5.40406 4.57861Z" fill="#7F7F7F"/>
<path fill-rule="evenodd" clip-rule="evenodd" d="M5.14814 4.72241L4.83322 4.89406L12.2994 13.62L13.2442 14.1336L5.14814 4.72241ZM13.501 14.4485C13.501 14.4782 13.5307 14.5066 13.5307 14.535V15.0216L21.197 23.9759L21.5119 23.8043L13.501 14.4485Z" fill="#7F7F7F"/>
<path fill-rule="evenodd" clip-rule="evenodd" d="M4.88881 4.8656L4.57388 5.03725L11.5549 13.1901L12.4996 13.705L4.88881 4.8656ZM13.5296 14.908V15.45L20.9674 24.1191L21.2823 23.9474L13.5296 14.908Z" fill="#7F7F7F"/>
<path fill-rule="evenodd" clip-rule="evenodd" d="M4.63269 5.00793L4.31912 5.17959L10.8419 12.762L11.757 13.2757L4.63269 5.00793ZM13.5316 15.3368V15.9086L20.7113 24.2614L21.0262 24.0911L13.5316 15.3368Z" fill="#7F7F7F"/>
<path fill-rule="evenodd" clip-rule="evenodd" d="M4.37468 5.12378L4.05975 5.29408L10.0973 12.3318L11.0124 12.8752L4.37468 5.12378ZM13.5304 15.7933V16.3366L20.4533 24.4057L20.7682 24.2327L13.5304 15.7933Z" fill="#7F7F7F"/>
<path fill-rule="evenodd" clip-rule="evenodd" d="M4.11763 5.26611L3.8027 5.43777L9.35236 11.9038L10.2687 12.4471L4.11763 5.26611ZM13.5301 16.2235V16.7668L20.1949 24.548L20.5098 24.3763L13.5301 16.2235Z" fill="#7F7F7F"/>
<path fill-rule="evenodd" clip-rule="evenodd" d="M3.86074 5.40771L3.54446 5.58072L8.6089 11.5021L9.52393 12.017L3.86074 5.40771ZM13.5301 16.653V17.2247L19.9366 24.7193L20.2529 24.5193L13.5301 16.653Z" fill="#7F7F7F"/>
<path fill-rule="evenodd" clip-rule="evenodd" d="M3.60234 5.55237L3.28741 5.72402L7.86527 11.0736L8.7803 11.5872L3.60234 5.55237ZM13.5298 17.1085V17.6532L19.7093 24.8626L20.0229 24.6626L13.5298 17.1085Z" fill="#7F7F7F"/>
<path fill-rule="evenodd" clip-rule="evenodd" d="M3.34413 5.69434L3.02921 5.86599L7.12049 10.6439L8.06525 11.1588L3.34413 5.69434ZM13.5298 17.5384V18.0831L19.4511 25.0059L19.766 24.8059L13.5298 17.5384Z" fill="#7F7F7F"/>
<path fill-rule="evenodd" clip-rule="evenodd" d="M3.09062 5.83777L2.7757 6.00942L6.3804 10.2156L7.32382 10.7589L3.09062 5.83777ZM10.5852 15.107L11.3286 15.9653V15.6504C11.3286 15.5936 11.2718 15.5084 11.2151 15.4787L10.5852 15.107ZM13.5317 17.9683V18.5401L19.1976 25.1494L19.5112 24.9493L13.5317 17.9683Z" fill="#7F7F7F"/>
<path fill-rule="evenodd" clip-rule="evenodd" d="M2.83042 5.95325L2.5155 6.1249L5.63499 9.78773L6.5784 10.3297L2.83042 5.95325ZM9.8398 14.6792L11.3266 16.3957V15.8523L10.7846 15.2225L9.8398 14.6792ZM13.5297 18.4271V18.9705L18.9374 25.2932L19.2523 25.1216L13.5297 18.4271Z" fill="#7F7F7F"/>
<path fill-rule="evenodd" clip-rule="evenodd" d="M2.57222 6.0968L2.25729 6.26845L4.91724 9.38659L5.83362 9.90019L2.57222 6.0968ZM9.09502 14.278L11.3252 16.8528V16.3095L10.0384 14.793L9.09502 14.278ZM13.5283 18.8559V19.3992L18.6778 25.4354L18.9928 25.2638L13.5283 18.8559Z" fill="#7F7F7F"/>
<path fill-rule="evenodd" clip-rule="evenodd" d="M2.31285 6.23999L1.99792 6.41164L4.174 8.9567L5.08767 9.47166L2.31285 6.23999ZM8.37881 13.8495L11.3253 17.2825V16.7392L9.29249 14.3644L8.37881 13.8495ZM13.5284 19.314V19.8573L18.4482 25.5786L18.7631 25.407L13.5284 19.314Z" fill="#7F7F7F"/>
<path fill-rule="evenodd" clip-rule="evenodd" d="M2.05812 6.38147L1.74319 6.55312L3.43134 8.5278L4.34637 9.04141L2.05812 6.38147ZM7.63615 13.4192L11.326 17.7106V17.1672L8.55389 13.9639L7.63615 13.4192ZM13.5291 19.742V20.2853L18.1921 25.7215L18.5084 25.5498L13.5291 19.742Z" fill="#7F7F7F"/>
<path fill-rule="evenodd" clip-rule="evenodd" d="M1.79875 6.52502L1.48383 6.69668L2.68675 8.09828L3.60178 8.64298L1.79875 6.52502ZM6.89156 12.9911L11.3248 18.169V17.6257L7.80659 13.5344L6.89156 12.9911ZM13.5279 20.1721V20.7154L17.9341 25.865L18.249 25.6934L13.5279 20.1721Z" fill="#7F7F7F"/>
<path fill-rule="evenodd" clip-rule="evenodd" d="M1.54283 6.66846L1.22791 6.84011L1.94425 7.66999L2.88767 8.21333L1.54283 6.66846ZM6.14907 12.5912L11.3257 18.599V18.0543L7.0641 13.1061L6.14907 12.5912ZM13.5288 20.6291V21.1738L17.6782 26.0085L17.9931 25.8368L13.5288 20.6291Z" fill="#7F7F7F"/>
<path fill-rule="evenodd" clip-rule="evenodd" d="M1.28535 6.78345L0.942047 6.9551L1.19885 7.27002L2.14497 7.78363L1.28535 6.78345ZM5.40502 12.1628L11.3277 19.0559V18.4842L6.34843 12.6764L5.40502 12.1628ZM13.5308 21.059V21.6023L17.4207 26.1802L17.7356 25.9802L13.5308 21.059Z" fill="#7F7F7F"/>
<path fill-rule="evenodd" clip-rule="evenodd" d="M1.02795 6.92639L0.827911 7.03993L1.39964 7.35485L1.02795 6.92639ZM4.66104 11.7327L11.3271 19.4854V18.9421L5.60445 12.2747L4.66104 11.7327ZM13.5302 21.4871V22.0602L17.1917 26.3232L17.5066 26.1218L13.5302 21.4871Z" fill="#7F7F7F"/>
<path fill-rule="evenodd" clip-rule="evenodd" d="M3.94604 11.3031L11.3258 19.9141V19.3708L4.86108 11.8464L3.94604 11.3031ZM13.5289 21.9456V22.4889L16.9349 26.4653L17.2485 26.2653L13.5289 21.9456Z" fill="#7F7F7F"/>
<path fill-rule="evenodd" clip-rule="evenodd" d="M3.20255 10.9028L11.3283 20.3721V19.8004L4.11893 11.4178L3.20255 10.9028ZM13.5314 22.3752V22.9185L16.678 26.6084L16.9929 26.4083L13.5314 22.3752Z" fill="#7F7F7F"/>
<path fill-rule="evenodd" clip-rule="evenodd" d="M2.45905 10.4731L11.3282 20.8007V20.2574L3.37408 10.9881L2.45905 10.4731ZM13.5313 22.8038V23.3755L16.4183 26.7518L16.7333 26.5801L13.5313 22.8038Z" fill="#7F7F7F"/>
<path fill-rule="evenodd" clip-rule="evenodd" d="M1.71518 10.0443L11.3277 21.2301V20.6868L2.63021 10.5877L1.71518 10.0443ZM13.5308 23.2616V23.8049L16.1624 26.8947L16.4773 26.723L13.5308 23.2616Z" fill="#7F7F7F"/>
<path fill-rule="evenodd" clip-rule="evenodd" d="M0.97052 9.61438L11.3278 21.6882V21.1435L1.8869 10.1577L0.97052 9.61438ZM13.5309 23.6899V24.2332L15.934 27.0378L16.2476 26.8662L13.5309 23.6899Z" fill="#7F7F7F"/>
<path fill-rule="evenodd" clip-rule="evenodd" d="M0.227212 9.21436L11.3279 22.1167V21.5734L1.17198 9.72931L0.225861 9.21436H0.227212ZM13.531 24.1198V24.6915L15.676 27.1811L15.9909 27.0095L13.531 24.1198Z" fill="#7F7F7F"/>
<path fill-rule="evenodd" clip-rule="evenodd" d="M0.199341 9.18616V9.58623L11.3284 22.5467V22.002L0.427761 9.30104L0.199341 9.18616ZM13.5315 24.5768V24.9201C13.5302 24.9733 13.5095 25.0243 13.4734 25.0634L15.4197 27.3232L15.7332 27.1516L13.5301 24.5768H13.5315Z" fill="#7F7F7F"/>
<path fill-rule="evenodd" clip-rule="evenodd" d="M0.199341 9.47144V10.0445L11.3284 23.0036V22.4603L0.199341 9.47144ZM13.5018 25.0067C13.4747 25.1216 13.3882 25.2365 13.3017 25.2635L13.2747 25.2932L15.1615 27.4666L15.4764 27.2949L13.5031 25.0067H13.5018Z" fill="#7F7F7F"/>
<path fill-rule="evenodd" clip-rule="evenodd" d="M0.199341 9.92993V10.4733L11.3284 23.4337V22.8904L0.199341 9.92993ZM13.3301 25.2368C13.3301 25.2651 13.3301 25.2651 13.3031 25.2651L13.0165 25.4368L14.9047 27.6115L15.2183 27.4399L13.3301 25.2368Z" fill="#7F7F7F"/>
<path fill-rule="evenodd" clip-rule="evenodd" d="M0.199341 10.3594V10.9027L11.3284 23.8618V23.3185L0.199341 10.3594ZM13.1017 25.3783L12.7584 25.5784L14.6749 27.7815L14.9899 27.5814L13.1017 25.3783Z" fill="#7F7F7F"/>
<path fill-rule="evenodd" clip-rule="evenodd" d="M0.199341 10.8158V11.3591L11.3284 24.3196V23.7763L0.199341 10.8158ZM12.8449 25.5212L12.6435 25.6361C12.5867 25.6631 12.53 25.6631 12.4718 25.6631L14.4181 27.9243L14.7331 27.7243L12.8449 25.5212Z" fill="#7F7F7F"/>
<path fill-rule="evenodd" clip-rule="evenodd" d="M0.199341 11.2455V11.7875L11.3284 24.7466V24.2032L0.199341 11.2455ZM11.9582 25.5197L14.1613 28.0661L14.4749 27.8661L12.5583 25.663C12.53 25.663 12.4718 25.69 12.4435 25.69H12.4164C12.3299 25.69 12.2718 25.663 12.2137 25.6346L11.9582 25.5197Z" fill="#7F7F7F"/>
<path fill-rule="evenodd" clip-rule="evenodd" d="M0.199341 11.6737V12.2468L13.9032 28.2091L14.2181 28.0091L12.1583 25.606L11.5284 25.2627C11.4679 25.228 11.4175 25.1781 11.3824 25.1178C11.3473 25.0575 11.3287 24.9891 11.3284 24.9193V24.6342L0.199341 11.6737Z" fill="#7F7F7F"/>
<path fill-rule="evenodd" clip-rule="evenodd" d="M0.199341 12.1326V12.6759L13.645 28.3544L13.9599 28.1814L0.199341 12.1326Z" fill="#7F7F7F"/>
<path fill-rule="evenodd" clip-rule="evenodd" d="M0.199341 12.5608V13.1055L13.3882 28.4961L13.7031 28.3245L0.199341 12.5608Z" fill="#7F7F7F"/>
<path fill-rule="evenodd" clip-rule="evenodd" d="M0.199341 12.991V13.5627L13.1584 28.6398L13.4734 28.4681L0.199341 12.991Z" fill="#7F7F7F"/>
<path fill-rule="evenodd" clip-rule="evenodd" d="M0.199341 13.4486V13.9919L12.9016 28.7825L13.2166 28.6108L0.199341 13.4486Z" fill="#7F7F7F"/>
<path fill-rule="evenodd" clip-rule="evenodd" d="M0.199341 13.8768V14.4202L12.6151 28.8958C12.7016 28.8687 12.7868 28.839 12.8719 28.8106L12.9584 28.7539L0.199341 13.8768Z" fill="#7F7F7F"/>
<path fill-rule="evenodd" clip-rule="evenodd" d="M0.199341 14.3075V14.8792L12.2434 28.898H12.4151C12.5016 28.898 12.5867 28.898 12.6719 28.8682L0.199341 14.3075Z" fill="#7F7F7F"/>
<path fill-rule="evenodd" clip-rule="evenodd" d="M0.199341 14.7637V15.307L11.5852 28.5824L11.9866 28.8108C12.0718 28.8676 12.215 28.8973 12.3299 28.8973L0.199341 14.7637Z" fill="#7F7F7F"/>
<path fill-rule="evenodd" clip-rule="evenodd" d="M0.199341 15.1938V15.7372L10.8418 28.153L11.7852 28.6963L0.199341 15.1938Z" fill="#7F7F7F"/>
<path fill-rule="evenodd" clip-rule="evenodd" d="M0.199341 15.6506V16.1953L10.0984 27.7244L11.0418 28.2678L0.199341 15.6506Z" fill="#7F7F7F"/>
<path fill-rule="evenodd" clip-rule="evenodd" d="M0.199341 16.0803V16.6237L9.3537 27.2945L10.2701 27.8379L0.199341 16.0803Z" fill="#7F7F7F"/>
<path fill-rule="evenodd" clip-rule="evenodd" d="M0.199341 16.5089V17.0536L8.61033 26.8662L9.52536 27.4095L0.199341 16.5089Z" fill="#7F7F7F"/>
<path fill-rule="evenodd" clip-rule="evenodd" d="M0.199341 16.967V17.5104L7.83721 26.4079L8.78198 26.9513L0.199341 16.967Z" fill="#7F7F7F"/>
<path fill-rule="evenodd" clip-rule="evenodd" d="M0.199341 17.3965V17.9398L7.09383 25.9791L8.0386 26.5225L0.199341 17.3965Z" fill="#7F7F7F"/>
<path fill-rule="evenodd" clip-rule="evenodd" d="M0.199341 17.8253V18.3687L6.3491 25.5497L7.29522 26.093L0.199341 17.8253Z" fill="#7F7F7F"/>
<path fill-rule="evenodd" clip-rule="evenodd" d="M0.199341 18.2834V18.8268L5.60573 25.1212L6.55049 25.6645L0.199341 18.2834Z" fill="#7F7F7F"/>
<path fill-rule="evenodd" clip-rule="evenodd" d="M0.199341 18.7123V19.2556L4.86235 24.6917L5.80712 25.2351L0.199341 18.7123Z" fill="#7F7F7F"/>
<path fill-rule="evenodd" clip-rule="evenodd" d="M0.199341 19.1406V19.7137L4.11897 24.2632L5.034 24.8065L0.199341 19.1406Z" fill="#7F7F7F"/>
<path fill-rule="evenodd" clip-rule="evenodd" d="M0.199341 19.6002V20.1436L3.34586 23.8334L4.29062 24.3768L0.199341 19.6002Z" fill="#7F7F7F"/>
<path fill-rule="evenodd" clip-rule="evenodd" d="M0.199341 20.0282V20.5715L2.60248 23.4045L3.54589 23.9181L0.199341 20.0282Z" fill="#7F7F7F"/>
<path fill-rule="evenodd" clip-rule="evenodd" d="M0.199341 20.4567V21.0297L1.8591 22.9463L2.80252 23.4896L0.199341 20.4567Z" fill="#7F7F7F"/>
<path fill-rule="evenodd" clip-rule="evenodd" d="M0.199341 20.9149V21.4583L1.11437 22.5166L2.05914 23.0613L0.199341 20.9149Z" fill="#7F7F7F"/>
<path fill-rule="evenodd" clip-rule="evenodd" d="M0.199341 21.3431V21.4864C0.199341 21.7729 0.399377 22.1163 0.627797 22.2595L1.31441 22.6312L0.199341 21.3445V21.3431Z" fill="#7F7F7F"/>
<path fill-rule="evenodd" clip-rule="evenodd" d="M0.371094 22.0017C0.428071 22.06 0.45656 22.117 0.514894 22.1455L0.371094 22.0017Z" fill="#7F7F7F"/>
</svg>
