<svg width="18.395508" height="18.395508" viewBox="0 0 18.3955 18.3955" fill="none" xmlns="http://www.w3.org/2000/svg" xmlns:xlink="http://www.w3.org/1999/xlink">
	<desc>
			Created with Pixso.
	</desc>
	<defs/>
	<path id="Vector" d="M17.39 9.19C17.39 4.67 13.72 1 9.19 1C4.66 1 1 4.67 1 9.19C1 13.72 4.66 17.39 9.19 17.39C13.72 17.39 17.39 13.72 17.39 9.19Z" stroke="#858585" stroke-opacity="1.000000" stroke-width="2.000000" stroke-linejoin="round"/>
	<path id="Vector" d="M11.65 6.32C11.09 5.76 10.1 5.37 9.19 5.35C8.11 5.32 7.14 5.81 7.14 7.14C7.14 9.6 11.65 8.37 11.65 10.83C11.65 12.23 10.45 12.84 9.19 12.79C8.24 12.76 7.26 12.36 6.73 11.65M9.19 5.35L9.19 3.86M9.19 12.79L9.19 14.52" stroke="#858585" stroke-opacity="1.000000" stroke-width="2.000000" stroke-linejoin="round" stroke-linecap="round"/>
</svg>
