<svg width="17.575195" height="16.756348" viewBox="0 0 17.5752 16.7563" fill="none" xmlns="http://www.w3.org/2000/svg" xmlns:xlink="http://www.w3.org/1999/xlink">
	<desc>
			Created with Pixso.
	</desc>
	<defs/>
	<path id="Vector" d="M11.24 5.5C10.6 5.34 9.71 5.09 9 5.09C5.48 5.09 2.63 7.28 2.63 9.98C2.63 11.53 3.58 12.91 5.04 13.81L4.65 15.12C4.55 15.43 4.79 15.75 5.12 15.75L6.56 15.75C6.67 15.75 6.77 15.72 6.86 15.65L8 14.79L10 14.79L11.14 15.65C11.23 15.72 11.33 15.75 11.44 15.75L12.88 15.75C13.21 15.75 13.45 15.43 13.35 15.12L12.96 13.81C13.83 13.27 14.52 12.57 14.93 11.75" stroke="#858585" stroke-opacity="1.000000" stroke-width="2.000000" stroke-linejoin="round" stroke-linecap="round"/>
	<path id="Vector" d="M11.24 5.5L14.93 4.27L14.86 7.25L16.57 7.96L16.57 10.83L14.99 11.65" stroke="#858585" stroke-opacity="1.000000" stroke-width="2.000000" stroke-linejoin="round" stroke-linecap="round"/>
	<path id="Vector" d="M12.06 9.19C11.84 9.19 11.65 9.01 11.65 8.78C11.65 8.56 11.84 8.37 12.06 8.37C12.29 8.37 12.47 8.56 12.47 8.78C12.47 9.01 12.29 9.19 12.06 9.19Z" fill="#858585" fill-opacity="1.000000" fill-rule="nonzero"/>
	<path id="Vector" d="M11.65 8.78C11.65 8.56 11.84 8.37 12.06 8.37C12.29 8.37 12.47 8.56 12.47 8.78C12.47 9.01 12.29 9.19 12.06 9.19C11.84 9.19 11.65 9.01 11.65 8.78Z" stroke="#858585" stroke-opacity="1.000000" stroke-width="2.000000" stroke-linejoin="round"/>
	<path id="Vector" d="M1 6.73C1 6.73 1 8.7 2.63 9.19" stroke="#858585" stroke-opacity="1.000000" stroke-width="2.000000" stroke-linejoin="round" stroke-linecap="round"/>
	<path id="Vector" d="M9.85 4.89C9.95 4.59 10.01 4.26 10.01 3.92C10.01 2.3 8.73 1 7.14 1C5.56 1 4.27 2.3 4.27 3.92C4.27 4.69 4.57 5.39 5.05 5.91" stroke="#858585" stroke-opacity="1.000000" stroke-width="2.000000" stroke-linejoin="round"/>
</svg>
