<svg width="18.395508" height="18.395508" viewBox="0 0 18.3955 18.3955" fill="none" xmlns="http://www.w3.org/2000/svg" xmlns:xlink="http://www.w3.org/1999/xlink">
	<desc>
			Created with Pixso.
	</desc>
	<defs/>
	<path id="Vector" d="M17.39 9.19C17.39 4.67 13.72 1 9.19 1C4.66 1 1 4.67 1 9.19C1 13.72 4.66 17.39 9.19 17.39C13.72 17.39 17.39 13.72 17.39 9.19Z" stroke="#858585" stroke-opacity="1.000000" stroke-width="2.000000" stroke-linejoin="round"/>
	<path id="Vector" d="M12.06 12.47C12.29 12.47 12.47 12.29 12.47 12.06C12.47 11.84 12.29 11.65 12.06 11.65C11.84 11.65 11.65 11.84 11.65 12.06C11.65 12.29 11.84 12.47 12.06 12.47Z" fill="#858585" fill-opacity="1.000000" fill-rule="nonzero"/>
	<path id="Vector" d="M12.47 12.06C12.47 11.84 12.29 11.65 12.06 11.65C11.84 11.65 11.65 11.84 11.65 12.06C11.65 12.29 11.84 12.47 12.06 12.47C12.29 12.47 12.47 12.29 12.47 12.06Z" stroke="#858585" stroke-opacity="1.000000" stroke-width="2.000000" stroke-linejoin="round"/>
	<path id="Vector" d="M6.32 6.73C6.55 6.73 6.73 6.55 6.73 6.32C6.73 6.1 6.55 5.91 6.32 5.91C6.1 5.91 5.91 6.1 5.91 6.32C5.91 6.55 6.1 6.73 6.32 6.73Z" fill="#858585" fill-opacity="1.000000" fill-rule="nonzero"/>
	<path id="Vector" d="M6.73 6.32C6.73 6.1 6.55 5.91 6.32 5.91C6.1 5.91 5.91 6.1 5.91 6.32C5.91 6.55 6.1 6.73 6.32 6.73C6.55 6.73 6.73 6.55 6.73 6.32Z" stroke="#858585" stroke-opacity="1.000000" stroke-width="2.000000" stroke-linejoin="round"/>
	<path id="Vector" d="M12.47 5.91L5.91 12.47" stroke="#858585" stroke-opacity="1.000000" stroke-width="2.000000" stroke-linejoin="round" stroke-linecap="round"/>
</svg>
