<svg width="20.035156" height="20.035645" viewBox="0 0 20.0352 20.0356" fill="none" xmlns="http://www.w3.org/2000/svg" xmlns:xlink="http://www.w3.org/1999/xlink">
	<desc>
			Created with Pixso.
	</desc>
	<defs/>
	<path id="Vector" d="M9.61 5.35C9.78 5.01 10.25 5.01 10.41 5.35L11.69 8.06L14.55 8.5C14.91 8.56 15.06 9.03 14.8 9.3L12.73 11.41L13.22 14.38C13.28 14.77 12.9 15.06 12.57 14.88L10.01 13.47L7.46 14.88C7.13 15.06 6.75 14.77 6.81 14.38L7.3 11.41L5.23 9.3C4.96 9.03 5.11 8.56 5.48 8.5L8.33 8.06L9.61 5.35Z" stroke="#FF910F" stroke-opacity="1.000000" stroke-width="2.000000" stroke-linejoin="round"/>
	<path id="Vector" d="M18.21 10.01L19.03 10.01" stroke="#FF910F" stroke-opacity="1.000000" stroke-width="2.000000" stroke-linejoin="round" stroke-linecap="round"/>
	<path id="Vector" d="M10.01 1.81L10.01 1" stroke="#FF910F" stroke-opacity="1.000000" stroke-width="2.000000" stroke-linejoin="round" stroke-linecap="round"/>
	<path id="Vector" d="M10.01 19.03L10.01 18.21" stroke="#FF910F" stroke-opacity="1.000000" stroke-width="2.000000" stroke-linejoin="round" stroke-linecap="round"/>
	<path id="Vector" d="M16.57 16.57L15.75 15.75" stroke="#FF910F" stroke-opacity="1.000000" stroke-width="2.000000" stroke-linejoin="round" stroke-linecap="round"/>
	<path id="Vector" d="M16.57 3.45L15.75 4.27" stroke="#FF910F" stroke-opacity="1.000000" stroke-width="2.000000" stroke-linejoin="round" stroke-linecap="round"/>
	<path id="Vector" d="M3.45 16.57L4.27 15.75" stroke="#FF910F" stroke-opacity="1.000000" stroke-width="2.000000" stroke-linejoin="round" stroke-linecap="round"/>
	<path id="Vector" d="M3.45 3.45L4.27 4.27" stroke="#FF910F" stroke-opacity="1.000000" stroke-width="2.000000" stroke-linejoin="round" stroke-linecap="round"/>
	<path id="Vector" d="M1 10.01L1.81 10.01" stroke="#FF910F" stroke-opacity="1.000000" stroke-width="2.000000" stroke-linejoin="round" stroke-linecap="round"/>
</svg>
