<svg width="720.500000" height="157.000000" viewBox="0 0 720.5 157" fill="none" xmlns="http://www.w3.org/2000/svg" xmlns:xlink="http://www.w3.org/1999/xlink">
	<desc>
			Created with Pixso.
	</desc>
	<defs/>
	<path id="Vector 8" d="M0.25 157L0.25 74.25C0.25 65.42 7.41 58.25 16.25 58.25L343.25 58.25C352.08 58.25 359.25 51.09 359.25 42.25L359.25 0" stroke="#EAEAEA" stroke-opacity="1.000000" stroke-width="0.500000"/>
	<path id="Vector 10" d="M720.25 157L720.25 74.25C720.25 65.42 713.08 58.25 704.25 58.25L375.25 58.25C366.41 58.25 359.25 51.09 359.25 42.25L359.25 0" stroke="#EAEAEA" stroke-opacity="1.000000" stroke-width="0.500000"/>
	<path id="Vector 9" d="M238.25 157L238.25 94.25C238.25 85.42 245.41 78.25 254.25 78.25L343.25 78.25C352.08 78.25 359.25 71.09 359.25 62.25L359.25 0" stroke="#EAEAEA" stroke-opacity="1.000000" stroke-width="0.500000"/>
	<path id="Vector 11" d="M479.25 157L479.25 94.25C479.25 85.42 472.08 78.25 463.25 78.25L375.25 78.25C366.41 78.25 359.25 71.09 359.25 62.25L359.25 0" stroke="#EAEAEA" stroke-opacity="1.000000" stroke-width="0.500000"/>
</svg>
