<svg width="67.000000" height="1386.000000" viewBox="0 0 67 1386" fill="none" xmlns="http://www.w3.org/2000/svg" xmlns:xlink="http://www.w3.org/1999/xlink">
	<desc>
			Created with Pixso.
	</desc>
	<defs>
		
	</defs>
	<line id="Line 20" x1="21.250000" y1="0.000000" x2="21.250000" y2="1386.000000" stroke="#E4E2E1" stroke-opacity="1.000000" stroke-width="0.500000"/>
	<line id="Line 21" x1="21.000000" y1="319.500000" x2="60.000000" y2="319.500000" stroke="#E4E2E1" stroke-opacity="1.000000" stroke-width="1.000000"/>
	<line id="Line 24" x1="21.000000" y1="335.750000" x2="41.000000" y2="335.750000" stroke="#E4E2E1" stroke-opacity="1.000000" stroke-width="0.500000"/>
	<line id="Line 43" x1="21.000000" y1="634.750000" x2="41.000000" y2="634.750000" stroke="#E4E2E1" stroke-opacity="1.000000" stroke-width="0.500000"/>
	<line id="Line 70" x1="21.000000" y1="1051.750000" x2="41.000000" y2="1051.750000" stroke="#E4E2E1" stroke-opacity="1.000000" stroke-width="0.500000"/>
	<line id="Line 28" x1="21.000000" y1="394.750000" x2="41.000000" y2="394.750000" stroke="#E4E2E1" stroke-opacity="1.000000" stroke-width="0.500000"/>
	<line id="Line 44" x1="21.000000" y1="694.750000" x2="41.000000" y2="694.750000" stroke="#E4E2E1" stroke-opacity="1.000000" stroke-width="0.500000"/>
	<line id="Line 71" x1="21.000000" y1="1114.750000" x2="41.000000" y2="1114.750000" stroke="#E4E2E1" stroke-opacity="1.000000" stroke-width="0.500000"/>
	<line id="Line 32" x1="21.000000" y1="452.750000" x2="41.000000" y2="452.750000" stroke="#E4E2E1" stroke-opacity="1.000000" stroke-width="0.500000"/>
	<line id="Line 45" x1="21.000000" y1="754.750000" x2="41.000000" y2="754.750000" stroke="#E4E2E1" stroke-opacity="1.000000" stroke-width="0.500000"/>
	<line id="Line 72" x1="21.000000" y1="1177.750000" x2="41.000000" y2="1177.750000" stroke="#E4E2E1" stroke-opacity="1.000000" stroke-width="0.500000"/>
	<line id="Line 36" x1="21.000000" y1="511.750000" x2="41.000000" y2="511.750000" stroke="#E4E2E1" stroke-opacity="1.000000" stroke-width="0.500000"/>
	<line id="Line 46" x1="21.000000" y1="814.750000" x2="41.000000" y2="814.750000" stroke="#E4E2E1" stroke-opacity="1.000000" stroke-width="0.500000"/>
	<line id="Line 73" x1="21.000000" y1="1240.750000" x2="41.000000" y2="1240.750000" stroke="#E4E2E1" stroke-opacity="1.000000" stroke-width="0.500000"/>
	<line id="Line 25" x1="21.000000" y1="350.750000" x2="41.000000" y2="350.750000" stroke="#E4E2E1" stroke-opacity="1.000000" stroke-width="0.500000"/>
	<line id="Line 47" x1="21.000000" y1="649.750000" x2="41.000000" y2="649.750000" stroke="#E4E2E1" stroke-opacity="1.000000" stroke-width="0.500000"/>
	<line id="Line 74" x1="21.000000" y1="1066.750000" x2="41.000000" y2="1066.750000" stroke="#E4E2E1" stroke-opacity="1.000000" stroke-width="0.500000"/>
	<line id="Line 29" x1="21.000000" y1="408.750000" x2="41.000000" y2="408.750000" stroke="#E4E2E1" stroke-opacity="1.000000" stroke-width="0.500000"/>
	<line id="Line 48" x1="21.000000" y1="709.750000" x2="41.000000" y2="709.750000" stroke="#E4E2E1" stroke-opacity="1.000000" stroke-width="0.500000"/>
	<line id="Line 75" x1="21.000000" y1="1129.750000" x2="41.000000" y2="1129.750000" stroke="#E4E2E1" stroke-opacity="1.000000" stroke-width="0.500000"/>
	<line id="Line 33" x1="21.000000" y1="467.750000" x2="41.000000" y2="467.750000" stroke="#E4E2E1" stroke-opacity="1.000000" stroke-width="0.500000"/>
	<line id="Line 49" x1="21.000000" y1="769.750000" x2="41.000000" y2="769.750000" stroke="#E4E2E1" stroke-opacity="1.000000" stroke-width="0.500000"/>
	<line id="Line 76" x1="21.000000" y1="1193.750000" x2="41.000000" y2="1193.750000" stroke="#E4E2E1" stroke-opacity="1.000000" stroke-width="0.500000"/>
	<line id="Line 37" x1="21.000000" y1="525.750000" x2="41.000000" y2="525.750000" stroke="#E4E2E1" stroke-opacity="1.000000" stroke-width="0.500000"/>
	<line id="Line 50" x1="21.000000" y1="829.750000" x2="41.000000" y2="829.750000" stroke="#E4E2E1" stroke-opacity="1.000000" stroke-width="0.500000"/>
	<line id="Line 77" x1="21.000000" y1="1256.750000" x2="41.000000" y2="1256.750000" stroke="#E4E2E1" stroke-opacity="1.000000" stroke-width="0.500000"/>
	<line id="Line 62" x1="21.000000" y1="919.750000" x2="41.000000" y2="919.750000" stroke="#E4E2E1" stroke-opacity="1.000000" stroke-width="0.500000"/>
	<line id="Line 78" x1="21.000000" y1="1350.750000" x2="41.000000" y2="1350.750000" stroke="#E4E2E1" stroke-opacity="1.000000" stroke-width="0.500000"/>
	<line id="Line 40" x1="21.000000" y1="569.750000" x2="41.000000" y2="569.750000" stroke="#E4E2E1" stroke-opacity="1.000000" stroke-width="0.500000"/>
	<line id="Line 51" x1="21.000000" y1="874.750000" x2="41.000000" y2="874.750000" stroke="#E4E2E1" stroke-opacity="1.000000" stroke-width="0.500000"/>
	<line id="Line 79" x1="21.000000" y1="1303.750000" x2="41.000000" y2="1303.750000" stroke="#E4E2E1" stroke-opacity="1.000000" stroke-width="0.500000"/>
	<line id="Line 63" x1="21.000000" y1="964.750000" x2="41.000000" y2="964.750000" stroke="#E4E2E1" stroke-opacity="1.000000" stroke-width="0.500000"/>
	<line id="Line 26" x1="21.000000" y1="364.750000" x2="41.000000" y2="364.750000" stroke="#E4E2E1" stroke-opacity="1.000000" stroke-width="0.500000"/>
	<line id="Line 52" x1="21.000000" y1="664.750000" x2="41.000000" y2="664.750000" stroke="#E4E2E1" stroke-opacity="1.000000" stroke-width="0.500000"/>
	<line id="Line 81" x1="21.000000" y1="1082.750000" x2="41.000000" y2="1082.750000" stroke="#E4E2E1" stroke-opacity="1.000000" stroke-width="0.500000"/>
	<line id="Line 30" x1="21.000000" y1="423.750000" x2="41.000000" y2="423.750000" stroke="#E4E2E1" stroke-opacity="1.000000" stroke-width="0.500000"/>
	<line id="Line 53" x1="21.000000" y1="724.750000" x2="41.000000" y2="724.750000" stroke="#E4E2E1" stroke-opacity="1.000000" stroke-width="0.500000"/>
	<line id="Line 82" x1="21.000000" y1="1145.750000" x2="41.000000" y2="1145.750000" stroke="#E4E2E1" stroke-opacity="1.000000" stroke-width="0.500000"/>
	<line id="Line 34" x1="21.000000" y1="481.750000" x2="41.000000" y2="481.750000" stroke="#E4E2E1" stroke-opacity="1.000000" stroke-width="0.500000"/>
	<line id="Line 54" x1="21.000000" y1="784.750000" x2="41.000000" y2="784.750000" stroke="#E4E2E1" stroke-opacity="1.000000" stroke-width="0.500000"/>
	<line id="Line 83" x1="21.000000" y1="1208.750000" x2="41.000000" y2="1208.750000" stroke="#E4E2E1" stroke-opacity="1.000000" stroke-width="0.500000"/>
	<line id="Line 38" x1="21.000000" y1="540.750000" x2="41.000000" y2="540.750000" stroke="#E4E2E1" stroke-opacity="1.000000" stroke-width="0.500000"/>
	<line id="Line 55" x1="21.000000" y1="844.750000" x2="41.000000" y2="844.750000" stroke="#E4E2E1" stroke-opacity="1.000000" stroke-width="0.500000"/>
	<line id="Line 84" x1="21.000000" y1="1272.750000" x2="41.000000" y2="1272.750000" stroke="#E4E2E1" stroke-opacity="1.000000" stroke-width="0.500000"/>
	<line id="Line 64" x1="21.000000" y1="934.750000" x2="41.000000" y2="934.750000" stroke="#E4E2E1" stroke-opacity="1.000000" stroke-width="0.500000"/>
	<line id="Line 85" x1="21.000000" y1="1366.750000" x2="41.000000" y2="1366.750000" stroke="#E4E2E1" stroke-opacity="1.000000" stroke-width="0.500000"/>
	<line id="Line 41" x1="21.000000" y1="584.750000" x2="41.000000" y2="584.750000" stroke="#E4E2E1" stroke-opacity="1.000000" stroke-width="0.500000"/>
	<line id="Line 56" x1="21.000000" y1="889.750000" x2="41.000000" y2="889.750000" stroke="#E4E2E1" stroke-opacity="1.000000" stroke-width="0.500000"/>
	<line id="Line 86" x1="21.000000" y1="1319.750000" x2="41.000000" y2="1319.750000" stroke="#E4E2E1" stroke-opacity="1.000000" stroke-width="0.500000"/>
	<line id="Line 65" x1="21.000000" y1="979.750000" x2="41.000000" y2="979.750000" stroke="#E4E2E1" stroke-opacity="1.000000" stroke-width="0.500000"/>
	<line id="Line 68" x1="21.000000" y1="1019.750000" x2="41.000000" y2="1019.750000" stroke="#E4E2E1" stroke-opacity="1.000000" stroke-width="0.500000"/>
	<line id="Line 27" x1="21.000000" y1="379.750000" x2="41.000000" y2="379.750000" stroke="#E4E2E1" stroke-opacity="1.000000" stroke-width="0.500000"/>
	<line id="Line 57" x1="21.000000" y1="679.750000" x2="41.000000" y2="679.750000" stroke="#E4E2E1" stroke-opacity="1.000000" stroke-width="0.500000"/>
	<line id="Line 89" x1="21.000000" y1="1098.750000" x2="41.000000" y2="1098.750000" stroke="#E4E2E1" stroke-opacity="1.000000" stroke-width="0.500000"/>
	<line id="Line 31" x1="21.000000" y1="438.750000" x2="41.000000" y2="438.750000" stroke="#E4E2E1" stroke-opacity="1.000000" stroke-width="0.500000"/>
	<line id="Line 58" x1="21.000000" y1="739.750000" x2="41.000000" y2="739.750000" stroke="#E4E2E1" stroke-opacity="1.000000" stroke-width="0.500000"/>
	<line id="Line 90" x1="21.000000" y1="1161.750000" x2="41.000000" y2="1161.750000" stroke="#E4E2E1" stroke-opacity="1.000000" stroke-width="0.500000"/>
	<line id="Line 35" x1="21.000000" y1="496.750000" x2="41.000000" y2="496.750000" stroke="#E4E2E1" stroke-opacity="1.000000" stroke-width="0.500000"/>
	<line id="Line 59" x1="21.000000" y1="799.750000" x2="41.000000" y2="799.750000" stroke="#E4E2E1" stroke-opacity="1.000000" stroke-width="0.500000"/>
	<line id="Line 91" x1="21.000000" y1="1224.750000" x2="41.000000" y2="1224.750000" stroke="#E4E2E1" stroke-opacity="1.000000" stroke-width="0.500000"/>
	<line id="Line 39" x1="21.000000" y1="555.750000" x2="41.000000" y2="555.750000" stroke="#E4E2E1" stroke-opacity="1.000000" stroke-width="0.500000"/>
	<line id="Line 60" x1="21.000000" y1="859.750000" x2="41.000000" y2="859.750000" stroke="#E4E2E1" stroke-opacity="1.000000" stroke-width="0.500000"/>
	<line id="Line 92" x1="21.000000" y1="1287.750000" x2="41.000000" y2="1287.750000" stroke="#E4E2E1" stroke-opacity="1.000000" stroke-width="0.500000"/>
	<line id="Line 66" x1="21.000000" y1="949.750000" x2="41.000000" y2="949.750000" stroke="#E4E2E1" stroke-opacity="1.000000" stroke-width="0.500000"/>
	<line id="Line 93" x1="21.000000" y1="1382.750000" x2="41.000000" y2="1382.750000" stroke="#E4E2E1" stroke-opacity="1.000000" stroke-width="0.500000"/>
	<line id="Line 42" x1="21.000000" y1="619.750000" x2="41.000000" y2="619.750000" stroke="#E4E2E1" stroke-opacity="1.000000" stroke-width="0.500000"/>
	<line id="Line 61" x1="21.000000" y1="904.750000" x2="41.000000" y2="904.750000" stroke="#E4E2E1" stroke-opacity="1.000000" stroke-width="0.500000"/>
	<line id="Line 94" x1="21.000000" y1="1335.750000" x2="41.000000" y2="1335.750000" stroke="#E4E2E1" stroke-opacity="1.000000" stroke-width="0.500000"/>
	<line id="Line 67" x1="21.000000" y1="999.750000" x2="41.000000" y2="999.750000" stroke="#E4E2E1" stroke-opacity="1.000000" stroke-width="0.500000"/>
	<line id="Line 69" x1="21.000000" y1="1035.750000" x2="41.000000" y2="1035.750000" stroke="#E4E2E1" stroke-opacity="1.000000" stroke-width="0.500000"/>
	<line id="Line 22" x1="21.000000" y1="603.500000" x2="60.000000" y2="603.500000" stroke="#E4E2E1" stroke-opacity="1.000000" stroke-width="1.000000"/>
	<line id="Line 23" x1="21.000000" y1="999.500000" x2="60.000000" y2="999.500000" stroke="#E4E2E1" stroke-opacity="1.000000" stroke-width="1.000000"/>
	<rect id="Rectangle 3845" y="1208.000000" width="67.000000" height="178.000000" fill="url(#paint_linear_6328_2481_0)" fill-opacity="1.000000"/>
</svg>
