<svg width="32.000000" height="32.000000" viewBox="0 0 32 32" fill="none" xmlns="http://www.w3.org/2000/svg" xmlns:xlink="http://www.w3.org/1999/xlink">
	<desc>
			Created with Pixso.
	</desc>
	<defs/>
	<rect id="Rectangle 3752" rx="16.000000" width="32.000000" height="32.000000" fill="#EFEFF0" fill-opacity="1.000000"/>
	<path id="Vector" d="M16.01 8.49C11.86 8.49 8.51 11.85 8.51 15.99C8.51 20.14 11.86 23.49 16.01 23.49C19.82 23.49 23.01 20.64 23.46 16.88C23.51 16.47 23.21 16.09 22.8 16.04C22.39 15.99 22.01 16.29 21.96 16.7C21.6 19.7 19.05 21.99 16.01 21.99C12.69 21.99 10.01 19.31 10.01 15.99C10.01 12.68 12.69 9.99 16.01 9.99C16.7 9.99 17.38 10.12 18.02 10.35C18.41 10.48 18.82 10.27 18.96 9.88C19.1 9.49 18.9 9.05 18.51 8.92C17.72 8.63 16.87 8.49 16.01 8.49ZM22.76 9.99C22.56 9.99 22.36 10.06 22.22 10.2L15.68 16.65C15.48 16.84 15.29 16.8 15.14 16.58L14.39 15.48C14.16 15.14 13.68 15.04 13.33 15.27C12.99 15.49 12.89 15.96 13.12 16.3L13.87 17.4C14.55 18.4 15.87 18.53 16.73 17.68L23.29 11.26C23.59 10.97 23.59 10.49 23.29 10.2C23.15 10.06 22.95 9.99 22.76 9.99Z" fill="#242424" fill-opacity="1.000000" fill-rule="nonzero"/>
	<path id="Vector" d="M8.59 14.32Q8.41 15.14 8.41 15.99Q8.41 16.85 8.59 17.66Q8.74 18.32 9 18.95Q9.27 19.59 9.65 20.16Q10.07 20.81 10.63 21.37Q11.19 21.93 11.83 22.35Q12.41 22.73 13.05 23Q13.68 23.26 14.34 23.41Q15.15 23.59 16.01 23.59Q16.78 23.59 17.52 23.44Q18.15 23.32 18.75 23.08Q19.35 22.85 19.9 22.52Q20.52 22.16 21.06 21.67Q21.61 21.18 22.05 20.61Q22.43 20.11 22.73 19.55Q23.05 18.95 23.25 18.32Q23.47 17.63 23.56 16.9Q23.57 16.81 23.56 16.72Q23.55 16.64 23.53 16.56Q23.51 16.48 23.47 16.41Q23.44 16.33 23.38 16.27Q23.32 16.19 23.25 16.13Q23.2 16.08 23.14 16.05Q23.06 16.01 22.98 15.98Q22.9 15.95 22.81 15.94Q22.73 15.93 22.64 15.94Q22.56 15.95 22.48 15.97Q22.4 15.99 22.33 16.03Q22.25 16.06 22.18 16.12Q22.11 16.18 22.04 16.25Q22 16.31 21.97 16.36Q21.92 16.44 21.9 16.52Q21.87 16.6 21.86 16.69Q21.79 17.25 21.62 17.79Q21.46 18.28 21.22 18.74Q20.98 19.19 20.68 19.59Q20.34 20.02 19.93 20.4Q19.49 20.78 19 21.07Q18.59 21.32 18.14 21.5Q17.67 21.68 17.18 21.78Q16.61 21.89 16.01 21.89Q15.34 21.89 14.71 21.75Q14.2 21.64 13.71 21.43Q13.21 21.22 12.77 20.93Q12.27 20.6 11.83 20.17Q11.4 19.73 11.07 19.23Q10.78 18.79 10.57 18.29Q10.36 17.8 10.25 17.29Q10.11 16.66 10.11 15.99Q10.11 15.33 10.25 14.7Q10.36 14.19 10.57 13.7Q10.78 13.2 11.07 12.76Q11.4 12.26 11.83 11.82Q12.27 11.39 12.77 11.06Q13.21 10.77 13.71 10.56Q14.2 10.35 14.71 10.24Q15.34 10.09 16.01 10.09Q16.28 10.09 16.55 10.12Q17.28 10.19 17.99 10.44Q18.16 10.5 18.32 10.49Q18.48 10.48 18.63 10.4Q18.77 10.33 18.86 10.23Q18.99 10.1 19.05 9.91Q19.11 9.74 19.1 9.57Q19.1 9.41 19.03 9.26Q18.99 9.17 18.93 9.1Q18.89 9.04 18.84 9Q18.78 8.94 18.72 8.9Q18.64 8.85 18.55 8.82Q18.39 8.77 18.23 8.72Q17.17 8.39 16.01 8.39Q15.15 8.39 14.34 8.58Q13.68 8.72 13.05 8.99Q12.41 9.26 11.83 9.64Q11.19 10.06 10.63 10.62Q10.07 11.18 9.65 11.82Q9.27 12.4 9 13.04Q8.74 13.67 8.59 14.32ZM16.01 8.49C11.86 8.49 8.51 11.85 8.51 15.99C8.51 20.14 11.86 23.49 16.01 23.49C19.82 23.49 23.01 20.64 23.46 16.88C23.51 16.47 23.21 16.09 22.8 16.04C22.39 15.99 22.01 16.29 21.96 16.7C21.6 19.7 19.05 21.99 16.01 21.99C12.69 21.99 10.01 19.31 10.01 15.99C10.01 12.68 12.69 9.99 16.01 9.99C16.7 9.99 17.38 10.12 18.02 10.35C18.41 10.48 18.82 10.27 18.96 9.88C19.1 9.49 18.9 9.05 18.51 8.92C17.72 8.63 16.87 8.49 16.01 8.49ZM22.21 10.08Q22.18 10.1 22.15 10.13L22.15 10.13L15.61 16.58Q15.5 16.68 15.41 16.67L15.41 16.67Q15.31 16.66 15.22 16.52L14.47 15.42Q14.43 15.37 14.39 15.32Q14.32 15.24 14.23 15.19Q14.17 15.15 14.11 15.12Q14.02 15.08 13.92 15.06Q13.82 15.04 13.72 15.05Q13.66 15.05 13.59 15.06Q13.49 15.08 13.4 15.12Q13.34 15.14 13.28 15.18Q13.21 15.23 13.14 15.29Q13.09 15.35 13.04 15.42Q13 15.49 12.97 15.56Q12.93 15.64 12.91 15.72Q12.9 15.81 12.9 15.9Q12.9 15.98 12.91 16.04Q12.93 16.13 12.96 16.2Q12.99 16.28 13.04 16.35L13.79 17.46Q13.98 17.74 14.24 17.94Q14.33 18.01 14.43 18.07Q14.63 18.19 14.85 18.26Q15.03 18.31 15.22 18.33Q15.41 18.35 15.6 18.33Q15.83 18.31 16.05 18.23Q16.16 18.19 16.26 18.14Q16.55 18 16.8 17.75L23.37 11.33Q23.43 11.27 23.48 11.2Q23.52 11.13 23.55 11.05Q23.58 10.98 23.6 10.91Q23.61 10.82 23.61 10.73Q23.61 10.64 23.6 10.55Q23.58 10.48 23.55 10.41Q23.52 10.33 23.47 10.26Q23.43 10.19 23.37 10.13Q23.33 10.1 23.3 10.08Q23.2 10 23.08 9.95Q23.03 9.93 22.97 9.92Q22.87 9.89 22.76 9.89Q22.65 9.89 22.55 9.92Q22.49 9.93 22.43 9.95Q22.31 10 22.21 10.08ZM22.76 9.99C22.56 9.99 22.36 10.06 22.22 10.2L15.68 16.65C15.48 16.84 15.29 16.8 15.14 16.58L14.39 15.48C14.16 15.14 13.68 15.04 13.33 15.27C12.99 15.49 12.89 15.96 13.12 16.3L13.87 17.4C14.55 18.4 15.87 18.53 16.73 17.68L23.29 11.26C23.59 10.97 23.59 10.49 23.29 10.2C23.15 10.06 22.95 9.99 22.76 9.99Z" fill="#242424" fill-opacity="1.000000" fill-rule="evenodd"/>
</svg>
