<svg width="32.000000" height="32.000000" viewBox="0 0 32 32" fill="none" xmlns="http://www.w3.org/2000/svg" xmlns:xlink="http://www.w3.org/1999/xlink">
	<desc>
			Created with Pixso.
	</desc>
	<defs/>
	<g opacity="0.200000">
		<rect id="Rectangle 3744" rx="16.000000" width="32.000000" height="32.000000" fill="#22C55E" fill-opacity="1.000000"/>
		<rect id="Rectangle 3744" x="0.250000" y="0.250000" rx="15.750000" width="31.500000" height="31.500000" stroke="#E4E2E1" stroke-opacity="0" stroke-width="0.500000"/>
	</g>
	<path id="Vector" d="M16 9.33C12.32 9.33 9.34 12.31 9.34 15.99C9.34 19.68 12.32 22.66 16 22.66C19.39 22.66 22.24 20.12 22.63 16.79C22.67 16.42 22.41 16.08 22.05 16.04C21.68 15.99 21.34 16.25 21.3 16.62C20.98 19.29 18.72 21.33 16 21.33C13.06 21.33 10.67 18.94 10.67 15.99C10.67 13.05 13.06 10.66 16 10.66C16.62 10.66 17.23 10.77 17.8 10.97C18.14 11.1 18.51 10.9 18.63 10.56C18.75 10.21 18.58 9.83 18.24 9.7C17.53 9.45 16.77 9.33 16 9.33ZM22 10.66C21.83 10.66 21.66 10.72 21.53 10.85L15.71 16.58C15.54 16.75 15.37 16.71 15.24 16.51L14.57 15.54C14.36 15.23 13.94 15.15 13.63 15.35C13.33 15.55 13.24 15.96 13.44 16.26L14.11 17.24C14.71 18.13 15.89 18.25 16.65 17.49L22.49 11.79C22.75 11.53 22.75 11.1 22.49 10.85C22.35 10.72 22.18 10.66 22 10.66Z" fill="#22C55E" fill-opacity="1.000000" fill-rule="nonzero"/>
	<path id="Vector" d="M9.4 14.51Q9.24 15.23 9.24 15.99Q9.24 16.76 9.4 17.48Q9.53 18.07 9.77 18.63Q10.01 19.2 10.35 19.71Q10.72 20.28 11.22 20.78Q11.72 21.28 12.29 21.65Q12.8 21.99 13.37 22.23Q13.93 22.47 14.52 22.6Q15.25 22.76 16 22.76Q16.69 22.76 17.35 22.63Q17.91 22.51 18.45 22.31Q18.99 22.1 19.47 21.81Q20.02 21.48 20.51 21.05Q21 20.61 21.39 20.1Q21.73 19.66 21.99 19.16Q22.27 18.63 22.45 18.07Q22.65 17.45 22.73 16.8Q22.75 16.64 22.71 16.5Q22.67 16.36 22.57 16.23Q22.47 16.1 22.33 16.02Q22.21 15.95 22.06 15.94Q21.9 15.92 21.76 15.96Q21.62 16 21.49 16.1Q21.36 16.2 21.28 16.34Q21.22 16.46 21.2 16.61Q21.14 17.11 20.99 17.58Q20.85 18.02 20.63 18.43Q20.42 18.83 20.15 19.18Q19.85 19.57 19.48 19.9Q19.1 20.24 18.66 20.5Q18.3 20.72 17.9 20.87Q17.48 21.04 17.05 21.12Q16.54 21.23 16 21.23Q15.41 21.23 14.85 21.1Q14.4 21 13.97 20.82Q13.53 20.63 13.14 20.37Q12.69 20.08 12.31 19.69Q11.92 19.31 11.63 18.86Q11.37 18.47 11.18 18.03Q11 17.6 10.9 17.15Q10.77 16.58 10.77 15.99Q10.77 15.4 10.9 14.84Q11 14.39 11.18 13.96Q11.37 13.52 11.63 13.12Q11.92 12.68 12.31 12.29Q12.69 11.91 13.14 11.62Q13.53 11.36 13.97 11.17Q14.4 10.99 14.85 10.89Q15.41 10.76 16 10.76Q16.25 10.76 16.49 10.78Q17.13 10.84 17.76 11.07Q17.91 11.12 18.06 11.11Q18.2 11.1 18.34 11.03Q18.47 10.97 18.55 10.87Q18.66 10.76 18.73 10.59Q18.78 10.43 18.77 10.28Q18.76 10.14 18.7 10Q18.63 9.86 18.52 9.76Q18.41 9.66 18.27 9.61Q18.13 9.56 17.98 9.51Q17.04 9.23 16 9.23Q15.25 9.23 14.52 9.39Q13.93 9.52 13.37 9.76Q12.8 10 12.29 10.34Q11.72 10.71 11.22 11.21Q10.72 11.71 10.35 12.28Q10.01 12.79 9.77 13.36Q9.53 13.92 9.4 14.51ZM16 9.33C12.32 9.33 9.34 12.31 9.34 15.99C9.34 19.68 12.32 22.66 16 22.66C19.39 22.66 22.24 20.12 22.63 16.79C22.67 16.42 22.41 16.08 22.05 16.04C21.68 15.99 21.34 16.25 21.3 16.62C20.98 19.29 18.72 21.33 16 21.33C13.06 21.33 10.67 18.94 10.67 15.99C10.67 13.05 13.06 10.66 16 10.66C16.62 10.66 17.23 10.77 17.8 10.97C18.14 11.1 18.51 10.9 18.63 10.56C18.75 10.21 18.58 9.83 18.24 9.7C17.53 9.45 16.77 9.33 16 9.33ZM21.52 10.72Q21.49 10.75 21.46 10.78L21.46 10.78L15.64 16.51Q15.55 16.6 15.48 16.59L15.48 16.59Q15.4 16.57 15.32 16.46L14.65 15.48Q14.57 15.36 14.47 15.29Q14.33 15.19 14.16 15.16Q13.98 15.12 13.82 15.16Q13.69 15.19 13.58 15.26Q13.45 15.35 13.36 15.47Q13.28 15.59 13.25 15.75Q13.21 15.91 13.25 16.06Q13.27 16.2 13.36 16.32L14.03 17.3Q14.2 17.55 14.43 17.73Q14.51 17.79 14.6 17.85Q14.78 17.96 14.98 18.02Q15.14 18.07 15.31 18.08Q15.48 18.1 15.64 18.08Q15.85 18.06 16.05 17.99Q16.15 17.96 16.24 17.91Q16.5 17.78 16.72 17.57L22.56 11.86Q22.66 11.75 22.72 11.62Q22.78 11.48 22.78 11.32Q22.78 11.15 22.72 11.01Q22.66 10.88 22.56 10.78Q22.53 10.75 22.5 10.72Q22.41 10.65 22.3 10.61Q22.25 10.6 22.2 10.58Q22.1 10.56 22 10.56Q21.91 10.56 21.82 10.58Q21.77 10.59 21.72 10.61Q21.6 10.65 21.52 10.72ZM22 10.66C21.83 10.66 21.66 10.72 21.53 10.85L15.71 16.58C15.54 16.75 15.37 16.71 15.24 16.51L14.57 15.54C14.36 15.23 13.94 15.15 13.63 15.35C13.33 15.55 13.24 15.96 13.44 16.26L14.11 17.24C14.71 18.13 15.89 18.25 16.65 17.49L22.49 11.79C22.75 11.53 22.75 11.1 22.49 10.85C22.35 10.72 22.18 10.66 22 10.66Z" fill="#22C55E" fill-opacity="1.000000" fill-rule="evenodd"/>
</svg>
