<svg width="24.000000" height="24.000000" viewBox="0 0 24 24" fill="none" xmlns="http://www.w3.org/2000/svg" xmlns:xlink="http://www.w3.org/1999/xlink">
	<desc>
			Created with Pixso.
	</desc>
	<defs/>
	<rect id="China-Circle" rx="11.500000" width="23.000000" height="23.000000" transform="translate(0.500000 0.500000)" fill="#D74B4B" fill-opacity="1.000000"/>
	<path id="Vector" d="M13.55 3.84L13.51 3L13.06 3.71L12.28 3.5L12.78 4.16L12.33 4.87L13.1 4.56L13.6 5.21L13.57 4.37L14.33 4.05L13.55 3.84ZM6.5 5L7.32 7.67L10 7.67L7.83 9.32L8.66 12L6.5 10.34L4.33 12L5.16 9.32L3 7.67L5.67 7.67L6.5 5ZM14.83 6.28L15.45 6.86L16.15 6.45L15.84 7.21L16.46 7.79L15.64 7.68L15.32 8.44L15.13 7.62L14.32 7.51L15.02 7.11L14.83 6.28ZM16.11 9.63L15.71 10.38L16.29 10.95L15.47 10.84L15.07 11.59L14.96 10.77L14.15 10.66L14.9 10.27L14.79 9.45L15.36 10.02L16.11 9.63ZM14.16 13.37L13.58 13.99L13.99 14.69L13.23 14.37L12.65 15L12.76 14.18L12 13.86L12.82 13.67L12.93 12.85L13.33 13.56L14.16 13.37Z" fill="#F8D74C" fill-opacity="1.000000" fill-rule="evenodd"/>
</svg>
