<svg width="19.000000" height="19.000000" viewBox="0 0 19 19" fill="none" xmlns="http://www.w3.org/2000/svg" xmlns:xlink="http://www.w3.org/1999/xlink">
	<desc>
			Created with Pixso.
	</desc>
	<defs>
		<linearGradient x1="9.500000" y1="18.444860" x2="9.500000" y2="0.000000" id="paint_linear_6382_347_0" gradientUnits="userSpaceOnUse">
			<stop stop-color="#0062E0"/>
			<stop offset="1.000000" stop-color="#19AFFF"/>
		</linearGradient>
	</defs>
	<path id="shape" d="M10.98 18.99L10.98 12.32L13.19 12.32L13.61 9.55L10.98 9.55L10.98 7.76C10.98 7 11.35 6.27 12.53 6.27L13.73 6.27L13.73 3.92C13.73 3.92 12.64 3.73 11.6 3.73C9.43 3.73 8.01 5.05 8.01 7.45L8.01 9.55L5.6 9.55L5.6 12.32L8.01 12.32L8.01 19C3.47 18.28 0 14.32 0 9.55C0 4.27 4.25 0 9.5 0C14.74 0 19 4.27 19 9.55C19 14.32 15.52 18.28 10.98 19L10.98 18.99Z" fill="#000000" fill-opacity="1.000000" fill-rule="nonzero"/>
	<path id="shape" d="M10.98 18.99L10.98 12.32L13.19 12.32L13.61 9.55L10.98 9.55L10.98 7.76C10.98 7 11.35 6.27 12.53 6.27L13.73 6.27L13.73 3.92C13.73 3.92 12.64 3.73 11.6 3.73C9.43 3.73 8.01 5.05 8.01 7.45L8.01 9.55L5.6 9.55L5.6 12.32L8.01 12.32L8.01 19C3.47 18.28 0 14.32 0 9.55C0 4.27 4.25 0 9.5 0C14.74 0 19 4.27 19 9.55C19 14.32 15.52 18.28 10.98 19L10.98 18.99Z" fill="url(#paint_linear_6382_347_0)" fill-opacity="1.000000" fill-rule="nonzero"/>
</svg>
