<svg width="14.099609" height="14.100098" viewBox="0 0 14.0996 14.1001" fill="none" xmlns="http://www.w3.org/2000/svg" xmlns:xlink="http://www.w3.org/1999/xlink">
	<desc>
			Created with Pixso.
	</desc>
	<defs/>
	<path id="Vector" d="M7.04 0.3C6.63 0.3 6.29 0.63 6.29 1.05L6.29 6.3L1.04 6.3C0.63 6.3 0.29 6.63 0.29 7.05C0.29 7.46 0.63 7.8 1.04 7.8L6.29 7.8L6.29 13.05C6.29 13.46 6.63 13.8 7.04 13.8C7.46 13.8 7.79 13.46 7.79 13.05L7.79 7.8L13.04 7.8C13.46 7.8 13.79 7.46 13.79 7.05C13.79 6.63 13.46 6.3 13.04 6.3L7.79 6.3L7.79 1.05C7.79 0.63 7.46 0.3 7.04 0.3Z" fill="#242424" fill-opacity="1.000000" fill-rule="nonzero"/>
	<path id="Vector" d="M6.02 0.82Q6 0.93 6 1.05L6 6L1.04 6Q0.93 6 0.82 6.02Q0.73 6.04 0.64 6.08Q0.55 6.12 0.47 6.17Q0.38 6.23 0.3 6.3Q0.23 6.38 0.17 6.47Q0.12 6.55 0.08 6.64Q0.04 6.73 0.02 6.82Q0 6.93 0 7.05Q0 7.16 0.02 7.27Q0.04 7.36 0.08 7.45Q0.12 7.54 0.17 7.62Q0.23 7.71 0.3 7.79Q0.38 7.86 0.47 7.92Q0.55 7.97 0.64 8.01Q0.73 8.05 0.82 8.07Q0.93 8.1 1.04 8.1L6 8.1L6 13.05Q6 13.16 6.02 13.27Q6.04 13.36 6.08 13.45Q6.12 13.54 6.17 13.62Q6.23 13.71 6.3 13.79Q6.38 13.86 6.47 13.92Q6.55 13.97 6.64 14.01Q6.73 14.05 6.82 14.07Q6.93 14.1 7.04 14.1Q7.16 14.1 7.27 14.07Q7.36 14.05 7.45 14.01Q7.54 13.97 7.62 13.92Q7.71 13.86 7.79 13.79Q7.86 13.71 7.92 13.62Q7.97 13.54 8.01 13.45Q8.05 13.36 8.07 13.27Q8.09 13.16 8.09 13.05L8.09 8.1L13.04 8.1Q13.16 8.1 13.27 8.07Q13.36 8.05 13.45 8.01Q13.54 7.97 13.62 7.92Q13.71 7.86 13.79 7.79Q13.86 7.71 13.92 7.62Q13.97 7.54 14.01 7.45Q14.05 7.36 14.07 7.27Q14.09 7.16 14.09 7.05Q14.09 6.93 14.07 6.82Q14.05 6.73 14.01 6.64Q13.97 6.55 13.92 6.47Q13.86 6.38 13.79 6.3Q13.71 6.23 13.62 6.17Q13.54 6.12 13.45 6.08Q13.36 6.04 13.27 6.02Q13.16 6 13.04 6L8.09 6L8.09 1.05Q8.09 0.93 8.07 0.82Q8.05 0.73 8.01 0.64Q7.97 0.55 7.92 0.47Q7.86 0.38 7.79 0.3Q7.71 0.23 7.62 0.17Q7.54 0.12 7.45 0.08Q7.36 0.04 7.27 0.02Q7.16 0 7.04 0Q6.93 0 6.82 0.02Q6.73 0.04 6.64 0.08Q6.55 0.12 6.47 0.17Q6.38 0.23 6.3 0.3Q6.23 0.38 6.17 0.47Q6.12 0.55 6.08 0.64Q6.04 0.73 6.02 0.82ZM7.79 6L7.79 1.05C7.79 0.63 7.46 0.3 7.04 0.3C6.63 0.3 6.29 0.63 6.29 1.05L6.29 6.3L1.04 6.3C0.63 6.3 0.29 6.63 0.29 7.05C0.29 7.46 0.63 7.8 1.04 7.8L6 7.8L6.29 7.8L6.29 13.05C6.29 13.46 6.63 13.8 7.04 13.8C7.46 13.8 7.79 13.46 7.79 13.05L7.79 7.8L8.09 7.8L13.04 7.8C13.46 7.8 13.79 7.46 13.79 7.05C13.79 6.63 13.46 6.3 13.04 6.3L7.79 6.3L7.79 6Z" fill="#242424" fill-opacity="1.000000" fill-rule="evenodd"/>
</svg>
