<svg width="11.666992" height="11.666748" viewBox="0 0 11.667 11.6667" fill="none" xmlns="http://www.w3.org/2000/svg" xmlns:xlink="http://www.w3.org/1999/xlink">
	<desc>
			Created with Pixso.
	</desc>
	<defs/>
	<path id="Vector" d="M5.83 0C2.61 0 0 2.61 0 5.83C0 9.05 2.61 11.66 5.83 11.66C9.05 11.66 11.66 9.05 11.66 5.83C11.66 2.61 9.05 0 5.83 0ZM5.83 2.91C6.15 2.91 6.41 3.17 6.41 3.5C6.41 3.82 6.15 4.08 5.83 4.08C5.51 4.08 5.25 3.82 5.25 3.5C5.25 3.17 5.51 2.91 5.83 2.91ZM5.25 4.66C5.34 4.66 5.75 4.66 5.83 4.66C6.2 4.66 6.47 4.99 6.39 5.35L5.96 7.58L6.41 7.58C6.73 7.58 7 7.84 7 8.16C7 8.48 6.73 8.75 6.41 8.75L5.83 8.75C5.14 8.75 4.65 8.15 4.79 7.47L5.14 5.79C4.87 5.74 4.66 5.53 4.66 5.25C4.66 4.92 4.92 4.66 5.25 4.66Z" fill="#242424" fill-opacity="1.000000" fill-rule="nonzero"/>
</svg>
