<svg width="18.000000" height="18.000000" viewBox="0 0 18 18" fill="none" xmlns="http://www.w3.org/2000/svg" xmlns:xlink="http://www.w3.org/1999/xlink">
	<desc>
			Created with Pixso.
	</desc>
	<defs>
		<linearGradient x1="9.000000" y1="-0.560861" x2="9.000000" y2="18.943317" id="paint_linear_6382_349_0" gradientUnits="userSpaceOnUse">
			<stop stop-color="#FCA759"/>
			<stop offset="0.190000" stop-color="#E82D56"/>
			<stop offset="0.740000" stop-color="#A22DB4"/>
			<stop offset="1.000000" stop-color="#643DCE"/>
		</linearGradient>
	</defs>
	<path id="shape" d="M17.94 5.28C17.9 4.33 17.75 3.67 17.52 3.1C17.29 2.51 16.98 2.01 16.48 1.51C15.98 1.01 15.48 0.7 14.89 0.47C14.32 0.24 13.66 0.09 12.71 0.05C11.75 0.01 11.44 0 9 0C6.55 0 6.24 0.01 5.28 0.05C4.33 0.09 3.67 0.24 3.1 0.47C2.51 0.7 2.01 1.01 1.51 1.51C1.01 2.01 0.7 2.51 0.47 3.1C0.24 3.67 0.09 4.33 0.05 5.28C0.01 6.24 0 6.55 0 9C0 11.44 0.01 11.75 0.05 12.71C0.09 13.66 0.24 14.32 0.47 14.89C0.7 15.48 1.01 15.98 1.51 16.48C2.01 16.98 2.51 17.29 3.1 17.52C3.67 17.75 4.33 17.9 5.28 17.94C6.24 17.98 6.55 18 9 18C11.44 18 11.75 17.98 12.71 17.94C13.66 17.9 14.32 17.75 14.89 17.52C15.48 17.29 15.98 16.98 16.48 16.48C16.98 15.98 17.29 15.48 17.52 14.89C17.75 14.32 17.9 13.66 17.94 12.71C17.98 11.75 18 11.44 18 9C18 6.55 17.98 6.24 17.94 5.28ZM16.32 12.63C16.28 13.51 16.13 13.99 16.01 14.3C15.85 14.72 15.65 15.02 15.34 15.34C15.02 15.65 14.72 15.85 14.3 16.01C13.99 16.13 13.51 16.28 12.63 16.32C11.68 16.36 11.4 16.37 9 16.37C6.59 16.37 6.31 16.36 5.36 16.32C4.48 16.28 4 16.13 3.69 16.01C3.27 15.85 2.97 15.65 2.65 15.34C2.34 15.02 2.14 14.72 1.98 14.3C1.86 13.99 1.71 13.51 1.67 12.63C1.63 11.68 1.62 11.4 1.62 9C1.62 6.59 1.63 6.31 1.67 5.36C1.71 4.48 1.86 4 1.98 3.69C2.14 3.27 2.34 2.97 2.65 2.65C2.97 2.34 3.27 2.14 3.69 1.98C4 1.86 4.48 1.71 5.36 1.67C6.31 1.63 6.59 1.62 9 1.62C11.4 1.62 11.68 1.63 12.63 1.67C13.51 1.71 13.99 1.86 14.3 1.98C14.72 2.14 15.02 2.34 15.34 2.65C15.65 2.97 15.85 3.27 16.01 3.69C16.13 4 16.28 4.48 16.32 5.36C16.36 6.31 16.37 6.59 16.37 9C16.37 11.4 16.36 11.68 16.32 12.63ZM9 4.37C6.44 4.37 4.37 6.44 4.37 9C4.37 11.55 6.44 13.62 9 13.62C11.55 13.62 13.62 11.55 13.62 9C13.62 6.44 11.55 4.37 9 4.37ZM9 12C7.34 12 6 10.65 6 9C6 7.34 7.34 6 9 6C10.65 6 12 7.34 12 9C12 10.65 10.65 12 9 12ZM14.88 4.19C14.88 4.79 14.4 5.27 13.8 5.27C13.2 5.27 12.72 4.79 12.72 4.19C12.72 3.59 13.2 3.11 13.8 3.11C14.4 3.11 14.88 3.59 14.88 4.19Z" fill="#000000" fill-opacity="1.000000" fill-rule="nonzero"/>
	<path id="shape" d="M17.94 5.28C17.9 4.33 17.75 3.67 17.52 3.1C17.29 2.51 16.98 2.01 16.48 1.51C15.98 1.01 15.48 0.7 14.89 0.47C14.32 0.24 13.66 0.09 12.71 0.05C11.75 0.01 11.44 0 9 0C6.55 0 6.24 0.01 5.28 0.05C4.33 0.09 3.67 0.24 3.1 0.47C2.51 0.7 2.01 1.01 1.51 1.51C1.01 2.01 0.7 2.51 0.47 3.1C0.24 3.67 0.09 4.33 0.05 5.28C0.01 6.24 0 6.55 0 9C0 11.44 0.01 11.75 0.05 12.71C0.09 13.66 0.24 14.32 0.47 14.89C0.7 15.48 1.01 15.98 1.51 16.48C2.01 16.98 2.51 17.29 3.1 17.52C3.67 17.75 4.33 17.9 5.28 17.94C6.24 17.98 6.55 18 9 18C11.44 18 11.75 17.98 12.71 17.94C13.66 17.9 14.32 17.75 14.89 17.52C15.48 17.29 15.98 16.98 16.48 16.48C16.98 15.98 17.29 15.48 17.52 14.89C17.75 14.32 17.9 13.66 17.94 12.71C17.98 11.75 18 11.44 18 9C18 6.55 17.98 6.24 17.94 5.28ZM16.32 12.63C16.28 13.51 16.13 13.99 16.01 14.3C15.85 14.72 15.65 15.02 15.34 15.34C15.02 15.65 14.72 15.85 14.3 16.01C13.99 16.13 13.51 16.28 12.63 16.32C11.68 16.36 11.4 16.37 9 16.37C6.59 16.37 6.31 16.36 5.36 16.32C4.48 16.28 4 16.13 3.69 16.01C3.27 15.85 2.97 15.65 2.65 15.34C2.34 15.02 2.14 14.72 1.98 14.3C1.86 13.99 1.71 13.51 1.67 12.63C1.63 11.68 1.62 11.4 1.62 9C1.62 6.59 1.63 6.31 1.67 5.36C1.71 4.48 1.86 4 1.98 3.69C2.14 3.27 2.34 2.97 2.65 2.65C2.97 2.34 3.27 2.14 3.69 1.98C4 1.86 4.48 1.71 5.36 1.67C6.31 1.63 6.59 1.62 9 1.62C11.4 1.62 11.68 1.63 12.63 1.67C13.51 1.71 13.99 1.86 14.3 1.98C14.72 2.14 15.02 2.34 15.34 2.65C15.65 2.97 15.85 3.27 16.01 3.69C16.13 4 16.28 4.48 16.32 5.36C16.36 6.31 16.37 6.59 16.37 9C16.37 11.4 16.36 11.68 16.32 12.63ZM9 4.37C6.44 4.37 4.37 6.44 4.37 9C4.37 11.55 6.44 13.62 9 13.62C11.55 13.62 13.62 11.55 13.62 9C13.62 6.44 11.55 4.37 9 4.37ZM9 12C7.34 12 6 10.65 6 9C6 7.34 7.34 6 9 6C10.65 6 12 7.34 12 9C12 10.65 10.65 12 9 12ZM14.88 4.19C14.88 4.79 14.4 5.27 13.8 5.27C13.2 5.27 12.72 4.79 12.72 4.19C12.72 3.59 13.2 3.11 13.8 3.11C14.4 3.11 14.88 3.59 14.88 4.19Z" fill="url(#paint_linear_6382_349_0)" fill-opacity="1.000000" fill-rule="nonzero"/>
</svg>
