<svg width="24.000000" height="24.000000" viewBox="0 0 24 24" fill="none" xmlns="http://www.w3.org/2000/svg" xmlns:xlink="http://www.w3.org/1999/xlink">
	<desc>
			Created with Pixso.
	</desc>
	<defs/>
	<rect id="South Korea-Circle" rx="11.500000" width="23.000000" height="23.000000" transform="translate(0.500000 0.500000)" fill="#F9F9F9" fill-opacity="1.000000"/>
	<path id="Vector" d="M16.15 11.99C16.15 14.34 14.25 16.25 11.9 16.25C9.55 16.25 7.65 14.34 7.65 11.99C7.65 9.65 9.55 7.74 11.9 7.74C14.25 7.74 16.15 9.65 16.15 11.99Z" fill="#485CC2" fill-opacity="1.000000" fill-rule="nonzero"/>
	<path id="Vector" d="M8.18 9.93C7.97 10.71 7.92 12.31 9.32 12.8C10.75 13.3 11.67 12.44 11.95 11.95C12.28 11.52 13.2 10.74 14.33 11.14C15.46 11.54 15.74 12.41 15.74 12.8L15.74 13.82C16 13.27 16.15 12.65 16.15 11.99C16.15 9.65 14.25 7.74 11.9 7.74C10.3 7.74 8.91 8.63 8.18 9.93Z" fill="#D74B4B" fill-opacity="1.000000" fill-rule="evenodd"/>
	<path id="Vector" d="M3 8.66L5.46 5.14L6.01 5.52L3.54 9.04L3 8.66ZM3.95 9.23L6.42 5.71L6.97 6.09L4.5 9.61L3.95 9.23ZM7.29 6.27L4.83 9.79L5.37 10.17L7.84 6.65L7.29 6.27Z" fill="#333333" fill-opacity="1.000000" fill-rule="evenodd"/>
	<path id="Vector" d="M21 8.66L19.93 7.13L19.38 7.51L20.45 9.04L21 8.66ZM18.53 5.14L19.54 6.59L18.99 6.96L17.98 5.52L18.53 5.14ZM20.04 9.23L17.57 5.71L17.02 6.09L19.49 9.61L20.04 9.23ZM17.6 8.72L18.62 10.17L19.16 9.79L18.15 8.35L17.6 8.72ZM17.77 7.8L17.22 8.18L16.15 6.65L16.7 6.27L17.77 7.8Z" fill="#333333" fill-opacity="1.000000" fill-rule="evenodd"/>
	<path id="Vector" d="M19.93 16.86L21 15.33L20.45 14.95L19.38 16.48L19.93 16.86ZM19.54 17.4L18.53 18.85L17.98 18.47L18.99 17.03L19.54 17.4ZM17.6 15.27L18.62 13.82L19.16 14.2L18.15 15.64L17.6 15.27ZM17.77 16.19L17.22 15.81L16.15 17.34L16.7 17.72L17.77 16.19ZM20.04 14.76L19.01 16.23L18.46 15.85L19.49 14.38L20.04 14.76ZM17.57 18.28L18.62 16.78L18.07 16.4L17.02 17.9L17.57 18.28Z" fill="#333333" fill-opacity="1.000000" fill-rule="evenodd"/>
	<path id="Vector" d="M3 15.33L5.46 18.85L6.01 18.47L3.54 14.95L3 15.33ZM4.83 14.2L7.29 17.72L7.84 17.34L5.37 13.82L4.83 14.2ZM3.95 14.76L4.98 16.23L5.53 15.85L4.5 14.38L3.95 14.76ZM6.42 18.28L5.37 16.78L5.92 16.4L6.97 17.9L6.42 18.28Z" fill="#333333" fill-opacity="1.000000" fill-rule="evenodd"/>
</svg>
