<svg width="9.534912" height="9.534180" viewBox="0 0 9.53491 9.53418" fill="none" xmlns="http://www.w3.org/2000/svg" xmlns:xlink="http://www.w3.org/1999/xlink">
	<desc>
			Created with Pixso.
	</desc>
	<defs/>
	<path id="Vector" d="M9.35 0.18C9.22 0.05 9.06 -0.01 8.87 0L2.34 0C2.12 0 1.98 0.07 1.86 0.19C1.62 0.43 1.61 0.79 1.86 1.04C1.97 1.16 2.13 1.23 2.29 1.23L4.51 1.25L8.26 1.08L8.11 0.73L6.42 2.22L0.18 8.46C-0.07 8.72 -0.07 9.08 0.19 9.33C0.45 9.59 0.81 9.6 1.06 9.34L7.3 3.1L8.79 1.41L8.45 1.27L8.27 5.01L8.29 7.24C8.29 7.39 8.37 7.55 8.48 7.67C8.73 7.91 9.1 7.9 9.34 7.66C9.46 7.54 9.51 7.4 9.52 7.2L9.53 0.66C9.53 0.46 9.47 0.3 9.35 0.18Z" fill="#858585" fill-opacity="0.850000" fill-rule="nonzero"/>
</svg>
