<svg width="94.006836" height="94.000000" viewBox="0 0 94.0068 94" fill="none" xmlns="http://www.w3.org/2000/svg" xmlns:xlink="http://www.w3.org/1999/xlink">
	<desc>
			Created with Pixso.
	</desc>
	<defs/>
	<path id="Ellipse 227" d="M47 94C72.93 94 94 72.93 94 47C94 21.06 72.93 0 47 0C21.06 0 0 21.06 0 47C0 72.93 21.06 94 47 94ZM81.05 18.42C87.55 26.15 91.47 36.12 91.47 47C91.46 57.09 88.05 67.25 81.05 75.57C74.57 83.31 65.43 88.9 54.71 90.78C44.77 92.54 34.18 90.95 24.76 85.5C16.02 80.46 8.93 72.42 5.22 62.2C1.76 52.71 1.49 42 5.22 31.79C8.66 22.3 15.34 13.92 24.77 8.49C33.51 3.44 44.01 1.31 54.72 3.21C64.66 4.96 74.07 10.08 81.05 18.42Z" fill="#FFFFFF" fill-opacity="1.000000" fill-rule="evenodd"/>
	<path id="Ellipse 228" d="M48.26 0.01C58.37 0.28 67.69 3.75 75.24 9.44C83.71 15.8 89.42 24.49 92.14 33.95C94.96 43.7 94.48 53.62 91.36 62.52C91.12 63.18 90.39 63.51 89.74 63.26C89.09 63.01 88.76 62.28 88.99 61.62C92.13 52.61 92.2 43.23 89.71 34.66C86.94 25.02 81.17 17.05 73.72 11.46C66.07 5.7 57.16 2.79 48.26 2.54C47.56 2.52 47 1.96 47 1.26C47 0.56 47.56 -0.01 48.26 0.01Z" fill="#22C35D" fill-opacity="1.000000" fill-rule="evenodd"/>
	<rect id="Rectangle 3951" x="26.000000" y="27.000000" rx="21.000000" width="42.000000" height="42.000000" fill="#22C35D" fill-opacity="1.000000"/>
	<rect id="Rectangle 3951" x="26.500000" y="27.500000" rx="20.500000" width="41.000000" height="41.000000" stroke="#22C35D" stroke-opacity="0" stroke-width="1.000000"/>
	<path id="Vector" d="M38.87 49.38L43.4 53.91L54.74 42.58" stroke="#FFFFFF" stroke-opacity="1.000000" stroke-width="2.000000" stroke-linejoin="round" stroke-linecap="round"/>
</svg>
