<svg width="83.339844" height="36.158691" viewBox="0 0 83.3398 36.1587" fill="none" xmlns="http://www.w3.org/2000/svg" xmlns:xlink="http://www.w3.org/1999/xlink">
	<desc>
			Created with Pixso.
	</desc>
	<defs/>
	<g opacity="0.923000">
		<path id="Vector" d="M58.81 0C60.02 0 61.24 0 62.45 0C62.45 0.02 62.45 0.05 62.45 0.07C62.52 0.08 62.58 0.1 62.64 0.14C62.78 0.15 62.92 0.16 63.06 0.17C63.13 0.17 63.18 0.2 63.22 0.25C63.36 0.26 63.5 0.28 63.64 0.3C63.67 0.34 63.71 0.36 63.75 0.38C63.89 0.37 64.01 0.4 64.12 0.48C64.25 0.48 64.36 0.51 64.46 0.59C64.58 0.58 64.68 0.62 64.75 0.7C64.87 0.69 64.96 0.73 65.04 0.8C65.2 0.84 65.35 0.9 65.49 0.96C65.52 0.99 65.55 1.01 65.57 1.04C65.76 1 65.85 1.07 65.84 1.26C65.84 1.34 65.81 1.41 65.74 1.45C65.73 1.55 65.68 1.64 65.61 1.71C65.6 1.8 65.56 1.88 65.51 1.95C65.51 2.08 65.48 2.19 65.4 2.29C65.38 2.66 65.38 3.03 65.4 3.4C65.47 3.52 65.51 3.65 65.52 3.79C65.53 3.82 65.56 3.84 65.59 3.85C65.59 3.92 65.6 3.98 65.61 4.04C65.69 4.09 65.73 4.16 65.74 4.25C65.97 4.58 66.19 4.91 66.41 5.26C66.54 5.39 66.65 5.54 66.75 5.7C66.8 5.77 66.86 5.82 66.93 5.86C66.94 5.93 66.96 5.99 66.99 6.05C67.01 6.22 67 6.39 66.93 6.55C66.87 6.61 66.81 6.67 66.75 6.74C66.66 6.77 66.56 6.77 66.47 6.74C66.37 6.61 66.34 6.47 66.37 6.31C66.32 6.31 66.28 6.31 66.23 6.33C66.21 6.36 66.17 6.39 66.13 6.4C66 6.41 65.88 6.42 65.76 6.43C65.68 6.48 65.61 6.5 65.52 6.51C64.87 6.53 64.22 6.53 63.56 6.51C63.41 6.45 63.27 6.38 63.14 6.29C63.14 6.13 63.14 5.97 63.15 5.81C63.17 5.75 63.2 5.68 63.23 5.62C63.24 5.46 63.26 5.29 63.29 5.12C63.36 5.01 63.4 4.89 63.39 4.75C63.42 4.73 63.45 4.72 63.47 4.7C63.52 4.57 63.56 4.44 63.6 4.3C63.96 3.94 64.35 3.62 64.78 3.35C64.57 3.23 64.38 3.09 64.2 2.93C63.96 2.67 63.7 2.43 63.43 2.2C63.34 2.21 63.27 2.17 63.22 2.1C63.1 2.1 62.99 2.06 62.9 1.99C62.76 1.97 62.62 1.96 62.48 1.96C62.47 1.98 62.46 2 62.45 2.02C62.5 2.13 62.52 2.25 62.52 2.37C62.59 2.41 62.62 2.48 62.63 2.56C62.76 2.68 62.86 2.83 62.94 2.98C62.96 3.19 62.96 3.41 62.93 3.62C62.9 3.61 62.87 3.62 62.85 3.64C62.83 3.7 62.82 3.76 62.81 3.83C62.78 3.85 62.75 3.86 62.72 3.85C62.67 3.96 62.63 4.07 62.59 4.17C62.56 4.17 62.53 4.17 62.51 4.18C62.16 4.56 61.82 4.94 61.49 5.33C61.52 5.41 61.49 5.47 61.42 5.52C61.4 5.61 61.37 5.71 61.36 5.81C61.35 5.82 61.33 5.83 61.32 5.84C61.29 5.97 61.28 6.1 61.28 6.23C61.25 6.34 61.19 6.43 61.11 6.5C60.99 6.51 60.87 6.54 60.75 6.58C60.67 6.54 60.58 6.52 60.5 6.51C60.46 6.45 60.41 6.42 60.34 6.4C60.17 6.21 60 6 59.85 5.78C59.83 5.73 59.82 5.68 59.81 5.62C59.78 5.63 59.75 5.62 59.72 5.6C59.73 5.49 59.69 5.4 59.61 5.33C59.6 5.25 59.59 5.16 59.59 5.07C59.53 4.97 59.49 4.87 59.47 4.77C59.47 4.74 59.48 4.72 59.49 4.7C59.45 4.64 59.41 4.59 59.36 4.53C59.37 4.52 59.38 4.5 59.39 4.49C59.31 4.41 59.26 4.31 59.24 4.2C59.22 4.18 59.19 4.16 59.16 4.14C59.12 4.05 59.07 3.95 59.03 3.85C59.01 3.84 58.98 3.82 58.96 3.8C58.94 3.71 58.92 3.63 58.9 3.54C58.82 3.4 58.73 3.27 58.63 3.14C58.61 2.95 58.53 2.78 58.38 2.65C58.2 2.63 58.01 2.64 57.83 2.66C57.69 2.66 57.58 2.61 57.5 2.51C57.49 2.43 57.46 2.36 57.41 2.31C57.32 2.28 57.25 2.3 57.19 2.37C56.91 2.43 56.68 2.58 56.49 2.8C56.48 2.88 56.44 2.96 56.37 3.02C56.38 3.12 56.38 3.22 56.37 3.33C56.41 3.44 56.49 3.51 56.61 3.52C56.67 3.6 56.75 3.64 56.85 3.63C56.87 3.66 56.89 3.69 56.93 3.71C57.06 3.75 57.19 3.8 57.33 3.84C57.34 3.87 57.36 3.89 57.38 3.92C57.47 3.98 57.57 4.04 57.67 4.09C57.75 4.2 57.8 4.31 57.84 4.44C57.92 4.54 57.95 4.67 57.95 4.81C58.09 5.13 58.06 5.44 57.85 5.72C57.67 5.77 57.51 5.74 57.35 5.64C57.28 5.63 57.21 5.62 57.14 5.61C57.08 5.54 57 5.5 56.9 5.51C56.76 5.4 56.61 5.29 56.47 5.18C56.45 5.06 56.45 4.95 56.47 4.83C56.49 4.77 56.54 4.73 56.6 4.7C56.64 4.56 56.61 4.43 56.51 4.33C56.36 4.3 56.21 4.29 56.06 4.32C56.06 4.6 56.06 4.89 56.04 5.18C55.92 5.4 55.74 5.55 55.5 5.64C55.42 5.71 55.34 5.77 55.26 5.84C55.06 5.94 54.87 6.06 54.68 6.19C54.6 6.31 54.5 6.41 54.38 6.5C54.33 6.56 54.29 6.62 54.26 6.7C54.26 6.75 54.28 6.8 54.31 6.84C54.41 6.93 54.5 7.03 54.58 7.13C54.71 7.22 54.86 7.31 55 7.38C55.05 7.39 55.11 7.4 55.16 7.41C55.28 7.47 55.41 7.53 55.53 7.59C55.64 7.59 55.72 7.62 55.79 7.7C55.87 7.71 55.95 7.72 56.03 7.73C56.16 7.81 56.3 7.85 56.45 7.86C56.5 7.9 56.55 7.93 56.61 7.94C56.82 7.96 57.04 7.96 57.25 7.92C57.24 7.42 57.25 6.91 57.27 6.39C57.3 6.4 57.33 6.39 57.35 6.37C57.38 6.3 57.43 6.24 57.48 6.19C57.57 6.17 57.64 6.13 57.7 6.06C57.78 6.04 57.85 6.04 57.93 6.06C58.15 6.2 58.38 6.32 58.62 6.4C58.8 6.55 58.97 6.7 59.14 6.87C59.25 7.08 59.39 7.27 59.57 7.42C59.67 7.63 59.78 7.82 59.9 8C59.93 8.08 59.95 8.16 59.96 8.24C59.98 8.28 60.01 8.31 60.04 8.35C60.05 8.62 60.05 8.89 60.04 9.17C59.97 9.25 59.89 9.32 59.81 9.38C59.71 9.4 59.62 9.43 59.55 9.5C59.33 9.53 59.11 9.58 58.91 9.66C58.84 9.73 58.75 9.77 58.65 9.76C58.59 9.84 58.51 9.87 58.41 9.87C58.37 9.94 58.31 9.97 58.22 9.97C57.73 10.34 57.34 10.8 57.08 11.36C57.05 11.44 57.03 11.52 57.02 11.6C56.95 11.63 56.92 11.69 56.96 11.76C56.94 11.85 56.92 11.95 56.92 12.05C56.83 12.23 56.8 12.42 56.81 12.63C56.76 12.74 56.71 12.84 56.64 12.93C56.43 12.98 56.22 12.98 56 12.96C55.91 12.89 55.81 12.85 55.69 12.85C55.62 12.83 55.56 12.8 55.5 12.75C55.45 12.74 55.4 12.73 55.34 12.72C55.23 12.66 55.11 12.6 55 12.54C54.9 12.54 54.82 12.51 54.76 12.43C54.71 12.42 54.66 12.41 54.6 12.4C54.52 12.34 54.43 12.28 54.34 12.22C54.27 12.19 54.2 12.17 54.13 12.17C54.05 12.09 53.95 12.05 53.84 12.06C53.77 11.99 53.69 11.95 53.59 11.97C53.49 11.95 53.41 11.98 53.36 12.06C53.32 12.07 53.27 12.08 53.23 12.1C52.97 12.3 52.76 12.55 52.61 12.84C52.61 12.95 52.58 13.03 52.5 13.11C52.49 13.17 52.48 13.23 52.49 13.29C52.62 13.3 52.75 13.28 52.89 13.25C52.97 13.17 53.06 13.14 53.18 13.14C53.2 13.12 53.23 13.09 53.26 13.07C53.43 13.05 53.61 13.05 53.78 13.07C53.88 13.13 53.96 13.2 54.02 13.29C54.05 13.39 54.09 13.49 54.14 13.58C54.15 13.82 54.16 14.06 54.15 14.29C54.05 14.29 53.96 14.32 53.89 14.39C53.7 14.39 53.53 14.44 53.36 14.52C53.22 14.52 53.08 14.55 52.95 14.61C52.91 14.59 52.87 14.56 52.83 14.55C52.7 14.54 52.57 14.53 52.44 14.52C52.38 14.51 52.34 14.49 52.3 14.44C52.12 14.41 51.94 14.36 51.78 14.28C51.73 14.21 51.67 14.18 51.59 14.18C51.51 14.1 51.44 14.03 51.37 13.95C51.36 13.81 51.35 13.67 51.34 13.53C51.27 13.39 51.23 13.24 51.22 13.08C51.19 13.07 51.17 13.05 51.15 13.03C51.15 12.96 51.14 12.9 51.13 12.84C51.05 12.71 50.98 12.57 50.9 12.44C50.76 12.27 50.59 12.11 50.4 11.98C50.36 11.97 50.31 11.96 50.27 11.97C50.26 12.34 50.27 12.71 50.28 13.08C50.36 13.37 50.4 13.67 50.39 13.98C50.48 14.18 50.53 14.39 50.52 14.61C50.57 14.64 50.59 14.69 50.6 14.74C50.62 14.86 50.62 14.97 50.6 15.09C50.52 15.14 50.44 15.17 50.35 15.18C49.78 15.2 49.2 15.2 48.63 15.18C48.61 15.16 48.6 15.14 48.59 15.11C48.6 14.88 48.57 14.66 48.48 14.45C48.48 14.29 48.47 14.12 48.45 13.95C48.42 13.91 48.4 13.86 48.38 13.82C48.38 13.58 48.35 13.35 48.27 13.13C48.25 12.56 48.25 11.99 48.27 11.41C48.35 11.09 48.39 10.77 48.38 10.44C48.4 10.38 48.43 10.33 48.46 10.28C48.47 10.12 48.48 9.96 48.48 9.8C48.56 9.67 48.6 9.53 48.59 9.38C48.63 9.29 48.67 9.2 48.71 9.1C48.71 9.08 48.7 9.06 48.68 9.05C48.7 8.99 48.72 8.94 48.72 8.88C48.76 8.85 48.79 8.82 48.8 8.77C48.79 8.65 48.83 8.54 48.91 8.45C48.92 8.37 48.92 8.29 48.93 8.22C49.01 8.16 49.04 8.08 49.04 7.98C49.07 7.9 49.11 7.83 49.16 7.77C49.14 7.68 49.16 7.62 49.24 7.57C49.25 7.51 49.27 7.45 49.28 7.4C49.34 7.28 49.4 7.17 49.46 7.05C49.47 7 49.48 6.95 49.49 6.89C49.51 6.85 49.54 6.84 49.58 6.84C49.6 6.79 49.6 6.75 49.58 6.71C49.64 6.66 49.68 6.6 49.71 6.54C49.69 6.51 49.68 6.48 49.7 6.44C49.76 6.34 49.83 6.24 49.91 6.15C49.95 6.02 50.02 5.9 50.12 5.81C50.13 5.72 50.18 5.65 50.26 5.6C50.31 5.52 50.35 5.43 50.39 5.33C50.66 5 50.92 4.65 51.18 4.3C51.57 3.95 51.93 3.57 52.28 3.18C52.68 2.84 53.1 2.5 53.52 2.18C53.76 2.03 54 1.88 54.23 1.73C54.33 1.73 54.4 1.7 54.45 1.62C54.53 1.55 54.63 1.51 54.74 1.48C54.78 1.41 54.84 1.38 54.92 1.38C54.97 1.37 55 1.34 55.03 1.29C55.15 1.23 55.28 1.17 55.42 1.13C55.44 1.11 55.46 1.09 55.48 1.07C55.62 1.03 55.76 0.99 55.9 0.93C56.04 0.86 56.18 0.79 56.32 0.72C56.38 0.71 56.45 0.7 56.51 0.7C56.63 0.63 56.75 0.57 56.88 0.51C56.96 0.5 57.04 0.49 57.11 0.48C57.17 0.48 57.21 0.45 57.25 0.4C57.39 0.41 57.52 0.37 57.64 0.3C57.84 0.29 58.02 0.25 58.2 0.17C58.34 0.16 58.48 0.15 58.62 0.14C58.68 0.1 58.74 0.08 58.81 0.07C58.81 0.05 58.81 0.02 58.81 0Z" fill="#FFFFFF" fill-opacity="1.000000" fill-rule="evenodd"/>
	</g>
	<g opacity="0.995000">
		<path id="Vector" d="M0 0.02C1.7 0.01 3.41 0.02 5.11 0.05C7.49 4.64 9.88 9.23 12.27 13.82C14.7 9.24 17.11 4.65 19.5 0.05C21.19 0.02 22.88 0.01 24.58 0.02C24.58 8.14 24.58 16.25 24.58 24.37C22.99 24.37 21.41 24.37 19.82 24.37C19.82 19.04 19.82 13.7 19.81 8.37C17.73 12.33 15.66 16.28 13.59 20.24C12.73 20.28 11.86 20.28 10.99 20.24C8.91 16.28 6.83 12.32 4.77 8.35C4.75 13.69 4.75 19.03 4.75 24.37C3.17 24.37 1.58 24.37 0 24.37C0 16.25 0 8.14 0 0.02Z" fill="#FFFFFF" fill-opacity="1.000000" fill-rule="evenodd"/>
	</g>
	<g opacity="0.993000">
		<path id="Vector" d="M35.68 0.02C37.09 0.01 38.5 0.02 39.91 0.05C42.99 8.15 46.07 16.25 49.16 24.35C47.55 24.37 45.95 24.37 44.35 24.34C44.04 23.48 43.72 22.63 43.41 21.77C42.64 19.5 41.86 17.23 41.07 14.97C41.09 14.96 41.11 14.95 41.12 14.93C39.97 11.7 38.85 8.47 37.74 5.23C36.93 7.53 36.14 9.84 35.35 12.15C35.01 13.08 34.67 14.01 34.33 14.93C34.34 14.95 34.36 14.96 34.38 14.97C33.31 18.09 32.23 21.21 31.16 24.34C29.57 24.37 27.99 24.37 26.4 24.35C29.5 16.24 32.59 8.13 35.68 0.02Z" fill="#FFFFFF" fill-opacity="1.000000" fill-rule="evenodd"/>
	</g>
	<g opacity="0.939000">
		<path id="Vector" d="M83.33 3.62C83.33 3.87 83.33 4.13 83.33 4.38C83.29 4.38 83.25 4.39 83.22 4.44C83.16 4.61 83.07 4.76 82.95 4.88C82.9 4.95 82.85 5.02 82.82 5.1C82.62 5.3 82.43 5.51 82.25 5.73C81.94 6.01 81.61 6.27 81.27 6.51C81.19 6.5 81.12 6.54 81.09 6.62C80.91 6.7 80.75 6.81 80.61 6.96C80.43 7.08 80.24 7.19 80.06 7.3C79.99 7.37 79.93 7.44 79.87 7.51C79.84 7.52 79.8 7.53 79.77 7.54C79.52 7.73 79.26 7.9 79 8.07C78.92 8.07 78.87 8.1 78.84 8.18C78.81 8.18 78.77 8.19 78.74 8.2C78.58 8.3 78.43 8.4 78.29 8.51C78.2 8.51 78.14 8.55 78.1 8.62C78.05 8.63 78 8.64 77.96 8.66C77.95 9.82 77.94 10.97 77.93 12.13C77.89 12.48 77.86 12.83 77.85 13.18C77.84 14.14 77.83 15.09 77.82 16.04C77.78 16.07 77.75 16.12 77.75 16.17C77.74 16.3 77.73 16.44 77.72 16.57C77.65 16.72 77.57 16.87 77.48 17.02C77.39 17.12 77.29 17.21 77.18 17.29C77.1 17.3 77.03 17.33 76.99 17.4C76.88 17.39 76.78 17.43 76.7 17.51C76.41 17.52 76.12 17.52 75.83 17.51C75.68 17.37 75.57 17.22 75.5 17.04C75.45 16.88 75.4 16.71 75.37 16.54C75.34 16.52 75.31 16.51 75.29 16.49C75.28 16.42 75.27 16.35 75.26 16.28C75.25 16.22 75.23 16.18 75.18 16.14C75.17 16.09 75.16 16.03 75.14 15.97C75.16 15.88 75.13 15.79 75.05 15.72C75.04 15.65 75.03 15.58 75.04 15.51C75 15.52 74.97 15.51 74.94 15.48C74.95 15.36 74.91 15.26 74.84 15.17C74.84 15.06 74.8 14.96 74.73 14.88C74.72 14.81 74.71 14.74 74.71 14.66C74.62 14.58 74.58 14.47 74.57 14.35C74.56 14.31 74.53 14.29 74.49 14.27C74.5 14.15 74.47 14.04 74.39 13.95C74.37 13.88 74.37 13.81 74.37 13.74C74.33 13.74 74.3 13.73 74.28 13.69C74.29 13.57 74.25 13.48 74.18 13.4C74.17 13.33 74.16 13.27 74.14 13.21C74.12 13.19 74.09 13.18 74.06 13.18C74.04 13.14 74.04 13.09 74.06 13.05C73.97 12.88 73.89 12.71 73.83 12.52C73.82 12.45 73.82 12.38 73.81 12.31C73.78 12.29 73.75 12.28 73.73 12.26C73.69 12.09 73.65 11.92 73.59 11.76C73.5 11.66 73.45 11.53 73.46 11.39C73.44 11.35 73.41 11.32 73.37 11.31C73.22 11.38 73.07 11.46 72.92 11.53C72.89 11.56 72.87 11.59 72.84 11.61C72.69 11.69 72.53 11.74 72.37 11.77C72.3 11.85 72.21 11.88 72.1 11.88C72.01 11.95 71.91 11.99 71.78 11.98C71.69 12.06 71.57 12.1 71.44 12.09C71.38 12.09 71.34 12.12 71.31 12.17C71.22 12.18 71.13 12.18 71.04 12.19C70.84 12.27 70.64 12.35 70.44 12.43C70.42 12.45 70.41 12.47 70.4 12.5C70.39 12.6 70.38 12.71 70.37 12.81C70.32 12.85 70.3 12.89 70.29 12.95C70.28 13.04 70.27 13.14 70.26 13.24C70.24 13.26 70.21 13.29 70.19 13.32C70.18 13.4 70.17 13.48 70.16 13.55C70.08 13.66 70.04 13.79 70.05 13.92C70.03 14.01 69.99 14.08 69.93 14.15C69.96 14.28 69.93 14.4 69.84 14.51C69.83 14.61 69.82 14.72 69.82 14.82C69.77 14.85 69.75 14.88 69.74 14.93C69.73 15.01 69.72 15.09 69.71 15.17C69.7 15.22 69.68 15.27 69.63 15.3C69.62 15.4 69.61 15.49 69.6 15.59C69.59 15.61 69.57 15.63 69.55 15.64C69.5 15.87 69.44 16.09 69.37 16.3C69.34 16.33 69.32 16.36 69.3 16.4C69.21 16.41 69.13 16.45 69.06 16.5C68.91 16.52 68.76 16.52 68.61 16.5C68.55 16.43 68.47 16.4 68.37 16.41C68.35 16.29 68.32 16.18 68.28 16.07C68.27 15.89 68.26 15.71 68.26 15.54C68.16 15.36 68.12 15.16 68.12 14.96C68.09 14.91 68.07 14.85 68.04 14.8C68.04 14.67 68.03 14.55 68.02 14.43C67.97 14.39 67.94 14.33 67.94 14.27C67.93 14.15 67.92 14.04 67.91 13.92C67.89 13.88 67.87 13.83 67.83 13.79C67.82 13.68 67.82 13.56 67.81 13.45C67.77 13.41 67.75 13.37 67.73 13.32C67.72 13.19 67.71 13.07 67.7 12.95C67.69 12.89 67.67 12.85 67.62 12.81C67.6 12.69 67.58 12.57 67.57 12.44C67.11 12.03 66.67 11.61 66.23 11.19C66.16 11.16 66.09 11.11 66.02 11.06C65.97 11.02 65.94 10.97 65.93 10.91C65.59 10.61 65.26 10.3 64.94 9.97C64.82 9.95 64.78 9.87 64.81 9.75C64.77 9.75 64.74 9.74 64.71 9.72C64.69 9.59 64.7 9.46 64.74 9.33C64.88 9.2 65.02 9.08 65.18 8.97C65.4 8.92 65.62 8.92 65.84 8.97C65.87 9.01 65.9 9.03 65.94 9.05C66.07 9.04 66.19 9.07 66.29 9.15C66.43 9.14 66.57 9.18 66.68 9.26C66.82 9.25 66.95 9.29 67.05 9.37C67.14 9.37 67.23 9.38 67.32 9.39C67.45 9.48 67.6 9.52 67.77 9.52C67.8 9.57 67.84 9.6 67.9 9.6C67.99 9.61 68.08 9.62 68.16 9.63C68.2 9.68 68.24 9.7 68.29 9.71C68.42 9.7 68.52 9.74 68.61 9.81C68.7 9.82 68.79 9.83 68.88 9.84C68.98 9.93 69.11 9.96 69.25 9.92C69.97 9.18 70.77 8.54 71.64 8C71.65 7.94 71.63 7.88 71.59 7.82C71.38 7.57 71.17 7.31 70.98 7.05C70.88 6.88 70.76 6.72 70.63 6.58C70.55 6.4 70.44 6.25 70.29 6.13C70.21 5.97 70.1 5.82 69.97 5.7C69.89 5.53 69.78 5.38 69.63 5.26C69.47 5.03 69.31 4.8 69.15 4.57C68.95 4.35 68.76 4.12 68.59 3.88C68.53 3.81 68.46 3.73 68.39 3.67C68.31 3.52 68.23 3.37 68.15 3.22C68.04 3.12 67.96 3.01 67.9 2.88C67.88 2.85 67.85 2.84 67.82 2.85C67.82 2.7 67.82 2.55 67.83 2.4C67.9 2.35 67.95 2.28 67.96 2.19C68.12 2.04 68.27 1.88 68.43 1.73C68.65 1.64 68.87 1.57 69.1 1.5C69.25 1.57 69.4 1.61 69.56 1.62C69.64 1.69 69.72 1.73 69.83 1.73C69.9 1.79 69.99 1.84 70.09 1.86C70.24 1.96 70.39 2.05 70.54 2.15C70.66 2.2 70.77 2.27 70.86 2.36C70.97 2.42 71.09 2.48 71.2 2.53C71.25 2.6 71.31 2.63 71.39 2.62C71.47 2.69 71.54 2.74 71.63 2.8C71.67 2.81 71.71 2.83 71.76 2.84C72.04 3.01 72.32 3.19 72.6 3.37C72.79 3.44 72.96 3.54 73.11 3.68C73.22 3.73 73.34 3.78 73.45 3.84C73.47 3.87 73.48 3.89 73.5 3.92C73.78 4.02 74.06 4.14 74.32 4.29C74.36 4.37 74.42 4.4 74.51 4.4C74.66 4.5 74.82 4.61 74.98 4.71C75.18 4.78 75.34 4.88 75.48 5.03C75.57 5.03 75.63 5.07 75.67 5.14C75.8 5.21 75.94 5.29 76.08 5.36C76.14 5.31 76.22 5.27 76.3 5.26C76.35 5.19 76.41 5.16 76.49 5.16C76.56 5.08 76.65 5.03 76.75 5.02C76.77 5 76.79 4.98 76.81 4.95C76.9 4.95 76.97 4.92 77.02 4.85C77.07 4.84 77.12 4.83 77.18 4.82C77.23 4.75 77.3 4.71 77.39 4.71C77.49 4.65 77.58 4.58 77.68 4.5C77.77 4.5 77.84 4.47 77.89 4.4C77.93 4.39 77.98 4.38 78.02 4.37C78.22 4.28 78.42 4.19 78.6 4.08C78.7 4.06 78.8 4.04 78.89 4.03C79.01 3.96 79.12 3.9 79.24 3.84C79.34 3.85 79.42 3.81 79.48 3.73C79.53 3.73 79.58 3.72 79.63 3.71C79.72 3.64 79.81 3.59 79.93 3.58C80 3.5 80.08 3.47 80.19 3.47C80.27 3.39 80.36 3.36 80.48 3.37C80.58 3.29 80.69 3.25 80.82 3.26C80.92 3.18 81.04 3.15 81.17 3.15C81.22 3.15 81.27 3.12 81.3 3.07C81.42 3.07 81.55 3.06 81.67 3.05C81.91 2.96 82.15 2.93 82.41 2.97C82.58 3.02 82.75 3.09 82.91 3.18C83.04 3.31 83.15 3.44 83.26 3.59C83.28 3.61 83.3 3.62 83.33 3.62Z" fill="#FFFFFF" fill-opacity="1.000000" fill-rule="evenodd"/>
	</g>
	<g opacity="0.004000">
		<path id="Vector" d="M56.53 2.88C56.58 2.88 56.62 2.88 56.67 2.88C56.67 2.92 56.67 2.96 56.67 3.01C56.62 3.01 56.58 3.01 56.53 3.01C56.53 2.96 56.53 2.92 56.53 2.88Z" fill="#FFFFFF" fill-opacity="1.000000" fill-rule="evenodd"/>
	</g>
	<g opacity="0.939000">
		<path id="Vector" d="M64.67 11.39C64.79 11.38 64.9 11.39 65.02 11.41C65.34 11.76 65.67 12.09 66.04 12.39C66.09 12.46 66.14 12.53 66.18 12.6C66.36 12.76 66.54 12.92 66.71 13.08C66.73 13.17 66.74 13.27 66.75 13.37C66.8 13.41 66.83 13.46 66.83 13.53C66.84 13.63 66.85 13.74 66.85 13.85C66.87 13.91 66.89 13.96 66.93 14C66.94 14.14 66.95 14.27 66.96 14.4C66.99 14.44 67.01 14.49 67.04 14.53C67.04 14.67 67.06 14.82 67.08 14.96C67.1 14.99 67.12 15.03 67.15 15.06C67.15 15.29 67.18 15.51 67.22 15.72C67.14 15.74 67.06 15.78 67 15.84C66.94 15.85 66.88 15.86 66.82 15.87C66.7 15.93 66.59 16 66.48 16.07C66.39 16.07 66.33 16.11 66.29 16.18C66.18 16.22 66.07 16.26 65.97 16.32C65.94 16.34 65.92 16.37 65.89 16.4C65.76 16.43 65.64 16.47 65.52 16.53C65.39 16.61 65.26 16.68 65.12 16.74C65.02 16.73 64.95 16.77 64.89 16.85C64.78 16.84 64.69 16.87 64.62 16.95C64.52 16.95 64.43 16.98 64.36 17.06C64.24 17.05 64.15 17.09 64.07 17.16C63.99 17.19 63.91 17.21 63.83 17.22C63.76 17.29 63.67 17.33 63.56 17.32C63.49 17.4 63.39 17.44 63.27 17.43C63.18 17.5 63.08 17.54 62.96 17.53C62.91 17.55 62.88 17.58 62.85 17.61C62.64 17.66 62.43 17.72 62.22 17.77C62.19 17.81 62.15 17.83 62.11 17.85C61.97 17.84 61.85 17.88 61.74 17.96C61.65 17.96 61.56 17.97 61.48 17.98C61.44 18 61.41 18.03 61.4 18.06C61.31 18.07 61.22 18.08 61.13 18.09C61.07 18.1 61.02 18.13 60.97 18.17C60.73 18.16 60.5 18.2 60.29 18.3C60.13 18.29 59.99 18.33 59.86 18.4C59.75 18.41 59.63 18.42 59.52 18.43C59.48 18.46 59.43 18.48 59.39 18.51C59.27 18.52 59.16 18.53 59.04 18.54C59 18.55 58.97 18.58 58.94 18.62C58.81 18.62 58.67 18.63 58.54 18.64C58.33 18.74 58.11 18.78 57.88 18.77C57.82 18.82 57.75 18.84 57.67 18.85C57.52 18.86 57.37 18.87 57.22 18.88C57.18 18.91 57.13 18.93 57.09 18.96C56.92 18.97 56.75 18.98 56.59 18.99C56.52 19.01 56.46 19.03 56.4 19.07C56.2 19.07 56 19.08 55.79 19.09C55.72 19.1 55.65 19.13 55.58 19.17C55.32 19.18 55.05 19.19 54.79 19.2C54.69 19.2 54.61 19.23 54.52 19.28C53.77 19.29 53.02 19.33 52.26 19.4C51.69 19.34 51.11 19.3 50.53 19.28C50.48 19.23 50.42 19.2 50.35 19.2C50.17 19.19 50 19.18 49.82 19.17C49.79 19.13 49.76 19.11 49.71 19.09C49.57 19.1 49.43 19.07 49.32 18.99C49.2 19 49.1 18.96 49.03 18.88C48.92 18.88 48.83 18.85 48.76 18.77C48.7 18.75 48.64 18.74 48.58 18.72C48.42 18.6 48.25 18.5 48.08 18.4C47.96 18.27 47.84 18.15 47.69 18.05C47.64 17.96 47.58 17.88 47.51 17.81C47.5 17.68 47.45 17.57 47.37 17.47C47.37 17.36 47.36 17.25 47.35 17.15C47.28 17.07 47.24 16.97 47.24 16.86C47.16 16.78 47.13 16.68 47.14 16.57C47.12 16.53 47.09 16.51 47.04 16.52C47.05 16.45 47.04 16.39 47.03 16.33C46.95 16.08 46.84 15.84 46.71 15.62C46.71 15.55 46.7 15.49 46.69 15.43C46.63 15.41 46.6 15.37 46.57 15.33C46.53 14.87 46.53 14.41 46.57 13.95C46.58 13.89 46.62 13.84 46.69 13.82C46.68 13.71 46.72 13.63 46.81 13.58C46.88 13.4 46.99 13.25 47.14 13.13C47.19 13.05 47.24 12.96 47.28 12.87C47.37 12.83 47.45 12.83 47.53 12.87C47.59 13.44 47.61 14.01 47.61 14.59C47.7 14.75 47.73 14.92 47.71 15.1C47.71 15.19 47.74 15.26 47.8 15.33C47.82 15.54 47.86 15.74 47.93 15.93C48.05 16.01 48.17 16.05 48.31 16.05C48.8 16.06 49.28 16.06 49.77 16.05C50.13 15.97 50.5 15.92 50.88 15.92C50.94 15.88 51.01 15.85 51.09 15.84C51.25 15.83 51.41 15.82 51.56 15.81C51.62 15.8 51.68 15.77 51.72 15.74C51.86 15.73 52 15.72 52.15 15.71C52.21 15.69 52.27 15.66 52.33 15.63C52.52 15.62 52.72 15.61 52.91 15.6C52.97 15.6 53.01 15.57 53.04 15.52C53.16 15.51 53.27 15.51 53.39 15.5C53.45 15.49 53.51 15.47 53.55 15.42C53.68 15.39 53.81 15.37 53.94 15.37C53.98 15.32 54.02 15.29 54.08 15.29C54.18 15.28 54.29 15.27 54.39 15.26C54.42 15.23 54.45 15.21 54.47 15.18C54.62 15.19 54.75 15.15 54.87 15.07C54.96 15.07 55.06 15.06 55.16 15.05C55.27 14.97 55.39 14.93 55.53 14.94C55.66 14.85 55.81 14.81 55.98 14.81C56.01 14.76 56.05 14.74 56.11 14.73C56.19 14.72 56.27 14.71 56.35 14.7C56.46 14.62 56.58 14.59 56.72 14.6C56.8 14.52 56.89 14.48 57.01 14.49C57.11 14.41 57.22 14.38 57.35 14.39C57.47 14.29 57.6 14.25 57.75 14.26C57.84 14.18 57.94 14.14 58.07 14.15C58.16 14.07 58.26 14.04 58.38 14.04C58.47 13.97 58.58 13.93 58.7 13.94C58.8 13.86 58.92 13.82 59.04 13.81C59.07 13.78 59.1 13.75 59.12 13.73C59.29 13.69 59.45 13.65 59.6 13.59C59.69 13.52 59.79 13.48 59.92 13.49C59.95 13.47 59.98 13.44 60 13.41C60.21 13.34 60.43 13.29 60.66 13.25C60.74 13.17 60.83 13.14 60.95 13.14C61.02 13.07 61.1 13.03 61.21 13.04C61.32 12.97 61.42 12.91 61.53 12.85C61.58 12.85 61.63 12.84 61.69 12.83C61.91 12.72 62.13 12.61 62.35 12.51C62.45 12.52 62.53 12.48 62.59 12.4C62.72 12.36 62.85 12.32 62.98 12.27C63.06 12.2 63.16 12.15 63.27 12.14C63.33 12.06 63.41 12.03 63.51 12.03C63.59 11.97 63.67 11.92 63.75 11.86C63.88 11.82 64 11.77 64.12 11.72C64.23 11.64 64.35 11.57 64.46 11.51C64.57 11.52 64.64 11.48 64.67 11.39Z" fill="#FFFFFF" fill-opacity="1.000000" fill-rule="evenodd"/>
	</g>
	<g opacity="0.004000">
		<path id="Vector" d="M47.76 13.79C47.8 13.79 47.85 13.79 47.89 13.79C47.89 13.83 47.89 13.86 47.89 13.9C47.85 13.9 47.82 13.9 47.78 13.9C47.79 13.95 47.78 13.99 47.74 14.03C47.74 13.95 47.74 13.87 47.76 13.79Z" fill="#FFFFFF" fill-opacity="1.000000" fill-rule="evenodd"/>
	</g>
	<g opacity="0.006000">
		<path id="Vector" d="M50.61 14.19C50.65 14.2 50.68 14.21 50.72 14.22C50.73 14.24 50.74 14.26 50.74 14.28C50.71 14.38 50.67 14.47 50.62 14.56C50.61 14.44 50.61 14.31 50.61 14.19Z" fill="#FFFFFF" fill-opacity="1.000000" fill-rule="evenodd"/>
	</g>
	<g opacity="0.004000">
		<path id="Vector" d="M48.07 15.56C48.12 15.59 48.16 15.59 48.19 15.56C48.21 15.62 48.22 15.68 48.23 15.74C48.23 15.78 48.2 15.82 48.15 15.83C48.12 15.81 48.09 15.8 48.05 15.8C48.05 15.72 48.06 15.64 48.07 15.56Z" fill="#FFFFFF" fill-opacity="1.000000" fill-rule="evenodd"/>
	</g>
	<g opacity="0.901000">
		<path id="Vector" d="M66.21 17.62C66.3 17.61 66.38 17.64 66.45 17.69C66.56 17.87 66.7 18.03 66.87 18.17C67.05 18.32 67.25 18.46 67.45 18.58C67.56 18.6 67.66 18.65 67.74 18.72C67.86 18.71 67.97 18.75 68.06 18.83C68.25 18.83 68.45 18.85 68.64 18.91C68.87 18.92 69.1 18.92 69.33 18.91C69.36 18.89 69.4 18.87 69.43 18.85C69.56 18.85 69.68 18.84 69.8 18.83C69.91 18.75 70.04 18.71 70.17 18.7C70.23 18.62 70.31 18.59 70.41 18.59C70.45 18.52 70.51 18.48 70.59 18.47C70.78 18.31 70.96 18.14 71.12 17.96C71.22 17.93 71.3 17.94 71.37 18C71.41 18.1 71.38 18.16 71.28 18.18C71.3 18.27 71.26 18.32 71.18 18.34C71.11 18.46 71.03 18.57 70.95 18.68C70.95 18.76 70.91 18.83 70.85 18.87C70.84 18.93 70.83 18.99 70.81 19.05C70.78 19.08 70.76 19.08 70.73 19.08C70.7 19.18 70.65 19.28 70.58 19.37C70.43 19.56 70.28 19.76 70.13 19.95C69.76 20.32 69.39 20.69 69.04 21.07C68.85 21.22 68.68 21.38 68.51 21.54C68.46 21.61 68.41 21.67 68.35 21.74C67.94 22.05 67.53 22.35 67.11 22.63C67.02 22.64 66.96 22.67 66.92 22.74C66.86 22.75 66.8 22.76 66.74 22.77C66.66 22.83 66.58 22.89 66.5 22.94C66.38 23 66.25 23.06 66.13 23.11C66.09 23.18 66.03 23.22 65.94 23.23C65.89 23.29 65.82 23.33 65.73 23.32C65.71 23.35 65.68 23.37 65.65 23.4C65.51 23.47 65.36 23.52 65.2 23.56C65.12 23.62 65.02 23.66 64.91 23.66C64.84 23.74 64.75 23.78 64.65 23.77C64.56 23.85 64.45 23.88 64.33 23.88C64.23 23.96 64.12 23.99 63.99 23.98C63.93 23.99 63.89 24.02 63.85 24.06C63.72 24.06 63.6 24.09 63.48 24.17C63.35 24.19 63.22 24.21 63.09 24.22C63.04 24.26 62.99 24.28 62.93 24.3C62.79 24.31 62.65 24.32 62.51 24.33C62.45 24.35 62.38 24.38 62.32 24.39C62.32 24.42 62.32 24.44 62.32 24.47C61.15 24.47 59.98 24.47 58.81 24.47C58.81 24.44 58.81 24.42 58.81 24.39C58.74 24.38 58.68 24.35 58.62 24.33C58.48 24.32 58.34 24.31 58.2 24.3C58.14 24.28 58.09 24.26 58.04 24.22C57.85 24.23 57.67 24.18 57.51 24.09C57.41 24.08 57.32 24.07 57.22 24.06C57.2 24.04 57.19 24.03 57.17 24.01C56.96 23.98 56.77 23.93 56.59 23.85C56.52 23.77 56.43 23.74 56.32 23.74C56.2 23.68 56.08 23.62 55.95 23.56C55.87 23.53 55.79 23.52 55.71 23.51C55.65 23.43 55.58 23.39 55.48 23.4C55.42 23.33 55.35 23.29 55.26 23.29C55.21 23.22 55.14 23.19 55.05 23.19C54.95 23.13 54.86 23.07 54.76 23C54.62 22.96 54.49 22.88 54.39 22.77C54.34 22.76 54.29 22.75 54.23 22.74C54.18 22.68 54.11 22.64 54.02 22.63C53.99 22.6 53.95 22.56 53.92 22.53C53.73 22.42 53.55 22.3 53.36 22.18C53.16 22.03 52.96 21.87 52.75 21.72C52.66 21.61 52.56 21.51 52.44 21.42C52.27 21.32 52.13 21.18 52.03 21.01C51.85 20.83 51.66 20.66 51.47 20.51C51.45 20.44 51.45 20.37 51.47 20.29C51.97 20.28 52.47 20.24 52.96 20.18C53.3 20.16 53.63 20.16 53.97 20.18C54.21 20.32 54.42 20.49 54.6 20.69C54.81 20.8 55.01 20.93 55.2 21.06C55.29 20.99 55.38 20.93 55.48 20.86C55.6 20.8 55.73 20.75 55.87 20.7C55.93 20.63 56.01 20.59 56.11 20.6C56.14 20.57 56.16 20.55 56.19 20.52C56.33 20.45 56.48 20.4 56.64 20.36C56.74 20.3 56.85 20.24 56.96 20.18C57.04 20.17 57.11 20.16 57.19 20.15C57.23 20.07 57.29 20.04 57.38 20.04C57.41 20.02 57.43 19.99 57.46 19.96C57.79 19.96 58.13 19.95 58.46 19.94C59.06 19.86 59.66 19.82 60.26 19.83C60.38 19.83 60.49 19.8 60.6 19.75C60.82 19.72 61.04 19.71 61.25 19.74C61.27 19.81 61.27 19.88 61.25 19.95C61.22 19.97 61.19 19.98 61.16 19.98C61.16 20.06 61.16 20.14 61.15 20.22C61.07 20.32 61.03 20.45 61.04 20.59C60.96 20.64 60.93 20.72 60.93 20.82C60.87 20.89 60.83 20.97 60.8 21.06C60.65 21.22 60.49 21.37 60.31 21.51C60.23 21.52 60.17 21.56 60.13 21.63C60.04 21.63 59.97 21.66 59.92 21.74C59.75 21.81 59.57 21.87 59.39 21.89C59.37 21.91 59.35 21.93 59.33 21.95C59.16 21.95 59 21.99 58.86 22.08C58.72 22.09 58.58 22.1 58.44 22.11C58.4 22.12 58.37 22.14 58.33 22.16C58.14 22.16 57.96 22.18 57.78 22.21C57.78 22.22 57.79 22.23 57.8 22.24C57.96 22.27 58.12 22.3 58.28 22.32C58.29 22.33 58.31 22.35 58.33 22.37C58.59 22.36 58.83 22.4 59.07 22.5C60.01 22.52 60.96 22.52 61.9 22.5C61.99 22.5 62.08 22.47 62.16 22.42C62.33 22.4 62.5 22.38 62.66 22.37C62.71 22.34 62.75 22.31 62.8 22.29C62.89 22.28 62.99 22.27 63.09 22.26C63.21 22.19 63.34 22.15 63.48 22.16C63.58 22.08 63.7 22.04 63.83 22.03C63.85 22.01 63.86 21.99 63.88 21.97C64.01 21.97 64.13 21.93 64.22 21.84C64.33 21.85 64.42 21.81 64.49 21.74C64.62 21.74 64.71 21.69 64.78 21.59C64.73 21.53 64.7 21.46 64.69 21.38C64.55 21.17 64.41 20.97 64.26 20.77C64.04 20.53 63.81 20.29 63.6 20.03C63.61 19.93 63.57 19.85 63.5 19.79C63.49 19.74 63.48 19.68 63.46 19.63C63.42 19.62 63.4 19.59 63.39 19.55C63.38 19.39 63.35 19.23 63.33 19.07C63.36 18.89 63.38 18.7 63.39 18.52C63.55 18.43 63.71 18.36 63.88 18.3C64.09 18.26 64.29 18.22 64.49 18.17C64.63 18.07 64.79 18.02 64.96 18.03C65 17.99 65.04 17.96 65.1 17.96C65.22 17.95 65.34 17.94 65.47 17.93C65.57 17.85 65.7 17.81 65.84 17.82C65.87 17.81 65.9 17.78 65.92 17.74C66 17.74 66.08 17.72 66.15 17.69C66.18 17.67 66.2 17.65 66.21 17.62Z" fill="#FFFFFF" fill-opacity="1.000000" fill-rule="evenodd"/>
	</g>
	<g opacity="0.986000">
		<path id="Vector" d="M4.99 36.15C4.65 36.15 4.3 36.15 3.96 36.15C2 35.79 0.74 34.64 0.17 32.72C0.09 32.42 0.03 32.12 0 31.82C0 31.48 0 31.15 0 30.81C0.24 28.94 1.23 27.61 2.95 26.84C4.19 26.41 5.42 26.44 6.63 26.94C7.36 27.28 7.92 27.81 8.31 28.52C8.34 28.56 8.35 28.6 8.33 28.65C7.88 28.98 7.42 29.31 6.97 29.65C6.37 28.61 5.46 28.13 4.25 28.21C3.44 28.34 2.82 28.75 2.39 29.44C1.79 30.51 1.71 31.62 2.15 32.77C2.82 34.18 3.93 34.73 5.47 34.4C6.13 34.16 6.68 33.77 7.12 33.22C7.13 33.01 7.14 32.8 7.13 32.59C6.5 32.59 5.86 32.59 5.23 32.59C5.23 32.13 5.23 31.67 5.23 31.21C6.37 31.21 7.52 31.21 8.66 31.21C8.66 32.84 8.66 34.47 8.66 36.1C8.15 36.1 7.64 36.1 7.13 36.1C7.14 35.76 7.13 35.41 7.12 35.07C6.53 35.67 5.82 36.03 4.99 36.15Z" fill="#FFFFFF" fill-opacity="1.000000" fill-rule="evenodd"/>
	</g>
	<g opacity="0.986000">
		<path id="Vector" d="M34.01 36.15C33.63 36.15 33.26 36.15 32.88 36.15C30.97 35.81 29.7 34.72 29.06 32.88C28.51 30.91 28.94 29.21 30.37 27.76C31.79 26.53 33.39 26.23 35.18 26.86C36.88 27.68 37.84 29.04 38.07 30.92C38.19 32.58 37.64 33.97 36.42 35.08C35.72 35.67 34.92 36.03 34.01 36.15ZM33.3 28.2C34.73 28.24 35.65 28.94 36.06 30.31C36.36 31.42 36.21 32.45 35.59 33.4C34.87 34.36 33.92 34.7 32.74 34.42C31.75 34.08 31.12 33.4 30.85 32.37C30.56 31.23 30.74 30.17 31.41 29.2C31.9 28.6 32.53 28.26 33.3 28.2Z" fill="#FFFFFF" fill-opacity="1.000000" fill-rule="evenodd"/>
	</g>
	<g opacity="0.987000">
		<path id="Vector" d="M16.09 26.61C16.72 26.61 17.34 26.61 17.97 26.61C17.97 29.23 17.97 31.85 17.97 34.46C19.57 34.46 21.18 34.46 22.78 34.46C22.78 35.01 22.78 35.56 22.78 36.1C20.55 36.1 18.32 36.1 16.09 36.1C16.09 32.94 16.09 29.78 16.09 26.61Z" fill="#FFFFFF" fill-opacity="1.000000" fill-rule="evenodd"/>
	</g>
	<g opacity="0.988000">
		<path id="Vector" d="M45.35 26.61C47.15 26.61 48.95 26.61 50.75 26.63C51.65 26.83 52.24 27.38 52.5 28.28C52.78 29.31 52.53 30.19 51.78 30.93C51.63 31.04 51.47 31.14 51.3 31.22C52.43 31.63 53 32.44 53.02 33.64C52.99 34.64 52.52 35.35 51.62 35.77C51.21 35.94 50.79 36.05 50.35 36.09C48.68 36.1 47.02 36.11 45.35 36.1C45.35 32.94 45.35 29.77 45.35 26.61ZM47.23 28.2C48.16 28.19 49.08 28.2 50 28.24C50.52 28.43 50.78 28.81 50.77 29.37C50.78 29.89 50.55 30.26 50.08 30.48C49.97 30.53 49.86 30.56 49.74 30.56C48.9 30.58 48.07 30.58 47.23 30.58C47.23 29.78 47.23 28.99 47.23 28.2ZM47.23 32.06C48.27 32.04 49.31 32.06 50.35 32.1C50.85 32.33 51.12 32.74 51.14 33.3C51.09 33.94 50.75 34.34 50.14 34.5C49.17 34.52 48.2 34.52 47.23 34.52C47.23 33.7 47.23 32.88 47.23 32.06Z" fill="#FFFFFF" fill-opacity="1.000000" fill-rule="evenodd"/>
	</g>
	<g opacity="0.986000">
		<path id="Vector" d="M62.56 26.61C63.12 26.61 63.69 26.61 64.25 26.61C65.44 29.78 66.63 32.93 67.85 36.09C67.2 36.11 66.55 36.11 65.9 36.07C65.62 35.31 65.33 34.54 65.04 33.78C63.94 33.74 62.84 33.74 61.74 33.78C61.46 34.54 61.18 35.31 60.89 36.07C60.25 36.11 59.61 36.11 58.96 36.07C60.17 32.92 61.37 29.77 62.56 26.61ZM63.38 28.81C63.41 28.81 63.42 28.82 63.43 28.85C63.86 30.04 64.27 31.23 64.67 32.43C63.8 32.43 62.93 32.43 62.06 32.41C62.51 31.22 62.95 30.01 63.38 28.81Z" fill="#FFFFFF" fill-opacity="1.000000" fill-rule="evenodd"/>
	</g>
	<g opacity="0.986000">
		<path id="Vector" d="M74.29 26.61C74.92 26.61 75.55 26.61 76.17 26.61C76.17 29.23 76.17 31.85 76.17 34.46C77.78 34.46 79.4 34.46 81.01 34.46C81.01 35.01 81.01 35.56 81.01 36.1C78.77 36.1 76.53 36.1 74.29 36.1C74.29 32.94 74.29 29.78 74.29 26.61Z" fill="#FFFFFF" fill-opacity="1.000000" fill-rule="evenodd"/>
	</g>
</svg>
