<svg width="14.166748" height="14.166992" viewBox="0 0 14.1667 14.167" fill="none" xmlns="http://www.w3.org/2000/svg" xmlns:xlink="http://www.w3.org/1999/xlink">
	<desc>
			Created with Pixso.
	</desc>
	<defs/>
	<path id="Vector" d="M7.08 0C3.17 0 0 3.17 0 7.08C0 10.99 3.17 14.16 7.08 14.16C8.2 14.16 9.3 13.91 10.29 13.41C10.64 13.23 10.77 12.81 10.6 12.46C10.42 12.11 10 11.95 9.65 12.12C8.86 12.52 7.98 12.75 7.08 12.75C3.95 12.75 1.41 10.21 1.41 7.08C1.41 3.95 3.95 1.41 7.08 1.41C10.21 1.41 12.75 3.95 12.75 7.08L12.75 8.34C12.75 8.8 12.29 9.2 11.68 9.2C11.08 9.2 10.62 8.8 10.62 8.34L10.62 7.08L10.62 6.99C10.62 6.6 10.3 6.28 9.91 6.28C9.52 6.28 9.2 6.6 9.2 6.99L9.2 7.08C9.2 8.25 8.25 9.2 7.08 9.2C5.9 9.2 4.95 8.25 4.95 7.08C4.95 5.9 5.9 4.95 7.08 4.95C7.46 4.95 7.84 5.05 8.16 5.24C8.5 5.44 8.92 5.33 9.11 5C9.31 4.66 9.21 4.22 8.87 4.02C8.33 3.71 7.72 3.54 7.08 3.54C5.12 3.54 3.54 5.12 3.54 7.08C3.54 9.03 5.12 10.62 7.08 10.62C8.08 10.62 8.95 10.21 9.6 9.57C10.03 10.2 10.8 10.62 11.68 10.62C13.03 10.62 14.16 9.62 14.16 8.34L14.16 7.08C14.16 3.17 10.99 0 7.08 0Z" fill="#242424" fill-opacity="1.000000" fill-rule="nonzero"/>
</svg>
