<svg width="47.000000" height="47.000000" viewBox="0 0 47 47" fill="none" xmlns="http://www.w3.org/2000/svg" xmlns:xlink="http://www.w3.org/1999/xlink">
	<desc>
			Created with Pixso.
	</desc>
	<defs/>
	<circle id="Ellipse 16" cx="23.500000" cy="23.500000" r="23.500000" fill="#DF361E" fill-opacity="1.000000"/>
	<g opacity="0.923000">
		<path id="Vector" d="M28.77 17C29.18 17 29.59 17 30 17C30 17 30 17.01 30 17.02C30.02 17.02 30.04 17.03 30.06 17.04C30.11 17.05 30.15 17.05 30.2 17.05C30.22 17.05 30.24 17.06 30.26 17.08C30.3 17.08 30.35 17.09 30.4 17.1C30.41 17.11 30.42 17.12 30.43 17.12C30.48 17.12 30.52 17.13 30.56 17.16C30.6 17.16 30.64 17.17 30.67 17.2C30.71 17.19 30.74 17.2 30.77 17.23C30.81 17.23 30.84 17.24 30.87 17.27C30.92 17.28 30.97 17.3 31.02 17.32C31.03 17.33 31.04 17.34 31.05 17.35C31.11 17.33 31.14 17.36 31.14 17.42C31.14 17.45 31.13 17.47 31.1 17.48C31.1 17.52 31.08 17.55 31.06 17.57C31.05 17.6 31.04 17.63 31.02 17.65C31.03 17.7 31.01 17.73 30.99 17.77C30.98 17.89 30.98 18.02 30.99 18.14C31.01 18.18 31.03 18.22 31.03 18.27C31.03 18.28 31.04 18.29 31.05 18.29C31.05 18.31 31.06 18.33 31.06 18.35C31.09 18.37 31.1 18.39 31.1 18.43C31.18 18.54 31.25 18.65 31.33 18.76C31.37 18.81 31.41 18.86 31.44 18.91C31.46 18.94 31.48 18.95 31.5 18.97C31.51 18.99 31.51 19.01 31.52 19.03C31.53 19.09 31.52 19.15 31.5 19.2C31.48 19.22 31.46 19.24 31.44 19.26C31.41 19.27 31.38 19.27 31.35 19.26C31.32 19.22 31.3 19.17 31.31 19.12C31.3 19.12 31.28 19.12 31.27 19.12C31.26 19.14 31.25 19.14 31.23 19.15C31.19 19.15 31.15 19.16 31.11 19.16C31.08 19.17 31.06 19.18 31.03 19.19C30.81 19.19 30.59 19.19 30.37 19.19C30.32 19.17 30.27 19.14 30.23 19.11C30.23 19.06 30.23 19 30.23 18.95C30.24 18.93 30.25 18.91 30.26 18.89C30.26 18.83 30.27 18.78 30.28 18.72C30.3 18.68 30.32 18.64 30.31 18.59C30.32 18.59 30.33 18.58 30.34 18.58C30.35 18.53 30.37 18.49 30.38 18.44C30.5 18.32 30.64 18.22 30.78 18.12C30.71 18.08 30.64 18.04 30.58 17.98C30.5 17.89 30.42 17.81 30.33 17.74C30.3 17.74 30.27 17.73 30.26 17.7C30.21 17.7 30.18 17.69 30.15 17.67C30.1 17.66 30.05 17.66 30.01 17.66C30 17.66 30 17.67 30 17.67C30.01 17.71 30.02 17.75 30.02 17.79C30.04 17.81 30.05 17.83 30.06 17.86C30.1 17.9 30.14 17.95 30.16 18C30.17 18.07 30.17 18.14 30.16 18.21C30.15 18.21 30.14 18.21 30.13 18.22C30.12 18.24 30.12 18.26 30.12 18.28C30.11 18.29 30.1 18.29 30.09 18.29C30.07 18.33 30.06 18.36 30.04 18.4C30.03 18.4 30.02 18.4 30.02 18.4C29.9 18.53 29.78 18.66 29.67 18.79C29.68 18.82 29.67 18.84 29.65 18.85C29.64 18.88 29.63 18.92 29.63 18.95C29.62 18.95 29.62 18.96 29.62 18.96C29.61 19 29.6 19.05 29.6 19.09C29.59 19.13 29.57 19.16 29.54 19.18C29.5 19.19 29.46 19.2 29.42 19.21C29.4 19.2 29.37 19.19 29.34 19.19C29.33 19.17 29.31 19.16 29.29 19.15C29.23 19.08 29.17 19.01 29.12 18.94C29.11 18.92 29.11 18.91 29.11 18.89C29.1 18.89 29.09 18.89 29.08 18.88C29.08 18.84 29.07 18.81 29.04 18.79C29.04 18.76 29.04 18.73 29.03 18.7C29.02 18.67 29 18.64 28.99 18.6C29 18.59 29 18.58 29 18.58C28.99 18.56 28.97 18.54 28.96 18.52C28.96 18.52 28.96 18.51 28.97 18.51C28.94 18.48 28.92 18.45 28.92 18.41C28.91 18.4 28.9 18.4 28.89 18.39C28.88 18.36 28.86 18.33 28.85 18.29C28.84 18.29 28.83 18.28 28.82 18.27C28.82 18.25 28.81 18.22 28.8 18.19C28.77 18.14 28.74 18.1 28.71 18.05C28.7 17.99 28.68 17.93 28.63 17.89C28.57 17.88 28.5 17.88 28.44 17.89C28.4 17.89 28.36 17.87 28.33 17.84C28.33 17.81 28.32 17.79 28.3 17.77C28.27 17.76 28.25 17.77 28.23 17.79C28.13 17.82 28.05 17.86 27.99 17.94C27.99 17.97 27.97 17.99 27.95 18.01C27.95 18.05 27.95 18.08 27.95 18.12C27.97 18.15 27.99 18.18 28.03 18.18C28.05 18.21 28.08 18.22 28.11 18.22C28.12 18.23 28.13 18.24 28.14 18.24C28.18 18.26 28.23 18.27 28.27 18.29C28.28 18.3 28.28 18.31 28.29 18.31C28.32 18.33 28.36 18.35 28.39 18.37C28.41 18.41 28.43 18.45 28.45 18.49C28.47 18.52 28.48 18.57 28.48 18.61C28.53 18.72 28.52 18.82 28.45 18.92C28.39 18.94 28.33 18.93 28.28 18.89C28.26 18.89 28.23 18.89 28.21 18.88C28.19 18.86 28.16 18.85 28.13 18.85C28.08 18.81 28.03 18.77 27.98 18.74C27.98 18.7 27.98 18.66 27.98 18.62C27.99 18.6 28.01 18.59 28.03 18.58C28.04 18.53 28.03 18.49 28 18.45C27.95 18.44 27.9 18.44 27.85 18.45C27.85 18.54 27.85 18.64 27.84 18.74C27.8 18.81 27.74 18.86 27.66 18.89C27.63 18.92 27.61 18.94 27.58 18.96C27.51 18.99 27.45 19.03 27.38 19.08C27.36 19.12 27.32 19.15 27.28 19.18C27.26 19.2 27.25 19.22 27.24 19.25C27.24 19.27 27.25 19.28 27.26 19.3C27.29 19.33 27.32 19.36 27.35 19.39C27.39 19.43 27.44 19.45 27.49 19.48C27.51 19.48 27.53 19.49 27.54 19.49C27.59 19.51 27.63 19.53 27.67 19.55C27.7 19.55 27.73 19.56 27.76 19.59C27.78 19.59 27.81 19.59 27.84 19.59C27.88 19.62 27.93 19.64 27.98 19.64C28 19.65 28.01 19.66 28.03 19.67C28.1 19.67 28.18 19.67 28.25 19.66C28.24 19.49 28.25 19.32 28.26 19.15C28.27 19.15 28.27 19.14 28.28 19.14C28.29 19.11 28.31 19.1 28.33 19.08C28.36 19.07 28.38 19.06 28.4 19.03C28.42 19.03 28.45 19.03 28.48 19.03C28.55 19.08 28.63 19.12 28.71 19.15C28.77 19.2 28.83 19.25 28.88 19.31C28.92 19.38 28.97 19.44 29.03 19.49C29.06 19.56 29.1 19.63 29.14 19.69C29.15 19.71 29.15 19.74 29.16 19.77C29.17 19.78 29.18 19.79 29.18 19.8C29.19 19.9 29.19 19.99 29.18 20.08C29.16 20.11 29.14 20.13 29.11 20.15C29.08 20.16 29.05 20.17 29.02 20.19C28.95 20.2 28.87 20.22 28.81 20.24C28.78 20.27 28.75 20.28 28.72 20.28C28.7 20.3 28.67 20.32 28.64 20.31C28.62 20.34 28.6 20.35 28.58 20.35C28.41 20.47 28.28 20.63 28.19 20.82C28.18 20.84 28.17 20.87 28.17 20.9C28.15 20.91 28.14 20.93 28.15 20.95C28.14 20.98 28.14 21.02 28.14 21.05C28.11 21.11 28.1 21.17 28.1 21.24C28.08 21.28 28.06 21.31 28.04 21.35C27.97 21.36 27.9 21.36 27.83 21.35C27.8 21.33 27.76 21.32 27.72 21.32C27.7 21.31 27.68 21.3 27.66 21.28C27.64 21.28 27.62 21.28 27.61 21.27C27.57 21.25 27.53 21.23 27.49 21.21C27.46 21.21 27.43 21.2 27.41 21.18C27.39 21.17 27.38 21.17 27.36 21.17C27.33 21.15 27.3 21.12 27.27 21.11C27.25 21.1 27.22 21.09 27.2 21.09C27.17 21.06 27.14 21.05 27.1 21.05C27.08 21.03 27.05 21.02 27.02 21.02C26.98 21.02 26.96 21.03 26.94 21.05C26.92 21.06 26.91 21.06 26.9 21.07C26.81 21.13 26.74 21.22 26.69 21.31C26.69 21.35 26.68 21.38 26.65 21.4C26.65 21.42 26.65 21.44 26.65 21.47C26.69 21.47 26.74 21.46 26.78 21.45C26.81 21.43 26.84 21.41 26.88 21.42C26.89 21.41 26.9 21.4 26.9 21.39C26.96 21.38 27.02 21.38 27.08 21.39C27.11 21.41 27.14 21.44 27.16 21.47C27.17 21.5 27.18 21.53 27.2 21.56C27.21 21.64 27.21 21.72 27.21 21.8C27.17 21.8 27.14 21.81 27.12 21.83C27.05 21.84 27 21.85 26.94 21.88C26.89 21.88 26.85 21.89 26.8 21.91C26.79 21.9 26.78 21.89 26.76 21.89C26.72 21.88 26.67 21.88 26.63 21.88C26.61 21.88 26.6 21.87 26.58 21.85C26.52 21.84 26.46 21.83 26.41 21.8C26.39 21.78 26.37 21.76 26.34 21.76C26.32 21.74 26.29 21.71 26.27 21.69C26.27 21.64 26.26 21.59 26.26 21.55C26.24 21.5 26.22 21.45 26.22 21.39C26.21 21.39 26.2 21.38 26.2 21.38C26.19 21.36 26.19 21.34 26.19 21.31C26.16 21.27 26.14 21.23 26.11 21.18C26.06 21.12 26.01 21.07 25.94 21.03C25.93 21.02 25.92 21.02 25.9 21.02C25.9 21.15 25.9 21.27 25.9 21.39C25.93 21.49 25.94 21.59 25.94 21.7C25.97 21.76 25.99 21.84 25.98 21.91C26 21.92 26.01 21.94 26.01 21.95C26.02 21.99 26.02 22.03 26.01 22.07C25.99 22.09 25.96 22.1 25.93 22.1C25.73 22.11 25.54 22.11 25.35 22.1C25.34 22.09 25.34 22.09 25.34 22.08C25.34 22 25.33 21.93 25.3 21.86C25.3 21.8 25.29 21.74 25.29 21.69C25.28 21.67 25.27 21.66 25.26 21.64C25.27 21.56 25.25 21.49 25.23 21.41C25.22 21.22 25.22 21.03 25.23 20.83C25.26 20.73 25.27 20.62 25.26 20.51C25.27 20.49 25.28 20.47 25.29 20.45C25.29 20.4 25.3 20.35 25.3 20.29C25.33 20.25 25.34 20.2 25.34 20.15C25.35 20.12 25.36 20.09 25.38 20.06C25.37 20.05 25.37 20.04 25.37 20.04C25.37 20.02 25.38 20 25.38 19.98C25.39 19.97 25.4 19.96 25.41 19.95C25.4 19.9 25.42 19.87 25.44 19.84C25.45 19.81 25.45 19.79 25.45 19.76C25.48 19.74 25.49 19.71 25.49 19.68C25.5 19.65 25.51 19.63 25.53 19.61C25.52 19.58 25.53 19.56 25.55 19.54C25.56 19.52 25.56 19.5 25.57 19.48C25.59 19.45 25.61 19.41 25.63 19.37C25.63 19.35 25.63 19.33 25.64 19.31C25.64 19.3 25.65 19.3 25.67 19.3C25.67 19.28 25.67 19.27 25.67 19.25C25.69 19.24 25.7 19.22 25.71 19.19C25.7 19.19 25.7 19.18 25.71 19.16C25.73 19.13 25.75 19.1 25.78 19.07C25.79 19.02 25.82 18.98 25.85 18.95C25.85 18.92 25.87 18.89 25.9 18.88C25.91 18.85 25.93 18.82 25.94 18.79C26.03 18.68 26.12 18.56 26.21 18.44C26.34 18.32 26.46 18.2 26.58 18.07C26.71 17.95 26.85 17.84 26.99 17.73C27.07 17.68 27.15 17.63 27.23 17.58C27.27 17.58 27.29 17.57 27.3 17.54C27.33 17.52 27.37 17.5 27.4 17.49C27.42 17.47 27.44 17.46 27.46 17.46C27.48 17.46 27.49 17.45 27.5 17.43C27.54 17.41 27.59 17.39 27.63 17.38C27.64 17.37 27.65 17.36 27.65 17.35C27.7 17.34 27.75 17.33 27.79 17.31C27.84 17.29 27.89 17.26 27.94 17.24C27.96 17.24 27.98 17.23 28 17.23C28.04 17.21 28.08 17.19 28.12 17.17C28.15 17.17 28.18 17.16 28.2 17.16C28.22 17.16 28.24 17.15 28.25 17.13C28.29 17.13 28.34 17.12 28.38 17.1C28.45 17.1 28.51 17.08 28.57 17.05C28.61 17.05 28.66 17.05 28.71 17.04C28.73 17.03 28.75 17.02 28.77 17.02C28.77 17.01 28.77 17 28.77 17Z" fill="#FFFFFF" fill-opacity="1.000000" fill-rule="evenodd"/>
	</g>
	<g opacity="0.995000">
		<path id="Vector" d="M9 17C9.57 17 10.14 17 10.71 17.01C11.52 18.56 12.32 20.1 13.12 21.64C13.94 20.1 14.75 18.56 15.55 17.01C16.12 17 16.69 17 17.26 17C17.26 19.73 17.26 22.46 17.26 25.19C16.73 25.19 16.19 25.19 15.66 25.19C15.66 23.4 15.66 21.6 15.66 19.81C14.96 21.14 14.26 22.47 13.57 23.8C13.28 23.81 12.98 23.81 12.69 23.8C11.99 22.47 11.29 21.14 10.6 19.8C10.59 21.6 10.59 23.39 10.59 25.19C10.06 25.19 9.53 25.19 9 25.19C9 22.46 9 19.73 9 17Z" fill="#FFFFFF" fill-opacity="1.000000" fill-rule="evenodd"/>
	</g>
	<g opacity="0.993000">
		<path id="Vector" d="M20.99 17C21.47 17 21.94 17 22.42 17.01C23.45 19.74 24.49 22.46 25.53 25.19C24.99 25.19 24.45 25.19 23.91 25.18C23.8 24.89 23.7 24.61 23.59 24.32C23.33 23.55 23.07 22.79 22.81 22.03C22.81 22.03 22.82 22.02 22.82 22.02C22.44 20.93 22.06 19.84 21.69 18.75C21.42 19.53 21.15 20.31 20.88 21.08C20.77 21.39 20.66 21.71 20.54 22.02C20.55 22.02 20.55 22.03 20.56 22.03C20.2 23.08 19.83 24.13 19.47 25.18C18.94 25.19 18.41 25.19 17.87 25.19C18.92 22.46 19.96 19.73 20.99 17Z" fill="#FFFFFF" fill-opacity="1.000000" fill-rule="evenodd"/>
	</g>
	<g opacity="0.939000">
		<path id="Vector" d="M37.02 18.21C37.02 18.3 37.02 18.38 37.02 18.47C37 18.47 36.99 18.48 36.98 18.49C36.96 18.55 36.93 18.6 36.89 18.64C36.87 18.66 36.86 18.68 36.85 18.71C36.78 18.78 36.71 18.85 36.65 18.92C36.55 19.02 36.44 19.1 36.33 19.19C36.3 19.18 36.28 19.2 36.26 19.22C36.2 19.25 36.15 19.29 36.1 19.34C36.04 19.38 35.98 19.42 35.92 19.45C35.89 19.47 35.87 19.5 35.85 19.52C35.84 19.53 35.83 19.53 35.82 19.53C35.74 19.6 35.65 19.65 35.56 19.71C35.53 19.71 35.52 19.72 35.51 19.75C35.5 19.75 35.48 19.75 35.47 19.75C35.42 19.79 35.37 19.82 35.32 19.86C35.29 19.86 35.27 19.87 35.26 19.9C35.24 19.9 35.23 19.9 35.21 19.91C35.21 20.3 35.2 20.69 35.2 21.07C35.19 21.19 35.18 21.31 35.17 21.43C35.17 21.75 35.17 22.07 35.17 22.39C35.15 22.4 35.14 22.42 35.14 22.43C35.14 22.48 35.13 22.52 35.13 22.57C35.11 22.62 35.08 22.67 35.05 22.72C35.02 22.75 34.99 22.78 34.95 22.81C34.92 22.81 34.9 22.82 34.89 22.85C34.85 22.85 34.81 22.86 34.79 22.88C34.69 22.89 34.59 22.89 34.49 22.88C34.45 22.84 34.41 22.79 34.38 22.73C34.37 22.67 34.35 22.62 34.34 22.56C34.33 22.55 34.32 22.55 34.31 22.54C34.31 22.52 34.31 22.49 34.3 22.47C34.3 22.45 34.29 22.44 34.28 22.43C34.27 22.41 34.27 22.39 34.26 22.37C34.27 22.34 34.26 22.31 34.23 22.28C34.23 22.26 34.23 22.24 34.23 22.21C34.22 22.21 34.21 22.21 34.2 22.2C34.2 22.16 34.19 22.13 34.16 22.1C34.16 22.06 34.15 22.03 34.13 22C34.12 21.98 34.12 21.95 34.12 21.93C34.09 21.9 34.07 21.86 34.07 21.82C34.07 21.81 34.06 21.8 34.05 21.79C34.05 21.75 34.04 21.72 34.01 21.69C34.01 21.66 34 21.64 34.01 21.62C33.99 21.62 33.98 21.61 33.97 21.6C33.98 21.56 33.96 21.53 33.94 21.5C33.94 21.48 33.93 21.46 33.93 21.44C33.92 21.43 33.91 21.43 33.9 21.43C33.89 21.41 33.89 21.4 33.9 21.39C33.87 21.33 33.84 21.27 33.82 21.21C33.82 21.18 33.82 21.16 33.81 21.14C33.81 21.13 33.8 21.13 33.79 21.12C33.78 21.06 33.76 21.01 33.74 20.95C33.71 20.92 33.7 20.87 33.7 20.83C33.69 20.81 33.68 20.8 33.67 20.8C33.62 20.82 33.57 20.85 33.52 20.87C33.51 20.88 33.5 20.89 33.49 20.9C33.44 20.93 33.39 20.95 33.33 20.96C33.31 20.98 33.28 20.99 33.24 20.99C33.21 21.02 33.18 21.03 33.13 21.03C33.1 21.05 33.06 21.06 33.02 21.06C33 21.06 32.99 21.07 32.97 21.09C32.95 21.09 32.92 21.09 32.89 21.1C32.82 21.12 32.75 21.15 32.68 21.18C32.68 21.18 32.67 21.19 32.67 21.2C32.67 21.23 32.66 21.27 32.66 21.31C32.64 21.32 32.63 21.33 32.63 21.35C32.63 21.38 32.63 21.42 32.62 21.45C32.61 21.46 32.61 21.47 32.6 21.48C32.59 21.5 32.59 21.53 32.59 21.55C32.56 21.59 32.55 21.63 32.55 21.68C32.55 21.71 32.53 21.73 32.51 21.75C32.52 21.8 32.51 21.84 32.48 21.87C32.48 21.91 32.48 21.95 32.47 21.98C32.46 21.99 32.45 22 32.45 22.02C32.44 22.04 32.44 22.07 32.44 22.1C32.43 22.12 32.43 22.13 32.41 22.14C32.41 22.17 32.4 22.21 32.4 22.24C32.4 22.25 32.39 22.25 32.38 22.26C32.37 22.33 32.34 22.41 32.32 22.48C32.31 22.49 32.31 22.5 32.3 22.51C32.27 22.52 32.24 22.53 32.22 22.55C32.17 22.55 32.12 22.55 32.07 22.55C32.05 22.52 32.02 22.51 31.99 22.51C31.98 22.48 31.97 22.44 31.96 22.4C31.95 22.34 31.95 22.28 31.95 22.22C31.92 22.16 31.9 22.1 31.9 22.03C31.89 22.01 31.88 21.99 31.88 21.97C31.87 21.93 31.87 21.89 31.87 21.85C31.85 21.83 31.84 21.82 31.84 21.79C31.84 21.76 31.84 21.72 31.83 21.68C31.83 21.66 31.82 21.65 31.81 21.63C31.8 21.6 31.8 21.56 31.8 21.52C31.79 21.51 31.78 21.49 31.77 21.48C31.77 21.43 31.76 21.39 31.76 21.35C31.76 21.33 31.75 21.32 31.73 21.31C31.73 21.27 31.72 21.22 31.72 21.18C31.56 21.04 31.41 20.9 31.27 20.76C31.24 20.75 31.22 20.73 31.2 20.71C31.18 20.7 31.17 20.69 31.17 20.67C31.05 20.56 30.94 20.46 30.83 20.35C30.79 20.34 30.78 20.32 30.79 20.27C30.78 20.28 30.77 20.27 30.76 20.27C30.75 20.22 30.75 20.18 30.77 20.13C30.81 20.09 30.86 20.05 30.91 20.01C30.99 20 31.06 20 31.14 20.01C31.14 20.02 31.16 20.03 31.17 20.04C31.21 20.04 31.25 20.05 31.29 20.08C31.34 20.07 31.38 20.08 31.42 20.11C31.47 20.11 31.51 20.12 31.54 20.15C31.57 20.15 31.6 20.15 31.63 20.15C31.68 20.18 31.73 20.2 31.78 20.2C31.79 20.21 31.81 20.22 31.83 20.23C31.86 20.23 31.89 20.23 31.92 20.23C31.93 20.25 31.94 20.26 31.96 20.26C32 20.26 32.04 20.27 32.07 20.3C32.1 20.3 32.13 20.3 32.16 20.31C32.19 20.34 32.23 20.34 32.28 20.33C32.52 20.08 32.79 19.87 33.09 19.69C33.09 19.67 33.08 19.65 33.07 19.63C33 19.54 32.93 19.46 32.86 19.37C32.83 19.31 32.79 19.26 32.75 19.21C32.72 19.15 32.68 19.1 32.63 19.06C32.61 19 32.57 18.96 32.53 18.91C32.5 18.86 32.46 18.81 32.41 18.76C32.36 18.69 32.3 18.61 32.25 18.53C32.18 18.46 32.12 18.38 32.06 18.3C32.04 18.28 32.02 18.25 31.99 18.23C31.97 18.18 31.94 18.13 31.91 18.08C31.88 18.05 31.85 18.01 31.83 17.96C31.82 17.96 31.81 17.95 31.8 17.95C31.8 17.9 31.8 17.85 31.81 17.8C31.83 17.79 31.84 17.76 31.85 17.73C31.9 17.68 31.95 17.63 32.01 17.58C32.08 17.55 32.16 17.52 32.23 17.5C32.28 17.53 32.33 17.54 32.39 17.54C32.41 17.57 32.44 17.58 32.48 17.58C32.5 17.6 32.53 17.62 32.57 17.62C32.62 17.65 32.67 17.69 32.72 17.72C32.76 17.74 32.79 17.76 32.82 17.79C32.86 17.81 32.9 17.83 32.94 17.85C32.95 17.87 32.97 17.88 33 17.88C33.03 17.9 33.05 17.92 33.08 17.94C33.1 17.94 33.11 17.95 33.13 17.95C33.22 18.01 33.32 18.07 33.41 18.13C33.47 18.15 33.53 18.19 33.58 18.24C33.62 18.25 33.66 18.27 33.69 18.29C33.7 18.3 33.71 18.31 33.71 18.32C33.81 18.35 33.9 18.39 33.99 18.44C34 18.47 34.02 18.48 34.05 18.48C34.1 18.51 34.16 18.55 34.21 18.58C34.28 18.6 34.33 18.64 34.38 18.69C34.41 18.69 34.43 18.7 34.44 18.72C34.49 18.75 34.53 18.78 34.58 18.8C34.6 18.78 34.63 18.77 34.65 18.76C34.67 18.74 34.69 18.73 34.72 18.73C34.74 18.7 34.77 18.69 34.81 18.68C34.81 18.68 34.82 18.67 34.82 18.66C34.85 18.66 34.88 18.65 34.89 18.63C34.91 18.62 34.93 18.62 34.95 18.62C34.97 18.59 34.99 18.58 35.02 18.58C35.05 18.56 35.09 18.54 35.12 18.51C35.15 18.51 35.17 18.5 35.19 18.48C35.2 18.47 35.22 18.47 35.23 18.47C35.3 18.44 35.36 18.4 35.43 18.37C35.46 18.36 35.49 18.36 35.53 18.35C35.56 18.33 35.6 18.31 35.64 18.29C35.67 18.29 35.7 18.28 35.72 18.25C35.74 18.25 35.76 18.25 35.77 18.24C35.8 18.22 35.83 18.2 35.87 18.2C35.9 18.17 35.93 18.16 35.96 18.16C35.99 18.14 36.02 18.13 36.06 18.13C36.09 18.1 36.13 18.09 36.17 18.09C36.21 18.07 36.25 18.05 36.29 18.06C36.31 18.06 36.32 18.05 36.33 18.03C36.38 18.03 36.42 18.02 36.46 18.02C36.54 17.99 36.62 17.98 36.71 18C36.77 18.01 36.82 18.04 36.88 18.07C36.92 18.11 36.96 18.15 36.99 18.2C37 18.21 37.01 18.21 37.02 18.21Z" fill="#FFFFFF" fill-opacity="1.000000" fill-rule="evenodd"/>
	</g>
	<g opacity="0.004000">
		<path id="Vector" d="M28.01 17.96C28.02 17.96 28.04 17.96 28.05 17.96C28.05 17.98 28.05 17.99 28.05 18.01C28.04 18.01 28.02 18.01 28.01 18.01C28.01 17.99 28.01 17.98 28.01 17.96Z" fill="#FFFFFF" fill-opacity="1.000000" fill-rule="evenodd"/>
	</g>
	<g opacity="0.939000">
		<path id="Vector" d="M30.74 20.83C30.78 20.82 30.82 20.83 30.86 20.83C30.97 20.95 31.08 21.06 31.2 21.16C31.22 21.19 31.24 21.21 31.25 21.23C31.31 21.29 31.37 21.34 31.43 21.39C31.44 21.43 31.44 21.46 31.44 21.49C31.46 21.51 31.47 21.52 31.47 21.55C31.47 21.58 31.47 21.62 31.48 21.65C31.48 21.67 31.49 21.69 31.5 21.71C31.51 21.75 31.51 21.79 31.51 21.84C31.52 21.85 31.53 21.87 31.54 21.88C31.54 21.93 31.55 21.98 31.55 22.03C31.56 22.04 31.57 22.05 31.58 22.06C31.58 22.14 31.59 22.21 31.6 22.28C31.57 22.29 31.55 22.3 31.53 22.32C31.51 22.33 31.48 22.33 31.46 22.33C31.43 22.35 31.39 22.38 31.35 22.4C31.32 22.4 31.3 22.41 31.29 22.44C31.25 22.45 31.21 22.46 31.18 22.48C31.17 22.49 31.16 22.5 31.15 22.51C31.11 22.52 31.07 22.54 31.03 22.55C30.99 22.58 30.94 22.6 30.9 22.63C30.86 22.62 30.84 22.64 30.82 22.66C30.78 22.66 30.75 22.67 30.73 22.7C30.69 22.7 30.66 22.71 30.64 22.73C30.6 22.73 30.57 22.74 30.54 22.77C30.51 22.78 30.49 22.78 30.46 22.79C30.44 22.81 30.41 22.82 30.37 22.82C30.34 22.85 30.31 22.86 30.27 22.86C30.24 22.88 30.21 22.89 30.17 22.89C30.15 22.9 30.14 22.91 30.13 22.92C30.06 22.94 29.99 22.95 29.92 22.97C29.91 22.98 29.9 22.99 29.88 23C29.84 23 29.79 23.01 29.76 23.03C29.73 23.04 29.7 23.04 29.67 23.04C29.66 23.05 29.65 23.06 29.64 23.07C29.61 23.07 29.58 23.08 29.55 23.08C29.53 23.08 29.51 23.09 29.5 23.11C29.42 23.1 29.34 23.12 29.27 23.15C29.22 23.15 29.17 23.16 29.13 23.19C29.09 23.19 29.05 23.19 29.01 23.19C29 23.2 28.98 23.21 28.97 23.22C28.93 23.22 28.89 23.23 28.85 23.23C28.84 23.24 28.82 23.24 28.82 23.26C28.77 23.26 28.73 23.26 28.68 23.27C28.61 23.3 28.54 23.31 28.46 23.31C28.44 23.32 28.41 23.33 28.39 23.34C28.34 23.34 28.29 23.34 28.24 23.35C28.22 23.35 28.21 23.36 28.19 23.37C28.14 23.37 28.08 23.38 28.02 23.38C28 23.39 27.98 23.4 27.96 23.41C27.89 23.41 27.83 23.41 27.76 23.42C27.73 23.42 27.71 23.43 27.69 23.44C27.6 23.45 27.51 23.45 27.42 23.45C27.39 23.45 27.36 23.46 27.33 23.48C27.08 23.48 26.82 23.5 26.57 23.52C26.38 23.5 26.18 23.49 25.99 23.48C25.97 23.46 25.95 23.45 25.93 23.45C25.87 23.45 25.81 23.45 25.75 23.44C25.74 23.43 25.73 23.42 25.71 23.42C25.66 23.42 25.62 23.41 25.58 23.38C25.54 23.38 25.51 23.37 25.48 23.35C25.45 23.35 25.42 23.33 25.39 23.31C25.37 23.3 25.35 23.3 25.33 23.29C25.28 23.25 25.22 23.22 25.16 23.19C25.13 23.14 25.08 23.1 25.03 23.07C25.02 23.04 25 23.01 24.97 22.99C24.97 22.94 24.95 22.9 24.93 22.87C24.92 22.83 24.92 22.8 24.92 22.76C24.89 22.74 24.88 22.7 24.88 22.67C24.86 22.64 24.84 22.61 24.85 22.57C24.84 22.55 24.83 22.55 24.82 22.55C24.82 22.53 24.82 22.51 24.81 22.49C24.78 22.4 24.75 22.32 24.7 22.25C24.7 22.23 24.7 22.21 24.7 22.19C24.68 22.18 24.66 22.17 24.66 22.15C24.64 22 24.64 21.84 24.66 21.69C24.66 21.67 24.67 21.65 24.7 21.64C24.69 21.61 24.71 21.58 24.74 21.56C24.76 21.5 24.8 21.45 24.85 21.41C24.86 21.38 24.88 21.35 24.9 21.32C24.92 21.31 24.95 21.31 24.98 21.32C25 21.52 25.01 21.71 25.01 21.9C25.04 21.96 25.05 22.01 25.04 22.07C25.04 22.1 25.05 22.13 25.07 22.15C25.08 22.22 25.09 22.29 25.11 22.35C25.15 22.38 25.2 22.39 25.24 22.39C25.41 22.4 25.57 22.4 25.73 22.39C25.85 22.37 25.98 22.35 26.1 22.35C26.13 22.34 26.15 22.33 26.18 22.32C26.23 22.32 26.28 22.32 26.34 22.31C26.36 22.31 26.37 22.3 26.39 22.29C26.44 22.28 26.48 22.28 26.53 22.28C26.55 22.27 26.57 22.26 26.59 22.25C26.66 22.25 26.72 22.25 26.79 22.24C26.81 22.24 26.82 22.23 26.83 22.22C26.87 22.21 26.91 22.21 26.95 22.21C26.97 22.21 26.99 22.2 27 22.18C27.05 22.17 27.09 22.17 27.14 22.16C27.15 22.15 27.16 22.14 27.18 22.14C27.22 22.13 27.25 22.13 27.29 22.13C27.3 22.12 27.3 22.11 27.31 22.1C27.36 22.1 27.41 22.09 27.45 22.07C27.48 22.06 27.51 22.06 27.54 22.06C27.58 22.03 27.62 22.02 27.67 22.02C27.71 21.99 27.76 21.98 27.82 21.98C27.83 21.96 27.85 21.95 27.86 21.95C27.89 21.95 27.92 21.94 27.94 21.94C27.98 21.91 28.02 21.9 28.07 21.91C28.1 21.88 28.13 21.87 28.17 21.87C28.2 21.84 28.24 21.83 28.28 21.83C28.32 21.8 28.36 21.79 28.42 21.79C28.45 21.76 28.48 21.75 28.52 21.75C28.55 21.73 28.59 21.72 28.63 21.72C28.66 21.69 28.69 21.68 28.74 21.68C28.77 21.66 28.81 21.64 28.85 21.64C28.86 21.63 28.87 21.62 28.88 21.61C28.93 21.6 28.99 21.59 29.04 21.57C29.07 21.54 29.1 21.53 29.14 21.53C29.16 21.53 29.16 21.52 29.17 21.51C29.24 21.48 29.32 21.47 29.39 21.45C29.42 21.43 29.45 21.41 29.49 21.42C29.51 21.39 29.54 21.38 29.58 21.38C29.61 21.36 29.65 21.34 29.69 21.32C29.7 21.32 29.72 21.31 29.74 21.31C29.81 21.27 29.89 21.24 29.96 21.2C30 21.21 30.02 21.19 30.04 21.17C30.09 21.15 30.13 21.14 30.18 21.12C30.2 21.1 30.24 21.08 30.27 21.08C30.29 21.05 30.32 21.04 30.35 21.04C30.38 21.02 30.41 21 30.43 20.99C30.48 20.97 30.52 20.95 30.56 20.94C30.6 20.91 30.63 20.89 30.67 20.87C30.71 20.87 30.73 20.86 30.74 20.83Z" fill="#FFFFFF" fill-opacity="1.000000" fill-rule="evenodd"/>
	</g>
	<g opacity="0.004000">
		<path id="Vector" d="M25.06 21.63C25.07 21.63 25.09 21.63 25.1 21.63C25.1 21.65 25.1 21.66 25.1 21.67C25.09 21.67 25.08 21.67 25.06 21.67C25.07 21.69 25.06 21.7 25.05 21.71C25.05 21.69 25.05 21.66 25.06 21.63Z" fill="#FFFFFF" fill-opacity="1.000000" fill-rule="evenodd"/>
	</g>
	<g opacity="0.006000">
		<path id="Vector" d="M26.02 21.77C26.03 21.77 26.04 21.77 26.05 21.78C26.05 21.78 26.06 21.79 26.06 21.8C26.05 21.83 26.03 21.86 26.02 21.89C26.02 21.85 26.01 21.81 26.02 21.77Z" fill="#FFFFFF" fill-opacity="1.000000" fill-rule="evenodd"/>
	</g>
	<g opacity="0.004000">
		<path id="Vector" d="M25.16 22.23C25.18 22.24 25.19 22.24 25.2 22.23C25.21 22.25 25.21 22.27 25.22 22.29C25.21 22.3 25.2 22.31 25.19 22.32C25.18 22.31 25.17 22.31 25.15 22.31C25.16 22.28 25.16 22.26 25.16 22.23Z" fill="#FFFFFF" fill-opacity="1.000000" fill-rule="evenodd"/>
	</g>
	<g opacity="0.901000">
		<path id="Vector" d="M31.26 22.92C31.29 22.92 31.32 22.93 31.34 22.95C31.38 23.01 31.43 23.06 31.48 23.11C31.54 23.16 31.61 23.2 31.68 23.24C31.71 23.25 31.75 23.27 31.77 23.29C31.82 23.29 31.85 23.3 31.88 23.33C31.95 23.33 32.01 23.34 32.08 23.35C32.15 23.36 32.23 23.36 32.31 23.35C32.32 23.35 32.33 23.34 32.34 23.34C32.39 23.33 32.43 23.33 32.47 23.33C32.51 23.3 32.55 23.29 32.59 23.28C32.61 23.26 32.64 23.25 32.67 23.25C32.69 23.22 32.71 23.21 32.73 23.21C32.8 23.15 32.86 23.1 32.91 23.03C32.94 23.03 32.97 23.03 33 23.05C33.01 23.08 33 23.1 32.97 23.11C32.97 23.14 32.96 23.16 32.93 23.16C32.91 23.2 32.88 23.24 32.85 23.28C32.85 23.31 32.84 23.33 32.82 23.34C32.82 23.36 32.81 23.38 32.81 23.4C32.8 23.41 32.79 23.41 32.78 23.41C32.77 23.45 32.75 23.48 32.73 23.51C32.68 23.57 32.63 23.64 32.58 23.71C32.45 23.83 32.33 23.96 32.21 24.08C32.15 24.13 32.09 24.18 32.03 24.24C32.02 24.26 32 24.28 31.98 24.31C31.84 24.41 31.7 24.51 31.56 24.61C31.53 24.61 31.51 24.62 31.5 24.64C31.48 24.65 31.46 24.65 31.44 24.65C31.41 24.68 31.39 24.69 31.36 24.71C31.32 24.73 31.28 24.75 31.23 24.77C31.22 24.79 31.2 24.81 31.17 24.81C31.15 24.83 31.13 24.84 31.1 24.84C31.09 24.85 31.08 24.86 31.07 24.87C31.02 24.89 30.97 24.9 30.92 24.92C30.89 24.94 30.86 24.95 30.82 24.95C30.8 24.98 30.77 24.99 30.74 24.99C30.71 25.02 30.67 25.03 30.63 25.03C30.6 25.05 30.56 25.06 30.51 25.06C30.49 25.06 30.48 25.07 30.47 25.09C30.42 25.09 30.38 25.1 30.34 25.12C30.3 25.13 30.26 25.14 30.21 25.14C30.2 25.15 30.18 25.16 30.16 25.17C30.11 25.17 30.06 25.17 30.02 25.18C30 25.19 29.97 25.19 29.95 25.2C29.95 25.21 29.95 25.22 29.95 25.23C29.56 25.23 29.16 25.23 28.77 25.23C28.77 25.22 28.77 25.21 28.77 25.2C28.75 25.19 28.73 25.19 28.71 25.18C28.66 25.17 28.61 25.17 28.57 25.17C28.55 25.16 28.53 25.15 28.51 25.14C28.45 25.14 28.39 25.13 28.34 25.1C28.3 25.09 28.27 25.09 28.24 25.09C28.23 25.08 28.23 25.08 28.22 25.07C28.15 25.06 28.09 25.04 28.02 25.02C28 24.99 27.97 24.98 27.94 24.98C27.89 24.96 27.85 24.94 27.81 24.92C27.78 24.91 27.76 24.9 27.73 24.9C27.71 24.88 27.68 24.86 27.65 24.87C27.63 24.84 27.61 24.83 27.58 24.83C27.56 24.81 27.54 24.79 27.51 24.79C27.48 24.77 27.44 24.75 27.41 24.73C27.36 24.72 27.32 24.69 27.29 24.65C27.27 24.65 27.25 24.65 27.23 24.64C27.21 24.62 27.19 24.61 27.16 24.61C27.15 24.6 27.14 24.58 27.13 24.57C27.06 24.53 27 24.5 26.94 24.46C26.87 24.4 26.8 24.35 26.74 24.3C26.7 24.26 26.67 24.23 26.63 24.2C26.57 24.16 26.53 24.12 26.49 24.06C26.43 24 26.37 23.94 26.3 23.89C26.3 23.87 26.3 23.84 26.3 23.82C26.47 23.82 26.64 23.8 26.81 23.78C26.92 23.77 27.03 23.77 27.14 23.78C27.22 23.83 27.29 23.89 27.36 23.95C27.43 23.99 27.49 24.03 27.56 24.08C27.59 24.06 27.62 24.03 27.65 24.01C27.69 23.99 27.74 23.97 27.78 23.96C27.8 23.93 27.83 23.92 27.86 23.92C27.87 23.91 27.88 23.91 27.89 23.9C27.94 23.87 27.99 23.86 28.04 23.84C28.08 23.82 28.11 23.8 28.15 23.78C28.18 23.78 28.2 23.77 28.23 23.77C28.24 23.75 28.26 23.73 28.29 23.74C28.3 23.73 28.31 23.72 28.32 23.71C28.43 23.71 28.54 23.7 28.66 23.7C28.86 23.67 29.06 23.66 29.26 23.67C29.3 23.66 29.34 23.65 29.38 23.64C29.45 23.63 29.52 23.62 29.59 23.63C29.6 23.66 29.6 23.68 29.59 23.71C29.58 23.71 29.57 23.72 29.56 23.71C29.56 23.74 29.56 23.77 29.56 23.79C29.53 23.83 29.52 23.87 29.52 23.92C29.5 23.94 29.48 23.97 29.49 24C29.46 24.02 29.45 24.05 29.44 24.08C29.39 24.13 29.34 24.18 29.28 24.23C29.25 24.23 29.23 24.25 29.22 24.27C29.18 24.27 29.16 24.28 29.14 24.31C29.09 24.33 29.03 24.35 28.97 24.36C28.96 24.36 28.95 24.37 28.95 24.38C28.89 24.38 28.84 24.39 28.79 24.42C28.74 24.42 28.69 24.43 28.65 24.43C28.63 24.44 28.62 24.44 28.61 24.45C28.55 24.45 28.49 24.46 28.42 24.47C28.43 24.47 28.43 24.47 28.43 24.47C28.49 24.49 28.54 24.5 28.59 24.5C28.6 24.51 28.6 24.51 28.61 24.52C28.7 24.52 28.78 24.53 28.86 24.56C29.18 24.57 29.49 24.57 29.81 24.56C29.84 24.56 29.87 24.55 29.9 24.54C29.96 24.53 30.01 24.52 30.07 24.52C30.08 24.51 30.1 24.5 30.11 24.49C30.15 24.49 30.18 24.49 30.21 24.48C30.25 24.46 30.3 24.44 30.34 24.45C30.38 24.42 30.42 24.41 30.46 24.4C30.47 24.4 30.47 24.39 30.48 24.39C30.52 24.38 30.56 24.37 30.59 24.34C30.63 24.34 30.66 24.33 30.68 24.31C30.72 24.31 30.76 24.29 30.78 24.26C30.76 24.24 30.75 24.21 30.75 24.19C30.7 24.12 30.66 24.05 30.61 23.98C30.53 23.9 30.46 23.82 30.38 23.73C30.38 23.7 30.37 23.67 30.35 23.65C30.35 23.63 30.34 23.62 30.34 23.6C30.32 23.59 30.32 23.58 30.31 23.57C30.31 23.52 30.3 23.46 30.29 23.41C30.3 23.35 30.31 23.29 30.31 23.23C30.36 23.19 30.42 23.17 30.48 23.15C30.55 23.14 30.61 23.12 30.68 23.11C30.73 23.07 30.78 23.06 30.84 23.06C30.85 23.05 30.87 23.04 30.89 23.03C30.93 23.03 30.97 23.03 31.01 23.03C31.05 23 31.09 22.99 31.14 22.99C31.15 22.98 31.16 22.98 31.16 22.96C31.19 22.96 31.22 22.96 31.24 22.95C31.25 22.94 31.26 22.93 31.26 22.92Z" fill="#FFFFFF" fill-opacity="1.000000" fill-rule="evenodd"/>
	</g>
	<g opacity="0.986000">
		<path id="Vector" d="M10.67 29.15C10.56 29.15 10.44 29.15 10.33 29.15C9.67 29.03 9.24 28.64 9.05 28C9.03 27.9 9.01 27.8 9 27.7C9 27.58 9 27.47 9 27.36C9.08 26.73 9.41 26.28 9.99 26.02C10.41 25.88 10.82 25.89 11.23 26.06C11.47 26.17 11.66 26.35 11.79 26.58C11.8 26.6 11.8 26.61 11.8 26.63C11.65 26.74 11.49 26.85 11.34 26.97C11.14 26.62 10.83 26.45 10.43 26.48C10.15 26.53 9.95 26.66 9.8 26.9C9.6 27.26 9.57 27.63 9.72 28.02C9.95 28.49 10.32 28.67 10.83 28.56C11.06 28.48 11.24 28.35 11.39 28.17C11.39 28.1 11.4 28.02 11.39 27.95C11.18 27.95 10.97 27.95 10.75 27.95C10.75 27.8 10.75 27.65 10.75 27.49C11.14 27.49 11.53 27.49 11.91 27.49C11.91 28.04 11.91 28.59 11.91 29.14C11.74 29.14 11.57 29.14 11.39 29.14C11.4 29.02 11.39 28.9 11.39 28.79C11.19 28.99 10.95 29.11 10.67 29.15Z" fill="#FFFFFF" fill-opacity="1.000000" fill-rule="evenodd"/>
	</g>
	<g opacity="0.986000">
		<path id="Vector" d="M20.43 29.15C20.31 29.15 20.18 29.15 20.05 29.15C19.41 29.04 18.98 28.67 18.77 28.05C18.58 27.39 18.73 26.82 19.21 26.33C19.69 25.92 20.23 25.82 20.83 26.03C21.4 26.31 21.72 26.76 21.8 27.39C21.84 27.95 21.65 28.42 21.24 28.79C21.01 28.99 20.74 29.11 20.43 29.15ZM20.19 26.48C20.67 26.49 20.98 26.73 21.12 27.19C21.22 27.56 21.17 27.91 20.96 28.23C20.72 28.55 20.4 28.66 20.01 28.57C19.67 28.46 19.46 28.23 19.37 27.88C19.27 27.5 19.33 27.14 19.56 26.82C19.72 26.61 19.93 26.5 20.19 26.48Z" fill="#FFFFFF" fill-opacity="1.000000" fill-rule="evenodd"/>
	</g>
	<g opacity="0.987000">
		<path id="Vector" d="M14.41 25.95C14.62 25.95 14.83 25.95 15.04 25.95C15.04 26.83 15.04 27.71 15.04 28.58C15.58 28.58 16.12 28.58 16.66 28.58C16.66 28.77 16.66 28.95 16.66 29.14C15.91 29.14 15.16 29.14 14.41 29.14C14.41 28.07 14.41 27.01 14.41 25.95Z" fill="#FFFFFF" fill-opacity="1.000000" fill-rule="evenodd"/>
	</g>
	<g opacity="0.988000">
		<path id="Vector" d="M24.25 25.95C24.85 25.94 25.46 25.95 26.06 25.95C26.37 26.02 26.56 26.2 26.65 26.51C26.74 26.85 26.66 27.15 26.41 27.4C26.36 27.44 26.3 27.47 26.25 27.5C26.63 27.63 26.82 27.9 26.82 28.31C26.82 28.65 26.66 28.88 26.35 29.02C26.22 29.08 26.07 29.12 25.93 29.13C25.37 29.14 24.81 29.14 24.25 29.14C24.25 28.07 24.25 27.01 24.25 25.95ZM24.88 26.48C25.19 26.47 25.5 26.48 25.81 26.49C25.99 26.56 26.07 26.69 26.07 26.87C26.07 27.05 25.99 27.17 25.84 27.25C25.8 27.26 25.76 27.27 25.72 27.27C25.44 27.28 25.16 27.28 24.88 27.28C24.88 27.01 24.88 26.75 24.88 26.48ZM24.88 27.78C25.23 27.77 25.58 27.78 25.93 27.79C26.1 27.87 26.19 28 26.19 28.19C26.18 28.41 26.06 28.54 25.86 28.6C25.53 28.6 25.2 28.6 24.88 28.6C24.88 28.33 24.88 28.05 24.88 27.78Z" fill="#FFFFFF" fill-opacity="1.000000" fill-rule="evenodd"/>
	</g>
	<g opacity="0.986000">
		<path id="Vector" d="M30.03 25.95C30.22 25.95 30.41 25.95 30.6 25.95C31 27.01 31.4 28.07 31.81 29.13C31.59 29.14 31.37 29.14 31.16 29.13C31.06 28.87 30.97 28.61 30.87 28.35C30.5 28.34 30.13 28.34 29.76 28.35C29.66 28.61 29.57 28.87 29.47 29.13C29.26 29.14 29.04 29.14 28.82 29.13C29.23 28.07 29.63 27.01 30.03 25.95ZM30.31 26.68C30.32 26.68 30.32 26.69 30.33 26.7C30.47 27.1 30.61 27.5 30.74 27.9C30.45 27.9 30.16 27.9 29.86 27.9C30.02 27.49 30.16 27.09 30.31 26.68Z" fill="#FFFFFF" fill-opacity="1.000000" fill-rule="evenodd"/>
	</g>
	<g opacity="0.986000">
		<path id="Vector" d="M33.98 25.95C34.19 25.95 34.4 25.95 34.61 25.95C34.61 26.83 34.61 27.71 34.61 28.58C35.15 28.58 35.69 28.58 36.24 28.58C36.24 28.77 36.24 28.95 36.24 29.14C35.48 29.14 34.73 29.14 33.98 29.14C33.98 28.07 33.98 27.01 33.98 25.95Z" fill="#FFFFFF" fill-opacity="1.000000" fill-rule="evenodd"/>
	</g>
</svg>
