<svg width="20.000000" height="19.004150" viewBox="0 0 20 19.0042" fill="none" xmlns="http://www.w3.org/2000/svg" xmlns:xlink="http://www.w3.org/1999/xlink">
	<desc>
			Created with Pixso.
	</desc>
	<defs/>
	<path id="Vector" d="M5.01 0C4.8 0.01 4.53 0.09 4.38 0.21C4.33 0.26 4.19 0.39 4.16 0.43L0.2 6.4C0.06 6.59 0 6.84 0 7C0 7.43 0.28 7.69 0.28 7.69L9.21 18.62C9.22 18.63 9.54 19.01 10 19C10.45 18.99 10.77 18.63 10.78 18.62C11.06 18.28 19.75 7.65 19.75 7.65C19.75 7.65 20 7.31 20 7C20 6.69 19.76 6.34 19.76 6.34L15.84 0.44C15.81 0.39 15.75 0.41 15.71 0.37C15.67 0.33 15.67 0.26 15.62 0.22C15.47 0.09 15.3 0.08 15.12 0.06C15.07 0.05 15.04 0 15 0L14.9 0L5.01 0ZM7.12 2L12.87 2L10 5.44L7.12 2ZM5.09 2.69L7.87 6L2.87 6L5.09 2.69ZM14.9 2.69L17.12 6L12.12 6L14.9 2.69ZM3.12 8L9 8L9 15.19L3.12 8ZM11 8L16.87 8C15.48 9.7 12.72 13.08 11 15.19L11 8Z" fill="#242424" fill-opacity="1.000000" fill-rule="nonzero"/>
</svg>
