<svg width="41.000000" height="26.000000" viewBox="0 0 41 26" fill="none" xmlns="http://www.w3.org/2000/svg" xmlns:xlink="http://www.w3.org/1999/xlink">
	<desc>
			Created with Pixso.
	</desc>
	<defs>
		<clipPath id="clip6278_33314">
			<rect id="arrow.forward" rx="-0.500000" width="12.381092" height="9.931118" transform="translate(12.500000 14.657715) rotate(-44.999992)" fill="white" fill-opacity="0"/>
		</clipPath>
	</defs>
	<rect id="Rectangle 3604" rx="8.000000" width="41.000000" height="26.000000" fill="#DE2408" fill-opacity="1.000000"/>
	<rect id="arrow.forward" rx="-0.500000" width="12.381092" height="9.931118" transform="translate(12.500000 14.657715) rotate(-44.999992)" fill="#FFFFFF" fill-opacity="0"/>
	<g clip-path="url(#clip6278_33314)">
		<g opacity="0.000000">
			<path id="Vector" d="M12 14.15L21.15 5L28.63 12.48L19.48 21.63L12 14.15Z" fill="#000000" fill-opacity="1.000000" fill-rule="evenodd"/>
		</g>
		<path id="Vector" d="M24.89 8.73C24.77 8.61 24.6 8.55 24.41 8.55L17.88 8.56C17.67 8.56 17.52 8.62 17.4 8.74C17.16 8.98 17.15 9.35 17.4 9.6C17.52 9.71 17.67 9.79 17.83 9.79L20.06 9.81L23.8 9.64L23.65 9.29L21.97 10.78L15.73 17.02C15.47 17.27 15.48 17.63 15.73 17.89C15.99 18.15 16.35 18.15 16.61 17.9L22.84 11.66L24.33 9.97L23.99 9.83L23.82 13.57L23.84 15.79C23.83 15.95 23.91 16.11 24.03 16.22C24.27 16.47 24.64 16.46 24.88 16.22C25 16.1 25.06 15.95 25.06 15.76L25.07 9.21C25.08 9.02 25.01 8.86 24.89 8.73Z" fill="#FFFFFF" fill-opacity="1.000000" fill-rule="nonzero"/>
	</g>
</svg>
