<svg width="44.000000" height="44.000000" viewBox="0 0 44 44" fill="none" xmlns="http://www.w3.org/2000/svg" xmlns:xlink="http://www.w3.org/1999/xlink">
	<desc>
			Created with Pixso.
	</desc>
	<defs/>
	<rect id="Rectangle 3736" rx="22.000000" width="44.000000" height="44.000000" fill="#EFEFF0" fill-opacity="1.000000"/>
	<path id="Vector" d="M21.99 11.99C21.44 11.99 20.99 12.44 20.99 12.99L20.99 18.99C20.99 19.55 21.44 19.99 21.99 19.99C22.54 19.99 22.99 19.55 22.99 18.99L22.99 12.99C22.99 12.44 22.54 11.99 21.99 11.99ZM13.92 16.53C13.68 16.59 13.47 16.76 13.33 16.99C13.06 17.47 13.23 18.09 13.71 18.37L18.89 21.37C19.37 21.64 19.99 21.47 20.27 20.99C20.54 20.52 20.37 19.89 19.89 19.62L14.71 16.62C14.47 16.48 14.17 16.46 13.92 16.53ZM30.05 16.53C29.8 16.46 29.51 16.48 29.27 16.62L24.08 19.62C23.6 19.89 23.43 20.52 23.71 20.99C23.98 21.47 24.6 21.64 25.08 21.37L30.27 18.37C30.75 18.09 30.92 17.47 30.64 16.99C30.51 16.76 30.3 16.59 30.05 16.53ZM19.64 22.53C19.4 22.46 19.13 22.48 18.89 22.62L13.71 25.62C13.23 25.89 13.06 26.52 13.33 26.99C13.61 27.47 14.23 27.64 14.71 27.37L19.89 24.37C20.37 24.09 20.51 23.47 20.24 22.99C20.1 22.76 19.89 22.59 19.64 22.53ZM24.33 22.53C24.08 22.59 23.88 22.76 23.74 22.99C23.46 23.47 23.63 24.09 24.11 24.37L29.27 27.37C29.75 27.64 30.37 27.47 30.64 26.99C30.92 26.52 30.75 25.89 30.27 25.62L25.11 22.65C24.87 22.51 24.58 22.46 24.33 22.53ZM21.99 23.99C21.44 23.99 20.99 24.44 20.99 24.99L20.99 30.99C20.99 31.55 21.44 31.99 21.99 31.99C22.54 31.99 22.99 31.55 22.99 30.99L22.99 24.99C22.99 24.44 22.54 23.99 21.99 23.99Z" fill="#242424" fill-opacity="1.000000" fill-rule="nonzero"/>
	<path id="Vector" d="M20.82 12.74Q20.79 12.86 20.79 12.99L20.79 18.99Q20.79 19.13 20.82 19.25Q20.84 19.36 20.88 19.46Q20.93 19.56 20.98 19.65Q21.05 19.75 21.14 19.84Q21.23 19.93 21.33 20Q21.42 20.06 21.52 20.1Q21.62 20.14 21.73 20.17Q21.86 20.19 21.99 20.19Q22.12 20.19 22.25 20.17Q22.35 20.14 22.45 20.1Q22.56 20.06 22.65 20Q22.75 19.93 22.84 19.84Q22.92 19.75 22.99 19.65Q23.05 19.56 23.09 19.46Q23.14 19.36 23.16 19.25Q23.19 19.13 23.19 18.99L23.19 12.99Q23.19 12.86 23.16 12.74Q23.14 12.63 23.09 12.53Q23.05 12.43 22.99 12.33Q22.92 12.23 22.84 12.15Q22.75 12.06 22.65 11.99Q22.56 11.93 22.45 11.89Q22.35 11.85 22.25 11.82Q22.12 11.79 21.99 11.79Q21.86 11.79 21.73 11.82Q21.62 11.85 21.52 11.89Q21.42 11.93 21.33 11.99Q21.23 12.06 21.14 12.15Q21.05 12.23 20.98 12.33Q20.93 12.43 20.88 12.53Q20.84 12.63 20.82 12.74ZM21.99 11.99C21.44 11.99 20.99 12.44 20.99 12.99L20.99 18.99C20.99 19.55 21.44 19.99 21.99 19.99C22.54 19.99 22.99 19.55 22.99 18.99L22.99 12.99C22.99 12.44 22.54 11.99 21.99 11.99ZM29.25 16.4Q29.21 16.42 29.17 16.45L29.17 16.45L23.98 19.45Q23.88 19.51 23.79 19.58Q23.7 19.66 23.62 19.76Q23.56 19.85 23.51 19.95Q23.45 20.06 23.42 20.18Q23.38 20.31 23.38 20.44Q23.37 20.54 23.38 20.64Q23.4 20.76 23.43 20.88Q23.47 20.99 23.53 21.09Q23.59 21.2 23.67 21.29Q23.75 21.38 23.85 21.45Q23.94 21.52 24.04 21.57Q24.14 21.62 24.26 21.66Q24.39 21.69 24.53 21.7Q24.63 21.7 24.73 21.69Q24.85 21.68 24.96 21.64Q25.07 21.6 25.18 21.54L30.37 18.54Q30.47 18.48 30.56 18.41Q30.65 18.33 30.73 18.23Q30.79 18.14 30.84 18.04Q30.9 17.93 30.93 17.81Q30.97 17.68 30.97 17.55Q30.98 17.45 30.97 17.35Q30.95 17.23 30.92 17.11Q30.88 17 30.82 16.89Q30.71 16.71 30.56 16.58Q30.53 16.56 30.51 16.54Q30.41 16.46 30.3 16.41Q30.21 16.36 30.1 16.33Q30.02 16.31 29.94 16.3Q29.79 16.28 29.63 16.3Q29.43 16.32 29.25 16.4ZM13.41 16.58Q13.26 16.71 13.16 16.89L13.16 16.89Q13.1 17 13.06 17.11Q13.02 17.23 13.01 17.35Q13 17.45 13 17.55Q13.01 17.68 13.04 17.81Q13.08 17.93 13.13 18.04Q13.18 18.14 13.25 18.23Q13.32 18.32 13.41 18.4Q13.5 18.48 13.61 18.54L18.79 21.54Q18.9 21.6 19.01 21.64Q19.13 21.68 19.25 21.69Q19.35 21.7 19.45 21.7Q19.58 21.69 19.71 21.66Q19.83 21.62 19.94 21.57Q20.04 21.52 20.13 21.45Q20.22 21.38 20.3 21.29Q20.38 21.2 20.44 21.09Q20.5 20.99 20.54 20.88Q20.58 20.76 20.59 20.64Q20.6 20.54 20.6 20.44Q20.59 20.31 20.56 20.18Q20.52 20.06 20.47 19.95Q20.42 19.85 20.35 19.76Q20.28 19.66 20.19 19.58Q20.1 19.51 19.99 19.45L14.81 16.45Q14.77 16.42 14.72 16.4Q14.55 16.32 14.34 16.3Q14.19 16.28 14.04 16.3Q13.96 16.31 13.87 16.33Q13.77 16.36 13.68 16.4Q13.56 16.46 13.46 16.54Q13.44 16.56 13.41 16.58ZM13.92 16.53C13.68 16.59 13.47 16.76 13.33 16.99C13.06 17.47 13.23 18.09 13.71 18.37L18.89 21.37C19.37 21.64 19.99 21.47 20.27 20.99C20.54 20.52 20.37 19.89 19.89 19.62L14.71 16.62C14.47 16.48 14.17 16.46 13.92 16.53ZM30.05 16.53C29.8 16.46 29.51 16.48 29.27 16.62L24.08 19.62C23.6 19.89 23.43 20.52 23.71 20.99C23.98 21.47 24.6 21.64 25.08 21.37L30.27 18.37C30.75 18.09 30.92 17.47 30.64 16.99C30.51 16.76 30.3 16.59 30.05 16.53ZM19.19 22.3Q18.99 22.34 18.79 22.45L18.79 22.45L13.61 25.45Q13.5 25.51 13.41 25.58Q13.32 25.66 13.25 25.76Q13.18 25.85 13.13 25.95Q13.08 26.06 13.04 26.18Q13.01 26.31 13 26.44Q13 26.54 13.01 26.64Q13.02 26.76 13.06 26.88Q13.1 26.99 13.16 27.09Q13.22 27.2 13.3 27.29Q13.38 27.38 13.47 27.45Q13.56 27.52 13.66 27.57Q13.77 27.62 13.89 27.66Q14.02 27.69 14.15 27.7Q14.25 27.7 14.35 27.69Q14.47 27.68 14.59 27.64Q14.7 27.6 14.81 27.54L19.99 24.54Q20.11 24.48 20.2 24.39Q20.28 24.32 20.35 24.22Q20.4 24.15 20.44 24.07Q20.51 23.94 20.54 23.8Q20.57 23.7 20.57 23.6Q20.58 23.47 20.57 23.34Q20.55 23.23 20.51 23.12Q20.47 23 20.41 22.89Q20.31 22.71 20.16 22.58Q20.13 22.56 20.11 22.54Q20.01 22.46 19.89 22.4Q19.8 22.36 19.7 22.33Q19.43 22.26 19.19 22.3ZM23.81 22.58Q23.67 22.71 23.56 22.89Q23.5 23 23.47 23.11Q23.43 23.23 23.41 23.35Q23.4 23.45 23.41 23.55Q23.41 23.68 23.45 23.81Q23.48 23.93 23.54 24.04Q23.59 24.14 23.65 24.23Q23.73 24.32 23.82 24.4Q23.91 24.48 24.01 24.54L29.17 27.54Q29.28 27.61 29.4 27.64Q29.51 27.68 29.62 27.69Q29.72 27.7 29.82 27.7Q29.96 27.69 30.09 27.66Q30.21 27.62 30.31 27.57Q30.41 27.52 30.5 27.45Q30.6 27.38 30.68 27.29Q30.76 27.2 30.82 27.09Q30.88 26.99 30.92 26.88Q30.95 26.76 30.97 26.64Q30.98 26.54 30.97 26.44Q30.97 26.31 30.93 26.18Q30.9 26.06 30.84 25.95Q30.79 25.85 30.73 25.76Q30.65 25.66 30.56 25.59Q30.47 25.51 30.37 25.45L25.21 22.48Q25.1 22.41 24.97 22.37Q24.87 22.33 24.76 22.31Q24.5 22.27 24.28 22.33Q24.18 22.36 24.08 22.4Q23.97 22.46 23.87 22.54Q23.84 22.56 23.81 22.58ZM19.64 22.53C19.4 22.46 19.13 22.48 18.89 22.62L13.71 25.62C13.23 25.89 13.06 26.52 13.33 26.99C13.61 27.47 14.23 27.64 14.71 27.37L19.89 24.37C20.37 24.09 20.51 23.47 20.24 22.99C20.1 22.76 19.89 22.59 19.64 22.53ZM24.33 22.53C24.08 22.59 23.88 22.76 23.74 22.99C23.46 23.47 23.63 24.09 24.11 24.37L29.27 27.37C29.75 27.64 30.37 27.47 30.64 26.99C30.92 26.52 30.75 25.89 30.27 25.62L25.11 22.65C24.87 22.51 24.58 22.46 24.33 22.53ZM20.82 24.74Q20.79 24.86 20.79 24.99L20.79 30.99Q20.79 31.13 20.82 31.25Q20.84 31.36 20.88 31.46Q20.93 31.56 20.98 31.65Q21.05 31.75 21.14 31.84Q21.23 31.93 21.33 32Q21.42 32.06 21.52 32.1Q21.62 32.14 21.73 32.17Q21.86 32.19 21.99 32.19Q22.12 32.19 22.25 32.17Q22.35 32.14 22.45 32.1Q22.56 32.06 22.65 32Q22.75 31.93 22.84 31.84Q22.92 31.75 22.99 31.65Q23.05 31.56 23.09 31.46Q23.14 31.36 23.16 31.25Q23.19 31.13 23.19 30.99L23.19 24.99Q23.19 24.86 23.16 24.74Q23.14 24.63 23.09 24.53Q23.05 24.43 22.99 24.33Q22.92 24.23 22.84 24.15Q22.75 24.06 22.65 23.99Q22.56 23.93 22.45 23.89Q22.35 23.85 22.25 23.82Q22.12 23.79 21.99 23.79Q21.86 23.79 21.73 23.82Q21.62 23.85 21.52 23.89Q21.42 23.93 21.33 23.99Q21.23 24.06 21.14 24.15Q21.05 24.23 20.98 24.33Q20.93 24.43 20.88 24.53Q20.84 24.63 20.82 24.74ZM21.99 23.99C21.44 23.99 20.99 24.44 20.99 24.99L20.99 30.99C20.99 31.55 21.44 31.99 21.99 31.99C22.54 31.99 22.99 31.55 22.99 30.99L22.99 24.99C22.99 24.44 22.54 23.99 21.99 23.99Z" fill="#242424" fill-opacity="1.000000" fill-rule="evenodd"/>
</svg>
