<svg width="44.000000" height="44.000000" viewBox="0 0 44 44" fill="none" xmlns="http://www.w3.org/2000/svg" xmlns:xlink="http://www.w3.org/1999/xlink">
	<desc>
			Created with Pixso.
	</desc>
	<defs/>
	<rect id="Rectangle 3736" rx="22.000000" width="44.000000" height="44.000000" fill="#EFEFF0" fill-opacity="1.000000"/>
	<path id="Vector" d="M22.01 11.99C16.49 11.99 12.01 16.47 12.01 21.99C12.01 27.52 16.49 31.99 22.01 31.99C27.09 31.99 31.35 28.19 31.95 23.18C32.01 22.63 31.62 22.12 31.07 22.06C30.52 21.99 30.01 22.38 29.95 22.93C29.47 26.93 26.07 29.99 22.01 29.99C17.59 29.99 14.01 26.41 14.01 21.99C14.01 17.58 17.59 13.99 22.01 13.99C22.93 13.99 23.85 14.16 24.7 14.46C25.22 14.65 25.76 14.36 25.95 13.84C26.13 13.32 25.87 12.74 25.35 12.56C24.29 12.18 23.16 11.99 22.01 11.99ZM31.01 13.99C30.75 13.99 30.49 14.08 30.29 14.27L21.57 22.87C21.31 23.12 21.06 23.07 20.85 22.77L19.85 21.31C19.55 20.85 18.91 20.72 18.45 21.02C17.99 21.33 17.86 21.95 18.17 22.4L19.17 23.87C20.07 25.2 21.83 25.37 22.98 24.24L31.73 15.68C32.12 15.3 32.12 14.66 31.73 14.27C31.53 14.08 31.27 13.99 31.01 13.99Z" fill="#242424" fill-opacity="1.000000" fill-rule="nonzero"/>
	<path id="Vector" d="M12.15 19.77Q11.91 20.86 11.91 21.99Q11.91 23.13 12.15 24.21Q12.35 25.09 12.7 25.93Q13.06 26.78 13.56 27.54Q14.13 28.39 14.87 29.14Q15.61 29.88 16.47 30.44Q17.23 30.94 18.08 31.3Q18.92 31.66 19.79 31.85Q20.87 32.09 22.01 32.09Q23.04 32.09 24.03 31.89Q24.86 31.72 25.66 31.41Q26.46 31.1 27.19 30.67Q28 30.18 28.73 29.54Q29.46 28.89 30.04 28.13Q30.55 27.46 30.95 26.72Q31.37 25.93 31.63 25.09Q31.93 24.17 32.05 23.19Q32.06 23.08 32.05 22.97Q32.04 22.86 32.01 22.76Q31.98 22.66 31.94 22.56Q31.89 22.47 31.82 22.38Q31.74 22.28 31.64 22.2Q31.58 22.14 31.5 22.1Q31.4 22.04 31.3 22.01Q31.2 21.97 31.08 21.96Q30.97 21.94 30.86 21.95Q30.75 21.96 30.65 21.99Q30.55 22.02 30.45 22.07Q30.35 22.12 30.27 22.18Q30.16 22.26 30.09 22.36Q30.03 22.43 29.99 22.5Q29.93 22.6 29.9 22.7Q29.86 22.81 29.85 22.92Q29.76 23.68 29.53 24.39Q29.32 25.05 28.99 25.68Q28.67 26.28 28.27 26.81Q27.82 27.39 27.26 27.89Q26.68 28.41 26.02 28.8Q25.47 29.12 24.86 29.36Q24.23 29.6 23.58 29.74Q22.81 29.89 22.01 29.89Q21.12 29.89 20.27 29.7Q19.59 29.55 18.93 29.27Q18.27 28.99 17.68 28.6Q17 28.16 16.42 27.58Q15.84 27 15.4 26.33Q15.01 25.73 14.73 25.07Q14.45 24.41 14.3 23.73Q14.11 22.88 14.11 21.99Q14.11 21.1 14.3 20.26Q14.45 19.57 14.73 18.92Q15.01 18.25 15.4 17.66Q15.84 16.99 16.42 16.41Q17 15.83 17.68 15.39Q18.27 15 18.93 14.71Q19.59 14.44 20.27 14.28Q21.12 14.09 22.01 14.09Q22.38 14.09 22.74 14.13Q23.72 14.22 24.66 14.56Q24.8 14.6 24.93 14.62Q25.01 14.62 25.09 14.62Q25.18 14.61 25.26 14.59Q25.38 14.56 25.49 14.5Q25.57 14.47 25.63 14.42Q25.74 14.35 25.82 14.25Q25.88 14.19 25.92 14.12Q25.99 14 26.04 13.87Q26.08 13.75 26.1 13.63Q26.11 13.54 26.1 13.44Q26.1 13.32 26.07 13.22Q26.05 13.12 26.01 13.03Q25.95 12.92 25.88 12.82Q25.83 12.75 25.76 12.69Q25.69 12.62 25.61 12.57Q25.5 12.5 25.39 12.46Q25.18 12.39 24.97 12.32Q23.55 11.89 22.01 11.89Q20.87 11.89 19.79 12.14Q18.92 12.33 18.08 12.69Q17.23 13.05 16.47 13.55Q15.61 14.11 14.87 14.85Q14.13 15.59 13.56 16.45Q13.06 17.21 12.7 18.06Q12.35 18.9 12.15 19.77ZM22.01 11.99C16.49 11.99 12.01 16.47 12.01 21.99C12.01 27.52 16.49 31.99 22.01 31.99C27.09 31.99 31.35 28.19 31.95 23.18C32.01 22.63 31.62 22.12 31.07 22.06C30.52 21.99 30.01 22.38 29.95 22.93C29.47 26.93 26.07 29.99 22.01 29.99C17.59 29.99 14.01 26.41 14.01 21.99C14.01 17.58 17.59 13.99 22.01 13.99C22.93 13.99 23.85 14.16 24.7 14.46C25.22 14.65 25.76 14.36 25.95 13.84C26.13 13.32 25.87 12.74 25.35 12.56C24.29 12.18 23.16 11.99 22.01 11.99ZM30.3 14.13Q30.26 14.16 30.22 14.2L30.22 14.2L21.5 22.8Q21.35 22.94 21.22 22.93Q21.21 22.93 21.21 22.93Q21.06 22.91 20.94 22.72L19.94 21.25Q19.89 21.18 19.83 21.11Q19.74 21.02 19.62 20.95Q19.55 20.9 19.47 20.86Q19.35 20.81 19.23 20.79Q19.1 20.76 18.97 20.76Q18.88 20.77 18.8 20.78Q18.67 20.8 18.55 20.85Q18.47 20.89 18.39 20.94Q18.3 21 18.22 21.08Q18.14 21.16 18.08 21.25Q18.03 21.33 17.99 21.42Q17.94 21.53 17.92 21.64Q17.9 21.76 17.9 21.88Q17.9 21.97 17.92 22.06Q17.94 22.16 17.98 22.26Q18.02 22.36 18.08 22.46L19.08 23.93Q19.34 24.3 19.68 24.56Q19.8 24.66 19.93 24.73Q20.19 24.89 20.48 24.98Q20.72 25.05 20.97 25.08Q21.22 25.1 21.46 25.08Q21.76 25.05 22.06 24.94Q22.2 24.89 22.33 24.83Q22.72 24.64 23.05 24.32L31.8 15.75Q31.88 15.67 31.94 15.58Q32 15.49 32.04 15.39Q32.08 15.3 32.1 15.21Q32.12 15.1 32.12 14.98Q32.12 14.86 32.1 14.75Q32.08 14.65 32.04 14.57Q32 14.46 31.94 14.37Q31.88 14.28 31.8 14.2Q31.76 14.16 31.72 14.13Q31.59 14.03 31.43 13.97Q31.36 13.94 31.29 13.93Q31.15 13.89 31.01 13.89Q30.87 13.89 30.75 13.92Q30.67 13.94 30.59 13.97Q30.43 14.03 30.3 14.13ZM31.01 13.99C30.75 13.99 30.49 14.08 30.29 14.27L21.57 22.87C21.31 23.12 21.06 23.07 20.85 22.77L19.85 21.31C19.55 20.85 18.91 20.72 18.45 21.02C17.99 21.33 17.86 21.95 18.17 22.4L19.17 23.87C20.07 25.2 21.83 25.37 22.98 24.24L31.73 15.68C32.12 15.3 32.12 14.66 31.73 14.27C31.53 14.08 31.27 13.99 31.01 13.99Z" fill="#242424" fill-opacity="1.000000" fill-rule="evenodd"/>
</svg>
