<svg width="12.750000" height="12.750000" viewBox="0 0 12.75 12.75" fill="none" xmlns="http://www.w3.org/2000/svg" xmlns:xlink="http://www.w3.org/1999/xlink">
	<desc>
			Created with Pixso.
	</desc>
	<defs/>
	<path id="Vector" d="M3.18 0C1.73 0 0 1.73 0 3.18C0 4.73 1.44 7.42 3.03 9C3.17 9.15 3.59 9.57 3.74 9.71C5.32 11.3 8.01 12.75 9.56 12.75C11.01 12.75 12.75 11.01 12.75 9.56C12.75 8.1 11.01 6.37 9.56 6.37C9.27 6.37 8.97 6.49 8.41 6.75C8.35 6.77 7.92 6.98 7.81 7.03C7.02 6.82 5.95 5.73 5.71 4.91C5.76 4.79 5.97 4.38 5.99 4.33C6.27 3.76 6.37 3.48 6.37 3.18C6.37 1.73 4.64 0 3.18 0ZM3.18 1.41C3.85 1.41 4.95 2.51 4.95 3.18C4.95 3.16 4.86 3.42 4.71 3.74C4.69 3.78 4.45 4.23 4.4 4.36C4.23 4.73 4.21 4.85 4.27 5.11C4.56 6.53 6.25 8.22 7.65 8.47C7.91 8.52 7.97 8.5 8.36 8.32C8.47 8.27 8.95 8.05 9 8.03C9.32 7.89 9.57 7.79 9.56 7.79C10.23 7.79 11.33 8.89 11.33 9.56C11.33 10.23 10.23 11.33 9.56 11.33C8.45 11.33 6.1 10.04 4.75 8.69C4.61 8.55 4.19 8.13 4.05 7.99C2.7 6.64 1.41 4.29 1.41 3.18C1.41 2.51 2.51 1.41 3.18 1.41Z" fill="#000000" fill-opacity="1.000000" fill-rule="nonzero"/>
</svg>
