<svg width="14.037109" height="18.000244" viewBox="0 0 14.0371 18.0002" fill="none" xmlns="http://www.w3.org/2000/svg" xmlns:xlink="http://www.w3.org/1999/xlink">
	<desc>
			Created with Pixso.
	</desc>
	<defs/>
	<path id="Vector" d="M3.06 0C1.38 -0.03 0.07 1.28 0.03 3.03C0 4.42 -0.01 6.27 0 8.56C0 9.88 0.03 14.79 0.03 15C0.04 16.71 1.38 18 3.06 18C3.55 18 4.07 17.89 4.62 17.56C5.25 17.18 6.66 16.15 8.72 14.59C8.8 14.53 12.72 11.49 12.87 11.37C13.76 10.69 14.07 9.75 14.03 8.93C14.01 8.63 13.98 8.35 13.87 8.03C13.7 7.5 13.43 7.02 12.97 6.68C12.46 6.3 8.86 3.57 8.81 3.53C6.67 1.9 5.29 0.89 4.59 0.43C4.08 0.1 3.65 -0.01 3.09 0C3.06 0 3.08 0 3.06 0Z" fill="#242424" fill-opacity="1.000000" fill-rule="nonzero"/>
</svg>
