<svg width="16.636719" height="16.636719" viewBox="0 0 16.6367 16.6367" fill="none" xmlns="http://www.w3.org/2000/svg" xmlns:xlink="http://www.w3.org/1999/xlink">
	<desc>
			Created with Pixso.
	</desc>
	<defs>
		<clipPath id="clip6343_857">
			<rect id="arrow.forward" rx="-0.500000" width="11.994473" height="9.615285" transform="translate(0.500000 9.656738) rotate(-44.999992)" fill="white" fill-opacity="0"/>
		</clipPath>
	</defs>
	<rect id="arrow.forward" rx="-0.500000" width="11.994473" height="9.615285" transform="translate(0.500000 9.656738) rotate(-44.999992)" fill="#FFFFFF" fill-opacity="0"/>
	<g clip-path="url(#clip6343_857)">
		<g opacity="0.000000">
			<path id="Vector" d="M0 9.15L9.15 0L16.63 7.47L7.48 16.63L0 9.15Z" fill="#000000" fill-opacity="1.000000" fill-rule="evenodd"/>
		</g>
		<path id="Vector" d="M12.89 3.73C12.77 3.61 12.6 3.55 12.41 3.55L5.88 3.56C5.67 3.56 5.52 3.62 5.4 3.74C5.16 3.98 5.15 4.35 5.4 4.6C5.52 4.71 5.67 4.79 5.83 4.79L8.06 4.81L11.8 4.64L11.65 4.29L9.97 5.78L3.73 12.02C3.47 12.27 3.48 12.63 3.73 12.89C3.99 13.15 4.35 13.15 4.61 12.89L10.84 6.66L12.33 4.97L11.99 4.83L11.81 8.56L11.83 10.79C11.83 10.95 11.91 11.1 12.03 11.22C12.27 11.47 12.64 11.46 12.88 11.22C13 11.1 13.06 10.95 13.06 10.76L13.07 4.21C13.08 4.02 13.01 3.86 12.89 3.73Z" fill="#DE2408" fill-opacity="1.000000" fill-rule="nonzero"/>
	</g>
</svg>
