<svg width="17.048828" height="13.918457" viewBox="0 0 17.0488 13.9185" fill="none" xmlns="http://www.w3.org/2000/svg" xmlns:xlink="http://www.w3.org/1999/xlink">
	<desc>
			Created with Pixso.
	</desc>
	<defs/>
	<path id="Vector" d="M17.04 6.95C17.04 6.72 16.95 6.51 16.77 6.34L10.68 0.27C10.48 0.07 10.29 0 10.07 0C9.62 0 9.27 0.33 9.27 0.78C9.27 1 9.34 1.22 9.49 1.36L11.54 3.46L15.19 6.78L15.37 6.32L12.42 6.14L0.8 6.14C0.33 6.14 0 6.48 0 6.95C0 7.43 0.33 7.77 0.8 7.77L12.42 7.77L15.37 7.59L15.19 7.14L11.54 10.45L9.49 12.55C9.34 12.68 9.27 12.9 9.27 13.12C9.27 13.58 9.62 13.91 10.07 13.91C10.29 13.91 10.48 13.83 10.66 13.66L16.77 7.57C16.95 7.39 17.04 7.18 17.04 6.95Z" fill="#242424" fill-opacity="1.000000" fill-rule="nonzero"/>
</svg>
