<svg width="14.258789" height="14.258301" viewBox="0 0 14.2588 14.2583" fill="none" xmlns="http://www.w3.org/2000/svg" xmlns:xlink="http://www.w3.org/1999/xlink">
	<desc>
			Created with Pixso.
	</desc>
	<defs/>
	<path id="Vector" d="M6 0C2.68 0 0 2.68 0 6C0 9.31 2.68 12 6 12C7.37 12 8.68 11.52 9.69 10.74L12.96 14.03C13.25 14.33 13.74 14.33 14.03 14.03C14.33 13.74 14.33 13.25 14.03 12.96L10.75 9.69C11.53 8.67 12 7.37 12 6C12 2.68 9.31 0 6 0ZM6 1.5C8.48 1.5 10.5 3.51 10.5 6C10.5 8.48 8.48 10.5 6 10.5C3.51 10.5 1.5 8.48 1.5 6C1.5 3.51 3.51 1.5 6 1.5Z" fill="#242424" fill-opacity="1.000000" fill-rule="nonzero"/>
</svg>
