<svg width="18.000000" height="18.000000" viewBox="0 0 18 18" fill="none" xmlns="http://www.w3.org/2000/svg" xmlns:xlink="http://www.w3.org/1999/xlink">
	<desc>
			Created with Pixso.
	</desc>
	<defs>
		<clipPath id="clip6382_2536">
			<rect id="United States-Circle" rx="8.500000" width="17.000000" height="17.000000" transform="translate(0.500000 0.500000)" fill="white" fill-opacity="0"/>
		</clipPath>
	</defs>
	<rect id="United States-Circle" rx="8.500000" width="17.000000" height="17.000000" transform="translate(0.500000 0.500000)" fill="#F9F9F9" fill-opacity="1.000000"/>
	<g clip-path="url(#clip6382_2536)">
		<path id="Vector" d="M18 0L0 0L0 1.5L18 1.5L18 0Z" fill="#D74B4B" fill-opacity="1.000000" fill-rule="evenodd"/>
		<path id="Vector" d="M18 3.3L0 3.3L0 4.8L18 4.8L18 3.3Z" fill="#D74B4B" fill-opacity="1.000000" fill-rule="evenodd"/>
		<path id="Vector" d="M0 6.59L18 6.59L18 8.09L0 8.09L0 6.59Z" fill="#D74B4B" fill-opacity="1.000000" fill-rule="evenodd"/>
		<path id="Vector" d="M18 9.9L0 9.9L0 11.4L18 11.4L18 9.9Z" fill="#D74B4B" fill-opacity="1.000000" fill-rule="evenodd"/>
		<path id="Vector" d="M0 13.2L18 13.2L18 14.7L0 14.7L0 13.2Z" fill="#D74B4B" fill-opacity="1.000000" fill-rule="evenodd"/>
		<path id="Vector" d="M18 16.5L0 16.5L0 18L18 18L18 16.5Z" fill="#D74B4B" fill-opacity="1.000000" fill-rule="evenodd"/>
		<path id="Vector" d="M0 0L10.51 0L10.51 11.4L0 11.4L0 0Z" fill="#485CC2" fill-opacity="1.000000" fill-rule="evenodd"/>
		<path id="Vector" d="M1.73 1.04L1.82 1.3L2.09 1.3L1.87 1.46L1.95 1.72L1.73 1.56L1.51 1.72L1.6 1.46L1.38 1.3L1.65 1.3L1.73 1.04Z" fill="#F9F9F9" fill-opacity="1.000000" fill-rule="nonzero"/>
		<path id="Vector" d="M1.07 2.8L0.98 2.54L0.9 2.8L0.63 2.8L0.85 2.96L0.76 3.22L0.98 3.06L1.2 3.22L1.12 2.96L1.34 2.8L1.07 2.8Z" fill="#F9F9F9" fill-opacity="1.000000" fill-rule="nonzero"/>
		<path id="Vector" d="M1.73 4.41L1.82 4.67L2.09 4.67L1.87 4.83L1.95 5.09L1.73 4.93L1.51 5.09L1.6 4.83L1.38 4.67L1.65 4.67L1.73 4.41Z" fill="#F9F9F9" fill-opacity="1.000000" fill-rule="nonzero"/>
		<path id="Vector" d="M1.73 7.79L1.82 8.05L2.09 8.05L1.87 8.21L1.95 8.47L1.73 8.31L1.51 8.47L1.6 8.21L1.38 8.05L1.65 8.05L1.73 7.79Z" fill="#F9F9F9" fill-opacity="1.000000" fill-rule="nonzero"/>
		<path id="Vector" d="M0.98 6.29L1.07 6.55L1.34 6.55L1.12 6.71L1.2 6.97L0.98 6.81L0.76 6.97L0.85 6.71L0.63 6.55L0.9 6.55L0.98 6.29Z" fill="#F9F9F9" fill-opacity="1.000000" fill-rule="nonzero"/>
		<path id="Vector" d="M1.07 9.55L0.98 9.29L0.9 9.55L0.63 9.55L0.85 9.71L0.76 9.97L0.98 9.81L1.2 9.97L1.12 9.71L1.34 9.55L1.07 9.55Z" fill="#F9F9F9" fill-opacity="1.000000" fill-rule="nonzero"/>
		<path id="Vector" d="M3.98 4.41L4.07 4.67L4.34 4.67L4.12 4.83L4.2 5.09L3.98 4.93L3.76 5.09L3.85 4.83L3.63 4.67L3.9 4.67L3.98 4.41Z" fill="#F9F9F9" fill-opacity="1.000000" fill-rule="nonzero"/>
		<path id="Vector" d="M4.07 8.05L3.98 7.79L3.9 8.05L3.63 8.05L3.85 8.21L3.76 8.47L3.98 8.31L4.2 8.47L4.12 8.21L4.34 8.05L4.07 8.05Z" fill="#F9F9F9" fill-opacity="1.000000" fill-rule="nonzero"/>
		<path id="Vector" d="M2.86 2.54L2.95 2.8L3.22 2.8L3 2.96L3.08 3.22L2.86 3.06L2.64 3.22L2.73 2.96L2.51 2.8L2.78 2.8L2.86 2.54Z" fill="#F9F9F9" fill-opacity="1.000000" fill-rule="nonzero"/>
		<path id="Vector" d="M2.95 6.55L2.86 6.29L2.78 6.55L2.51 6.55L2.73 6.71L2.64 6.97L2.86 6.81L3.08 6.97L3 6.71L3.22 6.55L2.95 6.55Z" fill="#F9F9F9" fill-opacity="1.000000" fill-rule="nonzero"/>
		<path id="Vector" d="M2.86 9.29L2.95 9.55L3.22 9.55L3 9.71L3.08 9.97L2.86 9.81L2.64 9.97L2.73 9.71L2.51 9.55L2.78 9.55L2.86 9.29Z" fill="#F9F9F9" fill-opacity="1.000000" fill-rule="nonzero"/>
		<path id="Vector" d="M6.32 4.67L6.23 4.41L6.15 4.67L5.88 4.67L6.1 4.83L6.01 5.09L6.23 4.93L6.45 5.09L6.37 4.83L6.59 4.67L6.32 4.67Z" fill="#F9F9F9" fill-opacity="1.000000" fill-rule="nonzero"/>
		<path id="Vector" d="M6.23 7.79L6.32 8.05L6.59 8.05L6.37 8.21L6.45 8.47L6.23 8.31L6.01 8.47L6.1 8.21L5.88 8.05L6.15 8.05L6.23 7.79Z" fill="#F9F9F9" fill-opacity="1.000000" fill-rule="nonzero"/>
		<path id="Vector" d="M5.2 2.8L5.11 2.54L5.03 2.8L4.76 2.8L4.98 2.96L4.89 3.22L5.11 3.06L5.33 3.22L5.25 2.96L5.47 2.8L5.2 2.8Z" fill="#F9F9F9" fill-opacity="1.000000" fill-rule="nonzero"/>
		<path id="Vector" d="M5.11 6.29L5.2 6.55L5.47 6.55L5.25 6.71L5.33 6.97L5.11 6.81L4.89 6.97L4.98 6.71L4.76 6.55L5.03 6.55L5.11 6.29Z" fill="#F9F9F9" fill-opacity="1.000000" fill-rule="nonzero"/>
		<path id="Vector" d="M5.2 9.55L5.11 9.29L5.03 9.55L4.76 9.55L4.98 9.71L4.89 9.97L5.11 9.81L5.33 9.97L5.25 9.71L5.47 9.55L5.2 9.55Z" fill="#F9F9F9" fill-opacity="1.000000" fill-rule="nonzero"/>
		<path id="Vector" d="M8.48 4.41L8.57 4.67L8.84 4.67L8.62 4.83L8.7 5.09L8.48 4.93L8.26 5.09L8.35 4.83L8.13 4.67L8.4 4.67L8.48 4.41Z" fill="#F9F9F9" fill-opacity="1.000000" fill-rule="nonzero"/>
		<path id="Vector" d="M8.57 8.05L8.48 7.79L8.4 8.05L8.13 8.05L8.35 8.21L8.26 8.47L8.48 8.31L8.7 8.47L8.62 8.21L8.84 8.05L8.57 8.05Z" fill="#F9F9F9" fill-opacity="1.000000" fill-rule="nonzero"/>
		<path id="Vector" d="M7.36 2.54L7.45 2.8L7.72 2.8L7.5 2.96L7.58 3.22L7.36 3.06L7.14 3.22L7.23 2.96L7.01 2.8L7.28 2.8L7.36 2.54Z" fill="#F9F9F9" fill-opacity="1.000000" fill-rule="nonzero"/>
		<path id="Vector" d="M7.45 6.55L7.36 6.29L7.28 6.55L7.01 6.55L7.23 6.71L7.14 6.97L7.36 6.81L7.58 6.97L7.5 6.71L7.72 6.55L7.45 6.55Z" fill="#F9F9F9" fill-opacity="1.000000" fill-rule="nonzero"/>
		<path id="Vector" d="M7.36 9.29L7.45 9.55L7.72 9.55L7.5 9.71L7.58 9.97L7.36 9.81L7.14 9.97L7.23 9.71L7.01 9.55L7.28 9.55L7.36 9.29Z" fill="#F9F9F9" fill-opacity="1.000000" fill-rule="nonzero"/>
		<path id="Vector" d="M9.7 2.8L9.61 2.54L9.53 2.8L9.26 2.8L9.48 2.96L9.39 3.22L9.61 3.06L9.83 3.22L9.75 2.96L9.97 2.8L9.7 2.8Z" fill="#F9F9F9" fill-opacity="1.000000" fill-rule="nonzero"/>
		<path id="Vector" d="M9.61 6.29L9.7 6.55L9.97 6.55L9.75 6.71L9.83 6.97L9.61 6.81L9.39 6.97L9.48 6.71L9.26 6.55L9.53 6.55L9.61 6.29Z" fill="#F9F9F9" fill-opacity="1.000000" fill-rule="nonzero"/>
		<path id="Vector" d="M9.7 9.55L9.61 9.29L9.53 9.55L9.26 9.55L9.48 9.71L9.39 9.97L9.61 9.81L9.83 9.97L9.75 9.71L9.97 9.55L9.7 9.55Z" fill="#F9F9F9" fill-opacity="1.000000" fill-rule="nonzero"/>
		<path id="Vector" d="M4.07 1.3L3.98 1.04L3.9 1.3L3.63 1.3L3.85 1.46L3.76 1.72L3.98 1.56L4.2 1.72L4.12 1.46L4.34 1.3L4.07 1.3Z" fill="#F9F9F9" fill-opacity="1.000000" fill-rule="nonzero"/>
		<path id="Vector" d="M6.23 1.04L6.32 1.3L6.59 1.3L6.37 1.46L6.45 1.72L6.23 1.56L6.01 1.72L6.1 1.46L5.88 1.3L6.15 1.3L6.23 1.04Z" fill="#F9F9F9" fill-opacity="1.000000" fill-rule="nonzero"/>
		<path id="Vector" d="M8.57 1.3L8.48 1.04L8.4 1.3L8.13 1.3L8.35 1.46L8.26 1.72L8.48 1.56L8.7 1.72L8.62 1.46L8.84 1.3L8.57 1.3Z" fill="#F9F9F9" fill-opacity="1.000000" fill-rule="nonzero"/>
	</g>
</svg>
