<svg width="26.000000" height="26.000000" viewBox="0 0 26 26" fill="none" xmlns="http://www.w3.org/2000/svg" xmlns:xlink="http://www.w3.org/1999/xlink">
	<desc>
			Created with Pixso.
	</desc>
	<defs>
		<clipPath id="clip6382_2619">
			<rect id="Tether Symbol" rx="4.934544" width="25.869089" height="25.869089" transform="translate(0.065456 0.065456)" fill="white" fill-opacity="0"/>
		</clipPath>
	</defs>
	<rect id="Tether Symbol" rx="4.934544" width="25.869089" height="25.869089" transform="translate(0.065456 0.065456)" fill="#009393" fill-opacity="1.000000"/>
	<g clip-path="url(#clip6382_2619)">
		<path id="Tether" d="M18.95 9.12L18.95 7L7.04 7L7.04 9.12L11.51 9.12L11.51 10.6C8.37 10.75 6.01 11.4 6 12.18L6 13.8C6.01 14.57 8.37 15.22 11.51 15.38L11.51 19L14.48 19L14.48 15.38C17.62 15.22 19.98 14.57 20 13.8L20 12.18C19.98 11.4 17.62 10.75 14.48 10.6L14.48 9.12L18.95 9.12ZM19.83 12.99C19.15 13.72 16.35 14.26 13 14.26C9.64 14.26 6.84 13.72 6.16 12.99C6.74 12.37 8.84 11.88 11.51 11.74L11.51 13.29C11.99 13.31 12.49 13.33 13 13.33C13.5 13.33 14 13.31 14.48 13.29L14.48 11.74C17.15 11.88 19.25 12.37 19.83 12.99Z" fill="#FFFFFF" fill-opacity="1.000000" fill-rule="evenodd"/>
	</g>
</svg>
