<svg width="88.000000" height="54.000000" viewBox="0 0 88 54" fill="none" xmlns="http://www.w3.org/2000/svg" xmlns:xlink="http://www.w3.org/1999/xlink">
	<desc>
			Created with Pixso.
	</desc>
	<defs/>
	<g opacity="0.100000">
		<circle id="Ellipse 68" cx="24.000000" cy="27.000000" r="24.000000" fill="#DF361E" fill-opacity="1.000000"/>
	</g>
	<circle id="Ellipse 68" cx="61.000000" cy="27.000000" r="24.000000" fill="#DF361E" fill-opacity="1.000000"/>
	<circle id="Ellipse 68" cx="61.000000" cy="27.000000" r="25.500000" stroke="#FFFFFF" stroke-opacity="1.000000" stroke-width="3.000000"/>
	<path id="Vector" d="M70.44 32.61L71.85 29.79C72.43 28.62 71.76 27.22 70.5 26.94L67.88 26.36L61.5 24.94L55.11 26.36L52.5 26.94C51.23 27.22 50.56 28.62 51.14 29.79L52.55 32.61M61.5 24.94L61.5 31.33M55.11 26.36L54.29 22.21C54.05 20.98 55 19.83 56.26 19.83L58.94 19.83L64.05 19.83L66.73 19.83C67.99 19.83 68.94 20.98 68.7 22.21L67.88 26.36M64.05 19.83L64.05 18C64.05 16.89 63.16 16 62.05 16L60.94 16C59.83 16 58.94 16.89 58.94 18L58.94 19.83M50 37.72L51.58 37.08C52.59 36.68 53.73 36.8 54.63 37.4C56 38.31 57.83 38.07 58.92 36.83L58.96 36.78C60.3 35.24 62.69 35.24 64.03 36.78L64.07 36.83C65.16 38.07 66.99 38.31 68.36 37.4C69.26 36.8 70.4 36.68 71.41 37.08L73 37.72" stroke="#FFFFFF" stroke-opacity="1.000000" stroke-width="2.000000" stroke-linejoin="round" stroke-linecap="round"/>
	<path id="Vector" d="M27.21 31.56L27.23 31.54" stroke="#DF361E" stroke-opacity="1.000000" stroke-width="2.000000" stroke-linejoin="round" stroke-linecap="round"/>
	<path id="Vector" d="M20.55 31.56L20.56 31.54" stroke="#DF361E" stroke-opacity="1.000000" stroke-width="2.000000" stroke-linejoin="round" stroke-linecap="round"/>
	<path id="Vector" d="M27.21 20.44C30.28 20.44 32.77 22.92 32.77 25.99L32.77 33.77C32.77 34.99 31.77 35.99 30.55 35.99L17.22 35.99C15.99 35.99 15 34.99 15 33.77L15 25.99C15 22.92 17.48 20.44 20.55 20.44L24.99 20.44L27.21 20.44ZM24.99 20.44L26.1 16M18.33 16L26.1 16L29.43 16" stroke="#DF361E" stroke-opacity="1.000000" stroke-width="2.000000" stroke-linejoin="round" stroke-linecap="round"/>
	<path id="Vector" d="M22.21 35.99L19.99 38.77" stroke="#DF361E" stroke-opacity="1.000000" stroke-width="2.000000" stroke-linecap="round"/>
	<path id="Vector" d="M25.55 35.99L27.77 38.77" stroke="#DF361E" stroke-opacity="1.000000" stroke-width="2.000000" stroke-linecap="round"/>
	<path id="Vector" d="M28.88 35.99L31.1 38.77" stroke="#DF361E" stroke-opacity="1.000000" stroke-width="2.000000" stroke-linecap="round"/>
	<path id="Vector" d="M18.88 35.99L16.66 38.77" stroke="#DF361E" stroke-opacity="1.000000" stroke-width="2.000000" stroke-linecap="round"/>
	<path id="Vector" d="M26.54 23.77C28.14 23.77 29.43 25.07 29.43 26.67C29.43 26.91 29.24 27.1 29 27.1L18.76 27.1C18.52 27.1 18.33 26.91 18.33 26.67C18.33 25.07 19.62 23.77 21.23 23.77L26.54 23.77Z" stroke="#DF361E" stroke-opacity="1.000000" stroke-width="2.000000" stroke-linejoin="round"/>
</svg>
