<svg width="48.000000" height="48.000000" viewBox="0 0 48 48" fill="none" xmlns="http://www.w3.org/2000/svg" xmlns:xlink="http://www.w3.org/1999/xlink">
	<desc>
			Created with Pixso.
	</desc>
	<defs/>
	<g opacity="0.100000">
		<circle id="Ellipse 68" cx="24.000000" cy="24.000000" r="24.000000" fill="#3CB4D9" fill-opacity="1.000000"/>
	</g>
	<path id="Vector" d="M21.63 28.99C21.63 27.69 20.57 26.63 19.27 26.63C17.96 26.63 16.9 27.69 16.9 28.99C16.9 30.3 17.96 31.36 19.27 31.36C20.57 31.36 21.63 30.3 21.63 28.99Z" stroke="#3CB4D9" stroke-opacity="1.000000" stroke-width="2.000000" stroke-linejoin="round"/>
	<path id="Vector" d="M33.45 28.99C33.45 27.69 32.39 26.63 31.08 26.63C29.78 26.63 28.72 27.69 28.72 28.99C28.72 30.3 29.78 31.36 31.08 31.36C32.39 31.36 33.45 30.3 33.45 28.99Z" stroke="#3CB4D9" stroke-opacity="1.000000" stroke-width="2.000000" stroke-linejoin="round"/>
	<path id="Vector" d="M21.69 28.99L27.54 28.99L27.54 16.7C27.54 16.31 27.22 16 26.83 16L11 16" stroke="#3CB4D9" stroke-opacity="1.000000" stroke-width="2.000000" stroke-linecap="round"/>
	<path id="Vector" d="M16.49 28.99L14.07 28.99C13.68 28.99 13.36 28.68 13.36 28.29L13.36 22.49" stroke="#3CB4D9" stroke-opacity="1.000000" stroke-width="2.000000" stroke-linecap="round"/>
	<path id="Vector" d="M12.18 19.54L16.9 19.54" stroke="#3CB4D9" stroke-opacity="1.000000" stroke-width="2.000000" stroke-linejoin="round" stroke-linecap="round"/>
	<path id="Vector" d="M27.54 19.54L34.17 19.54C34.45 19.54 34.7 19.71 34.82 19.96L36.93 24.72C36.97 24.81 36.99 24.91 36.99 25.01L36.99 28.29C36.99 28.68 36.68 28.99 36.28 28.99L34.04 28.99" stroke="#3CB4D9" stroke-opacity="1.000000" stroke-width="2.000000" stroke-linecap="round"/>
	<path id="Vector" d="M27.54 28.99L28.72 28.99" stroke="#3CB4D9" stroke-opacity="1.000000" stroke-width="2.000000" stroke-linecap="round"/>
</svg>
