<svg width="48.000000" height="48.000000" viewBox="0 0 48 48" fill="none" xmlns="http://www.w3.org/2000/svg" xmlns:xlink="http://www.w3.org/1999/xlink">
	<desc>
			Created with Pixso.
	</desc>
	<defs/>
	<g opacity="0.100000">
		<circle id="Ellipse 68" cx="24.000000" cy="24.000000" r="24.000000" fill="#D9C03C" fill-opacity="1.000000"/>
	</g>
	<path id="Vector" d="M35.81 20L33.15 20C32.01 20 31.08 20.92 31.08 22.06C31.08 23.21 32.01 24.13 33.15 24.13L34.93 24.13C36.07 24.13 36.99 25.06 36.99 26.2C36.99 27.34 36.07 28.27 34.93 28.27L31.08 28.27" stroke="#D9C03C" stroke-opacity="1.000000" stroke-width="2.000000" stroke-linejoin="round" stroke-linecap="round"/>
	<path id="Vector" d="M22.22 28.27L22.22 24.96L22.22 20L25.6 20C26.44 20 28.13 20 28.13 22.48C28.13 24.96 26.44 24.96 25.6 24.96C24.25 24.96 22.78 24.96 22.22 24.96" stroke="#D9C03C" stroke-opacity="1.000000" stroke-width="2.000000" stroke-linejoin="round" stroke-linecap="round"/>
	<path id="Vector" d="M17.5 20.74C16.83 20.27 16.01 20 15.13 20C12.85 20 11 21.85 11 24.13C11 26.42 12.85 28.27 15.13 28.27C17.41 28.27 19.27 26.5 19.27 24.13L15.72 24.13" stroke="#D9C03C" stroke-opacity="1.000000" stroke-width="2.000000" stroke-linejoin="round" stroke-linecap="round"/>
</svg>
